<?xml version="1.0" encoding="utf-8"?>
<!-- Generator: Adobe Illustrator 15.0.0, SVG Export Plug-In . SVG Version: 6.00 Build 0)  -->
<!DOCTYPE svg PUBLIC "-//W3C//DTD SVG 1.1//EN" "http://www.w3.org/Graphics/SVG/1.1/DTD/svg11.dtd">
<svg version="1.1" id="Capa_1" xmlns="http://www.w3.org/2000/svg" xmlns:xlink="http://www.w3.org/1999/xlink" x="0px" y="0px"
	 width="44px" height="44px" viewBox="0 0 44 44" enable-background="new 0 0 44 44" xml:space="preserve">
<g>
	<path opacity="0.9753" fill="#292521" d="M24.435,12.049c0.253,0.003,0.505,0.026,0.756,0.058c0.368,0.057,0.726,0.147,1.074,0.281
		c0.186,0.085,0.36,0.186,0.527,0.304c0.111,0.094,0.215,0.193,0.31,0.304c0.078,0.115,0.147,0.234,0.208,0.359
		c0.066,0.192,0.106,0.389,0.138,0.589c0.046,0.442,0.032,0.889,0.021,1.333c-0.008,0.29-0.004,0.583-0.023,0.873
		c-0.052,0.758-0.096,1.515-0.189,2.27C27.191,18.86,27.105,19.297,27,19.73c-0.114,0.469-0.27,0.926-0.452,1.373
		c-0.248,0.569-0.545,1.114-0.88,1.638c-0.217,0.339-0.449,0.668-0.678,1c-0.269,0.388-0.536,0.778-0.8,1.171
		c-0.243,0.36-0.482,0.724-0.735,1.078c-0.359,0.504-0.71,1.013-1.076,1.513c-0.064,0.088-0.13,0.176-0.195,0.264
		c0.312-0.624,0.597-1.262,0.9-1.893c0-0.001-0.001-0.002-0.002-0.001c-0.408,0.566-0.801,1.145-1.227,1.699
		c-0.342,0.438-0.691,0.872-1.069,1.28c-0.375,0.406-0.788,0.778-1.221,1.121c-0.462,0.349-0.956,0.656-1.438,0.975
		c-0.706,0.466-1.438,0.878-2.212,1.217c-0.342,0.14-0.696,0.259-1.06,0.324c-0.274,0.022-0.552,0.011-0.826-0.02
		c-0.305-0.049-0.602-0.118-0.891-0.227c-0.194-0.09-0.379-0.193-0.555-0.315c-0.114-0.097-0.218-0.202-0.315-0.316
		c-0.113-0.16-0.21-0.327-0.293-0.505c-0.087-0.235-0.149-0.476-0.189-0.723c-0.044-0.423-0.039-0.849-0.042-1.273
		c-0.002-0.287,0.005-0.574,0.009-0.862c0.002-0.282,0.019-0.564,0.029-0.847c0.005-0.146,0.023-0.293,0.035-0.438
		c0.014-0.165,0.026-0.328,0.045-0.49c0.074-0.512,0.175-1.025,0.327-1.518c0.079-0.256,0.158-0.511,0.237-0.766
		c0.114-0.371,0.259-0.734,0.394-1.099c0.062-0.142,0.125-0.282,0.188-0.423c0.07-0.156,0.129-0.322,0.211-0.473
		c0.106-0.195,0.212-0.391,0.318-0.587c0.075-0.138,0.144-0.281,0.228-0.414c0.129-0.206,0.258-0.411,0.388-0.616
		c0.079-0.127,0.155-0.256,0.24-0.379c0.137-0.196,0.273-0.393,0.411-0.588c0.094-0.135,0.183-0.274,0.281-0.407
		c0.285-0.365,0.569-0.732,0.854-1.099c-0.037,0.047-0.072,0.094-0.108,0.14c0.296-0.354,0.595-0.705,0.892-1.059
		c0.143-0.171,0.299-0.332,0.448-0.497c0.174-0.193,0.349-0.387,0.523-0.58c0.123-0.136,0.265-0.257,0.396-0.385
		c0.211-0.204,0.422-0.407,0.632-0.611c0.11-0.106,0.229-0.202,0.345-0.301c0.241-0.207,0.481-0.414,0.722-0.62
		c0.241-0.208,0.488-0.408,0.74-0.604c0.583-0.441,1.202-0.834,1.871-1.131c0.436-0.174,0.882-0.3,1.346-0.374
		C23.974,12.059,24.203,12.046,24.435,12.049 M22.661,10.791c-0.341,0.092-0.668,0.23-0.992,0.37
		c-0.313,0.136-0.612,0.297-0.903,0.476c-0.816,0.499-1.55,1.12-2.266,1.752c-0.227,0.2-0.453,0.401-0.68,0.601
		c-0.109,0.097-0.211,0.202-0.314,0.306c-0.32,0.319-0.653,0.628-0.952,0.969c-0.644,0.734-1.291,1.466-1.884,2.242
		c-0.282,0.369-0.575,0.729-0.839,1.11c-0.27,0.39-0.547,0.774-0.8,1.175c-0.153,0.242-0.305,0.483-0.457,0.725
		c-0.11,0.175-0.202,0.363-0.303,0.543c-0.092,0.168-0.194,0.333-0.274,0.507c-0.124,0.271-0.248,0.541-0.371,0.811
		c-0.096,0.209-0.179,0.422-0.26,0.637c-0.084,0.218-0.179,0.437-0.252,0.658c-0.086,0.264-0.172,0.526-0.259,0.791
		c-0.153,0.467-0.271,0.946-0.361,1.43c-0.073,0.395-0.116,0.792-0.158,1.19c-0.021,0.2-0.038,0.399-0.048,0.6
		c-0.025,0.462-0.051,0.925-0.057,1.388c-0.002,0.253-0.006,0.507-0.009,0.759c-0.003,0.314,0.028,0.629,0.072,0.94
		c0.048,0.336,0.129,0.66,0.261,0.974c0.075,0.18,0.153,0.354,0.249,0.523c0.094,0.166,0.212,0.316,0.329,0.467
		c0.222,0.284,0.494,0.506,0.79,0.712c0.277,0.191,0.597,0.325,0.911,0.444c0.341,0.132,0.708,0.176,1.068,0.223
		c0.298,0.037,0.604,0.037,0.903,0.008c0.203-0.021,0.402-0.055,0.599-0.107c0.182-0.051,0.358-0.123,0.532-0.193
		c0.635-0.261,1.225-0.612,1.786-1.007c0.622-0.438,1.187-0.945,1.756-1.446c0.37-0.324,0.722-0.664,1.045-1.036
		c0.026-0.03,0.053-0.061,0.079-0.091c0.525-0.373,1.037-0.767,1.518-1.192c0.636-0.562,1.211-1.188,1.765-1.829
		c0.288-0.332,0.58-0.661,0.851-1.008c0.315-0.404,0.629-0.812,0.938-1.221c0.486-0.644,0.982-1.285,1.413-1.968
		c0.37-0.589,0.672-1.213,0.917-1.864c0.234-0.619,0.386-1.265,0.504-1.915c0.155-0.845,0.211-1.7,0.267-2.556
		c0.012-0.186,0.031-0.372,0.035-0.558c0.006-0.271,0.013-0.542,0.019-0.812c0.007-0.318,0.014-0.635,0.008-0.953
		c-0.005-0.343-0.049-0.686-0.106-1.024c-0.06-0.346-0.199-0.681-0.375-0.984c-0.163-0.28-0.388-0.53-0.636-0.737
		c-0.271-0.227-0.56-0.413-0.883-0.553c-0.31-0.134-0.622-0.247-0.95-0.323c-0.366-0.084-0.746-0.128-1.121-0.161
		c-0.149-0.014-0.3-0.02-0.451-0.02C23.755,10.561,23.196,10.647,22.661,10.791"/>
	<path opacity="0.9753" fill="#292521" d="M18.968,21.846c0.029,0.133,0.147,0.313,0.239,0.405c0.1,0.1,0.278,0.213,0.417,0.244
		c0.189,0.044,0.312,0.045,0.502,0.009c0.108-0.021,0.206-0.072,0.305-0.119c0.017-0.014,0.035-0.026,0.052-0.039
		c0.042-0.025,0.083-0.054,0.12-0.085c-0.005,0.014-0.011,0.027-0.017,0.041c-0.116,0.264-0.258,0.51-0.43,0.74
		c-0.147,0.183-0.307,0.349-0.487,0.497c-0.115,0.084-0.234,0.161-0.363,0.223c-0.108,0.04-0.217,0.07-0.331,0.092
		c-0.088,0.006-0.176,0.005-0.265-0.002c-0.081-0.016-0.16-0.037-0.239-0.063c-0.037-0.02-0.073-0.039-0.108-0.062
		c-0.013-0.013-0.026-0.025-0.039-0.038c-0.005-0.008-0.009-0.015-0.014-0.021c-0.005-0.021-0.01-0.039-0.015-0.059
		c-0.001-0.054,0-0.106,0.004-0.16c0.054-0.336,0.143-0.664,0.266-0.981c0.077-0.166,0.166-0.325,0.271-0.477
		C18.88,21.94,18.923,21.893,18.968,21.846 M19.594,21.46c0,0,0.001,0,0.001,0c0.005,0.006,0.01,0.013,0.014,0.021
		C19.605,21.473,19.6,21.466,19.594,21.46 M26.224,13.045c-1.413,1.428-2.801,2.884-4.151,4.37
		c-0.314,0.346-0.637,0.683-0.954,1.026c-0.285,0.309-0.577,0.617-0.837,0.947c-0.105,0.134-0.21,0.269-0.313,0.405
		c-0.136-0.026-0.276-0.036-0.415-0.029c-0.364,0.017-0.724,0.152-1.023,0.357c-0.151,0.104-0.296,0.222-0.43,0.348
		c-0.13,0.125-0.239,0.27-0.349,0.412c-0.37,0.481-0.574,1.078-0.665,1.674c-0.046,0.304-0.08,0.609-0.074,0.918
		c0.002,0.166,0.036,0.339,0.09,0.496c0.066,0.19,0.164,0.335,0.293,0.487c0.087,0.103,0.21,0.184,0.325,0.251
		c0.138,0.081,0.302,0.136,0.458,0.168c0.327,0.068,0.673,0.053,0.993-0.042c0.562-0.167,0.989-0.579,1.309-1.055
		c0.312-0.463,0.49-1.01,0.569-1.559c0.041-0.287,0.056-0.577,0.062-0.867c0.04-0.182,0.042-0.369,0.004-0.546
		c0-0.02,0-0.039,0-0.059c0.034-0.054,0.068-0.108,0.103-0.162c0.261-0.405,0.539-0.794,0.822-1.183
		c0.261-0.356,0.526-0.708,0.787-1.063c0.279-0.378,0.539-0.774,0.803-1.165c0.396-0.587,0.794-1.172,1.171-1.771
		c0.49-0.777,0.96-1.566,1.424-2.359C26.226,13.045,26.225,13.044,26.224,13.045C26.224,13.044,26.224,13.044,26.224,13.045"/>
	<path opacity="0.9753" fill="#292521" d="M20.202,12.129c-0.113,0.647-0.205,1.299-0.291,1.952
		c-0.086,0.533-0.163,1.067-0.288,1.593c-0.099,0.414-0.242,0.813-0.376,1.216c-0.064,0.193-0.122,0.387-0.188,0.579
		c-0.143,0.42-0.272,0.844-0.406,1.267c-0.172,0.542-0.327,1.089-0.475,1.638c-0.07,0.262-0.137,0.524-0.202,0.788
		c0,0.001,0.001,0.001,0.001,0.001c0.609-0.99,1.184-2.003,1.661-3.063c0.202-0.449,0.396-0.906,0.539-1.378
		c0.221-0.726,0.29-1.483,0.268-2.239c-0.023-0.789-0.124-1.573-0.242-2.353C20.203,12.128,20.203,12.128,20.202,12.129
		C20.202,12.128,20.202,12.128,20.202,12.129"/>
	<path opacity="0.9753" fill="#292521" d="M14.974,21.557c-0.201,0.002-0.405,0.028-0.605,0.051c-0.358,0.039-0.71,0.112-1.06,0.2
		c-0.188,0.047-0.376,0.099-0.563,0.148c-0.415,0.109-0.834,0.201-1.248,0.317c-0.001,0-0.001,0.002,0,0.002
		c0.482,0.04,0.961,0.067,1.444,0.045c0.2-0.009,0.399-0.029,0.598-0.047c0.502-0.043,1.005-0.101,1.501-0.187
		c0.724-0.096,1.44-0.231,2.15-0.401c0.001,0,0.001-0.002,0-0.002c-0.567-0.067-1.134-0.11-1.705-0.124
		c-0.12-0.002-0.238-0.004-0.358-0.004C15.078,21.556,15.026,21.556,14.974,21.557"/>
	<path opacity="0.9753" fill="#292521" d="M18.042,23.124c-0.679,0.916-1.321,1.859-1.898,2.844
		c-0.246,0.419-0.484,0.844-0.71,1.274c-0.19,0.363-0.372,0.729-0.559,1.093c-0.298,0.581-0.588,1.167-0.877,1.751
		c-0.128,0.26-0.272,0.513-0.414,0.765c-0.076,0.136-0.151,0.272-0.223,0.412c-0.187,0.36-0.262,0.764-0.359,1.156
		c0,0,0.001,0.001,0.002,0c0.185-0.282,0.343-0.583,0.545-0.854c0.314-0.38,0.66-0.729,0.957-1.122
		c0.264-0.351,0.527-0.703,0.771-1.066c0.288-0.43,0.562-0.865,0.812-1.318c0.203-0.366,0.378-0.751,0.545-1.135
		c0.539-1.238,1.004-2.511,1.409-3.799C18.044,23.124,18.043,23.124,18.042,23.124C18.042,23.124,18.042,23.124,18.042,23.124"/>
	<path opacity="0.9753" fill="#292521" d="M19.416,22.536c0.154,0.567,0.328,1.13,0.534,1.681c0.125,0.337,0.246,0.677,0.39,1.007
		c0.066,0.173,0.138,0.345,0.211,0.516c0.24,0.628,0.511,1.242,0.83,1.837c0,0,0.002,0,0.002-0.001
		c-0.068-0.541-0.157-1.082-0.268-1.617c-0.071-0.343-0.156-0.688-0.289-1.013c-0.353-0.865-0.861-1.655-1.407-2.411h0
		C19.417,22.534,19.416,22.535,19.416,22.536"/>
	<path opacity="0.9753" fill="#292521" d="M24.229,20.107c-0.39,0.127-0.77,0.28-1.147,0.437c-0.226,0.093-0.449,0.19-0.671,0.291
		c-0.225,0.102-0.454,0.192-0.681,0.289c-0.271,0.116-0.541,0.236-0.808,0.364c0,0,0,0.001,0,0.001
		c0.551-0.066,1.101-0.14,1.646-0.255c0.22-0.047,0.438-0.109,0.656-0.169c0.395-0.107,0.782-0.235,1.163-0.384
		c0.919-0.356,1.815-0.762,2.688-1.221c0.001-0.001,0.001-0.002,0-0.002C26.116,19.613,25.153,19.807,24.229,20.107"/>
	<path opacity="0.9753" fill="#292521" d="M31.609,26.652c-0.011,0.005-0.022,0.01-0.034,0.014
		C31.587,26.662,31.598,26.657,31.609,26.652 M27.532,11.017c0.19,0.172,0.387,0.338,0.576,0.511
		c0.128,0.117,0.243,0.245,0.357,0.376c0.119,0.14,0.233,0.284,0.348,0.43c0.152,0.216,0.305,0.432,0.451,0.652
		c0.315,0.477,0.597,0.969,0.824,1.494c0.164,0.405,0.288,0.82,0.414,1.238c0.086,0.278,0.146,0.565,0.219,0.848
		c0.068,0.276,0.113,0.559,0.168,0.838c0.043,0.219,0.069,0.443,0.098,0.665c0.061,0.557,0.104,1.127,0.066,1.688
		c-0.015,0.235-0.029,0.471-0.044,0.707c-0.021,0.354-0.064,0.707-0.107,1.059c-0.038,0.231-0.074,0.463-0.112,0.694
		c-0.021,0.122-0.04,0.244-0.057,0.366c-0.029,0.201-0.069,0.404-0.081,0.607c-0.01,0.157-0.021,0.314-0.025,0.473
		c-0.008,0.425,0.042,0.861,0.137,1.275c0.071,0.31,0.205,0.601,0.379,0.863c0.073,0.108,0.142,0.218,0.2,0.334
		c0.03,0.088,0.054,0.178,0.071,0.27c0.005,0.069,0.006,0.14,0.003,0.211c-0.002,0.006-0.003,0.012-0.005,0.018
		c-0.14-0.031-0.278-0.07-0.417-0.113c-0.103-0.031-0.204-0.078-0.304-0.119c-0.083-0.034-0.165-0.068-0.252-0.087
		c-0.365-0.08-0.773-0.008-1.046,0.267c-0.144,0.143-0.236,0.297-0.319,0.475c-0.051,0.105-0.105,0.208-0.163,0.311
		c-0.095,0.167-0.206,0.325-0.317,0.482c-0.231,0.284-0.476,0.554-0.741,0.807c-0.34,0.324-0.691,0.633-1.047,0.938
		c-0.654,0.562-1.32,1.108-1.989,1.652c-0.292,0.218-0.592,0.424-0.904,0.613c-0.303,0.184-0.619,0.342-0.942,0.485
		c-0.185,0.071-0.368,0.143-0.551,0.213c-0.417,0.163-0.855,0.269-1.297,0.334c-0.561,0.066-1.127,0.086-1.69,0.113
		c-0.437,0.021-0.873,0.046-1.311,0.055c-0.455,0.011-0.91,0.015-1.365,0.014c-0.442-0.002-0.884-0.001-1.326,0.012
		c-0.525,0.015-1.05,0.032-1.576,0.053c-0.001,0-0.001,0.002,0,0.003c0.987,0.193,1.974,0.389,2.964,0.562
		c0.493,0.087,0.987,0.17,1.484,0.221c0.498,0.053,0.995,0.096,1.493,0.134c0.231,0.018,0.462,0.027,0.694,0.04
		c0.562,0.03,1.115,0.002,1.671-0.085c0.369-0.058,0.725-0.164,1.082-0.268c0.496-0.144,0.976-0.344,1.435-0.578
		c0.68-0.348,1.294-0.813,1.886-1.291c0.391-0.315,0.772-0.638,1.153-0.963c0.542-0.466,1.082-0.935,1.598-1.43
		c0.25-0.24,0.481-0.496,0.706-0.759c0.134-0.155,0.258-0.316,0.382-0.479c0.002,0.001,0.004,0.002,0.006,0.002
		c0.11,0.039,0.223,0.074,0.337,0.099c0.125,0.027,0.249,0.051,0.374,0.072c0.195,0.033,0.399,0.075,0.598,0.052
		c0.146-0.017,0.245-0.025,0.374-0.075c0.197-0.078,0.352-0.155,0.508-0.304c0.146-0.139,0.272-0.308,0.36-0.49
		c0.096-0.197,0.171-0.396,0.202-0.612c0.033-0.221,0.054-0.426,0.027-0.646c-0.025-0.218-0.06-0.43-0.119-0.642
		c-0.055-0.192-0.143-0.379-0.229-0.56c-0.025-0.051-0.05-0.103-0.079-0.15c-0.061-0.105-0.124-0.207-0.18-0.313
		c-0.062-0.183-0.104-0.37-0.134-0.561c-0.021-0.19-0.032-0.384-0.026-0.576c0.005-0.124,0-0.252,0.013-0.375
		c0.024-0.226,0.046-0.451,0.072-0.676c0.052-0.452,0.089-0.902,0.113-1.356c0.023-0.458,0-0.92-0.015-1.378
		c-0.011-0.326-0.061-0.654-0.105-0.977c-0.041-0.304-0.097-0.614-0.179-0.91c-0.068-0.251-0.138-0.502-0.208-0.752
		c-0.062-0.225-0.15-0.445-0.226-0.666c-0.07-0.202-0.154-0.399-0.234-0.597c-0.221-0.545-0.466-1.083-0.761-1.592
		c-0.406-0.7-0.939-1.326-1.515-1.893c-0.177-0.173-0.355-0.341-0.54-0.505c-0.254-0.224-0.533-0.418-0.826-0.586
		c-0.157-0.09-0.317-0.174-0.477-0.263l0,0C27.532,11.015,27.531,11.017,27.532,11.017"/>
</g>
</svg>
