<?xml version="1.0" encoding="utf-8"?>
<!-- Generator: Adobe Illustrator 15.0.0, SVG Export Plug-In . SVG Version: 6.00 Build 0)  -->
<!DOCTYPE svg PUBLIC "-//W3C//DTD SVG 1.1//EN" "http://www.w3.org/Graphics/SVG/1.1/DTD/svg11.dtd">
<svg version="1.1" id="Capa_1" xmlns="http://www.w3.org/2000/svg" xmlns:xlink="http://www.w3.org/1999/xlink" x="0px" y="0px"
	 width="44px" height="44px" viewBox="0 0 44 44" enable-background="new 0 0 44 44" xml:space="preserve">
<g>
	<path opacity="0.9753" fill="#292521" d="M12.35,33.78c-0.015,0.006-0.031,0.013-0.046,0.02
		C12.319,33.793,12.334,33.787,12.35,33.78 M12.262,32.798c-0.013,0.006-0.025,0.01-0.039,0.016
		C12.236,32.808,12.249,32.804,12.262,32.798 M33.16,9.728c-0.141,0.032-0.271,0.089-0.403,0.146
		c-0.323,0.138-0.638,0.293-0.961,0.436c-0.104,0.045-0.208,0.09-0.312,0.136c-0.156,0.062-0.312,0.127-0.472,0.18
		c-0.102,0.034-0.204,0.068-0.308,0.102c-0.102,0.034-0.209,0.056-0.312,0.083c-0.193,0.05-0.39,0.081-0.583,0.117
		c-0.146,0.028-0.294,0.045-0.441,0.065c-0.172,0.017-0.344,0.033-0.517,0.051c-0.165,0.016-0.333,0.021-0.5,0.031
		c-0.323,0.02-0.648,0.023-0.973,0.03c-0.313,0.007-0.628,0.009-0.942,0.012c-0.307,0.002-0.615-0.001-0.921,0.023
		c-0.472,0.038-0.942,0.081-1.388,0.253c-0.339,0.132-0.657,0.312-0.913,0.574c-0.254,0.258-0.416,0.58-0.546,0.912
		c-0.265,0.679-0.353,1.414-0.621,2.09c-0.082,0.183-0.182,0.354-0.299,0.517c-0.216,0.262-0.467,0.494-0.732,0.706
		c-0.272,0.203-0.561,0.38-0.859,0.542c-0.136,0.074-0.278,0.138-0.417,0.206c-0.197,0.097-0.402,0.181-0.605,0.267
		c-0.172,0.062-0.344,0.125-0.517,0.188c-0.127,0.047-0.255,0.086-0.384,0.127c-0.145,0.044-0.29,0.091-0.436,0.132
		c-0.183,0.051-0.366,0.102-0.549,0.151c-0.627,0.172-1.267,0.291-1.904,0.426c-0.162,0.033-0.321,0.074-0.482,0.113
		c-0.16,0.04-0.315,0.088-0.473,0.135c-0.357,0.107-0.71,0.244-1.036,0.427c-0.202,0.114-0.387,0.255-0.567,0.401
		c-0.181,0.146-0.349,0.312-0.498,0.49c-0.313,0.373-0.533,0.801-0.699,1.256c-0.09,0.246-0.147,0.498-0.207,0.752
		c-0.015,0.064-0.022,0.134-0.032,0.2c-0.017,0.113-0.039,0.228-0.05,0.342c-0.016,0.155-0.036,0.312-0.045,0.468
		c-0.018,0.316-0.033,0.633-0.046,0.95c-0.011,0.271-0.034,0.543-0.061,0.813c-0.032,0.213-0.076,0.426-0.151,0.629
		c-0.044,0.094-0.096,0.183-0.155,0.267c-0.076,0.09-0.159,0.172-0.25,0.247c-0.166,0.12-0.345,0.215-0.532,0.298
		c-0.362,0.146-0.741,0.246-1.109,0.375c-0.297,0.104-0.598,0.202-0.889,0.323c-0.074,0.032-0.149,0.062-0.222,0.096
		c-0.106,0.049-0.209,0.116-0.297,0.195c-0.081,0.072-0.148,0.162-0.202,0.257c-0.034,0.06-0.063,0.136-0.086,0.197
		c-0.025,0.066-0.046,0.131-0.06,0.2c-0.026,0.131-0.037,0.262-0.029,0.395c0.008,0.133,0.033,0.268,0.062,0.398
		c0.058,0.254,0.166,0.5,0.281,0.731c0.116,0.233,0.265,0.452,0.404,0.673c0.088,0.139,0.18,0.273,0.271,0.411
		c0.09,0.135,0.182,0.269,0.272,0.402c0.091,0.135,0.176,0.271,0.263,0.407c0.161,0.25,0.321,0.501,0.48,0.752
		c0.179,0.28,0.356,0.562,0.528,0.846c0.081,0.136,0.157,0.273,0.237,0.407c0.096,0.159,0.21,0.307,0.332,0.446
		c0.087,0.099,0.199,0.188,0.306,0.263c0.127,0.088,0.265,0.152,0.411,0.203c0.099,0.035,0.2,0.057,0.305,0.065
		c0.186,0.016,0.375-0.021,0.549-0.08c0.117-0.042,0.231-0.095,0.346-0.144c0.067-0.029,0.134-0.057,0.202-0.085
		c-0.018,0.008-0.036,0.015-0.053,0.021c0.61-0.258,1.21-0.533,1.807-0.82c0.282-0.135,0.558-0.285,0.825-0.449
		c0.084-0.052,0.168-0.104,0.253-0.154c0.18-0.111,0.349-0.234,0.516-0.364c0.185-0.143,0.333-0.323,0.47-0.512
		c0.15-0.206,0.252-0.449,0.337-0.687c0.114-0.32,0.159-0.662,0.199-0.997c0.022-0.184,0.035-0.367,0.046-0.552
		c0.016-0.247,0.027-0.494,0.037-0.743c0.007-0.208,0.01-0.415,0.015-0.623c0.005-0.312-0.005-0.627,0.026-0.938
		c0.018-0.098,0.042-0.193,0.076-0.287c0.043-0.09,0.093-0.175,0.151-0.257c0.138-0.165,0.293-0.311,0.462-0.445
		c0.092-0.069,0.188-0.135,0.281-0.202c0.051-0.037,0.108-0.067,0.162-0.101c0.054-0.032,0.107-0.065,0.162-0.1
		c0.047-0.028,0.098-0.052,0.146-0.077c0.065-0.034,0.131-0.07,0.196-0.105c0.1-0.053,0.205-0.098,0.308-0.145
		c0.112-0.046,0.225-0.093,0.339-0.13c0.165-0.055,0.329-0.106,0.496-0.153c0.322-0.089,0.648-0.159,0.976-0.229
		c0.292-0.062,0.588-0.11,0.88-0.173c0.317-0.066,0.638-0.127,0.951-0.209c0.152-0.039,0.307-0.078,0.459-0.12
		c0.155-0.04,0.312-0.078,0.465-0.124c0.152-0.048,0.31-0.087,0.457-0.144c0.183-0.069,0.367-0.133,0.543-0.216
		c0.147-0.069,0.298-0.134,0.441-0.214c0.092-0.053,0.187-0.105,0.279-0.158c0.146-0.082,0.286-0.176,0.423-0.273
		c0.189-0.136,0.372-0.283,0.543-0.443c0.18-0.171,0.332-0.374,0.463-0.587c0.126-0.205,0.216-0.437,0.302-0.663
		c0.051-0.132,0.092-0.268,0.129-0.404c0.025-0.096,0.052-0.19,0.077-0.286c0.024-0.089,0.036-0.184,0.055-0.275
		c0.039-0.201,0.062-0.404,0.088-0.606c0.021-0.161,0.029-0.322,0.041-0.483c0.013-0.17,0.025-0.341,0.045-0.51
		c0.025-0.167,0.061-0.329,0.118-0.486c0.043-0.088,0.092-0.171,0.146-0.252c0.069-0.082,0.143-0.159,0.223-0.229
		c0.098-0.067,0.199-0.124,0.306-0.173c0.177-0.067,0.356-0.11,0.544-0.139c0.638-0.077,1.281-0.075,1.922-0.095
		c0.346-0.01,0.695-0.023,1.041-0.039c0.428-0.019,0.857-0.029,1.281-0.088c0.254-0.036,0.495-0.102,0.729-0.207
		c0.228-0.101,0.44-0.228,0.635-0.382c0.332-0.267,0.596-0.618,0.785-1.001c0.081-0.163,0.159-0.327,0.231-0.494
		c0.132-0.304,0.254-0.612,0.376-0.92c0,0,0-0.001,0,0c-0.2,0.283-0.393,0.57-0.59,0.854c-0.097,0.138-0.198,0.271-0.3,0.405
		c-0.081,0.102-0.164,0.2-0.254,0.292c-0.09,0.095-0.189,0.181-0.293,0.263c-0.155,0.114-0.318,0.209-0.492,0.289
		c-0.204,0.082-0.412,0.144-0.63,0.178c-0.315,0.034-0.633,0.011-0.948-0.004c-0.166-0.008-0.33-0.015-0.496-0.021
		c-0.316-0.013-0.633-0.022-0.95-0.028c-0.642-0.012-1.281,0.002-1.921,0.055c-0.145,0.012-0.289,0.034-0.432,0.057
		c-0.157,0.025-0.31,0.066-0.458,0.121c-0.315,0.118-0.604,0.283-0.843,0.522c-0.108,0.109-0.203,0.235-0.291,0.364
		c-0.094,0.138-0.159,0.299-0.216,0.455c-0.048,0.129-0.074,0.268-0.096,0.403c-0.019,0.117-0.033,0.233-0.044,0.351
		c-0.019,0.212-0.03,0.426-0.049,0.639c-0.01,0.107-0.015,0.216-0.029,0.322c-0.01,0.083-0.021,0.167-0.031,0.25
		c-0.027,0.142-0.049,0.286-0.087,0.426c-0.028,0.104-0.056,0.208-0.085,0.312c-0.043,0.158-0.101,0.312-0.161,0.463
		c-0.082,0.184-0.177,0.357-0.295,0.519c-0.136,0.163-0.293,0.307-0.457,0.438c-0.154,0.114-0.312,0.227-0.479,0.32
		c-0.11,0.061-0.22,0.123-0.33,0.185c-0.132,0.075-0.275,0.135-0.413,0.198c-0.056,0.021-0.111,0.042-0.167,0.063
		c-0.073,0.027-0.146,0.061-0.222,0.082c-0.151,0.047-0.303,0.098-0.456,0.138c-0.314,0.082-0.628,0.164-0.941,0.245
		c-0.153,0.038-0.309,0.068-0.462,0.101c-0.155,0.032-0.31,0.065-0.465,0.096c-0.323,0.062-0.646,0.121-0.968,0.188
		c-0.168,0.035-0.335,0.071-0.502,0.111c-0.166,0.04-0.329,0.085-0.494,0.13c-0.057,0.015-0.112,0.034-0.167,0.052
		c-0.08,0.026-0.162,0.049-0.24,0.078c-0.175,0.069-0.353,0.133-0.523,0.213c-0.163,0.076-0.322,0.153-0.48,0.236
		c-0.15,0.08-0.293,0.168-0.438,0.257c-0.052,0.032-0.101,0.069-0.151,0.105c-0.117,0.084-0.232,0.169-0.347,0.259
		c-0.174,0.135-0.333,0.287-0.473,0.458c-0.08,0.099-0.156,0.2-0.22,0.31c-0.071,0.12-0.125,0.255-0.17,0.388
		c-0.051,0.15-0.069,0.313-0.086,0.47c-0.015,0.143-0.014,0.286-0.014,0.429c0.001,0.124,0,0.246-0.001,0.37
		c0,0.203-0.006,0.406-0.011,0.609c-0.013,0.49-0.038,0.983-0.098,1.47c-0.042,0.291-0.102,0.576-0.208,0.85
		c-0.064,0.14-0.139,0.271-0.228,0.396c-0.092,0.109-0.192,0.206-0.302,0.297c-0.262,0.192-0.548,0.357-0.832,0.516
		c-0.208,0.117-0.421,0.226-0.639,0.326c-0.44,0.204-0.883,0.401-1.33,0.591c-0.102,0.041-0.204,0.081-0.306,0.123
		c-0.184,0.073-0.368,0.158-0.562,0.202c-0.023,0.001-0.046,0.001-0.069,0.001c-0.046-0.012-0.091-0.026-0.136-0.043
		c-0.06-0.031-0.117-0.064-0.172-0.103c-0.049-0.043-0.096-0.087-0.141-0.136c-0.034-0.035-0.066-0.072-0.097-0.111
		c-0.18-0.254-0.341-0.522-0.509-0.784c-0.176-0.276-0.354-0.549-0.527-0.825c-0.173-0.275-0.347-0.55-0.52-0.825
		c-0.085-0.137-0.177-0.271-0.266-0.404c-0.088-0.134-0.174-0.27-0.261-0.404c-0.064-0.101-0.125-0.204-0.187-0.307
		c-0.108-0.178-0.212-0.357-0.298-0.546c-0.065-0.167-0.117-0.337-0.149-0.513c-0.006-0.064-0.008-0.127-0.005-0.191
		c0.01-0.048,0.024-0.095,0.04-0.142c0.01-0.021,0.021-0.04,0.033-0.06c0.005-0.006,0.01-0.011,0.016-0.015
		c0.098-0.065,0.204-0.113,0.31-0.16c0.286-0.113,0.574-0.227,0.865-0.319c0.532-0.173,1.083-0.32,1.559-0.623
		c0.182-0.115,0.354-0.256,0.499-0.415c0.079-0.088,0.149-0.184,0.215-0.281c0.08-0.117,0.137-0.249,0.189-0.38
		c0.137-0.338,0.182-0.708,0.219-1.069c0.034-0.342,0.05-0.687,0.064-1.03c0.008-0.183,0.019-0.365,0.03-0.549
		c0.01-0.164,0.029-0.328,0.044-0.491c0.018-0.126,0.035-0.252,0.063-0.377c0.022-0.097,0.044-0.194,0.067-0.291
		c0.045-0.198,0.114-0.394,0.19-0.583c0.108-0.24,0.239-0.469,0.395-0.681c0.166-0.202,0.357-0.383,0.561-0.547
		c0.223-0.163,0.458-0.297,0.71-0.409c0.226-0.09,0.458-0.16,0.691-0.233c0.157-0.049,0.318-0.084,0.477-0.126
		c0.159-0.041,0.321-0.072,0.481-0.106c0.158-0.033,0.316-0.064,0.474-0.096c0.303-0.061,0.605-0.133,0.905-0.208
		c0.297-0.076,0.596-0.149,0.89-0.237c0.129-0.039,0.257-0.077,0.386-0.117c0.081-0.024,0.164-0.045,0.243-0.074
		c0.249-0.089,0.501-0.171,0.744-0.275c-0.035,0.015-0.07,0.03-0.105,0.045c0.168-0.07,0.335-0.142,0.503-0.212
		c0.183-0.077,0.36-0.163,0.539-0.25c0.255-0.124,0.504-0.257,0.743-0.412c0.367-0.238,0.713-0.516,1.019-0.831
		c0.157-0.161,0.3-0.337,0.426-0.524c0.125-0.189,0.217-0.394,0.304-0.603c0.108-0.262,0.183-0.536,0.252-0.811
		c0.039-0.152,0.08-0.305,0.121-0.457c0.079-0.296,0.159-0.591,0.271-0.877c0.063-0.138,0.136-0.272,0.224-0.396
		c0.067-0.077,0.137-0.149,0.215-0.216c0.122-0.085,0.254-0.157,0.391-0.221c0.222-0.086,0.452-0.143,0.688-0.179
		c0.655-0.078,1.318-0.058,1.976-0.063c0.313-0.003,0.625-0.008,0.937-0.019c0.316-0.009,0.633-0.02,0.947-0.047
		c0.189-0.018,0.379-0.033,0.568-0.058c0.172-0.023,0.344-0.046,0.516-0.069c-0.04,0.005-0.079,0.011-0.121,0.016
		c0.171-0.023,0.339-0.055,0.507-0.085c0.117-0.021,0.23-0.049,0.345-0.078c0.246-0.064,0.488-0.135,0.727-0.227
		c0.527-0.203,1.044-0.434,1.563-0.66c0.006-0.002,0.012-0.004,0.019-0.007c0.132-0.054,0.266-0.102,0.404-0.131
		c0.034-0.002,0.07-0.002,0.106-0.001c0.034,0.009,0.069,0.02,0.104,0.031c0.051,0.026,0.1,0.056,0.146,0.088
		c0.202,0.171,0.384,0.358,0.557,0.559c0.157,0.182,0.305,0.37,0.454,0.559c0.195,0.261,0.389,0.524,0.586,0.784
		c0.102,0.133,0.196,0.271,0.294,0.408c0.093,0.129,0.172,0.268,0.258,0.403c0.037,0.059,0.074,0.118,0.11,0.177
		c0.032,0.052,0.058,0.109,0.088,0.163c0.095,0.178,0.192,0.354,0.29,0.531c0.053,0.097,0.101,0.198,0.151,0.296
		c0.104,0.206,0.21,0.411,0.317,0.615c0.154,0.297,0.309,0.593,0.466,0.888c0,0,0.001,0,0.001-0.001
		c-0.128-0.487-0.262-0.973-0.402-1.457c-0.046-0.159-0.093-0.317-0.14-0.477c-0.041-0.14-0.096-0.278-0.144-0.416
		c-0.053-0.15-0.101-0.301-0.166-0.447c-0.076-0.172-0.152-0.344-0.23-0.517c-0.027-0.061-0.064-0.12-0.097-0.179
		c-0.046-0.084-0.091-0.167-0.137-0.252C36,12.264,35.917,12.14,35.84,12.011c-0.163-0.277-0.332-0.552-0.508-0.823
		c-0.183-0.285-0.365-0.58-0.589-0.833c-0.16-0.181-0.33-0.353-0.536-0.484c-0.101-0.064-0.219-0.107-0.331-0.146
		c-0.068-0.022-0.143-0.027-0.212-0.037c-0.046-0.006-0.092-0.009-0.139-0.011c-0.007,0-0.014-0.001-0.021-0.001
		C33.39,9.677,33.271,9.702,33.16,9.728"/>
	<path opacity="0.9753" fill="#292521" d="M9.271,31.568C9.271,31.568,9.271,31.568,9.271,31.568S9.271,31.568,9.271,31.568
		 M30.186,11.322c-0.274,0.012-0.548,0.024-0.822,0.041c-0.135,0.007-0.27,0.016-0.404,0.025c-0.288,0.02-0.577,0.06-0.86,0.121
		c-0.192,0.041-0.373,0.11-0.552,0.188c-0.197,0.084-0.371,0.211-0.531,0.352c-0.146,0.128-0.267,0.288-0.374,0.449
		c-0.114,0.174-0.193,0.375-0.256,0.574c-0.089,0.289-0.117,0.595-0.147,0.894c-0.014,0.141-0.029,0.282-0.044,0.422
		c-0.002,0.037-0.007,0.073-0.012,0.108c-0.031,0.237-0.065,0.474-0.147,0.698c-0.03,0.062-0.064,0.122-0.105,0.18
		c-0.063,0.073-0.134,0.138-0.209,0.201c-0.171,0.124-0.355,0.223-0.547,0.31c-0.196,0.077-0.398,0.142-0.6,0.207
		c-0.121,0.04-0.242,0.077-0.365,0.112c-0.121,0.036-0.241,0.071-0.365,0.101c-0.127,0.03-0.255,0.061-0.382,0.09
		c-0.555,0.124-1.111,0.234-1.669,0.343c-0.263,0.051-0.521,0.118-0.778,0.187c-0.33,0.089-0.652,0.22-0.949,0.389
		c-0.174,0.098-0.338,0.217-0.495,0.341c-0.128,0.103-0.25,0.215-0.359,0.338c-0.198,0.226-0.388,0.465-0.537,0.729
		c-0.031,0.056-0.067,0.111-0.095,0.167c-0.036,0.075-0.071,0.15-0.107,0.225c-0.037,0.078-0.067,0.158-0.098,0.238
		c-0.023,0.059-0.051,0.119-0.07,0.179c-0.031,0.101-0.064,0.2-0.091,0.301c-0.029,0.107-0.057,0.215-0.087,0.322
		c-0.069,0.249-0.142,0.497-0.236,0.737c-0.054,0.119-0.113,0.233-0.188,0.341c-0.065,0.078-0.137,0.149-0.215,0.214
		c-0.11,0.078-0.228,0.143-0.35,0.2c-0.329,0.127-0.68,0.192-1.024,0.269c-0.437,0.097-0.873,0.226-1.275,0.422
		c-0.174,0.086-0.332,0.201-0.483,0.321c-0.147,0.116-0.28,0.246-0.4,0.388c-0.183,0.215-0.335,0.448-0.483,0.688
		c-0.141,0.231-0.269,0.469-0.392,0.709c-0.125,0.246-0.236,0.499-0.351,0.75c-0.112,0.246-0.233,0.488-0.352,0.73
		c-0.12,0.245-0.238,0.489-0.359,0.731c-0.119,0.236-0.237,0.475-0.352,0.713c-0.149,0.309-0.298,0.62-0.472,0.917
		c-0.096,0.162-0.194,0.323-0.295,0.483c-0.083,0.133-0.181,0.258-0.276,0.383c-0.212,0.264-0.436,0.521-0.618,0.807
		c-0.163,0.256-0.287,0.531-0.405,0.809c-0.113,0.267-0.218,0.538-0.33,0.807c0-0.002,0.001-0.002,0.001-0.002
		c-0.006,0.015-0.012,0.028-0.018,0.042c0,0,0,0.001,0.001,0c0.26-0.364,0.501-0.743,0.771-1.099
		c0.106-0.136,0.218-0.268,0.337-0.393c0.111-0.116,0.23-0.223,0.351-0.33c0.103-0.092,0.208-0.183,0.306-0.279
		c0.103-0.101,0.203-0.203,0.301-0.31c0.087-0.095,0.168-0.195,0.25-0.295c0.354-0.429,0.645-0.904,0.93-1.38
		c0.146-0.244,0.292-0.487,0.435-0.734c0.132-0.23,0.251-0.469,0.373-0.705c0.238-0.462,0.421-0.949,0.672-1.404
		c0.175-0.315,0.35-0.633,0.565-0.924c0.125-0.153,0.26-0.294,0.414-0.42c0.134-0.099,0.276-0.183,0.428-0.253
		c0.343-0.137,0.703-0.227,1.064-0.304c0.132-0.029,0.264-0.06,0.396-0.089c0.076-0.018,0.151-0.035,0.226-0.055
		c0.213-0.058,0.418-0.138,0.616-0.233c0.375-0.182,0.691-0.481,0.903-0.841c0.042-0.07,0.074-0.146,0.107-0.222
		c0.045-0.101,0.086-0.203,0.126-0.307c0.031-0.084,0.058-0.17,0.086-0.255c0.08-0.24,0.134-0.487,0.209-0.729
		c0.029-0.094,0.053-0.192,0.088-0.283c0.026-0.067,0.052-0.133,0.078-0.2c0.034-0.069,0.066-0.139,0.1-0.208
		c0.037-0.077,0.085-0.151,0.127-0.225c0.041-0.074,0.092-0.142,0.138-0.212c0.029-0.045,0.062-0.089,0.094-0.132
		c0.043-0.051,0.086-0.1,0.129-0.151c0.104-0.122,0.223-0.233,0.347-0.334c0.202-0.15,0.416-0.278,0.644-0.382
		c0.328-0.128,0.671-0.209,1.014-0.284c0.253-0.055,0.509-0.102,0.764-0.15c0.255-0.05,0.509-0.101,0.762-0.155
		c0.128-0.027,0.256-0.053,0.383-0.082c0.084-0.02,0.169-0.038,0.254-0.058c0.056-0.013,0.112-0.022,0.166-0.039
		c0.25-0.07,0.497-0.143,0.744-0.22c0.245-0.076,0.482-0.163,0.717-0.266c0.147-0.063,0.288-0.14,0.424-0.227
		c0.169-0.108,0.331-0.238,0.467-0.384c0.12-0.131,0.223-0.282,0.294-0.445c0.036-0.086,0.073-0.173,0.102-0.263
		c0.025-0.081,0.042-0.166,0.06-0.249c0.019-0.091,0.03-0.183,0.044-0.274c0.014-0.111,0.032-0.222,0.044-0.331
		c0.025-0.258,0.049-0.517,0.08-0.773c0.029-0.201,0.072-0.398,0.144-0.589c0.05-0.106,0.109-0.205,0.177-0.299
		c0.073-0.087,0.153-0.167,0.239-0.241c0.102-0.072,0.209-0.133,0.322-0.186c0.392-0.153,0.81-0.218,1.224-0.281
		c0.229-0.033,0.459-0.068,0.688-0.104c0.22-0.034,0.44-0.069,0.659-0.105c0.193-0.032,0.388-0.055,0.58-0.084
		c0.2-0.019,0.401-0.04,0.6-0.06c0.133-0.014,0.264-0.022,0.396-0.029c0.576-0.034,1.151-0.072,1.727-0.111c0.001,0,0.001,0,0,0
		c-0.416-0.068-0.832-0.131-1.249-0.188c-0.19-0.025-0.38-0.051-0.569-0.074c-0.071-0.009-0.143-0.019-0.216-0.024
		c-0.275-0.019-0.553-0.044-0.829-0.045c-0.011,0-0.021,0-0.032,0C30.756,11.306,30.473,11.311,30.186,11.322"/>
	<path opacity="0.9753" fill="#292521" d="M12.839,28.145c-0.007,0.016-0.014,0.033-0.021,0.05
		C12.826,28.178,12.833,28.16,12.839,28.145 M35.205,12.198c-0.189,0.171-0.358,0.364-0.557,0.524
		c-0.058,0.044-0.115,0.081-0.182,0.111c-0.111,0.044-0.223,0.084-0.338,0.116s-0.234,0.052-0.353,0.069
		c-0.239,0.029-0.478,0.033-0.717,0.039c-0.124,0.003-0.247,0.002-0.371,0.01c-0.136,0.008-0.273,0.015-0.41,0.031
		c-0.167,0.02-0.335,0.041-0.501,0.069c-0.146,0.025-0.289,0.054-0.432,0.085c-0.142,0.031-0.28,0.071-0.421,0.11
		c-0.313,0.091-0.619,0.221-0.907,0.379c-0.208,0.113-0.402,0.251-0.599,0.387c-0.476,0.329-0.91,0.718-1.324,1.122
		c-0.202,0.196-0.4,0.396-0.606,0.588c-0.218,0.202-0.439,0.398-0.663,0.591c-0.017,0.014-0.032,0.026-0.049,0.041
		c-0.146,0.107-0.296,0.207-0.455,0.293c-0.085,0.045-0.168,0.091-0.254,0.136c-0.108,0.059-0.223,0.11-0.336,0.161
		c-0.197,0.073-0.394,0.144-0.595,0.205c-0.157,0.047-0.312,0.096-0.468,0.144c-0.188,0.058-0.372,0.135-0.549,0.221
		c-0.172,0.083-0.329,0.188-0.476,0.309c-0.133,0.107-0.242,0.231-0.343,0.368c-0.099,0.133-0.165,0.28-0.226,0.433
		c-0.051,0.128-0.097,0.255-0.141,0.386c-0.086,0.261-0.164,0.522-0.265,0.777c-0.098,0.218-0.212,0.429-0.354,0.623
		c-0.163,0.201-0.349,0.38-0.55,0.542c-0.408,0.303-0.87,0.521-1.327,0.742c-0.381,0.183-0.763,0.361-1.149,0.535
		c-0.104,0.042-0.207,0.085-0.31,0.128c-0.128,0.053-0.26,0.097-0.39,0.145c-0.127,0.048-0.257,0.096-0.386,0.137
		c-0.129,0.042-0.258,0.088-0.389,0.125c-0.273,0.077-0.547,0.155-0.821,0.234c-0.137,0.039-0.274,0.077-0.412,0.119
		c-0.134,0.04-0.271,0.075-0.403,0.122c-0.164,0.061-0.328,0.116-0.487,0.187c-0.206,0.092-0.411,0.181-0.605,0.298
		c-0.179,0.106-0.346,0.235-0.5,0.376c-0.164,0.151-0.304,0.328-0.432,0.51c-0.11,0.156-0.196,0.327-0.271,0.502
		c-0.066,0.154-0.126,0.31-0.173,0.471c-0.08,0.274-0.161,0.547-0.244,0.821c-0.081,0.268-0.185,0.528-0.286,0.788
		c-0.062,0.158-0.125,0.316-0.188,0.475c-0.045,0.105-0.09,0.212-0.134,0.318c-0.109,0.234-0.219,0.468-0.331,0.7
		c-0.051,0.106-0.111,0.209-0.167,0.312c-0.115,0.211-0.242,0.414-0.386,0.607c-0.106,0.134-0.221,0.265-0.353,0.373
		c-0.081,0.057-0.164,0.104-0.252,0.146c-0.34,0.136-0.704,0.208-1.06,0.291c-0.33,0.078-0.659,0.158-0.988,0.237
		c0,0,0,0.002,0,0.002c0.42-0.002,0.84-0.009,1.26-0.02c0.254-0.008,0.509-0.024,0.761-0.06c0.194-0.026,0.374-0.085,0.549-0.172
		c0.076-0.038,0.146-0.089,0.214-0.14c0.09-0.067,0.175-0.139,0.257-0.214c0.227-0.208,0.42-0.45,0.598-0.701
		c0.081-0.113,0.161-0.227,0.234-0.344c0.147-0.238,0.292-0.478,0.42-0.726c0.227-0.437,0.427-0.882,0.617-1.335
		c0.083-0.197,0.153-0.405,0.214-0.609c0.08-0.27,0.152-0.543,0.256-0.805c0.081-0.179,0.176-0.348,0.292-0.506
		c0.113-0.136,0.236-0.262,0.372-0.374c0.235-0.166,0.492-0.286,0.753-0.405c0.11-0.04,0.219-0.085,0.33-0.12
		c0.134-0.041,0.268-0.084,0.402-0.123c0.274-0.082,0.549-0.166,0.824-0.245c0.268-0.077,0.537-0.155,0.801-0.248
		c0.263-0.094,0.529-0.183,0.787-0.29c0.296-0.124,0.593-0.246,0.884-0.384c0.274-0.129,0.547-0.26,0.819-0.393
		c0.254-0.122,0.503-0.252,0.752-0.383c0.306-0.163,0.59-0.375,0.85-0.602c0.299-0.264,0.551-0.582,0.746-0.928
		c0.186-0.332,0.312-0.694,0.432-1.053c0.036-0.112,0.075-0.224,0.113-0.335c0.021-0.062,0.048-0.124,0.073-0.185
		c0.039-0.087,0.083-0.167,0.136-0.244c0.061-0.071,0.125-0.135,0.196-0.196c0.135-0.096,0.279-0.175,0.432-0.243
		c0.331-0.129,0.68-0.209,1.012-0.333c0.289-0.107,0.575-0.218,0.846-0.366c0.222-0.121,0.442-0.243,0.646-0.393
		c0.183-0.133,0.352-0.281,0.521-0.429c0.199-0.172,0.394-0.351,0.581-0.536c0.251-0.247,0.501-0.498,0.763-0.736
		c0.145-0.132,0.29-0.26,0.438-0.389c0.122-0.108,0.251-0.211,0.378-0.316c0.086-0.065,0.169-0.13,0.255-0.195
		c0.153-0.114,0.31-0.225,0.474-0.324c0.15-0.093,0.309-0.172,0.47-0.245c0.233-0.094,0.465-0.188,0.705-0.262
		c0.137-0.042,0.271-0.086,0.409-0.121c0.146-0.038,0.291-0.074,0.438-0.105c0.299-0.065,0.601-0.11,0.899-0.177
		c0.188-0.042,0.37-0.101,0.548-0.171c0.183-0.074,0.353-0.169,0.515-0.28c0.127-0.088,0.222-0.222,0.31-0.346
		C35.011,12.513,35.102,12.351,35.205,12.198C35.206,12.198,35.206,12.198,35.205,12.198L35.205,12.198"/>
</g>
</svg>
