<?xml version="1.0" encoding="utf-8"?>
<!-- Generator: Adobe Illustrator 15.0.0, SVG Export Plug-In . SVG Version: 6.00 Build 0)  -->
<!DOCTYPE svg PUBLIC "-//W3C//DTD SVG 1.1//EN" "http://www.w3.org/Graphics/SVG/1.1/DTD/svg11.dtd">
<svg version="1.1" id="Capa_1" xmlns="http://www.w3.org/2000/svg" xmlns:xlink="http://www.w3.org/1999/xlink" x="0px" y="0px"
	 width="45px" height="45px" viewBox="-0.5 -0.5 45 45" enable-background="new -0.5 -0.5 45 45" xml:space="preserve">
<path opacity="0.9753" fill="#292521" d="M19.636,20.117c0.018,0.013,0.034,0.026,0.051,0.04
	C19.67,20.143,19.653,20.13,19.636,20.117 M35.274,8.661c0.001,0.005,0.002,0.01,0.002,0.015
	C35.275,8.671,35.275,8.666,35.274,8.661 M31.765,8.345c0.374,0.006,0.749,0.021,1.124,0.039c0.313,0.015,0.625,0.048,0.937,0.085
	c0.454,0.076,0.893,0.198,1.322,0.361c0.025,0.012,0.051,0.024,0.076,0.038c-0.01,0.018-0.021,0.036-0.032,0.054
	c-0.069,0.074-0.145,0.143-0.22,0.213c-0.098,0.091-0.194,0.184-0.294,0.272c-0.202,0.179-0.411,0.349-0.62,0.519
	c-0.146,0.105-0.292,0.207-0.447,0.297c-0.19,0.111-0.39,0.204-0.582,0.309c-0.178,0.097-0.361,0.191-0.521,0.314
	c-0.222,0.17-0.434,0.345-0.616,0.557c-0.29,0.335-0.57,0.678-0.857,1.015c-0.301,0.352-0.606,0.698-0.906,1.051
	c-0.604,0.712-1.208,1.427-1.815,2.137c-0.315,0.368-0.644,0.723-0.943,1.104c-0.315,0.4-0.599,0.818-0.864,1.252
	c-0.331,0.54-0.649,1.088-0.955,1.642c-0.137,0.247-0.251,0.51-0.366,0.768c-0.017,0.037-0.033,0.073-0.049,0.11
	c-0.34,0.225-0.681,0.448-1.053,0.613c-0.206,0.083-0.413,0.142-0.632,0.176c-0.192,0.024-0.383,0.044-0.576,0.05
	c-0.198,0.006-0.401-0.029-0.598-0.056c0.02,0.002,0.039,0.005,0.059,0.008c-0.424-0.059-0.831-0.142-1.23-0.295
	c-0.213-0.094-0.424-0.194-0.629-0.306c-0.232-0.126-0.451-0.269-0.666-0.421c-0.016-0.012-0.031-0.024-0.047-0.036
	c-0.15-0.126-0.298-0.253-0.429-0.399c-0.143-0.161-0.281-0.324-0.418-0.491c-0.248-0.329-0.495-0.666-0.678-1.035
	c-0.012-0.035-0.021-0.069-0.03-0.104c-0.004-0.093,0-0.185,0.008-0.276c0.033-0.182,0.077-0.357,0.138-0.531
	c0.102-0.213,0.222-0.415,0.355-0.611c0.158-0.234,0.311-0.473,0.46-0.713c0.275-0.441,0.542-0.884,0.852-1.302
	c0.408-0.508,0.86-0.985,1.322-1.444c0.239-0.237,0.479-0.475,0.733-0.695c0.245-0.212,0.492-0.419,0.744-0.622
	c0.36-0.267,0.726-0.524,1.104-0.765c0.392-0.25,0.807-0.464,1.216-0.683c0.412-0.22,0.824-0.439,1.229-0.673
	c0.424-0.246,0.842-0.504,1.267-0.748c0.154-0.088,0.31-0.173,0.467-0.256c0.087-0.046,0.178-0.088,0.269-0.128
	c0.214-0.08,0.429-0.154,0.647-0.224c0.196-0.062,0.403-0.097,0.607-0.131C30.337,8.319,31.051,8.333,31.765,8.345 M29.522,6.661
	c-0.316,0.026-0.627,0.102-0.934,0.181c-0.226,0.058-0.445,0.151-0.663,0.234c-0.273,0.106-0.54,0.229-0.8,0.365
	c-0.428,0.225-0.839,0.477-1.251,0.727c-0.394,0.237-0.793,0.467-1.198,0.684C24.249,9.078,23.817,9.3,23.4,9.545
	c-0.413,0.243-0.812,0.502-1.206,0.774c-0.448,0.309-0.869,0.661-1.282,1.016c-0.348,0.299-0.682,0.62-1,0.95
	c-0.329,0.34-0.664,0.676-0.976,1.031c-0.35,0.396-0.679,0.812-0.959,1.261c-0.243,0.388-0.475,0.782-0.72,1.168
	c-0.267,0.419-0.501,0.863-0.629,1.347c-0.068,0.257-0.083,0.536-0.089,0.801c-0.01,0.46,0.12,0.944,0.399,1.312
	c0.171,0.227,0.342,0.454,0.538,0.661c0.17,0.181,0.343,0.358,0.525,0.527c0.366,0.341,0.75,0.683,1.194,0.917
	c0.868,0.459,1.869,0.768,2.859,0.725c0.2-0.009,0.4-0.017,0.6-0.037c0.234-0.023,0.456-0.072,0.681-0.141
	c0.305-0.094,0.594-0.208,0.861-0.386c0.301-0.201,0.562-0.452,0.814-0.713c-0.146,0.327-0.289,0.654-0.432,0.981
	c0,0.001,0.001,0.002,0.002,0.001c0.453-0.614,0.899-1.232,1.361-1.84c0.3-0.356,0.606-0.707,0.904-1.065
	c0.303-0.363,0.602-0.729,0.933-1.066c0.681-0.692,1.44-1.3,2.157-1.953c0.637-0.579,1.245-1.187,1.865-1.783
	c0.311-0.299,0.635-0.586,0.931-0.899c0.244-0.259,0.489-0.518,0.76-0.75c0.311-0.21,0.657-0.358,0.979-0.549
	c0.198-0.117,0.386-0.243,0.568-0.383c0.231-0.178,0.451-0.369,0.679-0.553c0.172-0.14,0.338-0.282,0.504-0.429
	c0.084-0.074,0.169-0.148,0.25-0.226c0.136-0.129,0.245-0.29,0.343-0.448c0.096-0.154,0.158-0.333,0.212-0.504
	c0.094-0.302,0.117-0.622,0.04-0.931c-0.106-0.422-0.432-0.742-0.779-0.978c-0.062-0.042-0.131-0.071-0.198-0.101
	c-0.119-0.054-0.24-0.103-0.361-0.15c-0.104-0.041-0.212-0.072-0.318-0.104c-0.482-0.147-0.97-0.253-1.475-0.301
	c-0.263-0.025-0.522-0.047-0.785-0.062c-0.475-0.024-0.95-0.029-1.426-0.034c-0.499-0.005-0.998-0.009-1.498-0.01
	c-0.002,0-0.004,0-0.007,0C29.985,6.622,29.754,6.641,29.522,6.661"/>
<path opacity="0.9753" fill="#292521" d="M15.638,25.466c-0.003-0.021-0.006-0.043-0.009-0.063
	C15.632,25.423,15.635,25.444,15.638,25.466 M17.177,26.907c0.006,0.002,0.012,0.005,0.018,0.007c0,0.001,0,0.001,0,0.001
	C17.189,26.912,17.183,26.91,17.177,26.907 M17.548,26.845c0.008,0.059,0.016,0.117,0.024,0.176
	C17.564,26.962,17.556,26.903,17.548,26.845 M17.53,26.71c0.002,0.013,0.003,0.024,0.005,0.037l0,0
	C17.534,26.734,17.532,26.723,17.53,26.71 M7.148,20.656c0,0.004,0.001,0.009,0.002,0.013c-0.001-0.004-0.001-0.008-0.002-0.012
	C7.148,20.657,7.148,20.656,7.148,20.656 M11.539,14.579c-0.569,0.087-1.117,0.301-1.619,0.58c-0.236,0.131-0.462,0.268-0.688,0.416
	c-0.078,0.05-0.151,0.104-0.226,0.16c-0.136,0.102-0.278,0.199-0.408,0.309c-0.194,0.166-0.385,0.33-0.568,0.509
	c-0.157,0.153-0.312,0.311-0.458,0.475c-0.357,0.4-0.693,0.818-1.017,1.246c-0.279,0.369-0.528,0.76-0.764,1.158
	c-0.117,0.197-0.218,0.399-0.308,0.61c-0.052,0.125-0.098,0.203-0.116,0.326c-0.026,0.179-0.057,0.362,0.003,0.542
	c0.04,0.12,0.084,0.237,0.151,0.343c0.093,0.146,0.215,0.27,0.365,0.359c0.092,0.055,0.217,0.113,0.311,0.141
	c0.122,0.036,0.248,0.05,0.374,0.062c0.245,0.024,0.48-0.014,0.722-0.048c0.178-0.025,0.354-0.059,0.531-0.09
	c0.127-0.021,0.256-0.036,0.384-0.053c-0.059,0.008-0.118,0.016-0.177,0.024c0.944-0.086,1.893-0.154,2.84-0.18
	c0.962-0.026,1.925-0.022,2.887-0.015c0.41,0.003,0.821-0.002,1.23,0.023c0.036,0.173,0.06,0.349,0.091,0.521
	c0.042,0.236,0.088,0.471,0.136,0.705c0.082,0.401,0.15,0.804,0.21,1.208c0.064,0.498,0.134,0.995,0.201,1.492
	c-0.007-0.057-0.015-0.112-0.022-0.168c0.064,0.475,0.133,0.95,0.16,1.429c0.013,0.218,0.026,0.435,0.039,0.651
	c0.003,0.053,0.007,0.106,0.012,0.159c0.011,0.113,0.028,0.225,0.047,0.336c0.021,0.123,0.087,0.235,0.139,0.349
	c0.064,0.143,0.255,0.302,0.38,0.384c0.091,0.061,0.205,0.108,0.304,0.141c0.268,0.089,0.525,0.076,0.799,0.031
	c0.333-0.055,0.647-0.222,0.932-0.399c0.095-0.059,0.192-0.124,0.281-0.192c0.189-0.145,0.378-0.288,0.57-0.428
	c0.394-0.286,0.782-0.58,1.178-0.863c0.328-0.234,0.657-0.468,0.988-0.698c0.367-0.256,0.734-0.504,1.066-0.805
	c0.28-0.252,0.544-0.528,0.801-0.804c0.227-0.244,0.443-0.507,0.693-0.728c0.021-0.014,0.043-0.026,0.064-0.039
	c0.06-0.018,0.12-0.031,0.182-0.043c0.285-0.028,0.571-0.042,0.856-0.018c0.261,0.048,0.509,0.126,0.755,0.223
	c0.41,0.186,0.798,0.415,1.16,0.684c0.232,0.184,0.463,0.377,0.665,0.592c0.107,0.115,0.215,0.229,0.323,0.345
	c0.149,0.159,0.286,0.328,0.425,0.497c0.108,0.146,0.221,0.292,0.317,0.447c0.133,0.213,0.27,0.424,0.394,0.643
	c0.251,0.439,0.483,0.885,0.707,1.337c0.044,0.089,0.085,0.178,0.124,0.269c0.035,0.082,0.069,0.166,0.111,0.245
	c0.047,0.088,0.111,0.169,0.186,0.234c0.104,0.103,0.226,0.174,0.367,0.214c0.081,0.017,0.164,0.027,0.247,0.031
	c0.138,0.007,0.326-0.055,0.445-0.124c0.14-0.082,0.24-0.196,0.32-0.336c0.112-0.194,0.129-0.433,0.147-0.649
	c0.031-0.36-0.009-0.716-0.057-1.072c-0.044-0.325-0.15-0.656-0.264-0.964c-0.085-0.231-0.175-0.46-0.269-0.689
	c-0.199-0.489-0.424-0.97-0.663-1.442c-0.104-0.206-0.213-0.41-0.331-0.609c-0.119-0.199-0.236-0.404-0.375-0.592
	c-0.303-0.41-0.625-0.81-0.971-1.186c-0.247-0.268-0.556-0.492-0.866-0.682c-0.197-0.121-0.397-0.233-0.607-0.33
	c-0.269-0.124-0.537-0.253-0.816-0.35c-0.132-0.046-0.264-0.088-0.397-0.129c-0.289-0.087-0.585-0.146-0.88-0.21
	c-0.002,0-0.002,0.001-0.001,0.002c0.421,0.203,0.846,0.398,1.238,0.653c0.265,0.172,0.521,0.357,0.774,0.546
	c0.312,0.258,0.608,0.534,0.863,0.851c0.191,0.261,0.352,0.544,0.516,0.821c0.162,0.274,0.305,0.552,0.44,0.839
	c0.116,0.285,0.226,0.572,0.329,0.861c-0.111-0.138-0.227-0.273-0.346-0.406c-0.312-0.35-0.642-0.676-1.004-0.974
	c-0.289-0.237-0.591-0.455-0.91-0.648c-0.334-0.202-0.688-0.358-1.051-0.503c-0.775-0.312-1.62-0.31-2.434-0.188
	c-0.051,0.007-0.102,0.022-0.15,0.036c-0.166,0.046-0.339,0.129-0.483,0.226c-0.111,0.075-0.241,0.176-0.338,0.277
	c-0.131,0.135-0.25,0.28-0.374,0.421c-0.238,0.271-0.487,0.534-0.743,0.789c-0.243,0.241-0.484,0.479-0.748,0.695
	c-0.549,0.4-1.112,0.782-1.662,1.182c-0.298,0.218-0.602,0.428-0.903,0.642c-0.257,0.182-0.508,0.371-0.776,0.532
	c-0.05-0.398-0.091-0.798-0.147-1.195c-0.051-0.363-0.104-0.726-0.155-1.089c-0.064-0.539-0.126-1.077-0.2-1.613
	c-0.065-0.476-0.153-0.947-0.222-1.421c-0.016-0.11-0.032-0.221-0.049-0.332c-0.054-0.368-0.158-0.721-0.425-0.995
	c-0.275-0.282-0.697-0.366-1.075-0.379c-0.129-0.004-0.259-0.002-0.388,0c-0.472,0.007-0.944,0.013-1.415,0.017
	c-0.94,0.008-1.881,0.007-2.821,0.029c-0.51,0.012-1.02,0.033-1.53,0.057c-0.48,0.023-0.958,0.045-1.437,0.096
	c-0.075,0.008-0.15,0.018-0.225,0.027c0.403-0.815,0.91-1.576,1.458-2.301c0.197-0.237,0.391-0.482,0.615-0.695
	c0.124-0.117,0.248-0.235,0.371-0.353c0.106-0.102,0.225-0.193,0.339-0.287c0.105-0.078,0.21-0.157,0.316-0.235
	c0.287-0.214,0.603-0.391,0.93-0.536c0.239-0.094,0.478-0.158,0.731-0.198c0.652-0.074,1.316-0.066,1.972-0.07
	c0.695-0.004,1.39,0.014,2.085,0.018c0.001,0,0.001-0.002,0-0.002c-1.087-0.256-2.183-0.527-3.293-0.664
	c-0.321-0.04-0.642-0.08-0.963-0.08C11.853,14.546,11.696,14.555,11.539,14.579"/>
<path opacity="0.9753" fill="#292521" d="M14.688,20.594c-0.19,0.325-0.378,0.65-0.563,0.978c-0.176,0.311-0.351,0.619-0.5,0.943
	c-0.261,0.57-0.404,1.194-0.522,1.808c-0.097,0.503-0.146,1.016-0.195,1.525c-0.047,0.484-0.08,0.97-0.112,1.455
	c-0.062,0.932-0.114,1.865-0.148,2.799c-0.009,0.255-0.014,0.509-0.014,0.764c0,0.245,0.023,0.492,0.042,0.736
	c0.042,0.533,0.127,1.067,0.253,1.587c0.077,0.316,0.18,0.626,0.295,0.93c0.05,0.133,0.104,0.267,0.164,0.396
	c0.081,0.176,0.183,0.314,0.307,0.468c0.04,0.049,0.09,0.087,0.139,0.126c0.088,0.068,0.176,0.137,0.267,0.202
	c0.041,0.03,0.083,0.06,0.125,0.089c0.294,0.237,0.575,0.492,0.87,0.729c0.216,0.174,0.425,0.362,0.679,0.48
	c0.249,0.115,0.492,0.188,0.761,0.228c0.515,0.075,1.027,0.07,1.545,0.069c0.248,0,0.496,0.011,0.743,0.011
	c0.302,0,0.607-0.103,0.823-0.319c0.251-0.251,0.326-0.627,0.243-0.965c-0.045-0.185-0.132-0.361-0.217-0.531
	c-0.051-0.104-0.112-0.201-0.174-0.298c-0.173-0.27-0.357-0.533-0.527-0.806c-0.155-0.248-0.292-0.506-0.415-0.771
	c-0.053-0.134-0.103-0.27-0.144-0.408c-0.042-0.138-0.069-0.278-0.092-0.421c-0.009-0.098-0.012-0.193-0.007-0.292
	c0.07-0.345,0.21-0.676,0.341-1.001c0.097-0.242,0.19-0.485,0.289-0.728c-0.004,0.01-0.009,0.02-0.013,0.03
	c0.032-0.077,0.064-0.153,0.097-0.229c0.4-0.874,0.805-1.755,1.301-2.578c0.23-0.382,0.483-0.744,0.751-1.099
	c0.288-0.379,0.583-0.758,0.835-1.162c0.128-0.206,0.246-0.421,0.361-0.634c0.29-0.534,0.58-1.067,0.87-1.601
	c0.001-0.001-0.001-0.002-0.001-0.001c-0.522,0.597-1.044,1.195-1.562,1.798c-0.297,0.346-0.641,0.653-0.973,0.965
	c-0.179,0.17-0.357,0.34-0.532,0.514c-0.161,0.16-0.31,0.334-0.459,0.505c-0.339,0.389-0.639,0.812-0.933,1.235
	c-0.27,0.388-0.531,0.781-0.781,1.184s-0.47,0.821-0.697,1.236c-0.194,0.356-0.382,0.72-0.515,1.104
	c-0.059,0.173-0.085,0.371-0.101,0.55c-0.009,0.098-0.004,0.193,0.003,0.291c0.013,0.18,0.042,0.359,0.075,0.537
	c0.095,0.519,0.304,1.016,0.546,1.481c0.103,0.197,0.22,0.387,0.339,0.575c-0.235-0.008-0.47-0.019-0.703-0.042
	C16.765,35.02,16.68,35,16.595,34.974c-0.058-0.031-0.114-0.065-0.17-0.103c-0.209-0.171-0.411-0.351-0.609-0.535
	c-0.115-0.107-0.235-0.21-0.358-0.308c-0.144-0.113-0.294-0.213-0.443-0.317c-0.01-0.009-0.02-0.019-0.029-0.027
	c-0.059-0.099-0.107-0.201-0.155-0.306c-0.143-0.366-0.274-0.736-0.372-1.117c-0.096-0.378-0.166-0.759-0.228-1.144
	c-0.1-0.896-0.115-1.801-0.162-2.7c-0.052-0.998-0.115-1.995-0.166-2.993c-0.018-0.357-0.025-0.716-0.015-1.073
	c0.011-0.386,0.043-0.767,0.081-1.149c0.052-0.354,0.134-0.695,0.233-1.039c0.032-0.111,0.069-0.221,0.104-0.332
	c0.128-0.412,0.255-0.824,0.384-1.236C14.689,20.594,14.689,20.593,14.688,20.594C14.688,20.593,14.688,20.594,14.688,20.594"/>
<path opacity="0.9753" fill="#292521" d="M16.121,24.465c-0.321,0.431-0.647,0.858-0.93,1.316c-0.118,0.19-0.227,0.385-0.331,0.583
	c-0.233,0.442-0.385,0.93-0.504,1.413c-0.152,0.617-0.179,1.263-0.135,1.896c0.037,0.534,0.123,1.056,0.254,1.575
	c0.149,0.587,0.371,1.152,0.644,1.692c0.345,0.683,0.742,1.34,1.146,1.988c0,0.002,0.002,0.001,0.002-0.001
	c-0.184-0.814-0.394-1.622-0.606-2.43c-0.153-0.583-0.24-1.179-0.328-1.774c-0.048-0.475-0.081-0.951-0.105-1.429
	c-0.008-0.146-0.017-0.293-0.025-0.439c-0.015-0.258-0.01-0.512,0.012-0.769c0.019-0.225,0.043-0.448,0.07-0.672
	c0.061-0.357,0.125-0.713,0.229-1.061c0.058-0.192,0.115-0.385,0.172-0.577c0.133-0.441,0.296-0.874,0.438-1.313
	c0-0.001,0-0.001,0-0.001S16.121,24.464,16.121,24.465"/>
<path opacity="0.9753" fill="#292521" d="M14.298,13.978c-0.236,0.025-0.611,0.022-0.726,0.278
	c-0.008,0.019-0.016,0.038-0.023,0.056c-0.808,0.031-1.614,0.1-2.417,0.195c-0.125,0.015-0.249,0.03-0.374,0.045
	c-0.171,0.022-0.344,0.04-0.503,0.11c-0.378,0.167-0.654,0.489-0.945,0.772c-0.001,0.001,0,0.002,0.001,0.001
	c0.237-0.114,0.469-0.238,0.711-0.341c0.11-0.042,0.218-0.071,0.334-0.09c0.289-0.015,0.583,0.045,0.87,0.079
	c0.282,0.034,0.564,0.065,0.847,0.094c0.534,0.055,1.067,0.119,1.601,0.186c0.127,0.018,0.255,0.035,0.383,0.052
	c0.346,0.048,0.692,0.093,1.039,0.133c0.085,0.012,0.17,0.023,0.255,0.034c0.261,0.045,0.519,0.089,0.769,0.18
	c0.029,0.014,0.059,0.027,0.088,0.041c0.03,0.019,0.06,0.039,0.089,0.058c0.069,0.046,0.139,0.091,0.206,0.142
	c0.047,0.036,0.094,0.071,0.141,0.106c0.098,0.075,0.207,0.118,0.322,0.162c0.218,0.082,0.494-0.015,0.65-0.172
	c0.161-0.161,0.247-0.428,0.172-0.65c-0.042-0.125-0.086-0.23-0.182-0.325c-0.058-0.057-0.124-0.105-0.189-0.154
	c-0.134-0.102-0.272-0.195-0.425-0.271c-0.179-0.089-0.363-0.17-0.551-0.238c-0.101-0.037-0.205-0.062-0.311-0.08
	c-0.113-0.046-0.226-0.091-0.34-0.134c-0.252-0.096-0.51-0.167-0.773-0.223c-0.162-0.034-0.333-0.054-0.501-0.054
	C14.443,13.966,14.37,13.97,14.298,13.978"/>
</svg>
