<?xml version="1.0" encoding="utf-8"?>
<!-- Generator: Adobe Illustrator 15.0.0, SVG Export Plug-In . SVG Version: 6.00 Build 0)  -->
<!DOCTYPE svg PUBLIC "-//W3C//DTD SVG 1.1//EN" "http://www.w3.org/Graphics/SVG/1.1/DTD/svg11.dtd">
<svg version="1.1" id="Capa_1" xmlns="http://www.w3.org/2000/svg" xmlns:xlink="http://www.w3.org/1999/xlink" x="0px" y="0px"
	 width="44px" height="44px" viewBox="0 0 44 44" enable-background="new 0 0 44 44" xml:space="preserve">
<path opacity="0.9753" fill="#292521" d="M21.008,20.841c-0.013,0.011-0.026,0.021-0.039,0.03
	C20.982,20.862,20.995,20.852,21.008,20.841 M23.337,20.092c0,0.002-0.001,0.005-0.001,0.007
	C23.336,20.097,23.337,20.094,23.337,20.092 M18.147,19.383c0.004,0.031,0.009,0.062,0.013,0.093
	C18.155,19.445,18.15,19.415,18.147,19.383 M18.278,18.469c-0.015,0.036-0.03,0.071-0.045,0.106
	C18.248,18.54,18.263,18.504,18.278,18.469 M21.524,17.471c0.004,0.003,0.009,0.006,0.013,0.01
	C21.533,17.478,21.528,17.475,21.524,17.471 M21.257,17.227c-0.15,0.062-0.285,0.182-0.425,0.29c-0.002,0.003,0,0.009,0.004,0.007
	c0.162-0.06,0.327-0.103,0.497-0.128c0.043,0.009,0.085,0.019,0.128,0.028c0.017,0.013,0.033,0.025,0.05,0.038
	c0.027,0.029,0.054,0.058,0.08,0.087c-0.008-0.011-0.017-0.022-0.025-0.034c0.072,0.089,0.131,0.185,0.179,0.287
	c0.08,0.211,0.134,0.418,0.169,0.642c0.011,0.188,0.005,0.367-0.011,0.555c-0.058,0.343-0.145,0.667-0.263,0.993
	c-0.093,0.196-0.196,0.372-0.32,0.55c-0.08,0.093-0.167,0.18-0.262,0.259c-0.147,0.104-0.306,0.185-0.477,0.243
	c0.056-0.023,0.11-0.045,0.164-0.069c-0.068,0.015-0.137,0.031-0.206,0.045c-0.095,0.007-0.189,0.006-0.284-0.001
	c-0.277-0.05-0.537-0.119-0.8-0.217c-0.109-0.054-0.214-0.116-0.314-0.187c-0.25-0.213-0.475-0.436-0.685-0.686
	c-0.101-0.149-0.184-0.295-0.262-0.453c-0.02-0.066-0.038-0.131-0.058-0.198c-0.004-0.08-0.004-0.16,0.001-0.24
	c0.039-0.215,0.093-0.415,0.166-0.625c0.046-0.096,0.1-0.188,0.159-0.277c0.12-0.143,0.24-0.269,0.379-0.396
	c0.146-0.099,0.293-0.183,0.451-0.263c0.273-0.102,0.544-0.173,0.833-0.227C20.504,17.213,20.88,17.204,21.257,17.227
	 M17.435,16.868c-0.458,0.421-0.722,1.009-0.913,1.587c-0.233,0.705-0.079,1.375,0.213,2.026c0.208,0.467,0.66,0.875,1.052,1.186
	c0.539,0.427,1.157,0.701,1.845,0.773c0.526,0.054,1.171,0.081,1.641-0.216c0.54-0.338,0.986-0.798,1.189-1.419
	c0.165-0.51,0.219-1.017,0.212-1.552c-0.009-0.521-0.171-0.986-0.415-1.438c-0.094-0.174-0.258-0.378-0.442-0.505
	c0.112,0.028,0.224,0.059,0.336,0.096c0.161,0.082,0.307,0.168,0.455,0.271c0.13,0.12,0.243,0.241,0.353,0.377
	c0.121,0.169,0.221,0.351,0.3,0.545c-0.011-0.026-0.022-0.051-0.033-0.078c0.078,0.213,0.136,0.412,0.175,0.634
	c0.007,0.315-0.023,0.621-0.064,0.934c0,0,0,0,0,0c-0.01,0.065-0.019,0.13-0.028,0.195c-0.002,0.005,0.004,0.008,0.007,0.004
	c0.24-0.421,0.465-0.837,0.538-1.319c0.082-0.532-0.071-1.063-0.289-1.542c-0.471-1.043-1.705-1.454-2.752-1.563
	c-0.197-0.021-0.392-0.031-0.584-0.031C19.193,15.833,18.23,16.139,17.435,16.868"/>
<path opacity="0.9753" fill="#292521" d="M18.319,25.725c-0.012,0.001-0.023,0.002-0.035,0.004
	C18.296,25.727,18.308,25.726,18.319,25.725 M18.866,25.512c-0.026,0.021-0.053,0.042-0.081,0.062
	C18.812,25.554,18.839,25.533,18.866,25.512 M16.427,25.263c0.055,0.043,0.109,0.085,0.165,0.128
	C16.534,25.351,16.479,25.308,16.427,25.263 M16.166,24.911c0.003,0.009,0.007,0.017,0.01,0.025
	c-0.003-0.007-0.007-0.015-0.01-0.021C16.166,24.913,16.166,24.913,16.166,24.911 M16.113,24.789
	c0.016,0.038,0.032,0.076,0.049,0.115c0,0.002,0,0.003,0.001,0.005C16.145,24.87,16.128,24.83,16.113,24.789 M16.379,22.688
	c-0.007,0.018-0.015,0.035-0.022,0.052C16.364,22.724,16.372,22.705,16.379,22.688 M17.372,22.211
	c0.277,0.05,0.536,0.122,0.799,0.222c0.216,0.111,0.41,0.23,0.605,0.369c0.209,0.19,0.392,0.384,0.569,0.602
	c0.147,0.213,0.288,0.425,0.418,0.645c-0.044,0.152-0.096,0.303-0.155,0.455c-0.124,0.247-0.257,0.468-0.417,0.69
	c-0.091,0.106-0.189,0.204-0.297,0.294c-0.078,0.047-0.156,0.096-0.234,0.143c0.047-0.021,0.095-0.042,0.144-0.061
	c-0.123,0.064-0.252,0.11-0.387,0.138c-0.215,0.013-0.414,0.005-0.625-0.02c-0.362-0.059-0.71-0.139-1.061-0.254
	c0.064,0.025,0.127,0.054,0.19,0.08c-0.176-0.065-0.34-0.148-0.497-0.252c-0.052-0.046-0.101-0.094-0.147-0.146
	c-0.03-0.045-0.058-0.092-0.083-0.14c-0.013-0.054-0.026-0.107-0.039-0.161c-0.034-0.479,0.01-0.961,0.066-1.438
	c0.05-0.269,0.11-0.519,0.197-0.776c0.035-0.069,0.073-0.136,0.115-0.2c0.041-0.044,0.082-0.088,0.123-0.132
	c0.016-0.012,0.032-0.024,0.048-0.037c-0.063,0.026-0.127,0.054-0.191,0.081c0.097-0.051,0.198-0.088,0.303-0.113
	C17.006,22.192,17.185,22.197,17.372,22.211 M15.515,21.107c-1.018,0.86-1.21,2.369-1.125,3.627
	c0.033,0.498,0.201,0.944,0.503,1.338c0.365,0.474,0.856,0.722,1.417,0.899c0.511,0.163,1.102,0.146,1.631,0.134
	c0.509-0.013,1.073-0.177,1.457-0.523c0.295-0.267,0.52-0.576,0.683-0.915c-0.027,0.168-0.055,0.336-0.084,0.503
	c-0.001,0.005,0.005,0.009,0.008,0.003c0.182-0.296,0.43-0.625,0.521-0.964c0.149-0.562,0.086-1.038-0.066-1.596
	c-0.021-0.074-0.042-0.147-0.067-0.221c-0.043-0.199-0.124-0.397-0.236-0.563c-0.396-0.776-1.031-1.393-1.835-1.78
	c-0.455-0.219-0.996-0.376-1.521-0.376C16.333,20.673,15.881,20.796,15.515,21.107"/>
<path opacity="0.9753" fill="#292521" d="M25.455,22.699c-0.002,0.021-0.005,0.044-0.008,0.066
	C25.45,22.743,25.452,22.721,25.455,22.699 M25.365,22.157c0.021,0.042,0.039,0.086,0.056,0.13
	C25.401,22.244,25.384,22.201,25.365,22.157 M25.199,21.982c0.046,0.053,0.089,0.108,0.128,0.166
	C25.284,22.093,25.242,22.038,25.199,21.982 M24.951,21.801c0.03,0.022,0.061,0.046,0.09,0.07
	C25.011,21.848,24.98,21.824,24.951,21.801 M22.39,21.586c0,0,0,0-0.001,0.001c-0.001,0-0.001,0.001-0.002,0.001
	c0,0,0-0.001,0.001-0.001C22.389,21.587,22.39,21.587,22.39,21.586 M23.565,21.271c0.027,0.003,0.054,0.007,0.08,0.011
	C23.619,21.277,23.593,21.274,23.565,21.271 M23.48,21.261c0.328,0.065,0.636,0.152,0.945,0.269
	c0.233,0.115,0.449,0.238,0.665,0.384c0.086,0.075,0.167,0.156,0.241,0.243c0.039,0.056,0.073,0.114,0.104,0.175
	c0.011,0.034,0.021,0.068,0.029,0.102c0.002,0.061,0,0.121-0.003,0.183c-0.045,0.241-0.107,0.467-0.192,0.694
	c-0.124,0.246-0.259,0.477-0.417,0.701c-0.062,0.069-0.127,0.135-0.197,0.197c-0.05,0.031-0.1,0.062-0.148,0.093
	c-0.116,0.033-0.234,0.054-0.356,0.061c0.073-0.012,0.147-0.021,0.221-0.031c-0.195,0.005-0.382-0.006-0.573-0.024
	c-0.144-0.03-0.279-0.065-0.415-0.109c-0.107-0.147-0.227-0.282-0.38-0.412c-0.188-0.16-0.374-0.315-0.548-0.487
	c-0.024-0.084-0.045-0.17-0.061-0.257c-0.022-0.271-0.021-0.52,0.003-0.79c0.031-0.175,0.083-0.344,0.156-0.507
	c-0.012,0.029-0.023,0.057-0.036,0.086c0.069-0.161,0.161-0.306,0.277-0.438c-0.015,0.019-0.03,0.039-0.046,0.058
	c0.044-0.05,0.09-0.098,0.138-0.144c0.061-0.018,0.122-0.032,0.184-0.043C23.207,21.25,23.344,21.25,23.48,21.261 M23.222,21.243
	c-0.04,0.004-0.08,0.01-0.12,0.015C23.142,21.251,23.182,21.246,23.222,21.243 M22.173,20.242c-0.851,0.524-1.134,1.591-0.908,2.514
	c0.02,0.082,0.047,0.158,0.081,0.229c-0.012,0.218-0.004,0.436,0.021,0.646c0.063,0.532,0.319,0.948,0.651,1.354
	c0.342,0.417,0.925,0.655,1.417,0.831c0.547,0.195,1.115,0.197,1.678,0.096c0.261-0.047,0.521-0.251,0.727-0.4
	c0.247-0.183,0.439-0.396,0.621-0.643c0.407-0.549,0.687-1.181,0.781-1.86c0.073-0.521,0.066-1.085-0.219-1.55
	c-0.32-0.52-0.73-0.886-1.264-1.181c-0.562-0.31-1.234-0.481-1.897-0.481C23.264,19.795,22.672,19.936,22.173,20.242"/>
<path opacity="0.9753" fill="#292521" d="M23.219,30.41c-0.01,0.008-0.021,0.016-0.03,0.023
	C23.198,30.426,23.209,30.418,23.219,30.41 M20.007,29.925c0.022,0.018,0.044,0.034,0.067,0.052
	C20.051,29.96,20.029,29.942,20.007,29.925 M19.777,29.7c0.001,0.002,0.002,0.003,0.003,0.005
	C19.779,29.703,19.778,29.702,19.777,29.7L19.777,29.7 M19.68,29.573c0.03,0.04,0.061,0.08,0.092,0.12v0.001
	C19.739,29.655,19.708,29.615,19.68,29.573 M19.803,29.371c-0.008,0.062-0.017,0.124-0.025,0.187
	C19.782,29.495,19.79,29.433,19.803,29.371 M23.785,27.759c0.013,0.005,0.025,0.011,0.037,0.016
	C23.811,27.77,23.798,27.764,23.785,27.759 M23.165,27.577c0.2,0.036,0.37,0.085,0.56,0.158c0.117,0.06,0.229,0.128,0.337,0.203
	c0.009,0.205-0.001,0.402-0.021,0.609c-0.06,0.35-0.142,0.678-0.261,1.012c-0.106,0.225-0.224,0.428-0.365,0.634
	c-0.089,0.104-0.186,0.199-0.29,0.288c-0.087,0.061-0.178,0.115-0.272,0.163c-0.06,0.02-0.119,0.039-0.179,0.058
	c-0.19,0.011-0.373,0.005-0.565-0.012c-0.415-0.072-0.809-0.169-1.206-0.316c-0.338-0.149-0.662-0.317-0.975-0.518
	c-0.039-0.035-0.076-0.073-0.112-0.111c-0.008-0.018-0.016-0.033-0.024-0.05c-0.005-0.021-0.011-0.04-0.016-0.06
	c0-0.021,0-0.042,0.002-0.062c0.016-0.09,0.039-0.18,0.068-0.267c0.088-0.172,0.184-0.326,0.294-0.484
	c0.186-0.216,0.377-0.413,0.592-0.602c0.253-0.185,0.513-0.34,0.797-0.476c0.198-0.068,0.39-0.119,0.596-0.159
	C22.473,27.55,22.812,27.548,23.165,27.577 M21.329,26.364c-0.524,0.07-1.049,0.352-1.491,0.629
	c-0.471,0.298-0.891,0.705-1.219,1.151c-0.628,0.852-0.934,2.128-0.076,2.961c0.933,0.908,2.188,1.214,3.456,1.283
	c0.648,0.036,1.23-0.132,1.758-0.5c0.455-0.316,0.823-0.837,1.005-1.356c0.167-0.477,0.26-0.98,0.266-1.481
	c0.176,0.279,0.339,0.565,0.501,0.854c0.003,0.006,0.008,0.001,0.008-0.003c-0.129-0.897-0.306-1.724-0.81-2.424
	c-0.039-0.093-0.082-0.184-0.13-0.272c-0.146-0.28-0.414-0.553-0.712-0.671c-0.252-0.101-0.501-0.131-0.752-0.127
	c-0.317-0.072-0.651-0.102-0.977-0.102C21.869,26.306,21.589,26.328,21.329,26.364"/>
<path opacity="0.9753" fill="#292521" d="M15.053,27.648c0.01,0.013,0.019,0.024,0.029,0.037
	C15.072,27.674,15.063,27.661,15.053,27.648 M14.732,27.308c0.047,0.033,0.093,0.068,0.137,0.106
	C14.823,27.379,14.777,27.344,14.732,27.308 M14.416,27.139c0.021,0.009,0.043,0.018,0.064,0.027
	C14.458,27.157,14.437,27.148,14.416,27.139 M14.108,27.086c0.152,0.029,0.298,0.067,0.449,0.117
	c0.057,0.029,0.111,0.062,0.164,0.098c0.095,0.081,0.184,0.169,0.265,0.265c0.115,0.169,0.212,0.334,0.301,0.517
	c0.125,0.346,0.207,0.688,0.263,1.051c0.062,0.668,0.065,1.332-0.007,1.999c-0.029,0.161-0.063,0.317-0.105,0.475
	c-0.039,0.036-0.08,0.072-0.121,0.107c-0.268,0.185-0.537,0.331-0.833,0.463c-0.151,0.059-0.305,0.104-0.463,0.134
	c-0.229,0.016-0.442,0.01-0.667-0.013c-0.189-0.046-0.365-0.102-0.543-0.17c-0.194-0.101-0.373-0.208-0.554-0.329
	c-0.269-0.223-0.504-0.464-0.726-0.733c-0.075-0.11-0.142-0.226-0.202-0.345c-0.057-0.156-0.101-0.307-0.133-0.468
	c-0.004-0.214,0-0.422,0.016-0.635c0.061-0.332,0.149-0.649,0.258-0.969c0.091-0.171,0.188-0.333,0.296-0.494
	c0.168-0.195,0.345-0.37,0.542-0.537c0.179-0.12,0.358-0.226,0.55-0.323c0.238-0.086,0.475-0.153,0.725-0.202
	C13.759,27.08,13.929,27.078,14.108,27.086 M13.215,25.32c-1.443,0.102-2.661,0.98-3.39,2.196c-0.364,0.607-0.482,1.309-0.549,2
	c-0.069,0.719,0.115,1.411,0.445,2.041c0.319,0.611,0.901,1.071,1.457,1.453c0.501,0.344,1.166,0.584,1.771,0.636
	c0.729,0.062,1.366-0.091,2.001-0.445c0.55-0.308,0.987-0.786,1.33-1.306c0.377-0.57,0.464-1.228,0.46-1.894
	c0-0.075-0.007-0.146-0.018-0.216c0.044-0.32,0.065-0.645,0.073-0.961c0.017-0.65-0.155-1.261-0.41-1.852
	c-0.495-1.146-1.708-1.663-2.885-1.663C13.405,25.311,13.31,25.313,13.215,25.32"/>
<path opacity="0.9753" fill="#292521" d="M9.368,23.768c0.015,0.034,0.028,0.067,0.042,0.102
	C9.396,23.836,9.381,23.802,9.368,23.768 M9.332,23.476c0.006,0.042,0.012,0.084,0.017,0.126C9.342,23.56,9.336,23.518,9.332,23.476
	 M13.84,22.959c-0.011,0.029-0.023,0.059-0.036,0.087C13.815,23.018,13.828,22.988,13.84,22.959 M12.097,19.231
	c0.128,0.025,0.253,0.06,0.375,0.104c0.101,0.049,0.196,0.104,0.289,0.168c0.092,0.08,0.178,0.167,0.257,0.26
	c0.195,0.284,0.36,0.571,0.506,0.883c0.186,0.458,0.338,0.913,0.417,1.402c0.019,0.184,0.018,0.368-0.001,0.553
	c-0.02,0.12-0.052,0.237-0.096,0.352c-0.045,0.08-0.092,0.161-0.138,0.242c0.02-0.024,0.038-0.05,0.057-0.075
	c-0.091,0.136-0.197,0.254-0.322,0.357c-0.575,0.417-1.224,0.695-1.871,0.987c-0.004,0.001-0.003,0.008,0.001,0.007
	c0.562-0.075,1.126-0.151,1.675-0.297c0.068-0.018,0.135-0.038,0.2-0.061c-0.032,0.075-0.063,0.15-0.098,0.235
	c0.001-0.006,0.004-0.013,0.007-0.019c-0.033,0.065-0.067,0.129-0.099,0.193c-0.051,0.059-0.101,0.118-0.152,0.178
	c-0.064,0.035-0.127,0.071-0.191,0.107c-0.149,0.052-0.302,0.09-0.458,0.114c-0.34,0.039-0.666,0.034-1.007,0.003
	c-0.426-0.066-0.83-0.159-1.233-0.31c-0.173-0.088-0.327-0.182-0.482-0.293c-0.097-0.085-0.183-0.182-0.256-0.29
	c0.031,0.04,0.061,0.078,0.09,0.117c-0.055-0.082-0.104-0.165-0.146-0.253c-0.029-0.087-0.052-0.176-0.069-0.267
	c-0.03-0.372,0.001-0.73,0.043-1.099c0.088-0.535,0.221-1.045,0.409-1.555c0.161-0.358,0.346-0.692,0.571-1.015
	c0.154-0.171,0.312-0.323,0.486-0.472c0.109-0.075,0.223-0.141,0.342-0.2c-0.075,0.032-0.149,0.062-0.224,0.094
	c0.141-0.07,0.287-0.123,0.439-0.156C11.652,19.212,11.867,19.212,12.097,19.231 M10.732,17.482c-0.24,0.04-0.503,0.199-0.716,0.308
	c-0.319,0.162-0.595,0.434-0.829,0.694c-0.891,0.988-1.196,2.35-1.274,3.64c-0.064,1.043,0.105,2.142,0.91,2.87
	c0.746,0.674,2.057,0.757,2.992,0.579c0.408-0.076,0.98-0.192,1.301-0.489c0.158-0.146,0.288-0.239,0.335-0.471
	c0.037-0.179,0.058-0.352,0.074-0.528c0.364-0.141,0.673-0.357,0.95-0.647c0.347-0.366,0.509-0.958,0.542-1.444
	c0.038-0.545-0.028-1.068-0.139-1.602c-0.247-1.179-0.926-2.373-2.127-2.776c-0.419-0.141-0.817-0.204-1.227-0.204
	C11.267,17.412,11.005,17.437,10.732,17.482"/>
<path opacity="0.9753" fill="#292521" d="M14.889,14.027c0.001,0,0.001,0,0.001,0C14.89,14.027,14.889,14.027,14.889,14.027
	L14.889,14.027 M14.255,14.089c-0.001,0-0.002,0.001-0.003,0.002c0,0,0,0,0.001,0C14.253,14.09,14.254,14.089,14.255,14.089
	C14.255,14.089,14.255,14.089,14.255,14.089 M15.262,14.224c0.024,0.018,0.049,0.036,0.073,0.055
	C15.311,14.261,15.286,14.242,15.262,14.224 M14.294,14.059c-0.013,0.01-0.026,0.02-0.039,0.03c0.008-0.003,0.016-0.006,0.024-0.009
	c-0.009,0.004-0.018,0.008-0.027,0.012c-0.004,0.003-0.008,0.006-0.012,0.009c0.004-0.002,0.008-0.006,0.011-0.009
	c-0.028,0.012-0.056,0.024-0.083,0.036c0.028-0.014,0.057-0.026,0.086-0.038C14.268,14.079,14.281,14.069,14.294,14.059
	 M14.484,14.015c-0.036,0.005-0.071,0.01-0.107,0.014C14.413,14.023,14.449,14.019,14.484,14.015 M14.831,14.002
	c0.136,0.046,0.263,0.108,0.381,0.187c0.049,0.052,0.097,0.105,0.145,0.157c0.065,0.096,0.124,0.196,0.173,0.301
	c0.13,0.338,0.221,0.678,0.286,1.037c0.043,0.396,0.053,0.785,0.028,1.185c0.005-0.039,0.011-0.078,0.015-0.116
	c-0.018,0.18-0.053,0.357-0.107,0.53c0.013-0.029,0.025-0.06,0.038-0.088c-0.05,0.174-0.134,0.328-0.252,0.466
	c0.015-0.021,0.03-0.041,0.047-0.061c-0.045,0.041-0.09,0.082-0.136,0.123c-0.05,0.025-0.1,0.051-0.151,0.076
	c-0.068,0.019-0.135,0.038-0.203,0.057c-0.146,0.013-0.291,0.021-0.437,0.028c-0.107-0.06-0.211-0.125-0.317-0.196
	c-0.116-0.095-0.222-0.198-0.32-0.311c-0.151-0.205-0.271-0.404-0.38-0.636c-0.047-0.131-0.084-0.265-0.11-0.4
	c-0.016-0.269-0.008-0.518,0.018-0.784c0.046-0.26,0.105-0.503,0.189-0.755c0.083-0.17,0.173-0.329,0.276-0.487
	c0.05-0.054,0.102-0.105,0.157-0.154c0.053-0.032,0.106-0.064,0.158-0.097c0.062-0.021,0.126-0.038,0.192-0.05
	c0.074-0.005,0.148-0.006,0.222-0.001c0.085,0.021,0.17,0.041,0.255,0.062c-0.036-0.015-0.072-0.03-0.108-0.045
	c-0.022-0.003-0.045-0.006-0.068-0.01c0.023,0.003,0.045,0.006,0.068,0.01C14.87,14.019,14.85,14.01,14.831,14.002 M14.377,12.576
	c-0.414,0.014-0.813,0.177-1.135,0.432c-0.86,0.682-1.102,1.7-1.102,2.756c-0.001,0.546,0.179,1.041,0.422,1.519
	c0.229,0.451,0.639,0.78,1.037,1.072c0.688,0.505,1.656,0.549,2.461,0.404c0.847-0.153,1.396-0.863,1.852-1.526
	c0.003-0.004-0.004-0.009-0.007-0.006c-0.213,0.168-0.423,0.339-0.636,0.506c0.007-0.007,0.015-0.012,0.022-0.018
	c-0.194,0.132-0.384,0.24-0.595,0.342c0.015-0.006,0.03-0.012,0.046-0.018c-0.156,0.069-0.318,0.117-0.486,0.143
	c-0.202,0.018-0.385,0.02-0.579,0.007c0.189-0.066,0.357-0.194,0.515-0.318c0.317-0.246,0.473-0.753,0.581-1.118
	c0.136-0.458,0.165-0.955,0.155-1.429c-0.017-0.834-0.341-1.969-1.139-2.391c-0.427-0.227-0.84-0.359-1.32-0.359
	C14.439,12.575,14.409,12.575,14.377,12.576"/>
<path opacity="0.9753" fill="#292521" d="M22.446,16.033c0.048,0.02,0.097,0.04,0.144,0.061
	C22.541,16.075,22.493,16.055,22.446,16.033 M21.792,15.078c0.008,0.054,0.015,0.11,0.023,0.164
	C21.806,15.188,21.798,15.133,21.792,15.078 M22.201,13.78c-0.021,0.026-0.041,0.052-0.06,0.079
	C22.16,13.832,22.18,13.805,22.201,13.78 M23.161,13.338c0.023,0.002,0.047,0.005,0.07,0.009
	C23.208,13.345,23.185,13.341,23.161,13.338 M22.808,13.323c-0.032,0.014-0.064,0.026-0.096,0.04
	C22.743,13.349,22.774,13.335,22.808,13.323 M22.063,12.534c-0.83,0.43-1.288,1.178-1.468,2.079
	c-0.167,0.845,0.089,1.696,0.768,2.235c0.695,0.554,1.65,0.575,2.485,0.411c0.951-0.187,1.653-0.896,2.086-1.725
	c0.194-0.373,0.291-0.79,0.356-1.2c0.03-0.184,0.109-0.558-0.023-0.748c-0.303-0.427-0.837,0.104-1.062,0.296
	c-0.005,0.004,0.001,0.008,0.005,0.007c0.152-0.063,0.304-0.129,0.455-0.197c0.062-0.01,0.126-0.021,0.188-0.032
	c0.033,0.011,0.067,0.022,0.101,0.032c0.016,0.013,0.031,0.026,0.048,0.04c0.001,0.016,0.003,0.032,0.005,0.048
	c-0.045,0.227-0.121,0.44-0.204,0.655c-0.123,0.26-0.261,0.5-0.426,0.737c-0.156,0.188-0.314,0.357-0.496,0.521
	c-0.207,0.144-0.408,0.26-0.636,0.365c-0.131,0.045-0.265,0.081-0.401,0.105c-0.313,0.035-0.609,0.035-0.925,0.004
	c-0.162-0.032-0.321-0.076-0.476-0.136c-0.094-0.044-0.185-0.097-0.271-0.157c-0.072-0.062-0.14-0.128-0.203-0.2
	c-0.065-0.096-0.116-0.199-0.151-0.311c0.021,0.052,0.043,0.102,0.064,0.153c-0.028-0.09-0.05-0.181-0.067-0.273
	c-0.013-0.134-0.014-0.268-0.002-0.401c0.041-0.249,0.1-0.48,0.188-0.716c0.063-0.13,0.136-0.255,0.219-0.373
	c0.079-0.095,0.167-0.181,0.263-0.259c-0.036,0.029-0.072,0.057-0.108,0.085c0.097-0.084,0.202-0.153,0.316-0.208
	c0.056-0.013,0.112-0.026,0.168-0.039c0.095-0.006,0.188-0.006,0.282,0.003c0.119,0.021,0.234,0.053,0.346,0.098
	c0.121,0.056,0.236,0.122,0.345,0.198c0.528,0.435,0.963,0.957,1.406,1.479c0.003,0.003,0.008-0.001,0.007-0.005
	c-0.287-0.775-0.582-1.545-1.153-2.159c-0.325-0.351-0.852-0.566-1.355-0.566C22.499,12.38,22.267,12.429,22.063,12.534"/>
<path opacity="0.9753" fill="#292521" d="M27.835,20.457c0.001,0.001,0.002,0.001,0.003,0.001c-0.001,0-0.001,0-0.001-0.001
	C27.836,20.457,27.835,20.457,27.835,20.457C27.834,20.457,27.835,20.457,27.835,20.457 M28.718,20.588
	c-0.03,0.004-0.062,0.008-0.094,0.012C28.655,20.596,28.687,20.592,28.718,20.588 M28.2,20.578c0.013,0.001,0.025,0.003,0.038,0.004
	C28.226,20.581,28.213,20.58,28.2,20.578 M27.33,19.789c0.018,0.044,0.037,0.088,0.056,0.132
	C27.365,19.878,27.347,19.834,27.33,19.789 M27.255,19.389c0.003,0.024,0.006,0.048,0.01,0.073
	C27.261,19.437,27.258,19.413,27.255,19.389 M30.349,19.084c-0.005,0.012-0.01,0.024-0.015,0.036
	C30.339,19.107,30.344,19.096,30.349,19.084 M29.226,16.708c0.017,0.012,0.031,0.024,0.047,0.036
	C29.257,16.732,29.242,16.72,29.226,16.708 M28.656,16.481c-0.023,0.003-0.048,0.006-0.071,0.01
	C28.608,16.487,28.632,16.484,28.656,16.481 M28.28,15.68c-0.706,0.011-1.224,0.541-1.619,1.058
	c-0.233,0.305-0.355,0.719-0.465,1.08c-0.14,0.457-0.156,0.957-0.155,1.43c0.005,0.722,0.319,1.531,0.928,1.954
	c0.673,0.465,1.423,0.502,2.193,0.267c0.672-0.204,1.207-0.855,1.466-1.479c0.283-0.679,0.45-1.487,0.372-2.224
	c-0.009-0.076-0.077-0.153-0.163-0.122c-0.034,0.012-0.206,0.044-0.245,0.114c-0.133,0.23-0.177,0.434-0.241,0.694
	c-0.001,0.005,0.006,0.008,0.009,0.003c0.086-0.139,0.169-0.279,0.251-0.42c0.04-0.04,0.079-0.08,0.12-0.119
	c-0.003,0.024-0.006,0.048-0.008,0.073c-0.097,0.369-0.223,0.729-0.367,1.082c-0.141,0.299-0.302,0.564-0.496,0.83
	c-0.116,0.136-0.244,0.258-0.383,0.368c0.027-0.021,0.056-0.043,0.085-0.065c-0.138,0.114-0.286,0.208-0.447,0.284
	c-0.124,0.045-0.25,0.079-0.38,0.1c-0.154,0.016-0.308,0.016-0.462,0c-0.114-0.019-0.226-0.048-0.335-0.087
	c-0.067-0.039-0.135-0.079-0.201-0.119c0.033,0.026,0.067,0.052,0.101,0.078c0.021,0.009,0.042,0.018,0.063,0.027
	c-0.021-0.008-0.042-0.017-0.062-0.026c0.004,0.003,0.007,0.005,0.011,0.008c-0.005-0.003-0.01-0.006-0.014-0.01
	c-0.007-0.002-0.014-0.005-0.02-0.009c0.006,0.003,0.012,0.006,0.019,0.008c-0.109-0.078-0.208-0.167-0.295-0.268
	c-0.059-0.084-0.108-0.172-0.152-0.265c-0.051-0.131-0.089-0.265-0.113-0.403c-0.025-0.388-0.02-0.764,0.016-1.15
	c0.059-0.316,0.132-0.619,0.237-0.923c0.093-0.188,0.193-0.358,0.314-0.531c0.061-0.071,0.126-0.137,0.197-0.197
	c0.069-0.042,0.139-0.085,0.208-0.126c-0.036,0.016-0.072,0.031-0.109,0.046c0.132-0.068,0.271-0.116,0.416-0.143
	c0.078,0,0.157,0.001,0.235,0.003c-0.035-0.006-0.068-0.01-0.103-0.014c0.163,0.016,0.318,0.061,0.466,0.137
	c-0.028-0.011-0.055-0.022-0.081-0.033c0.052,0.04,0.104,0.079,0.155,0.118c-0.005-0.004-0.011-0.008-0.015-0.012
	c0.057,0.064,0.114,0.13,0.172,0.195c0.089,0.122,0.166,0.252,0.23,0.389c0.169,0.428,0.311,0.865,0.448,1.303
	c0.003,0.004,0.01,0.004,0.01-0.001c-0.003-0.642,0.054-1.422-0.255-2.012c-0.161-0.306-0.323-0.497-0.605-0.694
	c-0.238-0.166-0.558-0.195-0.842-0.195C28.339,15.68,28.31,15.68,28.28,15.68"/>
<path opacity="0.9753" fill="#292521" d="M34.116,24.815c0.051,0.007,0.101,0.014,0.149,0.021c-0.086-0.022-0.172-0.045-0.256-0.065
	C34.045,24.785,34.081,24.801,34.116,24.815 M34.117,24.816C34.117,24.815,34.116,24.815,34.117,24.816
	c-0.003-0.001-0.005-0.001-0.007-0.002C34.112,24.815,34.115,24.815,34.117,24.816 M34.642,24.819
	c-0.038,0.006-0.077,0.012-0.115,0.015C34.564,24.829,34.604,24.824,34.642,24.819 M33.783,24.648
	c0.006,0.005,0.012,0.01,0.019,0.015l0,0C33.795,24.658,33.789,24.653,33.783,24.648 M33.487,24.334
	c0.024,0.032,0.05,0.064,0.075,0.098C33.536,24.4,33.511,24.367,33.487,24.334 M33.329,23.991c0.016,0.037,0.031,0.072,0.046,0.108
	C33.358,24.064,33.344,24.028,33.329,23.991 M33.239,23.443c0.003,0.022,0.007,0.047,0.01,0.07
	C33.246,23.49,33.242,23.467,33.239,23.443 M34.633,24.183c0.407-0.362,0.621-0.845,0.798-1.348
	c0.176-0.497,0.223-1.046,0.176-1.566c0.018,0,0.034,0,0.052,0.001c0.067,0.019,0.136,0.038,0.204,0.057
	c0.044,0.045,0.089,0.089,0.134,0.134c0.028,0.061,0.058,0.122,0.087,0.182c0.017,0.12,0.011,0.239-0.019,0.358
	c0.003-0.018,0.006-0.036,0.008-0.054c-0.093,0.548-0.215,1.064-0.4,1.587c-0.142,0.308-0.295,0.596-0.486,0.877
	c-0.108,0.124-0.232,0.231-0.372,0.321c0.034-0.025,0.069-0.052,0.104-0.079c-0.073,0.039-0.146,0.08-0.22,0.12
	c-0.064,0.021-0.13,0.043-0.195,0.064c-0.128,0.01-0.256,0.002-0.385-0.021c0.012,0.004,0.022,0.009,0.033,0.014
	c-0.07-0.025-0.139-0.056-0.204-0.089C34.184,24.567,34.41,24.382,34.633,24.183 M34.501,21.238c0.01,0.022,0.02,0.046,0.028,0.07
	C34.52,21.284,34.51,21.261,34.501,21.238 M34.186,20.89c0.024,0.005,0.049,0.012,0.073,0.019c0.034,0.029,0.068,0.058,0.103,0.087
	c-0.018-0.023-0.035-0.046-0.054-0.07c0.002,0,0.003,0.001,0.005,0.001c0.065,0.082,0.121,0.17,0.166,0.263
	c0.067,0.214,0.111,0.419,0.148,0.638c0.024,0.382,0.016,0.75-0.021,1.13c-0.047,0.259-0.108,0.49-0.202,0.733
	c-0.177,0.338-0.38,0.657-0.6,0.967c-0.018-0.012-0.035-0.023-0.052-0.035c-0.065-0.055-0.125-0.114-0.18-0.179
	c-0.068-0.098-0.128-0.199-0.18-0.306c-0.059-0.184-0.1-0.358-0.131-0.544c-0.029-0.363-0.025-0.709,0.01-1.069
	c0.066-0.349,0.156-0.673,0.287-1.002c0.057-0.122,0.121-0.238,0.194-0.352c-0.035,0.046-0.07,0.091-0.106,0.137
	c0.075-0.108,0.16-0.205,0.258-0.292c0.051-0.033,0.102-0.067,0.153-0.101c0.022-0.008,0.044-0.016,0.065-0.024
	C34.145,20.891,34.165,20.891,34.186,20.89 M34.15,20.882c0.001,0,0.003,0,0.005,0C34.153,20.883,34.151,20.883,34.15,20.882
	L34.15,20.882 M34.271,20.878c0.006,0.007,0.012,0.014,0.019,0.021c-0.002,0-0.003-0.001-0.004-0.002
	C34.281,20.891,34.276,20.884,34.271,20.878 M34.031,20.867c0.036,0.003,0.071,0.007,0.105,0.013c-0.001,0-0.002,0-0.003,0
	C34.1,20.875,34.065,20.871,34.031,20.867 M32.686,20.347c-0.321,0.341-0.494,0.808-0.662,1.235c-0.234,0.6-0.272,1.37-0.183,1.998
	c0.136,0.942,0.633,1.964,1.618,2.269c0.457,0.142,0.863,0.151,1.329,0.053c0.505-0.106,0.906-0.572,1.178-0.974
	c0.281-0.419,0.388-1.002,0.462-1.486c0.084-0.547,0.07-1.104,0.021-1.656c-0.016-0.17-0.13-0.422-0.281-0.516
	c-0.026-0.017-0.166-0.134-0.252-0.138c-0.115-0.007-0.221,0-0.322,0.013c-0.065-0.459-0.271-0.83-0.6-1.165
	c-0.251-0.256-0.652-0.319-0.991-0.337c-0.017-0.001-0.034-0.001-0.052-0.001C33.469,19.642,32.993,20.023,32.686,20.347"/>
<path opacity="0.9753" fill="#292521" d="M30.122,28.339c0.01,0.024,0.02,0.048,0.029,0.071
	C30.142,28.387,30.131,28.363,30.122,28.339 M31.031,25.266c-0.01,0.009-0.02,0.016-0.029,0.023
	C31.012,25.281,31.021,25.274,31.031,25.266 M31.391,25.047c-0.022,0.009-0.045,0.019-0.067,0.027
	C31.346,25.064,31.368,25.055,31.391,25.047 M31.823,24.951c-0.033,0.004-0.067,0.009-0.101,0.014
	c0.082,0.001,0.165,0.003,0.247,0.005c0.074,0.017,0.148,0.032,0.223,0.048c-0.026-0.011-0.053-0.022-0.079-0.033
	c0.169,0.061,0.318,0.152,0.453,0.271c-0.02-0.015-0.039-0.03-0.059-0.044c0.052,0.054,0.104,0.11,0.156,0.166
	c0.031,0.052,0.062,0.103,0.093,0.155c0.078,0.195,0.131,0.384,0.175,0.591c0.056,0.572,0.006,1.129-0.07,1.695
	c0.001-0.011,0.003-0.021,0.004-0.033c-0.026,0.159-0.056,0.318-0.085,0.477c-0.047-0.335-0.255-0.621-0.426-0.903
	c-0.003-0.004-0.01-0.001-0.009,0.003c0.066,0.256,0.135,0.501,0.177,0.761c-0.006,0.085-0.013,0.168-0.019,0.252
	c-0.037,0.187-0.084,0.369-0.141,0.551c0.008-0.017,0.015-0.033,0.021-0.051c-0.06,0.187-0.152,0.353-0.278,0.501
	c0.014-0.019,0.027-0.036,0.04-0.053c-0.057,0.05-0.113,0.102-0.17,0.151c-0.12,0.053-0.247,0.081-0.381,0.084
	c0.028-0.004,0.056-0.007,0.084-0.011c-0.073-0.008-0.146-0.018-0.22-0.026c-0.091-0.028-0.183-0.058-0.273-0.086
	c-0.187-0.087-0.351-0.181-0.519-0.3c-0.136-0.124-0.257-0.262-0.36-0.414c0.021,0.028,0.044,0.057,0.066,0.086
	c-0.081-0.118-0.151-0.241-0.21-0.37c-0.079-0.218-0.136-0.423-0.176-0.646c-0.015-0.169-0.013-0.338,0.004-0.506
	c0.061-0.34,0.14-0.651,0.261-0.973c0.106-0.212,0.215-0.402,0.353-0.594c0.146-0.182,0.296-0.337,0.477-0.489
	c0.104-0.074,0.213-0.138,0.33-0.191C31.544,24.988,31.681,24.96,31.823,24.951 M31.333,24.21c-0.394,0.078-0.784,0.229-1.094,0.494
	c-0.384,0.326-0.642,0.704-0.871,1.151c-0.409,0.799-0.472,1.765-0.181,2.604c0.106,0.308,0.287,0.633,0.513,0.868
	c0.154,0.16,0.313,0.341,0.509,0.454c0.189,0.108,0.337,0.174,0.539,0.259c0.496,0.204,1.312,0.23,1.693-0.231
	c-0.053,0.224-0.107,0.447-0.161,0.671c-0.001,0.005,0.007,0.008,0.009,0.002c0.115-0.336,0.23-0.672,0.341-1.009
	c0.055-0.12,0.073-0.184,0.113-0.354c0.191-0.607,0.361-1.221,0.482-1.848c0.146-0.741,0.181-1.489-0.125-2.191
	c-0.235-0.541-0.908-0.896-1.504-0.896C31.507,24.185,31.418,24.193,31.333,24.21"/>
<path opacity="0.9753" fill="#292521" d="M26.81,27.242c0.028,0.022,0.057,0.045,0.086,0.068
	C26.865,27.289,26.837,27.267,26.81,27.242 M28.679,27.15c-0.013,0.01-0.024,0.02-0.037,0.029
	C28.653,27.17,28.666,27.16,28.679,27.15 M26.628,26.994c0.008,0.018,0.016,0.036,0.022,0.055
	C26.643,27.03,26.635,27.012,26.628,26.994 M27.344,26.761c-0.001,0.009-0.002,0.019-0.003,0.027
	C27.342,26.779,27.343,26.77,27.344,26.761 M26.535,26.611c0.004,0.027,0.008,0.055,0.012,0.082
	C26.542,26.667,26.538,26.64,26.535,26.611 M29.27,26.568c-0.002,0.003-0.004,0.006-0.006,0.008
	C29.266,26.574,29.268,26.571,29.27,26.568 M26.687,25.797c-0.005,0.013-0.01,0.024-0.015,0.037
	c-0.002,0.002-0.004,0.004-0.005,0.006C26.673,25.825,26.68,25.812,26.687,25.797 M26.766,25.736
	c0.023,0.003,0.047,0.006,0.07,0.008c0.025,0.011,0.051,0.021,0.075,0.031c0.036,0.024,0.072,0.048,0.108,0.072
	c0.047,0.044,0.095,0.088,0.141,0.133c-0.022-0.029-0.046-0.06-0.067-0.089c0.112,0.124,0.193,0.268,0.242,0.427
	c-0.013-0.031-0.026-0.062-0.039-0.094c0.017,0.075,0.033,0.15,0.051,0.226c0.008,0.095,0.008,0.189,0,0.284
	c-0.033,0.185-0.08,0.347-0.147,0.521c-0.024,0.051-0.05,0.102-0.075,0.152c-0.021-0.008-0.043-0.016-0.064-0.023
	c-0.089-0.041-0.175-0.09-0.256-0.146c-0.069-0.063-0.13-0.135-0.18-0.217c0.026,0.035,0.053,0.068,0.079,0.103
	c-0.031-0.059-0.062-0.118-0.093-0.178c-0.023-0.067-0.042-0.138-0.057-0.209c-0.007-0.2-0.005-0.388,0.016-0.583
	c0.021-0.108,0.053-0.213,0.098-0.314c0.001-0.002,0.003-0.004,0.004-0.005c-0.012,0.028-0.024,0.059-0.037,0.088
	c0.027-0.05,0.057-0.099,0.085-0.148c0.008-0.011,0.017-0.022,0.025-0.034C26.752,25.739,26.759,25.738,26.766,25.736
	 M26.396,24.783c-0.564,0.154-0.824,0.842-0.896,1.352c-0.076,0.538,0.01,1.193,0.413,1.6c0.223,0.225,0.473,0.374,0.746,0.463
	c-0.066,0.106-0.134,0.213-0.199,0.319c-0.003,0.005,0.004,0.009,0.007,0.007c0.117-0.095,0.234-0.188,0.35-0.282
	c0.219,0.051,0.451,0.067,0.692,0.054c0.673-0.034,1.239-0.438,1.646-0.947c0.398-0.503,0.5-1.072,0.596-1.689
	c0-0.006-0.006-0.008-0.009-0.004c-0.151,0.32-0.286,0.64-0.486,0.935c-0.174,0.21-0.36,0.387-0.571,0.559
	c-0.133,0.092-0.274,0.17-0.425,0.231c0.025-0.009,0.05-0.02,0.075-0.03c-0.141,0.062-0.284,0.105-0.434,0.132
	c-0.101,0.008-0.196,0.01-0.293,0.007c0.091-0.11,0.176-0.229,0.251-0.354c0.317-0.525,0.254-1.16-0.011-1.682
	c-0.21-0.414-0.703-0.705-1.174-0.705C26.579,24.746,26.485,24.758,26.396,24.783"/>
</svg>
