<?xml version="1.0" encoding="utf-8"?>
<!-- Generator: Adobe Illustrator 15.0.0, SVG Export Plug-In . SVG Version: 6.00 Build 0)  -->
<!DOCTYPE svg PUBLIC "-//W3C//DTD SVG 1.1//EN" "http://www.w3.org/Graphics/SVG/1.1/DTD/svg11.dtd">
<svg version="1.1" id="Capa_1" xmlns="http://www.w3.org/2000/svg" xmlns:xlink="http://www.w3.org/1999/xlink" x="0px" y="0px"
	 width="44px" height="44px" viewBox="0 0 44 44" enable-background="new 0 0 44 44" xml:space="preserve">
<path opacity="0.9753" fill="#292521" d="M18.259,31.219c0.354,0.243,0.723,0.465,1.083,0.695c-0.347-0.172-0.672-0.38-0.981-0.614
	C18.327,31.272,18.293,31.246,18.259,31.219 M18.409,12.254c0.188,0.007,0.377,0.025,0.566,0.045
	c0.729,0.119,1.438,0.357,2.129,0.619c0.147,0.069,0.294,0.138,0.441,0.207c0.435,0.204,0.846,0.47,1.232,0.756
	c0.561,0.451,1.075,0.959,1.572,1.479c0.445,0.462,0.88,0.937,1.279,1.439c0.402,0.54,0.741,1.116,1.049,1.714
	c0.261,0.506,0.518,1.009,0.746,1.53c0.391,0.96,0.69,1.955,0.848,2.979c0.059,0.536,0.056,1.072,0.027,1.611
	c-0.021,0.448-0.044,0.894-0.095,1.341c-0.11,0.708-0.303,1.397-0.567,2.063c-0.302,0.675-0.679,1.299-1.121,1.892
	c-0.212,0.264-0.434,0.517-0.675,0.755c-0.223,0.219-0.463,0.419-0.707,0.613c-0.383,0.286-0.788,0.549-1.221,0.75
	c-0.314,0.121-0.637,0.21-0.968,0.265c-0.737,0.079-1.491,0.09-2.229,0.009c-0.412-0.068-0.81-0.17-1.198-0.324
	c-0.049-0.022-0.099-0.045-0.147-0.069c-0.464-0.458-0.944-0.898-1.367-1.396c-0.166-0.195-0.321-0.399-0.479-0.604
	c-0.417-0.552-0.808-1.123-1.202-1.692c-0.193-0.28-0.392-0.558-0.58-0.842c-0.112-0.168-0.223-0.337-0.335-0.506
	c-0.183-0.274-0.336-0.57-0.475-0.871c-0.008-0.027-0.018-0.054-0.026-0.081c-0.001-0.001-0.004-0.001-0.004,0.001
	c0.001,0.006,0.001,0.012,0.002,0.018c-0.016-0.033-0.03-0.066-0.045-0.101c-0.089-0.235-0.184-0.468-0.259-0.707
	c-0.159-0.516-0.304-1.027-0.392-1.56c-0.097-0.897,0.006-1.813,0.064-2.712c0.034-0.533,0.084-1.064,0.142-1.596
	c0.061-0.367,0.125-0.731,0.202-1.097c0.082-0.389,0.189-0.771,0.303-1.153c0.233-0.787,0.504-1.558,0.794-2.326
	c0.287-0.651,0.589-1.299,1.002-1.881c0.108-0.125,0.22-0.242,0.343-0.351c0.08-0.054,0.162-0.103,0.247-0.147
	c0.093-0.03,0.186-0.055,0.281-0.074C17.862,12.23,18.135,12.244,18.409,12.254 M16.65,9.982c-0.588,0.167-1.108,0.524-1.536,0.955
	c-0.195,0.197-0.358,0.43-0.521,0.654c-0.127,0.177-0.235,0.364-0.341,0.553c-0.11,0.202-0.208,0.409-0.308,0.616
	c-0.189,0.389-0.344,0.793-0.508,1.193c-0.108,0.268-0.201,0.547-0.283,0.823c-0.19,0.628-0.376,1.262-0.514,1.904
	c-0.073,0.34-0.144,0.677-0.193,1.02c-0.064,0.433-0.114,0.862-0.152,1.298c-0.055,0.621-0.04,1.253-0.021,1.875
	c0.01,0.365,0.025,0.729,0.042,1.094c0.014,0.339,0.035,0.677,0.076,1.013c0.03,0.25,0.065,0.498,0.116,0.745
	c0.054,0.264,0.139,0.522,0.226,0.777c0.104,0.309,0.235,0.609,0.37,0.905c0.07,0.152,0.133,0.312,0.214,0.46
	c0.091,0.168,0.182,0.337,0.274,0.505c0.188,0.347,0.427,0.663,0.668,0.975c0.233,0.3,0.495,0.577,0.757,0.853
	c0.065,0.068,0.13,0.137,0.196,0.205c0.016,0.084,0.033,0.168,0.052,0.252c0.09,0.408,0.237,0.8,0.414,1.179
	c0.191,0.409,0.461,0.781,0.75,1.129c0.59,0.713,1.349,1.314,2.146,1.785c0.786,0.465,1.653,0.772,2.549,0.935
	c0.479,0.086,0.964,0.151,1.45,0.187c0.23,0.017,0.459,0.025,0.689,0.021c0.283-0.007,0.57-0.056,0.85-0.104
	c0.453-0.081,0.879-0.261,1.296-0.453c0.411-0.189,0.797-0.426,1.167-0.686c0.392-0.273,0.764-0.573,1.101-0.91
	c0.378-0.379,0.711-0.807,1.024-1.239c0.568-0.783,0.964-1.689,1.25-2.611c0.131-0.422,0.226-0.854,0.296-1.291
	c0.067-0.426,0.12-0.863,0.141-1.294c0.019-0.412,0.045-0.823,0.048-1.236c0.021-1.985-0.617-3.898-1.47-5.669
	c-0.181-0.376-0.384-0.743-0.578-1.113c-0.11-0.211-0.229-0.416-0.351-0.62c-0.271-0.457-0.588-0.879-0.914-1.298
	c-0.47-0.602-1-1.156-1.525-1.708c-0.799-0.841-1.677-1.62-2.672-2.221c-0.692-0.419-1.434-0.732-2.189-1.019
	c-0.46-0.176-0.928-0.324-1.413-0.411c-0.436-0.079-0.879-0.12-1.318-0.158c-0.099-0.008-0.2-0.012-0.301-0.012
	C17.346,9.837,16.986,9.889,16.65,9.982"/>
<path opacity="0.9753" fill="#292521" d="M22.344,30.073L22.344,30.073c-0.005,0.006-0.011,0.01-0.017,0.014
	C22.333,30.083,22.339,30.079,22.344,30.073 M21.47,28.232c0.015,0.021,0.032,0.041,0.048,0.062
	C21.501,28.273,21.485,28.253,21.47,28.232 M17.461,17.087c-0.007-0.299-0.021-0.597-0.016-0.896
	c0.006-0.354,0.022-0.703,0.045-1.058c0.021-0.29,0.053-0.578,0.08-0.867c0.025-0.264,0.03-0.534,0.035-0.799
	c0.013-0.544,0.011-1.087,0.004-1.631c0.096,0.171,0.187,0.346,0.269,0.526c0.172,0.419,0.335,0.841,0.494,1.266
	c0.178,0.476,0.379,0.941,0.588,1.403c0.395,0.877,0.825,1.74,1.228,2.613c0.475,1.172,0.932,2.35,1.307,3.559
	c0.406,1.312,0.846,2.613,1.104,3.965c0.036,0.188,0.069,0.374,0.099,0.562c0.071,0.675,0.054,1.354,0.003,2.03
	c-0.033,0.428-0.061,0.855-0.108,1.281c-0.019,0.114-0.039,0.229-0.062,0.344c-0.003-0.003-0.007-0.005-0.012-0.008
	c-0.123-0.106-0.243-0.214-0.359-0.33c-0.139-0.138-0.265-0.286-0.394-0.432c-0.04-0.052-0.08-0.103-0.12-0.154
	c-0.539-0.787-1.015-1.611-1.478-2.444c-0.225-0.408-0.418-0.842-0.613-1.266c-0.191-0.417-0.378-0.835-0.563-1.256
	c-0.254-0.653-0.505-1.307-0.744-1.966c-0.11-0.304-0.202-0.612-0.301-0.92c-0.154-0.483-0.273-0.989-0.351-1.49
	C17.516,18.45,17.477,17.764,17.461,17.087 M17.047,10.887c0.149,0.253,0.305,0.501,0.453,0.755
	c-0.133,0.612-0.268,1.224-0.408,1.834c-0.149,0.649-0.343,1.286-0.5,1.934c-0.152,0.63-0.222,1.285-0.284,1.929
	c-0.034,0.361-0.063,0.722-0.088,1.083c-0.045,0.655-0.029,1.304,0.068,1.953c0.053,0.354,0.107,0.705,0.177,1.057
	s0.154,0.696,0.24,1.045c0.148,0.594,0.308,1.19,0.502,1.77c0.222,0.658,0.465,1.308,0.715,1.956
	c0.266,0.688,0.583,1.352,0.915,2.01c0.284,0.562,0.571,1.12,0.926,1.64c0.237,0.345,0.496,0.675,0.779,0.981
	c0.221,0.24,0.469,0.449,0.726,0.648c0.309,0.24,0.616,0.491,0.945,0.703c0.686,0.441,1.586,0.26,2.12-0.327
	c0.433-0.478,0.607-1.12,0.7-1.741c0.107-0.712,0.135-1.421,0.13-2.139c-0.004-0.781-0.058-1.553-0.194-2.323
	c-0.104-0.594-0.297-1.166-0.487-1.735c-0.109-0.324-0.23-0.64-0.356-0.957c-0.271-0.681-0.572-1.348-0.868-2.018
	c-0.533-1.206-1.122-2.381-1.778-3.526c-0.572-0.999-1.251-1.931-1.879-2.895c-0.299-0.458-0.576-0.927-0.854-1.399
	c-0.155-0.264-0.312-0.525-0.478-0.784c-0.196-0.307-0.424-0.585-0.664-0.855c-0.001-0.098-0.003-0.196-0.005-0.294
	c0-0.002-0.003-0.002-0.003-0.001c-0.017,0.077-0.033,0.154-0.05,0.231c-0.163-0.181-0.331-0.359-0.498-0.538h-0.001
	C17.047,10.885,17.046,10.886,17.047,10.887"/>
<path opacity="0.9753" fill="#292521" d="M21.792,20.018c0.005,0.024,0.008,0.048,0.009,0.073
	C21.798,20.067,21.795,20.042,21.792,20.018 M18.215,16.37c-0.019-0.38-0.005-0.763,0.007-1.143
	c0.015-0.403,0.012-0.802-0.009-1.205c-0.006-0.104-0.015-0.209-0.022-0.313c0.598,0.877,1.179,1.766,1.756,2.657
	c0.156,0.242,0.291,0.5,0.435,0.748c0.135,0.23,0.262,0.465,0.391,0.699c0.143,0.258,0.279,0.52,0.41,0.785
	c0.156,0.359,0.309,0.718,0.463,1.076c0.021,0.051,0.041,0.101,0.062,0.15c0.033,0.106,0.064,0.213,0.093,0.321
	c0.088,0.32,0.312,0.591,0.604,0.743c0.137,0.333,0.273,0.665,0.414,0.995c0.076,0.181,0.149,0.36,0.225,0.54
	c-0.021-0.05-0.041-0.1-0.062-0.148c0.029,0.071,0.056,0.144,0.078,0.218c0.028,0.085,0.062,0.158,0.099,0.229l0,0
	c0,0.001,0.001,0.002,0.001,0.003c0.046,0.163,0.133,0.315,0.255,0.438c0.105,0.105,0.234,0.187,0.373,0.234
	c0.01,0.185,0.016,0.369,0.02,0.554c0.012,0.479,0.017,0.957,0.014,1.436c-0.001,0.268-0.005,0.535-0.014,0.802
	c-0.006,0.191-0.023,0.38-0.043,0.57c-0.059,0.335-0.127,0.662-0.239,0.984c-0.028,0.062-0.06,0.123-0.092,0.184
	c-0.08,0.153-0.148,0.312-0.198,0.477c-0.067,0.224-0.049,0.432-0.01,0.647c-0.023,0.044-0.048,0.087-0.075,0.128
	c-0.045,0.073-0.09,0.145-0.141,0.211c-0.167,0.228-0.268,0.519-0.268,0.802c0,0.119,0.019,0.246,0.056,0.37
	c-0.083-0.004-0.164-0.001-0.249,0c-0.005,0-0.01,0-0.014,0c-0.027-0.079-0.063-0.155-0.105-0.229
	c-0.075-0.119-0.154-0.236-0.259-0.327c-0.077-0.064-0.147-0.12-0.219-0.169c0.003-0.136-0.011-0.271-0.048-0.394
	c-0.034-0.116-0.081-0.229-0.123-0.342c-0.111-0.292-0.229-0.579-0.359-0.861c-0.166-0.359-0.356-0.707-0.533-1.061
	c-0.177-0.354-0.337-0.714-0.495-1.075c-0.024-0.061-0.049-0.119-0.074-0.179c-0.246-1.035-0.525-2.061-0.794-3.091
	c-0.233-0.887-0.467-1.771-0.666-2.666c-0.113-0.507-0.224-1.016-0.335-1.526c-0.091-0.42-0.151-0.85-0.214-1.275
	C18.268,17.034,18.232,16.704,18.215,16.37 M16.806,10.736c-0.279,0.143-0.528,0.354-0.746,0.58
	c-0.182,0.187-0.334,0.408-0.485,0.621c-0.112,0.157-0.205,0.327-0.294,0.498c-0.08,0.153-0.156,0.31-0.223,0.468
	c-0.165,0.384-0.328,0.767-0.484,1.155c-0.057,0.142-0.118,0.283-0.17,0.427c-0.06,0.168-0.131,0.336-0.181,0.506
	c-0.051,0.173-0.101,0.344-0.151,0.517c-0.048,0.166-0.08,0.34-0.118,0.511c-0.09,0.392-0.144,0.79-0.197,1.188
	c-0.04,0.307-0.07,0.616-0.08,0.925c-0.021,0.698-0.027,1.394-0.024,2.093c0.003,0.735,0.101,1.464,0.28,2.175
	c-0.065,0.069-0.124,0.145-0.179,0.228c-0.22,0.335-0.23,0.741-0.249,1.128c-0.015,0.296,0.037,0.599,0.079,0.889
	c0.036,0.256,0.099,0.5,0.181,0.744c0.158,0.477,0.37,0.941,0.612,1.382c0.253,0.461,0.551,0.886,0.877,1.299
	c0.394,0.498,0.867,0.921,1.332,1.35c0.247,0.228,0.502,0.443,0.757,0.662c0.105,0.091,0.221,0.172,0.331,0.257
	c0.136,0.105,0.271,0.215,0.407,0.319c0.105,0.187,0.215,0.371,0.336,0.55c0.275,0.402,0.591,0.756,0.953,1.081
	c0.207,0.185,0.431,0.356,0.665,0.507c0.256,0.165,0.549,0.281,0.835,0.378c0.257,0.086,0.538,0.109,0.805,0.135
	c0.188,0.018,0.377,0.018,0.566,0.01c0.248-0.007,0.505-0.04,0.746-0.106c0.026-0.011,0.054-0.021,0.081-0.033
	c0.132-0.026,0.247-0.079,0.346-0.161c0.086-0.065,0.172-0.132,0.258-0.198c0.078-0.095,0.154-0.194,0.227-0.296
	c0.114-0.197,0.172-0.41,0.172-0.639c0-0.037-0.001-0.073-0.004-0.109c0.052,0.022,0.106,0.042,0.164,0.059
	c0.27,0.073,0.521,0.055,0.788-0.007c0.376-0.087,0.648-0.391,0.911-0.651c0.219-0.219,0.427-0.444,0.618-0.688
	c0.456-0.582,0.872-1.204,1.18-1.88c0.272-0.603,0.546-1.205,0.742-1.839c0.152-0.489,0.232-0.989,0.296-1.497
	c0.025-0.212,0.027-0.426,0.008-0.638c-0.016-0.116-0.03-0.232-0.046-0.347c-0.017-0.142-0.065-0.274-0.146-0.397
	c-0.022-0.054-0.049-0.102-0.078-0.146c0.012-0.188,0.022-0.376,0.032-0.563c0.009-0.22,0.021-0.438,0.018-0.657
	c-0.006-0.27-0.054-0.54-0.107-0.804c-0.058-0.28-0.172-0.551-0.296-0.808c-0.046-0.096-0.122-0.199-0.194-0.287
	C27.9,20.3,27.83,19.98,27.749,19.665c-0.292-1.13-0.721-2.228-1.343-3.217c-0.098-0.155-0.194-0.309-0.293-0.464
	c-0.09-0.144-0.201-0.277-0.301-0.414c-0.245-0.335-0.506-0.653-0.772-0.971c-0.085-0.102-0.183-0.197-0.274-0.293
	c-0.104-0.109-0.205-0.221-0.317-0.323c-0.271-0.246-0.544-0.479-0.83-0.709c-0.325-0.261-0.663-0.503-1.007-0.738
	c-0.125-0.086-0.251-0.17-0.378-0.255c-0.057-0.038-0.114-0.078-0.17-0.117c-0.025-0.018-0.05-0.034-0.074-0.052
	c-0.057-0.046-0.117-0.087-0.18-0.124c-0.12-0.053-0.242-0.104-0.365-0.151c-0.025-0.008-0.051-0.016-0.076-0.024
	c-0.282-0.087-0.573-0.054-0.825,0.062c-0.023-0.026-0.047-0.053-0.072-0.08c-0.097-0.148-0.223-0.298-0.384-0.368
	c-0.059-0.025-0.12-0.05-0.179-0.075c-0.133-0.036-0.266-0.036-0.398,0c-0.008,0.002-0.016,0.004-0.025,0.007
	c-0.054-0.042-0.109-0.081-0.164-0.122c-0.015-0.008-0.028-0.016-0.043-0.024c-0.048-0.04-0.095-0.081-0.145-0.12
	c-0.123-0.099-0.252-0.21-0.391-0.292c-0.052-0.031-0.096-0.054-0.152-0.081c-0.291-0.138-0.455-0.178-0.777-0.21
	c-0.043-0.004-0.088-0.006-0.132-0.006C17.376,10.505,17.072,10.601,16.806,10.736"/>
</svg>
