<?xml version="1.0" encoding="utf-8"?>
<!-- Generator: Adobe Illustrator 15.0.0, SVG Export Plug-In . SVG Version: 6.00 Build 0)  -->
<!DOCTYPE svg PUBLIC "-//W3C//DTD SVG 1.1//EN" "http://www.w3.org/Graphics/SVG/1.1/DTD/svg11.dtd">
<svg version="1.1" id="Capa_1" xmlns="http://www.w3.org/2000/svg" xmlns:xlink="http://www.w3.org/1999/xlink" x="0px" y="0px"
	 width="44px" height="44px" viewBox="0 0 44 44" enable-background="new 0 0 44 44" xml:space="preserve">
<g>
	<g>
		<path opacity="0.9753" fill="#FF9435" d="M34.865,13.369c-0.001,0.005-0.001,0.01-0.002,0.015
			C34.864,13.379,34.864,13.374,34.865,13.369 M22.636,11.48c0.242-0.028,0.479-0.037,0.723-0.046
			c0.278-0.01,0.558-0.032,0.835-0.029c0.37,0.003,0.74,0.006,1.11,0.009c0.569,0.005,1.139,0.02,1.709,0.031
			c0.53,0.011,1.062,0.02,1.591,0.046c0.852,0.042,1.702,0.071,2.55,0.172c0.813,0.12,1.62,0.31,2.387,0.61
			c0.309,0.138,0.609,0.296,0.886,0.492c0.124,0.103,0.242,0.209,0.35,0.328c0.025,0.04,0.049,0.081,0.071,0.123
			c0.005,0.017,0.011,0.033,0.015,0.05c-0.008,0.015-0.017,0.03-0.024,0.045c-0.041,0.044-0.084,0.085-0.128,0.125
			c-0.168,0.112-0.343,0.205-0.525,0.288c-0.489,0.195-0.997,0.34-1.508,0.468c-0.517,0.129-1.043,0.235-1.571,0.311
			c-0.317,0.039-0.637,0.064-0.955,0.083c-0.132-0.007-0.264-0.014-0.395-0.021c-0.544-0.028-1.084-0.075-1.627-0.12
			c-0.52-0.043-1.038-0.096-1.557-0.144c-0.458-0.042-0.915-0.106-1.371-0.161c-0.498-0.075-0.997-0.141-1.49-0.241
			c-0.322-0.066-0.646-0.13-0.968-0.195c-0.297-0.059-0.591-0.14-0.886-0.209c-0.223-0.052-0.444-0.105-0.666-0.16
			c-0.283-0.07-0.571-0.13-0.853-0.208c-0.654-0.181-1.315-0.348-1.962-0.559c0.495-0.195,0.996-0.384,1.508-0.53
			c0.304-0.086,0.608-0.193,0.918-0.255c0.343-0.069,0.686-0.138,1.028-0.207C22.099,11.544,22.367,11.513,22.636,11.48
			 M27.312,9.698c-0.582,0.006-1.164,0.015-1.746,0.023c-0.513,0.007-1.027,0.007-1.539,0.035c-0.368,0.021-0.736,0.042-1.104,0.062
			c-0.28,0.016-0.562,0.068-0.84,0.103c-0.301,0.038-0.601,0.074-0.897,0.133c-0.197,0.039-0.395,0.078-0.593,0.117
			c-0.103,0.021-0.208,0.035-0.309,0.062c-0.628,0.167-1.257,0.331-1.874,0.537c-0.726,0.242-1.461,0.476-2.167,0.772
			c0.051-0.021,0.102-0.043,0.152-0.064c-0.13,0.055-0.264,0.099-0.382,0.177c-0.068,0.053-0.138,0.106-0.206,0.159
			c-0.068,0.084-0.135,0.17-0.197,0.258c-0.009,0.02-0.019,0.04-0.027,0.059c-0.062,0.095-0.101,0.198-0.115,0.307
			c-0.012,0.094-0.024,0.187-0.037,0.279c0.002,0.12,0.021,0.236,0.058,0.349c0.068,0.231,0.166,0.348,0.312,0.534
			c0.051,0.065,0.101,0.119,0.164,0.172c0.115,0.094,0.225,0.178,0.35,0.252c0.092,0.054,0.192,0.095,0.289,0.139
			c0.665,0.301,1.394,0.479,2.113,0.596c0.362,0.059,0.726,0.117,1.088,0.174c0.349,0.055,0.701,0.087,1.051,0.125
			c1.138,0.126,2.279,0.235,3.424,0.245c0.283,0.002,0.567,0.013,0.851,0.005c0.354-0.009,0.71-0.019,1.065-0.028
			c0.038-0.001,0.077-0.002,0.115-0.003c0.18,0.044,0.359,0.089,0.542,0.118c0.621,0.1,1.241,0.202,1.867,0.261
			c0.334,0.031,0.667,0.062,1.001,0.09c0.816,0.07,1.641,0.037,2.452-0.071c0.855-0.113,1.693-0.284,2.517-0.546
			c0.218-0.07,0.431-0.16,0.641-0.251c0.17-0.075,0.327-0.162,0.48-0.268c0.218-0.151,0.395-0.323,0.543-0.543
			c0.053-0.08,0.096-0.155,0.134-0.244c0.05-0.093,0.087-0.19,0.11-0.293c0.017-0.105,0.03-0.212,0.039-0.319
			c0.013-0.126-0.021-0.301-0.041-0.415c-0.016-0.09-0.036-0.175-0.064-0.263c-0.067-0.212-0.17-0.41-0.301-0.588
			c-0.134-0.183-0.277-0.352-0.439-0.51c-0.185-0.18-0.397-0.334-0.609-0.48c-0.352-0.24-0.742-0.41-1.134-0.571
			c-0.393-0.161-0.806-0.276-1.219-0.368c-0.891-0.198-1.803-0.27-2.712-0.309c-0.313-0.014-0.63-0.008-0.944-0.012
			c-0.217-0.003-0.434-0.004-0.65-0.004C28.119,9.691,27.717,9.695,27.312,9.698"/>
		<path opacity="0.9753" fill="#FF9435" d="M36.627,13.959c-0.604,0.59-1.2,1.188-1.784,1.797c-0.145,0.151-0.29,0.301-0.435,0.451
			c-0.205,0.213-0.4,0.439-0.612,0.645c-0.248,0.239-0.493,0.48-0.736,0.724c-0.203,0.204-0.433,0.385-0.647,0.577
			c-0.413,0.371-0.837,0.729-1.251,1.098c-0.418,0.372-0.811,0.77-1.218,1.152c-0.431,0.405-0.865,0.81-1.281,1.23
			c-0.439,0.446-0.854,0.905-1.249,1.391c-0.35,0.43-0.706,0.859-1.023,1.314c-0.257,0.367-0.476,0.752-0.693,1.143
			c-0.001,0.002,0.002,0.004,0.003,0.002c0.362-0.338,0.708-0.691,1.086-1.014c0.215-0.182,0.43-0.363,0.645-0.547
			c0.46-0.389,0.917-0.781,1.38-1.167c0.189-0.146,0.379-0.292,0.567-0.439c0.499-0.374,0.991-0.757,1.476-1.15
			c0.458-0.371,0.899-0.774,1.331-1.176c0.403-0.375,0.796-0.762,1.172-1.165c0.184-0.197,0.369-0.391,0.535-0.603
			c0.139-0.178,0.276-0.357,0.414-0.536c0.073-0.095,0.153-0.189,0.221-0.29c0.752-1.114,1.445-2.263,2.104-3.434
			C36.63,13.959,36.629,13.958,36.627,13.959C36.628,13.958,36.627,13.958,36.627,13.959"/>
		<path opacity="0.9753" fill="#FF9435" d="M27.597,22.669c0,0.005-0.001,0.011-0.002,0.016
			C27.596,22.68,27.597,22.674,27.597,22.669 M16.598,13.099c0.605,1.198,1.218,2.395,1.924,3.537
			c0.638,1.031,1.316,2.035,1.994,3.04c0.537,0.797,1.047,1.61,1.615,2.384c0.293,0.398,0.589,0.794,0.865,1.204
			c0.24,0.355,0.49,0.705,0.688,1.086c0.006,0.018,0.011,0.035,0.016,0.055c0.013,0.352-0.02,0.701-0.035,1.055
			c-0.013,0.322-0.022,0.643-0.026,0.963c-0.009,0.582,0.005,1.16,0.022,1.742c0.035,1.217,0.276,2.42,0.521,3.611
			c0.061,0.297,0.117,0.594,0.164,0.895c0.011,0.084,0.021,0.168,0.029,0.252c0.017,0.145,0.036,0.283,0.066,0.424
			c0.03,0.145,0.193,0.445,0.311,0.539c0.097,0.076,0.188,0.162,0.298,0.221c0.229,0.125,0.437,0.152,0.691,0.182
			c0.323,0.037,0.649,0.02,0.974,0.01c0.256-0.006,0.533,0.01,0.778-0.072c0.207-0.068,0.324-0.137,0.487-0.281
			c0.087-0.076,0.202-0.211,0.248-0.299c0.062-0.119,0.111-0.242,0.158-0.367c0.058-0.15,0.068-0.334,0.088-0.486
			c0.05-0.383,0.042-0.775,0.021-1.16c-0.064-1.166-0.169-2.33-0.265-3.494c-0.081-0.986-0.165-1.971-0.249-2.957
			c-0.04-0.461-0.073-0.924-0.097-1.387c-0.012-0.223-0.017-0.443-0.027-0.666c-0.024-0.526-0.069-1.05-0.112-1.576
			c0-0.002-0.002-0.002-0.003,0c-0.049,0.368-0.095,0.735-0.144,1.103c0.001,0,0.001,0,0.001,0c-0.081,0.596-0.172,1.19-0.24,1.79
			c-0.065,0.568-0.104,1.143-0.15,1.713c-0.096,1.148-0.19,2.295-0.294,3.441c-0.073,0.801-0.145,1.602-0.245,2.4
			c-0.014,0.086-0.029,0.172-0.047,0.258c-0.041-0.004-0.082-0.008-0.123-0.012c-0.078-0.008-0.157-0.016-0.235-0.025
			c-0.039-0.186-0.065-0.375-0.098-0.559c-0.056-0.32-0.107-0.643-0.158-0.963c-0.005-0.041-0.011-0.082-0.017-0.123
			c-0.016-0.115-0.031-0.232-0.047-0.348c-0.03-0.238-0.066-0.475-0.083-0.713c-0.021-0.309-0.042-0.613-0.046-0.922
			c-0.008-0.602,0.014-1.201,0.024-1.801c0.01-0.553,0.022-1.105,0.027-1.66c0.003-0.299-0.019-0.592-0.069-0.889
			c-0.035-0.211-0.121-0.428-0.236-0.607c-0.101-0.158-0.229-0.293-0.359-0.424c-0.194-0.195-0.382-0.397-0.563-0.604
			c-0.368-0.418-0.728-0.843-1.101-1.257c-0.396-0.44-0.784-0.885-1.164-1.339c-0.739-0.886-1.493-1.757-2.254-2.625
			c-0.562-0.642-1.121-1.288-1.666-1.946c-0.635-0.768-1.241-1.558-1.855-2.342c0,0,0,0-0.001,0S16.598,13.098,16.598,13.099"/>
	</g>
	<path fill="#FF9435" d="M12.648,15.899c-0.01,0.93-0.016,1.852,0.056,2.777c0.033,0.441,0.077,0.88,0.122,1.32
		c0.033,0.35,0.068,0.701,0.104,1.05c0.048,0.638,0.104,1.271,0.137,1.909c0.003,0.071,0.007,0.141,0.011,0.211
		c-0.054,0.404-0.104,0.811-0.148,1.217c-0.07,0.633-0.123,1.26-0.163,1.898c-0.018,0.273-0.013,0.555-0.004,0.83
		c0.005,0.205,0.014,0.406,0.032,0.611c0.016,0.178,0.016,0.359,0.059,0.529c0.091,0.354,0.246,0.549,0.463,0.752
		c0.258,0.244,0.721,0.184,0.921-0.166c0.099-0.17,0.202-0.338,0.283-0.527c0.076-0.174,0.122-0.408,0.155-0.609
		c0.065-0.398,0.088-0.828,0.104-1.236c0.036-0.885-0.056-1.777-0.169-2.645c-0.046-0.354-0.109-0.699-0.171-1.047
		c-0.044-0.242-0.081-0.491-0.137-0.729c-0.263-1.11-0.568-2.188-0.896-3.263c-0.069-0.243-0.141-0.484-0.212-0.726
		c-0.209-0.702-0.354-1.445-0.545-2.158c0-0.001-0.001-0.001-0.002-0.001C12.649,15.897,12.648,15.898,12.648,15.899"/>
	<path fill="#FF9435" d="M15.062,21.042c-1.209,0.074-2.415,0.135-3.619,0.274c-0.591,0.068-1.18,0.158-1.765,0.263
		c-0.223,0.039-0.443,0.084-0.666,0.126c-0.131,0.025-0.261,0.054-0.392,0.076c-0.077,0.014-0.153,0.027-0.229,0.042
		c-0.051,0.009-0.102,0.015-0.153,0.022c-0.133,0.021-0.255,0.097-0.378,0.151c-0.151,0.09-0.272,0.21-0.361,0.361
		c-0.092,0.157-0.138,0.327-0.138,0.509c0,0.464,0.311,0.832,0.739,0.972c0.457,0.15,0.961,0.035,1.411-0.09
		c0.192-0.053,0.381-0.121,0.57-0.186c0.217-0.074,0.432-0.152,0.646-0.232c0.587-0.123,1.177-0.23,1.764-0.35
		c0.535-0.109,1.07-0.217,1.602-0.339c0.667-0.153,1.322-0.328,1.978-0.523c1.198-0.356,2.382-0.761,3.557-1.186
		c0.001-0.001,0.001-0.003,0-0.003c-0.256-0.002-0.512-0.004-0.768-0.004C17.593,20.927,16.326,20.963,15.062,21.042"/>
</g>
</svg>
