<?xml version="1.0" encoding="utf-8"?>
<!-- Generator: Adobe Illustrator 15.0.0, SVG Export Plug-In . SVG Version: 6.00 Build 0)  -->
<!DOCTYPE svg PUBLIC "-//W3C//DTD SVG 1.1//EN" "http://www.w3.org/Graphics/SVG/1.1/DTD/svg11.dtd">
<svg version="1.1" id="Capa_1" xmlns="http://www.w3.org/2000/svg" xmlns:xlink="http://www.w3.org/1999/xlink" x="0px" y="0px"
	 width="44px" height="44px" viewBox="0 0 44 44" enable-background="new 0 0 44 44" xml:space="preserve">
<g>
	<g>
		<path fill="#292521" d="M37.318,17.045c-0.188-0.588-0.475-1.145-0.838-1.643c-0.215-0.291-0.438-0.578-0.689-0.84
			c-0.281-0.292-0.625-0.535-0.957-0.765c-0.441-0.304-0.969-0.494-1.473-0.668c-0.025-0.009-0.055-0.017-0.082-0.025
			c-0.037-0.271-0.123-0.532-0.271-0.771c-0.562-0.896-1.672-1.205-2.664-0.975c-0.555,0.127-1.016,0.486-1.463,0.815
			c-0.23,0.168-0.463,0.319-0.711,0.454c-0.336,0.011-0.672,0.029-1.006,0.058c-0.203-0.171-0.398-0.354-0.572-0.555
			c-0.053-0.078-0.102-0.158-0.152-0.238c-0.143-0.229-0.312-0.403-0.535-0.559c-0.215-0.15-0.521-0.193-0.789-0.193
			c-0.033,0-0.066,0-0.1,0.002c-0.334,0.013-0.699,0.138-0.908,0.408c-0.232,0.297-0.279,0.687-0.248,1.06
			c-0.24,0.229-0.428,0.51-0.547,0.823c-0.328,0.093-0.656,0.187-0.984,0.273c-0.135,0.144-0.26,0.298-0.385,0.45
			c-0.318,0.437-0.617,0.882-0.893,1.349c-0.01,0.017-0.02,0.032-0.029,0.05c-0.188,0.463-0.369,0.93-0.531,1.402
			c-0.086,0.256-0.178,0.51-0.25,0.77c0,0,0,0-0.002,0c-0.008,0.032-0.018,0.065-0.025,0.098c-0.001,0.006-0.003,0.011-0.004,0.016
			c0,0.002-0.001,0.004-0.001,0.007c-0.003,0.009-0.005,0.017-0.007,0.024l0,0c-0.025,0.106-0.049,0.213-0.069,0.318
			c0,0,0,0-0.001,0c-0.001,0.008-0.003,0.018-0.005,0.025c0,0,0,0.001,0.001,0.001c-0.01,0.05-0.02,0.101-0.028,0.149
			c-0.022,0.263-0.043,0.527-0.055,0.793c0,0.004,0,0.011,0.001,0.016c0-0.004,0-0.008-0.001-0.012c0,0.004,0,0.007,0,0.01
			c0.014,0.104,0.03,0.205,0.049,0.307c0.106,0.563,0.258,1.109,0.465,1.644c0.078,0.173,0.16,0.345,0.246,0.515
			c0.138,0.222,0.278,0.44,0.418,0.658c0.169,0.264,0.347,0.521,0.529,0.777c0.413,0.452,0.872,0.867,1.344,1.255
			c0.025,0.019,0.051,0.037,0.076,0.056c0.057,0.032,0.113,0.064,0.174,0.094c0.121,0.062,0.26,0.103,0.369,0.183
			c0.248,0.146,0.443,0.343,0.59,0.59c0.029,0.066,0.057,0.135,0.086,0.202c0.029,0.004,0.061,0.008,0.09,0.012
			c0.471,0.23,0.953,0.438,1.445,0.618c0.225,0.082,0.453,0.152,0.682,0.218c0.043,0.119,0.09,0.237,0.139,0.354
			c0.172,0.413,0.398,0.792,0.766,1.062c0.199,0.145,0.416,0.237,0.66,0.269c0.264,0.032,0.508-0.058,0.738-0.18
			c0.277-0.146,0.434-0.384,0.516-0.653c0.178,0.005,0.355,0.002,0.533-0.004c0.002,0,0.004-0.003,0.002-0.004
			c-0.162-0.066-0.324-0.131-0.488-0.188c0.008-0.052,0.016-0.104,0.02-0.155c0.707,0.074,1.438,0.116,2.15,0.055
			c0.023,0.021,0.047,0.041,0.07,0.062c0.377,0.35,0.723,0.73,1.064,1.111c0.164,0.183,0.326,0.363,0.494,0.54
			c0.08,0.087,0.158,0.173,0.236,0.259c0.062,0.066,0.125,0.134,0.188,0.199c0.207,0.215,0.457,0.344,0.74,0.422
			c0.311,0.086,0.648,0.042,0.928-0.121c0.242-0.144,0.508-0.43,0.553-0.721c0.039-0.252,0.078-0.441,0.01-0.694
			c-0.053-0.191-0.203-0.454-0.352-0.591c-0.117-0.108-0.238-0.212-0.365-0.312c-0.016-0.012-0.029-0.023-0.045-0.034
			c-0.266-0.368-0.529-0.739-0.805-1.103c1.529-1.139,2.365-3.101,2.836-4.919c0.162-0.633,0.264-1.29,0.33-1.939
			C37.592,18.357,37.52,17.671,37.318,17.045z M28.738,26.746c-0.094-0.02-0.188-0.035-0.283-0.055
			c-0.115-0.021-0.229-0.046-0.344-0.07c0.213,0.032,0.428,0.062,0.641,0.089c-0.004,0.011-0.008,0.021-0.01,0.031
			C28.74,26.743,28.74,26.744,28.738,26.746z"/>
		<path fill="#292521" d="M21.013,15.57c-0.028,0.069-0.059,0.139-0.087,0.209C20.956,15.709,20.985,15.64,21.013,15.57
			L21.013,15.57z"/>
		<path fill="#292521" d="M27.117,28.15c-1.283,0-2.354,1.07-2.354,2.354s1.07,2.354,2.354,2.354s2.354-1.07,2.354-2.354
			S28.4,28.15,27.117,28.15z"/>
	</g>
	<g>
		<path fill="#292521" d="M11.738,13.368c-0.01,0.93-0.016,1.852,0.056,2.777c0.033,0.441,0.077,0.88,0.122,1.32
			c0.033,0.35,0.068,0.701,0.104,1.05c0.048,0.638,0.104,1.271,0.137,1.909c0.003,0.071,0.007,0.141,0.011,0.211
			c-0.054,0.404-0.104,0.811-0.148,1.217c-0.07,0.633-0.123,1.26-0.163,1.898c-0.018,0.273-0.013,0.555-0.004,0.83
			c0.005,0.205,0.014,0.406,0.032,0.611c0.016,0.178,0.016,0.359,0.059,0.529c0.091,0.354,0.246,0.549,0.463,0.752
			c0.258,0.244,0.721,0.184,0.921-0.166c0.099-0.17,0.202-0.338,0.283-0.527c0.076-0.174,0.122-0.408,0.155-0.609
			c0.065-0.398,0.088-0.828,0.104-1.236c0.036-0.885-0.056-1.777-0.169-2.645c-0.046-0.354-0.109-0.699-0.171-1.047
			c-0.044-0.242-0.081-0.491-0.137-0.729c-0.263-1.11-0.568-2.188-0.896-3.263c-0.069-0.243-0.141-0.484-0.212-0.726
			c-0.209-0.702-0.354-1.445-0.545-2.158c0-0.001-0.001-0.001-0.002-0.001C11.739,13.366,11.738,13.367,11.738,13.368"/>
		<path fill="#292521" d="M14.151,18.511c-1.209,0.074-2.415,0.135-3.619,0.274c-0.591,0.068-1.18,0.158-1.765,0.263
			c-0.223,0.039-0.443,0.084-0.666,0.126C7.97,19.2,7.84,19.228,7.709,19.25c-0.077,0.014-0.153,0.027-0.229,0.042
			c-0.051,0.009-0.102,0.015-0.153,0.022c-0.133,0.021-0.255,0.097-0.378,0.151c-0.151,0.09-0.272,0.21-0.361,0.361
			c-0.092,0.157-0.138,0.327-0.138,0.509c0,0.464,0.311,0.832,0.739,0.972c0.457,0.15,0.961,0.035,1.411-0.09
			c0.192-0.053,0.381-0.121,0.57-0.186c0.217-0.074,0.432-0.152,0.646-0.232c0.587-0.123,1.177-0.23,1.764-0.35
			c0.535-0.109,1.07-0.217,1.602-0.339c0.667-0.153,1.322-0.328,1.978-0.523c1.198-0.356,2.382-0.761,3.557-1.186
			c0.001-0.001,0.001-0.003,0-0.003c-0.256-0.002-0.512-0.004-0.768-0.004C16.682,18.396,15.416,18.432,14.151,18.511"/>
	</g>
</g>
</svg>
