<?xml version="1.0" encoding="utf-8"?>
<!-- Generator: Adobe Illustrator 15.0.0, SVG Export Plug-In . SVG Version: 6.00 Build 0)  -->
<!DOCTYPE svg PUBLIC "-//W3C//DTD SVG 1.1//EN" "http://www.w3.org/Graphics/SVG/1.1/DTD/svg11.dtd">
<svg version="1.1" xmlns="http://www.w3.org/2000/svg" xmlns:xlink="http://www.w3.org/1999/xlink" x="0px" y="0px" width="44px"
	 height="44px" viewBox="0 0 44 44" enable-background="new 0 0 44 44" xml:space="preserve">
<g id="Capa_2_1_">
</g>
<g id="Capa_1">
</g>
<g id="Capa_3">
	<path fill="#FFFFFF" d="M19.76,9.836c-0.019,1.624-0.033,3.236,0.11,4.854c0.067,0.769,0.155,1.538,0.244,2.307
		c0.066,0.612,0.134,1.225,0.207,1.837c0.095,1.113,0.208,2.218,0.271,3.334c0.006,0.123,0.013,0.245,0.021,0.368
		c-0.106,0.708-0.206,1.417-0.295,2.128c-0.138,1.104-0.244,2.204-0.323,3.316c-0.034,0.478-0.024,0.972-0.009,1.453
		c0.012,0.358,0.028,0.712,0.065,1.068c0.032,0.31,0.031,0.626,0.117,0.923c0.179,0.617,0.489,0.961,0.918,1.317
		c0.513,0.426,1.431,0.32,1.831-0.291c0.195-0.298,0.4-0.589,0.562-0.919c0.152-0.308,0.243-0.717,0.31-1.067
		c0.13-0.698,0.174-1.448,0.206-2.163c0.071-1.545-0.111-3.102-0.336-4.621c-0.091-0.616-0.217-1.223-0.341-1.829
		c-0.085-0.424-0.158-0.859-0.271-1.274c-0.521-1.94-1.127-3.826-1.779-5.705c-0.139-0.423-0.279-0.845-0.421-1.267
		c-0.416-1.228-0.704-2.525-1.083-3.771c0-0.001-0.001-0.003-0.002-0.003C19.761,9.832,19.76,9.833,19.76,9.836"/>
	<path fill="#FFFFFF" d="M24.554,20.052c-2.402,0.15-4.798,0.269-7.191,0.545c-1.173,0.136-2.343,0.316-3.505,0.521
		c-0.443,0.079-0.882,0.168-1.323,0.253c-0.259,0.049-0.519,0.104-0.779,0.149c-0.152,0.027-0.303,0.055-0.454,0.083
		c-0.102,0.019-0.203,0.029-0.304,0.046c-0.266,0.042-0.507,0.192-0.752,0.301c-0.301,0.179-0.542,0.417-0.719,0.719
		c-0.181,0.312-0.272,0.648-0.273,1.011c0,0.924,0.617,1.65,1.471,1.931c0.907,0.299,1.908,0.069,2.802-0.178
		c0.383-0.106,0.757-0.241,1.133-0.371c0.431-0.146,0.858-0.302,1.284-0.46c1.166-0.243,2.338-0.456,3.505-0.695
		c1.062-0.218,2.125-0.432,3.181-0.675c1.325-0.304,2.627-0.651,3.93-1.039c2.38-0.708,4.731-1.512,7.065-2.355
		c0.003-0.001,0.003-0.005-0.001-0.005c-0.507-0.005-1.016-0.009-1.524-0.009C29.582,19.824,27.066,19.896,24.554,20.052"/>
</g>
</svg>
