<?xml version="1.0" encoding="utf-8"?>
<!-- Generator: Adobe Illustrator 15.0.0, SVG Export Plug-In . SVG Version: 6.00 Build 0)  -->
<!DOCTYPE svg PUBLIC "-//W3C//DTD SVG 1.1//EN" "http://www.w3.org/Graphics/SVG/1.1/DTD/svg11.dtd">
<svg version="1.1" id="Capa_1" xmlns="http://www.w3.org/2000/svg" xmlns:xlink="http://www.w3.org/1999/xlink" x="0px" y="0px"
	 width="44px" height="44px" viewBox="0 0 44 44" enable-background="new 0 0 44 44" xml:space="preserve">
<g>
	<path fill="#292521" d="M9.997,16.91c-0.01,0.93-0.016,1.852,0.057,2.777c0.032,0.441,0.077,0.88,0.122,1.32
		c0.032,0.35,0.067,0.701,0.104,1.05c0.048,0.638,0.104,1.271,0.137,1.91c0.003,0.07,0.008,0.141,0.012,0.211
		c-0.055,0.404-0.104,0.811-0.148,1.217c-0.07,0.633-0.123,1.26-0.163,1.898c-0.018,0.273-0.013,0.555-0.004,0.83
		c0.005,0.205,0.014,0.406,0.032,0.611c0.016,0.178,0.016,0.357,0.059,0.527c0.091,0.355,0.246,0.549,0.463,0.752
		c0.259,0.244,0.722,0.186,0.921-0.166c0.1-0.17,0.202-0.338,0.283-0.525c0.076-0.176,0.122-0.408,0.155-0.609
		c0.065-0.398,0.088-0.828,0.104-1.236c0.036-0.885-0.056-1.777-0.169-2.645c-0.046-0.355-0.108-0.699-0.171-1.047
		c-0.044-0.242-0.081-0.492-0.137-0.73c-0.263-1.109-0.568-2.188-0.896-3.262c-0.069-0.243-0.142-0.484-0.213-0.726
		c-0.209-0.702-0.354-1.445-0.545-2.158c0-0.001-0.001-0.001-0.002-0.001C9.998,16.908,9.997,16.909,9.997,16.91"/>
	<path fill="#292521" d="M12.411,22.053c-1.209,0.074-2.415,0.135-3.619,0.274c-0.591,0.068-1.18,0.158-1.765,0.263
		c-0.223,0.039-0.443,0.084-0.666,0.126C6.23,22.741,6.101,22.77,5.97,22.792c-0.077,0.014-0.153,0.027-0.229,0.042
		c-0.051,0.009-0.102,0.015-0.153,0.022c-0.133,0.021-0.255,0.097-0.378,0.151c-0.15,0.09-0.271,0.209-0.36,0.36
		c-0.092,0.157-0.139,0.327-0.139,0.509c0,0.465,0.312,0.832,0.739,0.973C5.906,25,6.41,24.885,6.86,24.76
		c0.192-0.053,0.381-0.121,0.57-0.186c0.217-0.074,0.432-0.152,0.646-0.232c0.587-0.123,1.177-0.23,1.765-0.35
		c0.534-0.109,1.069-0.217,1.602-0.34c0.667-0.153,1.322-0.328,1.978-0.523c1.199-0.355,2.383-0.761,3.558-1.186
		c0.001-0.001,0.001-0.003,0-0.003c-0.256-0.002-0.512-0.004-0.769-0.004C14.942,21.938,13.676,21.974,12.411,22.053"/>
	<g>
		<path fill="#292521" d="M28.289,9.615c0.072,0.614,0.168,1.215,0.309,1.817c0.087,0.371,0.193,0.738,0.285,1.108
			c0.184,0.753,0.363,1.506,0.561,2.255c0.206,0.79,0.447,1.562,0.743,2.323c0.332,0.854,0.717,1.685,1.139,2.498
			c0.378,0.731,0.778,1.453,1.187,2.168c0.378,0.664,0.745,1.333,1.146,1.981c0.887,1.432,1.871,2.797,2.892,4.137
			c0.263,0.346,0.528,0.689,0.799,1.029c0.001,0.002,0.004,0,0.004,0c-0.691-2.193-1.496-4.346-2.387-6.464
			c0.014,0.034,0.027,0.069,0.043,0.103c-0.35-0.86-0.716-1.709-1.122-2.543c-0.356-0.729-0.768-1.434-1.181-2.132
			c-0.381-0.642-0.745-1.295-1.085-1.959c-0.376-0.739-0.722-1.489-1.074-2.239c-0.276-0.584-0.565-1.176-0.898-1.731
			c-0.175-0.292-0.354-0.583-0.527-0.875c-0.288-0.486-0.553-0.983-0.827-1.478h-0.001C28.289,9.613,28.289,9.613,28.289,9.615"/>
		<path fill="#292521" d="M23.204,13.219c0.106,0.627,0.244,1.248,0.352,1.874c0.067,0.398,0.123,0.799,0.188,1.197
			c0.128,0.781,0.231,1.564,0.409,2.338c0.371,1.613,0.883,3.189,1.519,4.719c0.327,0.789,0.734,1.535,1.153,2.279
			c0.402,0.713,0.813,1.43,1.263,2.117c0.227,0.346,0.457,0.691,0.692,1.033c0.273,0.395,0.538,0.797,0.839,1.17
			c0.271,0.336,0.548,0.668,0.825,0.998c0.241,0.283,0.522,0.541,0.786,0.803c0.429,0.426,0.866,0.842,1.312,1.252
			c0.001,0.002,0.003,0,0.002-0.002c-0.378-0.793-0.762-1.584-1.158-2.367c-0.242-0.477-0.444-0.973-0.668-1.461
			c-0.637-1.557-1.321-3.102-2.062-4.613c-0.687-1.402-1.399-2.792-2.062-4.206c-0.25-0.535-0.502-1.068-0.756-1.602
			c-0.22-0.461-0.41-0.938-0.613-1.407c-0.25-0.631-0.514-1.256-0.795-1.873c-0.357-0.784-0.77-1.521-1.222-2.253
			c0,0,0-0.001-0.001-0.001C23.205,13.215,23.204,13.217,23.204,13.219"/>
		<path fill="#292521" d="M18.213,17.378c0.14,0.482,0.309,0.956,0.419,1.447c0.043,0.193,0.087,0.389,0.14,0.58
			c0.103,0.365,0.213,0.727,0.334,1.086c0.251,0.744,0.533,1.478,0.796,2.217c0.282,0.797,0.565,1.594,0.86,2.385
			c0.147,0.4,0.271,0.811,0.421,1.211c0.129,0.342,0.26,0.688,0.395,1.027c0.117,0.295,0.238,0.588,0.362,0.881
			c-0.032-0.074-0.062-0.146-0.094-0.221c0.325,0.771,0.663,1.535,1.051,2.277c0.293,0.561,0.613,1.098,0.974,1.617
			c0.62,0.896,1.366,1.705,2.105,2.5c0.002,0,0.004,0,0.003-0.002c-0.395-1.061-0.834-2.104-1.2-3.176
			c-0.204-0.596-0.377-1.201-0.562-1.803c-0.215-0.697-0.42-1.398-0.646-2.094c-0.302-0.932-0.648-1.836-1.042-2.73
			c-0.312-0.715-0.691-1.404-1.079-2.081c-0.417-0.73-0.869-1.442-1.313-2.158c-0.231-0.373-0.463-0.745-0.687-1.123
			c-0.107-0.184-0.209-0.372-0.312-0.559c-0.255-0.469-0.595-0.873-0.926-1.287h-0.001C18.214,17.376,18.213,17.377,18.213,17.378"
			/>
		<path fill="#292521" d="M37.348,13.957c-3.33,0.836-6.618,1.867-9.797,3.169c-1.59,0.649-3.079,1.481-4.562,2.342
			c-0.671,0.39-1.322,0.798-1.959,1.244c-0.677,0.474-1.322,0.989-1.973,1.5c-0.11,0.086-0.218,0.174-0.325,0.264
			c-0.305,0.259-0.543,0.603-0.795,0.91c-0.001,0.002,0,0.004,0.002,0.002c0.327-0.174,0.646-0.369,0.983-0.524
			c0.363-0.148,0.732-0.285,1.095-0.438c-0.021,0.009-0.043,0.02-0.065,0.027c0.398-0.162,0.794-0.327,1.188-0.498
			c0.738-0.297,1.472-0.594,2.22-0.862c0.714-0.258,1.417-0.541,2.124-0.819c1.575-0.617,3.15-1.246,4.678-1.977
			c2.532-1.211,4.912-2.697,7.188-4.336C37.352,13.958,37.35,13.957,37.348,13.957L37.348,13.957"/>
		<path fill="#292521" d="M32.476,20.027c-1.466,0.481-2.974,0.824-4.443,1.295c-1.643,0.525-3.229,1.203-4.734,2.043
			c-1.371,0.766-2.679,1.639-4.03,2.436c-0.104,0.061-0.209,0.117-0.312,0.182c-0.237,0.145-0.441,0.361-0.649,0.547
			c-0.001,0,0,0.002,0.002,0.002c0.257-0.086,0.509-0.186,0.769-0.262c0.108-0.031,0.227-0.045,0.336-0.068
			c0.184-0.037,0.364-0.082,0.546-0.131c0.396-0.105,0.794-0.221,1.188-0.336c0.73-0.215,1.456-0.449,2.176-0.695
			c0.789-0.271,1.579-0.535,2.373-0.791c0.711-0.229,1.435-0.422,2.15-0.637c1.662-0.498,3.302-1.105,4.864-1.86
			c0.689-0.334,1.349-0.748,2.003-1.147c0.743-0.454,1.477-0.925,2.199-1.409c0.303-0.201,0.602-0.406,0.899-0.613
			c0.002,0,0.001-0.002-0.002-0.002C36.007,18.975,34.229,19.451,32.476,20.027"/>
		<path fill="#292521" d="M39.289,22.83c-1.776,0.422-3.524,0.938-5.288,1.413c-1.579,0.424-3.149,0.875-4.729,1.301
			c-0.795,0.215-1.588,0.451-2.373,0.703c-0.842,0.271-1.661,0.598-2.475,0.945c-1.447,0.615-2.812,1.398-4.143,2.23
			c-0.18,0.113-0.361,0.221-0.544,0.33c-0.429,0.256-0.889,0.443-1.339,0.656c-0.001,0-0.001,0.004,0.001,0.004
			c0.445-0.023,0.896-0.031,1.332-0.127c0.201-0.045,0.399-0.092,0.597-0.146c0.385-0.105,0.766-0.219,1.146-0.33
			c0.734-0.217,1.464-0.447,2.205-0.641c0.765-0.197,1.53-0.396,2.299-0.578c0.801-0.191,1.605-0.363,2.409-0.545
			c1.67-0.381,3.28-0.975,4.845-1.664c1.46-0.645,2.841-1.436,4.182-2.299c0.633-0.406,1.257-0.824,1.875-1.25
			C39.292,22.832,39.291,22.83,39.289,22.83L39.289,22.83"/>
	</g>
</g>
</svg>
