<?xml version="1.0" encoding="utf-8"?>
<!-- Generator: Adobe Illustrator 15.0.0, SVG Export Plug-In . SVG Version: 6.00 Build 0)  -->
<!DOCTYPE svg PUBLIC "-//W3C//DTD SVG 1.1//EN" "http://www.w3.org/Graphics/SVG/1.1/DTD/svg11.dtd">
<svg version="1.1" id="Capa_1" xmlns="http://www.w3.org/2000/svg" xmlns:xlink="http://www.w3.org/1999/xlink" x="0px" y="0px"
	 width="45px" height="45px" viewBox="-0.5 -0.5 45 45" enable-background="new -0.5 -0.5 45 45" xml:space="preserve">
<path opacity="0.9753" fill="#292521" d="M22.595,17.998c0.316,0.047,0.623,0.133,0.92,0.253c0.162,0.07,0.315,0.153,0.466,0.242
	c-0.166-0.061-0.334-0.114-0.509-0.15c-0.076-0.016-0.152-0.026-0.229-0.037c-0.077-0.011-0.157-0.026-0.235-0.032
	c-0.122-0.009-0.245-0.02-0.368-0.023c-0.232-0.008-0.466-0.008-0.699,0.007c-0.551,0.036-1.101,0.09-1.65,0.143
	c-0.001,0-0.001,0.001,0,0.001c0.545,0.068,1.092,0.131,1.637,0.2c0.502,0.078,1.002,0.171,1.475,0.362
	c0.177,0.078,0.351,0.171,0.514,0.275c0.124,0.079,0.245,0.161,0.365,0.246c0.039,0.032,0.079,0.064,0.118,0.096
	c0.053,0.042,0.1,0.093,0.149,0.139c0.097,0.089,0.181,0.193,0.267,0.292c0.139,0.188,0.267,0.381,0.365,0.594
	c0.055,0.14,0.099,0.281,0.126,0.429c0.025,0.294-0.007,0.595-0.026,0.889c-0.011,0.163-0.029,0.325-0.049,0.486
	c-0.035,0.213-0.07,0.426-0.13,0.635c-0.077,0.272-0.163,0.541-0.269,0.803c-0.171,0.384-0.393,0.745-0.645,1.081
	c-0.221,0.273-0.474,0.511-0.748,0.729c-0.242,0.181-0.5,0.341-0.775,0.466c-0.194,0.076-0.394,0.131-0.599,0.164
	c-0.397,0.046-0.806,0.042-1.203-0.001c-0.16-0.017-0.319-0.033-0.479-0.051c-0.206-0.031-0.41-0.071-0.612-0.125
	c-0.217-0.058-0.43-0.132-0.638-0.216c-0.311-0.137-0.605-0.297-0.879-0.499c-0.181-0.146-0.349-0.303-0.496-0.482
	c-0.167-0.228-0.31-0.474-0.426-0.73c-0.112-0.286-0.185-0.584-0.23-0.887c-0.067-0.58-0.037-1.171,0.036-1.75
	c0.058-0.396,0.153-0.783,0.302-1.155c0.147-0.331,0.334-0.637,0.552-0.925c0.226-0.284,0.477-0.551,0.759-0.78
	c0.2-0.143,0.412-0.267,0.637-0.367c0.196-0.079,0.397-0.143,0.601-0.196c0.22-0.058,0.443-0.095,0.667-0.126
	C21.297,17.918,21.954,17.92,22.595,17.998 M20.883,17.175c-0.876,0.001-1.766,0.268-2.475,0.788
	c-0.338,0.249-0.635,0.542-0.904,0.863c-0.276,0.329-0.53,0.682-0.733,1.061c-0.205,0.383-0.355,0.797-0.453,1.219
	c-0.101,0.435-0.153,0.884-0.18,1.33c-0.013,0.203-0.017,0.407-0.007,0.611c0.012,0.25,0.045,0.5,0.089,0.745
	c0.079,0.433,0.237,0.844,0.449,1.228c0.205,0.37,0.468,0.707,0.788,0.984c0.326,0.283,0.687,0.519,1.078,0.699
	c0.389,0.181,0.791,0.331,1.209,0.43c0.283,0.065,0.57,0.1,0.858,0.132c0.701,0.08,1.426,0.116,2.112-0.084
	c0.422-0.123,0.816-0.341,1.175-0.593c0.353-0.248,0.685-0.531,0.966-0.858c0.289-0.336,0.538-0.713,0.744-1.105
	c0.146-0.276,0.26-0.569,0.362-0.865c0.05-0.146,0.094-0.291,0.137-0.439c0.038-0.126,0.071-0.257,0.094-0.387
	c0.057-0.32,0.109-0.643,0.126-0.968c0.009-0.16,0.015-0.319,0.018-0.479c0.005-0.206-0.011-0.406-0.041-0.61
	c-0.035-0.231-0.134-0.451-0.235-0.659c-0.085-0.175-0.199-0.333-0.321-0.485c-0.046-0.058-0.09-0.12-0.141-0.174
	c-0.097-0.104-0.193-0.209-0.303-0.302c-0.078-0.066-0.155-0.135-0.238-0.195c-0.055-0.041-0.109-0.086-0.167-0.123
	c-0.018-0.011-0.034-0.022-0.052-0.033c-0.16-0.167-0.322-0.332-0.486-0.495c-0.283-0.281-0.595-0.521-0.948-0.708
	c-0.177-0.093-0.363-0.171-0.554-0.236c-0.202-0.068-0.412-0.114-0.621-0.157c-0.438-0.09-0.889-0.135-1.336-0.135
	C20.889,17.175,20.886,17.175,20.883,17.175"/>
<path opacity="0.9753" fill="#292521" d="M28.869,27.443c0.006,0.003,0.012,0.006,0.018,0.008
	C28.881,27.449,28.875,27.446,28.869,27.443 M28.339,26.591c0.261,0.324,0.525,0.645,0.796,0.962
	c-0.094-0.038-0.187-0.076-0.279-0.115c-0.035-0.015-0.069-0.029-0.104-0.044c-0.137-0.062-0.271-0.127-0.404-0.193
	c-0.153-0.075-0.305-0.155-0.445-0.252c-0.138-0.112-0.263-0.239-0.395-0.358c0,0-0.001,0-0.001,0.001
	c0.093,0.155,0.178,0.315,0.283,0.463c0.054,0.074,0.125,0.139,0.189,0.204c0.1,0.1,0.211,0.188,0.319,0.276
	c0.217,0.181,0.452,0.34,0.689,0.49c0.255,0.161,0.513,0.317,0.766,0.479c0.243,0.155,0.477,0.322,0.713,0.488
	c0.101,0.07,0.196,0.147,0.294,0.222c0.211,0.174,0.422,0.348,0.635,0.519c0.132,0.106,0.265,0.214,0.401,0.314
	c0.064,0.049,0.129,0.097,0.194,0.144c0.069,0.05,0.144,0.095,0.218,0.137c0.077,0.044,0.179,0.07,0.268,0.07
	c0.087,0,0.167-0.021,0.241-0.065c0.038-0.028,0.075-0.058,0.112-0.087c0.094-0.075,0.14-0.223,0.14-0.337
	c-0.006-0.043-0.011-0.085-0.017-0.127c-0.022-0.081-0.063-0.151-0.123-0.211c-0.093-0.118-0.224-0.203-0.346-0.289
	c-0.057-0.04-0.115-0.076-0.173-0.113c-0.12-0.077-0.243-0.151-0.365-0.226c-0.159-0.098-0.324-0.184-0.489-0.271
	c-0.109-0.071-0.22-0.141-0.333-0.206c-0.175-0.102-0.351-0.198-0.53-0.288c-0.034-0.022-0.068-0.045-0.103-0.067
	c-0.254-0.17-0.502-0.347-0.753-0.521c-0.186-0.13-0.365-0.269-0.549-0.4C28.907,26.986,28.624,26.787,28.339,26.591L28.339,26.591
	C28.339,26.59,28.339,26.591,28.339,26.591"/>
<path opacity="0.9753" fill="#292521" d="M14.025,15.818c0.014,0.01,0.027,0.021,0.041,0.031
	C14.053,15.838,14.039,15.828,14.025,15.818 M10.864,12.748c-0.097,0.097-0.153,0.231-0.153,0.369c0,0.128,0.052,0.282,0.153,0.369
	c0.104,0.089,0.194,0.193,0.298,0.283c0.108,0.093,0.217,0.187,0.328,0.277c0.244,0.198,0.484,0.399,0.729,0.597
	c0.248,0.201,0.501,0.395,0.755,0.587c0.226,0.171,0.468,0.324,0.706,0.478c0.19,0.122,0.383,0.239,0.581,0.349
	c0.109,0.061,0.216,0.125,0.323,0.19c0.531,0.403,1.068,0.798,1.611,1.186c0,0,0.001,0,0.001-0.001
	c-0.13-0.158-0.261-0.316-0.392-0.474c0.204,0.129,0.399,0.271,0.6,0.405c0,0,0.001,0,0-0.001c-0.2-0.234-0.393-0.476-0.616-0.689
	c-0.104-0.1-0.21-0.196-0.317-0.294c-0.201-0.184-0.404-0.365-0.607-0.546c-0.042-0.037-0.083-0.074-0.125-0.11
	c-0.383-0.427-0.769-0.854-1.191-1.244c-0.318-0.293-0.634-0.589-0.952-0.883c-0.152-0.141-0.301-0.285-0.457-0.421
	c-0.162-0.142-0.336-0.268-0.508-0.398c-0.01-0.009-0.02-0.018-0.03-0.026c-0.104-0.094-0.225-0.153-0.369-0.153
	C11.095,12.595,10.961,12.651,10.864,12.748"/>
<path opacity="0.9753" fill="#292521" d="M17.027,27.978c-0.203,0.144-0.412,0.281-0.603,0.44c-0.051,0.042-0.102,0.084-0.153,0.126
	c-0.238,0.102-0.474,0.206-0.709,0.313c-0.519,0.237-1.022,0.511-1.51,0.804c-0.385,0.231-0.755,0.484-1.116,0.751
	c-0.202,0.149-0.404,0.298-0.609,0.443c-0.112,0.08-0.225,0.164-0.339,0.242c-0.017,0.01-0.033,0.019-0.05,0.028
	c-0.062,0.034-0.12,0.073-0.177,0.115c-0.002,0.001-0.004,0.002-0.006,0.004h0c-0.035,0.025-0.068,0.052-0.103,0.079
	c-0.062,0.062-0.106,0.138-0.13,0.223c-0.036,0.131-0.018,0.273,0.051,0.391c0.134,0.229,0.462,0.334,0.693,0.182
	c0.079-0.052,0.157-0.105,0.234-0.16c0.084-0.054,0.169-0.106,0.251-0.163c0.176-0.119,0.35-0.242,0.521-0.37
	c0.348-0.261,0.686-0.535,1.025-0.807c0.08-0.061,0.159-0.122,0.237-0.184c0.393-0.298,0.783-0.599,1.151-0.925
	c0.135-0.119,0.263-0.244,0.386-0.374c0.006-0.004,0.012-0.009,0.018-0.013c0.523-0.379,1.047-0.757,1.564-1.146
	c0,0,0-0.001,0-0.001c-0.312,0.123-0.623,0.248-0.933,0.377C16.822,28.229,16.927,28.104,17.027,27.978
	C17.029,27.979,17.028,27.978,17.027,27.978C17.028,27.978,17.028,27.978,17.027,27.978"/>
<path opacity="0.9753" fill="#292521" d="M22.1,35.45c0.001,0.004,0.003,0.008,0.005,0.013C22.104,35.458,22.102,35.454,22.1,35.45
	 M21.538,28.811c-0.138,0.714-0.264,1.428-0.359,2.148c-0.021,0.158-0.029,0.318-0.042,0.478c-0.012,0.147-0.017,0.297-0.024,0.444
	c-0.014,0.291-0.012,0.583-0.014,0.873c-0.003,0.44-0.026,0.88-0.023,1.319c0.001,0.237,0.006,0.474,0.01,0.71
	c0.002,0.131,0.004,0.261,0.007,0.391c0.004,0.2-0.006,0.407,0.06,0.6c0.043,0.127,0.113,0.231,0.231,0.301
	c0.111,0.065,0.263,0.093,0.388,0.051c0.057-0.02,0.113-0.042,0.166-0.07c0.089-0.049,0.149-0.127,0.199-0.212
	c0.058-0.1,0.076-0.218,0.096-0.328c0.026-0.141,0.04-0.283,0.052-0.426c0.013-0.153,0.018-0.305,0.021-0.459
	c0.007-0.287-0.003-0.575-0.014-0.862c-0.022-0.565-0.064-1.13-0.111-1.694c-0.028-0.337-0.06-0.674-0.093-1.01
	c-0.015-0.151-0.03-0.304-0.046-0.455c-0.007-0.067-0.014-0.136-0.021-0.203c-0.013-0.126-0.037-0.255-0.03-0.383
	c0.035-0.225,0.116-0.437,0.173-0.656c0-0.001-0.001-0.001-0.001,0c-0.095,0.161-0.202,0.315-0.288,0.482
	c-0.037,0.072-0.069,0.147-0.084,0.227c-0.014,0.069-0.019,0.141-0.027,0.211c-0.017,0.155-0.033,0.312-0.05,0.467
	c-0.008,0.076-0.015,0.152-0.023,0.229c-0.012-0.15-0.022-0.3-0.033-0.45c-0.04-0.573-0.073-1.146-0.119-1.72
	C21.54,28.811,21.539,28.811,21.538,28.811L21.538,28.811"/>
<path opacity="0.9753" fill="#292521" d="M7.997,21.446c-0.065,0.001-0.131,0.002-0.196,0.007c-0.158,0.011-0.336,0.008-0.471,0.102
	c-0.079,0.047-0.142,0.11-0.188,0.189c-0.071,0.122-0.09,0.27-0.053,0.406c0.06,0.217,0.275,0.397,0.508,0.386
	c0.585-0.027,1.171,0.001,1.756,0.021c0.301,0.01,0.602,0.021,0.902,0.023c0.265,0.003,0.528-0.003,0.792-0.01
	c0.567-0.016,1.131-0.053,1.696-0.098c0.666-0.052,1.331-0.113,1.995-0.183c0,0,0.001-0.001,0-0.001
	c-0.456-0.07-0.913-0.136-1.371-0.196c0.105-0.011,0.21-0.023,0.315-0.036c0.309-0.039,0.612-0.118,0.916-0.183
	c0.001,0,0-0.001,0-0.001c-0.336-0.018-0.672-0.021-1.007-0.055c-0.137-0.015-0.275-0.031-0.412-0.045
	c-0.293-0.03-0.586-0.059-0.879-0.085c-0.581-0.053-1.163-0.1-1.745-0.14c-0.476-0.033-0.952-0.06-1.428-0.078
	c-0.266-0.011-0.532-0.019-0.798-0.022c-0.057,0-0.114-0.001-0.17-0.001C8.105,21.444,8.051,21.444,7.997,21.446"/>
<path opacity="0.9753" fill="#292521" d="M21.49,8.019c-0.049,0.216-0.043,0.448-0.041,0.669c0.001,0.139,0.003,0.279,0.007,0.418
	c0.008,0.314,0.021,0.629,0.037,0.943c0.028,0.563,0.065,1.126,0.108,1.688c0.039,0.519,0.083,1.037,0.131,1.555
	c0.024,0.256,0.049,0.512,0.076,0.769c0.013,0.126,0.027,0.252,0.042,0.378c0.011,0.091,0.021,0.183,0.031,0.274
	c0.022,0.193,0.09,0.381,0.142,0.567c0,0.001,0.001,0,0.001,0c-0.001-0.207-0.017-0.414,0.008-0.62
	c0.01-0.08,0.019-0.161,0.028-0.241c0.01-0.092,0.021-0.184,0.03-0.275c0.046,0.217,0.093,0.434,0.14,0.65c0,0,0.001,0,0.001,0
	c0.038-0.74,0.065-1.48,0.091-2.221c0.021-0.572,0.059-1.144,0.091-1.715c0.025-0.449,0.049-0.897,0.071-1.346
	c0.01-0.214,0.021-0.429,0.031-0.644c0.005-0.105,0.01-0.211,0.015-0.316c0.007-0.175,0.019-0.363-0.028-0.533
	c-0.061-0.226-0.273-0.386-0.506-0.386C21.771,7.632,21.542,7.792,21.49,8.019"/>
<path opacity="0.9753" fill="#292521" d="M31.02,14.49c-0.002,0-0.005,0-0.007,0.001C31.015,14.49,31.018,14.49,31.02,14.49
	 M30.938,13.534c-0.075,0.005-0.149,0.017-0.224,0.028c-0.014,0.005-0.028,0.01-0.043,0.015c-0.053,0.021-0.105,0.044-0.157,0.068
	c-0.048,0.021-0.095,0.05-0.141,0.076c-0.086,0.047-0.171,0.095-0.257,0.143c-0.129,0.073-0.251,0.159-0.374,0.24
	c-0.267,0.175-0.519,0.366-0.771,0.561c-0.457,0.355-0.869,0.764-1.256,1.193c-0.233,0.259-0.467,0.516-0.71,0.766
	c-0.357,0.369-0.733,0.72-1.097,1.084c-0.001,0.001,0,0.001,0.001,0.001c0.496-0.273,0.982-0.555,1.452-0.872
	c0.169-0.114,0.334-0.235,0.496-0.359c-0.468,0.43-0.936,0.86-1.394,1.3c-0.001,0,0,0.001,0,0.001
	c0.653-0.342,1.301-0.694,1.93-1.079c0.243-0.148,0.479-0.306,0.714-0.466c0.131-0.089,0.256-0.19,0.382-0.286
	c0.133-0.1,0.262-0.204,0.391-0.308c0.231-0.187,0.46-0.378,0.685-0.574c0.104-0.091,0.206-0.184,0.309-0.277
	c0.059-0.053,0.117-0.106,0.175-0.159c0.148-0.135,0.324-0.271,0.355-0.482c0.006-0.043,0.011-0.086,0.017-0.129
	c0-0.087-0.021-0.169-0.065-0.245c-0.077-0.131-0.235-0.24-0.394-0.24C30.955,13.533,30.946,13.533,30.938,13.534"/>
<path opacity="0.9753" fill="#292521" d="M34.018,21.7c-0.583,0.014-1.167,0.037-1.75,0.064c-1.188,0.056-2.374,0.136-3.56,0.23
	c-0.817,0.065-1.636,0.13-2.45,0.223c-0.001,0-0.001,0.001,0,0.001c0.618,0.071,1.24,0.124,1.86,0.175
	c0.607,0.05,1.216,0.098,1.824,0.14c1.138,0.079,2.276,0.144,3.416,0.183c0.833,0.029,1.67,0.05,2.503,0.021
	c0.14-0.005,0.268-0.053,0.367-0.152c0.131-0.131,0.183-0.326,0.134-0.504c-0.036-0.129-0.123-0.242-0.239-0.31
	c-0.08-0.047-0.168-0.07-0.262-0.071c-0.271-0.009-0.544-0.013-0.816-0.013C34.702,21.687,34.36,21.692,34.018,21.7"/>
</svg>
