<?xml version="1.0" encoding="utf-8"?>
<!-- Generator: Adobe Illustrator 15.0.0, SVG Export Plug-In . SVG Version: 6.00 Build 0)  -->
<!DOCTYPE svg PUBLIC "-//W3C//DTD SVG 1.1//EN" "http://www.w3.org/Graphics/SVG/1.1/DTD/svg11.dtd">
<svg version="1.1" xmlns="http://www.w3.org/2000/svg" xmlns:xlink="http://www.w3.org/1999/xlink" x="0px" y="0px" width="44px"
	 height="44px" viewBox="0 0 44 44" enable-background="new 0 0 44 44" xml:space="preserve">
<g id="Capa_2_1_">
</g>
<g id="Capa_1">
</g>
<g id="Capa_3">
	<g>
		<path fill="#FFFFFF" d="M20.34,12.131c0.012,0.001,0.025,0.003,0.037,0.004C20.365,12.134,20.352,12.132,20.34,12.131
			 M20.418,12.141c0.302,0.041,0.601,0.09,0.896,0.159c0.299,0.07,0.59,0.165,0.874,0.277c0.54,0.229,1.052,0.532,1.523,0.875
			c0.192,0.149,0.371,0.31,0.545,0.477c0.167,0.162,0.328,0.326,0.478,0.502c0.225,0.295,0.419,0.607,0.588,0.936
			c0.064,0.122,0.12,0.248,0.18,0.37c0.027,0.067,0.058,0.133,0.086,0.2c0.103,0.236,0.177,0.484,0.225,0.736
			c0.035,0.369,0.013,0.741,0.008,1.108c-0.002,0.197-0.004,0.396-0.011,0.593c-0.009,0.25-0.021,0.498-0.039,0.747
			c-0.013,0.171-0.034,0.339-0.057,0.508c-0.07,0.438-0.174,0.861-0.336,1.274c-0.228,0.48-0.466,0.956-0.786,1.383
			c-0.304,0.36-0.642,0.684-1.016,0.976c-0.186,0.13-0.379,0.245-0.586,0.339c-0.33,0.121-0.67,0.206-1.017,0.26
			c-0.398,0.039-0.799,0.025-1.198,0.021c-0.248,0-0.495-0.004-0.741-0.012c-0.299-0.007-0.596-0.018-0.895-0.034
			c-0.257-0.015-0.512-0.042-0.769-0.065c0.076,0.01,0.151,0.019,0.226,0.029c-0.078-0.011-0.156-0.021-0.233-0.031
			c0.038,0.006,0.077,0.011,0.116,0.016c-0.373-0.047-0.748-0.096-1.116-0.179c-0.508-0.115-1.016-0.239-1.503-0.427
			c-0.464-0.202-0.899-0.466-1.308-0.763c-0.336-0.261-0.642-0.551-0.914-0.875c-0.131-0.175-0.247-0.358-0.342-0.552
			c-0.073-0.187-0.127-0.379-0.163-0.578c-0.036-0.354-0.031-0.71-0.033-1.066c0-0.208,0.002-0.415,0.004-0.622
			c0.004-0.413,0.022-0.832,0.072-1.242c0.083-0.505,0.239-0.998,0.437-1.472c0.204-0.443,0.461-0.854,0.762-1.241
			c0.325-0.392,0.696-0.733,1.103-1.043c0.124-0.09,0.25-0.177,0.376-0.263c0.1-0.07,0.198-0.142,0.303-0.204
			c0.439-0.269,0.873-0.537,1.348-0.742c0.21-0.082,0.423-0.151,0.64-0.208c0.06-0.011,0.122-0.021,0.181-0.031
			c0.292-0.046,0.582-0.097,0.874-0.138c0.043-0.004,0.089-0.01,0.134-0.013c0.053-0.004,0.105-0.007,0.158-0.01
			c0.028-0.003,0.054-0.004,0.081-0.006C19.856,12.096,20.139,12.107,20.418,12.141 M18.537,11.218
			c-0.522,0.017-1.046,0.109-1.541,0.264c-0.56,0.175-1.081,0.443-1.602,0.704c-0.173,0.087-0.339,0.195-0.506,0.293
			c-0.351,0.203-0.68,0.436-0.997,0.686c-0.427,0.335-0.777,0.741-1.112,1.161c-0.334,0.42-0.576,0.887-0.785,1.375
			c-0.187,0.438-0.333,0.895-0.414,1.361c-0.055,0.318-0.083,0.634-0.11,0.955c-0.027,0.337-0.036,0.674-0.044,1.011
			c-0.004,0.174-0.007,0.349-0.01,0.522c-0.002,0.124-0.004,0.248-0.005,0.372c-0.002,0.311,0.03,0.616,0.074,0.925
			c0.034,0.236,0.102,0.468,0.19,0.69c0.108,0.274,0.239,0.534,0.405,0.779c0.158,0.232,0.34,0.451,0.528,0.662
			c0.158,0.176,0.332,0.34,0.513,0.493c0.261,0.218,0.541,0.41,0.823,0.602c0.318,0.217,0.656,0.4,1.01,0.553
			c0.52,0.225,1.066,0.391,1.622,0.508c0.404,0.084,0.809,0.162,1.22,0.213c0.382,0.045,0.763,0.086,1.148,0.119
			c0.352,0.031,0.707,0.031,1.06,0.039c0.334,0.008,0.668,0.01,1.001,0.01c0.313,0.002,0.629,0.01,0.942-0.02
			c0.558-0.051,1.117-0.162,1.636-0.371c0.266-0.107,0.514-0.227,0.755-0.379c0.254-0.16,0.488-0.354,0.719-0.545
			c0.412-0.341,0.769-0.745,1.084-1.174c0.231-0.315,0.418-0.666,0.586-1.018c0.146-0.306,0.291-0.611,0.402-0.929
			c0.155-0.436,0.234-0.891,0.293-1.347c0.021-0.167,0.048-0.335,0.062-0.505c0.026-0.347,0.048-0.694,0.055-1.043
			c0.011-0.49,0.028-0.985-0.021-1.474c-0.027-0.283-0.08-0.56-0.171-0.83c-0.069-0.208-0.161-0.409-0.259-0.605
			c-0.081-0.16-0.159-0.319-0.25-0.476c-0.375-0.656-0.852-1.274-1.463-1.742c-0.28-0.214-0.561-0.427-0.868-0.607
			c-0.241-0.141-0.495-0.253-0.75-0.368c-0.418-0.185-0.847-0.335-1.293-0.436c-0.391-0.087-0.789-0.134-1.189-0.149
			c-0.206-0.051-0.415-0.09-0.625-0.118c0.016,0.001,0.032,0.003,0.048,0.006c-0.027-0.004-0.056-0.007-0.083-0.012
			c-0.004,0-0.007,0-0.012-0.001c0.001,0,0.003,0.001,0.004,0.001c-0.372-0.048-0.742-0.09-1.116-0.121
			c-0.255-0.022-0.512-0.038-0.767-0.038C18.663,11.214,18.6,11.216,18.537,11.218"/>
		<path fill="#FFFFFF" d="M28.12,25.738c0.004,0.006,0.009,0.008,0.013,0.01c0,0,0,0,0,0.002
			C28.129,25.746,28.124,25.744,28.12,25.738L28.12,25.738 M28.037,25.678c0.015,0.012,0.03,0.023,0.046,0.035
			c0.006,0.004,0.013,0.008,0.018,0.014C28.079,25.709,28.057,25.693,28.037,25.678 M26.228,24.162
			c0.008,0.006,0.015,0.012,0.021,0.016C26.242,24.174,26.235,24.168,26.228,24.162 M24.792,23.25
			c0.208,0.234,0.417,0.47,0.627,0.701c0.161,0.178,0.325,0.352,0.48,0.533c0.024,0.029,0.049,0.061,0.073,0.092
			c0.028,0.037,0.06,0.074,0.089,0.111c0.048,0.061,0.096,0.121,0.144,0.18c0.2,0.254,0.392,0.514,0.577,0.777
			c0.211,0.299,0.441,0.588,0.688,0.863c0.444,0.494,0.98,0.9,1.431,1.391c0.146,0.158,0.288,0.314,0.43,0.475
			c0.131,0.148,0.251,0.307,0.377,0.457c0.122,0.148,0.252,0.293,0.4,0.418c0.159,0.129,0.331,0.238,0.499,0.354
			c0.012,0.012,0.023,0.021,0.035,0.033c0.004,0.008,0.01,0.018,0.017,0.025c0.016,0.053,0.028,0.104,0.04,0.156
			c0.001,0.035,0.003,0.07,0.001,0.107c-0.002,0.012-0.005,0.021-0.01,0.033c-0.031,0.059-0.066,0.113-0.105,0.168
			c-0.179,0.199-0.386,0.365-0.595,0.535c-0.062,0.053-0.125,0.105-0.188,0.158c-0.473-0.398-0.878-0.865-1.334-1.279
			c-0.133-0.123-0.262-0.248-0.4-0.361c-0.158-0.129-0.315-0.258-0.473-0.383c-0.269-0.219-0.537-0.434-0.801-0.652
			c-0.532-0.445-1.069-0.885-1.626-1.303c-0.269-0.201-0.54-0.404-0.788-0.631c-0.261-0.232-0.519-0.467-0.781-0.697
			c-0.322-0.283-0.648-0.566-0.969-0.852h-0.002c0.232,0.375,0.487,0.734,0.746,1.092c0.191,0.268,0.381,0.533,0.576,0.795
			c0.218,0.291,0.463,0.562,0.708,0.832c0.24,0.264,0.474,0.533,0.709,0.805c0.29,0.33,0.562,0.674,0.845,1.014
			c0.273,0.328,0.562,0.646,0.846,0.969c0.089,0.111,0.18,0.225,0.269,0.336c-0.006-0.006-0.01-0.012-0.016-0.02
			c0.218,0.277,0.423,0.564,0.633,0.846c0.278,0.373,0.576,0.748,0.94,1.049c0.087,0.072,0.179,0.139,0.271,0.201
			s0.219,0.104,0.314,0.143c0.212,0.084,0.471,0.082,0.689,0.023c0.244-0.066,0.426-0.229,0.614-0.385
			c0.131-0.107,0.268-0.211,0.4-0.318c0.128-0.104,0.257-0.203,0.385-0.307c0.263-0.221,0.487-0.469,0.679-0.75
			c0.094-0.141,0.154-0.305,0.217-0.457c0.07-0.17,0.088-0.359,0.098-0.539c0.01-0.168-0.027-0.342-0.056-0.508
			c-0.011-0.066-0.032-0.131-0.051-0.195c-0.029-0.1-0.083-0.209-0.123-0.299c-0.033-0.078-0.067-0.15-0.116-0.221
			c-0.071-0.1-0.15-0.195-0.231-0.289c-0.087-0.098-0.203-0.172-0.307-0.248c-0.14-0.098-0.31-0.156-0.462-0.236
			c-0.1-0.055-0.198-0.119-0.291-0.188c-0.196-0.158-0.377-0.332-0.568-0.492c-0.216-0.184-0.436-0.361-0.66-0.533
			c-0.256-0.195-0.527-0.361-0.798-0.529c-0.241-0.15-0.479-0.305-0.711-0.467c-0.015-0.012-0.029-0.021-0.044-0.033
			c0.003,0,0.005,0.002,0.006,0.004c-0.001-0.002-0.004-0.004-0.006-0.006c-0.004-0.002-0.009-0.004-0.011-0.008
			c-0.002,0-0.002,0-0.002-0.002c-0.003,0-0.007-0.004-0.009-0.006c0.002,0.002,0.006,0.006,0.009,0.006
			c-0.325-0.258-0.634-0.531-0.937-0.814c-0.146-0.137-0.307-0.26-0.463-0.383c-0.15-0.119-0.304-0.236-0.457-0.352
			c0.005,0.002,0.009,0.006,0.014,0.01c-0.201-0.156-0.427-0.285-0.643-0.421c-0.28-0.179-0.56-0.354-0.843-0.53l0,0
			C24.792,23.248,24.791,23.25,24.792,23.25"/>
		<path fill="#FFFFFF" d="M17.375,14.06c-0.246,0.097-0.49,0.194-0.733,0.298c-0.27,0.113-0.54,0.23-0.781,0.399
			c-0.18,0.127-0.337,0.274-0.474,0.445c-0.16,0.2-0.278,0.416-0.38,0.648c-0.087,0.201-0.175,0.413-0.227,0.627
			c-0.042,0.177-0.08,0.352-0.108,0.531c-0.032,0.201-0.056,0.401-0.077,0.603c-0.019,0.177-0.029,0.353-0.038,0.529
			c-0.007,0.149-0.011,0.299,0.002,0.448c0.012,0.14,0.033,0.28,0.068,0.416c0.04,0.155,0.111,0.302,0.185,0.444
			c0.116,0.219,0.282,0.419,0.453,0.598c0.189,0.198,0.417,0.365,0.645,0.52c0.178,0.12,0.365,0.233,0.551,0.34
			c0.318,0.179,0.641,0.347,0.971,0.507c0.322,0.158,0.668,0.269,1.014,0.37c0.331,0.095,0.687,0.124,1.032,0.139
			c0.071,0.003,0.145,0.001,0.215-0.001c0.2-0.011,0.396,0,0.596,0.006c0.001,0,0.001-0.001,0-0.001
			c-0.169-0.07-0.334-0.145-0.512-0.191c-0.086-0.023-0.169-0.048-0.254-0.074c-0.15-0.047-0.296-0.105-0.442-0.162
			c-0.22-0.099-0.429-0.21-0.636-0.331c-0.191-0.112-0.371-0.241-0.552-0.368c-0.234-0.185-0.469-0.37-0.702-0.562
			c-0.385-0.316-0.784-0.627-1.106-1.006c-0.098-0.131-0.185-0.269-0.258-0.413c-0.043-0.117-0.078-0.235-0.101-0.357
			c-0.034-0.331-0.032-0.67-0.036-1.004c-0.003-0.293,0.008-0.583,0.026-0.875c0.012-0.084,0.023-0.169,0.035-0.253
			c0.044-0.245,0.099-0.492,0.19-0.726c0.075-0.162,0.167-0.313,0.275-0.456c0.17-0.205,0.37-0.378,0.57-0.555
			c0.197-0.175,0.393-0.352,0.589-0.528C17.377,14.061,17.377,14.06,17.375,14.06L17.375,14.06"/>
	</g>
</g>
</svg>
