<?xml version="1.0" encoding="utf-8"?>
<!-- Generator: Adobe Illustrator 15.0.0, SVG Export Plug-In . SVG Version: 6.00 Build 0)  -->
<!DOCTYPE svg PUBLIC "-//W3C//DTD SVG 1.1//EN" "http://www.w3.org/Graphics/SVG/1.1/DTD/svg11.dtd">
<svg version="1.1" xmlns="http://www.w3.org/2000/svg" xmlns:xlink="http://www.w3.org/1999/xlink" x="0px" y="0px" width="44px"
	 height="44px" viewBox="0 0 44 44" enable-background="new 0 0 44 44" xml:space="preserve">
<g id="Capa_2_1_">
	<path opacity="0.6" fill="#FFFFFF" d="M34,21.333C34.274,28.23,29.403,34,22.5,34S10,28.403,10,21.5S13.764,10,20.667,10
		S33.827,16.988,34,21.333z"/>
	<g opacity="0.6">
		<path fill="#292521" d="M19.567,9.89c0.014,0.002,0.027,0.004,0.041,0.006C19.595,9.894,19.581,9.892,19.567,9.89 M19.655,9.902
			c0.336,0.047,0.671,0.104,1.002,0.185c0.334,0.081,0.66,0.19,0.978,0.319c0.604,0.265,1.177,0.615,1.705,1.012
			c0.214,0.172,0.414,0.357,0.608,0.551c0.187,0.187,0.368,0.376,0.535,0.58c0.251,0.34,0.468,0.701,0.658,1.08
			c0.07,0.141,0.134,0.286,0.2,0.429c0.032,0.077,0.063,0.153,0.096,0.229c0.114,0.273,0.198,0.56,0.251,0.851
			c0.04,0.425,0.016,0.855,0.01,1.281c-0.003,0.228-0.005,0.456-0.013,0.684c-0.01,0.289-0.021,0.575-0.043,0.863
			c-0.015,0.196-0.038,0.392-0.063,0.587c-0.079,0.505-0.194,0.994-0.376,1.471c-0.254,0.555-0.52,1.105-0.881,1.599
			c-0.338,0.417-0.718,0.788-1.134,1.126c-0.208,0.15-0.426,0.283-0.658,0.393c-0.367,0.14-0.749,0.237-1.137,0.3
			c-0.445,0.046-0.894,0.029-1.34,0.026c-0.276-0.002-0.552-0.006-0.828-0.014c-0.334-0.01-0.667-0.022-1-0.041
			c-0.288-0.017-0.573-0.049-0.86-0.076c0.084,0.012,0.169,0.022,0.253,0.034c-0.087-0.012-0.175-0.023-0.262-0.035
			c0.043,0.006,0.087,0.012,0.131,0.018c-0.417-0.056-0.837-0.11-1.248-0.206c-0.569-0.134-1.137-0.277-1.682-0.492
			c-0.52-0.235-1.006-0.54-1.463-0.882c-0.376-0.303-0.718-0.639-1.022-1.013c-0.146-0.201-0.276-0.411-0.383-0.636
			c-0.081-0.217-0.142-0.439-0.182-0.667c-0.04-0.41-0.036-0.822-0.037-1.233c0-0.239,0.002-0.479,0.005-0.717
			c0.004-0.477,0.025-0.961,0.08-1.436c0.092-0.583,0.268-1.153,0.489-1.7c0.229-0.513,0.517-0.986,0.853-1.435
			c0.363-0.453,0.779-0.846,1.233-1.206c0.138-0.104,0.28-0.203,0.421-0.303c0.112-0.081,0.222-0.163,0.339-0.236
			c0.492-0.31,0.976-0.62,1.509-0.856c0.234-0.094,0.473-0.175,0.715-0.241c0.068-0.012,0.136-0.023,0.204-0.035
			c0.325-0.055,0.65-0.114,0.977-0.16c0.05-0.006,0.101-0.011,0.151-0.016c0.059-0.004,0.118-0.008,0.176-0.012
			c0.03-0.002,0.06-0.004,0.09-0.006C19.025,9.851,19.342,9.863,19.655,9.902 M17.55,8.836c-0.583,0.02-1.169,0.126-1.724,0.305
			c-0.626,0.202-1.209,0.511-1.791,0.812c-0.194,0.1-0.379,0.225-0.567,0.337c-0.392,0.235-0.76,0.505-1.115,0.793
			c-0.478,0.388-0.869,0.856-1.244,1.342c-0.374,0.485-0.645,1.025-0.878,1.588c-0.209,0.504-0.373,1.033-0.463,1.573
			c-0.062,0.367-0.094,0.733-0.123,1.104c-0.03,0.388-0.04,0.778-0.05,1.167c-0.005,0.202-0.008,0.403-0.012,0.604
			c-0.002,0.143-0.004,0.286-0.005,0.429c-0.003,0.36,0.033,0.712,0.083,1.069c0.039,0.273,0.115,0.541,0.213,0.798
			c0.121,0.317,0.268,0.617,0.454,0.9c0.177,0.268,0.38,0.521,0.59,0.764c0.177,0.204,0.371,0.394,0.574,0.57
			c0.292,0.253,0.605,0.475,0.92,0.696c0.355,0.249,0.734,0.461,1.13,0.638c0.581,0.259,1.192,0.45,1.813,0.586
			c0.452,0.1,0.905,0.188,1.365,0.245c0.428,0.055,0.854,0.101,1.284,0.139c0.394,0.035,0.791,0.037,1.186,0.046
			c0.374,0.009,0.747,0.01,1.12,0.012c0.351,0.002,0.704,0.01,1.053-0.023c0.625-0.06,1.25-0.187,1.83-0.429
			c0.298-0.125,0.576-0.261,0.845-0.438c0.283-0.186,0.547-0.407,0.805-0.628c0.462-0.395,0.86-0.862,1.212-1.356
			c0.261-0.365,0.47-0.77,0.656-1.176c0.162-0.354,0.325-0.707,0.451-1.075c0.173-0.503,0.261-1.029,0.326-1.555
			c0.024-0.194,0.055-0.389,0.069-0.584c0.031-0.402,0.054-0.802,0.062-1.205c0.011-0.566,0.03-1.139-0.023-1.702
			c-0.031-0.328-0.089-0.647-0.191-0.96c-0.078-0.239-0.181-0.472-0.289-0.699c-0.09-0.186-0.179-0.37-0.279-0.55
			c-0.421-0.758-0.954-1.471-1.637-2.012c-0.314-0.249-0.627-0.495-0.971-0.702c-0.271-0.163-0.555-0.292-0.841-0.424
			c-0.466-0.215-0.945-0.388-1.446-0.504c-0.437-0.101-0.883-0.155-1.33-0.172c-0.23-0.06-0.463-0.105-0.698-0.138
			c0.018,0.002,0.036,0.005,0.053,0.007c-0.031-0.004-0.062-0.008-0.094-0.012c-0.004-0.001-0.008-0.001-0.012-0.002
			c0.001,0,0.003,0,0.004,0c-0.416-0.055-0.83-0.104-1.248-0.14c-0.286-0.024-0.572-0.042-0.859-0.043
			C17.69,8.832,17.62,8.833,17.55,8.836"/>
		<path fill="#292521" d="M28.271,25.614c0.005,0.004,0.01,0.008,0.015,0.012c0,0,0.001,0,0.001,0.001
			C28.28,25.622,28.275,25.618,28.271,25.614L28.271,25.614 M28.177,25.543c0.018,0.014,0.036,0.027,0.054,0.04
			c0.006,0.005,0.013,0.01,0.019,0.015C28.225,25.58,28.201,25.562,28.177,25.543 M26.154,23.792
			c0.008,0.007,0.016,0.013,0.023,0.019C26.17,23.805,26.162,23.799,26.154,23.792 M24.548,22.738
			c0.232,0.271,0.467,0.542,0.702,0.812c0.179,0.204,0.363,0.405,0.537,0.614c0.026,0.036,0.054,0.071,0.081,0.106
			c0.033,0.043,0.066,0.085,0.099,0.128c0.055,0.07,0.108,0.14,0.163,0.21c0.223,0.293,0.437,0.591,0.645,0.896
			c0.235,0.347,0.494,0.681,0.77,0.997c0.498,0.571,1.097,1.041,1.601,1.606c0.162,0.182,0.323,0.364,0.481,0.549
			c0.146,0.171,0.28,0.354,0.421,0.529c0.137,0.171,0.281,0.339,0.448,0.481c0.178,0.15,0.37,0.276,0.559,0.41
			c0.014,0.012,0.026,0.024,0.038,0.036c0.007,0.011,0.013,0.021,0.019,0.031c0.018,0.059,0.033,0.119,0.046,0.18
			c0.002,0.041,0.003,0.082,0.002,0.123c-0.003,0.013-0.007,0.026-0.011,0.039c-0.036,0.067-0.075,0.132-0.118,0.194
			c-0.201,0.229-0.434,0.422-0.666,0.619c-0.071,0.06-0.141,0.12-0.211,0.182c-0.529-0.46-0.982-1-1.493-1.479
			c-0.148-0.139-0.292-0.285-0.447-0.415c-0.176-0.148-0.352-0.297-0.528-0.444c-0.3-0.25-0.601-0.499-0.896-0.754
			c-0.597-0.514-1.197-1.021-1.818-1.503c-0.3-0.234-0.604-0.47-0.883-0.729c-0.291-0.27-0.579-0.541-0.873-0.807
			c-0.362-0.327-0.725-0.653-1.084-0.983c-0.001-0.001-0.002,0-0.002,0.001c0.26,0.434,0.545,0.848,0.834,1.262
			c0.213,0.307,0.427,0.614,0.646,0.918c0.242,0.336,0.517,0.65,0.79,0.961c0.27,0.305,0.531,0.617,0.794,0.929
			c0.324,0.382,0.63,0.781,0.945,1.171c0.307,0.38,0.631,0.748,0.947,1.12c0.1,0.13,0.199,0.26,0.299,0.389
			c-0.005-0.007-0.011-0.014-0.017-0.021c0.245,0.318,0.473,0.651,0.708,0.977c0.312,0.432,0.645,0.864,1.052,1.212
			c0.097,0.082,0.199,0.158,0.304,0.231c0.102,0.073,0.243,0.12,0.351,0.164c0.238,0.098,0.526,0.095,0.771,0.027
			c0.273-0.076,0.477-0.265,0.687-0.443c0.147-0.125,0.301-0.244,0.449-0.368c0.143-0.119,0.288-0.234,0.429-0.355
			c0.295-0.253,0.545-0.541,0.76-0.867c0.106-0.161,0.173-0.349,0.244-0.526c0.077-0.195,0.097-0.414,0.108-0.621
			c0.012-0.195-0.031-0.397-0.062-0.589c-0.013-0.075-0.035-0.149-0.056-0.224c-0.033-0.118-0.094-0.242-0.139-0.349
			c-0.037-0.089-0.076-0.172-0.13-0.252c-0.08-0.117-0.169-0.228-0.26-0.336c-0.096-0.113-0.226-0.197-0.343-0.284
			c-0.155-0.114-0.347-0.183-0.515-0.275c-0.114-0.062-0.223-0.138-0.328-0.215c-0.218-0.184-0.42-0.385-0.634-0.571
			c-0.242-0.211-0.488-0.417-0.74-0.615c-0.285-0.225-0.588-0.416-0.894-0.612c-0.269-0.173-0.534-0.35-0.793-0.539
			c-0.017-0.013-0.033-0.024-0.049-0.037c0.002,0.001,0.004,0.003,0.006,0.005c-0.002-0.002-0.005-0.004-0.007-0.006
			c-0.005-0.003-0.009-0.007-0.014-0.011c0,0-0.001,0-0.001-0.001c-0.003-0.002-0.007-0.005-0.01-0.007
			c0.003,0.002,0.007,0.005,0.01,0.007c-0.364-0.299-0.709-0.615-1.048-0.942c-0.163-0.156-0.343-0.299-0.518-0.442
			c-0.168-0.138-0.339-0.272-0.511-0.406c0.005,0.004,0.01,0.008,0.015,0.012c-0.226-0.18-0.477-0.33-0.718-0.487
			C25.178,23.143,24.863,22.938,24.548,22.738c0-0.002,0-0.002,0-0.002C24.547,22.736,24.547,22.738,24.548,22.738"/>
		<path fill="#292521" d="M16.251,12.119c-0.275,0.111-0.548,0.225-0.82,0.344c-0.303,0.133-0.605,0.266-0.874,0.462
			c-0.201,0.147-0.377,0.317-0.53,0.514c-0.179,0.231-0.312,0.48-0.425,0.749c-0.098,0.232-0.196,0.478-0.253,0.724
			c-0.047,0.205-0.089,0.407-0.122,0.615c-0.036,0.231-0.062,0.463-0.086,0.696c-0.021,0.203-0.032,0.407-0.042,0.611
			c-0.008,0.173-0.012,0.346,0.002,0.519c0.013,0.161,0.037,0.323,0.076,0.48c0.044,0.178,0.125,0.349,0.207,0.512
			c0.128,0.253,0.315,0.485,0.506,0.692c0.212,0.229,0.467,0.421,0.721,0.599c0.199,0.14,0.408,0.27,0.618,0.393
			c0.355,0.208,0.716,0.402,1.084,0.587c0.361,0.181,0.748,0.311,1.134,0.425c0.372,0.11,0.77,0.144,1.155,0.16
			c0.081,0.004,0.162,0.004,0.242,0c0.223-0.012,0.443,0,0.666,0.007c0.001,0,0.001-0.002,0-0.002
			c-0.189-0.081-0.374-0.168-0.573-0.222c-0.096-0.026-0.19-0.055-0.285-0.085c-0.168-0.054-0.331-0.121-0.494-0.187
			c-0.247-0.115-0.479-0.242-0.712-0.383c-0.214-0.129-0.414-0.276-0.616-0.424c-0.263-0.215-0.526-0.429-0.785-0.649
			c-0.431-0.366-0.878-0.726-1.237-1.164c-0.11-0.151-0.208-0.31-0.29-0.477c-0.049-0.135-0.086-0.27-0.112-0.412
			c-0.039-0.384-0.036-0.775-0.04-1.16c-0.004-0.339,0.009-0.674,0.029-1.012c0.013-0.098,0.026-0.195,0.039-0.292
			c0.049-0.284,0.109-0.569,0.212-0.839c0.084-0.188,0.186-0.362,0.308-0.528c0.191-0.235,0.415-0.437,0.638-0.641
			c0.221-0.202,0.44-0.406,0.659-0.61C16.252,12.12,16.252,12.119,16.251,12.119C16.251,12.119,16.251,12.119,16.251,12.119"/>
	</g>
</g>
<g id="Capa_1">
</g>
<g id="Capa_3" display="none">
	<path display="inline" fill="#FF9435" d="M22.283,22.448c-0.041,0.027-0.083,0.052-0.125,0.078
		c0.007-0.011,0.014-0.022,0.021-0.033c0.008-0.008,0.014-0.016,0.022-0.022C22.228,22.463,22.255,22.456,22.283,22.448
		 M20.785,13.403c-2.347,0.211-4.405,1.645-5.644,3.616c-0.513,0.818-0.849,1.766-1.098,2.695c-0.337,1.262-0.391,2.558-0.163,3.841
		c0.215,1.215,0.794,2.315,1.584,3.252c0.662,0.782,1.495,1.293,2.403,1.69c0.334,0.299,0.715,0.557,1.08,0.801
		c0.546,0.367,1.208,0.603,1.821,0.824c0.402,0.146,0.831,0.222,1.25,0.297c0.602,0.107,1.209,0.171,1.821,0.193
		c1.304,0.05,2.559-0.349,3.562-1.184c1.102-0.916,1.688-2.301,1.912-3.72c0.093-0.133,0.182-0.271,0.268-0.412
		c0.451-0.751,0.626-1.604,0.669-2.468c0.046-0.877-0.169-1.731-0.461-2.551c-0.026-0.125-0.058-0.247-0.092-0.359
		c-0.173-0.559-0.402-0.985-0.69-1.401c-0.639-1.178-1.482-2.269-2.486-3.112c-0.795-0.668-1.655-1.104-2.609-1.5
		c-0.388-0.162-0.793-0.267-1.203-0.353c-0.484-0.102-0.981-0.169-1.477-0.169C21.083,13.384,20.933,13.39,20.785,13.403"/>
</g>
</svg>
