<?xml version="1.0" encoding="utf-8"?>
<!-- Generator: Adobe Illustrator 15.0.0, SVG Export Plug-In . SVG Version: 6.00 Build 0)  -->
<!DOCTYPE svg PUBLIC "-//W3C//DTD SVG 1.1//EN" "http://www.w3.org/Graphics/SVG/1.1/DTD/svg11.dtd">
<svg version="1.1" xmlns="http://www.w3.org/2000/svg" xmlns:xlink="http://www.w3.org/1999/xlink" x="0px" y="0px" width="44px"
	 height="44px" viewBox="0 0 44 44" enable-background="new 0 0 44 44" xml:space="preserve">
<g id="Capa_2_1_">
</g>
<g id="Capa_1">
</g>
<g id="Capa_3">
	<g>
		<path fill="#FFFFFF" d="M20.61,17.663c-0.242,0.008-0.483,0.029-0.725,0.049c-0.226,0.018-0.451,0.036-0.677,0.055
			c-0.24,0.022-0.482,0.049-0.723,0.062c-0.305,0.015-0.611,0.032-0.916,0.047c-0.265,0.014-0.53,0.019-0.795,0.026
			c-0.981,0.032-1.965,0.055-2.948,0.056c-0.276,0.001-0.552,0-0.828-0.003c-0.229-0.003-0.458-0.008-0.687-0.005
			c-0.135,0.001-0.269,0.004-0.404,0.011c-0.087,0.004-0.175,0.007-0.263,0.014c-0.11,0.01-0.22,0.021-0.329,0.042
			c-0.076,0.016-0.141,0.046-0.214,0.08c-0.078,0.035-0.141,0.093-0.207,0.147c-0.047,0.04-0.121,0.142-0.139,0.171
			c-0.041,0.07-0.066,0.139-0.099,0.215c-0.032,0.077-0.051,0.152-0.066,0.233c-0.025,0.148-0.046,0.298-0.054,0.448
			c-0.008,0.137-0.02,0.274-0.022,0.41c-0.007,0.519,0,1.034,0.025,1.551c0.025,0.522,0.053,1.044,0.076,1.566
			c0.045,1.011,0.112,2.021,0.169,3.033c0.023,0.428,0.038,0.857,0.038,1.287c0,0.405-0.004,0.814-0.044,1.219
			c-0.006,0.04-0.013,0.08-0.019,0.121c-0.023,0.168-0.043,0.299,0.009,0.467c0.022,0.068,0.06,0.156,0.103,0.22
			c0.034,0.059,0.076,0.111,0.126,0.155c0.053,0.042,0.106,0.082,0.16,0.122c0.026,0.021,0.058,0.035,0.087,0.049
			c0.073,0.036,0.151,0.067,0.229,0.092c0.073,0.024,0.15,0.035,0.226,0.046c0.18,0.026,0.363,0.049,0.546,0.053
			c0.278,0.006,0.556,0.009,0.836,0.006c0.503-0.004,1.005-0.025,1.507-0.048c0.237-0.012,0.474-0.022,0.71-0.038
			c0.254-0.016,0.508-0.026,0.76-0.05c0.25-0.024,0.5-0.044,0.75-0.074c0.263-0.031,0.525-0.065,0.788-0.097
			c0.548-0.068,1.095-0.14,1.642-0.225c0.226-0.034,0.451-0.075,0.675-0.118c0.125-0.023,0.251-0.044,0.375-0.073
			c0.138-0.032,0.276-0.065,0.414-0.099c0.325-0.077,0.647-0.179,0.966-0.282c0.371-0.12,0.744-0.227,1.111-0.354
			c0.001,0,0.001-0.001,0-0.001c-0.476,0.038-0.95,0.095-1.422,0.161c-0.236,0.029-0.473,0.064-0.709,0.084
			c-0.141,0.011-0.281,0.021-0.422,0.034c-0.126,0.012-0.256,0.012-0.382,0.019c-0.478,0.021-0.958,0.033-1.438,0.032
			c-0.537-0.002-1.074-0.008-1.612-0.011c-0.5-0.001-1.001-0.036-1.502-0.059c-0.477-0.022-0.954-0.051-1.431-0.071
			c-0.542-0.025-1.084-0.04-1.626-0.07c-0.08-0.004-0.161-0.011-0.242-0.019c-0.016-0.003-0.032-0.006-0.049-0.009
			c-0.046-0.479-0.047-0.96-0.061-1.44c-0.016-0.523-0.038-1.049-0.056-1.574c-0.036-1.006-0.043-2.016-0.04-3.022
			c0.001-0.483-0.015-0.966-0.007-1.448c0.01-0.534,0.024-1.068,0.052-1.601c0.003-0.06,0.007-0.121,0.012-0.181
			c0.003-0.016,0.006-0.031,0.009-0.046c0.108-0.032,0.218-0.054,0.33-0.076c0.077-0.011,0.154-0.021,0.231-0.023
			c0.144-0.004,0.288-0.01,0.432-0.016c0.222-0.008,0.444-0.007,0.667-0.005c0.512,0,1.024,0.004,1.537,0.014
			c1.055,0.018,2.11,0.047,3.166,0.047c0.219,0,0.437-0.002,0.656-0.011c0.246-0.009,0.492-0.019,0.738-0.024
			c0.167-0.005,0.335-0.01,0.503-0.014c0.108-0.003,0.216-0.01,0.325-0.009c0.268,0.006,0.536,0.01,0.804,0.014
			c0.155,0.003,0.31,0.014,0.467,0.021c0.237,0.009,0.475,0.018,0.711,0.044c0.069,0.011,0.136,0.024,0.203,0.042
			c0.008,0.039,0.015,0.08,0.021,0.12c0.102,1.016,0.081,2.038,0.073,3.057c-0.008,1.036,0.01,2.069,0.051,3.104
			c0.009,0.236,0.011,0.473,0.018,0.709c0.006,0.208,0.018,0.416,0.018,0.625c-0.001,0.663,0.008,1.325,0.008,1.987
			c0,0.061,0,0.121,0,0.181h0.001c0.127-0.688,0.241-1.381,0.348-2.075c0.03-0.201,0.05-0.403,0.072-0.604
			c0.03-0.266,0.062-0.53,0.084-0.796c0.084-1.011,0.137-2.021,0.208-3.032c0.039-0.534,0.075-1.068,0.104-1.602
			c0.026-0.501,0.048-1.003,0.099-1.502c0.002-0.012,0.003-0.023,0.005-0.036c0.002-0.014,0.003-0.029,0.007-0.043
			c0.018-0.129,0.054-0.251,0.065-0.382c0.013-0.161-0.027-0.315-0.101-0.459c-0.037-0.072-0.084-0.129-0.138-0.193
			c-0.05-0.06-0.12-0.108-0.183-0.151c-0.093-0.065-0.203-0.107-0.309-0.149c-0.089-0.036-0.182-0.054-0.277-0.069
			c-0.301-0.05-0.605-0.074-0.911-0.075c-0.168,0-0.338-0.001-0.508-0.001c-0.01,0-0.021,0-0.032,0
			C21.102,17.644,20.856,17.655,20.61,17.663"/>
		<path fill="#FFFFFF" d="M32.102,22.079c0.012,0.038,0.022,0.075,0.032,0.114c0,0.019,0,0.039,0,0.058
			c0,0.001-0.001,0.003-0.001,0.004c-0.005,0.01-0.012,0.02-0.017,0.029C32.123,22.217,32.116,22.146,32.102,22.079 M23.939,14.292
			c0.134,0.113,0.271,0.222,0.407,0.332c0.107,0.085,0.218,0.169,0.32,0.262c0.118,0.108,0.238,0.216,0.356,0.324
			c0.178,0.161,0.341,0.339,0.512,0.509c0.379,0.379,0.745,0.772,1.117,1.159c0.308,0.319,0.599,0.655,0.905,0.976
			c0.228,0.236,0.454,0.473,0.683,0.709c0.152,0.156,0.313,0.305,0.472,0.454c0.098,0.095,0.197,0.188,0.296,0.281
			c0.037,0.035,0.072,0.071,0.11,0.104c0.193,0.162,0.387,0.321,0.581,0.481c0.312,0.255,0.628,0.502,0.949,0.747
			c0.16,0.131,0.32,0.262,0.481,0.392c0.099,0.081,0.195,0.166,0.291,0.253c0.126,0.117,0.251,0.237,0.369,0.365
			c-0.003-0.003-0.008-0.004-0.011-0.007c-0.105-0.061-0.221-0.092-0.344-0.093c-0.135-0.008-0.265,0.036-0.396,0.06
			c-0.022,0.004-0.045,0.008-0.068,0.013c-0.492,0.049-0.988,0.06-1.482,0.093c-0.517,0.035-1.031,0.078-1.548,0.112
			c-0.999,0.068-2,0.135-3.001,0.173c-0.52,0.019-1.039,0.029-1.558,0.047c-0.512,0.017-1.021,0.051-1.531,0.09
			c-1.018,0.079-2.034,0.181-3.049,0.288c-0.475,0.048-0.95,0.099-1.423,0.15c-0.552,0.06-1.101,0.135-1.649,0.216
			c-0.39,0.057-0.779,0.109-1.169,0.167c0,0,0,0,0,0c0.574,0.062,1.148,0.116,1.725,0.15c0.532,0.029,1.066,0.058,1.599,0.075
			c1.033,0.033,2.063,0.021,3.095-0.013c0.499-0.017,0.998-0.039,1.496-0.06c0.489-0.021,0.978-0.022,1.466-0.038
			c0.49-0.015,0.981-0.035,1.471-0.06c0.527-0.028,1.054-0.062,1.58-0.092c0.49-0.029,0.981-0.053,1.473-0.076
			c0.276-0.013,0.555-0.024,0.834-0.035c0.25-0.009,0.501-0.005,0.752-0.002c0.006,0,0.011,0,0.016,0
			c-0.067,0.075-0.138,0.15-0.206,0.224c-0.374,0.394-0.757,0.777-1.132,1.17c-0.336,0.349-0.683,0.686-1.046,1.006
			c-0.374,0.33-0.742,0.67-1.131,0.982c-0.049,0.04-0.098,0.079-0.146,0.117c-0.013,0.011-0.027,0.021-0.042,0.031
			c-0.073,0.055-0.158,0.101-0.224,0.166c-0.101,0.1-0.16,0.206-0.2,0.341c-0.05,0.173-0.022,0.367,0.069,0.521
			c0.081,0.141,0.238,0.28,0.402,0.31c0.078,0.016,0.157,0.025,0.235,0.032c0.067,0.007,0.173-0.017,0.246-0.043
			c0.112-0.038,0.224-0.089,0.326-0.147c0.073-0.041,0.144-0.085,0.214-0.129c0.103-0.062,0.207-0.126,0.309-0.186
			c0.24-0.142,0.479-0.283,0.719-0.424c0.445-0.264,0.882-0.546,1.293-0.864c0.206-0.16,0.416-0.316,0.616-0.485
			c0.216-0.182,0.43-0.364,0.644-0.546c0.173-0.147,0.355-0.286,0.524-0.437c0.208-0.183,0.414-0.365,0.617-0.552
			c0.177-0.16,0.349-0.32,0.528-0.471c0.096-0.083,0.191-0.162,0.289-0.242c0.047-0.04,0.095-0.081,0.141-0.121
			c0.17-0.146,0.298-0.354,0.343-0.573c0.025-0.127,0.041-0.257,0.028-0.385c-0.013-0.131-0.03-0.258-0.072-0.383
			c-0.07-0.211-0.172-0.405-0.307-0.582c-0.126-0.167-0.259-0.321-0.408-0.468c-0.132-0.129-0.271-0.251-0.414-0.371
			c-0.279-0.233-0.58-0.443-0.873-0.658c-0.068-0.05-0.142-0.096-0.212-0.143c-0.147-0.096-0.295-0.193-0.441-0.288
			c-0.192-0.125-0.383-0.254-0.572-0.381c-0.18-0.12-0.358-0.232-0.531-0.36c-0.253-0.186-0.505-0.372-0.76-0.555
			c-0.003-0.003-0.008-0.006-0.011-0.008c-0.355-0.276-0.71-0.551-1.062-0.833c-0.233-0.186-0.467-0.378-0.705-0.561
			c-0.228-0.175-0.458-0.349-0.687-0.521c-0.301-0.231-0.603-0.461-0.906-0.689c-0.168-0.125-0.336-0.249-0.512-0.366
			c-0.088-0.058-0.176-0.118-0.264-0.176C24.489,14.582,24.21,14.441,23.939,14.292L23.939,14.292L23.939,14.292"/>
	</g>
</g>
</svg>
