<?xml version="1.0" encoding="utf-8"?>
<!-- Generator: Adobe Illustrator 15.0.0, SVG Export Plug-In . SVG Version: 6.00 Build 0)  -->
<!DOCTYPE svg PUBLIC "-//W3C//DTD SVG 1.1//EN" "http://www.w3.org/Graphics/SVG/1.1/DTD/svg11.dtd">
<svg version="1.1" id="Capa_1" xmlns="http://www.w3.org/2000/svg" xmlns:xlink="http://www.w3.org/1999/xlink" x="0px" y="0px"
	 width="44px" height="44px" viewBox="0 0 44 44" enable-background="new 0 0 44 44" xml:space="preserve">
<path fill="#FF9435" d="M22.283,22.448c-0.041,0.027-0.083,0.052-0.125,0.078c0.007-0.011,0.014-0.022,0.021-0.033
	c0.008-0.008,0.014-0.016,0.022-0.022C22.228,22.463,22.255,22.456,22.283,22.448 M20.785,13.403
	c-2.347,0.211-4.405,1.645-5.644,3.616c-0.513,0.818-0.849,1.766-1.098,2.695c-0.337,1.262-0.391,2.558-0.163,3.841
	c0.215,1.215,0.794,2.315,1.584,3.252c0.662,0.782,1.495,1.293,2.403,1.69c0.334,0.299,0.715,0.557,1.08,0.801
	c0.546,0.367,1.208,0.603,1.821,0.824c0.402,0.146,0.831,0.222,1.25,0.297c0.602,0.107,1.209,0.171,1.821,0.193
	c1.304,0.05,2.559-0.349,3.562-1.184c1.102-0.916,1.688-2.301,1.912-3.72c0.093-0.133,0.182-0.271,0.268-0.412
	c0.451-0.751,0.626-1.604,0.669-2.468c0.046-0.877-0.169-1.731-0.461-2.551c-0.026-0.125-0.058-0.247-0.092-0.359
	c-0.173-0.559-0.402-0.985-0.69-1.401c-0.639-1.178-1.482-2.269-2.486-3.112c-0.795-0.668-1.655-1.104-2.609-1.5
	c-0.388-0.162-0.793-0.267-1.203-0.353c-0.484-0.102-0.981-0.169-1.477-0.169C21.083,13.384,20.933,13.39,20.785,13.403"/>
<g id="Capa_2">
	<path opacity="0.9753" fill="#292521" enable-background="new    " d="M24.236,11.505c0.048,0.005,0.096,0.012,0.144,0.018
		C24.332,11.518,24.284,11.511,24.236,11.505 M19.801,11.37c0.306-0.018,0.617-0.037,0.923-0.033
		c0.271,0.005,0.543,0.007,0.815,0.01c0.252,0.002,0.503,0.004,0.755,0.005c0.625,0.002,1.254,0.064,1.875,0.144
		c0.815,0.119,1.616,0.309,2.381,0.617c0.531,0.237,1.026,0.523,1.489,0.871c0.246,0.198,0.482,0.406,0.707,0.625
		c-0.033-0.004-0.065-0.01-0.099-0.016c-0.416-0.063-0.835-0.115-1.254-0.171c-0.151-0.021-0.303-0.041-0.453-0.062
		c-0.003-0.001-0.003,0.002-0.001,0.002c0.741,0.289,1.493,0.546,2.229,0.853c0.087,0.037,0.173,0.076,0.257,0.115
		c0.14,0.16,0.274,0.324,0.405,0.491c0.377,0.492,0.72,1.01,1.067,1.524c0.367,0.543,0.739,1.085,1.11,1.625
		c0.002,0.002,0.003,0.001,0.003,0c-0.317-0.824-0.643-1.647-0.979-2.464c0.263,0.287,0.508,0.591,0.747,0.892
		c0.245,0.336,0.469,0.684,0.643,1.061c0.13,0.332,0.221,0.671,0.279,1.022c0.094,0.856,0.037,1.718-0.04,2.573
		c-0.063,0.679-0.139,1.355-0.224,2.031c-0.106,0.622-0.208,1.245-0.364,1.856c-0.082,0.315-0.152,0.638-0.257,0.948
		c-0.16,0.481-0.318,0.955-0.508,1.424c-0.317,0.726-0.68,1.427-1.148,2.067c-0.161,0.198-0.331,0.388-0.513,0.569
		c-0.156,0.155-0.326,0.295-0.499,0.431c-0.79,0.599-1.647,1.128-2.554,1.531c-0.639,0.249-1.295,0.424-1.97,0.529
		c-0.66,0.075-1.325,0.081-1.991,0.059c-0.684-0.024-1.371-0.079-2.052-0.163c-0.47-0.068-0.938-0.148-1.399-0.264
		c-0.492-0.122-0.975-0.281-1.445-0.47c-0.903-0.4-1.754-0.904-2.544-1.497c-0.703-0.564-1.327-1.21-1.892-1.914
		c-0.424-0.572-0.786-1.185-1.079-1.835c-0.191-0.479-0.339-0.966-0.422-1.476c-0.136-1.23-0.058-2.468-0.011-3.702
		c0.012-0.303,0.041-0.606,0.063-0.908c0.036-0.47,0.074-0.938,0.13-1.407c0.146-1.001,0.391-1.982,0.764-2.924
		c0.283-0.636,0.626-1.246,1.039-1.808c0.342-0.419,0.724-0.804,1.143-1.145c0.49-0.357,1.013-0.659,1.566-0.907
		c0.785-0.31,1.6-0.511,2.434-0.636C19.219,11.412,19.51,11.386,19.801,11.37 M19.112,9.119c-1.004,0.06-2.011,0.225-2.963,0.555
		c-0.932,0.323-1.82,0.792-2.602,1.396c-0.397,0.306-0.77,0.629-1.114,0.995c-0.367,0.39-0.692,0.825-0.987,1.272
		c-0.548,0.834-0.949,1.769-1.261,2.715c-0.321,0.975-0.476,1.996-0.595,3.012c-0.049,0.422-0.075,0.845-0.106,1.269
		c-0.02,0.27-0.046,0.541-0.055,0.812c-0.041,1.128-0.109,2.259-0.021,3.387c0.04,0.513,0.106,1.029,0.23,1.53
		c0.134,0.544,0.359,1.065,0.586,1.578c0.401,0.905,0.979,1.714,1.607,2.473c1.207,1.453,2.751,2.62,4.455,3.433
		c0.893,0.429,1.832,0.753,2.802,0.95c1.015,0.204,2.05,0.304,3.081,0.371c0.463,0.03,0.925,0.037,1.39,0.034
		c0.573-0.004,1.134-0.065,1.7-0.147c0.999-0.144,1.95-0.474,2.856-0.906c0.835-0.398,1.628-0.897,2.369-1.451
		c0.396-0.298,0.781-0.601,1.127-0.96c0.377-0.395,0.708-0.842,1.008-1.297c0.237-0.365,0.437-0.75,0.618-1.145
		c0.233-0.511,0.438-1.03,0.617-1.562c0.116-0.351,0.206-0.713,0.305-1.067c0.032-0.121,0.049-0.246,0.073-0.368
		c0.038-0.192,0.076-0.388,0.111-0.58c0.028-0.145,0.042-0.292,0.062-0.437c0.037-0.263,0.082-0.528,0.109-0.792
		c0.058-0.628,0.111-1.255,0.119-1.886c0.006-0.662,0-1.324-0.025-1.986c-0.014-0.305-0.046-0.608-0.077-0.912
		c-0.086-0.846-0.303-1.665-0.704-2.416c-0.478-0.888-1.271-1.573-2.061-2.179c-0.199-0.154-0.399-0.308-0.612-0.444
		c-0.263-0.169-0.555-0.301-0.852-0.405c-0.195-0.357-0.411-0.703-0.648-1.038c-0.557-0.782-1.229-1.447-2.021-1.988
		c-0.362-0.248-0.75-0.454-1.149-0.634c-0.49-0.22-0.996-0.409-1.513-0.555c-1.287-0.365-2.617-0.489-3.945-0.597
		C20.638,9.116,20.248,9.1,19.858,9.1C19.609,9.097,19.36,9.104,19.112,9.119"/>
</g>
</svg>
