<?xml version="1.0" encoding="utf-8"?>
<!-- Generator: Adobe Illustrator 15.0.0, SVG Export Plug-In . SVG Version: 6.00 Build 0)  -->
<!DOCTYPE svg PUBLIC "-//W3C//DTD SVG 1.1//EN" "http://www.w3.org/Graphics/SVG/1.1/DTD/svg11.dtd">
<svg version="1.1" id="Capa_1" xmlns="http://www.w3.org/2000/svg" xmlns:xlink="http://www.w3.org/1999/xlink" x="0px" y="0px"
	 width="44px" height="44px" viewBox="0 0 44 44" enable-background="new 0 0 44 44" xml:space="preserve">
<path opacity="0.9753" fill="#292521" d="M13.766,18.772c0.013-0.016,0.025-0.031,0.037-0.047
	C13.791,18.741,13.779,18.757,13.766,18.772 M14.668,31.034c-0.03-0.003-0.059-0.007-0.088-0.012
	C14.609,31.027,14.638,31.031,14.668,31.034 M25.295,11.569c0.261,0.004,0.523,0.031,0.783,0.064
	c0.373,0.056,0.734,0.144,1.086,0.277c0.234,0.108,0.455,0.237,0.664,0.388c0.207,0.173,0.393,0.365,0.564,0.572
	c0.102,0.142,0.189,0.288,0.266,0.445c0.059,0.158,0.104,0.318,0.134,0.484c0.056,0.591-0.02,1.172-0.091,1.758
	c-0.062,0.331-0.123,0.663-0.186,0.994c-0.021,0.108-0.055,0.215-0.082,0.322c-0.059,0.227-0.117,0.454-0.176,0.68
	c-0.075,0.288-0.167,0.57-0.257,0.854c-0.163,0.516-0.333,1.026-0.537,1.527c-0.183,0.423-0.39,0.835-0.617,1.235
	c-0.239,0.422-0.515,0.824-0.804,1.212c-0.238,0.299-0.487,0.589-0.749,0.867c-0.303,0.32-0.65,0.6-0.987,0.881
	c-0.255,0.192-0.511,0.384-0.767,0.575c0.171-0.292,0.339-0.584,0.508-0.877c0.07-0.122,0.142-0.246,0.212-0.369
	c0.128-0.222,0.235-0.455,0.349-0.685c0.425-0.855,0.833-1.719,1.274-2.567c0.001-0.001-0.001-0.002-0.002-0.001
	c-0.5,0.694-0.999,1.389-1.52,2.067c0.002-0.002,0.004-0.004,0.006-0.007c-0.406,0.525-0.832,1.032-1.255,1.544
	c-0.334,0.405-0.666,0.812-0.999,1.219c-0.122,0.147-0.263,0.285-0.393,0.428c-0.235,0.257-0.47,0.516-0.703,0.775
	c-0.462,0.513-0.948,1.012-1.463,1.476c-0.574,0.397-1.168,0.764-1.812,1.043c-0.422,0.172-0.85,0.295-1.298,0.381
	c-0.322,0.061-0.646,0.114-0.969,0.167c-0.269-0.018-0.536-0.04-0.804-0.065c0.066,0.009,0.134,0.019,0.201,0.026
	c-0.184-0.023-0.367-0.048-0.55-0.076c-0.444-0.071-0.876-0.179-1.296-0.342c-0.231-0.104-0.45-0.225-0.659-0.369
	c-0.197-0.166-0.375-0.349-0.539-0.546c-0.134-0.186-0.252-0.381-0.351-0.587c-0.058-0.161-0.1-0.325-0.13-0.495
	c-0.026-0.272-0.027-0.546-0.031-0.82c-0.002-0.164-0.002-0.328,0.005-0.49c0.015-0.437,0.036-0.872,0.088-1.306
	c0.052-0.353,0.127-0.702,0.234-1.041c0.07-0.224,0.14-0.447,0.21-0.671c0.056-0.181,0.127-0.358,0.192-0.537
	c0.095-0.267,0.193-0.531,0.301-0.794c0.265-0.602,0.583-1.191,0.956-1.733c0.098-0.143,0.196-0.285,0.294-0.427
	c0.065-0.095,0.126-0.193,0.196-0.285c-0.011,0.014-0.022,0.029-0.032,0.043c0.002-0.004,0.005-0.007,0.007-0.011
	c-0.028,0.037-0.055,0.073-0.084,0.109c0.205-0.265,0.41-0.529,0.614-0.794c-0.041,0.052-0.08,0.104-0.12,0.156
	c0.125-0.163,0.259-0.316,0.393-0.473c0.133-0.157,0.26-0.322,0.402-0.471c0.157-0.165,0.316-0.329,0.473-0.493
	c0.115-0.119,0.225-0.244,0.347-0.356c0.187-0.172,0.374-0.344,0.562-0.517c0.116-0.107,0.23-0.219,0.351-0.321
	c0.388-0.328,0.772-0.66,1.171-0.975c0.464-0.351,0.947-0.666,1.456-0.951c0.449-0.251,0.918-0.467,1.388-0.679
	c0.557-0.25,1.113-0.505,1.676-0.747c0.354-0.146,0.714-0.28,1.078-0.399c0.355-0.117,0.723-0.2,1.093-0.257
	C24.809,11.579,25.051,11.564,25.295,11.569 M24.072,10.001c-0.354,0.058-0.702,0.148-1.041,0.262
	c-0.963,0.322-1.875,0.775-2.791,1.208c-0.35,0.165-0.702,0.33-1.049,0.502c-0.62,0.305-1.219,0.662-1.778,1.069
	c-0.631,0.458-1.215,0.97-1.806,1.476c-0.165,0.141-0.319,0.295-0.479,0.442c-0.158,0.148-0.326,0.29-0.476,0.446
	c-0.214,0.224-0.428,0.447-0.643,0.67c-0.135,0.142-0.262,0.29-0.389,0.439c-0.151,0.177-0.31,0.349-0.453,0.532
	c-0.186,0.237-0.372,0.475-0.558,0.711c-0.176,0.226-0.339,0.461-0.505,0.695c-0.268,0.38-0.521,0.77-0.75,1.176
	c-0.438,0.778-0.749,1.613-1.062,2.446c-0.093,0.247-0.167,0.503-0.25,0.754c-0.176,0.534-0.271,1.108-0.327,1.665
	c-0.051,0.501-0.09,0.999-0.119,1.5c-0.007,0.12-0.012,0.239-0.019,0.36c-0.017,0.339-0.005,0.669,0.048,1.006
	c0.026,0.164,0.061,0.324,0.113,0.482c0.063,0.189,0.148,0.374,0.235,0.554c0.163,0.338,0.405,0.641,0.646,0.924
	c0.237,0.275,0.517,0.501,0.808,0.715c0.313,0.229,0.671,0.375,1.027,0.522c0.576,0.237,1.186,0.34,1.798,0.422
	c0.108,0.015,0.216,0.029,0.325,0.043c-0.051-0.007-0.101-0.013-0.152-0.021c0.556,0.076,1.111,0.107,1.672,0.123
	c0.322,0.009,0.641-0.021,0.958-0.07c0.402-0.062,0.773-0.192,1.146-0.354c0.654-0.285,1.238-0.712,1.767-1.186
	c0.508-0.457,0.953-0.983,1.374-1.519c0.104-0.132,0.207-0.266,0.307-0.398c0.134-0.081,0.269-0.162,0.396-0.252
	c0.259-0.184,0.515-0.368,0.771-0.556c0.432-0.315,0.842-0.658,1.251-1.001c0.356-0.3,0.713-0.6,1.067-0.901
	c0.532-0.452,1.037-0.931,1.493-1.46c0.469-0.545,0.894-1.125,1.271-1.736c0.552-0.898,0.96-1.869,1.318-2.857
	c0.056-0.158,0.112-0.315,0.17-0.472c0.026-0.076,0.06-0.151,0.082-0.229c0.077-0.261,0.156-0.522,0.234-0.783
	c0.055-0.182,0.111-0.361,0.153-0.545c0.066-0.296,0.134-0.593,0.2-0.889c0.054-0.238,0.084-0.484,0.123-0.725
	c0.093-0.551,0.165-1.116,0.098-1.674c-0.024-0.198-0.057-0.389-0.11-0.58c-0.053-0.187-0.134-0.365-0.212-0.541
	c-0.065-0.148-0.155-0.285-0.247-0.418c-0.13-0.19-0.276-0.372-0.429-0.544c-0.239-0.272-0.53-0.498-0.828-0.703
	c-0.324-0.223-0.693-0.378-1.062-0.51c-0.306-0.108-0.623-0.17-0.942-0.217c-0.411-0.06-0.825-0.107-1.243-0.114
	c-0.017,0-0.034,0-0.052,0C24.792,9.889,24.428,9.942,24.072,10.001"/>
<path opacity="0.9753" fill="#292521" d="M19.866,20.157c0.003,0.004,0.007,0.009,0.011,0.014
	C19.874,20.167,19.87,20.162,19.866,20.157 M19.876,20.14c0.006,0.012,0.01,0.023,0.015,0.035
	C19.885,20.164,19.881,20.152,19.876,20.14 M21.913,18.325c-0.034,0.102-0.069,0.203-0.108,0.302
	c-0.132,0.285-0.304,0.558-0.493,0.808c-0.167,0.205-0.35,0.393-0.556,0.56c-0.118,0.084-0.242,0.159-0.374,0.22
	c-0.061,0.021-0.121,0.038-0.184,0.05c-0.046,0.002-0.091,0.003-0.139,0.001c-0.029-0.006-0.058-0.014-0.088-0.023
	c-0.014-0.007-0.028-0.015-0.042-0.023c0.009-0.033,0.021-0.065,0.033-0.097c0.043-0.091,0.095-0.174,0.154-0.257
	c0.282-0.344,0.626-0.626,0.973-0.903C21.368,18.754,21.643,18.542,21.913,18.325 M22.123,17.679
	c-0.038,0.108-0.073,0.216-0.107,0.325c-0.359,0.136-0.716,0.28-1.071,0.432c-0.288,0.123-0.566,0.264-0.831,0.43
	c-0.221,0.139-0.431,0.305-0.615,0.49c-0.173,0.175-0.337,0.412-0.409,0.651c-0.03,0.097-0.041,0.196-0.045,0.296
	c-0.007,0.135,0.057,0.28,0.124,0.393c0.139,0.233,0.404,0.377,0.664,0.425c0.567,0.106,1.09-0.21,1.458-0.615
	c0.341-0.375,0.566-0.839,0.706-1.321c0.069-0.238,0.115-0.472,0.131-0.719c0.007-0.106,0.008-0.212,0.008-0.319
	c0.134-0.109,0.268-0.219,0.4-0.33c0.001,0,0-0.002-0.001-0.002c-0.136,0.047-0.27,0.096-0.403,0.146
	c-0.002-0.094-0.005-0.188-0.005-0.281C22.126,17.679,22.125,17.679,22.123,17.679C22.124,17.679,22.123,17.679,22.123,17.679"/>
<path opacity="0.9753" fill="#292521" d="M28.613,11.735c-0.556,0.492-1.101,0.997-1.629,1.519
	c-0.341,0.337-0.684,0.673-1.021,1.015c-0.677,0.688-1.365,1.364-2.022,2.07c-0.256,0.276-0.516,0.549-0.776,0.821
	c-0.477,0.498-0.977,0.975-1.451,1.475c-0.001,0.001,0,0.002,0.002,0.001c0.481-0.251,0.959-0.509,1.418-0.802
	c0.215-0.137,0.424-0.281,0.632-0.427c0.403-0.281,0.787-0.594,1.165-0.907c0.207-0.17,0.407-0.347,0.607-0.524
	c0.169-0.151,0.323-0.319,0.479-0.484c0.133-0.141,0.267-0.282,0.389-0.434c0.219-0.272,0.433-0.548,0.643-0.828
	c0.216-0.288,0.41-0.591,0.605-0.894c0.337-0.523,0.656-1.058,0.962-1.601C28.615,11.736,28.615,11.735,28.613,11.735
	C28.614,11.735,28.614,11.735,28.613,11.735"/>
<path opacity="0.9753" fill="#292521" d="M23.968,9.823c-0.48,1.094-0.908,2.21-1.308,3.336c-0.068,0.194-0.126,0.392-0.199,0.584
	c-0.109,0.282-0.21,0.568-0.303,0.856c-0.064,0.203-0.143,0.401-0.214,0.603c-0.072,0.206-0.143,0.414-0.216,0.62
	c-0.318,0.908-0.629,1.823-0.904,2.746c0,0.001,0.002,0.002,0.003,0.001c0.459-0.664,0.906-1.341,1.298-2.047
	c0.263-0.473,0.508-0.952,0.735-1.443c0.105-0.226,0.188-0.464,0.271-0.698c0.064-0.181,0.13-0.363,0.178-0.55
	c0.118-0.454,0.23-0.912,0.312-1.375c0.151-0.873,0.266-1.75,0.348-2.631C23.971,9.823,23.97,9.822,23.968,9.823
	C23.969,9.822,23.968,9.822,23.968,9.823"/>
<path opacity="0.9753" fill="#292521" d="M18.862,17.234c0.003,0.006,0.005,0.011,0.007,0.017
	C18.867,17.246,18.865,17.24,18.862,17.234 M17.137,13.376c0.268,0.704,0.577,1.39,0.898,2.07c0.066,0.141,0.136,0.281,0.206,0.42
	c0.082,0.158,0.141,0.327,0.218,0.486c0.147,0.302,0.285,0.609,0.417,0.917c0.116,0.281,0.216,0.565,0.302,0.858
	c0.095,0.329,0.179,0.661,0.281,0.987c0,0.001,0.002,0.001,0.002,0c0.025-0.506,0.063-1.013,0.003-1.518
	c-0.041-0.343-0.12-0.678-0.227-1.005c-0.059-0.183-0.12-0.363-0.197-0.54c-0.076-0.174-0.153-0.358-0.251-0.52
	c-0.475-0.775-1.042-1.482-1.651-2.157c0,0-0.001,0-0.001,0C17.137,13.375,17.136,13.375,17.137,13.376"/>
<path opacity="0.9753" fill="#292521" d="M16.216,20.587c-0.191,0.04-0.377,0.092-0.565,0.144c-0.214,0.06-0.434,0.115-0.643,0.192
	c-0.31,0.114-0.615,0.239-0.919,0.368c-0.229,0.097-0.45,0.223-0.67,0.338c-0.521,0.271-1.012,0.605-1.487,0.951
	c-0.252,0.184-0.506,0.368-0.748,0.567c-0.396,0.326-0.777,0.671-1.152,1.022c-0.001,0.001,0,0.002,0.001,0.002
	c0.612-0.27,1.204-0.583,1.812-0.864c0.404-0.188,0.811-0.371,1.216-0.559c0.216-0.088,0.429-0.179,0.643-0.271
	c0.238-0.091,0.476-0.186,0.712-0.282c0.233-0.096,0.473-0.174,0.706-0.268c0.19-0.077,0.383-0.146,0.575-0.217
	c0.214-0.079,0.425-0.168,0.641-0.244c1.048-0.366,2.084-0.781,3.1-1.23c0.121-0.054,0.243-0.108,0.364-0.164
	c0.001,0,0.001-0.002-0.001-0.002C18.598,20.178,17.399,20.339,16.216,20.587"/>
<path opacity="0.9753" fill="#292521" d="M19.732,20.48c-0.432,0.576-0.855,1.16-1.267,1.75c-0.249,0.359-0.486,0.727-0.736,1.085
	c-0.195,0.282-0.386,0.565-0.574,0.852c-0.09,0.14-0.176,0.283-0.272,0.419c-0.278,0.399-0.539,0.811-0.806,1.217
	c-0.425,0.647-0.819,1.313-1.227,1.971c-0.225,0.361-0.448,0.723-0.678,1.082c-0.1,0.156-0.205,0.309-0.307,0.464
	c-0.245,0.369-0.47,0.75-0.69,1.135c0,0.001,0,0.002,0.001,0.002c0.38-0.347,0.745-0.708,1.118-1.06
	c0.187-0.176,0.367-0.357,0.547-0.539c0.307-0.311,0.595-0.642,0.876-0.974c0.362-0.43,0.713-0.866,1.055-1.312
	c0.118-0.153,0.238-0.307,0.348-0.467c0.181-0.264,0.352-0.533,0.521-0.805c0.173-0.28,0.323-0.569,0.474-0.862
	c0.162-0.317,0.33-0.635,0.471-0.962c0.422-0.984,0.807-1.98,1.148-2.996C19.735,20.48,19.734,20.479,19.732,20.48
	C19.733,20.479,19.733,20.479,19.732,20.48"/>
<path opacity="0.9753" fill="#292521" d="M20.074,20.208c0.111,0.341,0.227,0.681,0.349,1.018c0.13,0.358,0.254,0.715,0.352,1.083
	c0.152,0.569,0.247,1.15,0.336,1.732c-0.004-0.035-0.009-0.071-0.014-0.107c0.041,0.31,0.106,0.614,0.159,0.923
	c0.051,0.293,0.105,0.584,0.155,0.876c0.127,0.754,0.229,1.512,0.37,2.263c0,0.002,0.002,0.002,0.002,0
	c0.168-1.044,0.264-2.099,0.214-3.156c-0.022-0.501-0.085-1.004-0.193-1.492c-0.137-0.604-0.368-1.192-0.686-1.723
	c-0.153-0.255-0.333-0.495-0.512-0.733c-0.173-0.232-0.349-0.459-0.531-0.684c0,0,0,0,0,0
	C20.074,20.206,20.074,20.207,20.074,20.208"/>
<path opacity="0.9753" fill="#292521" d="M21.372,19.662c0.508,0.261,1.025,0.497,1.554,0.715c0.195,0.081,0.403,0.138,0.604,0.202
	c0.183,0.057,0.366,0.104,0.553,0.148c0.193,0.046,0.389,0.082,0.583,0.125c0.221,0.048,0.449,0.068,0.673,0.105
	c0.337,0.056,0.675,0.1,1.01,0.169c0.577,0.121,1.102,0.381,1.65,0.585c0.001,0,0.002-0.001,0.001-0.002
	c-0.257-0.217-0.511-0.439-0.779-0.641c-0.274-0.206-0.574-0.357-0.89-0.489c-0.3-0.126-0.615-0.216-0.928-0.304
	c-0.495-0.141-1.022-0.21-1.534-0.275c-0.269-0.043-0.537-0.081-0.809-0.113c-0.56-0.095-1.123-0.167-1.688-0.228
	C21.372,19.659,21.371,19.661,21.372,19.662"/>
<path opacity="0.9753" fill="#292521" d="M11.981,28.905c-0.001-0.002-0.002-0.003-0.003-0.004
	C11.979,28.902,11.98,28.903,11.981,28.905 M29.502,11.874c0.244,0.56,0.486,1.12,0.733,1.678c0.098,0.246,0.204,0.489,0.289,0.739
	c0.055,0.161,0.109,0.322,0.165,0.482c0.054,0.157,0.091,0.321,0.137,0.48c0.073,0.257,0.139,0.517,0.191,0.779
	c0.054,0.265,0.094,0.53,0.132,0.798c0.062,0.684,0.114,1.364,0.108,2.052c-0.002,0.362-0.014,0.723-0.022,1.085
	c-0.013,0.471-0.031,0.948-0.084,1.416c-0.05,0.313-0.117,0.62-0.209,0.924c-0.088,0.289-0.194,0.571-0.309,0.85
	c-0.176,0.392-0.351,0.781-0.524,1.174c-0.17,0.379-0.331,0.768-0.523,1.138c-0.101,0.192-0.194,0.39-0.301,0.579
	c-0.105,0.19-0.203,0.39-0.32,0.572c-0.242,0.381-0.488,0.757-0.744,1.128c-0.257,0.329-0.517,0.655-0.808,0.955
	c-0.192,0.199-0.387,0.389-0.591,0.575c-0.136,0.124-0.276,0.238-0.419,0.351c-0.297,0.203-0.593,0.41-0.908,0.581
	c-0.172,0.093-0.34,0.198-0.518,0.28c-0.148,0.068-0.297,0.137-0.446,0.205c-0.678,0.255-1.357,0.498-2.044,0.733
	c-0.683,0.233-1.389,0.408-2.098,0.541c-0.091,0.014-0.182,0.025-0.273,0.037c-0.266,0.026-0.53,0.052-0.796,0.072
	c-0.202,0.017-0.404,0.032-0.606,0.043c-0.351,0.018-0.702,0.001-1.05-0.04c-0.569-0.088-1.122-0.244-1.67-0.417
	c-0.358-0.112-0.707-0.257-1.056-0.394c-0.495-0.215-0.983-0.432-1.418-0.756c-0.151-0.126-0.308-0.25-0.441-0.395
	c-0.145-0.158-0.284-0.319-0.419-0.485c-0.083-0.109-0.16-0.221-0.235-0.335c-0.057-0.088-0.105-0.175-0.178-0.252
	c-0.129-0.14-0.291-0.249-0.437-0.371c-0.001-0.001-0.002,0-0.001,0.001c0.056,0.077,0.116,0.153,0.175,0.23
	c-0.001-0.002-0.001-0.003-0.002-0.004c0.078,0.101,0.156,0.203,0.21,0.319c0.15,0.436,0.355,0.859,0.624,1.234
	c0.21,0.294,0.441,0.566,0.713,0.804c0.226,0.197,0.477,0.376,0.729,0.539c0.227,0.146,0.455,0.287,0.687,0.426
	c0.182,0.107,0.365,0.219,0.556,0.313c0.686,0.341,1.389,0.663,2.137,0.841c0.805,0.191,1.642,0.187,2.466,0.173
	c0.546-0.009,1.092-0.097,1.631-0.191c0.946-0.165,1.873-0.456,2.782-0.763c0.1-0.033,0.197-0.074,0.296-0.11
	c0.171-0.065,0.345-0.125,0.509-0.203c0.214-0.101,0.434-0.192,0.64-0.307c0.229-0.128,0.457-0.256,0.681-0.394
	c0.221-0.137,0.432-0.281,0.644-0.431c0.125-0.088,0.243-0.185,0.361-0.281c0.1-0.082,0.205-0.158,0.3-0.246
	c0.171-0.158,0.347-0.312,0.509-0.481c0.176-0.183,0.348-0.365,0.514-0.557c0.167-0.192,0.324-0.388,0.48-0.589
	c0.236-0.304,0.471-0.613,0.677-0.941c0.111-0.177,0.224-0.354,0.336-0.533c0.096-0.152,0.177-0.316,0.264-0.475
	c0.341-0.614,0.622-1.256,0.896-1.903c-0.012,0.025-0.021,0.051-0.033,0.076c0.239-0.564,0.486-1.129,0.689-1.708
	c0.241-0.689,0.383-1.403,0.417-2.133c0.019-0.392-0.009-0.784-0.028-1.174c-0.026-0.484-0.07-0.967-0.124-1.449
	c-0.056-0.499-0.132-1.005-0.248-1.495c-0.108-0.456-0.218-0.911-0.379-1.352c-0.175-0.473-0.386-0.927-0.605-1.381
	c-0.043-0.089-0.096-0.173-0.144-0.259c-0.054-0.094-0.102-0.194-0.161-0.285c-0.133-0.205-0.266-0.411-0.4-0.616
	c-0.138-0.211-0.296-0.41-0.443-0.614c-0.217-0.298-0.437-0.594-0.658-0.889c0,0-0.001,0-0.001,0S29.501,11.873,29.502,11.874"/>
<path opacity="0.9753" fill="#292521" d="M30.048,26.493c0.019,0.348,0.043,0.695,0.072,1.043c0.033,0.384,0.085,0.77,0.045,1.155
	c-0.016,0.081-0.035,0.158-0.061,0.236c-0.036,0.071-0.077,0.139-0.123,0.205c-0.074,0.083-0.153,0.158-0.238,0.229
	c-0.149,0.104-0.307,0.187-0.472,0.261c-0.479,0.188-0.984,0.276-1.49,0.36c-0.127,0.016-0.253,0.022-0.383,0.014
	c-0.053-0.013-0.104-0.028-0.156-0.048c-0.168-0.082-0.319-0.186-0.468-0.298c-0.231-0.185-0.452-0.383-0.688-0.564
	c-0.001-0.001-0.002,0.001-0.001,0.002c0.246,0.388,0.458,0.799,0.78,1.132c0.155,0.161,0.346,0.269,0.561,0.324
	c0.171,0.045,0.352,0.051,0.527,0.054c0.584,0.012,1.218-0.029,1.749-0.287c0.441-0.214,0.841-0.555,1.016-1.025
	c0.176-0.474,0.048-0.978-0.11-1.437c-0.159-0.461-0.359-0.913-0.559-1.357l-0.001-0.001C30.048,26.491,30.048,26.492,30.048,26.493
	"/>
<path opacity="0.9753" fill="#292521" d="M28.136,10.712c0.203,0.087,0.411,0.164,0.616,0.25c0.135,0.06,0.268,0.123,0.39,0.207
	c0.055,0.044,0.103,0.091,0.15,0.144c0.069,0.095,0.126,0.193,0.175,0.3c0.058,0.156,0.098,0.313,0.123,0.477
	c0.032,0.316,0.003,0.627-0.024,0.942c-0.021,0.241-0.046,0.481-0.073,0.722c-0.067,0.453-0.159,0.9-0.252,1.349
	c-0.098,0.468-0.19,0.938-0.291,1.406c-0.096,0.452-0.207,0.901-0.312,1.351c-0.058,0.248-0.125,0.493-0.19,0.739
	c-0.022,0.085-0.051,0.168-0.078,0.252c-0.039,0.12-0.071,0.244-0.118,0.361c-0.118,0.303-0.239,0.604-0.363,0.905
	c-0.298,0.63-0.612,1.25-0.952,1.86c-0.156,0.28-0.321,0.557-0.496,0.825c-0.096,0.146-0.184,0.302-0.286,0.441
	c-0.106,0.146-0.214,0.293-0.32,0.438c-0.229,0.294-0.459,0.588-0.699,0.873c-0.311,0.368-0.636,0.722-0.969,1.068
	c-0.32,0.334-0.647,0.659-0.985,0.977c-0.279,0.265-0.591,0.501-0.896,0.738c-0.273,0.2-0.548,0.399-0.824,0.598
	c-0.439,0.314-0.889,0.62-1.382,0.845c-0.265,0.102-0.535,0.176-0.815,0.223c-0.447,0.047-0.899,0.058-1.348,0.075
	c-0.39,0.015-0.78,0.021-1.17,0.022c-0.844,0.003-1.691,0.024-2.531-0.078c-0.421-0.062-0.825-0.165-1.219-0.325
	c-0.406-0.18-0.787-0.402-1.167-0.629c-0.347-0.207-0.694-0.413-1.042-0.62c-0.001-0.001-0.001,0.001-0.001,0.001
	c0.337,0.328,0.677,0.65,1.019,0.973c0.475,0.444,0.984,0.854,1.579,1.125c0.443,0.202,0.916,0.34,1.393,0.438
	c0.331,0.068,0.663,0.129,0.999,0.177c-0.024-0.003-0.047-0.007-0.071-0.01c0.216,0.029,0.432,0.059,0.647,0.087
	c-0.05-0.007-0.1-0.014-0.15-0.021c0.538,0.073,1.077,0.139,1.618,0.189c0.208,0.02,0.417,0.038,0.626,0.05
	c0.417,0.026,0.831,0.055,1.247,0.012c0.356-0.037,0.698-0.109,1.037-0.227c0.358-0.125,0.704-0.292,1.035-0.479
	c0.206-0.115,0.408-0.24,0.606-0.368c0.433-0.277,0.855-0.563,1.267-0.872c0.42-0.313,0.833-0.644,1.197-1.022
	c0.328-0.341,0.661-0.678,0.979-1.029c0.348-0.385,0.677-0.781,1-1.187c0.177-0.222,0.357-0.442,0.524-0.67
	c0.131-0.176,0.271-0.348,0.389-0.533c0.271-0.424,0.529-0.853,0.758-1.302c0.222-0.438,0.421-0.884,0.614-1.334
	c0.208-0.481,0.386-0.974,0.534-1.477c0.075-0.253,0.138-0.503,0.195-0.761c0.053-0.237,0.087-0.476,0.124-0.716
	c0.081-0.511,0.124-1.029,0.181-1.543c0.053-0.467,0.081-0.937,0.112-1.406c0.032-0.477,0.058-0.951,0.048-1.428
	c-0.009-0.476-0.032-0.951-0.069-1.426c-0.035-0.442-0.156-0.874-0.394-1.25c-0.155-0.245-0.374-0.422-0.638-0.531
	c-0.147-0.061-0.315-0.083-0.471-0.11c-0.193-0.034-0.388-0.057-0.581-0.09C28.135,10.71,28.134,10.712,28.136,10.712"/>
</svg>
