<?xml version="1.0" encoding="utf-8"?>
<!-- Generator: Adobe Illustrator 15.0.0, SVG Export Plug-In . SVG Version: 6.00 Build 0)  -->
<!DOCTYPE svg PUBLIC "-//W3C//DTD SVG 1.1//EN" "http://www.w3.org/Graphics/SVG/1.1/DTD/svg11.dtd">
<svg version="1.1" id="Capa_1" xmlns="http://www.w3.org/2000/svg" xmlns:xlink="http://www.w3.org/1999/xlink" x="0px" y="0px"
	 width="20px" height="20px" viewBox="12.5 12.5 20 20" enable-background="new 12.5 12.5 20 20" xml:space="preserve">
<path fill="#9D9995" d="M23.82,29.505L23.82,29.505c0.001-0.001,0.002-0.002,0.002-0.003C23.822,29.503,23.821,29.504,23.82,29.505
	 M23.106,15.062c-0.171,0.12-0.25,0.19-0.369,0.361c-0.038,0.056-0.07,0.124-0.099,0.19c-0.322,0.405-0.631,0.817-0.917,1.251
	c-0.284,0.429-0.58,0.85-0.883,1.266c-0.291,0.398-0.573,0.801-0.849,1.208c-0.146,0.218-0.292,0.437-0.427,0.663
	c-0.125,0.213-0.242,0.431-0.357,0.65c-0.273,0.515-0.497,1.05-0.703,1.595c-0.176,0.467-0.363,0.929-0.53,1.399
	c-0.19,0.537-0.268,1.109-0.294,1.678c-0.012,0.234-0.031,0.475-0.017,0.711c0.019,0.302,0.051,0.604,0.158,0.887
	c0.079,0.212,0.176,0.416,0.281,0.615c0.192,0.365,0.399,0.727,0.619,1.074c0.328,0.522,0.828,0.939,1.354,1.25
	c0.167,0.099,0.336,0.195,0.503,0.292c0.09,0.052,0.183,0.102,0.278,0.143c0.082,0.049,0.168,0.081,0.259,0.1
	c0.159,0.037,0.338,0.044,0.496,0c0.143-0.039,0.305-0.135,0.411-0.239c0.089-0.089,0.222-0.303,0.242-0.43
	c0.023-0.153,0.049-0.298,0.032-0.451c-0.013-0.12-0.032-0.239-0.052-0.358c-0.015-0.09-0.037-0.179-0.058-0.266
	c-0.042-0.173-0.075-0.345-0.103-0.52c-0.045-0.36-0.09-0.731-0.062-1.093c0.01-0.047,0.023-0.091,0.037-0.136
	c0.1-0.201,0.224-0.394,0.357-0.575c0.057-0.067,0.116-0.133,0.182-0.193c0.018-0.01,0.036-0.021,0.055-0.032
	c0.129-0.043,0.263-0.067,0.399-0.087c0.087-0.012,0.176-0.021,0.264-0.019c0.02,0.006,0.039,0.01,0.058,0.016
	c0.023,0.014,0.047,0.028,0.068,0.044c0.103,0.09,0.192,0.19,0.279,0.297c0.088,0.119,0.164,0.242,0.229,0.376
	c0.118,0.311,0.165,0.648,0.211,0.975c0.024,0.185,0.055,0.372,0.038,0.556c-0.048,0.276-0.135,0.536-0.241,0.795
	c-0.085,0.191-0.183,0.378-0.255,0.574c-0.02,0.024-0.04,0.046-0.062,0.066c-0.002,0.002,0,0.003,0.002,0.002
	c0.021-0.014,0.067-0.034,0.081-0.057c0.031-0.046,0.063-0.091,0.098-0.136c-0.001,0-0.001,0-0.001,0.001
	c0-0.001,0-0.001,0.001-0.001c0.002-0.002,0.003-0.004,0.004-0.005c0,0-0.001,0.001-0.002,0.002c0.274-0.346,0.54-0.705,0.702-1.118
	c0.095-0.243,0.098-0.518,0.112-0.774c0.015-0.254,0.022-0.506,0.011-0.758c-0.017-0.326-0.108-0.622-0.255-0.913
	c-0.12-0.237-0.268-0.464-0.458-0.652c-0.281-0.276-0.696-0.297-1.067-0.299c-0.334-0.003-0.687,0.03-0.97,0.224
	c-0.254,0.174-0.459,0.389-0.663,0.618c-0.158,0.18-0.316,0.369-0.423,0.583c-0.138,0.273-0.176,0.55-0.212,0.851
	c-0.031,0.261-0.027,0.531-0.028,0.794c-0.055-0.055-0.109-0.113-0.161-0.173c-0.172-0.248-0.307-0.517-0.445-0.787
	c-0.121-0.236-0.246-0.471-0.358-0.712c-0.036-0.1-0.065-0.198-0.087-0.303c-0.035-0.42-0.001-0.852,0.046-1.271
	c0.079-0.443,0.197-0.878,0.363-1.298c0.174-0.439,0.337-0.884,0.506-1.326c0.175-0.396,0.365-0.784,0.566-1.168
	c0.223-0.426,0.513-0.821,0.793-1.211c0.271-0.376,0.549-0.75,0.828-1.121c0.005,0.032,0.01,0.062,0.015,0.094
	c0.178,1.042,0.611,2.039,1.114,2.961c0.122,0.221,0.26,0.433,0.385,0.653c0.138,0.245,0.275,0.489,0.424,0.729
	c0.165,0.267,0.368,0.512,0.562,0.756c0.149,0.188,0.31,0.368,0.464,0.551c0.092,0.127,0.18,0.255,0.257,0.393
	c0.084,0.152,0.16,0.307,0.231,0.464c0.07,0.203,0.136,0.401,0.176,0.612c0.045,0.409,0.038,0.815-0.008,1.226
	c-0.03,0.15-0.064,0.297-0.104,0.446c-0.035,0.134-0.089,0.265-0.143,0.393c-0.079,0.17-0.169,0.333-0.279,0.486
	c-0.264,0.321-0.581,0.592-0.889,0.87c-0.307,0.276-0.604,0.565-0.9,0.854c-0.002,0.001,0,0.003,0.001,0.002
	c0.519-0.311,1.041-0.617,1.559-0.929c0.109-0.063,0.213-0.136,0.316-0.207c0.131-0.092,0.256-0.195,0.373-0.304
	c0.144-0.136,0.263-0.3,0.377-0.461c0.156-0.225,0.286-0.478,0.387-0.733c0.093-0.232,0.173-0.469,0.22-0.717
	c0.053-0.272,0.111-0.555,0.119-0.834c0.011-0.391-0.033-0.78-0.137-1.157c-0.078-0.281-0.182-0.552-0.305-0.817
	c-0.132-0.284-0.31-0.54-0.481-0.803c-0.188-0.283-0.376-0.57-0.522-0.876c-0.152-0.318-0.282-0.644-0.431-0.962
	c-0.117-0.255-0.238-0.506-0.351-0.762c-0.279-0.704-0.506-1.432-0.626-2.18c-0.067-0.609-0.158-1.233-0.111-1.845
	c0.006-0.025,0.012-0.051,0.019-0.075c0.082-0.109,0.153-0.225,0.181-0.368c0.046-0.17,0.046-0.339,0-0.509
	c-0.046-0.162-0.128-0.303-0.247-0.422c-0.119-0.119-0.26-0.201-0.422-0.247c-0.082-0.022-0.173-0.035-0.267-0.035
	C23.41,14.931,23.236,14.971,23.106,15.062"/>
</svg>
