<?xml version="1.0" encoding="utf-8"?>
<!-- Generator: Adobe Illustrator 15.0.0, SVG Export Plug-In . SVG Version: 6.00 Build 0)  -->
<!DOCTYPE svg PUBLIC "-//W3C//DTD SVG 1.1//EN" "http://www.w3.org/Graphics/SVG/1.1/DTD/svg11.dtd">
<svg version="1.1" id="Capa_1" xmlns="http://www.w3.org/2000/svg" xmlns:xlink="http://www.w3.org/1999/xlink" x="0px" y="0px"
	 width="45px" height="45px" viewBox="-0.5 -0.5 45 45" enable-background="new -0.5 -0.5 45 45" xml:space="preserve">
<path fill="#292521" d="M24.08,35.337L24.08,35.337c0.001-0.002,0.003-0.004,0.004-0.006C24.083,35.333,24.081,35.335,24.08,35.337
	 M22.738,8.177c-0.322,0.226-0.469,0.357-0.693,0.679c-0.072,0.104-0.133,0.231-0.185,0.357c-0.607,0.761-1.188,1.538-1.725,2.352
	c-0.533,0.809-1.091,1.599-1.662,2.382c-0.545,0.748-1.077,1.506-1.595,2.273c-0.276,0.41-0.552,0.82-0.803,1.246
	c-0.236,0.4-0.456,0.811-0.673,1.222c-0.513,0.969-0.934,1.974-1.321,3c-0.332,0.876-0.683,1.748-0.997,2.63
	c-0.358,1.011-0.503,2.088-0.553,3.154c-0.021,0.443-0.059,0.894-0.032,1.338c0.035,0.566,0.096,1.135,0.296,1.669
	c0.148,0.398,0.331,0.78,0.528,1.155c0.362,0.687,0.751,1.367,1.165,2.022c0.616,0.979,1.555,1.765,2.545,2.349
	c0.313,0.187,0.631,0.366,0.946,0.55c0.169,0.099,0.344,0.19,0.524,0.269c0.154,0.089,0.316,0.151,0.487,0.186
	c0.299,0.071,0.634,0.083,0.933,0.001c0.27-0.074,0.574-0.252,0.772-0.45c0.168-0.167,0.418-0.568,0.456-0.81
	c0.044-0.287,0.093-0.559,0.06-0.847c-0.025-0.226-0.06-0.449-0.098-0.674c-0.028-0.168-0.07-0.334-0.11-0.5
	c-0.079-0.324-0.141-0.648-0.192-0.977c-0.086-0.679-0.17-1.374-0.118-2.056c0.02-0.087,0.043-0.171,0.07-0.255
	c0.188-0.379,0.422-0.74,0.672-1.081c0.107-0.128,0.219-0.25,0.342-0.362c0.034-0.021,0.068-0.042,0.104-0.062
	c0.243-0.081,0.495-0.127,0.75-0.165c0.165-0.021,0.331-0.038,0.497-0.032c0.036,0.009,0.072,0.018,0.108,0.028
	c0.044,0.026,0.087,0.054,0.129,0.083c0.192,0.169,0.36,0.358,0.524,0.557c0.165,0.225,0.31,0.455,0.431,0.708
	c0.222,0.584,0.31,1.22,0.396,1.834c0.047,0.346,0.103,0.697,0.071,1.044c-0.091,0.52-0.252,1.01-0.454,1.495
	c-0.159,0.359-0.343,0.711-0.479,1.08c-0.035,0.045-0.075,0.087-0.117,0.124c-0.002,0.003,0,0.006,0.003,0.004
	c0.04-0.024,0.127-0.064,0.154-0.105c0.059-0.088,0.119-0.172,0.183-0.256c-0.001,0-0.001,0.001-0.002,0.002
	c0.001-0.001,0.001-0.002,0.002-0.002c0.003-0.004,0.005-0.008,0.007-0.011c0,0.001-0.001,0.003-0.003,0.005
	c0.517-0.65,1.015-1.325,1.32-2.104c0.179-0.456,0.186-0.972,0.213-1.457c0.027-0.476,0.039-0.947,0.018-1.424
	c-0.029-0.614-0.202-1.172-0.479-1.716c-0.227-0.447-0.502-0.873-0.86-1.226c-0.529-0.522-1.31-0.562-2.007-0.565
	c-0.627-0.003-1.291,0.059-1.823,0.423c-0.48,0.327-0.863,0.729-1.246,1.161c-0.298,0.338-0.594,0.693-0.796,1.096
	c-0.259,0.516-0.333,1.036-0.4,1.601c-0.058,0.49-0.05,0.998-0.053,1.494c-0.104-0.105-0.206-0.214-0.303-0.326
	c-0.323-0.468-0.577-0.973-0.836-1.479c-0.228-0.444-0.462-0.886-0.673-1.34c-0.067-0.186-0.123-0.374-0.164-0.568
	c-0.066-0.791-0.003-1.603,0.087-2.392c0.147-0.835,0.37-1.65,0.683-2.439c0.328-0.827,0.633-1.664,0.952-2.495
	c0.33-0.745,0.687-1.475,1.064-2.197c0.419-0.801,0.964-1.545,1.491-2.278c0.509-0.71,1.034-1.409,1.557-2.108
	c0.009,0.059,0.019,0.117,0.029,0.175c0.335,1.96,1.147,3.835,2.096,5.57c0.229,0.417,0.488,0.814,0.723,1.228
	c0.26,0.461,0.519,0.92,0.798,1.372c0.31,0.5,0.691,0.962,1.056,1.422c0.28,0.354,0.581,0.691,0.872,1.035
	c0.172,0.238,0.338,0.479,0.481,0.737c0.16,0.285,0.302,0.577,0.436,0.875c0.134,0.379,0.256,0.753,0.331,1.148
	c0.084,0.771,0.073,1.534-0.015,2.305c-0.058,0.284-0.121,0.561-0.194,0.841c-0.065,0.252-0.167,0.495-0.268,0.736
	c-0.15,0.321-0.319,0.627-0.527,0.916c-0.495,0.604-1.091,1.113-1.67,1.636c-0.578,0.521-1.135,1.065-1.694,1.605
	c-0.002,0.002,0.001,0.006,0.002,0.004c0.977-0.586,1.959-1.16,2.934-1.745c0.204-0.122,0.4-0.256,0.593-0.391
	c0.247-0.174,0.481-0.366,0.702-0.572c0.271-0.254,0.494-0.562,0.707-0.866c0.297-0.422,0.541-0.896,0.729-1.377
	c0.172-0.439,0.325-0.884,0.414-1.35c0.099-0.514,0.208-1.043,0.223-1.567c0.02-0.736-0.062-1.468-0.258-2.178
	c-0.146-0.529-0.342-1.037-0.571-1.535c-0.249-0.537-0.583-1.018-0.908-1.51c-0.352-0.532-0.705-1.073-0.98-1.649
	c-0.285-0.597-0.532-1.209-0.81-1.81c-0.221-0.478-0.448-0.951-0.66-1.433c-0.524-1.323-0.949-2.692-1.176-4.099
	c-0.126-1.144-0.298-2.319-0.209-3.47c0.01-0.048,0.021-0.095,0.034-0.142c0.154-0.206,0.289-0.423,0.34-0.691
	c0.086-0.319,0.086-0.639,0-0.957c-0.086-0.306-0.24-0.571-0.464-0.795c-0.225-0.224-0.489-0.378-0.794-0.464
	c-0.155-0.042-0.327-0.065-0.502-0.065C23.309,7.931,22.983,8.006,22.738,8.177"/>
</svg>
