<?xml version="1.0" encoding="utf-8"?>
<!-- Generator: Adobe Illustrator 15.0.0, SVG Export Plug-In . SVG Version: 6.00 Build 0)  -->
<!DOCTYPE svg PUBLIC "-//W3C//DTD SVG 1.1//EN" "http://www.w3.org/Graphics/SVG/1.1/DTD/svg11.dtd">
<svg version="1.1" xmlns="http://www.w3.org/2000/svg" xmlns:xlink="http://www.w3.org/1999/xlink" x="0px" y="0px" width="44px"
	 height="44px" viewBox="0 0 44 44" enable-background="new 0 0 44 44" xml:space="preserve">
<g id="Capa_1">
	<path d="M34.002,20.676c-0.064-0.343-0.155-0.679-0.268-1.01c-0.081-0.056-0.158-0.118-0.234-0.184
		c-0.041-0.036-0.082-0.073-0.122-0.112c-0.004-0.004-0.009-0.007-0.013-0.011c-0.046-0.044-0.09-0.09-0.135-0.137
		c-0.125-0.133-0.249-0.265-0.374-0.399c-0.011-0.011-0.021-0.385-0.032-0.396c-0.02-0.021-0.04-0.427-0.06-0.427
		C32.764,18,33,18,33,18v0.721c0,0.001-0.135,0.005-0.143,0.007c-0.057,0.014-0.173,0.026-0.23,0.035
		c-0.013,0.002-0.056,0.004-0.07,0.006c-0.06,0.007-0.134,0.012-0.194,0.014c-0.006,0-0.019,0.001-0.023,0.001
		c-0.066,0-0.138-0.001-0.203-0.007c-0.012-0.001-0.024-0.003-0.037-0.004c-0.055-0.006-0.109-0.015-0.163-0.025
		c-0.043-0.008-0.087-0.018-0.129-0.03c-0.017-0.004-0.033-0.072-0.05-0.077c-0.057-0.017-0.113-0.122-0.169-0.122h-0.001
		c-0.057,0-0.112,0.014-0.166-0.014c-0.015-0.007-0.028,0.017-0.042,0.009c-0.041-0.022-0.081-0.031-0.12-0.057
		c-0.015-0.009-0.028-0.01-0.041-0.019c-0.101-0.069-0.195-0.145-0.282-0.234c-0.012-0.012-0.021-0.022-0.033-0.034
		c-0.032-0.035-0.062-0.071-0.092-0.108c-0.012-0.014-0.022-0.026-0.032-0.041c-0.037-0.049-0.071-0.099-0.104-0.152
		c-0.001-0.001-0.002-0.003-0.003-0.004c-0.075-0.129-0.151-0.259-0.226-0.388c-0.028-0.047-0.056-0.093-0.083-0.14
		c-0.006-0.01-0.012-0.02-0.017-0.03c-0.027-0.046-0.053-0.091-0.081-0.137l0,0c-0.043-0.074-0.088-0.147-0.132-0.221
		c-0.021-0.033-0.039-0.066-0.059-0.099l-0.001,0.001c-0.104-0.169-0.209-0.338-0.321-0.501c-0.134-0.046-0.269-0.085-0.407-0.113
		c-0.283,0.01-0.565,0.033-0.851,0.06c-0.877,0.081-1.754,0.174-2.633,0.096c-0.129-0.026-0.253-0.06-0.376-0.102
		c-0.093-0.048-0.182-0.099-0.27-0.154c-0.139-0.127-0.264-0.265-0.385-0.41c-0.185-0.267-0.349-0.544-0.514-0.824
		c-0.292-0.497-0.6-0.971-0.992-1.397c-0.243-0.263-0.551-0.475-0.843-0.677c-0.318-0.222-0.688-0.352-1.042-0.5
		c-0.285-0.118-0.584-0.19-0.888-0.244C20.302,12.042,20.039,12,19.782,12c-0.012,0-0.025,0-0.039,0
		c-0.296,0-0.604,0.07-0.893,0.136c-0.548,0.125-1.086,0.402-1.572,0.685c-0.21,0.123-0.424,0.241-0.632,0.369
		c-0.412,0.255-0.823,0.511-1.233,0.768c-0.426,0.267-0.86,0.521-1.287,0.788c-0.593,0.369-1.157,0.81-1.646,1.309
		c-0.291,0.296-0.537,0.643-0.782,0.974c-0.283,0.383-0.469,0.831-0.639,1.273c-0.275,0.714-0.363,1.448-0.46,2.205
		c-0.102,0.781-0.014,1.573,0.151,2.341c0.065,0.304,0.182,0.595,0.3,0.88c0.18,0.429,0.357,0.849,0.583,1.255
		c0.379,0.683,0.883,1.313,1.411,1.886c0.071,0.076,0.145,0.151,0.22,0.225c0.023,0.075,0.048,0.148,0.074,0.222
		c0.176,0.482,0.381,0.943,0.597,1.407c0.112,0.306,0.201,0.621,0.301,0.931c0.033,0.099,0.068,0.199,0.105,0.299
		c-0.015,0.185-0.027,0.37-0.037,0.555c-0.015,0.296,0.062,0.547,0.182,0.81c0.118,0.26,0.439,0.385,0.68,0.483
		c0.116,0.018,0.232,0.034,0.348,0.049c0.165-0.002,0.333-0.013,0.492-0.046c0.218-0.045,0.427-0.121,0.632-0.209
		c-0.106,0.175-0.211,0.35-0.315,0.524c-0.001,0.003,0.002,0.005,0.003,0.003c0.394-0.312,0.785-0.627,1.169-0.949
		c0.118-0.063,0.234-0.127,0.352-0.189c0.005-0.001,0.011-0.003,0.018-0.004c0.337-0.027,0.675-0.031,1.013-0.018
		c0.12,0.028,0.24,0.053,0.364,0.074c0.295,0.052,0.638,0.142,0.934,0.126c0.011-0.001,0.022-0.003,0.034-0.005
		c0.237,0.141,0.475,0.278,0.718,0.409c0.503,0.271,1.029,0.494,1.562,0.7c0.672,0.258,1.401,0.375,2.117,0.46
		c0.501,0.028,1.006,0.056,1.509,0.043c0.321-0.032,0.64-0.092,0.955-0.185c0.061-0.019,0.118-0.037,0.177-0.057
		c0.235-0.127,0.461-0.271,0.679-0.427c0.309-0.255,0.605-0.527,0.876-0.819c0.248-0.267,0.475-0.542,0.702-0.824
		c0.408-0.535,0.82-1.067,1.234-1.599c0.01-0.012,0.019-0.024,0.028-0.036c0.996-1.301,2.001-2.642,2.688-4.134
		c0.005-0.013,0.008-0.025,0.013-0.038c0.045-0.119,0.086-0.238,0.125-0.358c0.012-0.034,0.021-0.067,0.032-0.102
		c0.039-0.121,0.073-0.242,0.107-0.364c0.012-0.046,0.023-0.093,0.035-0.14c0.008-0.028,0.016-0.058,0.022-0.086
		c0.002-0.007,0.003-0.014,0.004-0.021c0.062-0.247,0.115-0.497,0.161-0.749C34.022,22.113,34.064,21.394,34.002,20.676z
		 M16.178,29.208c-0.01-0.007-0.019-0.015-0.028-0.022c0.01,0.008,0.02,0.015,0.029,0.022
		C16.179,29.208,16.179,29.208,16.178,29.208z M19.974,15.846c0.032-0.017,0.062-0.036,0.094-0.053
		c0.021-0.006,0.04-0.012,0.06-0.018c0.042,0,0.083,0.003,0.124,0.005C20.158,15.799,20.065,15.821,19.974,15.846z"/>
</g>
<g id="Capa_2" display="none">
	<path display="inline" opacity="0.9753" fill="#FF9435" d="M25.141,8.457c0.062,0.007,0.125,0.016,0.187,0.024
		C25.266,8.473,25.203,8.464,25.141,8.457 M19.329,8.28c0.401-0.024,0.808-0.049,1.209-0.043c0.356,0.006,0.712,0.009,1.068,0.013
		c0.33,0.003,0.659,0.005,0.989,0.006c0.818,0.003,1.644,0.085,2.457,0.189c1.068,0.155,2.118,0.405,3.12,0.808
		c0.695,0.31,1.344,0.685,1.951,1.141c0.322,0.259,0.631,0.532,0.925,0.818c-0.043-0.006-0.086-0.013-0.129-0.02
		c-0.545-0.083-1.094-0.151-1.642-0.224c-0.199-0.027-0.396-0.054-0.594-0.082c-0.003-0.001-0.003,0.002-0.001,0.003
		c0.971,0.378,1.957,0.716,2.92,1.117c0.113,0.048,0.226,0.099,0.336,0.15c0.183,0.21,0.359,0.424,0.531,0.644
		c0.494,0.645,0.943,1.323,1.398,1.996c0.481,0.712,0.969,1.422,1.455,2.13c0.001,0.002,0.004,0.001,0.003-0.001
		c-0.416-1.08-0.84-2.158-1.283-3.228c0.345,0.375,0.665,0.774,0.979,1.168c0.32,0.44,0.614,0.896,0.842,1.39
		c0.169,0.435,0.289,0.879,0.365,1.339c0.124,1.121,0.049,2.25-0.053,3.371c-0.082,0.889-0.182,1.775-0.292,2.661
		c-0.14,0.813-0.271,1.631-0.477,2.43c-0.107,0.415-0.199,0.836-0.335,1.244c-0.211,0.629-0.419,1.251-0.666,1.865
		c-0.416,0.951-0.891,1.869-1.504,2.709c-0.212,0.259-0.435,0.507-0.673,0.745c-0.204,0.203-0.428,0.387-0.654,0.564
		c-1.035,0.784-2.159,1.478-3.346,2.006c-0.835,0.327-1.696,0.555-2.58,0.695c-0.866,0.097-1.737,0.104-2.608,0.075
		c-0.896-0.031-1.796-0.103-2.688-0.213c-0.615-0.09-1.229-0.195-1.833-0.345c-0.645-0.16-1.277-0.369-1.893-0.616
		c-1.183-0.524-2.298-1.185-3.333-1.961c-0.921-0.739-1.739-1.586-2.478-2.508c-0.556-0.749-1.03-1.552-1.413-2.404
		c-0.25-0.627-0.444-1.266-0.554-1.934c-0.178-1.61-0.075-3.232-0.014-4.848c0.016-0.397,0.053-0.794,0.083-1.19
		c0.047-0.616,0.097-1.229,0.171-1.843c0.192-1.312,0.511-2.597,1.001-3.831c0.371-0.833,0.82-1.632,1.36-2.368
		c0.449-0.549,0.948-1.053,1.498-1.5c0.642-0.468,1.327-0.863,2.051-1.188c1.029-0.406,2.096-0.67,3.188-0.833
		C18.568,8.335,18.948,8.301,19.329,8.28 M18.427,5.331c-1.315,0.078-2.634,0.295-3.882,0.727c-1.221,0.424-2.385,1.038-3.409,1.829
		c-0.521,0.401-1.009,0.825-1.46,1.304c-0.481,0.511-0.907,1.08-1.293,1.666c-0.719,1.093-1.244,2.317-1.652,3.557
		c-0.421,1.278-0.623,2.615-0.78,3.946c-0.064,0.553-0.098,1.107-0.139,1.662c-0.026,0.353-0.06,0.708-0.072,1.063
		c-0.053,1.478-0.143,2.959-0.027,4.436c0.052,0.672,0.139,1.348,0.301,2.004c0.176,0.714,0.471,1.398,0.768,2.069
		c0.526,1.185,1.283,2.245,2.106,3.239c1.581,1.904,3.604,3.433,5.836,4.498c1.17,0.559,2.4,0.985,3.671,1.243
		c1.329,0.269,2.685,0.399,4.035,0.487c0.607,0.038,1.213,0.049,1.822,0.044c0.749-0.006,1.485-0.086,2.227-0.192
		c1.307-0.189,2.554-0.622,3.742-1.188c1.094-0.521,2.133-1.176,3.102-1.9c0.521-0.391,1.025-0.788,1.477-1.259
		c0.495-0.516,0.929-1.102,1.32-1.698c0.312-0.479,0.573-0.982,0.811-1.5c0.305-0.668,0.574-1.351,0.809-2.046
		c0.153-0.459,0.27-0.933,0.398-1.398c0.043-0.158,0.065-0.323,0.097-0.483c0.05-0.252,0.098-0.507,0.146-0.759
		c0.036-0.189,0.055-0.383,0.081-0.572c0.049-0.344,0.109-0.692,0.143-1.038c0.077-0.822,0.146-1.644,0.156-2.471
		c0.009-0.867,0-1.734-0.033-2.602c-0.017-0.399-0.061-0.797-0.102-1.195c-0.111-1.107-0.395-2.18-0.922-3.164
		c-0.625-1.164-1.665-2.061-2.699-2.855c-0.262-0.202-0.522-0.403-0.802-0.582c-0.344-0.221-0.727-0.394-1.116-0.531
		c-0.256-0.468-0.538-0.921-0.849-1.359c-0.729-1.025-1.609-1.896-2.647-2.605c-0.474-0.324-0.982-0.594-1.506-0.83
		c-0.642-0.289-1.304-0.536-1.981-0.727c-1.687-0.478-3.429-0.641-5.169-0.782c-0.509-0.042-1.02-0.064-1.53-0.064
		C19.078,5.302,18.752,5.312,18.427,5.331"/>
</g>
</svg>
