<?xml version="1.0" encoding="utf-8"?>
<!-- Generator: Adobe Illustrator 15.0.0, SVG Export Plug-In . SVG Version: 6.00 Build 0)  -->
<!DOCTYPE svg PUBLIC "-//W3C//DTD SVG 1.1//EN" "http://www.w3.org/Graphics/SVG/1.1/DTD/svg11.dtd">
<svg version="1.1" id="Capa_1" xmlns="http://www.w3.org/2000/svg" xmlns:xlink="http://www.w3.org/1999/xlink" x="0px" y="0px"
	 width="44px" height="44px" viewBox="0 0 44 44" enable-background="new 0 0 44 44" xml:space="preserve">
<g id="Capa_1_1_">
	<path fill="#7F4400" d="M34.002,20.676c-0.064-0.343-0.154-0.679-0.268-1.01c-0.082-0.056-0.158-0.118-0.234-0.184
		c-0.041-0.036-0.082-0.073-0.122-0.112c-0.004-0.004-0.009-0.007-0.013-0.011c-0.047-0.044-0.09-0.09-0.135-0.137
		c-0.125-0.133-0.25-0.265-0.375-0.399c-0.01-0.011-0.021-0.385-0.031-0.396C32.805,18.406,32.784,18,32.764,18H33v0.721
		c0,0.001-0.135,0.005-0.143,0.007c-0.058,0.014-0.174,0.026-0.23,0.035c-0.014,0.002-0.057,0.004-0.07,0.006
		c-0.06,0.007-0.134,0.012-0.193,0.014c-0.006,0-0.02,0.001-0.023,0.001c-0.066,0-0.138-0.001-0.203-0.007
		c-0.012-0.001-0.023-0.003-0.037-0.004c-0.055-0.006-0.108-0.015-0.162-0.025c-0.043-0.008-0.088-0.018-0.129-0.03
		c-0.018-0.004-0.033-0.072-0.051-0.077c-0.057-0.017-0.113-0.122-0.169-0.122h-0.001c-0.057,0-0.111,0.014-0.166-0.014
		c-0.015-0.007-0.027,0.017-0.042,0.009c-0.041-0.022-0.081-0.031-0.12-0.057c-0.015-0.009-0.027-0.01-0.041-0.019
		c-0.101-0.069-0.195-0.145-0.281-0.234c-0.013-0.012-0.021-0.022-0.033-0.034c-0.032-0.035-0.062-0.071-0.092-0.108
		c-0.013-0.014-0.022-0.026-0.033-0.041c-0.036-0.049-0.07-0.099-0.104-0.152c-0.001-0.001-0.002-0.003-0.003-0.004
		c-0.075-0.129-0.151-0.259-0.226-0.388c-0.028-0.047-0.057-0.093-0.084-0.14c-0.006-0.01-0.012-0.02-0.016-0.03
		c-0.027-0.046-0.054-0.091-0.082-0.137l0,0c-0.043-0.074-0.088-0.147-0.132-0.221c-0.021-0.033-0.038-0.066-0.059-0.099
		l-0.001,0.001c-0.104-0.169-0.209-0.338-0.321-0.501c-0.134-0.046-0.269-0.085-0.407-0.113c-0.283,0.01-0.564,0.033-0.851,0.06
		c-0.877,0.081-1.754,0.174-2.634,0.096c-0.129-0.026-0.252-0.06-0.375-0.102c-0.094-0.048-0.182-0.099-0.271-0.154
		c-0.139-0.127-0.264-0.265-0.385-0.41c-0.185-0.267-0.349-0.544-0.515-0.824c-0.291-0.497-0.6-0.971-0.991-1.397
		c-0.243-0.263-0.552-0.475-0.843-0.677c-0.318-0.222-0.688-0.352-1.042-0.5c-0.285-0.118-0.584-0.19-0.888-0.244
		C20.302,12.042,20.039,12,19.782,12c-0.012,0-0.025,0-0.039,0c-0.296,0-0.604,0.07-0.893,0.136
		c-0.548,0.125-1.086,0.402-1.572,0.685c-0.21,0.123-0.424,0.241-0.632,0.369c-0.412,0.255-0.823,0.511-1.233,0.768
		c-0.426,0.267-0.86,0.521-1.287,0.788c-0.593,0.369-1.157,0.81-1.646,1.309c-0.291,0.296-0.537,0.643-0.782,0.974
		c-0.283,0.383-0.469,0.831-0.639,1.273c-0.275,0.714-0.363,1.448-0.46,2.205c-0.102,0.781-0.014,1.573,0.151,2.341
		c0.065,0.305,0.182,0.596,0.3,0.881c0.18,0.429,0.357,0.849,0.583,1.254c0.379,0.684,0.883,1.313,1.411,1.887
		c0.071,0.076,0.145,0.15,0.22,0.225c0.023,0.075,0.048,0.148,0.074,0.223c0.176,0.481,0.381,0.942,0.597,1.406
		c0.112,0.307,0.201,0.621,0.301,0.932c0.033,0.099,0.068,0.199,0.105,0.299c-0.015,0.186-0.027,0.37-0.037,0.555
		c-0.015,0.297,0.062,0.547,0.182,0.811c0.118,0.26,0.439,0.385,0.68,0.482c0.116,0.018,0.232,0.034,0.348,0.049
		c0.165-0.002,0.333-0.013,0.492-0.045c0.218-0.046,0.427-0.121,0.632-0.21c-0.106,0.175-0.211,0.351-0.315,0.524
		c-0.001,0.003,0.002,0.005,0.003,0.003c0.394-0.312,0.785-0.627,1.169-0.949c0.118-0.063,0.234-0.127,0.352-0.188
		c0.005-0.002,0.011-0.004,0.018-0.004c0.337-0.027,0.675-0.031,1.013-0.019c0.12,0.028,0.24,0.054,0.364,0.074
		c0.295,0.052,0.638,0.142,0.934,0.126c0.011-0.001,0.022-0.003,0.034-0.005c0.237,0.141,0.475,0.278,0.718,0.409
		c0.503,0.271,1.029,0.494,1.562,0.699c0.672,0.258,1.4,0.375,2.117,0.461c0.5,0.027,1.006,0.056,1.509,0.043
		c0.321-0.033,0.64-0.093,0.954-0.186c0.062-0.02,0.119-0.037,0.178-0.057c0.234-0.127,0.461-0.271,0.68-0.428
		c0.309-0.255,0.604-0.526,0.875-0.818c0.248-0.268,0.475-0.542,0.702-0.824c0.408-0.535,0.82-1.066,1.233-1.6
		c0.011-0.012,0.02-0.023,0.029-0.035c0.996-1.301,2-2.643,2.688-4.135c0.005-0.013,0.008-0.024,0.013-0.037
		c0.046-0.119,0.087-0.238,0.125-0.358c0.013-0.034,0.021-0.067,0.032-0.103c0.039-0.121,0.073-0.241,0.107-0.363
		c0.012-0.047,0.022-0.094,0.035-0.141c0.008-0.027,0.016-0.058,0.021-0.086c0.002-0.007,0.003-0.014,0.004-0.021
		c0.062-0.247,0.115-0.497,0.161-0.749C34.021,22.113,34.064,21.394,34.002,20.676z M16.178,29.208
		c-0.01-0.007-0.019-0.015-0.028-0.022C16.16,29.193,16.17,29.201,16.178,29.208C16.179,29.208,16.179,29.208,16.178,29.208z
		 M19.974,15.846c0.032-0.017,0.062-0.036,0.094-0.053c0.021-0.006,0.04-0.012,0.06-0.018c0.042,0,0.083,0.003,0.124,0.005
		C20.158,15.799,20.065,15.821,19.974,15.846z"/>
</g>
<g id="Capa_2">
	<path opacity="0.9753" fill="#FF9435" enable-background="new    " d="M25.141,8.457c0.062,0.007,0.125,0.016,0.188,0.024
		C25.266,8.473,25.203,8.464,25.141,8.457 M19.329,8.28c0.401-0.024,0.808-0.049,1.209-0.043c0.356,0.006,0.712,0.009,1.068,0.013
		c0.33,0.003,0.659,0.005,0.99,0.006c0.817,0.003,1.643,0.085,2.456,0.189C26.12,8.6,27.17,8.85,28.172,9.253
		c0.695,0.31,1.344,0.685,1.951,1.141c0.322,0.259,0.631,0.532,0.925,0.818c-0.043-0.006-0.086-0.013-0.129-0.02
		c-0.545-0.083-1.094-0.151-1.642-0.224c-0.199-0.027-0.396-0.054-0.594-0.082c-0.004-0.001-0.004,0.002-0.002,0.003
		c0.971,0.378,1.957,0.716,2.92,1.117c0.113,0.048,0.227,0.099,0.336,0.15c0.184,0.21,0.359,0.424,0.531,0.644
		c0.494,0.645,0.943,1.323,1.398,1.996c0.48,0.712,0.969,1.422,1.455,2.13c0.001,0.002,0.004,0.001,0.003-0.001
		c-0.416-1.08-0.841-2.158-1.283-3.228c0.345,0.375,0.665,0.774,0.979,1.168c0.319,0.44,0.613,0.896,0.842,1.39
		c0.169,0.435,0.289,0.879,0.365,1.339c0.123,1.121,0.049,2.25-0.054,3.371c-0.082,0.889-0.182,1.775-0.292,2.661
		c-0.14,0.813-0.271,1.631-0.477,2.431c-0.107,0.414-0.199,0.836-0.336,1.243c-0.211,0.63-0.418,1.251-0.666,1.865
		c-0.416,0.951-0.891,1.869-1.504,2.709c-0.211,0.259-0.435,0.507-0.672,0.745c-0.205,0.203-0.429,0.387-0.654,0.564
		c-1.035,0.783-2.159,1.478-3.346,2.006c-0.836,0.326-1.696,0.555-2.58,0.694c-0.866,0.097-1.737,0.104-2.608,0.075
		c-0.896-0.031-1.796-0.104-2.688-0.213c-0.615-0.09-1.229-0.195-1.833-0.346c-0.645-0.159-1.277-0.368-1.893-0.615
		c-1.183-0.524-2.298-1.186-3.333-1.961c-0.921-0.739-1.739-1.586-2.478-2.508c-0.556-0.75-1.03-1.553-1.413-2.404
		c-0.25-0.627-0.444-1.266-0.554-1.934c-0.178-1.61-0.075-3.232-0.014-4.849c0.016-0.397,0.053-0.794,0.083-1.19
		c0.047-0.616,0.097-1.229,0.171-1.843c0.192-1.312,0.511-2.597,1.001-3.831c0.371-0.833,0.82-1.632,1.36-2.368
		c0.449-0.549,0.948-1.053,1.498-1.5c0.642-0.468,1.327-0.863,2.051-1.188c1.029-0.406,2.096-0.67,3.188-0.833
		C18.568,8.335,18.948,8.301,19.329,8.28 M18.427,5.331c-1.315,0.078-2.634,0.295-3.882,0.727c-1.221,0.424-2.385,1.038-3.409,1.829
		c-0.521,0.401-1.009,0.825-1.46,1.304c-0.481,0.511-0.907,1.08-1.293,1.666c-0.719,1.093-1.244,2.317-1.652,3.557
		c-0.421,1.278-0.623,2.615-0.78,3.946c-0.064,0.553-0.098,1.107-0.139,1.662c-0.026,0.353-0.06,0.708-0.072,1.063
		c-0.053,1.478-0.143,2.959-0.027,4.437c0.052,0.672,0.139,1.348,0.301,2.004c0.176,0.714,0.471,1.397,0.768,2.068
		c0.526,1.186,1.283,2.245,2.106,3.239c1.581,1.903,3.604,3.433,5.836,4.498c1.17,0.56,2.4,0.985,3.671,1.243
		c1.329,0.269,2.685,0.398,4.035,0.486c0.607,0.039,1.212,0.049,1.822,0.045c0.749-0.006,1.484-0.086,2.227-0.192
		c1.308-0.188,2.555-0.622,3.742-1.188c1.094-0.521,2.133-1.176,3.103-1.899c0.521-0.392,1.024-0.788,1.477-1.259
		c0.495-0.517,0.929-1.103,1.32-1.698c0.312-0.479,0.573-0.982,0.812-1.5c0.305-0.668,0.573-1.351,0.809-2.046
		c0.152-0.459,0.27-0.934,0.398-1.398c0.043-0.158,0.064-0.322,0.096-0.482c0.051-0.252,0.099-0.508,0.146-0.76
		c0.036-0.188,0.055-0.383,0.081-0.572c0.05-0.344,0.108-0.691,0.144-1.037c0.076-0.822,0.146-1.645,0.156-2.471
		c0.008-0.868,0-1.734-0.033-2.603c-0.018-0.399-0.062-0.797-0.103-1.195c-0.11-1.107-0.396-2.18-0.922-3.164
		c-0.625-1.164-1.665-2.061-2.699-2.855c-0.262-0.202-0.522-0.403-0.802-0.582c-0.344-0.221-0.727-0.394-1.116-0.531
		c-0.256-0.468-0.538-0.921-0.849-1.359c-0.729-1.025-1.609-1.896-2.647-2.605c-0.474-0.324-0.981-0.594-1.506-0.83
		c-0.642-0.289-1.304-0.536-1.981-0.727c-1.687-0.478-3.429-0.641-5.168-0.782c-0.509-0.042-1.02-0.064-1.53-0.064
		C19.078,5.302,18.752,5.312,18.427,5.331"/>
</g>
</svg>
