<?xml version="1.0" encoding="utf-8"?>
<!-- Generator: Adobe Illustrator 15.0.0, SVG Export Plug-In . SVG Version: 6.00 Build 0)  -->
<!DOCTYPE svg PUBLIC "-//W3C//DTD SVG 1.1//EN" "http://www.w3.org/Graphics/SVG/1.1/DTD/svg11.dtd">
<svg version="1.1" id="Capa_1" xmlns="http://www.w3.org/2000/svg" xmlns:xlink="http://www.w3.org/1999/xlink" x="0px" y="0px"
	 width="20px" height="20px" viewBox="12.5 12.5 20 20" enable-background="new 12.5 12.5 20 20" xml:space="preserve">
<g>
	<path fill="#919191" d="M27.939,19.338c-0.12-0.375-0.304-0.73-0.535-1.048c-0.138-0.186-0.28-0.369-0.44-0.536
		c-0.18-0.187-0.399-0.341-0.611-0.488c-0.281-0.194-0.617-0.315-0.938-0.427c-0.018-0.005-0.036-0.01-0.053-0.016
		c-0.023-0.172-0.078-0.339-0.174-0.492c-0.358-0.572-1.066-0.769-1.7-0.622c-0.354,0.081-0.647,0.311-0.934,0.521
		c-0.146,0.107-0.296,0.204-0.454,0.29c-0.214,0.007-0.428,0.019-0.641,0.037c-0.13-0.109-0.255-0.226-0.366-0.354
		c-0.033-0.05-0.064-0.101-0.097-0.152c-0.092-0.146-0.199-0.258-0.342-0.357c-0.137-0.096-0.333-0.123-0.503-0.123
		c-0.021,0-0.043,0-0.064,0.001c-0.212,0.008-0.446,0.088-0.579,0.261c-0.148,0.189-0.178,0.438-0.158,0.676
		c-0.153,0.146-0.273,0.325-0.349,0.525c-0.209,0.059-0.419,0.119-0.628,0.174c-0.086,0.092-0.166,0.19-0.245,0.287
		c-0.203,0.279-0.394,0.563-0.57,0.861c-0.006,0.011-0.013,0.021-0.019,0.032c-0.121,0.295-0.236,0.593-0.339,0.895
		c-0.055,0.164-0.113,0.325-0.159,0.491c0,0,0,0-0.001,0c-0.005,0.021-0.011,0.042-0.016,0.062c0,0.003-0.002,0.007-0.002,0.01
		c0,0.001-0.001,0.002-0.001,0.004c-0.001,0.005-0.003,0.011-0.004,0.016l0,0c-0.016,0.068-0.031,0.136-0.044,0.203c0,0,0,0,0,0
		c-0.001,0.005-0.002,0.011-0.003,0.016c0,0,0,0,0.001,0c-0.006,0.032-0.013,0.064-0.019,0.096
		c-0.014,0.167-0.027,0.336-0.035,0.506c0,0.002,0,0.007,0,0.01c0-0.003,0-0.005,0-0.008c0,0.002,0,0.004,0,0.006
		c0.009,0.066,0.02,0.131,0.031,0.196c0.068,0.36,0.165,0.708,0.296,1.048c0.05,0.11,0.103,0.221,0.157,0.329
		c0.088,0.142,0.178,0.281,0.267,0.42c0.108,0.168,0.221,0.332,0.338,0.496c0.264,0.288,0.557,0.554,0.858,0.801
		c0.016,0.012,0.032,0.023,0.048,0.035c0.036,0.021,0.072,0.042,0.11,0.061c0.078,0.04,0.167,0.065,0.236,0.116
		c0.158,0.093,0.283,0.219,0.376,0.376c0.018,0.043,0.036,0.087,0.054,0.13c0.019,0.002,0.039,0.005,0.058,0.007
		c0.3,0.147,0.608,0.279,0.922,0.395c0.144,0.053,0.289,0.098,0.436,0.14c0.027,0.075,0.057,0.151,0.088,0.226
		c0.109,0.263,0.255,0.505,0.489,0.677c0.126,0.093,0.266,0.151,0.421,0.172c0.168,0.021,0.324-0.037,0.472-0.115
		c0.177-0.093,0.276-0.244,0.329-0.417c0.113,0.004,0.227,0.002,0.34-0.002c0.001,0,0.002-0.002,0.001-0.003
		c-0.104-0.042-0.207-0.083-0.312-0.119c0.005-0.033,0.01-0.066,0.013-0.1c0.451,0.048,0.917,0.074,1.372,0.035
		c0.016,0.014,0.029,0.026,0.045,0.04c0.24,0.223,0.461,0.466,0.68,0.709c0.104,0.116,0.207,0.232,0.314,0.345
		c0.052,0.056,0.102,0.11,0.151,0.165c0.04,0.043,0.079,0.086,0.12,0.127c0.132,0.138,0.291,0.22,0.472,0.27
		c0.198,0.055,0.414,0.026,0.593-0.077c0.154-0.092,0.324-0.274,0.353-0.46c0.025-0.161,0.05-0.282,0.006-0.443
		c-0.033-0.122-0.129-0.29-0.224-0.377c-0.075-0.069-0.152-0.135-0.233-0.198c-0.01-0.008-0.019-0.016-0.028-0.022
		c-0.17-0.234-0.339-0.472-0.514-0.703c0.976-0.728,1.509-1.979,1.81-3.14c0.104-0.404,0.168-0.823,0.211-1.238
		C28.113,20.175,28.067,19.737,27.939,19.338z M22.463,25.529c-0.06-0.013-0.12-0.022-0.181-0.035
		c-0.073-0.014-0.146-0.029-0.219-0.045c0.136,0.021,0.272,0.039,0.408,0.057c-0.002,0.007-0.005,0.013-0.006,0.02
		C22.465,25.527,22.465,25.527,22.463,25.529z"/>
	<path fill="#919191" d="M17.533,18.396c-0.018,0.044-0.037,0.088-0.055,0.133C17.496,18.485,17.515,18.441,17.533,18.396
		L17.533,18.396z"/>
	<path fill="#919191" d="M21.429,26.425c-0.819,0-1.503,0.684-1.503,1.503s0.684,1.502,1.503,1.502c0.819,0,1.502-0.683,1.502-1.502
		S22.248,26.425,21.429,26.425z"/>
</g>
</svg>
