<?xml version="1.0" encoding="utf-8"?>
<!-- Generator: Adobe Illustrator 15.0.0, SVG Export Plug-In . SVG Version: 6.00 Build 0)  -->
<!DOCTYPE svg PUBLIC "-//W3C//DTD SVG 1.1//EN" "http://www.w3.org/Graphics/SVG/1.1/DTD/svg11.dtd">
<svg version="1.1" id="Capa_1" xmlns="http://www.w3.org/2000/svg" xmlns:xlink="http://www.w3.org/1999/xlink" x="0px" y="0px"
	 width="44px" height="44px" viewBox="0 0 44 44" enable-background="new 0 0 44 44" xml:space="preserve">
<g>
	<path fill="#292521" d="M29.729,18.076c-0.188-0.588-0.476-1.145-0.838-1.643c-0.216-0.291-0.438-0.578-0.689-0.84
		c-0.282-0.292-0.626-0.535-0.958-0.765c-0.441-0.304-0.968-0.494-1.472-0.668c-0.026-0.009-0.056-0.017-0.082-0.025
		c-0.037-0.271-0.123-0.532-0.271-0.771c-0.562-0.896-1.672-1.205-2.665-0.975c-0.554,0.127-1.015,0.486-1.463,0.815
		c-0.229,0.168-0.463,0.319-0.711,0.454c-0.335,0.011-0.671,0.029-1.005,0.058c-0.203-0.171-0.398-0.354-0.573-0.555
		c-0.052-0.078-0.101-0.158-0.151-0.238c-0.144-0.229-0.312-0.403-0.535-0.559c-0.215-0.15-0.521-0.193-0.789-0.193
		c-0.033,0-0.067,0-0.101,0.002c-0.333,0.013-0.698,0.138-0.907,0.408c-0.232,0.297-0.279,0.687-0.248,1.06
		c-0.24,0.229-0.428,0.51-0.547,0.823c-0.328,0.093-0.656,0.187-0.984,0.273c-0.135,0.144-0.26,0.298-0.385,0.45
		c-0.318,0.437-0.617,0.882-0.893,1.349c-0.01,0.017-0.02,0.032-0.029,0.05c-0.188,0.463-0.369,0.93-0.531,1.402
		c-0.086,0.256-0.178,0.51-0.25,0.77c0,0,0,0-0.002,0c-0.008,0.032-0.018,0.065-0.025,0.098c-0.001,0.006-0.003,0.011-0.004,0.016
		c0,0.002-0.001,0.004-0.001,0.007c-0.003,0.009-0.005,0.017-0.007,0.024l0,0c-0.025,0.106-0.049,0.213-0.069,0.318c0,0,0,0-0.001,0
		c-0.001,0.008-0.003,0.018-0.005,0.025c0,0,0,0.001,0.001,0.001c-0.01,0.05-0.02,0.101-0.028,0.149
		c-0.022,0.263-0.043,0.527-0.055,0.793c0,0.004,0,0.011,0.001,0.016c0-0.004,0-0.008-0.001-0.012c0,0.004,0,0.007,0,0.01
		c0.014,0.104,0.03,0.205,0.049,0.307c0.106,0.563,0.258,1.109,0.465,1.644c0.078,0.173,0.16,0.345,0.246,0.515
		c0.138,0.222,0.278,0.44,0.418,0.658c0.169,0.264,0.347,0.521,0.529,0.777c0.413,0.452,0.872,0.867,1.345,1.255
		c0.025,0.019,0.05,0.037,0.076,0.056c0.057,0.032,0.113,0.064,0.173,0.094c0.121,0.062,0.261,0.103,0.37,0.183
		c0.247,0.146,0.443,0.343,0.59,0.59c0.028,0.066,0.057,0.135,0.085,0.202c0.03,0.004,0.062,0.008,0.091,0.012
		c0.471,0.23,0.953,0.438,1.444,0.618c0.226,0.082,0.453,0.152,0.683,0.218c0.043,0.119,0.09,0.237,0.139,0.354
		c0.171,0.413,0.398,0.792,0.766,1.062c0.198,0.145,0.416,0.237,0.659,0.269c0.264,0.032,0.509-0.058,0.739-0.18
		c0.277-0.146,0.434-0.384,0.516-0.653c0.178,0.005,0.355,0.002,0.533-0.004c0.002,0,0.003-0.003,0.001-0.004
		c-0.161-0.066-0.323-0.131-0.488-0.188c0.009-0.052,0.017-0.104,0.021-0.155c0.707,0.074,1.437,0.116,2.15,0.055
		c0.023,0.021,0.046,0.041,0.069,0.062c0.377,0.35,0.723,0.73,1.065,1.111c0.164,0.183,0.325,0.363,0.493,0.54
		c0.08,0.087,0.158,0.173,0.237,0.259c0.062,0.066,0.124,0.134,0.188,0.199c0.207,0.215,0.457,0.344,0.739,0.422
		c0.312,0.086,0.649,0.042,0.929-0.121c0.242-0.144,0.508-0.43,0.553-0.721c0.039-0.252,0.078-0.441,0.01-0.694
		c-0.053-0.191-0.203-0.454-0.352-0.591c-0.117-0.108-0.238-0.212-0.365-0.312c-0.016-0.012-0.029-0.023-0.045-0.034
		c-0.266-0.368-0.53-0.739-0.805-1.103c1.528-1.139,2.365-3.101,2.836-4.919c0.162-0.633,0.264-1.29,0.33-1.939
		C30.001,19.389,29.93,18.702,29.729,18.076z M21.148,27.777c-0.094-0.02-0.188-0.035-0.283-0.055
		c-0.115-0.021-0.229-0.046-0.344-0.07c0.213,0.032,0.427,0.062,0.641,0.089c-0.004,0.011-0.008,0.021-0.01,0.031
		C21.15,27.774,21.15,27.775,21.148,27.777z"/>
	<path fill="#292521" d="M13.423,16.602c-0.028,0.069-0.059,0.139-0.087,0.209C13.365,16.74,13.395,16.671,13.423,16.602
		L13.423,16.602z"/>
	<path fill="#292521" d="M19.527,29.182c-1.283,0-2.354,1.07-2.354,2.354s1.071,2.354,2.354,2.354s2.354-1.07,2.354-2.354
		S20.811,29.182,19.527,29.182z"/>
</g>
</svg>
