<?xml version="1.0" encoding="utf-8"?>
<!-- Generator: Adobe Illustrator 15.0.0, SVG Export Plug-In . SVG Version: 6.00 Build 0)  -->
<!DOCTYPE svg PUBLIC "-//W3C//DTD SVG 1.1//EN" "http://www.w3.org/Graphics/SVG/1.1/DTD/svg11.dtd">
<svg version="1.1" id="Capa_1" xmlns="http://www.w3.org/2000/svg" xmlns:xlink="http://www.w3.org/1999/xlink" x="0px" y="0px"
	 width="44px" height="44px" viewBox="0 0 44 44" enable-background="new 0 0 44 44" xml:space="preserve">
<g id="Capa_1_1_">
	<path fill="#7F4400" d="M34.002,20.676c-0.064-0.343-0.154-0.679-0.268-1.01c-0.082-0.056-0.158-0.118-0.234-0.184
		c-0.041-0.036-0.082-0.073-0.122-0.112c-0.004-0.004-0.009-0.007-0.013-0.011c-0.047-0.044-0.09-0.09-0.135-0.137
		c-0.125-0.133-0.25-0.265-0.375-0.399c-0.01-0.011-0.021-0.385-0.031-0.396C32.805,18.406,32.784,18,32.764,18H33v0.721
		c0,0.001-0.135,0.005-0.143,0.007c-0.058,0.014-0.174,0.026-0.23,0.035c-0.014,0.002-0.057,0.004-0.07,0.006
		c-0.06,0.007-0.134,0.012-0.193,0.014c-0.006,0-0.02,0.001-0.023,0.001c-0.066,0-0.138-0.001-0.203-0.007
		c-0.012-0.001-0.023-0.003-0.037-0.004c-0.055-0.006-0.108-0.015-0.162-0.025c-0.043-0.008-0.088-0.018-0.129-0.03
		c-0.018-0.004-0.033-0.072-0.051-0.077c-0.057-0.017-0.113-0.122-0.169-0.122h-0.001c-0.057,0-0.111,0.014-0.166-0.014
		c-0.015-0.007-0.027,0.017-0.042,0.009c-0.041-0.022-0.081-0.031-0.12-0.057c-0.015-0.009-0.027-0.01-0.041-0.019
		c-0.101-0.069-0.195-0.145-0.281-0.234c-0.013-0.012-0.021-0.022-0.033-0.034c-0.032-0.035-0.062-0.071-0.092-0.108
		c-0.013-0.014-0.022-0.026-0.033-0.041c-0.036-0.049-0.07-0.099-0.104-0.152c-0.001-0.001-0.002-0.003-0.003-0.004
		c-0.075-0.129-0.151-0.259-0.226-0.388c-0.028-0.047-0.057-0.093-0.084-0.14c-0.006-0.01-0.012-0.02-0.016-0.03
		c-0.027-0.046-0.054-0.091-0.082-0.137l0,0c-0.043-0.074-0.088-0.147-0.132-0.221c-0.021-0.033-0.038-0.066-0.059-0.099
		l-0.001,0.001c-0.104-0.169-0.209-0.338-0.321-0.501c-0.134-0.046-0.269-0.085-0.407-0.113c-0.283,0.01-0.564,0.033-0.851,0.06
		c-0.877,0.081-1.754,0.174-2.634,0.096c-0.129-0.026-0.252-0.06-0.375-0.102c-0.094-0.048-0.182-0.099-0.271-0.154
		c-0.139-0.127-0.264-0.265-0.385-0.41c-0.185-0.267-0.349-0.544-0.515-0.824c-0.291-0.497-0.6-0.971-0.991-1.397
		c-0.243-0.263-0.552-0.475-0.843-0.677c-0.318-0.222-0.688-0.352-1.042-0.5c-0.285-0.118-0.584-0.19-0.888-0.244
		C20.302,12.042,20.039,12,19.782,12c-0.012,0-0.025,0-0.039,0c-0.296,0-0.604,0.07-0.893,0.136
		c-0.548,0.125-1.086,0.402-1.572,0.685c-0.21,0.123-0.424,0.241-0.632,0.369c-0.412,0.255-0.823,0.511-1.233,0.768
		c-0.426,0.267-0.86,0.521-1.287,0.788c-0.593,0.369-1.157,0.81-1.646,1.309c-0.291,0.296-0.537,0.643-0.782,0.974
		c-0.283,0.383-0.469,0.831-0.639,1.273c-0.275,0.714-0.363,1.448-0.46,2.205c-0.102,0.781-0.014,1.573,0.151,2.341
		c0.065,0.305,0.182,0.596,0.3,0.881c0.18,0.429,0.357,0.849,0.583,1.254c0.379,0.684,0.883,1.313,1.411,1.887
		c0.071,0.076,0.145,0.15,0.22,0.225c0.023,0.075,0.048,0.148,0.074,0.223c0.176,0.481,0.381,0.942,0.597,1.406
		c0.112,0.307,0.201,0.621,0.301,0.932c0.033,0.099,0.068,0.199,0.105,0.299c-0.015,0.186-0.027,0.37-0.037,0.555
		c-0.015,0.297,0.062,0.547,0.182,0.811c0.118,0.26,0.439,0.385,0.68,0.482c0.116,0.018,0.232,0.034,0.348,0.049
		c0.165-0.002,0.333-0.013,0.492-0.045c0.218-0.046,0.427-0.121,0.632-0.21c-0.106,0.175-0.211,0.351-0.315,0.524
		c-0.001,0.003,0.002,0.005,0.003,0.003c0.394-0.312,0.785-0.627,1.169-0.949c0.118-0.063,0.234-0.127,0.352-0.188
		c0.005-0.002,0.011-0.004,0.018-0.004c0.337-0.027,0.675-0.031,1.013-0.019c0.12,0.028,0.24,0.054,0.364,0.074
		c0.295,0.052,0.638,0.142,0.934,0.126c0.011-0.001,0.022-0.003,0.034-0.005c0.237,0.141,0.475,0.278,0.718,0.409
		c0.503,0.271,1.029,0.494,1.562,0.699c0.672,0.258,1.4,0.375,2.117,0.461c0.5,0.027,1.006,0.056,1.509,0.043
		c0.321-0.033,0.64-0.093,0.954-0.186c0.062-0.02,0.119-0.037,0.178-0.057c0.234-0.127,0.461-0.271,0.68-0.428
		c0.309-0.255,0.604-0.526,0.875-0.818c0.248-0.268,0.475-0.542,0.702-0.824c0.408-0.535,0.82-1.066,1.233-1.6
		c0.011-0.012,0.02-0.023,0.029-0.035c0.996-1.301,2-2.643,2.688-4.135c0.005-0.013,0.008-0.024,0.013-0.037
		c0.046-0.119,0.087-0.238,0.125-0.358c0.013-0.034,0.021-0.067,0.032-0.103c0.039-0.121,0.073-0.241,0.107-0.363
		c0.012-0.047,0.022-0.094,0.035-0.141c0.008-0.027,0.016-0.058,0.021-0.086c0.002-0.007,0.003-0.014,0.004-0.021
		c0.062-0.247,0.115-0.497,0.161-0.749C34.021,22.113,34.064,21.394,34.002,20.676z M16.178,29.208
		c-0.01-0.007-0.019-0.015-0.028-0.022C16.16,29.193,16.17,29.201,16.178,29.208C16.179,29.208,16.179,29.208,16.178,29.208z
		 M19.974,15.846c0.032-0.017,0.062-0.036,0.094-0.053c0.021-0.006,0.04-0.012,0.06-0.018c0.042,0,0.083,0.003,0.124,0.005
		C20.158,15.799,20.065,15.821,19.974,15.846z"/>
</g>
</svg>
