<?xml version="1.0" encoding="utf-8"?>
<!-- Generator: Adobe Illustrator 15.0.0, SVG Export Plug-In . SVG Version: 6.00 Build 0)  -->
<!DOCTYPE svg PUBLIC "-//W3C//DTD SVG 1.1//EN" "http://www.w3.org/Graphics/SVG/1.1/DTD/svg11.dtd">
<svg version="1.1" id="Capa_1" xmlns="http://www.w3.org/2000/svg" xmlns:xlink="http://www.w3.org/1999/xlink" x="0px" y="0px"
	 width="20px" height="20px" viewBox="12.5 12.5 20 20" enable-background="new 12.5 12.5 20 20" xml:space="preserve">
<g>
	<path fill="#FFFFFF" d="M28.37,28.621L28.37,28.621l0.002-0.001C28.371,28.62,28.371,28.62,28.37,28.621 M28.498,28.37
		c0,0.001,0,0.003-0.001,0.006C28.498,28.373,28.498,28.371,28.498,28.37 M28.845,15.966c0.026,0.294,0.036,0.59,0.04,0.886
		c0.002,0.189,0.003,0.377,0.002,0.566c0,0.18-0.005,0.359-0.01,0.539c-0.005,0.173-0.015,0.347-0.022,0.52
		c-0.007,0.166-0.023,0.331-0.037,0.496c-0.025,0.312-0.052,0.623-0.086,0.934c-0.036,0.34-0.074,0.679-0.118,1.018
		c-0.037,0.284-0.074,0.567-0.112,0.851c-0.025,0.19-0.053,0.382-0.078,0.571c-0.004,0.029-0.008,0.059-0.012,0.087
		c-0.021,0.159-0.032,0.32-0.047,0.481c-0.006,0.082-0.013,0.164-0.02,0.246c-0.005,0.062-0.005,0.124-0.006,0.187
		c-0.005,0.179-0.014,0.356-0.013,0.535c0.002,0.207,0.005,0.415,0.009,0.622c0.015,0.681,0.045,1.362,0.088,2.041
		c0.015,0.213,0.029,0.424,0.041,0.636c0.009,0.156,0.019,0.312,0.03,0.468c0.011,0.15,0.019,0.299,0.017,0.448
		c-0.05-0.02-0.1-0.041-0.151-0.057c-0.034-0.011-0.068-0.013-0.104-0.017c-0.048-0.005-0.097-0.01-0.145-0.015
		c-0.086-0.009-0.173-0.018-0.26-0.025c-0.157-0.016-0.313-0.029-0.472-0.043c-0.339-0.029-0.678-0.055-1.018-0.064
		c-0.335-0.012-0.67-0.021-1.005-0.023c-0.359-0.004-0.718,0.006-1.076,0.021c-0.325,0.013-0.65,0.013-0.976,0.025
		c-0.356,0.015-0.71,0.04-1.064,0.077c-0.174,0.018-0.347,0.04-0.521,0.062c-0.174,0.021-0.348,0.039-0.521,0.056
		c-0.323,0.032-0.648,0.046-0.973,0.069c-0.342,0.022-0.685,0.049-1.028,0.054c-0.337,0.007-0.674-0.001-1.012-0.011
		c-0.152-0.004-0.304-0.009-0.456-0.015c-0.127-0.005-0.254-0.01-0.381-0.02c-0.002-0.101,0.001-0.202,0.006-0.303
		c0.007-0.175,0.02-0.35,0.033-0.524c0.025-0.341,0.058-0.681,0.081-1.023c0.022-0.354,0.033-0.709,0.044-1.063
		c0.011-0.336,0.017-0.672,0.019-1.009c0.005-0.671,0.005-1.343,0.013-2.015s0.016-1.344,0.029-2.015
		c0.013-0.71,0.028-1.419,0.043-2.128c0.007-0.336,0.014-0.673,0.017-1.009c0.002-0.185,0.004-0.369,0.004-0.554
		c0-0.178-0.003-0.356,0-0.535c0.034,0,0.068,0.001,0.103,0.003c0.088,0.003,0.175,0.008,0.263,0.013
		c0.161,0.009,0.323,0.018,0.484,0.019c0.35,0.002,0.7,0.004,1.05,0.004c0.708,0,1.416,0.002,2.123,0.008
		c0.691,0.005,1.382,0.018,2.071,0.032c0.665,0.013,1.33,0.029,1.994,0.042c0.358,0.007,0.716,0.012,1.073,0.015
		c0.179,0.002,0.357-0.007,0.537-0.011c0.165-0.003,0.329-0.023,0.492-0.038c0.27-0.024,0.538-0.064,0.806-0.101
		C28.704,15.972,28.774,15.966,28.845,15.966 M28.437,15.118c-0.186,0.028-0.372,0.058-0.558,0.09
		c-0.146,0.02-0.292,0.039-0.438,0.058c-0.061,0.008-0.121,0.009-0.181,0.013c-0.12,0.008-0.24,0.016-0.359,0.025
		c-0.154,0.01-0.309,0.015-0.463,0.02c-0.147,0.006-0.294,0.012-0.442,0.016c-0.715,0.02-1.43,0.038-2.146,0.052
		c-0.705,0.015-1.41,0.025-2.115,0.034c-0.31,0.003-0.62,0.005-0.93,0.006c-0.341,0.001-0.682,0.006-1.022,0.001
		c-0.293-0.004-0.585-0.011-0.878-0.021c-0.13-0.005-0.261-0.012-0.391-0.019c-0.104-0.006-0.208-0.018-0.312-0.03
		c-0.149-0.023-0.298-0.047-0.446-0.079c-0.055-0.012-0.11-0.023-0.164-0.039c-0.073-0.02-0.153-0.03-0.229-0.033
		c-0.007,0.001-0.015,0.002-0.022,0.002c-0.045-0.001-0.088,0.006-0.129,0.022c-0.086,0.03-0.156,0.068-0.223,0.131
		c-0.111,0.103-0.167,0.255-0.189,0.403c-0.016,0.107-0.028,0.217-0.028,0.326c0.001,0.369,0.011,0.738,0.018,1.106
		c0.014,0.655,0.029,1.311,0.042,1.966c0.015,0.707,0.028,1.414,0.038,2.121c0.01,0.7,0.017,1.401,0.021,2.103
		c0.002,0.332,0.002,0.663,0,0.994s-0.011,0.661-0.025,0.99c-0.004,0.12-0.008,0.24-0.015,0.358
		c-0.008,0.141-0.013,0.279-0.025,0.419c-0.023,0.256-0.047,0.511-0.078,0.766c-0.045,0.325-0.091,0.649-0.141,0.975
		c-0.012,0.079-0.025,0.159-0.039,0.238c-0.006,0.037-0.014,0.074-0.021,0.11c-0.014,0.072-0.031,0.136-0.037,0.209
		c-0.005,0.054,0.003,0.114,0.015,0.163c0.025,0.098,0.064,0.154,0.126,0.23c0.072,0.088,0.168,0.131,0.27,0.172
		c0.047,0.02,0.095,0.03,0.145,0.038c0.123,0.021,0.248,0.034,0.372,0.036c0.083,0.003,0.165,0.006,0.247,0.006
		c0.344-0.001,0.689-0.006,1.033-0.016c0.19-0.005,0.379-0.014,0.569-0.024c0.168-0.011,0.336-0.029,0.504-0.045
		c0.151-0.015,0.303-0.032,0.454-0.048c0.17-0.016,0.34-0.031,0.51-0.049c0.381-0.039,0.762-0.083,1.142-0.14
		c0.08-0.012,0.159-0.022,0.238-0.035c0.146-0.019,0.292-0.039,0.439-0.06c0.314-0.038,0.629-0.078,0.944-0.108
		c0.366-0.036,0.731-0.075,1.098-0.123c0.335-0.043,0.671-0.073,1.007-0.107c0.34-0.034,0.68-0.068,1.02-0.103
		c0.271-0.027,0.541-0.051,0.812-0.075c0.146-0.013,0.291-0.026,0.437-0.04c0.073-0.009,0.146-0.016,0.218-0.022
		c0.036-0.004,0.07-0.007,0.105-0.012c0.02-0.002,0.038-0.004,0.057-0.005c0.059-0.007,0.112-0.004,0.17,0.004
		c-0.001,0-0.002-0.001-0.002-0.001c0.024,0.004,0.049,0.007,0.073,0.011c0,0.094-0.005,0.187-0.015,0.279
		c-0.007,0.044-0.015,0.086-0.03,0.128c-0.009,0.019-0.019,0.034-0.03,0.052c-0.021,0.021-0.041,0.041-0.063,0.06l0,0
		c0,0,0,0-0.001,0c0,0.001-0.001,0.001-0.001,0.001l0,0c-0.017,0.014-0.032,0.022-0.052,0.031c0,0,0,0.001,0.001,0.001
		c0.074-0.014,0.146-0.055,0.194-0.114c0.06-0.074,0.086-0.173,0.113-0.263c0.056-0.187,0.089-0.377,0.113-0.57
		c0.023-0.181,0.047-0.363,0.063-0.545c0.032-0.364,0.059-0.729,0.079-1.095c0.038-0.689,0.061-1.381,0.077-2.07
		c0.004-0.146,0.012-0.293,0.02-0.439c0.006-0.154,0.008-0.309,0.021-0.464c0.018-0.201,0.037-0.404,0.052-0.605
		c0.006-0.061,0.015-0.12,0.021-0.181c0.014-0.12,0.027-0.24,0.042-0.36c0.034-0.301,0.069-0.601,0.105-0.901
		c0.047-0.383,0.088-0.766,0.127-1.149c0.032-0.312,0.057-0.625,0.083-0.938c0.013-0.164,0.028-0.329,0.037-0.493
		c0.009-0.173,0.019-0.347,0.026-0.52c0.017-0.364,0.029-0.729,0.042-1.093c0.01-0.322,0.021-0.646,0.053-0.967
		c0.003-0.016,0.006-0.031,0.008-0.046c0.021-0.101,0.033-0.21,0.004-0.312c-0.028-0.101-0.083-0.193-0.162-0.263
		c-0.083-0.075-0.176-0.118-0.283-0.15c-0.082-0.025-0.172-0.03-0.257-0.036c-0.023-0.001-0.047-0.002-0.071-0.002
		C28.696,15.076,28.564,15.099,28.437,15.118"/>
	<path fill="#FFFFFF" d="M20.796,17.668c-0.253,0.02-0.507,0.042-0.76,0.067c-0.307,0.03-0.615,0.06-0.919,0.109
		c0,0,0,0.001,0,0.001c0.398,0.064,0.804,0.1,1.206,0.136c0.331,0.03,0.662,0.056,0.992,0.081c0.29,0.021,0.579,0.037,0.868,0.058
		c0.16,0.011,0.319,0.021,0.48,0.031c0.154,0.007,0.309,0.022,0.465,0.031c0.059,0.008,0.119,0.008,0.177,0.012
		c0.117,0.007,0.234,0.012,0.352,0.017c0.17,0.007,0.339,0.015,0.509,0.02c0.326,0.01,0.651,0.012,0.978,0.014
		c0.309,0.002,0.617,0.004,0.926,0.002c0.146,0,0.291,0.006,0.437,0.008c0.222,0.002,0.444,0.003,0.666,0.003c0.001,0,0.001,0,0,0
		c-0.242-0.075-0.485-0.145-0.729-0.211c-0.144-0.039-0.288-0.079-0.434-0.11c-0.172-0.038-0.346-0.079-0.519-0.108
		c-0.188-0.032-0.376-0.062-0.563-0.091c-0.37-0.055-0.745-0.09-1.117-0.122c-0.337-0.029-0.673-0.042-1.01-0.045
		c-0.037,0-0.073-0.001-0.109-0.001C22.058,17.57,21.425,17.619,20.796,17.668"/>
	<path fill="#FFFFFF" d="M23.982,20.665c-0.664,0.008-1.326,0.04-1.989,0.072c-0.705,0.035-1.41,0.085-2.113,0.147
		c-0.207,0.019-0.414,0.037-0.621,0.058c-0.094,0.009-0.187,0.019-0.281,0.028c-0.055,0.006-0.11,0.012-0.165,0.019
		c-0.115,0.013-0.228,0.041-0.34,0.068c0,0,0,0,0,0c0.1,0.008,0.202,0.007,0.302,0.019c0.043,0.005,0.085,0.009,0.128,0.015
		c0.097,0.011,0.193,0.021,0.29,0.03c0.172,0.017,0.344,0.034,0.517,0.049c0.322,0.028,0.644,0.056,0.966,0.08
		c0.342,0.024,0.684,0.045,1.025,0.062c0.336,0.015,0.673,0.029,1.009,0.022c0.71-0.015,1.42-0.077,2.125-0.167
		c0.415-0.053,0.831-0.087,1.25-0.091c0.3-0.003,0.602-0.01,0.901-0.018c0.001,0,0.001,0,0,0c-0.534-0.153-1.075-0.3-1.63-0.359
		c-0.293-0.032-0.589-0.033-0.884-0.035c-0.044,0-0.09,0-0.135,0C24.219,20.664,24.101,20.664,23.982,20.665"/>
	<path fill="#FFFFFF" d="M23.454,23.287c-0.01,0-0.02,0-0.029,0c-0.027,0-0.054,0-0.081,0.001c-0.028,0.001-0.057,0.002-0.085,0.004
		c-0.055,0.001-0.114,0-0.168,0.011c-0.691,0.034-1.383,0.104-2.068,0.197c-0.057,0.008-0.113,0.016-0.169,0.023
		c-0.304,0.035-0.607,0.072-0.91,0.114c0.008-0.001,0.016-0.002,0.024-0.003c-0.066,0.009-0.133,0.019-0.199,0.027
		c-0.074,0.01-0.148,0.021-0.222,0.031c-0.046,0.005-0.088,0.014-0.132,0.026c-0.062,0.019-0.122,0.046-0.183,0.067
		c0,0,0,0.002,0,0.002c0.107-0.003,0.212-0.016,0.32-0.005c0.039,0.004,0.078,0.007,0.118,0.01c0.094,0.009,0.189,0.015,0.285,0.021
		c0.175,0.011,0.351,0.021,0.527,0.032c0.322,0.018,0.643,0.02,0.965,0.022c0.562,0.006,1.125,0.005,1.688-0.021l0,0
		c0.073,0.004,0.146-0.006,0.22-0.008c0.085-0.005,0.17-0.009,0.255-0.013c0.162-0.008,0.323-0.018,0.485-0.028
		c0.339-0.021,0.677-0.048,1.015-0.073c0.65-0.048,1.3-0.112,1.948-0.189c0.001,0,0.001-0.001,0-0.001
		c-0.792-0.094-1.588-0.171-2.385-0.217c-0.249-0.015-0.499-0.023-0.749-0.027c-0.135-0.003-0.271-0.004-0.406-0.004
		C23.496,23.287,23.476,23.287,23.454,23.287"/>
</g>
</svg>
