<?xml version="1.0" encoding="utf-8"?>
<!-- Generator: Adobe Illustrator 15.0.0, SVG Export Plug-In . SVG Version: 6.00 Build 0)  -->
<!DOCTYPE svg PUBLIC "-//W3C//DTD SVG 1.1//EN" "http://www.w3.org/Graphics/SVG/1.1/DTD/svg11.dtd">
<svg version="1.1" id="Capa_1" xmlns="http://www.w3.org/2000/svg" xmlns:xlink="http://www.w3.org/1999/xlink" x="0px" y="0px"
	 width="20px" height="20px" viewBox="0 0 20 20" enable-background="new 0 0 20 20" xml:space="preserve">
<g>
	<path opacity="0.9753" fill="#FFFFFF" d="M8.149,6.703c-0.197,0.038-0.378,0.159-0.53,0.287C7.394,7.178,7.264,7.448,7.173,7.721
		c-0.038,0.114-0.06,0.233-0.078,0.352C7.066,8.259,7.043,8.447,7.029,8.635C7.007,8.914,7.009,9.193,7.007,9.473
		c0,0.163,0.005,0.323,0.011,0.484c0.007,0.167,0.009,0.336,0.028,0.499c0.024,0.213,0.049,0.425,0.074,0.636
		c0.028,0.234,0.076,0.463,0.119,0.693c0.058,0.316,0.135,0.629,0.205,0.939c0.087,0.393,0.17,0.783,0.253,1.176
		c0.14,0.67,0.251,1.35,0.356,2.025c0.052,0.338,0.102,0.678,0.16,1.016c0.026,0.158,0.051,0.318,0.086,0.477
		c0.029,0.131,0.054,0.264,0.104,0.389c0.082,0.201,0.2,0.385,0.304,0.574c0,0,0.002,0,0.002-0.002
		c-0.06-0.221-0.138-0.436-0.181-0.662c-0.022-0.195-0.02-0.398-0.017-0.594c0.004-0.18,0.005-0.357,0.01-0.537
		c0.01-0.361,0.015-0.723,0.02-1.084c0.006-0.746-0.025-1.49-0.076-2.234c-0.02-0.332-0.054-0.662-0.085-0.994
		c-0.016-0.162-0.037-0.326-0.046-0.49c-0.014-0.221-0.028-0.441-0.043-0.661c-0.011-0.178-0.002-0.354-0.006-0.532
		c-0.001-0.158,0.004-0.312,0.011-0.469c0.02-0.392,0.044-0.782,0.083-1.171c0.007-0.096,0.017-0.191,0.03-0.286
		c0.03-0.199,0.066-0.397,0.13-0.588c0.006-0.014,0.015-0.027,0.021-0.04c0.162-0.008,0.33,0.002,0.488,0.01
		c0.193,0.01,0.384,0.021,0.575,0.034c0.331,0.022,0.664,0.051,0.995,0.084c0.722,0.071,1.442,0.13,2.161,0.203
		c0.457,0.046,0.916,0.091,1.374,0.133c0.422,0.038,0.843,0.076,1.264,0.129c0.437,0.063,0.87,0.159,1.283,0.322
		c0.141,0.063,0.277,0.135,0.406,0.224c0.097,0.082,0.186,0.171,0.268,0.269c0.047,0.069,0.091,0.14,0.126,0.215
		c0.035,0.095,0.061,0.189,0.078,0.288c0.04,0.357,0.042,0.721,0.052,1.083c0.005,0.258-0.021,0.517-0.047,0.774
		c-0.114,0.719-0.239,1.439-0.355,2.16c0,0,0,0,0.003,0c0.202-0.492,0.399-0.988,0.596-1.482c0.061-0.158,0.116-0.318,0.175-0.479
		c0.06-0.164,0.105-0.332,0.154-0.5c0.02-0.073,0.031-0.151,0.046-0.226c0.015-0.076,0.03-0.151,0.042-0.228
		c0.033-0.224,0.062-0.446,0.089-0.67c0.02-0.185,0.039-0.366,0.04-0.551c0.003-0.29-0.082-0.565-0.205-0.823
		c-0.104-0.214-0.263-0.411-0.431-0.578c-0.188-0.189-0.427-0.339-0.662-0.461c-0.657-0.345-1.387-0.508-2.117-0.621
		c-0.401-0.062-0.802-0.118-1.203-0.171c-0.379-0.052-0.76-0.108-1.139-0.145c-0.352-0.035-0.702-0.062-1.054-0.098
		c-0.733-0.074-1.467-0.15-2.204-0.21C9.183,6.707,9.01,6.696,8.835,6.683c-0.08-0.007-0.159-0.012-0.237-0.018
		C8.57,6.663,8.54,6.663,8.511,6.663C8.39,6.663,8.27,6.68,8.149,6.703"/>
	<path opacity="0.9753" fill="#FFFFFF" d="M12.519,2.274c0.36,0.011,0.717,0.025,1.076,0.068c0.507,0.075,1.005,0.193,1.485,0.38
		c0.166,0.076,0.326,0.167,0.477,0.276c0.077,0.064,0.15,0.133,0.215,0.21c0.048,0.068,0.09,0.138,0.127,0.212
		c0.03,0.09,0.054,0.182,0.069,0.277c0.015,0.168,0.01,0.337-0.01,0.505c-0.021,0.141-0.048,0.279-0.084,0.416
		c-0.065,0.118-0.138,0.23-0.217,0.339c-0.151,0.187-0.321,0.354-0.498,0.517c-0.174,0.161-0.349,0.322-0.534,0.47
		c-0.306,0.23-0.628,0.438-0.976,0.598c-0.289,0.113-0.587,0.191-0.896,0.239c-0.312,0.035-0.627,0.035-0.943,0
		c-0.281-0.043-0.559-0.105-0.826-0.206c-0.151-0.071-0.292-0.156-0.428-0.253c-0.126-0.106-0.24-0.222-0.346-0.349
		c-0.1-0.139-0.186-0.284-0.26-0.437C9.89,5.375,9.849,5.21,9.818,5.04c-0.033-0.333-0.019-0.667,0.02-1
		c0.038-0.25,0.097-0.494,0.185-0.729c0.062-0.127,0.132-0.248,0.213-0.363c0.092-0.108,0.19-0.208,0.297-0.299
		c0.108-0.076,0.223-0.144,0.343-0.201c0.185-0.068,0.373-0.115,0.564-0.146C11.8,2.262,12.157,2.264,12.519,2.274 M9.865,1.539
		C9.649,1.69,9.453,1.862,9.286,2.064c-0.104,0.121-0.195,0.248-0.279,0.38C8.915,2.592,8.846,2.751,8.78,2.913
		C8.688,3.138,8.626,3.367,8.58,3.605C8.52,3.911,8.485,4.225,8.47,4.537C8.458,4.822,8.488,5.103,8.53,5.384
		c0.041,0.29,0.14,0.552,0.259,0.818c0.106,0.241,0.262,0.453,0.424,0.66c0.075,0.095,0.154,0.185,0.24,0.271
		C9.574,7.259,9.718,7.364,9.859,7.47c0.22,0.168,0.472,0.281,0.73,0.381c0.275,0.106,0.568,0.15,0.858,0.187
		c0.238,0.031,0.478,0.046,0.718,0.039c0.305-0.009,0.612-0.062,0.908-0.134c0.508-0.123,1.004-0.347,1.426-0.655
		c0.426-0.312,0.806-0.677,1.142-1.083c0.297-0.357,0.587-0.715,0.77-1.144c0.044-0.103,0.083-0.206,0.115-0.312
		c0.027-0.064,0.052-0.13,0.075-0.195c0.094-0.256,0.148-0.518,0.176-0.79c0.012-0.114,0.005-0.229-0.005-0.343
		c-0.014-0.13-0.036-0.257-0.078-0.381c-0.095-0.275-0.255-0.516-0.45-0.728c-0.081-0.085-0.171-0.16-0.263-0.232
		c-0.109-0.087-0.223-0.17-0.343-0.243c-0.24-0.146-0.512-0.256-0.774-0.359c-0.768-0.301-1.593-0.4-2.408-0.458
		C12.275,1.007,12.092,1,11.908,1C11.189,1,10.47,1.121,9.865,1.539"/>
	<path opacity="0.9753" fill="#FFFFFF" d="M3.733,7.815C3.607,7.828,3.481,7.844,3.355,7.862c-0.114,0.018-0.23,0.036-0.339,0.073
		C2.188,8.213,2.062,9.184,2.037,9.941c-0.014,0.379,0.007,0.753,0.042,1.132c0.068,0.728,0.281,1.423,0.442,2.132
		c0.074,0.324,0.152,0.645,0.26,0.961c0.048,0.143,0.102,0.283,0.158,0.42c0.033,0.078,0.065,0.154,0.102,0.23
		c0.091,0.191,0.278,0.328,0.428,0.471c0,0.002,0.002,0,0,0C3.4,15.15,3.321,15.021,3.258,14.883
		c-0.03-0.078-0.042-0.158-0.055-0.238c-0.04-0.338-0.073-0.676-0.081-1.014c-0.008-0.348-0.004-0.695-0.025-1.045
		c-0.043-0.705-0.092-1.412-0.04-2.12c0.024-0.306,0.049-0.608,0.082-0.911C3.167,9.377,3.2,9.201,3.26,9.03
		c0.017-0.035,0.037-0.07,0.058-0.104c0.01-0.011,0.021-0.021,0.031-0.033C3.371,8.88,3.394,8.867,3.417,8.855
		C3.665,8.762,3.927,8.704,4.188,8.66c0.517-0.061,1.037-0.096,1.554-0.154C6.438,8.428,7.132,8.332,7.824,8.22
		c0.002,0,0.002-0.002,0-0.002C6.978,8.083,6.128,7.967,5.275,7.884C4.935,7.85,4.592,7.819,4.25,7.809
		C4.169,7.806,4.088,7.804,4.007,7.804C3.916,7.804,3.824,7.807,3.733,7.815"/>
	<path opacity="0.9753" fill="#FFFFFF" d="M4.721,1.586C4.44,1.629,4.176,1.725,3.923,1.855C3.704,1.966,3.501,2.124,3.321,2.291
		C3.124,2.475,2.953,2.698,2.808,2.927C2.666,3.151,2.566,3.408,2.494,3.662C2.436,3.863,2.413,4.073,2.387,4.278
		c-0.02,0.166-0.029,0.331-0.032,0.497c-0.003,0.167-0.001,0.333,0.003,0.5C2.363,5.515,2.405,5.76,2.453,5.995
		c0.023,0.117,0.058,0.232,0.09,0.349C2.654,6.746,2.847,7.122,3.14,7.423c0.156,0.162,0.35,0.298,0.544,0.411
		C3.89,7.955,4.12,8.043,4.35,8.11c0.395,0.113,0.814,0.133,1.223,0.123C6.032,8.221,6.486,8.16,6.941,8.094
		c0.001,0,0.001-0.001,0-0.001C6.221,7.978,5.481,7.895,4.8,7.619C4.588,7.525,4.39,7.412,4.202,7.274
		C4.065,7.163,3.941,7.042,3.828,6.906C3.76,6.809,3.702,6.71,3.653,6.603C3.574,6.387,3.537,6.166,3.504,5.94
		C3.457,5.436,3.501,4.935,3.554,4.432C3.561,4.386,3.567,4.338,3.575,4.29c0.03-0.204,0.09-0.402,0.162-0.594
		c0.076-0.163,0.168-0.315,0.273-0.46c0.11-0.131,0.227-0.254,0.359-0.365c0.122-0.088,0.249-0.165,0.386-0.229
		C4.909,2.584,5.067,2.543,5.23,2.516c0.32-0.031,0.645-0.017,0.963,0.02C6.42,2.57,6.642,2.623,6.856,2.705
		c0.301,0.136,0.568,0.331,0.832,0.529c0.4,0.319,0.803,0.633,1.209,0.946c0,0,0.002,0,0,0C8.606,3.772,8.309,3.37,8.006,2.972
		c-0.272-0.357-0.583-0.69-0.968-0.927C6.825,1.914,6.581,1.822,6.343,1.745C6.08,1.66,5.803,1.61,5.53,1.575
		C5.405,1.56,5.283,1.552,5.161,1.552C5.015,1.552,4.869,1.563,4.721,1.586"/>
</g>
</svg>
