<?xml version="1.0" encoding="utf-8"?>
<!-- Generator: Adobe Illustrator 15.0.0, SVG Export Plug-In . SVG Version: 6.00 Build 0)  -->
<!DOCTYPE svg PUBLIC "-//W3C//DTD SVG 1.1//EN" "http://www.w3.org/Graphics/SVG/1.1/DTD/svg11.dtd">
<svg version="1.1" id="Capa_1" xmlns="http://www.w3.org/2000/svg" xmlns:xlink="http://www.w3.org/1999/xlink" x="0px" y="0px"
	 width="45px" height="45px" viewBox="-0.5 -0.5 45 45" enable-background="new -0.5 -0.5 45 45" xml:space="preserve">
<g>
	<path fill="#FFFFFF" d="M32.013,34.397L32.013,34.397l0.002-0.001C32.014,34.396,32.014,34.396,32.013,34.397 M32.24,33.95
		c-0.001,0.003-0.001,0.006-0.002,0.009C32.239,33.956,32.239,33.953,32.24,33.95 M32.857,11.865
		c0.047,0.524,0.063,1.051,0.07,1.577c0.005,0.336,0.007,0.671,0.005,1.007c-0.001,0.32-0.011,0.64-0.02,0.96
		c-0.008,0.309-0.024,0.617-0.038,0.925c-0.014,0.295-0.042,0.589-0.066,0.883c-0.045,0.555-0.092,1.109-0.152,1.662
		c-0.065,0.605-0.134,1.208-0.211,1.812c-0.066,0.505-0.133,1.01-0.199,1.515c-0.047,0.339-0.095,0.679-0.142,1.018
		c-0.006,0.051-0.013,0.103-0.02,0.153c-0.038,0.284-0.058,0.571-0.082,0.857c-0.013,0.146-0.024,0.293-0.037,0.438
		c-0.009,0.11-0.007,0.222-0.01,0.333c-0.009,0.316-0.024,0.635-0.021,0.952c0.003,0.369,0.008,0.738,0.016,1.107
		c0.024,1.213,0.08,2.426,0.156,3.635c0.024,0.378,0.053,0.754,0.073,1.131c0.016,0.278,0.033,0.556,0.053,0.834
		c0.019,0.266,0.033,0.531,0.031,0.797c-0.09-0.035-0.179-0.072-0.271-0.101c-0.061-0.02-0.122-0.022-0.184-0.029
		c-0.086-0.009-0.172-0.018-0.258-0.026c-0.154-0.016-0.309-0.03-0.463-0.045c-0.279-0.027-0.559-0.053-0.84-0.077
		c-0.604-0.051-1.207-0.097-1.812-0.115c-0.596-0.02-1.192-0.036-1.788-0.041c-0.64-0.006-1.278,0.011-1.917,0.038
		c-0.578,0.024-1.157,0.023-1.736,0.046c-0.633,0.025-1.264,0.07-1.895,0.137c-0.309,0.032-0.618,0.072-0.927,0.112
		c-0.309,0.038-0.619,0.068-0.929,0.099c-0.575,0.058-1.154,0.082-1.73,0.123c-0.61,0.041-1.22,0.087-1.831,0.096
		c-0.601,0.011-1.201-0.002-1.802-0.02c-0.271-0.007-0.541-0.016-0.812-0.025c-0.226-0.009-0.452-0.018-0.678-0.035
		c-0.003-0.18,0.003-0.359,0.011-0.539c0.013-0.312,0.036-0.622,0.059-0.933c0.044-0.607,0.103-1.214,0.144-1.821
		c0.041-0.632,0.06-1.264,0.079-1.895c0.019-0.599,0.029-1.197,0.033-1.796c0.009-1.195,0.009-2.392,0.023-3.588
		c0.014-1.196,0.029-2.392,0.051-3.588c0.023-1.263,0.051-2.526,0.078-3.79c0.012-0.598,0.024-1.197,0.03-1.796
		c0.004-0.329,0.006-0.657,0.006-0.985c0-0.318-0.006-0.635,0-0.953c0.061,0.001,0.122,0.003,0.183,0.006
		c0.156,0.006,0.312,0.014,0.468,0.022c0.287,0.016,0.574,0.032,0.861,0.034c0.623,0.003,1.246,0.008,1.869,0.008
		c1.26,0,2.521,0.003,3.78,0.014c1.23,0.009,2.46,0.032,3.688,0.056c1.184,0.023,2.367,0.051,3.551,0.076
		c0.637,0.013,1.272,0.02,1.909,0.026c0.318,0.003,0.638-0.014,0.957-0.021c0.294-0.006,0.585-0.041,0.877-0.067
		c0.479-0.043,0.957-0.114,1.434-0.18C32.606,11.875,32.732,11.866,32.857,11.865 M32.13,10.355c-0.331,0.05-0.662,0.104-0.992,0.16
		c-0.261,0.035-0.521,0.069-0.782,0.103c-0.106,0.014-0.214,0.016-0.32,0.023c-0.214,0.015-0.427,0.029-0.641,0.044
		c-0.274,0.019-0.549,0.026-0.823,0.037c-0.263,0.01-0.524,0.021-0.787,0.028c-1.273,0.036-2.547,0.067-3.82,0.093
		c-1.255,0.026-2.51,0.045-3.765,0.06c-0.552,0.006-1.104,0.009-1.656,0.012c-0.606,0.002-1.214,0.011-1.821,0.002
		c-0.521-0.007-1.041-0.019-1.562-0.037c-0.232-0.008-0.465-0.022-0.697-0.034c-0.186-0.01-0.371-0.032-0.556-0.053
		c-0.266-0.042-0.532-0.084-0.795-0.14c-0.098-0.021-0.195-0.041-0.292-0.068c-0.13-0.036-0.272-0.054-0.407-0.059
		c-0.013,0.002-0.026,0.003-0.039,0.005c-0.08-0.002-0.157,0.011-0.23,0.039c-0.153,0.054-0.278,0.122-0.397,0.233
		c-0.197,0.185-0.298,0.455-0.336,0.718c-0.028,0.191-0.051,0.386-0.05,0.58c0.003,0.657,0.019,1.313,0.032,1.97
		c0.024,1.167,0.051,2.333,0.076,3.5c0.026,1.258,0.049,2.516,0.067,3.775c0.017,1.248,0.029,2.497,0.038,3.745
		c0.003,0.59,0.004,1.18,0,1.771c-0.003,0.589-0.021,1.176-0.044,1.764c-0.008,0.213-0.014,0.426-0.027,0.637
		c-0.015,0.249-0.022,0.498-0.045,0.745c-0.041,0.456-0.083,0.91-0.139,1.364c-0.081,0.579-0.163,1.156-0.25,1.734
		c-0.021,0.142-0.045,0.283-0.07,0.425c-0.012,0.065-0.025,0.132-0.039,0.196c-0.025,0.128-0.054,0.24-0.066,0.373
		c-0.008,0.094,0.006,0.202,0.027,0.289c0.044,0.174,0.115,0.275,0.225,0.411c0.127,0.156,0.299,0.232,0.48,0.306
		c0.084,0.034,0.169,0.054,0.258,0.068c0.219,0.035,0.44,0.061,0.662,0.064c0.146,0.004,0.293,0.009,0.439,0.009
		c0.613-0.002,1.227-0.01,1.84-0.026c0.339-0.01,0.675-0.025,1.013-0.045c0.3-0.019,0.599-0.052,0.898-0.079
		c0.27-0.026,0.539-0.059,0.809-0.084c0.302-0.029,0.605-0.057,0.908-0.087c0.68-0.069,1.357-0.149,2.033-0.249
		c0.142-0.021,0.283-0.041,0.425-0.062c0.26-0.034,0.521-0.069,0.781-0.106c0.56-0.067,1.12-0.14,1.682-0.194
		c0.652-0.063,1.304-0.133,1.954-0.218c0.597-0.077,1.195-0.131,1.794-0.191c0.604-0.062,1.21-0.122,1.814-0.184
		c0.48-0.049,0.963-0.089,1.444-0.133c0.26-0.023,0.519-0.048,0.777-0.073c0.13-0.014,0.259-0.026,0.389-0.039
		c0.062-0.007,0.126-0.013,0.188-0.02c0.033-0.004,0.066-0.007,0.1-0.011c0.104-0.012,0.2-0.006,0.303,0.008
		c-0.001,0-0.003-0.001-0.005-0.001c0.044,0.007,0.089,0.013,0.133,0.018c-0.001,0.167-0.009,0.333-0.026,0.499
		c-0.013,0.078-0.028,0.152-0.056,0.228c-0.016,0.032-0.031,0.061-0.053,0.091c-0.036,0.039-0.073,0.074-0.114,0.108h0.001
		c-0.001,0-0.001,0-0.002,0c0,0.001-0.001,0.001-0.001,0.001l0,0c-0.03,0.022-0.059,0.039-0.093,0.055
		c-0.001,0.001,0,0.002,0.001,0.002c0.134-0.023,0.262-0.097,0.347-0.203c0.105-0.132,0.153-0.309,0.201-0.468
		c0.1-0.332,0.16-0.672,0.202-1.016c0.041-0.322,0.084-0.646,0.113-0.971c0.058-0.648,0.104-1.298,0.141-1.948
		c0.068-1.228,0.108-2.458,0.138-3.687c0.006-0.261,0.021-0.521,0.033-0.781c0.012-0.275,0.016-0.552,0.04-0.826
		c0.032-0.359,0.064-0.72,0.092-1.08c0.009-0.106,0.025-0.213,0.038-0.32c0.024-0.214,0.05-0.428,0.074-0.643
		c0.062-0.534,0.124-1.069,0.188-1.604c0.082-0.682,0.156-1.364,0.226-2.047c0.058-0.556,0.102-1.113,0.148-1.67
		c0.023-0.292,0.051-0.584,0.065-0.878c0.016-0.309,0.032-0.617,0.047-0.926c0.029-0.648,0.053-1.297,0.074-1.945
		c0.02-0.574,0.037-1.149,0.095-1.722c0.005-0.027,0.01-0.055,0.015-0.083c0.037-0.18,0.059-0.374,0.007-0.554
		c-0.051-0.181-0.147-0.344-0.288-0.468c-0.148-0.133-0.314-0.21-0.505-0.268c-0.146-0.044-0.306-0.053-0.458-0.064
		c-0.042-0.002-0.084-0.004-0.127-0.004C32.594,10.28,32.359,10.321,32.13,10.355"/>
	<path fill="#FFFFFF" d="M18.527,14.896c-0.451,0.036-0.902,0.076-1.353,0.12c-0.547,0.054-1.095,0.107-1.637,0.195
		c-0.001,0-0.001,0.001,0,0.001c0.71,0.115,1.431,0.178,2.147,0.243c0.588,0.053,1.177,0.1,1.766,0.144
		c0.515,0.038,1.031,0.066,1.546,0.103c0.285,0.021,0.569,0.039,0.854,0.054c0.276,0.014,0.551,0.041,0.827,0.056
		c0.104,0.013,0.214,0.015,0.316,0.021c0.208,0.012,0.416,0.021,0.624,0.03c0.303,0.013,0.604,0.026,0.907,0.035
		c0.58,0.018,1.16,0.022,1.74,0.025c0.549,0.003,1.099,0.008,1.648,0.004c0.259-0.002,0.519,0.01,0.777,0.013
		c0.396,0.004,0.791,0.006,1.187,0.006c0.001,0,0.001-0.001,0-0.001c-0.432-0.132-0.865-0.257-1.3-0.375
		c-0.256-0.069-0.513-0.14-0.771-0.196c-0.308-0.067-0.615-0.139-0.925-0.192c-0.334-0.057-0.668-0.11-1.002-0.161
		c-0.66-0.098-1.327-0.162-1.99-0.218c-0.599-0.052-1.197-0.075-1.798-0.08c-0.065,0-0.13-0.001-0.194-0.001
		C20.773,14.722,19.647,14.807,18.527,14.896"/>
	<path fill="#FFFFFF" d="M24.199,20.232c-1.182,0.014-2.361,0.07-3.541,0.128c-1.255,0.062-2.51,0.151-3.762,0.262
		c-0.368,0.033-0.737,0.066-1.105,0.103c-0.167,0.017-0.333,0.033-0.5,0.051c-0.098,0.01-0.196,0.021-0.294,0.033
		c-0.205,0.023-0.404,0.072-0.604,0.121c-0.001,0,0,0.001,0,0.001c0.179,0.014,0.359,0.012,0.538,0.033
		c0.076,0.008,0.152,0.017,0.229,0.025c0.171,0.019,0.343,0.037,0.515,0.053c0.307,0.03,0.613,0.06,0.92,0.087
		c0.573,0.05,1.146,0.1,1.72,0.142c0.608,0.044,1.217,0.083,1.825,0.111c0.598,0.028,1.199,0.053,1.797,0.041
		c1.266-0.025,2.529-0.137,3.784-0.298c0.738-0.095,1.479-0.155,2.224-0.162c0.535-0.006,1.071-0.018,1.606-0.031
		c0.001,0,0.001-0.001,0-0.001c-0.953-0.272-1.915-0.534-2.903-0.639c-0.521-0.056-1.048-0.059-1.572-0.062c-0.08,0-0.161,0-0.241,0
		C24.622,20.229,24.41,20.229,24.199,20.232"/>
	<path fill="#FFFFFF" d="M23.259,24.9c-0.018,0-0.034,0-0.052,0c-0.048,0-0.096,0-0.145,0.002c-0.05,0.001-0.101,0.003-0.151,0.005
		c-0.097,0.004-0.203,0-0.299,0.021c-1.231,0.062-2.461,0.185-3.683,0.351c-0.1,0.014-0.2,0.028-0.3,0.042
		c-0.541,0.063-1.081,0.128-1.62,0.204c0.014-0.002,0.028-0.004,0.043-0.006c-0.118,0.016-0.237,0.032-0.355,0.049
		c-0.132,0.018-0.263,0.036-0.395,0.056c-0.081,0.01-0.157,0.024-0.236,0.047c-0.111,0.033-0.217,0.081-0.325,0.121
		c0,0,0,0.002,0,0.002c0.191-0.006,0.378-0.027,0.57-0.008c0.069,0.007,0.139,0.012,0.209,0.018
		c0.168,0.015,0.338,0.025,0.507,0.036c0.312,0.02,0.625,0.039,0.938,0.057c0.573,0.032,1.146,0.036,1.719,0.042
		c1.001,0.009,2.004,0.006,3.005-0.04h-0.001c0.13,0.008,0.26-0.01,0.391-0.015c0.152-0.007,0.304-0.014,0.455-0.021
		c0.288-0.015,0.576-0.032,0.864-0.051c0.603-0.038,1.204-0.086,1.806-0.13c1.158-0.086,2.315-0.2,3.47-0.338
		c0.001,0,0.001-0.001,0-0.001c-1.411-0.168-2.828-0.305-4.246-0.386c-0.444-0.026-0.889-0.043-1.333-0.05
		c-0.241-0.004-0.482-0.006-0.724-0.006C23.334,24.9,23.297,24.9,23.259,24.9"/>
</g>
</svg>
