<?xml version="1.0" encoding="utf-8"?>
<!-- Generator: Adobe Illustrator 15.0.0, SVG Export Plug-In . SVG Version: 6.00 Build 0)  -->
<!DOCTYPE svg PUBLIC "-//W3C//DTD SVG 1.1//EN" "http://www.w3.org/Graphics/SVG/1.1/DTD/svg11.dtd">
<svg version="1.1" id="Capa_1" xmlns="http://www.w3.org/2000/svg" xmlns:xlink="http://www.w3.org/1999/xlink" x="0px" y="0px"
	 width="20px" height="20px" viewBox="12.5 12.5 20 20" enable-background="new 12.5 12.5 20 20" xml:space="preserve">
<g>
	<path opacity="0.9753" fill="#919191" d="M20.408,26.852c-0.029,0.004-0.06,0.007-0.089,0.012
		C20.349,26.858,20.379,26.855,20.408,26.852 M25.226,16.331c0.18-0.009,0.358-0.015,0.539,0.002
		c0.139,0.023,0.272,0.062,0.404,0.112c0.063,0.029,0.127,0.059,0.189,0.091c0.07,0.037,0.138,0.079,0.206,0.122
		c0.126,0.079,0.248,0.161,0.365,0.249c0.077,0.062,0.153,0.124,0.227,0.188c0.075,0.067,0.141,0.137,0.205,0.212
		c0.037,0.052,0.073,0.105,0.107,0.16c0.042,0.067,0.077,0.14,0.113,0.212c0.024,0.062,0.047,0.125,0.065,0.19
		c0.025,0.091,0.049,0.182,0.072,0.272c0.047,0.184,0.093,0.365,0.125,0.552c0.026,0.232,0.033,0.467,0.037,0.701
		c0.004,0.125,0.004,0.25,0.004,0.376c0.002,0.113,0.002,0.225-0.008,0.338c-0.016,0.099-0.035,0.197-0.062,0.294
		c-0.032,0.111-0.077,0.219-0.12,0.327c-0.051,0.118-0.103,0.235-0.162,0.349c-0.07,0.133-0.148,0.256-0.236,0.377
		c-0.043,0.053-0.084,0.107-0.127,0.159c-0.079,0.096-0.163,0.19-0.236,0.291c-0.06,0.08-0.118,0.16-0.173,0.243
		c-0.052,0.082-0.098,0.168-0.145,0.253c-0.087,0.161-0.157,0.329-0.229,0.495c-0.048,0.113-0.095,0.226-0.132,0.342
		c-0.028,0.09-0.052,0.181-0.076,0.271c-0.104,0.395-0.144,0.805-0.146,1.212c0,0.051,0,0.101,0.001,0.15
		c0.004,0.125,0.014,0.252,0.048,0.373c0.035,0.132,0.08,0.256,0.135,0.383c0.123,0.287,0.393,0.478,0.686,0.564
		c0.095,0.028,0.19,0.051,0.287,0.073c0.14,0.033,0.277,0.073,0.415,0.106c0.157,0.035,0.314,0.071,0.47,0.111
		c0.271,0.067,0.537,0.152,0.798,0.254c0.176,0.081,0.349,0.166,0.515,0.263c0.169,0.097,0.323,0.207,0.479,0.32
		c0.141,0.116,0.275,0.235,0.394,0.376c0.081,0.112,0.149,0.228,0.209,0.35c0.018,0.039,0.037,0.077,0.054,0.116
		c0.084,0.232,0.147,0.472,0.187,0.716c0.003,0.034,0.006,0.066,0.008,0.101c-0.034,0.022-0.07,0.044-0.109,0.062
		c-0.024,0.01-0.052,0.018-0.077,0.026c-0.036,0.01-0.073,0.017-0.111,0.023c-0.367,0.036-0.737,0.032-1.104,0.054
		c-0.204,0.012-0.41,0.025-0.615,0.039c-0.204,0.012-0.408,0.017-0.613,0.021c-0.795,0.021-1.592,0.017-2.386,0.02
		c-0.193,0-0.388,0-0.58-0.003c-0.185,0-0.368-0.012-0.554-0.017c-0.4-0.012-0.803-0.017-1.204-0.018
		c-0.402-0.003-0.804-0.008-1.207-0.004c-0.19,0.001-0.383,0.005-0.575,0.004c-0.202-0.003-0.404-0.004-0.605-0.002
		c-0.396,0.006-0.79,0.026-1.185,0.049c-0.392,0.023-0.783,0.05-1.173,0.082c-0.335,0.025-0.67,0.055-1.004,0.086
		c-0.154,0.016-0.309,0.029-0.462,0.045c-0.078,0.008-0.158,0.013-0.235,0.03c0.011-0.077,0.022-0.156,0.034-0.233
		c0.027-0.174,0.06-0.346,0.125-0.511c0.083-0.187,0.195-0.36,0.318-0.523c0.159-0.2,0.347-0.367,0.543-0.529
		c0.106-0.075,0.214-0.152,0.33-0.216c0.065-0.035,0.131-0.071,0.196-0.107c0.051-0.027,0.107-0.052,0.161-0.074
		c0.13-0.051,0.26-0.1,0.393-0.14c0.161-0.048,0.321-0.092,0.484-0.128c0.147-0.032,0.296-0.057,0.445-0.082
		c0.159-0.027,0.316-0.056,0.475-0.083c0.042-0.005,0.084-0.012,0.127-0.017c0.203-0.027,0.408-0.052,0.607-0.098
		c0.353-0.084,0.705-0.23,0.968-0.489c0.099-0.097,0.184-0.212,0.258-0.33c0.084-0.129,0.146-0.271,0.199-0.415
		c0.047-0.124,0.076-0.257,0.102-0.387c0.042-0.225,0.062-0.451,0.074-0.679c0.004-0.077,0.004-0.154,0.004-0.23
		c0-0.048-0.006-0.096-0.013-0.143c-0.009-0.079-0.021-0.155-0.039-0.231c-0.03-0.114-0.078-0.224-0.128-0.332
		c-0.064-0.145-0.137-0.286-0.203-0.431c-0.062-0.141-0.123-0.283-0.188-0.424c-0.064-0.143-0.131-0.286-0.195-0.43
		c-0.045-0.114-0.087-0.228-0.117-0.346c-0.036-0.135-0.063-0.272-0.088-0.411c-0.032-0.294-0.043-0.588-0.047-0.883
		c-0.002-0.172-0.004-0.345,0.002-0.518c0.005-0.144,0.02-0.289,0.036-0.433c0.019-0.12,0.037-0.24,0.065-0.358
		c0.019-0.077,0.038-0.153,0.062-0.229c0.023-0.075,0.05-0.149,0.077-0.223c0.09-0.25,0.186-0.498,0.285-0.744
		c0.098-0.21,0.204-0.414,0.342-0.602c0.107-0.132,0.232-0.253,0.363-0.36c0.117-0.085,0.24-0.163,0.368-0.233
		c0.115-0.064,0.232-0.123,0.352-0.18c0.062-0.027,0.126-0.053,0.19-0.076c0.117-0.042,0.233-0.083,0.351-0.122
		c0.189-0.062,0.385-0.097,0.581-0.13C24.951,16.351,25.087,16.338,25.226,16.331 M24.993,15.602
		c-0.221,0.018-0.439,0.055-0.655,0.101c-0.185,0.04-0.365,0.096-0.541,0.159c-0.435,0.153-0.866,0.341-1.237,0.619
		c-0.12,0.089-0.231,0.186-0.337,0.291c-0.113,0.112-0.211,0.239-0.301,0.369c-0.063,0.091-0.122,0.189-0.172,0.288
		c-0.107,0.204-0.196,0.417-0.282,0.63c-0.072,0.178-0.14,0.358-0.206,0.54c-0.067,0.187-0.125,0.374-0.163,0.568
		c-0.08,0.414-0.122,0.832-0.12,1.253c0.004,0.428,0.006,0.854,0.072,1.278c0.014,0.092,0.03,0.188,0.053,0.279
		c0.025,0.092,0.044,0.188,0.078,0.277c0.079,0.21,0.169,0.415,0.263,0.618c0.082,0.177,0.155,0.358,0.233,0.535
		c0.078,0.174,0.164,0.343,0.241,0.516c0.027,0.071,0.048,0.145,0.062,0.22c0.018,0.211-0.001,0.426-0.021,0.637
		c-0.029,0.181-0.07,0.361-0.135,0.533c-0.05,0.107-0.109,0.211-0.18,0.308c-0.044,0.053-0.092,0.104-0.145,0.15
		c-0.084,0.056-0.17,0.106-0.261,0.147c-0.184,0.071-0.378,0.108-0.573,0.141c-0.196,0.032-0.392,0.062-0.585,0.104
		c-0.084,0.017-0.166,0.038-0.249,0.06c-0.096,0.024-0.194,0.045-0.289,0.072c-0.185,0.052-0.368,0.105-0.546,0.178
		c-0.12,0.048-0.24,0.097-0.359,0.15c-0.09,0.04-0.177,0.087-0.265,0.132c-0.037,0.021-0.072,0.044-0.107,0.065
		s-0.071,0.043-0.105,0.066c-0.099,0.071-0.197,0.143-0.291,0.22c-0.15,0.123-0.29,0.256-0.412,0.405
		c-0.124,0.153-0.246,0.306-0.343,0.479c-0.069,0.121-0.125,0.249-0.177,0.379c-0.052,0.133-0.091,0.271-0.108,0.414
		c-0.02,0.157-0.013,0.318-0.002,0.476c0.006,0.078,0.012,0.156,0.018,0.234c-0.014,0.004-0.027,0.007-0.042,0.012
		c-0.102,0.028-0.193,0.092-0.285,0.142c-0.001,0,0,0,0,0c0.088-0.021,0.173-0.05,0.263-0.066c0.023-0.002,0.047-0.004,0.071-0.006
		c0.006,0.068,0.012,0.135,0.018,0.201c0,0.001,0.001,0.001,0.001,0c0.01-0.066,0.019-0.134,0.029-0.202
		c0.143,0.001,0.285,0.023,0.426,0.036c0.184,0.02,0.369,0.036,0.553,0.053c0.399,0.036,0.799,0.068,1.199,0.098
		c0.789,0.056,1.58,0.091,2.369,0.139c0.382,0.023,0.764,0.024,1.146,0.023c0.402-0.002,0.803-0.004,1.204-0.004
		c0.395,0,0.788,0.009,1.18,0.019c0.296,0.009,0.589,0.009,0.884,0.009c0.107,0,0.214,0,0.32,0c0.799,0.002,1.6,0.015,2.401-0.005
		c0.181-0.004,0.362-0.017,0.543-0.022c0.204-0.008,0.407-0.014,0.612-0.016c0.198-0.003,0.395-0.005,0.592-0.019
		c0.137-0.009,0.276-0.025,0.41-0.061c0.086-0.022,0.174-0.063,0.256-0.101c0.051-0.021,0.095-0.05,0.142-0.078
		c0.044-0.03,0.084-0.064,0.128-0.097c0.046-0.038,0.084-0.091,0.118-0.139c0.047-0.064,0.077-0.142,0.097-0.218
		c0.015-0.055,0.019-0.112,0.02-0.167c0.004-0.052-0.011-0.12-0.017-0.165c-0.007-0.047-0.013-0.092-0.022-0.139
		c-0.018-0.094-0.035-0.188-0.055-0.281c-0.02-0.091-0.043-0.183-0.07-0.272c-0.037-0.123-0.084-0.24-0.133-0.359
		c-0.049-0.113-0.101-0.222-0.161-0.326c-0.073-0.13-0.168-0.248-0.263-0.362c-0.057-0.069-0.121-0.131-0.188-0.19
		c-0.161-0.149-0.342-0.278-0.52-0.407c-0.074-0.057-0.157-0.108-0.238-0.153c-0.084-0.051-0.17-0.101-0.258-0.145
		c-0.203-0.101-0.41-0.197-0.624-0.273c-0.377-0.136-0.764-0.231-1.149-0.333c-0.121-0.031-0.239-0.068-0.36-0.101
		c-0.123-0.033-0.252-0.06-0.373-0.104c-0.029-0.015-0.061-0.032-0.089-0.05c-0.013-0.01-0.021-0.021-0.032-0.031
		c-0.016-0.025-0.032-0.054-0.046-0.081c-0.033-0.09-0.06-0.182-0.079-0.277c-0.012-0.148-0.005-0.299,0-0.448
		c0.005-0.123,0.015-0.244,0.027-0.364c0.056-0.342,0.137-0.681,0.266-1.004c0.061-0.141,0.128-0.279,0.199-0.414
		c0.079-0.142,0.165-0.276,0.261-0.407c0.13-0.16,0.266-0.315,0.385-0.484c0.058-0.079,0.113-0.159,0.165-0.243
		c0.053-0.084,0.097-0.172,0.139-0.26c0.096-0.196,0.186-0.396,0.258-0.601c0.072-0.212,0.117-0.433,0.135-0.656
		c0.014-0.188,0.005-0.379,0.002-0.568c-0.002-0.201-0.005-0.402-0.017-0.604c-0.007-0.097-0.017-0.194-0.029-0.292
		c-0.016-0.119-0.034-0.241-0.062-0.358c-0.049-0.192-0.097-0.384-0.148-0.574c-0.061-0.217-0.153-0.42-0.264-0.615
		c-0.022-0.038-0.047-0.073-0.071-0.111c-0.013-0.019-0.028-0.037-0.041-0.055c-0.031-0.041-0.061-0.084-0.093-0.123
		c-0.062-0.072-0.123-0.143-0.195-0.206c-0.073-0.064-0.147-0.128-0.224-0.189c-0.096-0.075-0.191-0.153-0.292-0.221
		c-0.158-0.108-0.321-0.216-0.492-0.302c-0.132-0.067-0.267-0.126-0.406-0.176c-0.233-0.085-0.482-0.121-0.729-0.124
		c-0.015,0-0.031,0-0.047,0C25.361,15.573,25.177,15.586,24.993,15.602"/>
	<g>
		<path opacity="0.9753" fill="#919191" d="M17.869,27.471l0.884-0.469c-0.773,0.028-1.545,0.067-2.317,0.115
			c-0.388,0.023-0.775,0.058-1.164,0.073c-0.392,0.017-0.783-0.004-1.173-0.027c-0.113-0.005-0.226-0.015-0.339-0.021c0,0,0,0,0,0
			c0.424,0.125,0.86,0.227,1.298,0.29c0.397,0.055,0.802,0.075,1.202,0.1c0.633,0.04,1.266,0.073,1.9,0.101L17.869,27.471z"/>
		<path opacity="0.9753" fill="#919191" d="M13.993,26.368c0.046-0.056,0.095-0.104,0.151-0.151c0.118-0.085,0.245-0.152,0.377-0.21
			c0.226-0.092,0.46-0.152,0.699-0.198c0.191-0.038,0.379-0.085,0.565-0.146c0.096-0.031,0.19-0.067,0.285-0.105
			c0.25-0.098,0.494-0.223,0.679-0.422c0.175-0.187,0.26-0.437,0.296-0.686c0.01-0.062,0.018-0.125,0.024-0.187
			c0.006-0.082-0.007-0.164-0.018-0.243c-0.025-0.159-0.083-0.306-0.149-0.453c-0.046-0.104-0.102-0.204-0.16-0.302
			c-0.051-0.087-0.111-0.169-0.164-0.255c-0.108-0.173-0.204-0.349-0.286-0.533c-0.025-0.066-0.042-0.135-0.052-0.203
			c-0.008-0.079-0.013-0.159-0.016-0.238c-0.004-0.108-0.008-0.217,0.001-0.325c0.012-0.065,0.03-0.131,0.054-0.195
			c0.038-0.081,0.08-0.161,0.133-0.232c0.016-0.021,0.031-0.042,0.046-0.063c0.056-0.065,0.113-0.129,0.174-0.192
			c0.056-0.058,0.119-0.109,0.183-0.16c0.067-0.047,0.134-0.095,0.204-0.139c0.088-0.054,0.176-0.108,0.265-0.161
			c0.075-0.046,0.151-0.091,0.228-0.131c0.073-0.039,0.146-0.073,0.221-0.107c0.05-0.018,0.1-0.036,0.15-0.055
			c0.057-0.021,0.118-0.034,0.176-0.05c0.087-0.025,0.178-0.038,0.27-0.052c0.2-0.018,0.401-0.035,0.602-0.019
			c0.046,0.009,0.091,0.021,0.135,0.037c0.03,0.015,0.06,0.031,0.088,0.049c0.023,0.021,0.045,0.045,0.066,0.069
			c0.045,0.062,0.085,0.127,0.12,0.198c0.009,0.02,0.019,0.04,0.027,0.059c0.02,0.052,0.039,0.104,0.056,0.158
			c0.022,0.075,0.041,0.15,0.059,0.228c0.026,0.111,0.042,0.224,0.058,0.338c0.01,0.087,0.019,0.174,0.027,0.262
			c0.01,0.113,0.016,0.229,0.006,0.342c-0.014,0.067-0.035,0.133-0.059,0.198c-0.075,0.162-0.157,0.319-0.235,0.48
			c-0.087,0.178-0.182,0.351-0.275,0.527c-0.088,0.165-0.168,0.334-0.256,0.5c-0.121,0.227-0.242,0.46-0.282,0.716
			c-0.016,0.104-0.031,0.207-0.041,0.312c-0.003,0.037-0.006,0.076-0.01,0.114c-0.006,0.075-0.002,0.144,0.013,0.218
			c0.003,0.019,0.009,0.036,0.016,0.055c0.032,0.09,0.055,0.118,0.112,0.194c0.083,0.106,0.22,0.168,0.346,0.204
			c0.072,0.021,0.15,0.025,0.223,0.034c0.027,0.004,0.055,0.007,0.082,0.008c0.086,0.005,0.171,0.007,0.257,0.01
			c0.106,0.001,0.211,0,0.318-0.002c0.206-0.003,0.41-0.005,0.614,0.016c0.087,0.016,0.173,0.036,0.256,0.065
			c0.036,0.019,0.07,0.038,0.104,0.061c0.026,0.024,0.05,0.048,0.073,0.074c0.042,0.062,0.074,0.127,0.107,0.194
			c0.04,0.107,0.074,0.215,0.104,0.326c0.023,0.083,0.04,0.167,0.054,0.253l0.242-0.021l0.433-0.408
			c-0.02-0.077-0.042-0.153-0.069-0.229c-0.044-0.118-0.094-0.234-0.151-0.347c-0.04-0.078-0.093-0.148-0.148-0.216
			c-0.039-0.05-0.081-0.095-0.13-0.136c-0.06-0.049-0.121-0.096-0.188-0.136c-0.079-0.049-0.17-0.081-0.257-0.114
			c-0.217-0.08-0.454-0.095-0.683-0.115c-0.109-0.009-0.222-0.008-0.333-0.01c-0.205-0.005-0.411-0.008-0.614-0.031
			c-0.009-0.001-0.018-0.001-0.027-0.004c0.002-0.046,0.007-0.091,0.011-0.136c0.02-0.115,0.044-0.228,0.086-0.339
			c0.071-0.154,0.152-0.306,0.229-0.458c0.04-0.079,0.078-0.162,0.12-0.24c0.044-0.084,0.09-0.168,0.134-0.251
			c0.091-0.173,0.174-0.349,0.264-0.522c0.045-0.092,0.089-0.183,0.13-0.276c0.052-0.113,0.099-0.225,0.127-0.345
			c0.034-0.136,0.04-0.279,0.033-0.419c-0.012-0.222-0.038-0.441-0.07-0.662c-0.014-0.095-0.026-0.19-0.047-0.284
			c-0.022-0.097-0.041-0.196-0.077-0.289c-0.053-0.136-0.106-0.272-0.178-0.398c-0.038-0.068-0.09-0.13-0.137-0.191
			c-0.038-0.047-0.077-0.089-0.122-0.13c-0.133-0.119-0.294-0.199-0.465-0.249c-0.137-0.041-0.287-0.049-0.429-0.049
			c-0.002,0-0.003,0-0.004,0c-0.077,0.001-0.153,0.006-0.229,0.009c-0.114,0.006-0.228,0.018-0.34,0.034
			c-0.197,0.029-0.392,0.067-0.581,0.133c-0.214,0.077-0.421,0.17-0.619,0.283c-0.17,0.096-0.34,0.189-0.501,0.3
			c-0.056,0.038-0.11,0.077-0.164,0.12c-0.041,0.032-0.083,0.062-0.122,0.097c-0.07,0.064-0.145,0.128-0.207,0.201
			c-0.081,0.097-0.158,0.195-0.233,0.295c-0.09,0.121-0.149,0.258-0.205,0.397c-0.062,0.15-0.083,0.319-0.089,0.479
			c-0.004,0.111,0.002,0.22,0.007,0.329c0.009,0.195,0.038,0.394,0.105,0.575c0.042,0.111,0.09,0.221,0.143,0.326
			c0.044,0.086,0.084,0.175,0.135,0.257c0.104,0.167,0.224,0.327,0.321,0.499c0.041,0.072,0.082,0.147,0.117,0.224
			c0.029,0.076,0.054,0.153,0.069,0.235c0.006,0.086,0.003,0.176-0.005,0.263c-0.011,0.062-0.027,0.123-0.048,0.185
			c-0.018,0.034-0.038,0.068-0.06,0.103c-0.044,0.05-0.091,0.095-0.143,0.137c-0.19,0.137-0.404,0.237-0.616,0.338
			c-0.106,0.044-0.214,0.089-0.324,0.127c-0.147,0.05-0.296,0.101-0.438,0.165c-0.273,0.125-0.538,0.271-0.748,0.491
			c-0.134,0.141-0.21,0.314-0.257,0.501c-0.049,0.196-0.072,0.398-0.101,0.599c0,0.001,0,0.001,0,0
			c0.057-0.146,0.112-0.294,0.171-0.439C13.862,26.586,13.918,26.473,13.993,26.368z M19.102,24.667
			c0-0.002-0.001-0.002-0.002-0.005C19.101,24.665,19.102,24.665,19.102,24.667L19.102,24.667z"/>
	</g>
</g>
</svg>
