<?xml version="1.0" encoding="utf-8"?>
<!-- Generator: Adobe Illustrator 15.0.0, SVG Export Plug-In . SVG Version: 6.00 Build 0)  -->
<!DOCTYPE svg PUBLIC "-//W3C//DTD SVG 1.1//EN" "http://www.w3.org/Graphics/SVG/1.1/DTD/svg11.dtd">
<svg version="1.1" xmlns="http://www.w3.org/2000/svg" xmlns:xlink="http://www.w3.org/1999/xlink" x="0px" y="0px" width="44px"
	 height="44px" viewBox="0 0 44 44" enable-background="new 0 0 44 44" xml:space="preserve">
<g id="Capa_2_1_">
</g>
<g id="Capa_1">
</g>
<g id="Capa_3">
	<g>
		<path opacity="0.9753" fill="#FFFFFF" d="M11.545,17.578L11.545,17.578c0.004,0.003,0.008,0.006,0.011,0.009
			C11.552,17.583,11.549,17.581,11.545,17.578 M32.326,16.845c-0.001,0.004-0.004,0.009-0.006,0.013
			C32.322,16.854,32.325,16.85,32.326,16.845 M32.944,15.903c-0.338,0.004-0.682,0.017-1.013,0.094
			c-0.267,0.062-0.525,0.208-0.651,0.458c-0.069,0.137-0.099,0.284-0.095,0.438c0.003,0.037,0.004,0.074,0.005,0.112
			c0.005,0.296,0,0.593,0.004,0.889c0.005,0.322,0.022,0.642,0.051,0.963c0.049,0.569,0.137,1.134,0.195,1.703
			c0.021,0.188,0.041,0.378,0.061,0.567c0.018,0.154,0.025,0.309,0.038,0.463c0.025,0.303,0.026,0.606,0.037,0.912
			c0.006,0.158,0.001,0.317,0.002,0.477c0,0.122,0.001,0.246,0,0.368c-0.001,0.321-0.002,0.644-0.005,0.966
			c-0.012,1.276-0.017,2.554-0.03,3.831c-0.006,0.604-0.022,1.207-0.034,1.812c-0.005,0.288-0.01,0.576-0.015,0.865
			c-0.006,0.304-0.016,0.608-0.008,0.911c0.005,0.205,0.005,0.41,0.02,0.615c0.004,0.069,0.01,0.138,0.017,0.205
			c-0.478,0.04-0.957,0.057-1.434,0.083c-0.648,0.035-1.294,0.089-1.939,0.148c-0.308,0.027-0.612,0.071-0.917,0.107
			c-0.29,0.035-0.577,0.069-0.866,0.104c-0.58,0.068-1.16,0.146-1.743,0.199c-0.613,0.056-1.227,0.112-1.839,0.17
			c-0.337,0.032-0.673,0.063-1.01,0.094c-0.341,0.033-0.685,0.055-1.026,0.082c-0.289,0.022-0.579,0.036-0.867,0.055
			c-0.146,0.009-0.293,0.019-0.439,0.028c-0.114,0.008-0.229,0.003-0.343,0.005c-0.311,0.006-0.622,0.019-0.933,0.015
			c-0.378-0.005-0.755-0.01-1.133-0.015c-0.584-0.007-1.168-0.018-1.753-0.021c-0.632-0.005-1.263,0.006-1.896,0.018
			c-0.154,0.003-0.308,0.003-0.463,0.001c-0.195-0.002-0.392-0.005-0.586-0.016c-0.037-0.517-0.043-1.036-0.055-1.554
			c-0.015-0.625-0.022-1.248-0.028-1.873c-0.004-0.367,0.001-0.736,0.018-1.104c0.009-0.184,0.012-0.369,0.031-0.553
			c0.021-0.206,0.043-0.413,0.065-0.618c0.088-0.606,0.176-1.212,0.263-1.817c0.089-0.616,0.172-1.235,0.235-1.855
			c0.029-0.294,0.07-0.591,0.081-0.887c0.013-0.326,0.027-0.653,0.026-0.98c-0.001-0.645-0.013-1.288-0.033-1.932
			c-0.023-0.701-0.062-1.406-0.153-2.101c-0.033-0.245-0.072-0.486-0.127-0.727c-0.023-0.096-0.053-0.19-0.09-0.281
			c-0.067-0.167-0.14-0.315-0.26-0.452c-0.165-0.188-0.424-0.306-0.677-0.273c-0.078,0.01-0.146,0.019-0.22,0.04
			c-0.023,0.006-0.048,0.014-0.071,0.021c-0.039,0.012-0.079,0.024-0.118,0.035c-0.28,0.083-0.562,0.158-0.839,0.25
			c-0.097,0.032-0.193,0.064-0.29,0.097c-0.103,0.035-0.203,0.08-0.303,0.119c-0.205,0.081-0.402,0.172-0.601,0.264
			c-0.155,0.072-0.307,0.15-0.459,0.228c-0.265,0.135-0.527,0.271-0.79,0.411c0,0,0,0,0.001,0c0.252-0.047,0.504-0.095,0.756-0.142
			c0.179-0.034,0.355-0.073,0.535-0.103c0.185-0.032,0.37-0.064,0.555-0.097c0.134-0.024,0.269-0.04,0.403-0.059
			c0.219-0.022,0.436-0.047,0.655-0.062c0.208-0.016,0.418-0.034,0.626-0.027c0.009,0.036,0.018,0.072,0.024,0.109
			c0.016,0.18,0.02,0.361,0.022,0.542c0.001,0.169-0.001,0.339-0.007,0.508c-0.008,0.195-0.014,0.389-0.019,0.584
			c-0.008,0.318-0.021,0.637-0.028,0.956c-0.016,0.618-0.026,1.237-0.029,1.854c-0.002,0.293-0.008,0.586-0.012,0.88
			c-0.002,0.151-0.002,0.305-0.002,0.458c0,0.127-0.017,0.255-0.024,0.383c-0.018,0.295-0.029,0.59-0.057,0.885
			c-0.032,0.354-0.065,0.709-0.099,1.063c-0.06,0.636-0.138,1.272-0.21,1.906c-0.064,0.565-0.104,1.136-0.126,1.705
			c-0.022,0.655-0.041,1.311-0.056,1.967c-0.014,0.59-0.021,1.179-0.046,1.767c-0.007,0.168-0.016,0.335-0.026,0.502
			c-0.003,0.067-0.01,0.136-0.017,0.203c-0.004,0.055-0.01,0.109-0.015,0.164c-0.004,0.047-0.006,0.093-0.009,0.139
			c-0.006,0.122,0.022,0.245,0.041,0.364c0.013,0.076,0.105,0.274,0.113,0.285c0.06,0.083,0.118,0.17,0.192,0.241
			c0.141,0.138,0.256,0.181,0.436,0.253c0.046,0.017,0.089,0.031,0.138,0.043c0.046,0.01,0.093,0.016,0.141,0.021
			c0.112,0.017,0.223,0.031,0.335,0.044c0.123,0.015,0.249,0.017,0.373,0.019c0.195,0.005,0.392-0.007,0.587-0.011
			c0.272-0.008,0.545-0.032,0.815-0.049c0.3-0.019,0.599-0.044,0.899-0.057c0.326-0.014,0.652-0.031,0.979-0.041
			c0.357-0.01,0.716-0.02,1.073-0.029c0.557-0.015,1.114-0.024,1.671-0.062c0.22-0.017,0.44-0.031,0.661-0.047
			c0.09-0.007,0.182-0.009,0.271-0.021c0.37-0.046,0.74-0.092,1.11-0.14c0.63-0.078,1.257-0.173,1.886-0.263
			c0.14-0.02,0.279-0.039,0.419-0.06c0.316-0.038,0.633-0.077,0.949-0.116c0.313-0.039,0.63-0.063,0.943-0.095
			c0.596-0.06,1.189-0.136,1.785-0.201c0.583-0.065,1.164-0.141,1.748-0.188c0.317-0.025,0.634-0.051,0.951-0.066
			c0.155-0.008,0.313-0.021,0.47-0.022c0.179-0.004,0.355-0.007,0.535-0.009c0.253-0.005,0.507,0,0.761,0.01
			c0.268,0.011,0.533,0.024,0.8,0.051c0.055,0.01,0.108,0.02,0.163,0.032c0.036,0.009,0.071,0.02,0.106,0.029
			c0.032,0.009,0.062,0.019,0.094,0.028c0.139,0.04,0.383,0.066,0.524,0.01c0.009-0.004,0.016-0.007,0.024-0.011
			c0.152-0.043,0.283-0.12,0.396-0.229c0.135-0.113,0.219-0.285,0.263-0.451c0.065-0.257,0.011-0.505-0.033-0.761
			c-0.011-0.062-0.021-0.123-0.031-0.185c-0.028-0.251-0.051-0.5-0.063-0.752c-0.015-0.332-0.029-0.663-0.041-0.995
			c-0.021-0.577-0.03-1.154-0.042-1.733c-0.014-0.625-0.025-1.251-0.051-1.876c-0.026-0.64-0.05-1.279-0.063-1.92
			c-0.015-0.632-0.02-1.263-0.023-1.894c-0.003-0.277,0.003-0.555-0.012-0.83c-0.01-0.199-0.021-0.397-0.034-0.595
			c-0.009-0.132-0.027-0.263-0.044-0.394c-0.041-0.325-0.087-0.647-0.141-0.97c-0.043-0.253-0.092-0.504-0.142-0.756
			c-0.092-0.453-0.175-0.905-0.252-1.36c-0.028-0.24-0.056-0.479-0.074-0.719c-0.012-0.142-0.021-0.284-0.027-0.426
			c-0.004-0.091-0.009-0.184-0.009-0.276c0.03-0.017,0.062-0.032,0.094-0.046c0.311-0.122,0.638-0.21,0.961-0.291
			c0.236-0.058,0.472-0.115,0.71-0.164c0.234-0.049,0.469-0.101,0.704-0.141c0.119-0.021,0.241-0.042,0.361-0.062
			c0.149-0.024,0.297-0.056,0.448-0.078c0.154-0.013,0.312-0.012,0.468-0.019c0.001,0,0.001,0,0-0.001
			c-0.188-0.049-0.373-0.11-0.568-0.125c-0.083-0.006-0.164-0.013-0.246-0.022c-0.165-0.017-0.329-0.032-0.494-0.047
			c-0.283-0.026-0.567-0.041-0.852-0.055c-0.266-0.012-0.532-0.02-0.799-0.02C33.047,15.902,32.995,15.902,32.944,15.903"/>
		<path fill="#FFFFFF" d="M21.503,27.485c0.007,0.005,0.015,0.011,0.022,0.017C21.518,27.496,21.51,27.491,21.503,27.485
			L21.503,27.485 M21.487,27.456c0.002,0.001,0.004,0.001,0.005,0.002C21.491,27.458,21.489,27.457,21.487,27.456L21.487,27.456
			 M23.189,24.942c0.053,0.173,0.087,0.35,0.115,0.53c0.023,0.208,0.046,0.416,0.06,0.625c0.017,0.213,0.01,0.427-0.007,0.64
			c-0.009,0.05-0.021,0.098-0.034,0.145c-0.002,0.004-0.006,0.01-0.008,0.013c-0.045,0.027-0.09,0.05-0.137,0.071
			c-0.307,0.117-0.627,0.201-0.944,0.285c-0.25,0.066-0.509,0.114-0.766,0.152c-0.031-0.102-0.051-0.205-0.068-0.312
			c-0.06-0.502-0.094-1.008-0.147-1.509c-0.015-0.128-0.028-0.255-0.043-0.381c0.069-0.003,0.14-0.007,0.21-0.012
			c0.324-0.021,0.652-0.069,0.974-0.115c0.242-0.035,0.481-0.086,0.723-0.126C23.142,24.946,23.166,24.943,23.189,24.942
			 M20.781,23.356c0,0.001,0.001,0.001,0.002,0.002l0,0C20.782,23.357,20.781,23.357,20.781,23.356 M23.021,14.135
			c0.415,0.062,0.818,0.157,1.209,0.31c0.288,0.131,0.561,0.29,0.816,0.478c0.262,0.214,0.5,0.457,0.713,0.719
			c0.13,0.177,0.241,0.365,0.334,0.562c0.071,0.193,0.125,0.393,0.161,0.596c0.019,0.197,0.021,0.394,0.025,0.592
			c0.005,0.229,0.002,0.461-0.013,0.689c-0.013,0.194-0.024,0.389-0.035,0.584c-0.016,0.288-0.055,0.574-0.088,0.861
			c-0.097,0.627-0.234,1.25-0.475,1.841c-0.174,0.39-0.405,0.748-0.637,1.105c-0.187,0.288-0.376,0.572-0.506,0.891
			c-0.023,0.06-0.044,0.119-0.062,0.178c-0.029-0.035-0.06-0.069-0.091-0.103c-0.011-0.01-0.022-0.019-0.033-0.026
			c-0.065-0.065-0.138-0.12-0.219-0.162c-0.19-0.104-0.319-0.111-0.532-0.139c-0.05-0.007-0.106,0.004-0.155,0.011
			c-0.165,0.019-0.329,0.041-0.494,0.064c-0.316,0.045-0.629,0.108-0.944,0.159c-0.312,0.033-0.628,0.059-0.942,0.046
			c-0.007-0.054-0.015-0.107-0.022-0.16c-0.028-0.197-0.075-0.391-0.143-0.576c-0.166-0.458-0.446-0.86-0.713-1.264
			c-0.169-0.255-0.335-0.512-0.51-0.765c-0.256-0.369-0.525-0.733-0.741-1.127c-0.043-0.078-0.083-0.157-0.12-0.237
			c-0.06-0.162-0.105-0.328-0.137-0.498c-0.022-0.253-0.02-0.509-0.009-0.762c0.01-0.27,0.028-0.54,0.06-0.808
			c0.05-0.313,0.128-0.62,0.242-0.915c0.171-0.378,0.372-0.74,0.617-1.075c0.167-0.207,0.347-0.397,0.552-0.568
			c0.182-0.132,0.373-0.247,0.577-0.342c0.229-0.087,0.463-0.151,0.705-0.192C21.945,14.045,22.488,14.07,23.021,14.135
			 M21.868,12.529c-0.274,0.003-0.547,0.041-0.817,0.081c-0.241,0.035-0.476,0.102-0.704,0.186
			c-0.255,0.094-0.502,0.207-0.734,0.347c-0.237,0.143-0.461,0.315-0.671,0.496c-0.169,0.146-0.318,0.31-0.459,0.48
			c-0.181,0.219-0.352,0.446-0.504,0.685c-0.125,0.195-0.233,0.401-0.335,0.607c-0.132,0.268-0.246,0.545-0.331,0.831
			c-0.064,0.218-0.108,0.44-0.141,0.665c-0.042,0.292-0.074,0.582-0.093,0.876c-0.032,0.507-0.035,1.01,0.066,1.511
			c0.054,0.267,0.156,0.515,0.266,0.761c0.099,0.226,0.227,0.435,0.358,0.643c0.184,0.287,0.378,0.564,0.567,0.847
			c0.185,0.274,0.355,0.558,0.526,0.841c0.113,0.187,0.221,0.377,0.314,0.575c0.052,0.149,0.085,0.299,0.113,0.454
			c0.007,0.071,0.014,0.145,0.018,0.217c0.004,0.067,0.007,0.135,0.009,0.202c0.001,0.061-0.001,0.12,0.008,0.182
			c0.016,0.12,0.016,0.214,0.056,0.32c0.077,0.198,0.113,0.278,0.258,0.438c0.188,0.207,0.47,0.33,0.742,0.375
			c0.13,0.021,0.264,0.042,0.397,0.053c-0.037,0.312-0.074,0.625-0.112,0.938c-0.018,0.154-0.036,0.309-0.056,0.464
			c-0.037,0.308-0.093,0.622-0.062,0.935c0.013,0.124,0.029,0.247,0.077,0.361c0.028,0.068,0.049,0.125,0.089,0.185
			c0.069,0.102,0.109,0.131,0.205,0.205c0.174,0.134,0.401,0.155,0.613,0.156c0.167,0.001,0.334,0.002,0.501,0.001
			c0.32-0.001,0.639-0.029,0.957-0.062c0.247-0.025,0.498-0.062,0.737-0.127c0.26-0.07,0.52-0.198,0.699-0.403
			c0.184-0.213,0.308-0.464,0.364-0.74c0.077-0.376,0.129-0.758,0.147-1.142c0.016-0.305,0.023-0.62-0.006-0.924
			c-0.021-0.213-0.043-0.427-0.087-0.638c-0.022-0.108-0.055-0.216-0.093-0.32c-0.008-0.02-0.014-0.039-0.021-0.057
			c0.018-0.06,0.038-0.115,0.06-0.172c0.066-0.145,0.147-0.279,0.243-0.408c0.151-0.188,0.321-0.36,0.488-0.536
			c0.237-0.252,0.472-0.507,0.683-0.784c0.299-0.392,0.517-0.825,0.707-1.278c0.152-0.366,0.28-0.75,0.37-1.136
			c0.045-0.202,0.091-0.404,0.134-0.605c0.03-0.129,0.047-0.261,0.065-0.391c0.035-0.233,0.073-0.466,0.101-0.701
			c0.028-0.229,0.052-0.458,0.063-0.687c0.013-0.254,0.022-0.506-0.007-0.759c-0.03-0.271-0.075-0.539-0.16-0.8
			c-0.09-0.271-0.216-0.535-0.362-0.78c-0.132-0.221-0.297-0.424-0.461-0.621c-0.146-0.174-0.303-0.338-0.474-0.488
			c-0.376-0.333-0.8-0.609-1.26-0.812c-0.25-0.11-0.506-0.208-0.771-0.285c-0.229-0.067-0.467-0.11-0.703-0.146
			c-0.479-0.073-0.962-0.117-1.445-0.117C21.958,12.527,21.913,12.528,21.868,12.529"/>
		<path fill="#FFFFFF" d="M22.586,25.118c-0.22,0-0.438,0.022-0.655,0.056c-0.498,0.075-0.99,0.237-1.461,0.412v0.001
			c0.476,0.025,0.953,0.026,1.427-0.021c0.189-0.018,0.378-0.035,0.566-0.068c0.195-0.033,0.393-0.069,0.589-0.1
			c0.153-0.014,0.31-0.011,0.466-0.006c0.104,0.003,0.206,0.006,0.309,0.003c0.002,0,0.002-0.002,0-0.002
			c-0.252-0.101-0.511-0.233-0.786-0.261c-0.132-0.014-0.264-0.015-0.396-0.015C22.625,25.118,22.604,25.118,22.586,25.118"/>
		<path fill="#FFFFFF" d="M24.077,17.824c-0.001,0.005-0.001,0.011-0.004,0.016C24.075,17.834,24.076,17.83,24.077,17.824
			 M24.073,17.812c-0.001,0.004-0.002,0.009-0.003,0.012C24.071,17.821,24.072,17.816,24.073,17.812 M24.1,17.773
			c-0.002,0.002-0.004,0.005-0.006,0.006C24.096,17.778,24.098,17.775,24.1,17.773 M24.121,17.766
			c-0.01,0.007-0.021,0.015-0.029,0.022C24.1,17.779,24.109,17.772,24.121,17.766 M24.786,17.146
			c-0.161,0.085-0.312,0.185-0.478,0.26c-0.048,0.019-0.094,0.03-0.144,0.039c-0.143,0.017-0.294,0.031-0.393,0.149
			c-0.096,0.114-0.101,0.259-0.117,0.401c-0.018,0.158-0.034,0.317-0.049,0.476c-0.033,0.333-0.062,0.667-0.078,1.002
			c-0.033,0.626-0.018,1.253,0.049,1.876c0.074,0.7,0.192,1.391,0.345,2.078c0,0.001,0.002,0.001,0.002,0
			c0.136-0.768,0.231-1.542,0.283-2.319c0.045-0.662,0.042-1.322-0.006-1.981c-0.017-0.212-0.034-0.422-0.055-0.633
			c-0.012-0.119-0.024-0.236-0.037-0.355c-0.011-0.109-0.032-0.225-0.029-0.334c0.001-0.002,0.002-0.006,0.003-0.009
			c0,0,0,0,0-0.001c0.002-0.001,0.004-0.002,0.006-0.005c0.115-0.071,0.235-0.116,0.338-0.208c0.114-0.104,0.204-0.237,0.298-0.358
			c0,0.001-0.002,0.002-0.003,0.003c0.021-0.026,0.042-0.053,0.064-0.08C24.786,17.147,24.786,17.146,24.786,17.146L24.786,17.146"
			/>
		<path fill="#FFFFFF" d="M21.491,17.652c0.001,0.001,0.001,0.001,0.002,0.002C21.492,17.653,21.492,17.653,21.491,17.652
			 M21.398,16.975c-0.108,0.151-0.193,0.34-0.152,0.528c0.037,0.169,0.244,0.237,0.375,0.317c0.001,0,0.001-0.001,0.001-0.002
			c-0.042-0.059-0.089-0.114-0.134-0.171c-0.022-0.032-0.042-0.062-0.061-0.097c0.002,0.006,0.004,0.011,0.007,0.017
			c-0.013-0.022-0.021-0.046-0.021-0.072c0.001,0.007,0.002,0.015,0.003,0.021c0.001-0.013,0.001-0.024,0.002-0.037
			c-0.001,0.007-0.002,0.016-0.003,0.023c0.002-0.025,0.007-0.049,0.015-0.073c0.009-0.017,0.019-0.035,0.029-0.05
			c0.046-0.057,0.096-0.107,0.151-0.155c0.023-0.016,0.046-0.029,0.07-0.041c0.015-0.005,0.028-0.009,0.043-0.013
			c0.022-0.001,0.043-0.001,0.064,0c0.01,0.002,0.019,0.004,0.027,0.007c0.02,0.011,0.037,0.021,0.054,0.032
			c0.006,0.006,0.011,0.011,0.017,0.016c0.009,0.014,0.018,0.027,0.024,0.041c0.015,0.045,0.024,0.092,0.032,0.139
			c0.002,0.015,0.004,0.029,0.007,0.044c0.06,0.63,0.024,1.263,0.048,1.896c0.025,0.696,0.088,1.395,0.179,2.085
			c0.046,0.348,0.101,0.694,0.163,1.04c0,0.001,0.001,0.001,0.001,0c0.167-0.752,0.296-1.512,0.362-2.279
			c0.055-0.625,0.059-1.257-0.024-1.879c-0.004-0.03-0.009-0.062-0.013-0.092c-0.023-0.182-0.052-0.363-0.086-0.542
			c-0.037-0.2-0.082-0.413-0.165-0.598c-0.081-0.182-0.249-0.306-0.442-0.338c-0.033-0.005-0.065-0.008-0.098-0.008
			C21.689,16.734,21.509,16.82,21.398,16.975"/>
		<path fill="#FFFFFF" d="M22.148,20.935c-0.129,0.634-0.232,1.282-0.205,1.93c0.018,0.448,0.073,0.891,0.157,1.33
			c0,0.001,0.001,0.001,0.001,0c0.105-0.435,0.188-0.882,0.219-1.33C22.367,22.217,22.27,21.571,22.148,20.935
			C22.149,20.935,22.149,20.935,22.148,20.935L22.148,20.935"/>
		<path fill="#FFFFFF" d="M22.34,26.199c-0.196,0.038-0.388,0.092-0.579,0.151c-0.155,0.05-0.308,0.104-0.462,0.158
			c-0.187,0.065-0.396,0.114-0.557,0.229c-0.001,0.001,0,0.001,0.001,0.001c0.04-0.008,0.08-0.018,0.121-0.025
			c0.239-0.007,0.476-0.025,0.714-0.058c-0.01,0.001-0.021,0.002-0.031,0.003c0.217-0.027,0.431-0.062,0.644-0.108
			c0.167-0.037,0.332-0.084,0.497-0.128c0.306-0.08,0.619-0.128,0.929-0.196c0-0.001,0-0.002,0-0.002
			c-0.225-0.035-0.45-0.064-0.678-0.075c-0.03-0.002-0.062-0.002-0.093-0.002C22.677,26.147,22.506,26.168,22.34,26.199"/>
		<path fill="#FFFFFF" d="M20.699,27.655c0.001,0.001,0.002,0.001,0.004,0.001C20.701,27.656,20.7,27.656,20.699,27.655
			 M20.455,23.788c-0.123,0.722-0.207,1.462-0.189,2.196c0.007,0.303,0.033,0.605,0.064,0.908c0.017,0.166,0.036,0.33,0.06,0.497
			c0.011,0.089,0.016,0.219,0.086,0.283c0.031,0.029,0.074,0.064,0.121,0.061c0.086-0.008,0.164-0.034,0.247-0.057
			c0.001-0.001,0.001-0.002,0-0.002c-0.049-0.008-0.099-0.014-0.147-0.02c-0.026-0.005-0.053-0.011-0.077-0.02
			c-0.005-0.002-0.01-0.005-0.014-0.008c-0.004-0.004-0.007-0.007-0.011-0.012c-0.003-0.005-0.006-0.009-0.009-0.015
			c-0.001-0.009-0.004-0.017-0.005-0.025c-0.006-0.156,0.029-0.317,0.047-0.473c0.017-0.143,0.031-0.286,0.044-0.429
			c0.024-0.287,0.042-0.578,0.036-0.866C20.693,25.132,20.592,24.451,20.455,23.788C20.456,23.787,20.456,23.787,20.455,23.788
			C20.455,23.787,20.455,23.787,20.455,23.788"/>
		<path fill="#FFFFFF" d="M29.148,9.192c-0.372,0.279-0.726,0.579-1.037,0.925c-0.143,0.161-0.276,0.33-0.401,0.506
			c-0.076,0.104-0.153,0.207-0.227,0.313c-0.166,0.243-0.267,0.532-0.385,0.799c0,0.001,0.001,0.002,0.001,0.001
			c0.152-0.161,0.297-0.329,0.448-0.489c0.115-0.122,0.245-0.228,0.37-0.339c0.06-0.053,0.116-0.109,0.172-0.167
			c0.056-0.06,0.128-0.126,0.168-0.198c0.339-0.417,0.63-0.882,0.893-1.351V9.192H29.148"/>
		<path fill="#FFFFFF" d="M24.877,6.96c-0.025,0.018-0.057,0.036-0.074,0.063c-0.021,0.031-0.033,0.064-0.05,0.099
			c-0.021,0.044-0.043,0.087-0.065,0.131c-0.053,0.106-0.104,0.213-0.154,0.321c-0.057,0.117-0.112,0.234-0.168,0.352
			c-0.05-0.168-0.107-0.335-0.163-0.5c0-0.001-0.001-0.001-0.001,0c-0.029,0.336-0.04,0.674-0.075,1.009
			c-0.048,0.103-0.093,0.206-0.136,0.311c-0.061,0.154-0.12,0.307-0.169,0.466c-0.094,0.305-0.156,0.647-0.091,0.964
			c0.023,0.113,0.128,0.207,0.236,0.237c0.135,0.037,0.32-0.02,0.384-0.156c0.016-0.036,0.031-0.072,0.046-0.108
			c0.011-0.052,0.018-0.104,0.023-0.157c0.036-0.248,0.071-0.495,0.098-0.744c0.001-0.029,0.005-0.058,0.008-0.087
			c0.062-0.287,0.132-0.572,0.194-0.859c0.043-0.193,0.079-0.387,0.111-0.582c0.03-0.188,0.066-0.38,0.089-0.571
			c0.02,0.057,0.036,0.116,0.059,0.172c0.001,0.001,0.001,0.001,0.002,0c0-0.072,0.01-0.143,0.01-0.215
			c0-0.047-0.003-0.101-0.04-0.136c-0.012-0.011-0.028-0.018-0.045-0.018C24.896,6.951,24.887,6.954,24.877,6.96"/>
		<path fill="#FFFFFF" d="M18.042,7.932c-0.136,0-0.266,0.073-0.334,0.192c-0.075,0.127-0.061,0.263,0,0.391
			c0.091,0.193,0.192,0.381,0.288,0.571c0.019,0.037,0.037,0.075,0.057,0.11c-0.01-0.005-0.019-0.011-0.028-0.016
			c-0.258-0.156-0.519-0.304-0.784-0.447c-0.001-0.001-0.002,0-0.001,0c0.313,0.371,0.641,0.73,0.957,1.099
			c0.137,0.159,0.275,0.314,0.413,0.472c0.062,0.071,0.126,0.14,0.188,0.212c0.112,0.13,0.217,0.274,0.36,0.372
			c0.138,0.092,0.337,0.054,0.448-0.057c0.046-0.048,0.078-0.101,0.096-0.165c0.023-0.084,0.013-0.159-0.016-0.234
			c0.055,0.036,0.111,0.069,0.169,0.104c0,0,0.001,0,0.001-0.001c-0.041-0.055-0.084-0.108-0.126-0.162
			c-0.084-0.113-0.145-0.239-0.211-0.363c-0.048-0.088-0.096-0.176-0.144-0.264c-0.105-0.192-0.212-0.382-0.321-0.572
			c-0.104-0.18-0.211-0.359-0.319-0.538c-0.051-0.084-0.103-0.169-0.157-0.252c-0.131-0.2-0.258-0.453-0.533-0.453
			C18.043,7.932,18.043,7.932,18.042,7.932"/>
	</g>
</g>
</svg>
