<?xml version="1.0" encoding="utf-8"?>
<!-- Generator: Adobe Illustrator 15.0.0, SVG Export Plug-In . SVG Version: 6.00 Build 0)  -->
<!DOCTYPE svg PUBLIC "-//W3C//DTD SVG 1.1//EN" "http://www.w3.org/Graphics/SVG/1.1/DTD/svg11.dtd">
<svg version="1.1" id="Capa_1" xmlns="http://www.w3.org/2000/svg" xmlns:xlink="http://www.w3.org/1999/xlink" x="0px" y="0px"
	 width="44px" height="44px" viewBox="0 0 44 44" enable-background="new 0 0 44 44" xml:space="preserve">
<path opacity="0.9753" fill="#292521" d="M17.565,16.246c0,0.001,0,0.001,0,0.002c0,0.002,0,0.004,0,0.006
	C17.566,16.251,17.566,16.249,17.565,16.246 M20.929,9.144c0.028,0.235,0.058,0.471,0.088,0.706
	c0.018,0.141,0.035,0.284,0.065,0.422c0.037,0.169,0.079,0.337,0.123,0.505c0.073,0.277,0.163,0.551,0.325,0.791
	c0.328,0.486,0.856,0.778,1.378,1.011c0.323,0.144,0.655,0.267,0.988,0.384c0.103,0.036,0.203,0.077,0.304,0.115
	c0.169,0.072,0.337,0.145,0.499,0.231c0.187,0.1,0.369,0.216,0.54,0.342c0.15,0.122,0.289,0.256,0.413,0.405
	c0.153,0.213,0.277,0.443,0.39,0.68c0.059,0.152,0.113,0.304,0.16,0.46c0.042,0.14,0.067,0.284,0.091,0.428
	c0.023,0.235,0.043,0.468,0.023,0.705c-0.027,0.148-0.066,0.291-0.118,0.433c-0.017,0.036-0.033,0.072-0.05,0.108
	c-0.052,0.116-0.12,0.225-0.194,0.328c-0.096,0.117-0.197,0.231-0.298,0.345c-0.091,0.103-0.183,0.207-0.281,0.303
	c-0.186,0.184-0.377,0.357-0.579,0.521c-0.221,0.16-0.449,0.309-0.696,0.424c-0.167,0.064-0.339,0.118-0.512,0.164
	c-0.152,0.04-0.305,0.068-0.458,0.092c-0.355,0.034-0.709,0.051-1.065,0.057c-0.32,0.006-0.639,0.003-0.957-0.03
	c-0.173-0.034-0.34-0.076-0.507-0.133c-0.131-0.044-0.26-0.095-0.389-0.147c-0.343-0.164-0.665-0.364-0.999-0.545
	c-0.316-0.171-0.632-0.353-0.924-0.564c-0.123-0.1-0.241-0.204-0.345-0.324c-0.052-0.079-0.098-0.16-0.138-0.245
	c-0.052-0.137-0.104-0.274-0.142-0.416c-0.043-0.158-0.077-0.317-0.102-0.48c-0.021-0.168-0.049-0.342-0.044-0.512
	c0.012-0.042,0.027-0.083,0.044-0.124c0.046-0.1,0.101-0.2,0.155-0.295c0.066-0.117,0.14-0.228,0.221-0.335
	c0.126-0.159,0.255-0.319,0.399-0.461c0.146-0.145,0.308-0.277,0.471-0.403c0.161-0.118,0.327-0.225,0.509-0.306
	c0.274-0.111,0.562-0.172,0.849-0.246c0.001,0,0.001-0.002,0-0.001c-0.296,0.005-0.594-0.005-0.887,0.046
	c-0.157,0.027-0.304,0.075-0.453,0.132c-0.136,0.053-0.267,0.119-0.396,0.187c-0.129,0.068-0.259,0.139-0.381,0.219
	c-0.132,0.087-0.258,0.189-0.38,0.29c-0.117,0.097-0.233,0.196-0.341,0.304c-0.104,0.104-0.19,0.222-0.286,0.333
	c-0.129,0.151-0.231,0.309-0.299,0.497c-0.022,0.062-0.027,0.149-0.034,0.208c-0.003,0.034-0.006,0.068-0.008,0.103
	c-0.004,0.08-0.007,0.161-0.009,0.241c-0.004,0.146-0.001,0.292,0.008,0.437c0.012,0.188,0.039,0.375,0.07,0.559
	c0.013,0.076,0.03,0.152,0.047,0.228c0.017,0.074,0.032,0.152,0.058,0.224c0.064,0.183,0.14,0.363,0.254,0.52
	c0.113,0.156,0.241,0.299,0.38,0.432c0.147,0.14,0.309,0.262,0.471,0.385c0.126,0.097,0.255,0.189,0.386,0.28
	c0.122,0.083,0.248,0.161,0.374,0.237c0.133,0.08,0.259,0.171,0.393,0.251c0.138,0.083,0.277,0.164,0.421,0.238
	c0.178,0.091,0.367,0.167,0.552,0.241c0.14,0.055,0.282,0.109,0.429,0.14c0.207,0.043,0.417,0.076,0.628,0.09
	c0.319,0.022,0.639,0.017,0.958,0.01c0.685-0.013,1.375-0.046,2.033-0.251c0.422-0.131,0.835-0.322,1.19-0.587
	c0.312-0.233,0.609-0.476,0.886-0.75c0.112-0.11,0.218-0.226,0.322-0.343c0.193-0.218,0.389-0.439,0.55-0.682
	c0.076-0.114,0.133-0.238,0.188-0.363c0.09-0.198,0.17-0.397,0.221-0.608c0.091-0.38,0.093-0.765,0.047-1.15
	c-0.023-0.202-0.052-0.402-0.104-0.599c-0.044-0.163-0.104-0.319-0.17-0.475c-0.081-0.195-0.172-0.381-0.272-0.566
	c-0.037-0.067-0.084-0.131-0.125-0.195c-0.123-0.19-0.265-0.372-0.419-0.537c-0.134-0.141-0.289-0.259-0.443-0.375
	c-0.112-0.085-0.233-0.163-0.358-0.227c-0.22-0.114-0.439-0.22-0.671-0.309c-0.276-0.106-0.57-0.186-0.859-0.248
	c-0.52-0.113-1.049-0.223-1.543-0.423c-0.182-0.081-0.354-0.175-0.515-0.292c-0.093-0.077-0.179-0.16-0.255-0.252
	c-0.127-0.178-0.224-0.372-0.319-0.568c-0.064-0.131-0.126-0.264-0.187-0.397c-0.132-0.341-0.258-0.684-0.385-1.026
	C20.931,9.143,20.93,9.143,20.929,9.144C20.93,9.143,20.929,9.143,20.929,9.144"/>
<path opacity="0.9753" fill="#292521" d="M27.325,15.441c-0.061,0.003-0.128,0-0.187,0.014c-0.146,0.033-0.262,0.148-0.383,0.23
	c-0.001,0,0,0.001,0,0.001c0.048-0.018,0.094-0.037,0.14-0.056c0.074-0.031,0.146-0.058,0.225-0.073
	c0.023-0.001,0.047,0.001,0.069,0.005c-0.005,0-0.01-0.001-0.015-0.002c0.373,0.055,0.734,0.146,1.084,0.286
	c0.209,0.097,0.401,0.216,0.585,0.353c0.097,0.083,0.184,0.171,0.266,0.268c0.081,0.119,0.147,0.242,0.208,0.372
	c0.045,0.122,0.085,0.243,0.118,0.368c0.031,0.116,0.052,0.234,0.071,0.352c0.016,0.138,0.026,0.275,0.035,0.414
	c0.011,0.18-0.014,0.363-0.037,0.543c-0.03,0.202-0.062,0.404-0.121,0.599c-0.061,0.196-0.129,0.388-0.206,0.578
	c-0.168,0.357-0.413,0.678-0.65,0.992c-0.179,0.236-0.344,0.484-0.519,0.723c-0.031,0.037-0.062,0.074-0.092,0.111
	c-0.117,0.141-0.249,0.268-0.389,0.384c-0.124,0.087-0.247,0.175-0.378,0.251c-0.158,0.092-0.316,0.181-0.478,0.268
	c-0.307,0.167-0.614,0.328-0.93,0.478c-0.234,0.091-0.475,0.156-0.723,0.199c-0.083,0.011-0.166,0.02-0.251,0.023
	c-0.153,0.009-0.306,0.012-0.459,0.013c-0.279,0.002-0.559-0.004-0.837-0.008c-0.253-0.004-0.507-0.008-0.76-0.022
	c-0.259-0.015-0.515-0.036-0.772-0.065c-0.61-0.1-1.225-0.193-1.821-0.36c-0.569-0.158-1.13-0.353-1.681-0.569
	c-0.095-0.044-0.191-0.086-0.282-0.138c-0.202-0.114-0.398-0.231-0.584-0.368c-0.484-0.391-0.897-0.867-1.293-1.345
	c-0.048-0.064-0.097-0.127-0.145-0.191c-0.126-0.166-0.231-0.348-0.317-0.538c-0.062-0.161-0.109-0.324-0.139-0.493
	c-0.015-0.139-0.021-0.278-0.027-0.418c-0.009-0.185-0.004-0.374,0.017-0.557c0.016-0.096,0.041-0.188,0.075-0.278
	c0.108-0.239,0.266-0.455,0.412-0.672c0.171-0.255,0.351-0.504,0.525-0.757c0,0,0-0.001-0.001,0
	c-0.309,0.276-0.615,0.554-0.914,0.841c-0.174,0.168-0.338,0.351-0.449,0.567c-0.134,0.263-0.185,0.571-0.221,0.861
	c-0.011,0.084-0.021,0.169-0.031,0.253c-0.028,0.234-0.006,0.467,0.03,0.699c0.056,0.359,0.211,0.698,0.39,1.011
	c0.156,0.274,0.325,0.544,0.516,0.795c0.161,0.211,0.323,0.42,0.493,0.625c0.251,0.304,0.551,0.561,0.869,0.793
	c0.172,0.126,0.356,0.229,0.542,0.334c0.092,0.051,0.192,0.092,0.288,0.137c0.139,0.065,0.285,0.121,0.426,0.181
	c-0.047-0.021-0.095-0.04-0.143-0.061c0.623,0.263,1.258,0.501,1.923,0.632c0.327,0.064,0.655,0.122,0.983,0.18
	c0.35,0.062,0.707,0.117,1.062,0.136c0.638,0.034,1.279,0.039,1.917,0.036c0.474-0.003,0.945-0.042,1.403-0.169
	c0.453-0.125,0.877-0.356,1.29-0.574c0.275-0.146,0.553-0.29,0.816-0.456c0.219-0.139,0.43-0.287,0.625-0.457
	c0.225-0.195,0.414-0.441,0.586-0.683c0.184-0.258,0.342-0.532,0.52-0.794c0.244-0.359,0.466-0.733,0.608-1.146
	c0.052-0.149,0.089-0.304,0.124-0.458c0.043-0.19,0.078-0.387,0.096-0.582c0.035-0.382,0.044-0.772-0.012-1.153
	c-0.051-0.338-0.16-0.671-0.302-0.981c-0.139-0.305-0.317-0.585-0.554-0.824c-0.167-0.169-0.377-0.29-0.59-0.389
	c-0.211-0.098-0.434-0.171-0.662-0.213c-0.214-0.04-0.433-0.06-0.649-0.061c-0.008,0-0.016,0-0.022,0
	C27.533,15.433,27.43,15.436,27.325,15.441"/>
<path opacity="0.9753" fill="#292521" d="M29.478,19.459c0.154,0.134,0.309,0.268,0.463,0.402c0.188,0.162,0.384,0.318,0.54,0.511
	c0.055,0.077,0.103,0.156,0.144,0.241c0.05,0.128,0.077,0.259,0.101,0.395c0.027,0.301,0.026,0.604-0.001,0.905
	c-0.02,0.117-0.051,0.229-0.093,0.34c-0.063,0.136-0.14,0.263-0.226,0.386c-0.241,0.304-0.501,0.59-0.759,0.879
	c-0.261,0.291-0.537,0.568-0.837,0.819c-0.21,0.15-0.425,0.296-0.641,0.439c-0.233,0.154-0.475,0.296-0.711,0.446
	c-0.224,0.142-0.45,0.278-0.68,0.411c-0.121,0.07-0.241,0.144-0.366,0.208c-0.124,0.064-0.247,0.124-0.374,0.182
	c-0.291,0.117-0.585,0.222-0.887,0.311c-0.317,0.093-0.646,0.158-0.971,0.214c-0.225,0.029-0.448,0.059-0.673,0.089
	c0.057-0.008,0.112-0.015,0.168-0.022c-0.635,0.074-1.275,0.113-1.914,0.127c-0.315,0.007-0.631,0.012-0.946,0.018
	c-0.335,0.006-0.67,0.017-1.005-0.005c-0.096-0.006-0.191-0.017-0.287-0.027c-0.155-0.025-0.309-0.055-0.462-0.092
	c-0.165-0.039-0.327-0.089-0.488-0.142c-0.313-0.101-0.62-0.218-0.924-0.342c-0.171-0.075-0.343-0.149-0.515-0.222
	c-0.313-0.136-0.624-0.277-0.939-0.408c-0.277-0.115-0.561-0.215-0.842-0.322c-0.303-0.136-0.578-0.312-0.843-0.513
	c-0.191-0.161-0.369-0.337-0.553-0.507c-0.173-0.158-0.335-0.318-0.483-0.499c-0.112-0.148-0.218-0.301-0.327-0.45
	c0-0.001-0.002,0-0.001,0.001c0.104,0.251,0.202,0.504,0.334,0.741c0.071,0.129,0.158,0.247,0.244,0.365
	c0.185,0.254,0.355,0.516,0.565,0.752c0.216,0.241,0.465,0.466,0.738,0.641c0.271,0.173,0.555,0.325,0.833,0.487
	c0.272,0.16,0.535,0.337,0.806,0.498c0.271,0.162,0.542,0.325,0.82,0.475c0.304,0.163,0.617,0.307,0.938,0.436
	c0.287,0.115,0.583,0.217,0.889,0.268c0.359,0.061,0.718,0.104,1.082,0.109c0.316,0.006,0.633,0.011,0.949,0.01
	c0.644-0.002,1.286-0.029,1.928-0.091c0.375-0.035,0.748-0.093,1.122-0.144c0.316-0.043,0.629-0.111,0.938-0.19
	c0.308-0.078,0.614-0.169,0.908-0.287c0.207-0.083,0.411-0.17,0.614-0.261c0.139-0.062,0.274-0.146,0.404-0.225
	c0.573-0.349,1.125-0.73,1.654-1.142c0.26-0.201,0.515-0.406,0.744-0.642c0.102-0.103,0.196-0.219,0.285-0.333
	c0.121-0.153,0.239-0.31,0.355-0.467c0.189-0.253,0.371-0.514,0.543-0.779c0.104-0.16,0.205-0.321,0.288-0.493
	c0.094-0.192,0.167-0.396,0.204-0.607c0.035-0.202,0.036-0.396,0.009-0.599c-0.047-0.354-0.099-0.706-0.24-1.037
	c-0.083-0.196-0.196-0.366-0.349-0.515c-0.158-0.155-0.363-0.261-0.556-0.367c-0.15-0.083-0.303-0.161-0.454-0.241
	c-0.088-0.046-0.176-0.091-0.264-0.137l0,0C29.478,19.458,29.477,19.458,29.478,19.459"/>
<path opacity="0.9753" fill="#292521" d="M14.865,18.646c-0.262,0.314-0.521,0.631-0.759,0.964
	c-0.191,0.265-0.337,0.558-0.391,0.883c-0.033,0.199-0.062,0.399-0.079,0.601c-0.018,0.223-0.007,0.443,0.04,0.662
	c0.049,0.229,0.161,0.449,0.292,0.642c0.11,0.162,0.237,0.313,0.366,0.46c0.103,0.118,0.223,0.221,0.339,0.324
	c0.124,0.11,0.253,0.214,0.383,0.316c0.255,0.202,0.516,0.398,0.784,0.582c0.127,0.087,0.254,0.175,0.388,0.249
	c0.159,0.09,0.32,0.167,0.488,0.237c0.292,0.122,0.593,0.201,0.902,0.271c0.304,0.067,0.611,0.107,0.919,0.148
	c0.069,0.011,0.134,0.023,0.199,0.048c0.164,0.073,0.315,0.17,0.474,0.252c0.001,0,0.001-0.001,0.001-0.001
	c-0.104-0.109-0.202-0.225-0.311-0.33c-0.093-0.091-0.193-0.151-0.312-0.203c-0.105-0.046-0.211-0.09-0.317-0.134
	c-0.257-0.111-0.511-0.231-0.762-0.356c-0.27-0.134-0.525-0.287-0.772-0.459c0.003,0.002,0.006,0.004,0.009,0.007
	c-0.036-0.027-0.072-0.056-0.107-0.083c-0.351-0.293-0.688-0.603-1.032-0.903c-0.168-0.147-0.345-0.286-0.51-0.437
	c-0.181-0.166-0.354-0.335-0.51-0.525c-0.067-0.093-0.126-0.191-0.175-0.295c-0.043-0.119-0.071-0.24-0.091-0.365
	c-0.015-0.138-0.023-0.276-0.033-0.415c-0.012-0.168-0.014-0.341,0.002-0.509c0.045-0.274,0.145-0.539,0.249-0.795
	C14.651,19.204,14.759,18.925,14.865,18.646C14.866,18.646,14.866,18.646,14.865,18.646C14.865,18.646,14.865,18.646,14.865,18.646"
	/>
<path opacity="0.9753" fill="#292521" d="M12.815,21.854c-0.177,0.039-0.333,0.138-0.475,0.246
	c-0.133,0.102-0.263,0.207-0.383,0.324c-0.24,0.233-0.458,0.486-0.63,0.773c-0.173,0.286-0.284,0.613-0.331,0.943
	c-0.051,0.372-0.052,0.748,0.005,1.12c0.035,0.226,0.121,0.435,0.22,0.639c0.065,0.135,0.14,0.262,0.225,0.385
	c0.373,0.543,0.805,1.055,1.306,1.484c0.152,0.131,0.323,0.252,0.495,0.357c0.133,0.082,0.269,0.157,0.408,0.228
	c0.292,0.146,0.589,0.282,0.888,0.414c0.63,0.278,1.261,0.557,1.896,0.823c0.585,0.245,1.198,0.412,1.817,0.547
	c0.154,0.033,0.309,0.071,0.464,0.097c0.154,0.025,0.309,0.049,0.463,0.075c0.358,0.061,0.716,0.115,1.077,0.157
	c0.048,0.006,0.096,0.011,0.144,0.017c0.321,0.046,0.642,0.1,0.966,0.112c0.312,0.013,0.627,0.006,0.94,0.006
	c0.332,0,0.664-0.002,0.995-0.006c0.307-0.003,0.613-0.008,0.919-0.031c0.38-0.027,0.756-0.08,1.13-0.154
	c0.306-0.06,0.615-0.132,0.912-0.229c0.349-0.113,0.697-0.236,1.027-0.398c0.285-0.14,0.566-0.288,0.838-0.453
	c0.269-0.163,0.532-0.335,0.796-0.505c0.269-0.174,0.539-0.346,0.798-0.532c0.168-0.12,0.338-0.241,0.49-0.381
	c0.124-0.113,0.243-0.23,0.358-0.354c0.237-0.252,0.443-0.535,0.639-0.821c0.16-0.233,0.309-0.477,0.453-0.721
	c0.145-0.243,0.286-0.488,0.402-0.746c0.085-0.189,0.172-0.38,0.229-0.579c0.11-0.388,0.058-0.817-0.067-1.194
	c-0.083-0.251-0.22-0.481-0.364-0.701c-0.125-0.19-0.251-0.379-0.379-0.567c0,0-0.001,0-0.001,0c0.075,0.201,0.15,0.402,0.226,0.603
	c0.089,0.239,0.168,0.479,0.208,0.732c0.019,0.168,0.023,0.337,0.007,0.505c-0.021,0.133-0.051,0.264-0.099,0.39
	c-0.125,0.264-0.3,0.506-0.476,0.737c-0.248,0.312-0.503,0.619-0.762,0.922c-0.263,0.307-0.551,0.583-0.859,0.841
	c-0.024,0.019-0.048,0.037-0.072,0.056c0.006-0.005,0.011-0.009,0.017-0.013c-0.237,0.174-0.486,0.32-0.742,0.463
	c-0.268,0.15-0.536,0.298-0.803,0.449c-0.243,0.139-0.484,0.282-0.731,0.412c-0.26,0.137-0.522,0.266-0.787,0.392
	c-0.327,0.132-0.659,0.25-1.002,0.333c-0.345,0.085-0.69,0.156-1.041,0.21c-0.606,0.062-1.216,0.063-1.825,0.065
	c-0.318,0-0.637,0.001-0.956,0.001c-0.156,0-0.311-0.002-0.467-0.009c-0.122-0.005-0.244-0.019-0.365-0.034
	c-0.296-0.042-0.592-0.079-0.889-0.114c-0.262-0.038-0.522-0.08-0.784-0.123c-0.315-0.052-0.627-0.118-0.94-0.186
	c-0.324-0.069-0.643-0.16-0.959-0.26c-0.276-0.087-0.545-0.195-0.813-0.305c-0.548-0.235-1.093-0.478-1.635-0.726
	c-0.274-0.126-0.546-0.259-0.818-0.391c-0.257-0.125-0.496-0.282-0.727-0.451c-0.402-0.329-0.775-0.694-1.105-1.096
	c-0.117-0.16-0.222-0.326-0.31-0.504c-0.063-0.176-0.099-0.36-0.129-0.544c-0.012-0.103-0.021-0.204-0.028-0.308
	c-0.007-0.111,0-0.223,0.01-0.333c0.034-0.181,0.079-0.353,0.144-0.524c0.129-0.281,0.294-0.543,0.478-0.792
	c0.105-0.132,0.214-0.261,0.342-0.372c0.062-0.045,0.127-0.081,0.197-0.113c0.125-0.047,0.255-0.083,0.387-0.107
	c0.034-0.003,0.066-0.004,0.1-0.001c0.052,0.01,0.099,0.025,0.147,0.044c0.203,0.094,0.383,0.227,0.575,0.341
	c0.001,0,0.001,0,0.001-0.001c-0.149-0.144-0.285-0.301-0.443-0.434c-0.065-0.055-0.135-0.1-0.213-0.135
	c-0.083-0.036-0.168-0.043-0.258-0.043C13.125,21.806,12.97,21.819,12.815,21.854"/>
<path opacity="0.9753" fill="#292521" d="M31.148,25.141c-0.016,0.101-0.022,0.204-0.061,0.299
	c-0.064,0.132-0.133,0.261-0.192,0.395c-0.07,0.158-0.136,0.319-0.197,0.481c-0.113,0.295-0.203,0.597-0.302,0.896
	c-0.203,0.617-0.435,1.225-0.65,1.838c-0.196,0.56-0.388,1.121-0.591,1.679c-0.07,0.159-0.141,0.319-0.208,0.479
	c-0.046,0.095-0.092,0.188-0.149,0.276c-0.149,0.166-0.339,0.301-0.516,0.437c0.027-0.021,0.055-0.043,0.083-0.064
	c-0.456,0.338-0.953,0.613-1.468,0.849c-0.195,0.072-0.394,0.138-0.59,0.207c-0.227,0.08-0.453,0.158-0.684,0.229
	c-0.214,0.064-0.438,0.103-0.658,0.145c-0.184,0.034-0.368,0.062-0.553,0.089c-0.313,0.037-0.628,0.071-0.94,0.109
	c-0.32,0.038-0.638,0.078-0.96,0.096c-0.315,0.017-0.634,0.007-0.95,0.006c-0.331-0.001-0.66-0.006-0.99-0.017
	c-0.245-0.008-0.486-0.027-0.729-0.057c-0.283-0.056-0.562-0.122-0.835-0.216c-0.309-0.106-0.613-0.225-0.923-0.325
	c-0.29-0.095-0.586-0.17-0.886-0.225c-0.199-0.037-0.399-0.064-0.6-0.081c-0.12-0.01-0.239-0.014-0.358-0.023
	c-0.004-0.001-0.009-0.002-0.013-0.003c-0.009-0.01-0.018-0.019-0.026-0.028c-0.285-0.414-0.501-0.873-0.772-1.296
	c-0.302-0.474-0.628-0.929-0.977-1.369c-0.167-0.221-0.328-0.444-0.462-0.688c-0.149-0.269-0.292-0.538-0.43-0.813
	c-0.069-0.139-0.144-0.275-0.217-0.412c-0.071-0.132-0.158-0.256-0.238-0.381c-0.078-0.122-0.173-0.234-0.26-0.35
	c-0.137-0.18-0.275-0.358-0.416-0.537c0,0-0.001,0.001-0.001,0.001c0.148,0.32,0.293,0.642,0.441,0.962
	c0.051,0.135,0.11,0.27,0.153,0.407c0.048,0.159,0.098,0.316,0.144,0.476c0.088,0.304,0.181,0.608,0.298,0.903
	c0.075,0.188,0.154,0.372,0.242,0.555c0.069,0.142,0.149,0.278,0.228,0.415c0.154,0.271,0.296,0.547,0.433,0.826
	c0.12,0.245,0.237,0.491,0.349,0.74c0.141,0.344,0.271,0.691,0.422,1.03c0.036,0.082,0.073,0.163,0.116,0.24
	c0.081,0.146,0.217,0.29,0.359,0.378c0.12,0.073,0.256,0.127,0.395,0.149c0.203,0.032,0.407,0.051,0.612,0.072
	c0.292,0.053,0.582,0.112,0.867,0.198c0.319,0.098,0.633,0.208,0.948,0.317c0.282,0.097,0.57,0.193,0.864,0.248
	c0.38,0.07,0.76,0.113,1.146,0.132c0.639,0.032,1.28,0.029,1.919,0.028c0.318-0.001,0.633-0.032,0.947-0.074
	c0.315-0.043,0.63-0.078,0.945-0.115c0.36-0.043,0.721-0.092,1.077-0.157c0.313-0.059,0.623-0.125,0.925-0.229
	c0.303-0.103,0.607-0.204,0.905-0.317c0.342-0.129,0.665-0.291,0.982-0.472c0.311-0.177,0.608-0.395,0.885-0.62
	c0.123-0.102,0.244-0.206,0.364-0.311c0.151-0.131,0.285-0.263,0.396-0.432c0.066-0.101,0.105-0.222,0.149-0.334
	c0.015-0.038,0.025-0.078,0.038-0.118c0.022-0.067,0.037-0.139,0.058-0.207c0.043-0.149,0.094-0.299,0.126-0.451
	c0.067-0.318,0.132-0.638,0.188-0.958c0.101-0.577,0.216-1.153,0.318-1.73c0.049-0.276,0.106-0.552,0.144-0.83
	c0.041-0.303,0.077-0.606,0.116-0.91c0.035-0.211,0.069-0.422,0.113-0.632c0.021-0.1,0.045-0.199,0.07-0.299
	c0.012-0.046,0.023-0.092,0.034-0.138c0.029-0.122,0.012-0.243,0.002-0.368C31.15,25.141,31.15,25.141,31.148,25.141L31.148,25.141"
	/>
<path opacity="0.9753" fill="#292521" d="M16.822,28.627c0.005,0.307,0.013,0.61,0.055,0.915c0.023,0.164,0.056,0.325,0.093,0.486
	c0.07,0.305,0.162,0.604,0.251,0.902c0.098,0.327,0.194,0.655,0.293,0.982c0.09,0.299,0.166,0.602,0.243,0.903
	c0.03,0.119,0.063,0.238,0.096,0.356c0.024,0.086,0.037,0.175,0.056,0.261c0.076,0.342,0.161,0.682,0.249,1.02
	c0,0.001,0.001,0.001,0.001,0c0.048-0.442,0.074-0.885,0.084-1.33c0.001-0.056-0.005-0.113-0.009-0.169
	c-0.007-0.121-0.016-0.241-0.026-0.362c-0.013-0.167-0.04-0.331-0.066-0.496c-0.026-0.161-0.06-0.316-0.101-0.475
	c-0.043-0.164-0.096-0.32-0.156-0.479c-0.116-0.307-0.255-0.604-0.395-0.9c-0.109-0.231-0.216-0.463-0.32-0.697
	c-0.121-0.305-0.23-0.612-0.349-0.918H16.822C16.823,28.627,16.822,28.627,16.822,28.627"/>
<path opacity="0.9753" fill="#292521" d="M19.688,29.678c-0.009,0.205-0.006,0.409-0.013,0.614
	c-0.004,0.121-0.023,0.242-0.037,0.362c-0.018,0.151-0.035,0.303-0.049,0.454c-0.027,0.29-0.057,0.58-0.063,0.871
	c-0.016,0.699,0,1.395,0.067,2.092c0,0.001,0.001,0.001,0.001,0c0.115-0.421,0.211-0.847,0.286-1.277
	c0.046-0.269,0.083-0.542,0.098-0.814c0.016-0.29,0.008-0.581-0.012-0.871c-0.011-0.151-0.024-0.303-0.041-0.454
	c-0.012-0.112-0.024-0.224-0.044-0.335c-0.041-0.219-0.122-0.431-0.191-0.642C19.689,29.677,19.689,29.677,19.688,29.678
	L19.688,29.678"/>
<path opacity="0.9753" fill="#292521" d="M22.41,29.773c-0.098,0.46-0.173,0.925-0.25,1.39c-0.054,0.322-0.099,0.649-0.12,0.976
	c-0.021,0.312-0.017,0.626-0.005,0.938c0.016,0.413,0.044,0.823,0.089,1.233c0,0.001,0.001,0.001,0.002,0.001
	c0.189-0.712,0.326-1.435,0.386-2.169c0.025-0.31,0.028-0.618,0.025-0.928c-0.004-0.483-0.054-0.962-0.125-1.44
	C22.411,29.772,22.411,29.772,22.41,29.773C22.41,29.772,22.41,29.772,22.41,29.773"/>
<path opacity="0.9753" fill="#292521" d="M25.418,29.916c-0.153,0.308-0.314,0.61-0.392,0.948c-0.031,0.137-0.061,0.275-0.09,0.412
	c-0.064,0.299-0.125,0.599-0.167,0.9c-0.043,0.308-0.084,0.615-0.112,0.924c-0.033,0.354-0.048,0.71-0.051,1.066
	c0,0.001,0.001,0.001,0.002,0c0.24-0.596,0.457-1.205,0.59-1.835c0.055-0.261,0.087-0.529,0.104-0.795
	c0.009-0.148,0.015-0.297,0.018-0.445c0.002-0.069,0.002-0.139,0.002-0.208c0-0.165,0.016-0.326,0.037-0.489
	c-0.001,0.007-0.002,0.015-0.003,0.022c0.023-0.167,0.048-0.333,0.064-0.501C25.42,29.916,25.42,29.916,25.418,29.916L25.418,29.916
	"/>
<path opacity="0.9753" fill="#292521" d="M28.093,28.149c-0.154,0.482-0.276,0.974-0.421,1.458
	c-0.084,0.285-0.164,0.571-0.244,0.858c-0.081,0.29-0.155,0.589-0.202,0.887c-0.064,0.41-0.108,0.823-0.136,1.238
	c0,0.001,0.001,0.001,0.001,0c0.175-0.374,0.338-0.756,0.482-1.143c0.106-0.285,0.219-0.566,0.312-0.856
	c0.094-0.295,0.14-0.6,0.178-0.906C28.126,29.178,28.111,28.66,28.093,28.149L28.093,28.149
	C28.093,28.148,28.093,28.149,28.093,28.149"/>
<path opacity="0.9753" fill="#292521" d="M21.073,14.253c0.531,0.424,1.081,0.821,1.632,1.216c0.026,0.021,0.054,0.041,0.08,0.062
	c0.109,0.09,0.215,0.18,0.308,0.288c0.053,0.075,0.097,0.154,0.136,0.237c0.051,0.132,0.085,0.269,0.111,0.408
	c0.003,0.031,0.004,0.062,0.002,0.094c-0.005,0.024-0.012,0.048-0.02,0.072c-0.01,0.019-0.021,0.037-0.031,0.054
	c-0.022,0.023-0.045,0.045-0.068,0.066c-0.064,0.043-0.131,0.08-0.2,0.112c-0.33,0.128-0.675,0.208-1.022,0.272
	c-0.165,0.03-0.331,0.058-0.496,0.085c-0.07,0.011-0.14,0.022-0.209,0.033c-0.081,0.013-0.157,0.029-0.235,0.054
	c-0.125,0.041-0.246,0.096-0.369,0.145c0,0,0,0.001,0,0.001c0.174-0.003,0.352-0.025,0.526-0.007
	c0.658,0.102,1.351,0.158,2.004,0.001c0.202-0.048,0.382-0.146,0.541-0.278c0.073-0.061,0.132-0.146,0.178-0.229
	c0.062-0.114,0.098-0.244,0.106-0.374c0.013-0.159-0.027-0.317-0.07-0.469c-0.038-0.136-0.099-0.271-0.168-0.394
	c-0.227-0.404-0.655-0.631-1.064-0.812C22.198,14.649,21.639,14.442,21.073,14.253L21.073,14.253
	C21.073,14.252,21.072,14.253,21.073,14.253"/>
</svg>
