<?xml version="1.0" encoding="utf-8"?>
<!-- Generator: Adobe Illustrator 15.0.0, SVG Export Plug-In . SVG Version: 6.00 Build 0)  -->
<!DOCTYPE svg PUBLIC "-//W3C//DTD SVG 1.1//EN" "http://www.w3.org/Graphics/SVG/1.1/DTD/svg11.dtd">
<svg version="1.1" id="Capa_1" xmlns="http://www.w3.org/2000/svg" xmlns:xlink="http://www.w3.org/1999/xlink" x="0px" y="0px"
	 width="45px" height="45px" viewBox="-0.5 -0.5 45 45" enable-background="new -0.5 -0.5 45 45" xml:space="preserve">
<path fill="#292521" d="M34.985,14.362c0.013-0.016,0.025-0.032,0.037-0.047C35.011,14.33,34.998,14.346,34.985,14.362
	 M23.127,19.704c0.007-0.008,0.013-0.016,0.02-0.025c0.022-0.029,0.046-0.059,0.067-0.089
	C23.186,19.629,23.157,19.667,23.127,19.704 M20.418,24.58c-0.001,0.011-0.003,0.021-0.004,0.031
	C20.415,24.602,20.416,24.592,20.418,24.58C20.418,24.581,20.418,24.58,20.418,24.58 M20.432,24.558c0,0.005,0,0.008,0.001,0.012
	C20.433,24.565,20.432,24.562,20.432,24.558C20.431,24.559,20.431,24.558,20.432,24.558 M33.224,8.764
	c-0.106,0.013-0.184,0.018-0.277,0.049c-0.135,0.044-0.261,0.105-0.378,0.184c-0.164,0.109-0.319,0.238-0.465,0.374
	c-0.1,0.093-0.199,0.186-0.3,0.279c-0.408,0.381-0.815,0.764-1.218,1.15c-0.118,0.114-0.237,0.228-0.355,0.341
	c-0.109,0.104-0.209,0.218-0.313,0.326c-0.19,0.196-0.375,0.397-0.561,0.597c-0.371,0.398-0.752,0.787-1.12,1.187
	c-0.204,0.222-0.406,0.445-0.603,0.672c-0.193,0.22-0.376,0.446-0.559,0.675c-0.384,0.478-0.745,0.971-1.106,1.466
	c-0.179,0.247-0.354,0.497-0.529,0.746c-0.145,0.201-0.293,0.399-0.441,0.596c-0.298,0.372-0.596,0.744-0.895,1.114
	c-0.315,0.39-0.649,0.764-0.957,1.16c-0.707,0.917-1.395,1.849-2.094,2.771c-0.083,0.108-0.166,0.217-0.248,0.324
	c-0.262,0.332-0.527,0.659-0.784,0.993c-0.041,0.053-0.082,0.104-0.122,0.155c-0.099,0.123-0.22,0.243-0.267,0.398
	c-0.151,0.496,0.322,0.865,0.667,1.13c0.272,0.208,0.547,0.414,0.82,0.62c-0.016-0.011-0.031-0.022-0.045-0.034
	c0.424,0.329,0.851,0.654,1.278,0.981c-0.004-0.003-0.008-0.006-0.01-0.008c0.104,0.088,0.205,0.182,0.31,0.272c0,0,0,0,0-0.001
	c-0.08-0.115-0.154-0.237-0.244-0.347c-0.041-0.049-0.083-0.098-0.124-0.147c-0.076-0.089-0.151-0.178-0.227-0.268
	c-0.157-0.188-0.315-0.373-0.47-0.563c-0.152-0.183-0.303-0.367-0.458-0.548c-0.184-0.214-0.371-0.427-0.548-0.647
	c-0.052-0.069-0.098-0.143-0.137-0.222c0.021-0.031,0.043-0.062,0.064-0.094c0.005-0.005,0.01-0.012,0.015-0.018
	c0.354-0.43,0.753-0.821,1.124-1.237c0.382-0.427,0.756-0.861,1.122-1.302c0.347-0.417,0.691-0.837,1.035-1.258
	c0.357-0.44,0.726-0.871,1.091-1.306c0.51-0.608,1.002-1.232,1.486-1.861c-0.013,0.017-0.026,0.034-0.039,0.051
	c0.177-0.23,0.347-0.467,0.52-0.701c0.16-0.213,0.323-0.423,0.483-0.635c0.145-0.187,0.289-0.375,0.44-0.555
	c0.175-0.208,0.342-0.422,0.525-0.623c0.191-0.208,0.38-0.419,0.576-0.622c0.209-0.212,0.418-0.425,0.629-0.635
	c0.407-0.401,0.815-0.801,1.224-1.2c0.414-0.406,0.86-0.779,1.301-1.154c0.182-0.155,0.363-0.308,0.547-0.46
	c0.216-0.179,0.429-0.362,0.647-0.539c0.069,0.069,0.134,0.141,0.2,0.214c0.135,0.148,0.266,0.305,0.392,0.46
	c0.257,0.311,0.522,0.614,0.772,0.929c0.07,0.094,0.131,0.191,0.186,0.293c0.004,0.014,0.008,0.028,0.012,0.043
	c0,0.031-0.001,0.062-0.003,0.093c-0.021,0.098-0.051,0.192-0.086,0.287c-0.167,0.333-0.356,0.651-0.555,0.967
	c-0.187,0.296-0.393,0.576-0.6,0.856c-0.684,0.838-1.407,1.641-2.155,2.422c-0.392,0.41-0.777,0.826-1.174,1.23
	c-0.434,0.441-0.87,0.879-1.305,1.319c-0.35,0.354-0.701,0.706-1.033,1.075c-0.212,0.234-0.421,0.472-0.63,0.707
	c-0.082,0.091-0.154,0.189-0.23,0.285c-0.122,0.151-0.243,0.303-0.364,0.453c-0.177,0.221-0.332,0.455-0.493,0.687
	c-0.139,0.196-0.273,0.395-0.404,0.596c-0.337,0.521-0.669,1.043-1.002,1.564c-0.093,0.146-0.181,0.297-0.277,0.438
	c-0.117,0.169-0.233,0.337-0.349,0.507c-0.352,0.511-0.701,1.022-1.056,1.53c0,0.001,0.001,0.002,0.001,0.001
	c0.539-0.562,1.062-1.139,1.582-1.716c0.133-0.146,0.256-0.299,0.38-0.451c0.205-0.251,0.411-0.502,0.616-0.756
	c0.333-0.413,0.659-0.832,0.999-1.241c0.167-0.202,0.33-0.413,0.508-0.606c0.223-0.239,0.442-0.476,0.66-0.715
	c0.071-0.078,0.15-0.149,0.225-0.225c0.14-0.14,0.279-0.279,0.42-0.42c0.174-0.176,0.353-0.346,0.529-0.518
	c0.393-0.38,0.786-0.76,1.169-1.149c0.814-0.828,1.625-1.662,2.431-2.498c0.395-0.408,0.78-0.825,1.165-1.24
	c0.364-0.395,0.711-0.801,1.042-1.223c0.076-0.097,0.152-0.195,0.228-0.292c-0.004,0.006-0.008,0.011-0.012,0.017
	c0.082-0.105,0.161-0.21,0.241-0.314c-0.006,0.009-0.013,0.018-0.02,0.026c0.062-0.08,0.124-0.161,0.186-0.241
	c0.087-0.107,0.175-0.215,0.263-0.323c0.108-0.137,0.228-0.272,0.316-0.424c0.076-0.13,0.135-0.259,0.193-0.4
	c0.045-0.109,0.065-0.244,0.071-0.359c0.008-0.147-0.016-0.297-0.058-0.438c-0.063-0.213-0.173-0.415-0.306-0.591
	c-0.1-0.129-0.199-0.259-0.309-0.379c-0.385-0.425-0.779-0.841-1.169-1.262c-0.086-0.092-0.173-0.187-0.253-0.283
	c-0.05-0.056-0.097-0.111-0.142-0.167c-0.019-0.023-0.037-0.046-0.055-0.069c-0.121-0.153-0.292-0.24-0.474-0.299
	c-0.045-0.015-0.153-0.031-0.236-0.031C33.256,8.761,33.238,8.762,33.224,8.764"/>
<path fill="#292521" d="M20.436,24.075c-0.253,0.243-0.506,0.487-0.746,0.744c-0.192,0.206-0.381,0.413-0.549,0.64
	c-0.168,0.227-0.317,0.466-0.464,0.707c-0.147,0.243-0.293,0.487-0.438,0.732c-0.279,0.467-0.571,0.929-0.844,1.4
	c-0.102,0.179-0.204,0.356-0.302,0.537c-0.046,0.085-0.086,0.172-0.127,0.258c-0.055,0.116-0.11,0.233-0.142,0.359
	c-0.036,0.145-0.058,0.33-0.013,0.475c0.003,0.011,0.007,0.023,0.01,0.035c0.028,0.1,0.079,0.188,0.153,0.263
	c0.049,0.062,0.116,0.11,0.186,0.147c0.166,0.089,0.373,0.118,0.552,0.048c0.107-0.042,0.19-0.086,0.286-0.144
	c0.061-0.038,0.121-0.075,0.181-0.111c0.125-0.076,0.249-0.149,0.373-0.225c0.236-0.143,0.477-0.278,0.716-0.416
	c0.229-0.132,0.456-0.269,0.687-0.397c0.271-0.15,0.54-0.306,0.808-0.463c0.21-0.124,0.414-0.258,0.622-0.386
	c0.299-0.184,0.598-0.367,0.899-0.551c0.136-0.082,0.278-0.157,0.416-0.236c0.215-0.124,0.432-0.25,0.646-0.376c0.001,0,0-0.001,0,0
	c-0.388,0.078-0.772,0.165-1.158,0.257c-0.111,0.026-0.22,0.062-0.33,0.094c-0.119,0.035-0.238,0.069-0.354,0.109
	c-0.52,0.181-1.03,0.388-1.541,0.594c-0.453,0.183-0.899,0.38-1.34,0.587c-0.1,0.047-0.199,0.095-0.299,0.141
	c0.181-0.431,0.356-0.863,0.523-1.301c0.097-0.253,0.186-0.509,0.275-0.765c0.048-0.139,0.096-0.276,0.144-0.413
	c0.041-0.119,0.081-0.24,0.128-0.356c0.033-0.081,0.066-0.162,0.099-0.244c0.062-0.132,0.123-0.264,0.192-0.393
	c0.068-0.125,0.138-0.249,0.208-0.373C20.075,24.727,20.266,24.408,20.436,24.075L20.436,24.075L20.436,24.075"/>
<path fill="#292521" d="M23.914,31.055c0.004,0,0.009-0.001,0.012-0.002c0.022-0.003,0.046-0.006,0.068-0.009
	C23.967,31.048,23.94,31.052,23.914,31.055 M22.064,31.295c0.012-0.002,0.023-0.004,0.034-0.005c0.04-0.006,0.079-0.011,0.118-0.016
	C22.167,31.281,22.116,31.289,22.064,31.295 M23.848,31.064L23.848,31.064L23.848,31.064L23.848,31.064 M24.745,30.943
	c-0.034,0.006-0.069,0.009-0.103,0.014c0.024-0.003,0.049-0.006,0.072-0.009C24.726,30.945,24.735,30.944,24.745,30.943
	 M13.737,14.122c-0.004,0.002-0.006,0.005-0.01,0.008C13.73,14.127,13.733,14.124,13.737,14.122 M24.859,11.927
	c-0.022,0.003-0.044,0.006-0.065,0.008C24.815,11.933,24.837,11.93,24.859,11.927 M29.358,11.284
	c-0.145,0.003-0.29,0.022-0.435,0.036c-0.133,0.013-0.265,0.03-0.396,0.047c-0.309,0.04-0.615,0.087-0.923,0.138
	c-0.53,0.087-1.061,0.178-1.593,0.258c-0.181,0.028-0.362,0.056-0.543,0.084c-0.19,0.024-0.383,0.049-0.573,0.074
	c0.012-0.001,0.023-0.003,0.035-0.004c-0.254,0.022-0.507,0.05-0.761,0.062c-0.287,0.013-0.574,0.029-0.859,0.038
	c-0.592,0.02-1.182,0.046-1.771,0.093c-1.113,0.087-2.22,0.221-3.329,0.335c-0.544,0.056-1.087,0.116-1.632,0.167
	c-0.551,0.052-1.103,0.072-1.656,0.083c-0.28,0.004-0.562-0.004-0.843,0.014c-0.139,0.009-0.279,0.018-0.419,0.029
	c-0.136,0.011-0.273,0.028-0.409,0.053c-0.18,0.032-0.329,0.156-0.466,0.265c-0.07,0.056-0.114,0.142-0.166,0.213
	c-0.052,0.071-0.086,0.176-0.117,0.249c-0.04,0.098-0.064,0.198-0.082,0.302c-0.037,0.232-0.056,0.459-0.051,0.694
	c0.002,0.09,0.007,0.18,0.014,0.271c0.009,0.135,0.018,0.27,0.029,0.405c0.023,0.299,0.045,0.598,0.063,0.897
	c0.033,0.565,0.069,1.128,0.104,1.693c0.031,0.523,0.04,1.049,0.06,1.574c0.042,1.125,0.079,2.249,0.114,3.373
	c0.037,1.164,0.049,2.328,0.05,3.491c0,1.121-0.023,2.245-0.048,3.366c-0.014,0.587,0.007,1.175,0.093,1.754
	c0.022,0.146,0.043,0.289,0.071,0.434c0.04,0.214,0.105,0.421,0.187,0.624c0.046,0.111,0.089,0.227,0.158,0.33
	c0.043,0.064,0.101,0.137,0.157,0.197c0.059,0.064,0.135,0.11,0.205,0.162c0.104,0.075,0.238,0.116,0.361,0.151
	c0.153,0.046,0.316,0.056,0.473,0.075c0.121,0.014,0.246,0.019,0.368,0.02c0.304,0.006,0.608,0.002,0.914-0.003
	c0.134-0.003,0.269-0.018,0.403-0.026c0.112-0.008,0.225-0.013,0.337-0.024c0.611-0.068,1.222-0.136,1.829-0.229
	c0.551-0.086,1.103-0.172,1.654-0.26c0.556-0.087,1.113-0.167,1.668-0.262c1.108-0.188,2.22-0.354,3.331-0.52
	c0.436-0.066,0.869-0.128,1.306-0.188c0.771-0.097,1.541-0.201,2.31-0.309c0.265-0.028,0.527-0.058,0.792-0.07
	c0.276-0.017,0.556-0.039,0.832-0.022c0.05,0.003,0.1,0.008,0.148,0.009c0.083,0.003,0.171-0.01,0.248-0.038
	c0.11-0.038,0.278-0.109,0.354-0.206c0.057-0.072,0.119-0.141,0.163-0.222c0.043-0.079,0.075-0.168,0.1-0.255
	c0.037-0.144,0.047-0.296,0.06-0.445c0.01-0.142,0.013-0.285,0.019-0.427c0.009-0.275,0.021-0.551,0.037-0.826
	c0.033-0.554,0.064-1.106,0.06-1.662c-0.006-0.58-0.02-1.157-0.045-1.737c-0.048-1.137-0.111-2.275-0.2-3.41
	c-0.021-0.256-0.054-0.512-0.078-0.766c-0.031-0.314-0.062-0.628-0.097-0.94c-0.062-0.58-0.134-1.159-0.22-1.736
	c-0.047-0.312-0.105-0.625-0.163-0.937c-0.079-0.438-0.146-0.877-0.237-1.313c0,0,0,0,0,0c-0.025,0.694-0.025,1.387-0.017,2.081
	c0.007,0.564-0.011,1.127-0.021,1.691c-0.012,0.562-0.033,1.125-0.046,1.687c-0.014,0.567-0.05,1.134-0.081,1.701
	c-0.062,1.102-0.12,2.206-0.162,3.311c-0.021,0.535-0.049,1.069-0.109,1.601c-0.035,0.302-0.068,0.604-0.1,0.908
	c-0.021,0.219-0.032,0.438-0.052,0.656c-0.163,0.042-0.328,0.069-0.493,0.097c-0.281,0.05-0.562,0.095-0.843,0.141
	c-0.263,0.044-0.523,0.096-0.786,0.141c-0.294,0.052-0.587,0.097-0.882,0.142c-0.226,0.033-0.452,0.062-0.677,0.093
	c0.011-0.001,0.02-0.003,0.029-0.003c-0.496,0.066-0.991,0.14-1.487,0.211c-0.008,0.001-0.018,0.001-0.026,0.002
	c0.008-0.001,0.017-0.001,0.024-0.002c-0.001,0.001-0.003,0.001-0.005,0.001c-0.221,0.029-0.443,0.059-0.665,0.088
	c0.004-0.001,0.006-0.001,0.009-0.001c-0.014,0.002-0.025,0.004-0.038,0.005c-0.016,0.002-0.031,0.005-0.048,0.006
	c0.013-0.001,0.024-0.002,0.036-0.004c-0.604,0.082-1.211,0.154-1.815,0.235c-0.245,0.032-0.49,0.065-0.736,0.099
	c-0.559,0.073-1.122,0.127-1.682,0.19c-0.557,0.062-1.115,0.116-1.673,0.17c-0.271,0.027-0.543,0.042-0.815,0.062
	c-0.124,0.009-0.248,0.015-0.371,0.021c-0.129,0.007-0.261,0.02-0.391,0.021c-0.559,0.01-1.119,0.02-1.677-0.026
	c-0.097-0.009-0.193-0.016-0.289-0.025c-0.032-0.005-0.064-0.011-0.096-0.019c-0.037-0.062-0.07-0.125-0.101-0.189
	c-0.135-0.362-0.194-0.748-0.248-1.132c-0.025-0.265-0.048-0.525-0.054-0.791c-0.006-0.305-0.013-0.61-0.019-0.915
	c-0.011-0.559-0.021-1.118-0.027-1.678c-0.013-1.12,0-2.24-0.003-3.359c-0.003-1.133-0.022-2.265-0.024-3.397
	c0-0.568-0.002-1.135,0.003-1.702c0.003-0.521,0.003-1.042-0.003-1.563c-0.006-0.45-0.012-0.901-0.018-1.353
	c-0.002-0.191-0.012-0.381-0.019-0.571c-0.012-0.328-0.031-0.658-0.002-0.986c0.003-0.021,0.008-0.043,0.013-0.065
	c0.106-0.026,0.215-0.044,0.322-0.061c0.529-0.06,1.061-0.094,1.59-0.138c0.531-0.043,1.057-0.113,1.586-0.171
	c0.591-0.065,1.183-0.127,1.776-0.188c0.513-0.053,1.028-0.105,1.543-0.146c0.588-0.047,1.176-0.104,1.765-0.149
	c0.294-0.024,0.589-0.048,0.883-0.072c0.285-0.024,0.568-0.057,0.853-0.09c0.296-0.035,0.588-0.089,0.881-0.139
	c0.151-0.026,0.302-0.068,0.453-0.102c0.105-0.025,0.211-0.05,0.316-0.078c0.546-0.146,1.09-0.302,1.626-0.48
	c0.331-0.109,0.659-0.221,0.987-0.333c0.163-0.056,0.326-0.107,0.489-0.16c0.07-0.024,0.143-0.047,0.215-0.07
	c-0.023,0.125-0.043,0.251-0.064,0.376c-0.043,0.242-0.083,0.484-0.124,0.726c0,0,0,0.001,0,0c0.101-0.222,0.2-0.445,0.299-0.668
	c0.043-0.099,0.087-0.195,0.129-0.294c0.019-0.042,0.037-0.084,0.056-0.125c0.035-0.082,0.093-0.167,0.084-0.258
	c-0.009-0.091-0.072-0.174-0.171-0.174C29.36,11.284,29.358,11.284,29.358,11.284"/>
</svg>
