<?xml version="1.0" encoding="utf-8"?>
<!-- Generator: Adobe Illustrator 15.0.0, SVG Export Plug-In . SVG Version: 6.00 Build 0)  -->
<!DOCTYPE svg PUBLIC "-//W3C//DTD SVG 1.1//EN" "http://www.w3.org/Graphics/SVG/1.1/DTD/svg11.dtd">
<svg version="1.1" id="Capa_1" xmlns="http://www.w3.org/2000/svg" xmlns:xlink="http://www.w3.org/1999/xlink" x="0px" y="0px"
	 width="45px" height="45px" viewBox="-0.5 -0.5 45 45" enable-background="new -0.5 -0.5 45 45" xml:space="preserve">
<g>
	<path fill="#292521" d="M12.486,20.958c-0.004-0.024-0.007-0.049-0.011-0.073C12.479,20.909,12.482,20.934,12.486,20.958
		 M12.499,21.045c-0.002-0.007-0.002-0.018-0.004-0.024c-0.003-0.021-0.006-0.042-0.008-0.063
		C12.49,20.986,12.495,21.017,12.499,21.045 M15.81,32.769L15.81,32.769L15.81,32.769L15.81,32.769 M28.654,29.719
		c-0.003,0.013-0.003,0.022-0.005,0.039C28.649,29.745,28.651,29.731,28.654,29.719 M15.173,15.839
		c0.561-0.032,1.119-0.076,1.679-0.095c0.504-0.018,1.011-0.034,1.516-0.037c0.553-0.006,1.106-0.001,1.66,0.002
		c1.053,0.009,2.107,0.021,3.16,0.035c1.071,0.017,2.143,0.022,3.214,0.032c0.509,0.006,1.018,0.011,1.526,0.024
		c0.279,0.008,0.557,0.016,0.836,0.024c0.216,0.009,0.434,0.013,0.649,0.028c0.019,0.461-0.014,0.928-0.052,1.387
		c-0.048,0.566-0.114,1.127-0.188,1.69c-0.045,0.348-0.082,0.698-0.129,1.046c-0.141,1.049-0.286,2.1-0.434,3.149
		c-0.076,0.53-0.151,1.061-0.228,1.591c-0.082,0.569-0.17,1.136-0.251,1.706c-0.155,1.09-0.288,2.185-0.392,3.281
		c-0.027,0.277-0.041,0.559-0.06,0.837c-0.004,0.082-0.004,0.163-0.004,0.248c-0.002,0.185-0.002,0.368,0,0.554
		c0,0.264,0.019,0.528,0.026,0.796c0.017,0.257,0.025,0.515,0.044,0.77c0.009,0.146,0.02,0.292,0.024,0.438
		c-0.062-0.024-0.118-0.056-0.184-0.078c-0.036-0.015-0.076-0.021-0.117-0.023c-0.062-0.007-0.115-0.014-0.177-0.02
		c-0.12-0.015-0.247-0.024-0.37-0.033c-0.252-0.019-0.51-0.022-0.761-0.022c-0.241,0-0.483,0-0.721,0.004
		c-0.301,0.002-0.601,0.005-0.902,0c-0.53-0.009-1.062-0.026-1.593-0.056c-0.52-0.027-1.039-0.066-1.562-0.093
		c-1.08-0.062-2.158-0.115-3.236-0.155c-0.335-0.012-0.67-0.021-1.004-0.038c-0.188-0.01-0.374-0.021-0.561-0.033
		c-0.176-0.018-0.351-0.034-0.528-0.058c0.028,0.004,0.059,0.008,0.086,0.013c-0.119-0.018-0.243-0.028-0.364-0.059
		c-0.062-0.193-0.112-0.393-0.159-0.595c-0.058-0.25-0.107-0.502-0.162-0.756c-0.117-0.529-0.22-1.061-0.319-1.593
		c-0.045-0.241-0.086-0.482-0.135-0.723c-0.055-0.283-0.115-0.565-0.174-0.847c-0.109-0.516-0.24-1.028-0.346-1.544
		c-0.162-0.782-0.284-1.576-0.4-2.367c-0.133-1.045-0.272-2.088-0.375-3.136c-0.025-0.276-0.049-0.552-0.07-0.829
		c-0.022-0.261-0.03-0.522-0.046-0.783c-0.026-0.502-0.021-1.006-0.003-1.509c0.011-0.344,0.018-0.692,0.042-1.036
		c0.024-0.327,0.054-0.65,0.096-0.973c0.003-0.027,0.006-0.057,0.013-0.083C14.211,15.875,14.695,15.87,15.173,15.839
		 M28.276,14.443c-0.558,0.011-1.117,0.026-1.674,0.052c-1.071,0.047-2.139,0.099-3.21,0.123c-1.049,0.023-2.102,0.035-3.153,0.043
		c-0.556,0.003-1.112,0.006-1.668,0.012c-0.519,0.002-1.035,0.013-1.552,0.011c-0.556-0.002-1.11,0.01-1.664,0.01
		c-0.529,0-1.059-0.012-1.587-0.028c-0.067-0.001-0.132-0.003-0.199-0.005c-0.113-0.004-0.226-0.018-0.341-0.013
		c-0.154,0.005-0.327,0.041-0.457,0.129c-0.129,0.088-0.19,0.145-0.276,0.276c-0.05,0.073-0.08,0.152-0.113,0.238
		c-0.063,0.167-0.076,0.345-0.099,0.522c-0.016,0.125-0.031,0.25-0.038,0.376c-0.01,0.126-0.023,0.256-0.024,0.384
		c-0.012,0.529-0.016,1.061,0.007,1.59c0.018,0.453,0.033,0.904,0.084,1.356c0.023,0.23,0.042,0.463,0.073,0.693
		c0.034,0.27,0.07,0.54,0.106,0.81c0.07,0.52,0.146,1.038,0.22,1.555c0.081,0.558,0.164,1.118,0.245,1.677
		c0.076,0.543,0.167,1.082,0.259,1.626c0.084,0.49,0.18,0.982,0.292,1.466c0.066,0.278,0.129,0.558,0.192,0.838
		c0.06,0.269,0.112,0.541,0.163,0.812c0.098,0.504,0.166,1.016,0.242,1.524c0.033,0.224,0.067,0.445,0.097,0.668
		c-0.006-0.055-0.014-0.108-0.022-0.161c0.045,0.335,0.094,0.667,0.14,1c0.023,0.193,0.051,0.384,0.075,0.574
		c0.023,0.177,0.037,0.355,0.064,0.532c0.01,0.065,0.021,0.128,0.038,0.195c0.046,0.165,0.126,0.319,0.247,0.447
		c0.058,0.06,0.142,0.121,0.202,0.162c0.086,0.054,0.179,0.086,0.271,0.123c0.08,0.03,0.167,0.044,0.253,0.057
		c0.102,0.017,0.206,0.029,0.306,0.039c0.086,0.01,0.172,0.019,0.259,0.024c0.12,0.015,0.243,0.019,0.366,0.024
		c0.266,0.02,0.538,0.011,0.806,0.011c0.269-0.003,0.539-0.01,0.81-0.018c1.041-0.028,2.083-0.085,3.123-0.14
		c0.557-0.03,1.111-0.062,1.664-0.098c0.533-0.033,1.067-0.09,1.599-0.157c0.446-0.055,0.892-0.127,1.332-0.208
		c0.416-0.076,0.828-0.16,1.247-0.217c0.091-0.011,0.183-0.023,0.272-0.032c0.12-0.017,0.245-0.041,0.364-0.026
		c0.053,0.008,0.104,0.017,0.156,0.022l0,0c0.021,0.321,0.039,0.64,0.062,0.959c0.015,0.235,0.022,0.468,0.035,0.703
		c0.021,0.35,0.039,0.704,0.062,1.054c0,0,0.001,0.002,0.001,0c0.106-0.622,0.212-1.251,0.286-1.88
		c0.034-0.299,0.067-0.604,0.103-0.902c0.029-0.296,0.049-0.59,0.069-0.889c0.023-0.3,0.043-0.605,0.064-0.907
		c0.006-0.133,0.023-0.266,0.033-0.396c0.014-0.153,0.026-0.307,0.04-0.463c0.036-0.258,0.07-0.521,0.109-0.782
		c0.175-1.081,0.334-2.163,0.477-3.245c0.147-1.108,0.268-2.216,0.396-3.327c0.123-1.069,0.26-2.137,0.393-3.206
		c0.034-0.3,0.068-0.603,0.105-0.902c0.12-0.867,0.248-1.732,0.359-2.599c0.038-0.296,0.078-0.588,0.175-0.871
		c0.058-0.125,0.091-0.241,0.092-0.391c0.002-0.205-0.106-0.422-0.267-0.552c-0.137-0.108-0.176-0.135-0.342-0.194
		c-0.039-0.015-0.076-0.024-0.115-0.033c-0.143-0.034-0.293-0.049-0.437-0.062c-0.162-0.014-0.323-0.014-0.484-0.019
		c-0.074-0.002-0.151-0.003-0.226-0.003C28.603,14.435,28.438,14.439,28.276,14.443"/>
	<path fill="#292521" d="M25.346,19.229c-0.057,0.328-0.102,0.655-0.166,0.982c-0.055,0.262-0.108,0.526-0.164,0.789
		c-0.114,0.517-0.229,1.035-0.345,1.55c-0.123,0.541-0.253,1.082-0.364,1.628c-0.021,0.099-0.045,0.197-0.059,0.297
		c-0.023,0.191-0.051,0.385-0.075,0.575c-0.018,0.131-0.03,0.259-0.049,0.391c-0.016,0.123-0.018,0.252-0.022,0.377
		c-0.011,0.168-0.021,0.339-0.026,0.507c-0.004,0.084-0.003,0.168-0.009,0.252c-0.008,0.093-0.004,0.186-0.006,0.278
		c-0.002,0.097-0.004,0.193-0.004,0.288c0,0.076-0.003,0.154-0.003,0.229c-0.004,0.299-0.004,0.598-0.002,0.896
		c0,0.298-0.009,0.594-0.009,0.893c0.003,0.262-0.008,0.526-0.011,0.787c-0.001,0.257-0.005,0.519-0.005,0.774
		c0,0.265,0,0.53,0.003,0.797c0.003,0.27,0.001,0.539,0,0.807c0,0.532,0.009,1.066,0.023,1.596c0,0.001,0,0.001,0,0.001
		c0.171-0.633,0.337-1.265,0.483-1.903c0.116-0.517,0.198-1.041,0.274-1.569c0.078-0.525,0.141-1.052,0.179-1.585
		c0.039-0.529,0.064-1.059,0.066-1.588c0.004-0.586-0.009-1.172-0.021-1.764c-0.001-0.079,0.002-0.159,0.005-0.239
		c0.01-0.188,0.017-0.377,0.022-0.564c0.008-0.266,0.041-0.528,0.066-0.795c0.046-0.521,0.113-1.035,0.16-1.552
		c0.048-0.507,0.091-1.018,0.114-1.527c0.01-0.221,0.021-0.445,0.018-0.667c0-0.125-0.005-0.25-0.009-0.374
		C25.393,19.604,25.371,19.417,25.346,19.229C25.347,19.229,25.347,19.229,25.346,19.229C25.347,19.229,25.346,19.229,25.346,19.229
		"/>
	<path fill="#292521" d="M21.394,32.494L21.394,32.494c0-0.002,0-0.004,0-0.006C21.394,32.491,21.394,32.493,21.394,32.494
		 M21.303,19.103c-0.099,0.652-0.153,1.309-0.2,1.966c-0.037,0.527-0.068,1.055-0.082,1.585c-0.027,1.057-0.006,2.115-0.035,3.173
		c-0.033,1.116-0.002,2.237,0.066,3.354c0.03,0.505,0.072,1.008,0.126,1.509c0.064,0.587,0.133,1.172,0.209,1.76
		c0.002,0.014,0.005,0.025,0.007,0.042c-0.001-0.004-0.001-0.006-0.001-0.01c0,0.004,0.001,0.01,0.001,0.014
		c0,0.002,0.001,0.006,0.001,0.007c0-0.001-0.001-0.004-0.001-0.006c0.022,0.168,0.044,0.338,0.067,0.507h0.002
		c0.102-0.621,0.196-1.244,0.259-1.871c0.056-0.535,0.099-1.073,0.133-1.613c0.069-1.099,0.103-2.2,0.09-3.302
		c-0.004-0.247-0.012-0.495-0.023-0.744c-0.017-0.258-0.028-0.52-0.057-0.779c-0.056-0.543-0.12-1.087-0.178-1.631
		c-0.027-0.279-0.061-0.56-0.083-0.837c-0.024-0.295-0.051-0.588-0.076-0.881c-0.045-0.52-0.077-1.038-0.134-1.557
		C21.366,19.557,21.337,19.329,21.303,19.103C21.304,19.1,21.304,19.1,21.303,19.103C21.303,19.1,21.303,19.1,21.303,19.103"/>
	<path fill="#292521" d="M17.427,21.625c0.002,0.011,0.002,0.021,0.004,0.029C17.43,21.646,17.43,21.635,17.427,21.625
		 M17.165,19.355c-0.096,0.64-0.136,1.286-0.156,1.933c-0.017,0.574-0.022,1.146-0.023,1.721c-0.002,0.48-0.003,0.959,0.011,1.439
		c0.006,0.218,0.012,0.438,0.023,0.653c0.011,0.182,0.021,0.363,0.032,0.545c0.009,0.135,0.011,0.278,0.03,0.414
		c0.089,1.092,0.213,2.182,0.372,3.265c0.039,0.266,0.092,0.529,0.143,0.791c0.05,0.247,0.122,0.487,0.19,0.727
		c0.163,0.595,0.387,1.172,0.608,1.749c0,0,0.002,0,0.002-0.001c-0.034-0.619-0.083-1.239-0.115-1.861
		c-0.011-0.253-0.027-0.502-0.032-0.757c-0.004-0.263-0.017-0.529-0.019-0.794c-0.011-1.076-0.069-2.152-0.208-3.218
		c-0.049-0.387-0.104-0.768-0.163-1.15c-0.047-0.302-0.086-0.607-0.131-0.908c-0.034-0.28-0.073-0.562-0.113-0.843
		c-0.032-0.253-0.067-0.506-0.102-0.76c-0.025-0.207-0.054-0.415-0.082-0.62c0.001,0,0.001,0.001,0.001,0.002
		c-0.039-0.316-0.083-0.632-0.115-0.949C17.28,20.273,17.237,19.812,17.165,19.355C17.166,19.354,17.166,19.354,17.165,19.355
		C17.165,19.354,17.165,19.354,17.165,19.355"/>
	<path fill="#292521" d="M23.819,14.355c-1.069,0.002-2.14,0.011-3.213,0.013c-1.082,0-2.167,0.03-3.248,0.073
		c-0.545,0.023-1.09,0.05-1.635,0.08c-0.55,0.029-1.106,0.045-1.651,0.122c-0.591,0.086-1.171,0.233-1.761,0.326
		c-0.256,0.032-0.517,0.058-0.774,0.083c-0.136,0.015-0.271,0.032-0.405,0.049c-0.069,0.009-0.136,0.017-0.204,0.024
		c-0.156,0.019-0.305,0.056-0.46,0.089c0,0,0,0.001,0.001,0.001c0.147,0.006,0.294,0.008,0.437,0.024
		c0.061,0.008,0.121,0.016,0.181,0.023c0.131,0.017,0.263,0.033,0.393,0.05c0.236,0.027,0.476,0.037,0.71,0.045
		c0.272,0.01,0.541,0.003,0.813-0.014c0.257-0.016,0.515-0.039,0.772-0.053c0.141-0.008,0.284-0.012,0.424-0.017
		c0.133-0.002,0.266,0.004,0.398,0.008c0.247,0.01,0.489,0.025,0.734,0.041c0.538,0.03,1.078,0.059,1.614,0.082
		c1.067,0.05,2.132,0.079,3.198,0.09c1.077,0.011,2.154,0.009,3.231,0.014c1.069,0.004,2.139-0.011,3.201-0.05
		c0.575-0.02,1.151-0.045,1.725-0.079c0.527-0.032,1.057-0.086,1.584-0.149c0.464-0.054,0.925-0.125,1.388-0.194
		c0.055-0.008,0.106-0.015,0.158-0.021c0.036-0.006,0.07-0.01,0.111-0.015c0.003,0,0.003,0,0.005-0.002
		c0.022-0.002,0.043-0.004,0.066-0.009c0.062-0.009,0.125-0.017,0.188-0.025c0.637-0.076,1.276-0.149,1.914-0.222
		c0.001,0,0.001-0.001,0-0.001c-0.639-0.073-1.278-0.138-1.92-0.184c-0.541-0.039-1.085-0.042-1.63-0.043
		c-0.523-0.001-1.042-0.02-1.565-0.037c-0.521-0.018-1.036-0.04-1.554-0.059c-1.042-0.04-2.089-0.067-3.132-0.067
		C23.884,14.355,23.852,14.355,23.819,14.355"/>
	<path fill="#292521" d="M13.041,11.82c0.003,0,0.008-0.001,0.01-0.001c0.013-0.001,0.023-0.002,0.035-0.004
		C13.071,11.815,13.056,11.818,13.041,11.82 M12.99,11.826c0.018-0.002,0.033-0.004,0.051-0.006
		C13.023,11.822,13.007,11.824,12.99,11.826 M12.579,14.686c0,0.005,0.001,0.008,0.001,0.012
		C12.58,14.694,12.579,14.69,12.579,14.686 M29.397,14.312c-0.001,0.002-0.001,0.002-0.002,0.002
		C29.396,14.313,29.396,14.313,29.397,14.312 M12.61,12.569c-0.002,0.002-0.005,0.004-0.007,0.004
		C12.605,12.573,12.608,12.571,12.61,12.569L12.61,12.569 M30.001,12.458c0.006,0.005,0.011,0.01,0.018,0.015
		C30.012,12.469,30.007,12.463,30.001,12.458 M29.909,12.333c0.003,0.004,0.004,0.006,0.004,0.009
		C29.913,12.338,29.91,12.336,29.909,12.333 M25.294,11.499c-0.233,0.002-0.466,0.008-0.699,0.011c-0.301,0-0.604,0.002-0.902,0.004
		c-0.514,0.002-1.024,0.007-1.535,0.012c-1.083,0.008-2.167,0.007-3.249,0.023c-1.06,0.016-2.119,0.056-3.178,0.097
		c-0.896,0.033-1.793,0.059-2.681,0.172c-0.127,0.018-0.255,0.038-0.386,0.057c-0.062,0.008-0.119,0.02-0.18,0.027
		c-0.102,0.016-0.19,0.059-0.268,0.123c-0.094,0.075-0.144,0.188-0.174,0.301c-0.064,0.231-0.016,0.49,0.032,0.722
		c0.026,0.13,0.054,0.26,0.078,0.392c0.046,0.252,0.092,0.506,0.135,0.76c0.023,0.128,0.063,0.252,0.103,0.377
		c0.075,0.238,0.201,0.451,0.32,0.669h0.002c-0.048-0.182-0.105-0.362-0.132-0.548c-0.02-0.161-0.027-0.321-0.027-0.483
		c-0.002-0.164,0.017-0.329,0.024-0.492c0.01-0.161,0.017-0.323,0.021-0.485c0.004-0.175,0.002-0.354,0.022-0.529
		c0.009-0.05,0.02-0.099,0.033-0.146c0.482-0.05,0.972-0.055,1.454-0.035c0.542,0.022,1.086,0.049,1.632,0.068
		c1.072,0.043,2.144,0.083,3.219,0.1c1.081,0.015,2.163,0.013,3.246,0.022c0.509,0.003,1.021,0.008,1.531,0
		c0.527-0.009,1.058-0.036,1.586-0.065c0.537-0.027,1.078-0.049,1.614-0.074c0.563-0.028,1.125-0.071,1.683-0.107
		c0.169-0.012,0.344-0.019,0.514-0.026c0.257-0.014,0.528-0.031,0.785-0.01c-0.002,0.161-0.018,0.324-0.023,0.483
		c-0.011,0.191-0.026,0.383-0.05,0.575c-0.021,0.134-0.045,0.267-0.095,0.394c-0.028,0.065-0.064,0.124-0.102,0.182
		c-0.075,0.091-0.161,0.171-0.253,0.245c-0.106,0.078-0.213,0.159-0.319,0.237c0,0,0,0,0.001,0c0.296-0.115,0.617-0.218,0.831-0.468
		c0.181-0.207,0.267-0.48,0.344-0.737c0.073-0.243,0.132-0.489,0.202-0.735c0.02-0.071,0.039-0.144,0.062-0.216
		c0.064-0.231-0.067-0.45-0.266-0.554c-0.161-0.083-0.344-0.116-0.521-0.144c-0.115-0.019-0.232-0.032-0.348-0.045
		c-0.266-0.027-0.529-0.052-0.798-0.068c-0.559-0.031-1.117-0.042-1.677-0.058c-0.485-0.017-0.975-0.03-1.46-0.03
		C25.391,11.499,25.343,11.499,25.294,11.499"/>
	<path fill="#292521" d="M20.905,9.486c-0.396,0.031-0.784,0.124-1.149,0.285c-0.161,0.073-0.306,0.166-0.439,0.279
		c-0.129,0.111-0.231,0.257-0.308,0.408c-0.158,0.299-0.208,0.647-0.186,0.982c0.004,0.06,0.009,0.115,0.018,0.175
		c0.007,0.048,0.013,0.096,0.026,0.145c0.024,0.081,0.069,0.159,0.099,0.235c0.001,0,0.002,0,0.002,0
		c-0.003-0.094-0.012-0.188-0.008-0.282c0.036-0.195,0.091-0.383,0.161-0.566c0.056-0.119,0.115-0.235,0.192-0.345
		c0.071-0.09,0.15-0.173,0.239-0.247c0.068-0.047,0.138-0.089,0.212-0.124c0.166-0.066,0.341-0.104,0.517-0.133
		c0.278-0.031,0.554-0.029,0.835-0.014c0.122,0.006,0.248,0.013,0.372,0.02c0.258,0.013,0.518,0.022,0.778,0.023
		c0.254,0.001,0.508,0.001,0.762,0.004c0.22,0.003,0.439,0.023,0.664,0.045c0.199,0.032,0.398,0.061,0.588,0.133
		c0.05,0.023,0.1,0.047,0.145,0.077c0.017,0.014,0.028,0.026,0.041,0.043c0.007,0.007,0.011,0.011,0.014,0.02
		c0.009,0.025,0.017,0.053,0.022,0.08c0.012,0.115,0.017,0.23,0.017,0.345c0,0.103,0.006,0.204,0.004,0.305
		c-0.001,0.289,0.002,0.575,0.008,0.866h0.001c0.115-0.317,0.226-0.632,0.319-0.953c0.039-0.133,0.072-0.266,0.106-0.401
		c0.042-0.191,0.059-0.377-0.023-0.56c-0.08-0.18-0.237-0.303-0.394-0.413c-0.203-0.139-0.445-0.21-0.68-0.284
		c-0.048-0.016-0.098-0.026-0.149-0.038c-0.061-0.015-0.118-0.031-0.183-0.042c-0.3-0.048-0.598-0.086-0.898-0.103
		c-0.195-0.012-0.392-0.017-0.588-0.017C21.656,9.439,21.28,9.459,20.905,9.486"/>
</g>
</svg>
