<?xml version="1.0" encoding="utf-8"?>
<!-- Generator: Adobe Illustrator 15.0.0, SVG Export Plug-In . SVG Version: 6.00 Build 0)  -->
<!DOCTYPE svg PUBLIC "-//W3C//DTD SVG 1.1//EN" "http://www.w3.org/Graphics/SVG/1.1/DTD/svg11.dtd">
<svg version="1.1" id="Capa_1" xmlns="http://www.w3.org/2000/svg" xmlns:xlink="http://www.w3.org/1999/xlink" x="0px" y="0px"
	 width="45px" height="45px" viewBox="-0.5 -0.5 45 45" enable-background="new -0.5 -0.5 45 45" xml:space="preserve">
<g>
	<path opacity="0.9753" fill="#292521" d="M26.643,36.436c-0.004,0.001-0.005,0.002-0.007,0.004
		C26.638,36.438,26.639,36.437,26.643,36.436 M26.546,10.919C26.546,10.919,26.546,10.919,26.546,10.919
		C26.547,10.92,26.547,10.92,26.546,10.919C26.546,10.92,26.546,10.92,26.546,10.919C26.546,10.919,26.546,10.919,26.546,10.919
		 M17.69,10.88c-0.006,0.005-0.011,0.009-0.017,0.013C17.679,10.889,17.684,10.884,17.69,10.88L17.69,10.88 M18.064,10.872
		c0.177-0.007,0.354-0.018,0.532-0.024c0.353-0.014,0.708-0.013,1.062-0.016c0.384-0.004,0.768-0.012,1.152-0.021
		c0.381-0.009,0.762-0.027,1.143-0.029c0.713-0.004,1.428-0.005,2.141,0.009c0.369,0.007,0.74,0.012,1.109,0.037
		c0.375,0.024,0.749,0.06,1.123,0.109c0.055,0.009,0.109,0.019,0.164,0.029c0,0.068,0,0.137,0,0.205c0,0.197,0,0.396,0,0.592
		c0,0.046,0,0.092,0,0.139c-0.048,0.146-0.093,0.3-0.119,0.451c-0.072,0.396-0.104,0.795-0.136,1.196
		c-0.028,0.364-0.056,0.728-0.081,1.093c-0.051,0.727-0.1,1.456-0.103,2.185c-0.002,0.379,0.01,0.758,0.026,1.138
		c0.015,0.375,0.055,0.749,0.085,1.123c0.062,0.732,0.116,1.467,0.12,2.202c0.005,0.755,0.001,1.51-0.003,2.263
		c-0.004,1.482-0.021,2.967,0.058,4.447c0.021,0.385,0.034,0.77,0.047,1.153c0.012,0.341,0.006,0.683,0.007,1.023
		c0.007,0.743,0.018,1.486,0.079,2.228c0.056,0.664,0.094,1.33,0.084,1.996c-0.011,0.624-0.019,1.249-0.091,1.869
		c-0.01,0.062-0.022,0.121-0.037,0.181c-0.073,0.003-0.147,0.003-0.22,0.005c-0.169,0.005-0.338,0.01-0.506,0.016
		c-0.365,0.013-0.728,0.01-1.091,0.016c-0.372,0.006-0.744,0.021-1.116,0.035c-0.358,0.014-0.717,0.011-1.077,0.008
		c-0.889-0.004-1.782-0.004-2.667-0.093c-0.112-0.019-0.224-0.037-0.336-0.06c-0.139-0.027-0.275-0.071-0.411-0.112
		c-0.265-0.078-0.524-0.163-0.781-0.263c-0.081-0.036-0.16-0.072-0.236-0.117c-0.065-0.182-0.124-0.367-0.186-0.551
		c-0.069-0.206-0.137-0.413-0.19-0.626c-0.058-0.228-0.116-0.456-0.168-0.687c-0.037-0.164-0.062-0.33-0.085-0.495
		c-0.039-0.341-0.065-0.681-0.085-1.023c-0.022-0.372-0.052-0.747-0.07-1.121c-0.034-0.726-0.038-1.452-0.06-2.178
		c-0.022-0.769-0.075-1.532-0.12-2.3c-0.021-0.374-0.039-0.746-0.052-1.121c-0.013-0.355-0.007-0.711-0.007-1.066
		c0.003-1.5-0.002-3,0.03-4.5c0.014-0.722,0.088-1.438,0.12-2.157c0.034-0.767,0.067-1.535,0.108-2.302
		c0.038-0.703,0.102-1.406,0.173-2.106c0.037-0.363,0.075-0.726,0.108-1.09c0.033-0.365,0.059-0.732,0.103-1.096
		c0.032-0.2,0.079-0.397,0.149-0.587C17.857,10.875,17.961,10.876,18.064,10.872 M21.069,9.47c-0.753,0.03-1.506,0.044-2.26,0.039
		c-0.335-0.001-0.668-0.027-1.003-0.032c-0.097-0.001-0.194-0.004-0.29,0.007c-0.109,0.014-0.188,0.02-0.284,0.055
		c-0.104,0.038-0.185,0.073-0.27,0.135c-0.085,0.063-0.147,0.109-0.212,0.185c-0.076,0.087-0.142,0.178-0.194,0.281
		c-0.227,0.448-0.3,0.958-0.333,1.454c-0.05,0.746-0.105,1.491-0.161,2.236c-0.058,0.768-0.099,1.537-0.131,2.307
		c-0.032,0.741-0.056,1.482-0.099,2.223c-0.022,0.377-0.052,0.754-0.076,1.131c-0.022,0.368-0.033,0.736-0.042,1.105
		c-0.017,0.725-0.016,1.449-0.016,2.173c0,0.764-0.001,1.526,0,2.289c0.002,0.752,0.047,1.503,0.089,2.254
		c0.02,0.352,0.041,0.703,0.059,1.056c0.018,0.368,0.02,0.737,0.023,1.107c0.005,0.73-0.008,1.46,0.033,2.188
		c0.02,0.369,0.036,0.737,0.054,1.104c0.019,0.368,0.036,0.733,0.083,1.099c0.03,0.233,0.068,0.461,0.119,0.691
		c0.04,0.182,0.089,0.362,0.134,0.545c0.085,0.343,0.209,0.675,0.312,1.015c0.024,0.079,0.047,0.16,0.075,0.239
		c0.04,0.109,0.08,0.22,0.14,0.317c0.108,0.176,0.257,0.307,0.431,0.413c0.141,0.087,0.311,0.146,0.462,0.207
		c0.082,0.033,0.164,0.066,0.247,0.095c0.347,0.122,0.702,0.224,1.059,0.312c0.214,0.054,0.443,0.085,0.663,0.106
		c0.187,0.019,0.374,0.033,0.562,0.044c0.363,0.022,0.729,0.022,1.092,0.023c0.373,0.002,0.746,0.002,1.12,0.003
		c0.376,0,0.752,0.003,1.13-0.011c0.717-0.025,1.438-0.069,2.156-0.048c0.177,0.003,0.354,0.008,0.532,0.012
		c0.243,0.006,0.51,0.034,0.745-0.039c0.168-0.052,0.328-0.15,0.439-0.287c0.065-0.081,0.118-0.146,0.163-0.237
		c0.043-0.084,0.077-0.176,0.11-0.267c0.038-0.106,0.056-0.222,0.073-0.334c0.018-0.114,0.032-0.229,0.044-0.346
		c0.018-0.175,0.03-0.351,0.035-0.526c0.009-0.3,0.017-0.6,0.02-0.902c0.127,0.458,0.263,0.913,0.399,1.367
		c0,0.001,0.002,0.001,0.002,0c-0.057-0.891-0.125-1.782-0.176-2.675c-0.041-0.729-0.074-1.456-0.077-2.186
		c-0.003-0.765,0.028-1.532,0.05-2.297c0.022-0.761,0.047-1.521,0.057-2.281c0.004-0.323,0.009-0.65-0.003-0.975
		c-0.014-0.419-0.035-0.836-0.061-1.254c-0.044-0.714-0.096-1.426-0.104-2.141c-0.011-0.78-0.011-1.56-0.009-2.339
		c0.001-0.722,0.004-1.443-0.031-2.163c-0.017-0.371-0.033-0.74-0.042-1.11c-0.01-0.377-0.031-0.754-0.045-1.131
		c-0.024-0.714-0.02-1.428-0.018-2.142c0.001-0.74-0.001-1.479,0.001-2.218c0-0.173,0.002-0.344,0.008-0.517
		c0.001-0.052,0.003-0.104,0.005-0.156c0.007-0.188-0.056-0.381-0.148-0.54c-0.183-0.31-0.535-0.456-0.873-0.518
		c-0.266-0.048-0.537-0.07-0.806-0.093c-0.174-0.015-0.348-0.031-0.523-0.039c-0.745-0.034-1.491-0.037-2.236-0.04
		c-0.24,0-0.481-0.001-0.722-0.001C22.056,9.446,21.562,9.45,21.069,9.47"/>
	<path opacity="0.9753" fill="#292521" d="M20.478,7.242C20.477,7.243,20.477,7.243,20.478,7.242
		c-0.012,0.01-0.023,0.019-0.035,0.027C20.454,7.26,20.465,7.251,20.478,7.242 M20.48,7.241c0,0-0.001,0-0.001,0c0,0,0,0,0,0
		C20.479,7.241,20.479,7.241,20.48,7.241 M20.48,7.232c-0.012,0.004-0.024,0.009-0.037,0.015C20.456,7.241,20.467,7.236,20.48,7.232
		 M20.535,7.22c-0.007,0.001-0.014,0.002-0.021,0.002C20.521,7.222,20.528,7.221,20.535,7.22 M23.261,6.161
		c-0.235,0.072-0.475,0.123-0.717,0.165c-0.335,0.032-0.671,0.056-1.009,0.071c-0.179,0.008-0.358,0.017-0.538,0.026
		c-0.084,0.004-0.169,0.009-0.253,0.012c-0.152,0.008-0.311,0.009-0.457,0.052c-0.148,0.044-0.265,0.154-0.356,0.273
		c-0.081,0.105-0.131,0.226-0.176,0.35C19.698,7.27,19.693,7.451,19.68,7.62c-0.014,0.174-0.011,0.352-0.009,0.527
		c0.002,0.339-0.012,0.679,0,1.018c0.002,0.064,0.006,0.128,0.009,0.191c0.009,0.171,0.072,0.341,0.115,0.506c0,0,0.002,0,0.002,0
		c0.012-0.132,0.019-0.265,0.032-0.397c0.025-0.17,0.077-0.338,0.124-0.502C20,8.791,20.049,8.618,20.095,8.445
		c0.089-0.333,0.145-0.678,0.263-1.002c0.029-0.061,0.063-0.118,0.101-0.173c0.012-0.014,0.024-0.026,0.037-0.038
		c0.127-0.003,0.255,0.006,0.382,0.01c0.113,0.004,0.225,0.006,0.337,0.008c0.245,0.003,0.493,0.002,0.736-0.023
		c0.275-0.027,0.556-0.056,0.826-0.124c0.188-0.048,0.372-0.111,0.553-0.186c0.031,0.111,0.059,0.225,0.088,0.335
		c0.054,0.188,0.109,0.376,0.167,0.563c0.133,0.434,0.28,0.864,0.432,1.292c0,0.001,0.002,0.001,0.002,0
		c-0.004-0.633-0.028-1.266-0.062-1.899c-0.008-0.144-0.017-0.288-0.027-0.432c-0.007-0.116-0.014-0.237-0.047-0.349
		c-0.036-0.12-0.14-0.26-0.27-0.283c-0.048-0.009-0.096-0.016-0.144-0.021C23.399,6.12,23.326,6.141,23.261,6.161"/>
	<path opacity="0.9753" fill="#292521" d="M21.994,17.098c0.004,0.003,0.009,0.006,0.013,0.01
		C22.003,17.104,21.999,17.102,21.994,17.098 M22.01,16.267c-0.095,0.06-0.157,0.134-0.214,0.229c-0.059,0.1-0.084,0.217-0.1,0.33
		c-0.019,0.15-0.034,0.299-0.046,0.45c-0.013,0.166-0.022,0.331-0.029,0.497c-0.032,0.729-0.056,1.458-0.074,2.186
		c-0.019,0.75-0.012,1.5-0.017,2.25c-0.005,0.753-0.05,1.506-0.056,2.26c-0.007,0.727,0.042,1.452,0.074,2.178
		c0.034,0.785,0.066,1.572,0.081,2.358c0.006,0.355,0.005,0.711,0.018,1.066c0.014,0.378,0.044,0.756,0.085,1.131
		c0.082,0.761,0.22,1.514,0.358,2.265c0.032,0.176,0.065,0.352,0.099,0.527h0.001c0.033-0.885,0.056-1.769,0.097-2.651
		c0.018-0.383,0.05-0.765,0.065-1.147c0.016-0.376,0.036-0.751,0.06-1.127c0.046-0.73,0.104-1.46,0.146-2.192
		c0.043-0.754,0.073-1.509,0.132-2.263c0.058-0.739,0.113-1.476,0.133-2.216c0.02-0.743,0.029-1.485,0.014-2.229
		c-0.01-0.474-0.026-0.948-0.041-1.422c0.047,0.102,0.097,0.201,0.146,0.3c0.157,0.306,0.297,0.62,0.446,0.93
		c0.075,0.157,0.153,0.312,0.23,0.468c0.074,0.146,0.156,0.29,0.226,0.438c0.071,0.152,0.144,0.305,0.214,0.457
		c0.035,0.075,0.076,0.145,0.117,0.215c0.031,0.056,0.062,0.105,0.105,0.153c0.088,0.096,0.203,0.168,0.303,0.252
		c0.001,0,0.002,0,0.002-0.001c-0.046-0.061-0.093-0.118-0.139-0.176c0.001,0.001,0.002,0.001,0.002,0.003
		c-0.044-0.058-0.084-0.116-0.12-0.178c-0.113-0.331-0.167-0.678-0.262-1.013c-0.096-0.331-0.188-0.663-0.279-0.996
		c-0.046-0.173-0.091-0.345-0.139-0.518c-0.044-0.161-0.097-0.319-0.14-0.48c-0.048-0.178-0.092-0.357-0.141-0.535
		c-0.047-0.169-0.1-0.335-0.146-0.504c-0.046-0.169-0.091-0.339-0.147-0.506c-0.029-0.082-0.056-0.164-0.084-0.246
		c-0.036-0.109-0.078-0.219-0.142-0.315c-0.063-0.093-0.125-0.161-0.22-0.222c-0.104-0.068-0.205-0.083-0.327-0.096
		c-0.009-0.001-0.018-0.001-0.027-0.001C22.184,16.177,22.084,16.221,22.01,16.267"/>
	<path opacity="0.9753" fill="#292521" d="M21.641,16.849c0.008,0.001,0.015,0.002,0.022,0.003
		C21.656,16.851,21.648,16.85,21.641,16.849 M21.403,15.817c-0.065,0.05-0.134,0.096-0.192,0.157
		c-0.058,0.061-0.108,0.136-0.146,0.211c-0.118,0.23-0.151,0.504-0.179,0.757c-0.017,0.152-0.027,0.304-0.045,0.456
		c-0.042,0.307-0.086,0.613-0.14,0.917c-0.03,0.166-0.078,0.332-0.121,0.495c-0.046,0.175-0.093,0.349-0.137,0.525
		c-0.174,0.707-0.34,1.416-0.512,2.122c-0.142,0.584-0.269,1.172-0.388,1.761c0,0.001,0,0.002,0.001,0.001
		c0.221-0.404,0.435-0.811,0.648-1.219c0.17-0.327,0.341-0.657,0.494-0.993c0.319-0.7,0.613-1.411,0.892-2.128
		c0.115-0.296,0.193-0.602,0.275-0.908c0.041-0.152,0.082-0.302,0.112-0.456c0.02-0.1,0.036-0.2,0.05-0.3
		c0.032,0.053,0.062,0.107,0.09,0.165c0.119,0.299,0.217,0.607,0.321,0.911c0.121,0.352,0.26,0.705,0.422,1.04
		c0.079,0.163,0.159,0.327,0.25,0.483c0.096,0.164,0.193,0.325,0.291,0.487c0.091,0.149,0.186,0.296,0.279,0.443
		c0.097,0.152,0.183,0.31,0.279,0.461c0.083,0.128,0.171,0.25,0.258,0.375c0,0,0,0,0-0.001c-0.056-0.188-0.119-0.373-0.169-0.562
		c-0.023-0.087-0.047-0.173-0.072-0.26c-0.048-0.167-0.106-0.332-0.159-0.497c-0.105-0.333-0.22-0.667-0.3-1.006
		c-0.082-0.351-0.153-0.705-0.218-1.061c-0.032-0.182-0.062-0.364-0.099-0.545c-0.035-0.168-0.062-0.34-0.109-0.505
		c-0.044-0.151-0.097-0.294-0.161-0.439c-0.087-0.203-0.219-0.383-0.36-0.551c-0.053-0.062-0.115-0.115-0.177-0.167
		c-0.133-0.109-0.268-0.199-0.437-0.242c-0.064-0.012-0.128-0.021-0.194-0.024c-0.004,0-0.009,0-0.015,0
		C21.646,15.72,21.468,15.767,21.403,15.817"/>
</g>
</svg>
