<?xml version="1.0" encoding="utf-8"?>
<!-- Generator: Adobe Illustrator 15.0.0, SVG Export Plug-In . SVG Version: 6.00 Build 0)  -->
<!DOCTYPE svg PUBLIC "-//W3C//DTD SVG 1.1//EN" "http://www.w3.org/Graphics/SVG/1.1/DTD/svg11.dtd">
<svg version="1.1" id="Capa_1" xmlns="http://www.w3.org/2000/svg" xmlns:xlink="http://www.w3.org/1999/xlink" x="0px" y="0px"
	 width="20px" height="20px" viewBox="12.5 12.5 20 20" enable-background="new 12.5 12.5 20 20" xml:space="preserve">
<g>
	<path fill="#00AC32" d="M22.465,21.052c0.141,0.027,0.279,0.058,0.418,0.092c0.002,0.089,0.006,0.178,0.009,0.267
		c-0.077,0.241-0.166,0.48-0.261,0.715c-0.24,0.535-0.522,1.041-0.863,1.515c-0.189,0.225-0.391,0.43-0.611,0.623
		c-0.123,0.086-0.247,0.166-0.377,0.24c-0.215-0.045-0.426-0.1-0.635-0.17c-0.044-0.023-0.088-0.047-0.131-0.072
		c-0.014-0.045-0.027-0.092-0.039-0.139c-0.004-0.137-0.001-0.273,0.008-0.41c0.088-0.451,0.21-0.888,0.367-1.317
		c0.111-0.228,0.236-0.443,0.377-0.651c0.134-0.151,0.273-0.294,0.424-0.43c0.104-0.066,0.209-0.129,0.317-0.188
		c0.11-0.033,0.22-0.062,0.331-0.085C22.023,21.032,22.244,21.037,22.465,21.052 M22.185,16.309
		c-0.604,0.027-1.226,0.133-1.796,0.338c-1.399,0.5-2.507,1.506-3.237,2.791c-0.194,0.332-0.358,0.682-0.499,1.032
		c-0.341,0.851-0.525,1.752-0.581,2.667c-0.026,0.453,0.04,0.895,0.105,1.34c0.069,0.471,0.283,0.916,0.476,1.346
		c0.405,0.904,1.221,1.615,2.068,2.092c0.887,0.5,1.983,0.785,2.997,0.783c1.089-0.002,2.129-0.385,3.092-0.852
		c0.363-0.176,0.695-0.41,1.018-0.654c0.41-0.312,0.801-0.623,1.154-0.998c0.771-0.824,1.291-1.791,1.66-2.848
		c0.186-0.531,0.244-1.133,0.285-1.685c0.033-0.497-0.062-1.026-0.186-1.504c-0.316-1.241-1.242-2.19-2.293-2.855
		c-0.438-0.278-0.951-0.457-1.438-0.626c-0.377-0.131-0.781-0.193-1.172-0.25c-0.471-0.068-0.919-0.123-1.386-0.123
		C22.366,16.302,22.276,16.304,22.185,16.309"/>
	<path fill="#00AC32" d="M16.837,22.056c0,1.954,1.631,3.586,3.586,3.586s3.586-1.633,3.586-3.586c0-1.955-1.631-3.587-3.586-3.587
		S16.837,20.101,16.837,22.056"/>
</g>
</svg>
