<?xml version="1.0" encoding="utf-8"?>
<!-- Generator: Adobe Illustrator 15.0.0, SVG Export Plug-In . SVG Version: 6.00 Build 0)  -->
<!DOCTYPE svg PUBLIC "-//W3C//DTD SVG 1.1//EN" "http://www.w3.org/Graphics/SVG/1.1/DTD/svg11.dtd">
<svg version="1.1" xmlns="http://www.w3.org/2000/svg" xmlns:xlink="http://www.w3.org/1999/xlink" x="0px" y="0px" width="44px"
	 height="44px" viewBox="0 0 44 44" enable-background="new 0 0 44 44" xml:space="preserve">
<g id="Capa_2_1_">
</g>
<g id="Capa_1">
</g>
<g id="Capa_3">
	<g>
		<path fill="#FFFFFF" d="M19.491,11.434c-0.211,0.016-0.422,0.043-0.631,0.069c-0.262,0.033-0.523,0.056-0.783,0.099
			c-0.143,0.024-0.286,0.083-0.417,0.144c-0.135,0.062-0.25,0.141-0.361,0.242c-0.023,0.021-0.042,0.044-0.062,0.068
			c-0.049,0.059-0.095,0.114-0.13,0.18c-0.027,0.051-0.067,0.137-0.078,0.205c-0.026,0.16-0.03,0.223,0.001,0.382
			c0.03,0.167,0.134,0.328,0.259,0.44c0.105,0.095,0.225,0.169,0.354,0.225c0.126,0.054,0.249,0.102,0.378,0.143
			c0.14,0.043,0.283,0.076,0.426,0.109c0.154,0.036,0.31,0.074,0.464,0.11c0.1,0.024,0.204,0.046,0.305,0.075
			c0.023,0.09,0.042,0.182,0.058,0.273c0.021,0.113,0.041,0.226,0.06,0.339c0.038,0.214,0.065,0.43,0.099,0.645
			c0.035,0.218,0.077,0.435,0.119,0.652c0.038,0.2,0.067,0.402,0.103,0.603c0.071,0.406,0.154,0.81,0.226,1.216
			c0.006,0.044,0.012,0.089,0.019,0.134c0.038,0.362,0.071,0.724,0.1,1.086c0.014,0.193,0.029,0.387,0.052,0.58
			c0.023,0.213,0.063,0.425,0.096,0.637c0.006,0.042,0.011,0.083,0.017,0.126c0.104,0.854,0.187,1.712,0.285,2.567
			c0.021,0.167,0.067,0.33,0.104,0.493c0,0.001,0.001,0.001,0.001,0c0.006-0.153,0.007-0.307,0.018-0.46
			c0.005-0.068,0.017-0.137,0.024-0.204c0.011-0.098,0.022-0.195,0.033-0.293c0.023-0.209,0.047-0.419,0.067-0.629
			c0.045-0.429,0.089-0.858,0.111-1.288c0.013-0.224,0.021-0.448,0.019-0.672c-0.002-0.222,0.002-0.441,0.015-0.662
			c0.023-0.428,0.048-0.854,0.05-1.283c0.002-0.426-0.059-0.853-0.1-1.276c-0.022-0.224-0.044-0.448-0.07-0.672
			c-0.03-0.262-0.075-0.521-0.113-0.781c-0.005-0.032-0.009-0.063-0.014-0.095c-0.003-0.023-0.006-0.045-0.009-0.068
			c-0.026-0.212-0.049-0.424-0.077-0.636c-0.021-0.152-0.039-0.305-0.065-0.457c-0.011-0.069-0.021-0.138-0.037-0.208
			c-0.048-0.213-0.141-0.416-0.295-0.572c-0.106-0.108-0.229-0.158-0.366-0.215c-0.047-0.019-0.093-0.033-0.141-0.043
			c-0.057-0.013-0.113-0.024-0.169-0.036c-0.088-0.019-0.175-0.039-0.263-0.058c0.1-0.011,0.201-0.022,0.302-0.03
			c0.213-0.017,0.425-0.02,0.639-0.021c0.433-0.002,0.866-0.005,1.301-0.005c0.433,0,0.867,0.002,1.3,0.004
			c0.431,0.002,0.861,0.002,1.293,0.012c0.236,0.005,0.473,0.019,0.709,0.036c0.204,0.015,0.407,0.03,0.61,0.052
			c0.041,0.007,0.082,0.015,0.123,0.022c-0.021,0.01-0.04,0.02-0.061,0.029c-0.182,0.066-0.364,0.121-0.547,0.18
			c-0.167,0.054-0.329,0.113-0.49,0.185c-0.157,0.068-0.308,0.158-0.427,0.282c-0.177,0.184-0.257,0.43-0.26,0.681
			c-0.002,0.205,0.011,0.411,0.015,0.615c0.003,0.207,0.002,0.413,0.008,0.619c0.012,0.438,0.032,0.876,0.064,1.313
			c0.03,0.43,0.086,0.856,0.125,1.285c0.04,0.453,0.062,0.907,0.094,1.36c0.029,0.435,0.064,0.87,0.103,1.304
			c0.035,0.413,0.074,0.825,0.124,1.237c0.056,0.484,0.131,0.967,0.206,1.448c0.001,0.001,0.001,0.001,0.001,0
			c0.098-0.954,0.183-1.909,0.264-2.864c0.038-0.449,0.071-0.898,0.102-1.348c0.028-0.425,0.059-0.852,0.063-1.278
			c0.006-0.438-0.005-0.875,0.005-1.313c0.011-0.44,0.031-0.88,0.038-1.321c0.002-0.182,0.003-0.364,0.006-0.546
			c0.002-0.123,0.002-0.248,0.008-0.372c0.027-0.015,0.056-0.029,0.085-0.043c0.17-0.065,0.341-0.121,0.513-0.181
			c0.143-0.05,0.282-0.104,0.422-0.164c0.049-0.021,0.097-0.041,0.145-0.064c0.148-0.072,0.274-0.165,0.403-0.268
			c0.131-0.107,0.241-0.247,0.333-0.388c0.063-0.097,0.106-0.214,0.149-0.32c0.057-0.145,0.044-0.297,0.019-0.445
			c-0.016-0.096-0.06-0.189-0.111-0.271c-0.085-0.134-0.175-0.21-0.304-0.301c-0.055-0.039-0.16-0.074-0.208-0.093
			c-0.039-0.016-0.078-0.029-0.12-0.042c-0.134-0.037-0.276-0.054-0.414-0.078c-0.154-0.026-0.311-0.046-0.467-0.063
			c-0.209-0.022-0.42-0.033-0.63-0.047c-0.229-0.016-0.457-0.027-0.687-0.034c-0.432-0.014-0.864-0.011-1.296-0.011
			c-0.863,0-1.727,0.002-2.59-0.002c-0.038,0-0.076,0-0.114,0C19.84,11.417,19.666,11.42,19.491,11.434"/>
		<path fill="#FFFFFF" d="M24.364,23.171c-0.087,0.006-0.173,0.013-0.261,0.022c-0.085,0.01-0.165,0.021-0.242,0.06
			c-0.131,0.062-0.249,0.151-0.372,0.228c-0.001,0,0,0.002,0,0.002c0.146-0.045,0.291-0.101,0.441-0.132
			c0.063-0.007,0.127,0.003,0.19,0.011c0.018,0.002,0.034,0.004,0.051,0.006c0.26,0.037,0.517,0.078,0.771,0.138
			c0.246,0.058,0.481,0.149,0.715,0.245c0.323,0.146,0.636,0.307,0.938,0.492c0.321,0.197,0.646,0.389,0.947,0.615
			c0.154,0.125,0.3,0.264,0.428,0.416c0.082,0.098,0.161,0.195,0.239,0.295c0.062,0.084,0.125,0.168,0.182,0.256
			c0.075,0.115,0.147,0.229,0.218,0.346c0.122,0.203,0.232,0.416,0.328,0.633c0.084,0.215,0.142,0.436,0.178,0.664
			c0.036,0.344,0.016,0.697,0.007,1.045c-0.008,0.268-0.03,0.535-0.054,0.803c0.005-0.033,0.009-0.064,0.014-0.098
			c-0.019,0.137-0.035,0.273-0.06,0.41c-0.031,0.18-0.066,0.357-0.107,0.535c-0.038,0.17-0.091,0.338-0.142,0.506
			c-0.046,0.148-0.108,0.293-0.164,0.439c0.014-0.033,0.026-0.064,0.04-0.098c-0.056,0.135-0.109,0.271-0.176,0.4
			c-0.043,0.084-0.085,0.168-0.128,0.25c-0.092,0.18-0.206,0.35-0.327,0.512c-0.176,0.219-0.371,0.43-0.59,0.607
			c-0.082,0.068-0.165,0.137-0.247,0.203c-0.547,0.402-1.111,0.783-1.733,1.059c-0.421,0.168-0.863,0.277-1.31,0.344
			c-0.344,0.039-0.687,0.047-1.032,0.057c-0.192,0.006-0.385,0.002-0.577,0.002c-0.471-0.004-0.941-0.008-1.412-0.016
			c-0.345-0.006-0.689-0.016-1.034-0.037c-0.209-0.014-0.418-0.029-0.627-0.047c-0.147-0.012-0.295-0.029-0.441-0.047
			c-0.255-0.045-0.511-0.09-0.766-0.135c-0.131-0.025-0.261-0.051-0.391-0.074c-0.298-0.057-0.592-0.143-0.873-0.256
			c-0.22-0.1-0.426-0.223-0.632-0.348c-0.104-0.064-0.203-0.137-0.302-0.207c-0.052-0.041-0.104-0.082-0.15-0.127
			c-0.073-0.07-0.155-0.137-0.225-0.215c-0.151-0.168-0.3-0.336-0.441-0.514c-0.078-0.107-0.147-0.217-0.205-0.336
			c-0.038-0.104-0.063-0.209-0.083-0.314c-0.021-0.225-0.015-0.449-0.014-0.674c0.001-0.16,0.002-0.32,0.006-0.479
			c0.005-0.188,0.012-0.371,0.025-0.557c0.01-0.154,0.027-0.307,0.046-0.459c0.021-0.141,0.042-0.281,0.074-0.418
			c0.045-0.201,0.091-0.4,0.145-0.602c0.096-0.361,0.238-0.703,0.381-1.049c0.027-0.064,0.055-0.129,0.082-0.195
			c0.225-0.527,0.541-1.006,0.881-1.465c0.089-0.107,0.177-0.217,0.269-0.322c0.107-0.123,0.214-0.25,0.332-0.365
			c0.125-0.123,0.25-0.244,0.378-0.365c0.121-0.115,0.251-0.219,0.38-0.324c0.137-0.105,0.274-0.213,0.414-0.312
			c0.178-0.127,0.357-0.248,0.544-0.361c0.147-0.09,0.303-0.168,0.46-0.242c0.276-0.129,0.552-0.26,0.827-0.39
			c0.001-0.001,0-0.001,0-0.001c-0.318,0.06-0.636,0.123-0.953,0.189c-0.201,0.042-0.397,0.103-0.592,0.17
			c-0.422,0.148-0.825,0.357-1.214,0.576c-0.399,0.227-0.772,0.506-1.12,0.805c-0.317,0.27-0.624,0.562-0.884,0.891
			c-0.168,0.213-0.332,0.426-0.479,0.654c-0.117,0.186-0.215,0.385-0.313,0.58c-0.11,0.221-0.211,0.445-0.307,0.674
			c-0.045,0.109-0.089,0.217-0.128,0.326c-0.04,0.111-0.073,0.223-0.105,0.334c-0.056,0.193-0.103,0.395-0.14,0.592
			c-0.049,0.271-0.084,0.545-0.118,0.818c-0.053,0.42-0.063,0.844-0.067,1.266c-0.001,0.115-0.003,0.23-0.002,0.344
			c0.002,0.273,0.023,0.547,0.088,0.814c0.042,0.174,0.116,0.344,0.197,0.506c0.09,0.174,0.218,0.33,0.339,0.482
			c0.09,0.111,0.185,0.221,0.278,0.33c0.028,0.033,0.061,0.064,0.09,0.098c0.037,0.041,0.074,0.086,0.114,0.123
			c0.077,0.072,0.152,0.15,0.233,0.217c0.121,0.096,0.24,0.199,0.366,0.287c0.09,0.062,0.178,0.131,0.271,0.186
			c0.141,0.086,0.279,0.17,0.423,0.248c0.312,0.166,0.651,0.291,0.993,0.385c0.282,0.078,0.574,0.123,0.861,0.172
			c0.487,0.084,0.973,0.164,1.466,0.201c0.437,0.033,0.874,0.057,1.312,0.064c0.429,0.008,0.856,0.01,1.284,0.01
			c0.474-0.002,0.946-0.006,1.42-0.023c0.567-0.023,1.135-0.1,1.684-0.25c0.551-0.15,1.08-0.393,1.564-0.693
			c0.412-0.254,0.817-0.518,1.195-0.82c0.106-0.086,0.216-0.17,0.319-0.258c0.262-0.227,0.486-0.48,0.695-0.754
			c0.141-0.186,0.267-0.381,0.375-0.586c0.051-0.096,0.107-0.191,0.151-0.291c0.193-0.445,0.389-0.893,0.497-1.367
			c0.05-0.217,0.1-0.436,0.131-0.658c0.016-0.119,0.032-0.24,0.049-0.359c0.021-0.158,0.035-0.314,0.05-0.473
			c0.018-0.199,0.024-0.398,0.03-0.598c0.007-0.258,0.017-0.516,0.006-0.771c-0.015-0.348-0.08-0.703-0.207-1.027
			c-0.076-0.197-0.171-0.385-0.269-0.572c-0.099-0.189-0.223-0.363-0.343-0.537c-0.027-0.041-0.059-0.078-0.088-0.117
			c-0.056-0.072-0.11-0.148-0.169-0.217c-0.067-0.078-0.133-0.16-0.204-0.234c-0.077-0.084-0.155-0.166-0.236-0.246
			c-0.087-0.084-0.174-0.162-0.266-0.24c-0.454-0.385-1.007-0.611-1.552-0.836c-0.399-0.163-0.81-0.288-1.233-0.371
			c-0.216-0.041-0.441-0.075-0.662-0.08c-0.043-0.001-0.086-0.001-0.129-0.001C24.71,23.151,24.537,23.158,24.364,23.171"/>
		<path fill="#FFFFFF" d="M19.33,27.672c-0.03,0.004-0.061,0.008-0.091,0.012C19.27,27.68,19.3,27.676,19.33,27.672 M21.337,26.861
			c-0.301,0.014-0.592,0.119-0.838,0.293c-0.087,0.061-0.171,0.127-0.254,0.193c-0.088,0.066-0.177,0.133-0.274,0.184
			c-0.239,0.086-0.5,0.117-0.751,0.154c-0.033,0.004-0.065,0.008-0.099,0.014c-0.101,0.012-0.2,0.025-0.301,0.037
			c-0.166,0.018-0.341,0.023-0.5,0.076c-0.2,0.064-0.393,0.156-0.599,0.209c-0.573,0.145-1.158,0.225-1.743,0.314
			c-0.062,0.01-0.125,0.02-0.188,0.029v0.002c0.364,0.047,0.729,0.098,1.095,0.137c0.155,0.018,0.312,0.033,0.47,0.041
			c0.161,0.008,0.326,0.02,0.487,0.008c0.186-0.016,0.368-0.039,0.552-0.07c0.043-0.004,0.085-0.008,0.13-0.01
			c0.062-0.002,0.125,0.004,0.188,0.008c0.087,0.006,0.176,0.014,0.264,0.02c0.191,0.014,0.385,0.029,0.576,0.029
			c0.103,0,0.204,0,0.307-0.004c0.121-0.008,0.241-0.021,0.359-0.045c0.13-0.025,0.257-0.08,0.371-0.145
			c0.185-0.102,0.359-0.23,0.549-0.322c0.052-0.018,0.103-0.033,0.156-0.045c0.043-0.002,0.087-0.002,0.13,0
			c0.071,0.016,0.141,0.035,0.21,0.059c0.143,0.068,0.278,0.146,0.41,0.236c0.092,0.062,0.184,0.127,0.274,0.191
			c0.075,0.053,0.149,0.109,0.227,0.158c0.046,0.027,0.091,0.057,0.136,0.084c0.143,0.09,0.306,0.154,0.464,0.209
			c0.068,0.023,0.138,0.039,0.208,0.049c0.098,0.014,0.189,0.027,0.286,0.023c0.115-0.004,0.229-0.027,0.342-0.049
			c0.226-0.043,0.427-0.17,0.649-0.223c0.006,0,0.013,0,0.019,0c0.012,0.004,0.023,0.008,0.035,0.012
			c0.129,0.062,0.253,0.135,0.38,0.197c0.151,0.076,0.307,0.141,0.469,0.191c0.115,0.035,0.237,0.051,0.356,0.059
			c0.135,0.01,0.271-0.014,0.403-0.041c0.33-0.064,0.637-0.221,0.933-0.373c0.219-0.113,0.437-0.227,0.653-0.344
			c0.001,0,0-0.002,0-0.002c-0.202,0.037-0.403,0.076-0.605,0.115c-0.208,0.041-0.415,0.086-0.625,0.115
			c-0.192,0.025-0.387,0.035-0.581,0.018c-0.081-0.016-0.159-0.037-0.236-0.068c-0.154-0.072-0.294-0.168-0.43-0.27
			c-0.059-0.049-0.118-0.098-0.176-0.146c-0.04-0.033-0.078-0.066-0.12-0.098c-0.089-0.07-0.161-0.115-0.268-0.154
			c-0.076-0.029-0.155-0.035-0.237-0.047c-0.052-0.006-0.104,0.002-0.157,0.008c-0.079,0.01-0.155,0.02-0.233,0.035
			c-0.037,0.008-0.073,0.016-0.11,0.023c-0.068,0.016-0.139,0.029-0.208,0.043c-0.081,0.006-0.163,0.01-0.244,0.006
			c-0.047-0.01-0.093-0.023-0.138-0.039c-0.146-0.07-0.279-0.158-0.413-0.252c-0.271-0.217-0.548-0.438-0.854-0.602
			c-0.259-0.139-0.553-0.232-0.849-0.232C21.374,26.861,21.355,26.861,21.337,26.861"/>
		<path fill="#FFFFFF" d="M24.538,26.088c0.003,0.002,0.005,0.002,0.008,0.004C24.543,26.09,24.541,26.09,24.538,26.088
			L24.538,26.088 M24.536,26.088L24.536,26.088L24.536,26.088L24.536,26.088L24.536,26.088 M24.539,26.068
			c0,0.004-0.001,0.01-0.002,0.014l0,0C24.538,26.076,24.539,26.072,24.539,26.068 M24.493,26.061
			c0.003,0.002,0.006,0.006,0.009,0.008C24.499,26.066,24.496,26.062,24.493,26.061 M24.275,24.889
			c0.169,0.1,0.344,0.191,0.515,0.287c0.087,0.047,0.171,0.098,0.255,0.15c0.071,0.045,0.144,0.088,0.212,0.137
			c0.022,0.02,0.044,0.041,0.062,0.061c0.016,0.021,0.028,0.045,0.039,0.066c0.004,0.01,0.007,0.02,0.01,0.031
			c-0.005,0.018-0.01,0.035-0.016,0.053c-0.029,0.055-0.064,0.105-0.101,0.156c-0.038,0.043-0.079,0.086-0.124,0.123
			c-0.051,0.037-0.104,0.068-0.159,0.094c-0.05,0.02-0.101,0.035-0.153,0.045c-0.077,0.006-0.155,0.006-0.231-0.002
			c-0.016-0.002-0.029-0.004-0.044-0.008c0.03-0.141,0.098-0.275,0.149-0.408c0.059-0.15,0.113-0.303,0.166-0.453
			c0.001-0.002,0-0.002,0-0.002c-0.157,0.172-0.313,0.344-0.457,0.525c-0.071,0.088-0.142,0.174-0.183,0.281
			c-0.021,0.055-0.04,0.129-0.02,0.188c0.021,0.064,0.051,0.111,0.097,0.16c0.043,0.045,0.105,0.068,0.162,0.092
			c0.056,0.021,0.112,0.035,0.171,0.045c0.064,0.012,0.131,0.021,0.196,0.025c0.077,0.006,0.16-0.012,0.235-0.027
			c0.123-0.025,0.244-0.088,0.344-0.16c0.107-0.078,0.19-0.168,0.261-0.279c0.071-0.115,0.124-0.234,0.14-0.369
			c0.019-0.152-0.052-0.279-0.146-0.393c-0.074-0.09-0.184-0.139-0.287-0.182c-0.102-0.043-0.211-0.072-0.316-0.098
			C24.797,24.961,24.534,24.932,24.275,24.889L24.275,24.889"/>
		<path fill="#FFFFFF" d="M17.991,25.957c0.001,0.008,0.003,0.018,0.004,0.025C17.993,25.975,17.992,25.967,17.991,25.957
			L17.991,25.957 M17.954,25.873c0.003,0.004,0.006,0.01,0.009,0.012C17.96,25.883,17.957,25.879,17.954,25.873 M19.143,25.014
			c-0.025,0.133-0.037,0.27-0.056,0.404c-0.015,0.1-0.033,0.199-0.068,0.293c-0.019,0.043-0.042,0.082-0.069,0.121
			c-0.018,0.018-0.035,0.037-0.055,0.053c-0.032,0.023-0.064,0.041-0.1,0.059c-0.064,0.025-0.131,0.043-0.2,0.055
			c-0.092,0.01-0.183,0.008-0.275-0.002c-0.104-0.016-0.206-0.039-0.305-0.074c0.002-0.004,0.004-0.006,0.006-0.008
			c0.052-0.062,0.111-0.115,0.174-0.166c0.141-0.105,0.292-0.195,0.443-0.283c0.157-0.092,0.312-0.188,0.465-0.285
			c0.001,0,0-0.002,0-0.002c-0.194,0.033-0.387,0.068-0.577,0.109c-0.202,0.041-0.4,0.104-0.582,0.197
			c-0.164,0.084-0.341,0.223-0.38,0.41c-0.025,0.117,0.015,0.229,0.091,0.316c0.077,0.092,0.186,0.137,0.293,0.178
			c0.1,0.037,0.21,0.049,0.314,0.059c0.106,0.01,0.214-0.006,0.318-0.023c0.2-0.035,0.405-0.143,0.535-0.297
			C19.387,25.803,19.219,25.375,19.143,25.014l0.001-0.002C19.144,25.012,19.143,25.012,19.143,25.014"/>
		<path fill="#FFFFFF" d="M20.882,29.193c-0.21,0.145-0.418,0.293-0.618,0.453c-0.21,0.166-0.422,0.361-0.52,0.617
			c-0.021,0.059-0.026,0.127-0.03,0.188c-0.003,0.064,0.013,0.133,0.034,0.191c0.029,0.074,0.066,0.137,0.118,0.199
			c0.048,0.057,0.105,0.1,0.167,0.143c0.109,0.078,0.243,0.129,0.371,0.166c0.144,0.045,0.296,0.07,0.447,0.084
			c0.271,0.027,0.554-0.027,0.789-0.166c0.128-0.074,0.229-0.18,0.32-0.297c0.088-0.115,0.125-0.256,0.106-0.4
			c-0.019-0.127-0.1-0.238-0.189-0.324c-0.091-0.088-0.207-0.143-0.323-0.189c-0.238-0.098-0.505-0.115-0.755-0.168
			c-0.001,0-0.001,0-0.001,0.002c0.203,0.129,0.423,0.232,0.617,0.375c0.065,0.053,0.125,0.107,0.178,0.172
			c0.019,0.027,0.036,0.057,0.052,0.088c0.007,0.02,0.013,0.041,0.018,0.062c0,0.004,0,0.006,0,0.008
			c-0.001,0.008-0.004,0.016-0.006,0.023c-0.006,0.012-0.012,0.02-0.017,0.031c-0.026,0.027-0.055,0.053-0.085,0.078
			c-0.048,0.033-0.098,0.061-0.15,0.086c-0.062,0.023-0.125,0.039-0.19,0.053c-0.14,0.012-0.276-0.002-0.416-0.016
			c-0.16-0.023-0.317-0.057-0.47-0.115c-0.029-0.014-0.059-0.029-0.087-0.047c-0.013-0.01-0.024-0.023-0.037-0.037
			c-0.006-0.01-0.013-0.02-0.019-0.029c-0.001-0.004-0.002-0.008-0.003-0.012c-0.001-0.02-0.001-0.041,0-0.062
			c0.007-0.033,0.018-0.064,0.03-0.096c0.081-0.18,0.191-0.346,0.302-0.508C20.64,29.562,20.763,29.379,20.882,29.193
			C20.883,29.193,20.882,29.193,20.882,29.193L20.882,29.193"/>
		<path fill="#FFFFFF" d="M24.922,10.362c0.001,0.003,0.002,0.006,0.003,0.009C24.924,10.368,24.923,10.365,24.922,10.362
			 M19.061,8.481c-0.217,0.011-0.434,0.024-0.651,0.04c-0.202,0.015-0.405,0.031-0.607,0.048c-0.215,0.018-0.436,0.023-0.643,0.085
			c-0.164,0.049-0.299,0.133-0.43,0.242c-0.066,0.056-0.117,0.134-0.17,0.203c-0.042,0.055-0.076,0.116-0.105,0.178
			c-0.064,0.132-0.103,0.269-0.128,0.414c-0.021,0.134-0.037,0.272-0.041,0.408c-0.004,0.151,0.033,0.305,0.095,0.441
			c0.063,0.14,0.156,0.248,0.278,0.34c0.135,0.102,0.314,0.144,0.479,0.171c0.228,0.038,0.453,0.091,0.681,0.138
			c0.001,0,0.001,0,0.001,0c-0.182-0.101-0.359-0.208-0.548-0.297c-0.106-0.05-0.212-0.101-0.308-0.168
			c-0.039-0.033-0.075-0.068-0.107-0.106c-0.021-0.03-0.037-0.061-0.054-0.093c-0.018-0.047-0.029-0.095-0.037-0.144
			c-0.005-0.059-0.005-0.117,0.001-0.175c0.024-0.132,0.07-0.263,0.121-0.387c0.033-0.072,0.071-0.141,0.116-0.206
			c0.042-0.049,0.089-0.095,0.138-0.138c0.024-0.016,0.05-0.031,0.074-0.044c0.039-0.013,0.077-0.023,0.116-0.03
			c0.169-0.011,0.338,0.012,0.506,0.026c0.099,0.008,0.197,0.017,0.296,0.025c0.188,0.016,0.378,0.031,0.567,0.046
			c0.185,0.015,0.369,0.028,0.554,0.042c0.183,0.014,0.366,0.024,0.548,0.042c0.248,0.045,0.482,0.14,0.718,0.228
			c0.19,0.072,0.378,0.157,0.581,0.186c0.072,0.011,0.143,0.021,0.215,0.025c0.08,0.005,0.172-0.009,0.248-0.023
			c0.125-0.022,0.249-0.074,0.349-0.149c0.072-0.054,0.137-0.104,0.196-0.168c0.021-0.022,0.041-0.044,0.062-0.065
			c0.041,0.023,0.081,0.048,0.12,0.076c0.142,0.119,0.273,0.246,0.407,0.376c0.052,0.05,0.103,0.099,0.156,0.147
			c0.067,0.061,0.141,0.116,0.215,0.17c0.07,0.052,0.149,0.085,0.229,0.119c0.152,0.062,0.329,0.065,0.479,0.002
			c0.068-0.028,0.136-0.059,0.203-0.088c0.159-0.062,0.319-0.116,0.487-0.144c0.07-0.006,0.139-0.006,0.208,0
			c0.053,0.009,0.104,0.021,0.153,0.038c0.024,0.011,0.047,0.023,0.068,0.037c0.008,0.006,0.015,0.013,0.021,0.02
			c0.004,0.006,0.008,0.012,0.011,0.018c0.001,0.001,0.001,0.002,0.001,0.003c0,0.002,0,0.004,0,0.007
			c-0.005,0.024-0.012,0.047-0.021,0.071c-0.021,0.04-0.044,0.076-0.071,0.111c-0.155,0.194-0.32,0.381-0.48,0.571
			c-0.001,0,0,0.001,0,0.001c0.136-0.084,0.27-0.167,0.403-0.253c0.067-0.042,0.131-0.088,0.195-0.134
			c0.061-0.042,0.119-0.086,0.168-0.141c0.102-0.114,0.145-0.253,0.097-0.4c-0.053-0.16-0.206-0.268-0.352-0.336
			c-0.158-0.073-0.323-0.105-0.496-0.115c-0.115-0.007-0.229,0.006-0.343,0.02c-0.134,0.016-0.264,0.042-0.396,0.063
			c-0.004,0-0.007,0-0.011,0c-0.011-0.007-0.021-0.014-0.032-0.021c-0.071-0.062-0.133-0.132-0.191-0.205
			c-0.134-0.179-0.265-0.362-0.415-0.525c-0.189-0.207-0.413-0.416-0.695-0.48c-0.229-0.052-0.47-0.002-0.67,0.116
			c-0.089,0.053-0.166,0.125-0.244,0.193c-0.001,0-0.002,0.001-0.003,0.002c-0.007,0-0.014,0-0.021-0.001
			c-0.177-0.038-0.344-0.113-0.513-0.18c-0.094-0.037-0.188-0.072-0.283-0.105c-0.101-0.035-0.202-0.065-0.305-0.094
			c-0.188-0.052-0.381-0.074-0.576-0.083c-0.056-0.002-0.112-0.003-0.169-0.003C19.359,8.467,19.21,8.475,19.061,8.481"/>
		<path fill="#FFFFFF" d="M17.198,11.188c-0.193,0.239-0.387,0.478-0.564,0.727c-0.084,0.117-0.161,0.24-0.228,0.368
			c-0.075,0.14-0.129,0.292-0.174,0.443c-0.082,0.278-0.111,0.572-0.141,0.859c-0.007,0.057-0.004,0.116-0.006,0.173
			c-0.001,0.044-0.003,0.088-0.002,0.134c0.004,0.115,0.009,0.23,0.017,0.345c0.019,0.219,0.038,0.439,0.062,0.658
			c0.023,0.211,0.051,0.421,0.073,0.632c0.022,0.212,0.028,0.427,0.035,0.64c0.008,0.211,0.016,0.422,0.023,0.634
			c0.001,0.043,0.003,0.086,0.004,0.13c0,0.026,0.001,0.052,0.001,0.079c0.002,0.068,0.015,0.136,0.024,0.203
			c0.014,0.098,0.077,0.178,0.137,0.252c0.114,0.144,0.332,0.182,0.503,0.142c0.056-0.013,0.109-0.034,0.156-0.067
			c0.097-0.069,0.119-0.093,0.188-0.19c0.074-0.105,0.129-0.222,0.181-0.34c0.053-0.124,0.105-0.247,0.154-0.372
			c0.038-0.096,0.068-0.195,0.099-0.293c0.044-0.14,0.063-0.288,0.081-0.432c0.017-0.133,0.022-0.265,0.023-0.398
			c0-0.118-0.007-0.237-0.012-0.355c-0.003-0.096-0.014-0.192-0.021-0.288c-0.018-0.221-0.043-0.44-0.097-0.655
			c-0.042-0.171-0.104-0.334-0.168-0.499c-0.09-0.235-0.176-0.473-0.267-0.708c0-0.001-0.001-0.001-0.001,0
			c0.013,0.274,0.027,0.549,0.051,0.823c0.023,0.262,0.028,0.521-0.005,0.782c-0.022,0.168-0.049,0.337-0.079,0.504
			c-0.021,0.112-0.042,0.224-0.065,0.334c-0.035-0.203-0.09-0.402-0.142-0.601c-0.053-0.203-0.102-0.408-0.15-0.613
			c-0.051-0.216-0.097-0.431-0.129-0.651c-0.001-0.008-0.002-0.015-0.004-0.023c-0.024-0.326-0.047-0.652-0.009-0.978
			c0.035-0.228,0.106-0.449,0.184-0.666C17.019,11.677,17.11,11.434,17.198,11.188C17.199,11.188,17.198,11.188,17.198,11.188
			C17.198,11.188,17.198,11.188,17.198,11.188"/>
	</g>
</g>
</svg>
