<?xml version="1.0" encoding="utf-8"?>
<!-- Generator: Adobe Illustrator 15.0.0, SVG Export Plug-In . SVG Version: 6.00 Build 0)  -->
<!DOCTYPE svg PUBLIC "-//W3C//DTD SVG 1.1//EN" "http://www.w3.org/Graphics/SVG/1.1/DTD/svg11.dtd">
<svg version="1.1" id="Capa_1" xmlns="http://www.w3.org/2000/svg" xmlns:xlink="http://www.w3.org/1999/xlink" x="0px" y="0px"
	 width="44px" height="44px" viewBox="0 0 44 44" enable-background="new 0 0 44 44" xml:space="preserve">
<g>
	<path opacity="0.9753" fill="#292521" d="M25.377,12.625c-0.265,0.005-0.545,0.062-0.79,0.16c-0.145,0.058-0.273,0.115-0.405,0.191
		c-0.158,0.091-0.3,0.214-0.44,0.329c-0.215,0.176-0.384,0.423-0.548,0.644c-0.14,0.188-0.258,0.393-0.369,0.598
		c-0.277,0.505-0.491,1.042-0.819,1.516c-0.124,0.144-0.257,0.276-0.401,0.4c-0.154,0.105-0.314,0.194-0.482,0.274
		c-0.426,0.159-0.867,0.258-1.316,0.327c-0.652,0.078-1.308,0.111-1.961,0.18c-0.375,0.04-0.751,0.075-1.124,0.136
		c-0.194,0.031-0.389,0.063-0.583,0.096c-0.159,0.026-0.316,0.075-0.474,0.113c-0.59,0.145-1.157,0.372-1.736,0.555
		c-0.61,0.193-1.225,0.374-1.835,0.566c-0.727,0.23-1.439,0.482-2.088,0.892c-0.263,0.166-0.506,0.362-0.752,0.552
		c-0.359,0.276-0.746,0.516-1.118,0.774c-0.001,0.001,0,0.003,0.001,0.002c0.402-0.147,0.814-0.279,1.204-0.458
		c0.237-0.109,0.472-0.22,0.711-0.324c0.534-0.215,1.086-0.339,1.653-0.425c0.687-0.078,1.378-0.147,2.062-0.254
		c0.676-0.106,1.347-0.234,2.02-0.358c0.208-0.026,0.417-0.054,0.626-0.062c0.306-0.011,0.61-0.025,0.916-0.021
		c0.582,0.007,1.162,0.029,1.743,0.035c0.513,0.005,1.021-0.002,1.532-0.067c0.453-0.058,0.884-0.135,1.312-0.297
		c0.25-0.094,0.495-0.202,0.724-0.339c0.222-0.133,0.426-0.306,0.62-0.476c0.134-0.118,0.248-0.256,0.358-0.396
		c0.172-0.22,0.329-0.435,0.461-0.681c0.101-0.188,0.184-0.383,0.268-0.578c0.221-0.513,0.431-1.033,0.745-1.496
		c0.054-0.061,0.109-0.118,0.17-0.173c0.041-0.026,0.082-0.051,0.125-0.074c0.055-0.017,0.108-0.032,0.164-0.045
		c0.064,0,0.128,0.002,0.192,0.007c0.272,0.05,0.536,0.126,0.796,0.226c0.588,0.259,1.15,0.571,1.746,0.816
		c0.562,0.23,1.15,0.374,1.757,0.423c0.575,0.046,1.168-0.029,1.73-0.141c0.56-0.111,1.093-0.294,1.602-0.551
		c0.296-0.148,0.57-0.336,0.847-0.517c0.44-0.288,0.869-0.594,1.299-0.896c0.001-0.001,0-0.003-0.002-0.003
		c-0.442,0.156-0.886,0.313-1.327,0.472c-0.554,0.2-1.114,0.385-1.696,0.473c-0.638,0.071-1.277,0.068-1.912-0.008
		c-0.389-0.062-0.757-0.164-1.12-0.308c-0.586-0.262-1.124-0.603-1.669-0.938c-0.273-0.167-0.552-0.325-0.843-0.46
		c-0.479-0.223-1-0.409-1.535-0.409C25.401,12.625,25.39,12.625,25.377,12.625"/>
	<path opacity="0.9753" fill="#292521" d="M21.443,23.655c-0.032,0.024-0.064,0.05-0.097,0.074
		C21.378,23.705,21.411,23.68,21.443,23.655 M31.41,19.378c-0.004,0.012-0.01,0.023-0.014,0.035
		C31.4,19.402,31.406,19.39,31.41,19.378 M34.219,19.109c0.001,0.008,0.003,0.017,0.004,0.025
		C34.221,19.126,34.22,19.117,34.219,19.109 M31.804,17.607c-0.193,0.029-0.381,0.126-0.547,0.224
		c-0.175,0.103-0.336,0.245-0.473,0.394c-0.3,0.325-0.504,0.723-0.707,1.109c-0.229,0.438-0.436,0.89-0.722,1.293
		c-0.127,0.15-0.262,0.29-0.41,0.418c-0.11,0.075-0.224,0.14-0.343,0.199c-0.227,0.081-0.458,0.132-0.695,0.169
		c-0.797,0.083-1.604,0.053-2.404,0.035c-0.681-0.016-1.361-0.071-2.041-0.114c0.021,0.003,0.043,0.006,0.063,0.009
		c-0.352-0.04-0.707-0.047-1.061-0.06c-0.403-0.014-0.797-0.013-1.194,0.081c-0.34,0.081-0.629,0.289-0.898,0.5
		c-0.136,0.107-0.267,0.219-0.4,0.328c-0.297,0.217-0.608,0.4-0.943,0.555c-0.684,0.27-1.394,0.438-2.119,0.56
		c-0.226,0.037-0.454,0.064-0.682,0.094c-0.988,0.111-1.977,0.216-2.967,0.308c-0.48,0.044-0.963,0.057-1.445,0.075
		c-0.242,0.01-0.486-0.005-0.729-0.009c-0.572-0.007-1.144-0.08-1.714-0.122c-0.001,0-0.001,0.002,0,0.003
		c0.651,0.217,1.294,0.442,1.961,0.603c0.325,0.078,0.65,0.137,0.98,0.193c0.628,0.107,1.266,0.164,1.9,0.222
		c0.66,0.061,1.321,0.112,1.982,0.156c1.205,0.08,2.443,0.045,3.605-0.308c0.326-0.099,0.646-0.241,0.947-0.398
		c0.263-0.138,0.497-0.318,0.731-0.498c0.12-0.092,0.24-0.179,0.371-0.253c0.022-0.006,0.044-0.012,0.067-0.018
		c0.363-0.021,0.734,0.016,1.096,0.038c0.291,0.018,0.581,0.035,0.872,0.05c0.688,0.032,1.371,0.042,2.059,0.017
		c0.285-0.011,0.574-0.023,0.858-0.056c0.597-0.066,1.195-0.128,1.774-0.299c0.246-0.073,0.485-0.177,0.714-0.294
		c0.214-0.11,0.403-0.266,0.59-0.416c0.152-0.122,0.277-0.276,0.396-0.429c0.17-0.22,0.318-0.44,0.445-0.687
		c0.234-0.455,0.379-0.962,0.541-1.446c0.061-0.183,0.118-0.366,0.187-0.545c0.076-0.174,0.159-0.343,0.266-0.5
		c0.062-0.073,0.13-0.14,0.201-0.205c0.056-0.038,0.111-0.071,0.172-0.102c0.089-0.03,0.179-0.054,0.272-0.073
		c0.227-0.021,0.455-0.009,0.682,0.018c0.214,0.036,0.422,0.085,0.625,0.159c0.125,0.056,0.244,0.116,0.358,0.191
		c-0.014-0.011-0.027-0.022-0.041-0.033c0.041,0.029,0.079,0.063,0.113,0.101c0.035,0.052,0.064,0.104,0.09,0.161
		c0.017,0.044,0.028,0.088,0.035,0.135c0.004,0.044,0.002,0.089-0.006,0.133c0.001-0.01,0.002-0.02,0.003-0.03
		c-0.014,0.063-0.033,0.125-0.061,0.184c0.003-0.007,0.006-0.014,0.009-0.021c-0.083,0.179-0.17,0.356-0.262,0.53
		c-0.002,0.001,0,0.003,0.002,0.002c0.137-0.139,0.267-0.282,0.394-0.429c0.094-0.108,0.155-0.225,0.183-0.366
		c0.062-0.324-0.107-0.615-0.334-0.827c-0.295-0.277-0.667-0.451-1.045-0.585c-0.199-0.071-0.411-0.117-0.62-0.146
		c-0.086-0.011-0.17-0.017-0.253-0.017C32.09,17.57,31.949,17.585,31.804,17.607"/>
	<path opacity="0.9753" fill="#292521" d="M34.092,24.15c-0.886,0.34-1.768,0.692-2.646,1.055c-0.372,0.154-0.745,0.307-1.121,0.455
		c-0.198,0.077-0.395,0.16-0.595,0.233c-0.518,0.19-1.035,0.343-1.58,0.43c-0.61,0.07-1.223,0.064-1.832-0.007
		c-0.37-0.057-0.734-0.132-1.096-0.222c-0.414-0.103-0.813-0.26-1.218-0.394c-0.397-0.132-0.802-0.249-1.207-0.357
		c-0.417-0.111-0.84-0.186-1.268-0.244c0.025,0.003,0.051,0.007,0.076,0.01c-0.335-0.046-0.675-0.107-1.016-0.092
		c-0.305,0.015-0.623,0.057-0.907,0.173c-0.164,0.066-0.308,0.132-0.454,0.229c-0.141,0.094-0.273,0.206-0.396,0.321
		c-0.235,0.222-0.406,0.512-0.541,0.802c-0.172,0.37-0.272,0.761-0.359,1.157c-0.07,0.319-0.126,0.648-0.235,0.957
		c-0.046,0.096-0.097,0.187-0.156,0.276c-0.046,0.049-0.094,0.096-0.145,0.142c-0.12,0.081-0.243,0.152-0.374,0.216
		c-0.358,0.132-0.736,0.22-1.113,0.277c-0.375,0.039-0.749,0.033-1.124-0.008c-0.48-0.076-0.943-0.213-1.394-0.397
		c-0.535-0.238-1.037-0.535-1.505-0.889c-0.521-0.408-0.977-0.884-1.46-1.335c0-0.002-0.003,0-0.002,0.001
		c0.31,0.462,0.595,0.939,0.93,1.384c0.357,0.474,0.772,0.896,1.232,1.269c0.441,0.358,0.926,0.659,1.447,0.888
		c0.609,0.269,1.257,0.416,1.922,0.448c0.287,0.013,0.574-0.012,0.858-0.044c0.305-0.034,0.605-0.079,0.896-0.179
		c0.273-0.095,0.539-0.227,0.77-0.4c0.135-0.102,0.255-0.198,0.366-0.324c0.131-0.148,0.243-0.313,0.342-0.484
		c0.207-0.357,0.31-0.767,0.416-1.162c0.082-0.31,0.158-0.621,0.266-0.922c0.056-0.117,0.116-0.23,0.187-0.338
		c0.041-0.044,0.083-0.087,0.128-0.127c0.036-0.024,0.073-0.047,0.111-0.068c0.068-0.021,0.137-0.037,0.208-0.051
		c0.237-0.017,0.468,0,0.704,0.027c0.824,0.128,1.627,0.362,2.428,0.591c0.41,0.117,0.817,0.242,1.238,0.317
		c0.466,0.083,0.943,0.132,1.417,0.148c0.476,0.016,0.946-0.035,1.415-0.107c0.428-0.064,0.844-0.178,1.249-0.329
		c0.568-0.211,1.093-0.506,1.604-0.828c1.222-0.768,2.379-1.635,3.535-2.495C34.095,24.151,34.094,24.149,34.092,24.15
		C34.093,24.149,34.093,24.15,34.092,24.15"/>
	<path opacity="0.9753" fill="#292521" d="M20.082,24.039c0.013,0.03,0.025,0.06,0.038,0.089
		C20.107,24.099,20.095,24.069,20.082,24.039 M14.948,12.752c1.117,2.778,2.301,5.531,3.655,8.204
		c0.179,0.354,0.35,0.709,0.522,1.067c0.14,0.293,0.292,0.581,0.439,0.872c0.185,0.365,0.347,0.741,0.506,1.117
		c-0.002-0.006-0.005-0.012-0.007-0.018c0.129,0.307,0.251,0.617,0.367,0.93c0.116,0.313,0.236,0.631,0.333,0.951
		c0.08,0.263,0.16,0.524,0.241,0.786c0.062,0.197,0.131,0.394,0.185,0.593c0.084,0.315,0.17,0.631,0.258,0.944
		c0.117,0.421,0.209,0.849,0.323,1.27c0.072,0.269,0.146,0.535,0.222,0.801c0.079,0.278,0.171,0.551,0.281,0.818
		c0.123,0.298,0.274,0.584,0.419,0.87c0.001,0.001,0.003,0,0.003-0.001c-0.088-0.45-0.214-0.893-0.282-1.347
		c0.002,0.014,0.004,0.027,0.005,0.041c-0.085-0.643-0.142-1.287-0.208-1.932c-0.059-0.574-0.145-1.145-0.233-1.714
		c-0.045-0.291-0.115-0.58-0.173-0.868c-0.087-0.43-0.186-0.854-0.3-1.277c-0.286-1.057-0.691-2.067-1.163-3.052
		c-0.083-0.218-0.2-0.426-0.303-0.633c-0.064-0.128-0.129-0.256-0.194-0.385c-0.12-0.238-0.261-0.467-0.393-0.7
		c-0.298-0.525-0.604-1.046-0.909-1.568c-0.734-1.255-1.493-2.498-2.27-3.728c-0.433-0.687-0.875-1.367-1.323-2.044c0,0,0,0-0.001,0
		C14.949,12.751,14.947,12.751,14.948,12.752"/>
	<path opacity="0.9753" fill="#292521" d="M21.763,11.947c1.622,2.67,3.287,5.313,5,7.926c0.167,0.254,0.337,0.507,0.501,0.764
		c0.124,0.195,0.25,0.391,0.375,0.585c0.09,0.14,0.18,0.28,0.271,0.421c0.1,0.153,0.192,0.313,0.306,0.457
		c0.296,0.453,0.603,0.901,0.886,1.362c0.401,0.65,0.807,1.298,1.215,1.943c0.035,0.056,0.064,0.115,0.097,0.172
		c0.103,0.186,0.206,0.368,0.31,0.553c0.2,0.353,0.399,0.705,0.603,1.058c0.127,0.223,0.239,0.455,0.358,0.682
		c0.101,0.194,0.203,0.386,0.305,0.578c0.046,0.086,0.097,0.171,0.137,0.258c0.16,0.342,0.321,0.683,0.487,1.022
		c0.114,0.29,0.244,0.576,0.341,0.873c0.063,0.194,0.129,0.387,0.195,0.579c0.083,0.24,0.142,0.49,0.214,0.732
		c0.072,0.244,0.15,0.486,0.234,0.726c0.001,0.002,0.003,0.002,0.003,0c-0.037-0.402-0.081-0.803-0.147-1.202
		c-0.04-0.239-0.096-0.474-0.151-0.709c-0.03-0.124-0.055-0.25-0.094-0.371c-0.066-0.204-0.134-0.408-0.202-0.611
		c-0.104-0.302-0.235-0.595-0.36-0.889c-0.102-0.24-0.206-0.479-0.318-0.715c-0.174-0.367-0.35-0.734-0.527-1.099
		c-0.108-0.226-0.232-0.445-0.349-0.666c-0.286-0.54-0.568-1.081-0.884-1.605c-0.238-0.396-0.479-0.793-0.721-1.188
		c-0.135-0.222-0.267-0.449-0.409-0.667c-0.403-0.617-0.807-1.234-1.221-1.846c-0.763-1.129-1.554-2.241-2.345-3.352
		c-1.371-1.923-2.731-3.853-4.104-5.772c0,0-0.001-0.001-0.001-0.001C21.763,11.945,21.762,11.946,21.763,11.947"/>
</g>
</svg>
