<?xml version="1.0" encoding="utf-8"?>
<!-- Generator: Adobe Illustrator 15.0.0, SVG Export Plug-In . SVG Version: 6.00 Build 0)  -->
<!DOCTYPE svg PUBLIC "-//W3C//DTD SVG 1.1//EN" "http://www.w3.org/Graphics/SVG/1.1/DTD/svg11.dtd">
<svg version="1.1" id="Capa_1" xmlns="http://www.w3.org/2000/svg" xmlns:xlink="http://www.w3.org/1999/xlink" x="0px" y="0px"
	 width="44px" height="44px" viewBox="0 0 44 44" enable-background="new 0 0 44 44" xml:space="preserve">
<g>
	<path opacity="0.9753" fill="#FFFFFF" enable-background="new    " d="M30.83,13.368c-0.002,0.005-0.002,0.01-0.002,0.015
		C30.828,13.378,30.828,13.373,30.83,13.368 M18.602,11.479c0.241-0.027,0.479-0.037,0.723-0.046
		c0.277-0.01,0.558-0.032,0.834-0.028c0.371,0.003,0.74,0.006,1.111,0.009c0.568,0.005,1.139,0.02,1.709,0.03
		c0.529,0.012,1.062,0.021,1.59,0.047c0.853,0.042,1.703,0.07,2.551,0.172c0.812,0.12,1.619,0.31,2.387,0.609
		c0.309,0.139,0.609,0.296,0.886,0.492c0.124,0.104,0.242,0.209,0.351,0.328c0.024,0.04,0.049,0.081,0.07,0.123
		c0.006,0.017,0.012,0.033,0.016,0.05c-0.008,0.016-0.018,0.03-0.024,0.045c-0.041,0.044-0.084,0.085-0.128,0.125
		c-0.168,0.112-0.343,0.205-0.525,0.288c-0.488,0.195-0.996,0.34-1.508,0.468c-0.517,0.129-1.043,0.235-1.57,0.312
		c-0.317,0.039-0.637,0.063-0.955,0.083c-0.133-0.007-0.264-0.014-0.396-0.021c-0.544-0.027-1.084-0.074-1.627-0.12
		c-0.521-0.043-1.038-0.096-1.557-0.144c-0.458-0.042-0.915-0.106-1.371-0.161c-0.498-0.075-0.997-0.141-1.49-0.241
		c-0.321-0.065-0.646-0.13-0.968-0.194c-0.298-0.06-0.592-0.141-0.887-0.209c-0.223-0.053-0.443-0.105-0.666-0.16
		c-0.282-0.07-0.57-0.13-0.853-0.208c-0.654-0.182-1.315-0.349-1.962-0.56c0.495-0.194,0.996-0.384,1.508-0.529
		c0.304-0.086,0.608-0.193,0.918-0.255c0.343-0.069,0.686-0.139,1.028-0.207C18.063,11.543,18.332,11.512,18.602,11.479
		 M23.277,9.697c-0.582,0.006-1.164,0.015-1.746,0.022c-0.514,0.007-1.027,0.007-1.539,0.035c-0.368,0.021-0.736,0.042-1.104,0.062
		c-0.28,0.017-0.562,0.068-0.84,0.104c-0.301,0.038-0.602,0.074-0.897,0.133c-0.197,0.039-0.395,0.078-0.593,0.117
		c-0.103,0.021-0.208,0.035-0.309,0.062c-0.629,0.167-1.258,0.331-1.874,0.537c-0.727,0.242-1.461,0.477-2.167,0.772
		c0.051-0.021,0.102-0.043,0.151-0.064c-0.13,0.056-0.264,0.1-0.382,0.178c-0.068,0.053-0.138,0.105-0.206,0.158
		c-0.068,0.084-0.135,0.17-0.197,0.259c-0.009,0.02-0.019,0.039-0.026,0.059c-0.062,0.095-0.102,0.198-0.115,0.307
		c-0.012,0.095-0.024,0.188-0.037,0.279c0.002,0.12,0.021,0.236,0.058,0.349c0.068,0.231,0.166,0.349,0.312,0.534
		c0.051,0.065,0.101,0.119,0.164,0.172c0.115,0.095,0.225,0.179,0.35,0.252c0.093,0.055,0.192,0.096,0.289,0.14
		c0.665,0.301,1.395,0.479,2.113,0.596c0.362,0.059,0.726,0.117,1.088,0.174c0.349,0.055,0.701,0.087,1.051,0.125
		c1.139,0.126,2.279,0.235,3.424,0.245c0.283,0.002,0.568,0.013,0.852,0.005c0.354-0.009,0.71-0.019,1.064-0.027
		c0.039-0.002,0.078-0.003,0.115-0.004c0.181,0.044,0.359,0.09,0.543,0.118c0.621,0.101,1.24,0.202,1.867,0.262
		c0.334,0.03,0.666,0.062,1,0.09c0.816,0.069,1.641,0.037,2.452-0.071c0.854-0.113,1.693-0.284,2.517-0.546
		c0.219-0.07,0.432-0.16,0.642-0.251c0.17-0.075,0.327-0.162,0.479-0.269c0.219-0.15,0.396-0.322,0.543-0.543
		c0.054-0.08,0.097-0.154,0.135-0.243c0.05-0.094,0.087-0.19,0.109-0.293c0.018-0.105,0.03-0.213,0.039-0.319
		c0.014-0.126-0.021-0.301-0.041-0.415c-0.016-0.09-0.035-0.175-0.063-0.263c-0.067-0.213-0.171-0.41-0.302-0.589
		c-0.133-0.183-0.276-0.352-0.438-0.51c-0.185-0.18-0.397-0.334-0.608-0.479c-0.353-0.24-0.742-0.41-1.135-0.571
		s-0.806-0.276-1.219-0.368c-0.891-0.198-1.803-0.27-2.712-0.309c-0.313-0.015-0.63-0.008-0.944-0.013
		c-0.217-0.003-0.434-0.004-0.65-0.004C24.084,9.689,23.682,9.693,23.277,9.697"/>
	<path opacity="0.9753" fill="#FFFFFF" enable-background="new    " d="M32.592,13.958c-0.604,0.59-1.2,1.188-1.784,1.797
		c-0.145,0.151-0.29,0.301-0.435,0.451c-0.205,0.213-0.4,0.438-0.612,0.645c-0.248,0.239-0.493,0.48-0.735,0.725
		c-0.203,0.204-0.434,0.385-0.647,0.576c-0.413,0.371-0.837,0.729-1.251,1.099c-0.418,0.372-0.811,0.77-1.219,1.151
		c-0.43,0.405-0.864,0.811-1.28,1.23c-0.438,0.446-0.854,0.905-1.249,1.391c-0.35,0.431-0.706,0.859-1.023,1.314
		c-0.257,0.367-0.476,0.752-0.693,1.143c0,0.002,0.003,0.004,0.004,0.002c0.361-0.338,0.708-0.69,1.086-1.014
		c0.215-0.182,0.43-0.363,0.645-0.547c0.461-0.389,0.918-0.781,1.381-1.167c0.188-0.146,0.379-0.292,0.566-0.439
		c0.499-0.374,0.991-0.757,1.477-1.149c0.457-0.371,0.898-0.774,1.33-1.176c0.403-0.375,0.797-0.763,1.172-1.165
		c0.185-0.197,0.369-0.392,0.535-0.604c0.14-0.178,0.276-0.356,0.414-0.536c0.073-0.095,0.153-0.188,0.221-0.29
		c0.752-1.113,1.445-2.263,2.104-3.434C32.595,13.958,32.594,13.957,32.592,13.958C32.593,13.957,32.592,13.957,32.592,13.958"/>
	<path opacity="0.9753" fill="#FFFFFF" enable-background="new    " d="M23.562,22.668c0,0.005-0.002,0.011-0.002,0.017
		C23.561,22.679,23.562,22.673,23.562,22.668 M12.562,13.098c0.605,1.198,1.218,2.396,1.924,3.537
		c0.639,1.031,1.316,2.035,1.994,3.04c0.537,0.797,1.047,1.61,1.615,2.384c0.293,0.398,0.59,0.794,0.865,1.204
		c0.24,0.355,0.49,0.705,0.688,1.086c0.006,0.019,0.012,0.035,0.017,0.056c0.013,0.352-0.021,0.7-0.035,1.055
		c-0.013,0.322-0.022,0.644-0.026,0.963c-0.009,0.582,0.006,1.16,0.022,1.742c0.034,1.217,0.276,2.42,0.521,3.61
		c0.062,0.298,0.117,0.595,0.164,0.896c0.012,0.084,0.021,0.168,0.029,0.252c0.018,0.146,0.036,0.283,0.066,0.425
		c0.029,0.145,0.192,0.444,0.311,0.538c0.098,0.076,0.188,0.162,0.298,0.222c0.229,0.125,0.437,0.151,0.691,0.182
		c0.323,0.037,0.649,0.02,0.974,0.01c0.256-0.006,0.533,0.01,0.778-0.072c0.207-0.067,0.323-0.137,0.487-0.281
		c0.086-0.075,0.201-0.211,0.248-0.299c0.062-0.119,0.11-0.241,0.158-0.366c0.057-0.15,0.067-0.335,0.088-0.486
		c0.049-0.383,0.041-0.774,0.021-1.16c-0.063-1.166-0.169-2.329-0.265-3.493c-0.082-0.986-0.166-1.972-0.25-2.957
		c-0.039-0.461-0.072-0.925-0.097-1.388c-0.012-0.223-0.017-0.442-0.026-0.666c-0.024-0.526-0.069-1.05-0.112-1.576
		c0-0.002-0.002-0.002-0.003,0c-0.049,0.368-0.096,0.735-0.145,1.104c0.002,0,0.002,0,0.002,0c-0.082,0.596-0.173,1.19-0.24,1.79
		c-0.065,0.568-0.104,1.143-0.15,1.713c-0.096,1.148-0.189,2.295-0.294,3.441c-0.073,0.801-0.146,1.602-0.245,2.399
		c-0.014,0.086-0.029,0.172-0.047,0.258c-0.041-0.004-0.082-0.008-0.123-0.012c-0.078-0.008-0.157-0.017-0.234-0.024
		c-0.039-0.187-0.065-0.375-0.099-0.56c-0.056-0.32-0.106-0.644-0.158-0.963c-0.005-0.041-0.011-0.082-0.017-0.123
		c-0.016-0.115-0.031-0.232-0.047-0.349c-0.03-0.237-0.066-0.475-0.084-0.713c-0.021-0.309-0.041-0.613-0.045-0.922
		c-0.008-0.602,0.014-1.201,0.023-1.801c0.01-0.553,0.021-1.105,0.027-1.66c0.003-0.299-0.02-0.592-0.069-0.889
		c-0.034-0.211-0.121-0.428-0.235-0.607c-0.102-0.158-0.229-0.293-0.359-0.424c-0.194-0.195-0.383-0.396-0.562-0.604
		c-0.369-0.419-0.729-0.844-1.102-1.258c-0.396-0.439-0.784-0.885-1.164-1.339c-0.739-0.886-1.493-1.757-2.254-2.625
		c-0.562-0.642-1.121-1.288-1.666-1.946c-0.636-0.768-1.241-1.558-1.855-2.342C12.564,13.099,12.564,13.099,12.562,13.098
		C12.562,13.099,12.562,13.097,12.562,13.098"/>
</g>
</svg>
