<?xml version="1.0" encoding="utf-8"?>
<!-- Generator: Adobe Illustrator 15.0.0, SVG Export Plug-In . SVG Version: 6.00 Build 0)  -->
<!DOCTYPE svg PUBLIC "-//W3C//DTD SVG 1.1//EN" "http://www.w3.org/Graphics/SVG/1.1/DTD/svg11.dtd">
<svg version="1.1" id="Capa_1" xmlns="http://www.w3.org/2000/svg" xmlns:xlink="http://www.w3.org/1999/xlink" x="0px" y="0px"
	 width="44px" height="44px" viewBox="0 0 44 44" enable-background="new 0 0 44 44" xml:space="preserve">
<path opacity="0.9753" fill="#292521" d="M22.515,14.484c-0.633,0.094-1.24,0.297-1.858,0.454c-0.001,0-0.001,0.003,0,0.003
	c0.73-0.018,1.458-0.104,2.188-0.019c0.497,0.073,0.985,0.2,1.452,0.387c0.376,0.166,0.728,0.372,1.058,0.616
	c0.221,0.18,0.421,0.377,0.604,0.596c0.089,0.125,0.165,0.253,0.231,0.392c0.055,0.146,0.096,0.292,0.124,0.444
	c0.021,0.263,0.012,0.526-0.017,0.789c-0.087,0.562-0.217,1.111-0.424,1.641c-0.159,0.348-0.354,0.673-0.581,0.98
	c-0.232,0.286-0.485,0.55-0.769,0.785c-0.386,0.281-0.8,0.528-1.234,0.727c-0.305,0.118-0.617,0.209-0.938,0.267
	c-0.417,0.039-0.839,0.02-1.254-0.026c-0.269-0.045-0.533-0.109-0.789-0.202c-0.1-0.05-0.194-0.104-0.287-0.167
	c-0.057-0.049-0.11-0.101-0.162-0.156c-0.034-0.055-0.066-0.111-0.096-0.169c-0.043-0.121-0.077-0.242-0.102-0.368
	c-0.035-0.424-0.017-0.846,0.032-1.268c0.065-0.426,0.166-0.847,0.323-1.248c0.132-0.291,0.278-0.569,0.465-0.827
	c0.185-0.226,0.384-0.433,0.607-0.619c0.208-0.151,0.425-0.273,0.66-0.377c0.548-0.218,1.114-0.363,1.695-0.467
	c0.638-0.114,1.276-0.227,1.914-0.345c0.002,0,0.001-0.002,0-0.002c-0.399-0.021-0.799-0.042-1.198-0.056
	c-0.419-0.013-0.838-0.042-1.258-0.041c-0.377,0.001-0.75,0.046-1.123,0.103c-0.406,0.062-0.791,0.181-1.158,0.362
	c-0.333,0.165-0.633,0.404-0.909,0.65c-0.306,0.273-0.549,0.615-0.768,0.959c-0.22,0.35-0.374,0.739-0.514,1.125
	c-0.145,0.398-0.237,0.822-0.299,1.239c-0.07,0.471-0.111,0.941-0.027,1.413c0.032,0.181,0.078,0.354,0.148,0.524
	c0.053,0.126,0.103,0.244,0.169,0.362c0.076,0.135,0.184,0.255,0.281,0.374c0.134,0.164,0.314,0.297,0.483,0.423
	c0.147,0.11,0.302,0.196,0.469,0.271c0.432,0.196,0.872,0.326,1.34,0.394c0.434,0.063,0.869,0.109,1.307,0.089
	c0.468-0.022,0.938-0.126,1.376-0.287c0.395-0.145,0.767-0.332,1.121-0.556c0.39-0.245,0.764-0.528,1.1-0.844
	c0.236-0.224,0.435-0.485,0.632-0.743c0.169-0.221,0.315-0.457,0.449-0.7c0.288-0.528,0.48-1.1,0.599-1.689
	c0.063-0.318,0.099-0.643,0.124-0.966c0.024-0.288,0.037-0.576,0.018-0.864c-0.02-0.305-0.061-0.615-0.153-0.907
	c-0.107-0.343-0.286-0.661-0.51-0.939c-0.343-0.423-0.811-0.751-1.293-0.996c-0.496-0.25-1.027-0.417-1.575-0.5
	c-0.306-0.046-0.618-0.072-0.93-0.072C23.01,14.431,22.761,14.447,22.515,14.484"/>
<path opacity="0.9753" fill="#292521" d="M23.626,7.477c-0.885,0.117-1.785,0.405-2.424,1.059c-0.297,0.306-0.489,0.686-0.611,1.09
	c-0.059,0.196-0.081,0.404-0.103,0.607c-0.023,0.221-0.02,0.445-0.009,0.666c0.021,0.418,0.084,0.838,0.151,1.25
	c0.042,0.254,0.088,0.508,0.141,0.759c0.196,0.934,0.409,1.864,0.641,2.79c0.001,0.001,0.003,0.001,0.003,0
	c0.031-0.74,0.056-1.482,0.072-2.224c0.02-0.876,0.011-1.757,0.108-2.628c0.039-0.254,0.091-0.505,0.178-0.747
	c0.058-0.123,0.122-0.239,0.199-0.351c0.069-0.077,0.143-0.147,0.22-0.215c0.112-0.076,0.227-0.142,0.35-0.2
	c0.317-0.121,0.643-0.201,0.979-0.254c0.222-0.024,0.439-0.032,0.662-0.014c0.137,0.025,0.271,0.06,0.4,0.106
	c0.151,0.075,0.293,0.162,0.43,0.26c0.211,0.178,0.396,0.378,0.57,0.593c0.252,0.347,0.46,0.727,0.636,1.119
	c0.227,0.566,0.369,1.15,0.464,1.753c0.027,0.245,0.028,0.487,0.004,0.733c-0.055,0.339-0.161,0.664-0.29,0.982
	c-0.315,0.73-0.696,1.431-1.043,2.147c0,0.001,0.002,0.003,0.003,0.001c0.527-0.586,1.062-1.165,1.541-1.793
	c0.231-0.305,0.437-0.645,0.573-1.002c0.153-0.399,0.221-0.813,0.229-1.239c0.015-0.808-0.087-1.625-0.349-2.392
	c-0.265-0.774-0.682-1.535-1.299-2.084c-0.158-0.14-0.33-0.267-0.507-0.381c-0.18-0.117-0.383-0.197-0.581-0.272
	c-0.216-0.083-0.453-0.101-0.678-0.131c-0.087-0.012-0.173-0.017-0.259-0.017C23.896,7.447,23.761,7.459,23.626,7.477"/>
<path opacity="0.9753" fill="#292521" d="M28.726,12.084c-0.195,0.039-0.382,0.118-0.563,0.196
	c-0.165,0.069-0.322,0.148-0.474,0.241c-0.357,0.217-0.654,0.527-0.901,0.861c-0.289,0.39-0.525,0.809-0.755,1.235
	c-0.205,0.382-0.404,0.767-0.601,1.154c0,0.001,0.001,0.002,0.002,0.001c0.309-0.301,0.615-0.604,0.918-0.909
	c0.361-0.363,0.718-0.727,1.116-1.05c0.188-0.142,0.387-0.267,0.602-0.368c0.234-0.09,0.475-0.154,0.722-0.197
	c0.16-0.015,0.319-0.016,0.48-0.003c0.108,0.021,0.212,0.049,0.315,0.086c0.116,0.058,0.224,0.122,0.329,0.196
	c0.125,0.107,0.239,0.223,0.347,0.35c0.119,0.169,0.223,0.345,0.312,0.533c0.207,0.553,0.303,1.142,0.387,1.725
	c0.057,0.445,0.094,0.895,0.05,1.342c-0.034,0.2-0.084,0.393-0.155,0.583c-0.065,0.138-0.143,0.266-0.23,0.391
	c-0.134,0.16-0.281,0.3-0.443,0.433c-0.255,0.188-0.525,0.333-0.815,0.459c-0.74,0.294-1.511,0.501-2.266,0.75
	c-0.001,0-0.001,0.002,0,0.002c0.626-0.003,1.25-0.008,1.873-0.058c0.264-0.021,0.525-0.057,0.783-0.108
	c0.387-0.077,0.75-0.227,1.093-0.42c0.344-0.193,0.645-0.469,0.875-0.789c0.254-0.35,0.418-0.758,0.515-1.178
	c0.093-0.401,0.104-0.822,0.104-1.231c0-0.457-0.053-0.916-0.117-1.367c-0.116-0.827-0.49-1.625-1.104-2.197
	c-0.313-0.293-0.681-0.498-1.085-0.635c-0.209-0.071-0.426-0.1-0.646-0.1C29.168,12.013,28.942,12.042,28.726,12.084"/>
<path opacity="0.9753" fill="#292521" d="M27.515,19.564c-0.813,0.102-1.603,0.369-2.385,0.605c-0.002,0-0.002,0.002,0,0.002
	c0.812,0.03,1.629,0.009,2.438,0.103c0.26,0.041,0.512,0.107,0.757,0.203c0.192,0.091,0.368,0.201,0.539,0.326
	c0.168,0.141,0.32,0.291,0.461,0.459c0.175,0.243,0.321,0.503,0.445,0.776c0.149,0.38,0.255,0.776,0.321,1.179
	c0.021,0.171,0.03,0.34,0.02,0.512c-0.021,0.103-0.047,0.2-0.081,0.3c-0.048,0.097-0.104,0.188-0.166,0.277
	c-0.081,0.092-0.169,0.175-0.263,0.254c-0.153,0.104-0.314,0.19-0.482,0.269c-0.487,0.191-1.003,0.305-1.521,0.381
	c-0.166,0.021-0.331,0.039-0.497,0.051c-0.196,0.014-0.396,0.001-0.592-0.021c-0.259-0.045-0.506-0.116-0.751-0.212
	c-0.347-0.154-0.678-0.353-0.981-0.577c-0.389-0.312-0.723-0.682-1.086-1.021c-0.001-0.001-0.004,0-0.003,0.001
	c0.188,0.335,0.363,0.677,0.565,1.003c0.184,0.294,0.407,0.553,0.651,0.797c0.561,0.561,1.267,0.953,2.057,1.063
	c0.787,0.11,1.606,0.073,2.38-0.104c0.84-0.191,1.655-0.709,2.02-1.513c0.174-0.381,0.247-0.809,0.21-1.227
	c-0.036-0.423-0.14-0.831-0.28-1.23c-0.138-0.393-0.321-0.768-0.554-1.11c-0.12-0.178-0.257-0.345-0.397-0.505
	c-0.159-0.18-0.349-0.325-0.539-0.469c-0.535-0.404-1.196-0.599-1.859-0.599C27.799,19.537,27.656,19.546,27.515,19.564"/>
<path opacity="0.9753" fill="#292521" d="M19.091,21.906c-0.382,0.039-0.761,0.143-1.113,0.291c-0.34,0.143-0.645,0.331-0.924,0.571
	c-0.314,0.271-0.519,0.62-0.674,0.998c-0.076,0.185-0.104,0.385-0.129,0.581c-0.024,0.194-0.034,0.387-0.032,0.583
	c0.006,0.45,0.057,0.898,0.134,1.341c0.072,0.408,0.216,0.786,0.384,1.163c0.182,0.41,0.434,0.768,0.708,1.121
	c0.518,0.67,1.26,1.151,2.068,1.39c0.221,0.064,0.455,0.088,0.682,0.111c0.19,0.02,0.383,0.022,0.575,0.02
	c0.314-0.004,0.625-0.049,0.936-0.091c0.498-0.067,0.989-0.142,1.468-0.297c0.381-0.123,0.749-0.286,1.078-0.517
	c0.337-0.236,0.613-0.532,0.833-0.879c0.189-0.298,0.31-0.658,0.342-1.01c0.036-0.392-0.029-0.762-0.174-1.126
	c-0.268-0.667-0.663-1.278-1.031-1.893c-0.001-0.002-0.004-0.001-0.003,0c0.151,0.671,0.335,1.335,0.439,2.015
	c0.022,0.187,0.028,0.367,0.01,0.554c-0.024,0.133-0.059,0.261-0.104,0.39c-0.062,0.131-0.136,0.254-0.219,0.373
	c-0.103,0.12-0.213,0.23-0.334,0.333c-0.158,0.112-0.324,0.206-0.5,0.288c-0.293,0.108-0.598,0.175-0.905,0.224
	c-0.334,0.038-0.668,0.055-1.005,0.071c-0.424,0.021-0.844,0.02-1.267-0.026c-0.212-0.037-0.415-0.095-0.616-0.171
	c-0.243-0.114-0.471-0.251-0.689-0.408c-0.258-0.214-0.488-0.453-0.7-0.713c-0.217-0.299-0.406-0.614-0.561-0.948
	c-0.202-0.51-0.33-1.049-0.416-1.589c-0.021-0.196-0.028-0.394-0.012-0.591c0.026-0.136,0.062-0.265,0.11-0.395
	c0.071-0.148,0.157-0.287,0.253-0.42c0.144-0.17,0.302-0.324,0.475-0.464c0.302-0.225,0.623-0.398,0.966-0.55
	c0.368-0.139,0.756-0.216,1.134-0.321c0.001-0.001,0.001-0.003,0-0.003c-0.257-0.009-0.516-0.025-0.773-0.025
	C19.366,21.888,19.229,21.893,19.091,21.906"/>
<path opacity="0.9753" fill="#292521" d="M14.583,16.168c-0.805,0.029-1.625,0.202-2.317,0.631c-0.174,0.107-0.336,0.24-0.489,0.375
	c-0.158,0.14-0.286,0.317-0.408,0.487c-0.128,0.176-0.209,0.39-0.272,0.597c-0.086,0.281-0.081,0.576-0.04,0.863
	c0.118,0.813,0.539,1.547,1.11,2.127c1.189,1.205,2.996,1.436,4.608,1.312c0.612-0.047,1.223-0.118,1.834-0.189
	c0,0,0.001-0.003,0-0.003c-1.308-0.259-2.641-0.419-3.884-0.923c-0.356-0.156-0.694-0.33-1.008-0.559
	c-0.238-0.196-0.452-0.411-0.647-0.649c-0.14-0.194-0.262-0.396-0.364-0.613c-0.086-0.227-0.151-0.457-0.193-0.695
	c-0.005-0.067-0.007-0.133-0.004-0.2c0.013-0.063,0.03-0.124,0.049-0.185c0.043-0.083,0.091-0.163,0.144-0.24
	c0.109-0.128,0.228-0.243,0.357-0.352c0.201-0.143,0.414-0.263,0.639-0.366c0.557-0.22,1.143-0.348,1.733-0.439
	c0.393-0.044,0.78-0.037,1.172,0.01c0.449,0.068,0.879,0.185,1.299,0.355c0.144,0.065,0.27,0.152,0.394,0.248
	c0.181,0.145,0.355,0.297,0.539,0.439c0.001,0.001,0.003,0,0.002-0.001c-0.18-0.271-0.344-0.55-0.55-0.803
	c-0.139-0.169-0.334-0.291-0.511-0.418c-0.256-0.184-0.557-0.325-0.847-0.444c-0.351-0.144-0.708-0.253-1.082-0.312
	c-0.293-0.046-0.589-0.062-0.884-0.062C14.837,16.161,14.71,16.164,14.583,16.168"/>
<path opacity="0.9753" fill="#292521" d="M17.61,11.255c-0.434,0.001-0.871,0.066-1.292,0.164c-0.453,0.106-0.878,0.324-1.224,0.634
	c-0.335,0.301-0.523,0.75-0.563,1.191c-0.037,0.408,0.071,0.83,0.198,1.215c0.256,0.778,0.728,1.492,1.306,2.069
	c0.551,0.55,1.213,0.949,1.879,1.341c0.28,0.165,0.562,0.325,0.847,0.483c0,0,0.002-0.001,0.001-0.001
	c-0.286-0.31-0.573-0.619-0.862-0.924c-0.296-0.313-0.59-0.625-0.858-0.962c-0.331-0.437-0.606-0.9-0.83-1.401
	c-0.142-0.354-0.246-0.716-0.307-1.093c-0.017-0.164-0.024-0.325-0.015-0.49c0.01-0.046,0.022-0.091,0.037-0.136
	c0.02-0.038,0.04-0.074,0.063-0.109c0.031-0.033,0.062-0.063,0.095-0.094c0.07-0.046,0.141-0.086,0.216-0.123
	c0.319-0.118,0.656-0.184,0.993-0.234c0.433-0.05,0.865-0.065,1.299-0.021c0.312,0.054,0.613,0.147,0.907,0.265
	c0.327,0.147,0.638,0.323,0.927,0.535c0.158,0.129,0.302,0.268,0.434,0.425c0.14,0.195,0.256,0.404,0.354,0.624
	c0.092,0.24,0.16,0.485,0.216,0.736c0.045,0.205,0.092,0.408,0.122,0.615c0.047,0.44,0.057,0.883,0.089,1.325
	c0,0.001,0.001,0.002,0.002,0c0.098-0.395,0.209-0.787,0.284-1.187c0.049-0.257,0.062-0.518,0.072-0.779
	c0.009-0.252,0.006-0.502-0.025-0.754c-0.049-0.391-0.162-0.757-0.334-1.111c-0.152-0.311-0.388-0.584-0.63-0.828
	c-0.294-0.295-0.645-0.545-1.002-0.757c-0.344-0.205-0.726-0.366-1.112-0.471c-0.408-0.111-0.843-0.147-1.264-0.147
	C17.624,11.255,17.617,11.255,17.61,11.255"/>
<path opacity="0.9753" fill="#292521" d="M17.946,23.734c-0.387,0.028-0.773,0.088-1.145,0.203c-0.348,0.107-0.641,0.314-0.92,0.542
	c-0.312,0.254-0.563,0.562-0.805,0.882c-1.027,1.351-1.358,3.074-1.455,4.731c-0.027,0.443,0.01,0.89,0.084,1.328
	c0.076,0.449,0.274,0.895,0.502,1.286c0.21,0.362,0.494,0.687,0.771,0.998c0.274,0.31,0.587,0.584,0.9,0.854
	c0.432,0.373,0.894,0.711,1.362,1.036c0.225,0.155,0.447,0.314,0.679,0.461c0.589,0.374,1.184,0.733,1.802,1.059
	c0.268,0.142,0.543,0.269,0.816,0.399c0.182,0.089,0.364,0.179,0.551,0.258c0.456,0.19,0.922,0.353,1.387,0.52
	c0.001,0.001,0.002-0.002,0.001-0.003c-0.431-0.313-0.875-0.61-1.305-0.926c-0.306-0.242-0.613-0.481-0.924-0.717
	c-0.269-0.22-0.537-0.439-0.799-0.665c-0.285-0.247-0.564-0.499-0.844-0.751c-0.268-0.239-0.522-0.492-0.784-0.737
	c-0.589-0.552-1.158-1.138-1.663-1.769c-0.262-0.346-0.506-0.699-0.689-1.094c-0.096-0.247-0.173-0.497-0.219-0.759
	c-0.046-0.432-0.046-0.862-0.031-1.297c0.018-0.468,0.042-0.934,0.098-1.398c0.099-0.67,0.272-1.321,0.525-1.95
	c0.184-0.419,0.401-0.82,0.673-1.189c0.127-0.158,0.262-0.307,0.418-0.437c0.248-0.174,0.521-0.31,0.798-0.429
	c0.441-0.178,0.889-0.339,1.332-0.513c0.002,0,0.002-0.002,0-0.002C18.691,23.68,18.319,23.707,17.946,23.734"/>
<path opacity="0.9753" fill="#292521" d="M30.667,29.554c0.002-0.005,0.005-0.011,0.007-0.016
	C30.672,29.543,30.669,29.549,30.667,29.554 M30.891,29.041c-0.076,0.164-0.146,0.33-0.217,0.497c0-0.001,0.001-0.003,0.002-0.005
	c-0.124,0.291-0.253,0.566-0.44,0.817c-0.235,0.29-0.502,0.547-0.793,0.779c-0.384,0.286-0.794,0.53-1.23,0.724
	c-0.388,0.155-0.784,0.266-1.197,0.331c-0.839,0.094-1.69,0.006-2.532-0.018c-0.587-0.016-1.174-0.024-1.761-0.04
	c-0.281-0.008-0.561-0.008-0.842-0.004c-0.298,0.003-0.592,0.033-0.889,0.063c-0.273,0.028-0.546,0.071-0.814,0.127
	c-0.419,0.086-0.816,0.227-1.205,0.403c-0.354,0.16-0.685,0.363-1.01,0.573c-0.344,0.222-0.683,0.448-1.021,0.678
	c-0.001,0.001-0.001,0.004,0,0.003c0.87-0.236,1.732-0.533,2.625-0.666c0.569-0.064,1.138-0.047,1.708-0.015
	c0.302,0.018,0.597,0.05,0.897,0.082c0.575,0.063,1.148,0.135,1.726,0.178c0.555,0.042,1.112,0.043,1.667,0.033
	c0.797-0.013,1.594-0.112,2.332-0.424c0.76-0.319,1.421-0.816,1.966-1.433c0.327-0.371,0.604-0.795,0.788-1.255
	c0.18-0.452,0.188-0.952,0.243-1.431C30.894,29.04,30.893,29.04,30.891,29.041C30.892,29.04,30.892,29.04,30.891,29.041"/>
<path opacity="0.9753" fill="#292521" d="M30.815,29.344c-0.077,0.396-0.15,0.793-0.22,1.189c-0.076,0.431-0.164,0.865-0.322,1.273
	c-0.142,0.318-0.32,0.61-0.527,0.89c-0.301,0.371-0.649,0.694-1.023,0.991c-0.396,0.295-0.813,0.559-1.264,0.763
	c-0.478,0.186-0.971,0.294-1.477,0.367c-0.287,0.036-0.576,0.065-0.864,0.086c-0.177,0.013-0.353,0.025-0.528,0.04
	c-0.412,0.034-0.829,0.022-1.24-0.025c-0.521-0.081-1.022-0.232-1.511-0.432c-0.229-0.093-0.458-0.185-0.686-0.279
	c-0.759-0.313-1.539-0.581-2.315-0.846c-0.001,0-0.002,0.002-0.001,0.003c0.747,0.553,1.507,1.088,2.264,1.627
	c0.332,0.236,0.674,0.462,1.035,0.652c0.737,0.389,1.537,0.567,2.364,0.62c0.805,0.053,1.64,0.018,2.428-0.146
	c0.398-0.083,0.779-0.234,1.145-0.409c0.377-0.179,0.716-0.436,1.039-0.697c0.606-0.489,1.139-1.117,1.491-1.813
	c0.306-0.603,0.45-1.244,0.431-1.919c-0.019-0.647-0.126-1.293-0.215-1.935C30.817,29.344,30.816,29.344,30.815,29.344
	L30.815,29.344"/>
<path opacity="0.9753" fill="#292521" d="M29.906,29.874c-0.504,0.185-1.003,0.384-1.501,0.583c-0.49,0.194-0.991,0.368-1.515,0.45
	c-0.608,0.075-1.225,0.082-1.835,0.013c-0.436-0.065-0.867-0.149-1.303-0.208c-0.471-0.064-0.946-0.093-1.421-0.079
	c-0.652,0.019-1.266,0.218-1.856,0.477c-0.362,0.157-0.699,0.366-0.955,0.67c-0.312,0.368-0.476,0.852-0.685,1.279
	c-0.001,0.002,0.001,0.003,0.001,0.002c0.309-0.302,0.584-0.635,0.917-0.911c0.109-0.08,0.225-0.146,0.348-0.204
	c0.39-0.149,0.797-0.215,1.209-0.276c0.422-0.044,0.834-0.036,1.256,0.011c0.3,0.043,0.601,0.082,0.898,0.141
	c0.436,0.086,0.875,0.159,1.315,0.21c0.481,0.055,0.958,0.018,1.436-0.052c0.456-0.065,0.893-0.195,1.314-0.379
	c0.433-0.188,0.829-0.479,1.199-0.767c0.399-0.311,0.79-0.632,1.178-0.957C29.908,29.875,29.907,29.874,29.906,29.874L29.906,29.874
	"/>
</svg>
