<?xml version="1.0" encoding="utf-8"?>
<!-- Generator: Adobe Illustrator 15.0.0, SVG Export Plug-In . SVG Version: 6.00 Build 0)  -->
<!DOCTYPE svg PUBLIC "-//W3C//DTD SVG 1.1//EN" "http://www.w3.org/Graphics/SVG/1.1/DTD/svg11.dtd">
<svg version="1.1" id="Capa_1" xmlns="http://www.w3.org/2000/svg" xmlns:xlink="http://www.w3.org/1999/xlink" x="0px" y="0px"
	 width="45px" height="45px" viewBox="-0.5 -0.5 45 45" enable-background="new -0.5 -0.5 45 45" xml:space="preserve">
<g>
	<path fill="#292521" d="M35.322,15.833c-0.289,1.646-0.43,3.318-0.537,4.986c-0.05,0.758-0.082,1.518-0.099,2.276
		c-0.017,0.814,0.008,1.632,0.049,2.445c0.036,0.717,0.106,1.43,0.18,2.143c0.024,0.23,0.051,0.461,0.078,0.69
		c0.017,0.14,0.039,0.278,0.05,0.418c0.034,0.438,0.078,0.874,0.119,1.312c0.02,0.207,0.038,0.414,0.059,0.62
		c0,0.001,0.002,0.001,0.002,0c0.136-0.551,0.256-1.102,0.364-1.658c0.076-0.394,0.118-0.79,0.162-1.188
		c0.083-0.733,0.131-1.474,0.163-2.212c0.033-0.764,0.058-1.527,0.052-2.292c-0.005-0.763-0.042-1.526-0.086-2.287
		c-0.092-1.543-0.224-3.086-0.45-4.616c-0.031-0.213-0.066-0.426-0.104-0.638C35.324,15.833,35.324,15.833,35.322,15.833
		C35.323,15.833,35.322,15.833,35.322,15.833"/>
	<path fill="#292521" d="M24.669,30.387c-0.023,0.003-0.048,0.006-0.071,0.01C24.621,30.393,24.646,30.39,24.669,30.387
		 M20.34,15.089c-0.378,0.004-0.757,0.003-1.135,0.025c-0.401,0.022-0.804,0.045-1.205,0.074c-0.772,0.058-1.545,0.114-2.315,0.183
		c-0.752,0.066-1.501,0.132-2.256,0.156c-0.386,0.012-0.772,0.022-1.158,0.021c-0.133,0-0.265,0.001-0.396,0.001
		c-0.247,0.001-0.496,0.002-0.743-0.003c-0.19-0.005-0.381-0.008-0.57-0.022c-0.184-0.014-0.366-0.04-0.55-0.055
		c-0.094-0.007-0.186-0.007-0.279,0c-0.253,0.02-0.48,0.06-0.696,0.203c-0.234,0.157-0.426,0.368-0.547,0.624
		c-0.234,0.502-0.33,1.043-0.375,1.593c-0.031,0.382-0.065,0.766-0.071,1.149c-0.005,0.416-0.008,0.831-0.006,1.248
		c0.004,0.75,0.018,1.501,0.038,2.252c0.01,0.386,0.033,0.771,0.054,1.157c0.012,0.204,0.04,0.407,0.059,0.611
		c0.023,0.24,0.06,0.479,0.093,0.719c0.065,0.468,0.132,0.933,0.197,1.4c0.101,0.762,0.202,1.522,0.317,2.282
		c0.058,0.376,0.134,0.749,0.205,1.123c0.015,0.079,0.027,0.157,0.04,0.236c0.012,0.076,0.026,0.15,0.048,0.224
		c0.035,0.116,0.086,0.23,0.149,0.334c0.124,0.201,0.257,0.304,0.446,0.441c0.08,0.057,0.303,0.137,0.339,0.149
		c0.052,0.019,0.103,0.033,0.156,0.046c0.188,0.045,0.385,0.062,0.578,0.082c0.121,0.013,0.243,0.016,0.365,0.021
		c0.383,0.02,0.766,0.012,1.148,0.008c0.347-0.005,0.691-0.011,1.037-0.019c0.773-0.018,1.547-0.033,2.317-0.084
		c0.797-0.051,1.593-0.108,2.388-0.171c0.707-0.055,1.412-0.144,2.119-0.199c1.451-0.115,2.895-0.293,4.337-0.488
		c0.352-0.038,0.701-0.084,1.054-0.114c0.41-0.037,0.82-0.075,1.229-0.115c0.773-0.074,1.547-0.15,2.32-0.222
		c0.774-0.071,1.552-0.121,2.327-0.185c0.74-0.058,1.483-0.118,2.224-0.185c0.222-0.021,0.444-0.041,0.666-0.062
		c0.128-0.013,0.256-0.025,0.384-0.038c0.268-0.026,0.535-0.026,0.804-0.039c0.001,0,0.001-0.002,0-0.002
		c-0.318-0.064-0.633-0.123-0.956-0.155c-0.208-0.021-0.416-0.04-0.624-0.059c-0.359-0.034-0.719-0.065-1.079-0.096
		c-0.746-0.064-1.494-0.122-2.24-0.174c-0.797-0.057-1.593-0.1-2.39-0.131c-0.734-0.029-1.473-0.024-2.207-0.026
		c-0.42-0.001-0.838,0.006-1.256,0.021c-0.376,0.014-0.75,0.04-1.125,0.066c-0.746,0.052-1.492,0.101-2.237,0.165
		c-0.755,0.063-1.511,0.112-2.266,0.168c-0.361,0.027-0.723,0.058-1.084,0.077c-0.416,0.021-0.832,0.039-1.249,0.055
		c-0.72,0.026-1.441,0.048-2.162,0.038c-0.777-0.012-1.554-0.03-2.331-0.062c-0.448-0.018-0.899-0.029-1.347-0.075
		c-0.016-0.056-0.031-0.111-0.047-0.167c-0.049-0.171-0.1-0.342-0.146-0.514c-0.104-0.381-0.188-0.765-0.268-1.151
		c-0.15-0.728-0.263-1.468-0.364-2.203c-0.009-0.062-0.018-0.123-0.026-0.185c-0.022-0.186-0.044-0.37-0.067-0.558
		c-0.022-0.188-0.027-0.38-0.041-0.568c-0.011-0.157-0.017-0.311-0.021-0.468c-0.005-0.196-0.018-0.394-0.015-0.59
		c0.013-0.803,0.031-1.605,0.055-2.407c0.022-0.805,0.088-1.606,0.187-2.405c0.034-0.193,0.076-0.384,0.132-0.571
		c0.111-0.018,0.224-0.031,0.334-0.045c-0.065,0.009-0.13,0.018-0.195,0.026c0.753-0.094,1.513-0.141,2.27-0.193
		c0.735-0.05,1.473-0.104,2.204-0.188c0.817-0.093,1.634-0.177,2.452-0.247c0.343-0.029,0.686-0.063,1.028-0.083
		c0.36-0.021,0.721-0.053,1.082-0.057c1.543-0.02,3.087-0.022,4.63-0.06c1.525-0.038,3.05-0.102,4.572-0.195
		c0.801-0.049,1.601-0.105,2.399-0.16c0.399-0.027,0.797-0.047,1.197-0.068c0.382-0.021,0.764-0.027,1.146-0.039
		c0.347-0.01,0.693-0.021,1.039-0.031c0,0,0-0.001,0-0.002c-0.553-0.118-1.106-0.23-1.662-0.337
		c-0.362-0.071-0.729-0.122-1.094-0.177c-0.73-0.11-1.472-0.171-2.208-0.229c-1.539-0.119-3.082-0.186-4.625-0.236
		c-0.771-0.025-1.545-0.037-2.318-0.051c-0.568-0.011-1.138-0.021-1.707-0.021C20.676,15.086,20.508,15.087,20.34,15.089"/>
	<path fill="#292521" d="M14.549,19.241c0.051,0.008,0.101,0.017,0.149,0.027c0.127,0.062,0.249,0.133,0.364,0.216
		c0.071,0.062,0.137,0.127,0.197,0.199c0.051,0.072,0.095,0.147,0.133,0.226c0.036,0.103,0.063,0.205,0.083,0.312
		c0.008,0.104,0.008,0.207,0,0.311c-0.03,0.167-0.073,0.332-0.133,0.491c-0.034,0.07-0.072,0.136-0.116,0.201
		c-0.023,0.026-0.048,0.051-0.073,0.075c-0.052,0.034-0.105,0.064-0.161,0.091c-0.102,0.036-0.205,0.062-0.311,0.083
		c-0.228,0.02-0.45,0.013-0.678-0.01c-0.16-0.026-0.316-0.065-0.469-0.12c-0.075-0.037-0.147-0.077-0.217-0.123
		c-0.016-0.015-0.032-0.031-0.049-0.047c-0.015-0.024-0.029-0.049-0.043-0.075c-0.007-0.023-0.014-0.047-0.019-0.072
		c-0.01-0.146-0.002-0.29,0.015-0.436c0.033-0.208,0.083-0.412,0.158-0.609c0.05-0.104,0.104-0.201,0.17-0.295
		c0.069-0.083,0.145-0.159,0.228-0.229c0.079-0.055,0.16-0.102,0.246-0.145c0.089-0.033,0.179-0.061,0.271-0.079
		C14.381,19.23,14.464,19.232,14.549,19.241 M14.189,18.553c-0.303,0.027-0.589,0.133-0.84,0.3
		c-0.094,0.045-0.185,0.098-0.269,0.159c-0.197,0.14-0.36,0.312-0.495,0.505c-0.011,0.009-0.021,0.018-0.03,0.026
		c-0.001,0,0,0.001,0,0.001c0.005-0.001,0.01-0.003,0.015-0.006c-0.182,0.264-0.312,0.564-0.407,0.873
		c-0.08,0.259-0.137,0.541-0.117,0.813c0.025,0.35,0.177,0.66,0.411,0.917c0.101,0.11,0.231,0.197,0.353,0.282
		c0.126,0.086,0.267,0.144,0.407,0.201c0.295,0.121,0.597,0.167,0.911,0.204c0.569,0.069,1.183-0.042,1.66-0.369
		c0.257-0.176,0.458-0.404,0.593-0.686c0.149-0.314,0.208-0.641,0.235-0.987c0.046-0.579-0.167-1.15-0.545-1.582
		c-0.231-0.265-0.56-0.431-0.887-0.54c-0.17-0.056-0.346-0.081-0.522-0.102c-0.094-0.011-0.188-0.018-0.283-0.018
		C14.315,18.544,14.252,18.547,14.189,18.553"/>
	<path fill="#292521" d="M25.744,18.046c0.667,0.097,1.323,0.265,1.948,0.518c0.368,0.163,0.719,0.358,1.044,0.597
		c0.225,0.184,0.429,0.386,0.611,0.611c0.166,0.229,0.307,0.471,0.426,0.727c0.095,0.251,0.165,0.509,0.21,0.774
		c0.034,0.36,0.021,0.725-0.019,1.084c-0.063,0.408-0.155,0.812-0.301,1.199c-0.13,0.279-0.287,0.543-0.469,0.793
		c-0.249,0.306-0.527,0.583-0.832,0.832c-0.295,0.216-0.608,0.4-0.94,0.552c-0.289,0.11-0.586,0.19-0.89,0.242
		c-0.348,0.033-0.699,0.031-1.048,0.019c-0.338-0.012-0.678-0.037-1.014-0.078c-0.295-0.045-0.587-0.104-0.874-0.182
		c-0.299-0.08-0.59-0.187-0.876-0.303c-0.416-0.183-0.813-0.4-1.182-0.666c-0.171-0.142-0.328-0.296-0.471-0.465
		c-0.091-0.131-0.17-0.268-0.239-0.411c-0.075-0.202-0.131-0.409-0.169-0.622c-0.037-0.394-0.018-0.795,0.028-1.188
		c0.056-0.357,0.148-0.702,0.28-1.04c0.169-0.372,0.377-0.718,0.621-1.045c0.331-0.416,0.692-0.794,1.106-1.127
		c0.371-0.278,0.768-0.516,1.191-0.705c0.139-0.056,0.277-0.105,0.418-0.149c0.024-0.004,0.048-0.007,0.071-0.01
		C24.835,17.951,25.288,17.988,25.744,18.046 M23.823,17.183c-0.551,0.11-1.077,0.331-1.568,0.596
		c-0.493,0.266-0.946,0.618-1.35,1.005c-0.41,0.395-0.778,0.834-1.081,1.317c-0.132,0.211-0.244,0.434-0.342,0.663
		c-0.125,0.291-0.232,0.581-0.306,0.89c-0.07,0.295-0.114,0.595-0.152,0.896c-0.036,0.279-0.058,0.565-0.042,0.848
		c0.035,0.626,0.21,1.263,0.551,1.793c0.348,0.543,0.837,0.96,1.372,1.31c0.495,0.323,1.056,0.556,1.608,0.761
		c0.501,0.184,1.022,0.306,1.554,0.379c0.605,0.082,1.216,0.13,1.829,0.122c0.603-0.006,1.204-0.074,1.779-0.263
		c0.555-0.182,1.084-0.455,1.557-0.797c0.468-0.336,0.889-0.722,1.25-1.169c0.197-0.243,0.381-0.492,0.535-0.764
		c0.16-0.282,0.289-0.586,0.388-0.895c0.076-0.239,0.129-0.488,0.171-0.736c0.056-0.337,0.094-0.68,0.104-1.021
		c0.009-0.32-0.023-0.643-0.072-0.959c-0.041-0.272-0.115-0.534-0.215-0.791c-0.11-0.283-0.239-0.552-0.402-0.808
		c-0.162-0.254-0.354-0.492-0.562-0.711c-0.79-0.834-1.892-1.286-3.01-1.463c-0.439-0.069-0.885-0.104-1.33-0.102
		c-0.185-0.055-0.372-0.101-0.562-0.134c-0.25-0.044-0.501-0.065-0.751-0.065C24.458,17.085,24.14,17.119,23.823,17.183"/>
	<path fill="#292521" d="M11.193,15.344c0.001,0.008,0.003,0.016,0.003,0.023C11.196,15.36,11.194,15.352,11.193,15.344
		 M15.469,13.733c0.001,0.001,0.003,0.004,0.005,0.005C15.472,13.737,15.47,13.735,15.469,13.733 M15.4,13.671
		c0.005,0.004,0.011,0.007,0.016,0.011c0,0.001,0,0.001,0,0.002C15.411,13.679,15.405,13.675,15.4,13.671 M11.469,13.649
		c-0.007,0.008-0.013,0.016-0.019,0.024C11.456,13.665,11.462,13.657,11.469,13.649 M11.466,13.636
		c-0.009,0.007-0.018,0.014-0.026,0.021C11.447,13.649,11.456,13.643,11.466,13.636C11.466,13.636,11.466,13.636,11.466,13.636
		 M11.523,13.605c-0.008,0.003-0.017,0.007-0.024,0.011C11.507,13.612,11.515,13.609,11.523,13.605 M13.32,12.633
		c-0.323,0.015-0.646,0.036-0.97,0.058c-0.177,0.012-0.353,0.026-0.528,0.04c-0.181,0.014-0.365,0.022-0.541,0.068
		c-0.291,0.075-0.466,0.309-0.552,0.583c-0.068,0.223-0.075,0.476-0.07,0.708c0,0.085,0.009,0.17,0.015,0.255
		c0.011,0.17,0.039,0.349,0.076,0.516c0.034,0.161,0.076,0.314,0.139,0.466c0.029,0.072,0.065,0.141,0.105,0.208
		c0.106,0.179,0.195,0.368,0.29,0.553c0.001,0.001,0.002,0,0.002,0c-0.015-0.179-0.027-0.357-0.052-0.536
		c-0.01-0.074-0.028-0.148-0.043-0.221c0.001,0.002,0.001,0.005,0.002,0.007c-0.005-0.031-0.009-0.062-0.013-0.092
		c0.002,0.013,0.004,0.026,0.005,0.04c-0.018-0.223,0.002-0.44,0.026-0.661c0.049-0.297,0.104-0.593,0.215-0.875
		c0.018-0.04,0.037-0.078,0.06-0.115c0.178-0.009,0.359,0.014,0.536,0.026c0.147,0.01,0.293,0.019,0.44,0.027
		c0.305,0.017,0.609,0.027,0.914,0.03c0.306,0.002,0.61-0.015,0.916-0.018c0.361-0.003,0.727-0.024,1.086,0.012
		c0.015,0.002,0.028,0.005,0.042,0.008c0.027,0.373,0.004,0.748-0.019,1.12c-0.027,0.45-0.074,0.898-0.104,1.348
		c0,0.001,0.001,0.001,0.002,0c0.204-0.42,0.411-0.846,0.574-1.285c0.152-0.406,0.288-0.829,0.332-1.263
		c0.014-0.141-0.003-0.288-0.07-0.415c-0.068-0.128-0.162-0.212-0.28-0.293c-0.098-0.066-0.222-0.104-0.334-0.139
		c-0.098-0.031-0.203-0.053-0.305-0.067c-0.224-0.032-0.446-0.064-0.671-0.081c-0.233-0.017-0.468-0.024-0.701-0.024
		C13.671,12.621,13.496,12.625,13.32,12.633"/>
</g>
</svg>
