<?xml version="1.0" encoding="utf-8"?>
<!-- Generator: Adobe Illustrator 15.0.0, SVG Export Plug-In . SVG Version: 6.00 Build 0)  -->
<!DOCTYPE svg PUBLIC "-//W3C//DTD SVG 1.1//EN" "http://www.w3.org/Graphics/SVG/1.1/DTD/svg11.dtd">
<svg version="1.1" id="Capa_1" xmlns="http://www.w3.org/2000/svg" xmlns:xlink="http://www.w3.org/1999/xlink" x="0px" y="0px"
	 width="20px" height="20px" viewBox="12.5 12.5 20 20" enable-background="new 12.5 12.5 20 20" xml:space="preserve">
<g>
	<path fill="#919191" d="M29.701,19.167c-0.156,0.891-0.231,1.794-0.29,2.695c-0.027,0.41-0.045,0.82-0.053,1.229
		c-0.01,0.441,0.002,0.885,0.025,1.322c0.02,0.387,0.057,0.773,0.098,1.158c0.013,0.125,0.026,0.248,0.042,0.373
		c0.009,0.076,0.021,0.15,0.027,0.227c0.019,0.236,0.04,0.473,0.063,0.709c0.011,0.111,0.021,0.223,0.033,0.334
		c0,0.002,0.001,0.002,0.001,0c0.072-0.297,0.137-0.596,0.196-0.896c0.041-0.211,0.063-0.426,0.087-0.641
		c0.045-0.396,0.071-0.797,0.088-1.195c0.019-0.414,0.031-0.826,0.028-1.238c-0.003-0.414-0.023-0.826-0.046-1.237
		c-0.051-0.834-0.122-1.668-0.244-2.495C29.74,19.397,29.723,19.282,29.701,19.167L29.701,19.167L29.701,19.167"/>
	<path fill="#919191" d="M23.943,27.033c-0.013,0.002-0.025,0.004-0.039,0.006C23.918,27.037,23.931,27.035,23.943,27.033
		 M21.603,18.765c-0.204,0.003-0.408,0.002-0.613,0.014c-0.217,0.012-0.435,0.024-0.651,0.04c-0.417,0.032-0.835,0.062-1.251,0.099
		c-0.407,0.036-0.812,0.071-1.22,0.084c-0.209,0.006-0.417,0.012-0.626,0.012c-0.072,0-0.143,0-0.214,0
		c-0.134,0-0.268,0.001-0.402-0.001c-0.103-0.002-0.205-0.005-0.308-0.012c-0.1-0.008-0.198-0.022-0.298-0.03
		c-0.051-0.004-0.1-0.004-0.15,0c-0.137,0.01-0.26,0.033-0.377,0.11c-0.126,0.084-0.229,0.199-0.295,0.337
		c-0.127,0.272-0.179,0.564-0.203,0.862c-0.017,0.207-0.035,0.414-0.038,0.621c-0.003,0.225-0.005,0.45-0.004,0.675
		c0.003,0.405,0.01,0.811,0.021,1.217c0.005,0.209,0.018,0.417,0.028,0.625c0.007,0.109,0.021,0.221,0.031,0.33
		c0.014,0.131,0.033,0.26,0.051,0.389c0.036,0.254,0.071,0.504,0.106,0.758c0.055,0.41,0.109,0.822,0.172,1.232
		c0.031,0.203,0.072,0.404,0.111,0.607c0.008,0.043,0.015,0.084,0.021,0.127c0.006,0.041,0.014,0.082,0.025,0.121
		c0.02,0.062,0.047,0.125,0.081,0.182c0.066,0.107,0.139,0.164,0.241,0.236c0.043,0.033,0.163,0.074,0.184,0.082
		c0.027,0.01,0.055,0.018,0.084,0.025c0.102,0.025,0.208,0.033,0.312,0.043c0.065,0.008,0.131,0.01,0.197,0.012
		c0.207,0.01,0.414,0.006,0.62,0.004c0.188-0.002,0.374-0.006,0.561-0.01c0.419-0.01,0.837-0.018,1.253-0.045
		c0.432-0.029,0.861-0.059,1.291-0.094c0.383-0.027,0.764-0.076,1.145-0.105c0.785-0.062,1.565-0.158,2.346-0.266
		c0.188-0.02,0.38-0.045,0.569-0.061c0.221-0.021,0.443-0.041,0.664-0.062c0.418-0.039,0.835-0.08,1.254-0.119
		s0.839-0.066,1.258-0.102c0.4-0.031,0.802-0.062,1.202-0.1c0.119-0.01,0.239-0.021,0.36-0.033c0.07-0.006,0.138-0.012,0.207-0.02
		c0.145-0.016,0.29-0.016,0.435-0.021v-0.002c-0.172-0.035-0.343-0.066-0.517-0.082c-0.112-0.012-0.226-0.023-0.339-0.033
		c-0.194-0.018-0.388-0.035-0.581-0.051c-0.404-0.035-0.809-0.066-1.212-0.094c-0.432-0.031-0.861-0.055-1.291-0.07
		c-0.396-0.018-0.797-0.014-1.193-0.016c-0.227,0-0.452,0.002-0.68,0.012c-0.202,0.008-0.404,0.021-0.608,0.037
		c-0.402,0.027-0.806,0.055-1.209,0.088c-0.408,0.035-0.815,0.061-1.224,0.092c-0.196,0.016-0.391,0.029-0.586,0.041
		c-0.226,0.012-0.449,0.021-0.676,0.029c-0.388,0.016-0.779,0.027-1.169,0.021c-0.419-0.006-0.839-0.018-1.26-0.033
		c-0.241-0.01-0.486-0.016-0.728-0.041c-0.008-0.029-0.017-0.061-0.025-0.09c-0.026-0.094-0.054-0.186-0.079-0.279
		c-0.056-0.205-0.101-0.412-0.145-0.621c-0.081-0.393-0.142-0.795-0.197-1.191c-0.004-0.033-0.009-0.066-0.014-0.1
		c-0.013-0.1-0.024-0.199-0.036-0.301c-0.013-0.102-0.016-0.205-0.022-0.307c-0.006-0.086-0.01-0.168-0.012-0.254
		c-0.003-0.105-0.01-0.211-0.008-0.318c0.007-0.435,0.017-0.869,0.029-1.302c0.013-0.435,0.048-0.868,0.102-1.3
		c0.019-0.104,0.041-0.208,0.071-0.308c0.06-0.01,0.12-0.017,0.18-0.025c-0.035,0.005-0.07,0.01-0.105,0.014
		c0.407-0.051,0.818-0.076,1.227-0.104c0.397-0.027,0.796-0.057,1.191-0.101c0.442-0.051,0.884-0.097,1.325-0.134
		c0.186-0.016,0.371-0.035,0.557-0.045c0.194-0.011,0.39-0.029,0.584-0.031c0.834-0.01,1.669-0.011,2.503-0.032
		c0.825-0.021,1.649-0.055,2.472-0.105c0.433-0.026,0.863-0.057,1.297-0.086c0.216-0.015,0.431-0.026,0.648-0.037
		c0.205-0.011,0.411-0.015,0.619-0.021c0.187-0.006,0.374-0.011,0.561-0.017c0,0,0-0.001,0-0.001
		c-0.299-0.064-0.599-0.125-0.898-0.183c-0.196-0.038-0.395-0.065-0.591-0.095c-0.395-0.06-0.795-0.093-1.194-0.124
		c-0.831-0.064-1.665-0.101-2.499-0.128c-0.417-0.013-0.836-0.02-1.254-0.027c-0.306-0.006-0.614-0.012-0.922-0.012
		C21.785,18.763,21.693,18.764,21.603,18.765"/>
	<path fill="#919191" d="M18.473,21.009c0.027,0.004,0.054,0.009,0.081,0.015c0.068,0.034,0.135,0.073,0.196,0.118
		c0.038,0.033,0.074,0.068,0.107,0.107c0.027,0.039,0.051,0.079,0.071,0.122c0.02,0.056,0.034,0.11,0.045,0.168
		c0.004,0.056,0.004,0.111,0,0.168c-0.017,0.09-0.04,0.179-0.071,0.266c-0.019,0.037-0.04,0.073-0.063,0.108
		c-0.013,0.014-0.025,0.027-0.039,0.041c-0.027,0.018-0.058,0.035-0.088,0.05c-0.055,0.02-0.11,0.034-0.167,0.045
		c-0.124,0.011-0.243,0.006-0.367-0.006c-0.086-0.014-0.171-0.035-0.253-0.064c-0.041-0.021-0.08-0.042-0.117-0.066
		c-0.008-0.008-0.018-0.017-0.026-0.026c-0.008-0.013-0.016-0.026-0.023-0.04c-0.003-0.013-0.007-0.026-0.01-0.039
		c-0.005-0.079-0.001-0.157,0.008-0.235c0.018-0.113,0.045-0.224,0.085-0.33c0.027-0.056,0.058-0.108,0.093-0.159
		c0.038-0.045,0.078-0.086,0.122-0.124c0.043-0.029,0.087-0.055,0.134-0.077c0.048-0.018,0.097-0.033,0.146-0.043
		C18.382,21.003,18.427,21.004,18.473,21.009 M18.278,20.638c-0.163,0.014-0.318,0.072-0.454,0.161
		c-0.051,0.025-0.099,0.054-0.145,0.087c-0.107,0.076-0.194,0.168-0.268,0.272c-0.006,0.005-0.012,0.01-0.017,0.015v0
		c0.003-0.001,0.005-0.002,0.008-0.003c-0.098,0.142-0.168,0.304-0.221,0.472c-0.043,0.14-0.073,0.292-0.062,0.439
		c0.014,0.189,0.096,0.357,0.222,0.495c0.055,0.06,0.126,0.106,0.19,0.153c0.068,0.046,0.145,0.078,0.221,0.108
		c0.159,0.066,0.322,0.09,0.492,0.111c0.308,0.037,0.64-0.023,0.897-0.2c0.139-0.094,0.247-0.218,0.32-0.371
		c0.08-0.169,0.112-0.346,0.128-0.533c0.023-0.312-0.091-0.622-0.295-0.855c-0.125-0.143-0.303-0.233-0.479-0.292
		c-0.092-0.029-0.187-0.043-0.282-0.055c-0.051-0.005-0.102-0.009-0.153-0.009C18.347,20.633,18.312,20.634,18.278,20.638"/>
	<path fill="#919191" d="M24.523,20.364c0.36,0.052,0.715,0.143,1.055,0.279c0.198,0.089,0.387,0.194,0.562,0.323
		c0.122,0.099,0.231,0.209,0.331,0.331c0.09,0.124,0.165,0.254,0.23,0.393c0.052,0.136,0.089,0.275,0.114,0.418
		c0.018,0.195,0.011,0.392-0.011,0.586c-0.034,0.221-0.084,0.439-0.163,0.648c-0.07,0.15-0.156,0.293-0.253,0.43
		c-0.135,0.164-0.286,0.314-0.449,0.447c-0.159,0.119-0.33,0.219-0.509,0.301c-0.156,0.059-0.317,0.102-0.481,0.129
		c-0.187,0.02-0.378,0.018-0.566,0.012c-0.183-0.008-0.367-0.021-0.547-0.043c-0.16-0.023-0.318-0.055-0.474-0.098
		c-0.16-0.045-0.318-0.102-0.473-0.164c-0.226-0.098-0.44-0.217-0.64-0.361c-0.092-0.076-0.178-0.158-0.253-0.25
		c-0.05-0.07-0.093-0.145-0.13-0.223c-0.042-0.109-0.071-0.221-0.091-0.334c-0.021-0.215-0.01-0.431,0.014-0.643
		c0.031-0.194,0.08-0.38,0.152-0.562c0.092-0.201,0.204-0.389,0.335-0.565c0.18-0.225,0.375-0.429,0.599-0.609
		c0.2-0.15,0.415-0.279,0.645-0.381c0.075-0.03,0.149-0.056,0.226-0.08c0.013-0.002,0.026-0.004,0.038-0.005
		C24.032,20.312,24.278,20.333,24.523,20.364 M23.485,19.896c-0.296,0.06-0.582,0.179-0.848,0.322
		c-0.267,0.144-0.512,0.334-0.729,0.543c-0.222,0.213-0.421,0.451-0.585,0.712c-0.071,0.114-0.132,0.234-0.185,0.358
		c-0.067,0.157-0.125,0.313-0.166,0.48c-0.037,0.159-0.062,0.321-0.082,0.483c-0.019,0.152-0.03,0.307-0.022,0.459
		c0.019,0.338,0.113,0.682,0.298,0.969c0.188,0.293,0.452,0.52,0.742,0.707c0.267,0.176,0.569,0.301,0.868,0.412
		c0.272,0.098,0.554,0.164,0.841,0.205c0.327,0.043,0.656,0.068,0.988,0.064c0.326-0.002,0.65-0.039,0.962-0.141
		c0.299-0.1,0.586-0.248,0.842-0.432c0.252-0.182,0.479-0.391,0.675-0.631c0.105-0.131,0.206-0.268,0.29-0.414
		c0.085-0.152,0.155-0.316,0.208-0.482c0.042-0.129,0.07-0.264,0.094-0.396c0.029-0.184,0.051-0.37,0.056-0.553
		c0.005-0.173-0.013-0.348-0.038-0.519c-0.023-0.147-0.063-0.289-0.117-0.428c-0.06-0.152-0.13-0.298-0.218-0.436
		c-0.088-0.138-0.191-0.266-0.304-0.385c-0.428-0.45-1.023-0.695-1.626-0.791c-0.238-0.037-0.479-0.056-0.719-0.055
		c-0.101-0.03-0.202-0.055-0.305-0.072c-0.135-0.024-0.27-0.035-0.405-0.035C23.829,19.844,23.656,19.862,23.485,19.896"/>
	<path fill="#919191" d="M16.659,18.903c0,0.004,0.001,0.007,0.001,0.012C16.66,18.911,16.659,18.907,16.659,18.903 M18.97,18.033
		c0,0.001,0.002,0.001,0.003,0.003C18.972,18.034,18.97,18.034,18.97,18.033 M18.933,17.999c0.003,0.002,0.006,0.003,0.009,0.005
		c0,0.001,0,0.001,0,0.001C18.938,18.002,18.936,18.001,18.933,17.999 M16.809,17.987c-0.004,0.004-0.008,0.009-0.011,0.012
		C16.801,17.996,16.805,17.992,16.809,17.987 M16.807,17.98c-0.005,0.003-0.01,0.007-0.015,0.011
		C16.796,17.987,16.801,17.983,16.807,17.98C16.807,17.98,16.807,17.98,16.807,17.98 M16.838,17.963
		c-0.005,0.002-0.01,0.003-0.014,0.006C16.828,17.967,16.833,17.965,16.838,17.963 M17.809,17.438
		c-0.175,0.008-0.349,0.019-0.524,0.031c-0.095,0.007-0.19,0.015-0.285,0.021c-0.098,0.008-0.197,0.013-0.292,0.038
		c-0.158,0.04-0.252,0.166-0.299,0.315c-0.036,0.121-0.04,0.257-0.037,0.382c0,0.046,0.004,0.093,0.007,0.139
		c0.007,0.092,0.021,0.188,0.042,0.279c0.019,0.086,0.041,0.169,0.075,0.252c0.015,0.039,0.035,0.076,0.057,0.112
		c0.058,0.097,0.104,0.198,0.156,0.299c0.001,0,0.001,0,0.001,0c-0.008-0.097-0.015-0.193-0.027-0.29
		c-0.006-0.04-0.016-0.08-0.023-0.119c0.001,0.001,0.001,0.003,0.001,0.004c-0.003-0.017-0.005-0.034-0.007-0.049
		c0.001,0.006,0.002,0.014,0.003,0.021c-0.01-0.121,0.001-0.238,0.014-0.357c0.026-0.16,0.057-0.321,0.117-0.474
		c0.008-0.021,0.02-0.042,0.031-0.062c0.096-0.005,0.194,0.007,0.29,0.014c0.079,0.005,0.158,0.01,0.237,0.015
		c0.165,0.009,0.33,0.015,0.495,0.017c0.165,0.001,0.329-0.009,0.495-0.009c0.194-0.002,0.392-0.014,0.586,0.006
		c0.008,0.001,0.016,0.003,0.023,0.004c0.015,0.202,0.002,0.405-0.011,0.605c-0.015,0.243-0.04,0.486-0.056,0.729
		c0,0,0.001,0.001,0.002,0c0.109-0.227,0.222-0.457,0.31-0.694c0.083-0.22,0.155-0.448,0.18-0.683
		c0.008-0.077-0.002-0.156-0.038-0.224c-0.037-0.07-0.088-0.115-0.151-0.159c-0.053-0.036-0.119-0.056-0.181-0.075
		c-0.053-0.017-0.11-0.029-0.164-0.037c-0.122-0.018-0.242-0.035-0.363-0.044c-0.126-0.009-0.253-0.013-0.379-0.013
		C17.998,17.431,17.904,17.433,17.809,17.438"/>
</g>
</svg>
