<?xml version="1.0" encoding="utf-8"?>
<!-- Generator: Adobe Illustrator 15.0.0, SVG Export Plug-In . SVG Version: 6.00 Build 0)  -->
<!DOCTYPE svg PUBLIC "-//W3C//DTD SVG 1.1//EN" "http://www.w3.org/Graphics/SVG/1.1/DTD/svg11.dtd">
<svg version="1.1" id="Capa_1" xmlns="http://www.w3.org/2000/svg" xmlns:xlink="http://www.w3.org/1999/xlink" x="0px" y="0px"
	 width="44px" height="44px" viewBox="0 0 44 44" enable-background="new 0 0 44 44" xml:space="preserve">
<path opacity="0.9753" fill="#292521" d="M17.943,14.808c0.211,0,0.423,0,0.634-0.001c0.353,0,0.707,0.014,1.06,0.024
	c0.644,0.019,1.284,0.077,1.926,0.135c1.086,0.152,2.175,0.32,3.199,0.726c0.511,0.229,0.994,0.519,1.443,0.854
	c0.416,0.335,0.791,0.713,1.126,1.129c0.307,0.415,0.573,0.854,0.785,1.324c0.123,0.315,0.217,0.639,0.274,0.972
	c0.029,0.303,0.022,0.607-0.01,0.909c-0.067,0.418-0.171,0.828-0.324,1.223c-0.125,0.271-0.275,0.525-0.449,0.767
	c-0.187,0.227-0.39,0.431-0.617,0.616c-0.434,0.322-0.898,0.605-1.392,0.828c-0.438,0.17-0.887,0.282-1.35,0.353
	c-0.738,0.085-1.489,0.066-2.231,0.082c-0.411,0.009-0.824,0.02-1.235,0.021c-0.485,0.001-0.97,0.008-1.455,0
	c-0.084-0.001-0.168-0.001-0.252,0c-0.156,0-0.312,0.001-0.467-0.009c-0.265-0.018-0.531-0.032-0.796-0.047
	c-0.22-0.013-0.433-0.027-0.651-0.055c-0.275-0.035-0.551-0.068-0.826-0.102c-0.4-0.062-0.798-0.13-1.193-0.22
	c-0.143-0.032-0.286-0.067-0.428-0.105c-0.624-0.285-1.222-0.634-1.769-1.047c-0.23-0.185-0.439-0.386-0.626-0.613
	c-0.123-0.169-0.229-0.346-0.317-0.535c-0.061-0.164-0.105-0.33-0.136-0.5c-0.028-0.322,0-0.643,0.039-0.963
	c0.042-0.299,0.08-0.603,0.151-0.896c0.041-0.168,0.077-0.338,0.127-0.504c0.085-0.275,0.171-0.547,0.277-0.814
	c0.229-0.513,0.514-0.997,0.848-1.449c0.276-0.342,0.581-0.654,0.922-0.931c0.371-0.271,0.767-0.495,1.186-0.682
	c0.484-0.193,0.982-0.334,1.498-0.412C17.255,14.844,17.601,14.809,17.943,14.808 M17.295,13.15
	c-0.389,0.032-0.779,0.082-1.163,0.152c-0.685,0.127-1.353,0.393-1.975,0.699c-0.282,0.14-0.551,0.307-0.808,0.49
	c-0.315,0.225-0.615,0.472-0.885,0.749c-0.257,0.264-0.481,0.562-0.692,0.863c-0.189,0.271-0.352,0.562-0.498,0.858
	c-0.251,0.511-0.44,1.05-0.566,1.604c-0.055,0.241-0.096,0.481-0.134,0.726c-0.04,0.253-0.066,0.513-0.077,0.769
	c-0.02,0.476-0.03,0.944,0.037,1.417c0.095,0.673,0.437,1.275,0.908,1.756c0.464,0.475,1.066,0.788,1.674,1.039
	c0.137,0.057,0.275,0.11,0.415,0.16c0.452,0.256,0.916,0.488,1.396,0.688c0.433,0.181,0.878,0.339,1.331,0.46
	c0.302,0.081,0.604,0.161,0.906,0.239c0.173,0.045,0.35,0.071,0.526,0.102c0.249,0.044,0.498,0.086,0.747,0.127
	c0.294,0.05,0.595,0.071,0.892,0.104c0.184,0.02,0.367,0.041,0.551,0.055c1.015,0.075,2.03,0.122,3.048,0.149
	c0.47,0.013,0.941,0.014,1.41-0.038c0.359-0.04,0.715-0.099,1.065-0.188c0.365-0.093,0.714-0.235,1.059-0.386
	c0.637-0.278,1.215-0.669,1.76-1.095c0.231-0.181,0.434-0.394,0.62-0.619c0.238-0.29,0.455-0.595,0.629-0.928
	c0.357-0.68,0.547-1.427,0.636-2.186c0.082-0.691,0.007-1.384-0.198-2.049c-0.104-0.337-0.25-0.664-0.406-0.98
	c-0.144-0.293-0.316-0.57-0.502-0.839c-0.39-0.564-0.843-1.083-1.362-1.531c-0.517-0.446-1.088-0.83-1.695-1.14
	c-0.646-0.33-1.34-0.559-2.045-0.723c-0.467-0.109-0.942-0.191-1.417-0.257c-0.299-0.042-0.601-0.097-0.901-0.124
	c-0.278-0.025-0.557-0.05-0.835-0.076c-0.405-0.037-0.814-0.052-1.222-0.064c-0.521-0.016-1.041-0.022-1.562-0.022
	c-0.002,0-0.004,0-0.006,0C17.734,13.114,17.514,13.132,17.295,13.15"/>
<path opacity="0.9753" fill="#292521" d="M20.952,16.548c-0.249,0.35-0.44,0.736-0.697,1.081c-0.075,0.094-0.154,0.181-0.244,0.259
	c-0.065,0.046-0.131,0.086-0.203,0.12c-0.014,0.004-0.027,0.008-0.041,0.012c-0.159-0.056-0.319-0.109-0.48-0.161
	c-0.178-0.058-0.358-0.11-0.54-0.155c-0.177-0.043-0.357-0.063-0.538-0.087c-0.07-0.009-0.152-0.006-0.221,0.013
	c-0.085,0.023-0.155,0.085-0.219,0.143c-0.109,0.098-0.112,0.261-0.049,0.383c0.039,0.076,0.083,0.145,0.151,0.198
	c0.077,0.061,0.15,0.095,0.241,0.133c0.193,0.08,0.392,0.12,0.598,0.151c0.404,0.061,0.845,0.104,1.23-0.063
	c0.355-0.155,0.556-0.48,0.698-0.824c0.158-0.383,0.21-0.805,0.316-1.203C20.955,16.548,20.954,16.548,20.952,16.548
	C20.953,16.548,20.952,16.548,20.952,16.548"/>
<path opacity="0.9753" fill="#292521" d="M31.003,17.597c0.383,0.128,0.766,0.255,1.149,0.381c0.422,0.139,0.846,0.271,1.258,0.438
	c0.229,0.101,0.446,0.218,0.649,0.365c0.252,0.206,0.472,0.443,0.674,0.698c0.271,0.368,0.492,0.763,0.676,1.182
	c0.172,0.42,0.321,0.858,0.4,1.306c0.034,0.191,0.068,0.383,0.104,0.575c0.037,0.291,0.076,0.584,0.088,0.878
	c0.018,0.446,0.045,0.9,0.012,1.348c-0.005,0.023-0.011,0.048-0.018,0.071c-0.034,0.021-0.068,0.04-0.104,0.058
	c-0.209,0.072-0.423,0.121-0.641,0.156c-0.273,0.03-0.55,0.047-0.824,0.061c-0.543,0.027-1.085,0.074-1.614,0.201
	c-0.202,0.049-0.398,0.117-0.59,0.197c-0.259,0.107-0.504,0.222-0.736,0.379c-0.335,0.226-0.632,0.491-0.896,0.794
	c-0.214,0.246-0.413,0.504-0.612,0.762c-0.317,0.373-0.652,0.729-1.032,1.039c-0.201,0.146-0.412,0.275-0.639,0.382
	c-0.343,0.135-0.701,0.245-1.061,0.32c-0.149,0.031-0.3,0.071-0.452,0.093c-0.111,0.016-0.223,0.032-0.334,0.048
	c-0.465,0.047-0.929,0.081-1.396,0.103c-0.438,0.02-0.878,0.024-1.317,0.026c-0.466,0.002-0.933,0.003-1.399,0.012
	c-0.302,0.006-0.605,0.056-0.903,0.098c-0.222,0.032-0.446,0.068-0.663,0.128c-0.33,0.091-0.657,0.19-0.988,0.279
	c-0.286,0.077-0.575,0.131-0.866,0.18c-0.4,0.044-0.799,0.08-1.2,0.047c-0.403-0.074-0.785-0.209-1.167-0.359
	c-0.167-0.072-0.335-0.145-0.503-0.218c-0.212-0.091-0.417-0.208-0.623-0.312c-0.431-0.216-0.841-0.474-1.252-0.725
	c-0.395-0.242-0.782-0.497-1.174-0.743c-0.644-0.402-1.365-0.68-2.086-0.914c-0.576-0.188-1.168-0.343-1.732-0.565
	c-0.367-0.165-0.716-0.362-1.042-0.6c-0.25-0.204-0.477-0.43-0.683-0.679c-0.232-0.324-0.456-0.654-0.627-1.016
	c-0.182-0.479-0.272-0.979-0.35-1.484c-0.015-0.123-0.03-0.245-0.042-0.366c-0.036-0.354-0.045-0.706-0.008-1.061
	c0.042-0.265,0.102-0.524,0.197-0.776c0.062-0.134,0.131-0.262,0.214-0.382c0.142-0.165,0.301-0.311,0.471-0.447
	c0.225-0.166,0.463-0.305,0.72-0.419c0.701-0.282,1.447-0.417,2.194-0.519c-0.002,0-0.004,0-0.007,0.001
	c0.47-0.062,0.94-0.12,1.409-0.183c0.001,0,0.001-0.002,0-0.002c-0.828-0.081-1.653-0.173-2.485-0.176
	c-0.563-0.001-1.145,0.058-1.685,0.222c-0.308,0.093-0.604,0.235-0.879,0.398c-0.29,0.171-0.557,0.384-0.763,0.65
	c-0.417,0.537-0.662,1.188-0.765,1.857c-0.091,0.59-0.094,1.201-0.044,1.796c0.023,0.282,0.049,0.569,0.106,0.847
	c0.036,0.177,0.073,0.35,0.126,0.522c0.08,0.261,0.2,0.509,0.322,0.752c0.355,0.707,0.858,1.353,1.479,1.842
	c0.277,0.219,0.561,0.415,0.873,0.58c0.334,0.178,0.69,0.32,1.046,0.445c0.234,0.081,0.474,0.148,0.711,0.221
	c0.47,0.144,0.938,0.287,1.398,0.456c0.079,0.028,0.158,0.059,0.236,0.089c0.588,0.265,1.124,0.621,1.663,0.972
	c0.383,0.25,0.767,0.497,1.166,0.722c0.402,0.228,0.807,0.451,1.228,0.641c0.4,0.179,0.801,0.36,1.215,0.508
	c0.649,0.231,1.367,0.31,2.052,0.23c0.358-0.041,0.713-0.089,1.069-0.147c0.265-0.044,0.525-0.122,0.784-0.193
	c0.263-0.071,0.52-0.168,0.786-0.226c0.144-0.032,0.289-0.063,0.434-0.095c0.123-0.026,0.251-0.038,0.376-0.055
	c-0.06,0.009-0.119,0.017-0.179,0.024c0.18-0.015,0.359-0.033,0.539-0.036c0.206-0.005,0.411-0.008,0.617-0.009
	c0.377-0.002,0.754-0.003,1.131-0.013c0.841-0.021,1.685-0.039,2.52-0.148c-0.064,0.009-0.129,0.018-0.193,0.026
	c0.184-0.025,0.368-0.05,0.553-0.074c0.257-0.035,0.508-0.086,0.762-0.137c0.172-0.034,0.341-0.092,0.509-0.138
	c0.179-0.049,0.354-0.116,0.524-0.185c0.274-0.11,0.537-0.228,0.786-0.387c0.295-0.187,0.561-0.414,0.826-0.64
	c0.112-0.096,0.221-0.202,0.322-0.31c0.138-0.146,0.271-0.291,0.401-0.444c0.122-0.146,0.237-0.297,0.353-0.448
	c0.243-0.309,0.492-0.613,0.792-0.868c0.158-0.112,0.323-0.211,0.499-0.295c0.291-0.108,0.591-0.182,0.898-0.231
	c0.422-0.045,0.848-0.047,1.27-0.1c0.204-0.025,0.411-0.048,0.614-0.082c0.362-0.062,0.696-0.182,1.029-0.334
	c0.162-0.072,0.319-0.193,0.451-0.308c0.139-0.119,0.252-0.271,0.342-0.43c0.21-0.373,0.226-0.804,0.191-1.22
	c-0.093-1.136-0.296-2.29-0.725-3.35c-0.311-0.769-0.746-1.485-1.314-2.091c-0.275-0.294-0.597-0.554-0.937-0.77
	c-0.327-0.208-0.699-0.335-1.077-0.415c-0.446-0.093-0.904-0.129-1.357-0.174c-0.408-0.04-0.817-0.077-1.226-0.112h-0.001
	C31.002,17.595,31.002,17.597,31.003,17.597"/>
</svg>
