<?xml version="1.0" encoding="utf-8"?>
<!-- Generator: Adobe Illustrator 15.0.0, SVG Export Plug-In . SVG Version: 6.00 Build 0)  -->
<!DOCTYPE svg PUBLIC "-//W3C//DTD SVG 1.1//EN" "http://www.w3.org/Graphics/SVG/1.1/DTD/svg11.dtd">
<svg version="1.1" id="Capa_1" xmlns="http://www.w3.org/2000/svg" xmlns:xlink="http://www.w3.org/1999/xlink" x="0px" y="0px"
	 width="44px" height="44px" viewBox="0 0 44 44" enable-background="new 0 0 44 44" xml:space="preserve">
<path opacity="0.9753" fill="#292521" d="M25.16,25.383L25.16,25.383c0.001,0,0.001-0.001,0.002-0.002
	C25.161,25.382,25.161,25.383,25.16,25.383 M28.118,25.921c-0.002,0.001-0.004,0.001-0.006,0.001
	C28.114,25.922,28.116,25.922,28.118,25.921 M28.179,25.903c-0.006,0.002-0.011,0.004-0.016,0.006l0,0
	C28.168,25.907,28.173,25.905,28.179,25.903 M25.654,25.065c-0.101,0-0.199,0.007-0.279,0.073c-0.085,0.069-0.147,0.156-0.213,0.242
	c0,0,0,0,0-0.001c0,0.001-0.001,0.002-0.002,0.003l0,0c-0.016,0.021-0.032,0.041-0.05,0.061c0,0,0,0.001,0.001,0.001
	c0.104-0.061,0.198-0.135,0.307-0.188c-0.005,0.002-0.01,0.004-0.015,0.006c0.022-0.01,0.045-0.018,0.068-0.024
	c0.022-0.001,0.044,0,0.066,0.002c0.234,0.051,0.462,0.134,0.686,0.219c0.061,0.028,0.121,0.056,0.182,0.083
	c0.186,0.084,0.362,0.2,0.524,0.323c0.103,0.081,0.205,0.162,0.309,0.242c-0.013-0.01-0.025-0.02-0.037-0.029
	c0.013,0.011,0.025,0.021,0.039,0.03c0.007,0.006,0.015,0.012,0.022,0.019c-0.007-0.006-0.014-0.011-0.021-0.017
	c0.138,0.106,0.276,0.211,0.418,0.311c0.103,0.073,0.216,0.125,0.335,0.165c0.065,0.021,0.141,0.026,0.209,0.021
	c0.043-0.003,0.085-0.01,0.126-0.019c0.039-0.017,0.077-0.032,0.116-0.05c0.041-0.019,0.098-0.068,0.128-0.094
	c0.021-0.019,0.044-0.037,0.065-0.056c0.024-0.021,0.049-0.041,0.074-0.061c0.242-0.182,0.493-0.349,0.771-0.473
	c0.166-0.065,0.335-0.111,0.511-0.14c0.301-0.034,0.604-0.029,0.907-0.033c0.257-0.003,0.515-0.011,0.771-0.02
	c0,0,0.001-0.001,0-0.002c-0.261-0.082-0.522-0.159-0.785-0.232c-0.347-0.096-0.702-0.186-1.064-0.185
	c-0.442,0.002-0.859,0.169-1.238,0.385c-0.073,0.041-0.146,0.086-0.216,0.131c-0.074,0.047-0.145,0.101-0.22,0.146
	c-0.018-0.005-0.036-0.011-0.054-0.018c-0.512-0.253-0.973-0.614-1.543-0.732c-0.104-0.021-0.207-0.043-0.312-0.057
	c-0.107-0.014-0.213-0.023-0.32-0.029c-0.063-0.004-0.127-0.005-0.189-0.005C25.706,25.065,25.68,25.065,25.654,25.065"/>
<path opacity="0.9753" fill="#292521" d="M26.918,24.227c0.566,0.104,1.117,0.273,1.654,0.477c0.175,0.076,0.351,0.153,0.531,0.213
	c0.174,0.058,0.35,0.098,0.53,0.132c0.227,0.044,0.454,0.079,0.685,0.095c0.156,0.011,0.312,0.016,0.468,0.031
	c0.127,0.021,0.252,0.045,0.375,0.083c0.147,0.045,0.291,0.096,0.435,0.151c0.055,0.023,0.109,0.047,0.164,0.072
	c0.107,0.049,0.21,0.104,0.314,0.158c0.178,0.094,0.34,0.207,0.505,0.32c0.082,0.063,0.164,0.127,0.247,0.19
	c-0.029-0.022-0.058-0.045-0.087-0.067c0.246,0.207,0.467,0.44,0.666,0.691c0.138,0.184,0.258,0.376,0.353,0.585
	c0.062,0.16,0.103,0.322,0.129,0.491c0.004,0.033,0.008,0.066,0.011,0.1c-0.018,0.08-0.036,0.161-0.056,0.241
	c-0.075,0.312-0.154,0.628-0.273,0.927c-0.101,0.231-0.217,0.456-0.323,0.686c-0.045,0.097-0.091,0.193-0.136,0.29
	c-0.112,0.239-0.248,0.468-0.405,0.681c-0.14,0.171-0.3,0.32-0.472,0.457c-0.295,0.218-0.626,0.377-0.955,0.537
	c-0.222,0.108-0.446,0.211-0.673,0.312c-0.062,0.024-0.123,0.05-0.185,0.074c-0.205,0.083-0.426,0.137-0.646,0.172
	c-0.237,0.024-0.476,0.019-0.714,0.017c-0.122-0.001-0.244-0.002-0.365-0.006c-0.28-0.008-0.558-0.023-0.836-0.047
	c-0.061-0.009-0.121-0.018-0.182-0.026c-0.217-0.031-0.436-0.099-0.642-0.173c-0.16-0.059-0.318-0.119-0.476-0.184
	c-0.308-0.145-0.614-0.291-0.907-0.463c-0.142-0.083-0.288-0.164-0.422-0.258c-0.139-0.098-0.275-0.197-0.41-0.3
	c-0.152-0.123-0.299-0.251-0.438-0.392c-0.063-0.065-0.123-0.135-0.184-0.202c-0.084-0.095-0.166-0.191-0.244-0.29
	c-0.195-0.262-0.359-0.542-0.492-0.839c-0.068-0.176-0.123-0.353-0.156-0.537c-0.032-0.331-0.013-0.668-0.006-1
	c0.007-0.289,0.021-0.58,0.055-0.867c0.032-0.202,0.083-0.398,0.151-0.593c0.018-0.049,0.038-0.097,0.058-0.146
	c0.032-0.073,0.065-0.146,0.104-0.218c0.089-0.163,0.183-0.32,0.291-0.471c0.11-0.133,0.232-0.251,0.365-0.359
	c0.148-0.109,0.306-0.211,0.468-0.299c0.224-0.123,0.45-0.241,0.684-0.345c0.167-0.064,0.338-0.112,0.515-0.144
	C26.299,24.157,26.612,24.189,26.918,24.227 M25.686,23.136c-0.347,0.062-0.674,0.211-0.985,0.371
	c-0.139,0.071-0.274,0.145-0.41,0.222c-0.11,0.062-0.223,0.127-0.326,0.2c-0.224,0.158-0.447,0.317-0.642,0.512
	c-0.154,0.155-0.286,0.337-0.406,0.519c-0.061,0.091-0.111,0.187-0.164,0.283c-0.081,0.149-0.148,0.307-0.212,0.465
	c-0.035,0.087-0.071,0.174-0.103,0.263c-0.069,0.192-0.11,0.394-0.139,0.596c-0.025,0.184-0.046,0.367-0.057,0.553
	c-0.015,0.28-0.023,0.562-0.026,0.843c-0.002,0.154-0.001,0.308,0.001,0.462c0.002,0.196,0.03,0.395,0.067,0.587
	c0.045,0.231,0.143,0.453,0.235,0.669c0.078,0.181,0.174,0.357,0.276,0.524c0.155,0.254,0.345,0.484,0.536,0.712
	c0.086,0.103,0.178,0.2,0.268,0.3c0.217,0.239,0.479,0.432,0.734,0.627c0.214,0.164,0.436,0.315,0.668,0.451
	c0.535,0.313,1.093,0.585,1.676,0.797c0.244,0.089,0.495,0.168,0.753,0.204c0.194,0.028,0.388,0.056,0.583,0.072
	c0.276,0.024,0.553,0.033,0.83,0.038c0.148,0.003,0.297,0.006,0.446,0.007c0.397,0.002,0.792-0.051,1.17-0.177
	c0.36-0.12,0.701-0.305,1.031-0.491c0.232-0.132,0.467-0.27,0.688-0.421c0.224-0.155,0.45-0.312,0.639-0.511
	c0.215-0.227,0.409-0.465,0.553-0.745c0.145-0.281,0.246-0.578,0.332-0.881c0.035-0.127,0.068-0.254,0.104-0.38
	c0.05-0.173,0.102-0.345,0.144-0.519c0.001-0.003,0.002-0.005,0.002-0.008c0.004,0.442-0.003,0.885-0.004,1.326
	c0,0.001,0.001,0.001,0.001,0c0.091-0.381,0.178-0.764,0.263-1.146c0.061-0.275,0.1-0.555,0.138-0.834
	c0.021-0.154,0.038-0.309,0.054-0.463c0.017-0.152,0.026-0.305,0.025-0.457c-0.003-0.215-0.04-0.429-0.1-0.635
	c-0.089-0.307-0.242-0.594-0.416-0.86c-0.162-0.247-0.337-0.483-0.539-0.699c-0.415-0.442-0.926-0.791-1.465-1.063
	c-0.277-0.14-0.567-0.261-0.87-0.329c-0.281-0.064-0.57-0.079-0.855-0.111c-0.245-0.04-0.491-0.084-0.727-0.161
	c-0.265-0.086-0.515-0.206-0.778-0.296c-0.563-0.192-1.134-0.355-1.728-0.424c-0.139-0.016-0.278-0.032-0.418-0.037
	c-0.081-0.003-0.162-0.006-0.244-0.009c-0.022,0-0.045-0.001-0.067-0.001C26.042,23.079,25.862,23.104,25.686,23.136"/>
<path opacity="0.9753" fill="#292521" d="M19.538,28.408c-0.013,0.031-0.026,0.062-0.04,0.094
	C19.512,28.471,19.525,28.439,19.538,28.408 M16.301,22.321c-0.047-0.006-0.094-0.013-0.141-0.019
	c0.117,0.016,0.237,0.026,0.354,0.05c0.141,0.029,0.279,0.057,0.418,0.094c0.14,0.038,0.274,0.081,0.411,0.128
	c0.113,0.039,0.222,0.088,0.331,0.135c-0.036-0.016-0.072-0.03-0.108-0.046c0.096,0.045,0.191,0.091,0.288,0.136
	c0.095,0.045,0.185,0.103,0.276,0.153c0.09,0.05,0.174,0.113,0.26,0.17c0.086,0.056,0.165,0.126,0.246,0.188
	c-0.036-0.027-0.071-0.055-0.107-0.083c0.12,0.107,0.238,0.213,0.351,0.328c0.117,0.12,0.226,0.243,0.334,0.37
	c0.1,0.132,0.195,0.266,0.29,0.402c0.14,0.204,0.278,0.416,0.384,0.641c0.053,0.141,0.092,0.283,0.117,0.431
	c0.026,0.278,0.013,0.563-0.004,0.843c-0.006,0.104-0.007,0.211-0.019,0.315c-0.009,0.089-0.019,0.179-0.027,0.268
	c-0.047,0.273-0.098,0.546-0.173,0.813c-0.042,0.151-0.084,0.301-0.134,0.45c-0.046,0.142-0.1,0.279-0.151,0.419
	c-0.029,0.069-0.058,0.138-0.087,0.207c-0.069,0.138-0.138,0.275-0.215,0.409c-0.041,0.068-0.083,0.136-0.126,0.203
	c-0.258,0.23-0.513,0.464-0.768,0.698c-0.229,0.212-0.454,0.427-0.698,0.62c-0.192,0.146-0.395,0.277-0.613,0.38
	c-0.041,0.017-0.082,0.032-0.123,0.049c-0.177,0.062-0.361,0.105-0.547,0.135c-0.288,0.03-0.575,0.003-0.863-0.021
	c-0.168-0.014-0.335-0.031-0.503-0.051c-0.13-0.02-0.263-0.038-0.389-0.072c-0.076-0.021-0.155-0.037-0.229-0.062
	c-0.077-0.027-0.154-0.055-0.231-0.081c-0.115-0.051-0.229-0.104-0.344-0.159c-0.141-0.069-0.277-0.146-0.413-0.225
	c-0.133-0.077-0.268-0.152-0.395-0.238c-0.064-0.044-0.133-0.085-0.195-0.133c-0.039-0.03-0.078-0.06-0.117-0.09
	c-0.167-0.146-0.334-0.29-0.49-0.447c-0.164-0.164-0.314-0.339-0.461-0.52c-0.028-0.037-0.058-0.074-0.086-0.112
	c-0.13-0.169-0.242-0.348-0.332-0.54c-0.058-0.152-0.098-0.307-0.124-0.467c-0.029-0.294-0.014-0.593-0.004-0.888
	c0.007-0.205,0.021-0.41,0.039-0.614c0.021-0.141,0.043-0.281,0.08-0.418c0.062-0.225,0.123-0.449,0.207-0.667
	c0.2-0.438,0.49-0.827,0.781-1.209c0.187-0.224,0.374-0.446,0.572-0.66c0.106-0.115,0.218-0.224,0.331-0.332
	c0.09-0.087,0.188-0.165,0.285-0.245c0.223-0.163,0.458-0.301,0.71-0.414c0.291-0.117,0.591-0.202,0.9-0.251
	C15.466,22.248,15.885,22.288,16.301,22.321 M15.348,21.212c-0.245,0.002-0.494,0.041-0.734,0.087
	c-0.414,0.081-0.817,0.236-1.193,0.425c-0.294,0.147-0.56,0.345-0.812,0.555c-0.051,0.043-0.106,0.083-0.154,0.129
	c-0.062,0.06-0.123,0.119-0.185,0.178c-0.104,0.102-0.201,0.21-0.3,0.317c-0.203,0.221-0.395,0.455-0.577,0.692
	c-0.185,0.241-0.362,0.484-0.532,0.735c-0.092,0.135-0.173,0.279-0.248,0.423c-0.13,0.25-0.22,0.515-0.306,0.782
	c-0.184,0.572-0.224,1.171-0.245,1.768c-0.008,0.217-0.013,0.437,0.006,0.652c0.019,0.212,0.051,0.427,0.11,0.631
	c0.036,0.123,0.089,0.244,0.14,0.361c0.045,0.104,0.097,0.205,0.155,0.303c0.069,0.118,0.15,0.229,0.233,0.338
	c0.069,0.091,0.138,0.185,0.21,0.273c0.097,0.119,0.193,0.236,0.296,0.35c0.193,0.215,0.408,0.408,0.629,0.593
	c0.244,0.204,0.509,0.377,0.789,0.526c0.284,0.152,0.575,0.283,0.874,0.404c0.114,0.047,0.232,0.092,0.352,0.123
	c0.076,0.02,0.151,0.039,0.228,0.059c0.071,0.019,0.147,0.027,0.221,0.04c0.299,0.053,0.606,0.064,0.91,0.061
	c0.463-0.005,0.935-0.015,1.377-0.163c0.188-0.063,0.376-0.146,0.549-0.243c0.171-0.096,0.325-0.22,0.472-0.35
	c0.079-0.07,0.154-0.146,0.227-0.223c0.148-0.055,0.295-0.118,0.437-0.194c0.224-0.119,0.427-0.269,0.631-0.418
	c0.058-0.043,0.112-0.088,0.168-0.133c0.059-0.049,0.122-0.094,0.178-0.147c0.104-0.1,0.207-0.197,0.302-0.305
	c0.103-0.116,0.197-0.235,0.292-0.357c0.179-0.231,0.33-0.481,0.463-0.742c0.141-0.279,0.271-0.565,0.375-0.861
	c0.049-0.137,0.096-0.273,0.138-0.412c0.044-0.142,0.078-0.285,0.112-0.429c0.014-0.056,0.02-0.114,0.029-0.171
	c0.018-0.107,0.038-0.216,0.049-0.324c0.014-0.136,0.03-0.271,0.039-0.407c0.017-0.253,0.035-0.504,0.013-0.756
	c-0.041-0.444-0.183-0.878-0.424-1.255c-0.155-0.242-0.312-0.481-0.488-0.71c-0.116-0.151-0.235-0.298-0.359-0.441
	c-0.034-0.041-0.072-0.077-0.109-0.115c-0.052-0.054-0.102-0.111-0.157-0.161c-0.06-0.053-0.118-0.105-0.177-0.158
	c-0.072-0.064-0.147-0.122-0.224-0.181c-0.065-0.05-0.131-0.101-0.195-0.15c-0.062-0.047-0.131-0.086-0.194-0.128
	c-0.254-0.166-0.532-0.293-0.811-0.41c-0.078-0.033-0.156-0.066-0.234-0.099c-0.065-0.028-0.136-0.047-0.204-0.071
	c-0.13-0.044-0.263-0.079-0.396-0.114c-0.071-0.02-0.146-0.031-0.218-0.045c-0.057-0.012-0.111-0.022-0.169-0.03
	c-0.188-0.026-0.377-0.053-0.568-0.068c-0.149-0.012-0.299-0.02-0.449-0.027c-0.096-0.004-0.191-0.007-0.287-0.007
	C15.382,21.211,15.365,21.212,15.348,21.212"/>
<path opacity="0.9753" fill="#292521" d="M13.415,24.3c0,0.001-0.001,0.002-0.002,0.004C13.414,24.302,13.415,24.301,13.415,24.3
	 M15.661,23.402c0.004,0.001,0.009,0.002,0.013,0.002C15.67,23.404,15.665,23.403,15.661,23.402 M15.738,23.401
	c-0.008,0.002-0.016,0.003-0.024,0.004C15.723,23.404,15.73,23.403,15.738,23.401 M15.676,23.393
	c0.004,0.002,0.008,0.004,0.012,0.005l0,0C15.684,23.396,15.68,23.395,15.676,23.393 M15.989,23.181
	c-0.104,0.061-0.194,0.15-0.297,0.214c-0.065-0.035-0.128-0.077-0.192-0.113c-0.132-0.073-0.267-0.138-0.41-0.184
	c-0.078-0.024-0.16-0.037-0.241-0.049c-0.108-0.017-0.213-0.023-0.322-0.009c-0.196,0.025-0.379,0.106-0.542,0.217
	c-0.16,0.107-0.301,0.242-0.43,0.384c-0.082,0.092-0.153,0.19-0.191,0.309c-0.029,0.091-0.035,0.195-0.043,0.29
	c-0.011,0.109-0.014,0.22-0.022,0.329c0,0.001,0.001,0.001,0.002,0c0.04-0.087,0.076-0.176,0.113-0.264
	c0.044-0.104,0.089-0.207,0.151-0.3c0.026-0.03,0.055-0.058,0.086-0.083c0.156-0.118,0.329-0.218,0.508-0.297
	c0.098-0.039,0.197-0.066,0.301-0.084c0.051-0.004,0.1-0.003,0.149,0.002c0.104,0.019,0.204,0.051,0.303,0.088
	c0.108,0.05,0.211,0.11,0.312,0.176c0.041,0.027,0.082,0.055,0.124,0.08c0.108,0.066,0.226,0.108,0.354,0.11
	c0.177,0.003,0.31-0.116,0.426-0.231c0.056-0.056,0.112-0.107,0.171-0.158c0.094-0.07,0.188-0.135,0.295-0.186
	c0.036-0.014,0.073-0.025,0.112-0.034c0.04-0.003,0.08-0.002,0.121,0.001c0.075,0.014,0.146,0.036,0.217,0.064
	c0.162,0.072,0.314,0.161,0.469,0.248c0.155,0.087,0.312,0.171,0.469,0.256c0.001,0,0.002-0.001,0.001-0.002
	c-0.14-0.158-0.282-0.313-0.428-0.467c-0.197-0.209-0.408-0.41-0.687-0.501c-0.07-0.022-0.141-0.032-0.211-0.032
	C16.421,22.955,16.188,23.066,15.989,23.181"/>
<path opacity="0.9753" fill="#292521" d="M22.348,12.066c-0.087,0.051-0.155,0.12-0.206,0.206c-0.101,0.136-0.109,0.325-0.118,0.488
	c-0.004,0.059-0.007,0.119-0.011,0.178c-0.009,0.12-0.019,0.239-0.026,0.358c-0.017,0.238-0.045,0.474-0.073,0.71
	c-0.006,0.04-0.011,0.079-0.017,0.118c-0.038,0.27-0.073,0.543-0.14,0.809c-0.038,0.15-0.077,0.3-0.123,0.448
	c-0.04,0.13-0.086,0.256-0.131,0.383c-0.068,0.152-0.139,0.303-0.212,0.452c-0.078,0.158-0.17,0.31-0.261,0.46
	c-0.112,0.185-0.228,0.367-0.345,0.549c-0.093,0.145-0.195,0.283-0.296,0.423c-0.166,0.208-0.333,0.416-0.502,0.622
	c-0.181,0.22-0.367,0.434-0.556,0.646c-0.183,0.207-0.37,0.408-0.565,0.603c-0.206,0.207-0.418,0.409-0.631,0.609
	c-0.431,0.402-0.812,0.849-1.166,1.318c-0.167,0.222-0.309,0.458-0.443,0.7c-0.063,0.114-0.116,0.239-0.162,0.361
	c-0.048,0.127-0.096,0.254-0.14,0.382c-0.087,0.253-0.173,0.506-0.258,0.76c0,0.001,0.001,0.001,0.001,0.001
	c0.163-0.263,0.326-0.525,0.486-0.79c0.058-0.094,0.119-0.186,0.178-0.279c0.051-0.079,0.11-0.154,0.166-0.229
	c0.107-0.128,0.216-0.252,0.328-0.376c0.119-0.132,0.254-0.253,0.383-0.376c0.238-0.227,0.493-0.435,0.747-0.645
	c0.202-0.152,0.407-0.3,0.609-0.453c0.246-0.186,0.496-0.372,0.725-0.58c0.218-0.198,0.438-0.396,0.642-0.609
	c0.211-0.221,0.418-0.444,0.622-0.67c0.214-0.236,0.406-0.488,0.598-0.742c0.169-0.224,0.313-0.468,0.458-0.708
	c0.074-0.122,0.144-0.247,0.215-0.37c0.063-0.111,0.118-0.229,0.176-0.343c0.147-0.294,0.263-0.604,0.365-0.916
	c0.125-0.379,0.192-0.772,0.257-1.165c0.003-0.015,0.005-0.029,0.007-0.043c0.008,0.016,0.015,0.031,0.022,0.047
	c0.24,0.518,0.483,1.033,0.754,1.536c0.132,0.245,0.27,0.485,0.413,0.723c0.146,0.24,0.301,0.475,0.449,0.712
	c0.145,0.23,0.296,0.457,0.428,0.695c0.142,0.256,0.283,0.512,0.421,0.77c0.192,0.356,0.4,0.704,0.59,1.062
	c0.194,0.368,0.37,0.745,0.532,1.128c0.029,0.068,0.058,0.136,0.087,0.204c0.105,0.285,0.207,0.571,0.284,0.866
	c0.039,0.151,0.081,0.304,0.107,0.459c0.023,0.142,0.045,0.283,0.065,0.425c0.059,0.507,0.102,1.015,0.147,1.522
	c0.022,0.254,0.053,0.508,0.062,0.763c0.004,0.119,0.001,0.238,0.001,0.357c0,0.262,0.029,0.523,0.05,0.784c0,0,0.001,0.001,0.001,0
	c0.042-0.261,0.075-0.522,0.133-0.779c0.026-0.12,0.055-0.24,0.072-0.361c0.043-0.277,0.064-0.557,0.088-0.836
	c0.049-0.56,0.092-1.119,0.092-1.681c0.001-0.594-0.109-1.185-0.255-1.758c-0.03-0.122-0.073-0.243-0.111-0.362
	c-0.048-0.149-0.098-0.298-0.149-0.446c-0.102-0.287-0.214-0.57-0.345-0.844c-0.252-0.527-0.516-1.05-0.797-1.563
	c-0.135-0.247-0.276-0.489-0.428-0.727c-0.146-0.229-0.292-0.458-0.437-0.689c-0.298-0.475-0.572-0.966-0.823-1.467
	c-0.253-0.507-0.479-1.026-0.7-1.547c-0.076-0.18-0.155-0.358-0.24-0.534c-0.047-0.099-0.095-0.196-0.144-0.294
	c-0.021-0.041-0.041-0.083-0.062-0.124c-0.036-0.074-0.09-0.167-0.149-0.22c-0.043-0.038-0.087-0.074-0.135-0.106
	c-0.106-0.062-0.196-0.068-0.315-0.082C22.534,11.988,22.438,12.014,22.348,12.066"/>
<path opacity="0.9753" fill="#292521" d="M22.151,12.444c0,0.004-0.001,0.009-0.002,0.013C22.15,12.453,22.15,12.449,22.151,12.444
	 M22.148,12.44L22.148,12.44c-0.005,0.008-0.011,0.016-0.018,0.023C22.137,12.456,22.143,12.448,22.148,12.44 M22.149,12.387
	c0.001,0.004,0.002,0.008,0.002,0.012C22.15,12.395,22.15,12.391,22.149,12.387 M20.935,11.334c0.057,0.01,0.111,0.025,0.165,0.045
	c0.121,0.057,0.229,0.137,0.335,0.218c-0.007-0.006-0.015-0.012-0.022-0.017c0.083,0.064,0.164,0.128,0.246,0.193
	c-0.132-0.039-0.266-0.072-0.396-0.112c-0.001,0-0.001,0-0.001,0.001c0.215,0.123,0.439,0.228,0.642,0.373
	c0.056,0.044,0.105,0.092,0.151,0.146c0.024,0.037,0.046,0.073,0.064,0.113c0.014,0.038,0.025,0.076,0.034,0.116
	c-0.097-0.019-0.191-0.034-0.291-0.03c-0.085,0.004-0.171,0.019-0.255,0.034c-0.127,0.022-0.248,0.067-0.366,0.117
	c-0.143,0.06-0.279,0.124-0.41,0.207c-0.113,0.072-0.226,0.146-0.334,0.224c-0.467,0.334-0.883,0.73-1.307,1.116
	c-0.239,0.218-0.479,0.432-0.73,0.634c-0.119,0.089-0.239,0.175-0.36,0.261c-0.146,0.101-0.303,0.186-0.456,0.274
	c-0.149,0.086-0.307,0.16-0.46,0.238c-0.167,0.083-0.334,0.167-0.504,0.243c-0.267,0.105-0.545,0.187-0.827,0.235
	c-0.21,0.021-0.421,0.017-0.631,0.017c-0.136,0-0.271-0.004-0.405-0.009c-0.29-0.009-0.58-0.02-0.868-0.053
	c-0.218-0.034-0.431-0.084-0.638-0.163c-0.153-0.073-0.297-0.16-0.434-0.259c-0.184-0.149-0.354-0.316-0.505-0.499
	c-0.033-0.046-0.064-0.093-0.094-0.141c0.119,0.035,0.239,0.064,0.362,0.087c0.219,0.04,0.441,0.068,0.663,0.081
	c0.211,0.012,0.423,0.002,0.634-0.015c0.434-0.034,0.865-0.1,1.285-0.217c0.411-0.115,0.808-0.288,1.179-0.498
	c0.132-0.075,0.258-0.161,0.387-0.242c0.122-0.077,0.236-0.17,0.353-0.255c0.142-0.104,0.274-0.218,0.41-0.329
	c0.145-0.12,0.284-0.245,0.429-0.365c0.188-0.157,0.376-0.315,0.563-0.473c0.146-0.123,0.289-0.248,0.434-0.372
	c0.165-0.141,0.332-0.276,0.501-0.412c0.217-0.159,0.44-0.308,0.687-0.418c0.112-0.043,0.225-0.074,0.343-0.094
	C20.648,11.32,20.792,11.319,20.935,11.334 M20.223,10.91c-0.194,0.022-0.381,0.075-0.562,0.148
	c-0.185,0.074-0.371,0.155-0.542,0.257c-0.237,0.142-0.47,0.289-0.699,0.444c-0.231,0.157-0.463,0.313-0.693,0.472
	c-0.339,0.232-0.671,0.473-1.006,0.711c-0.066,0.047-0.138,0.089-0.206,0.133c-0.072,0.046-0.144,0.097-0.218,0.138
	c-0.249,0.139-0.494,0.279-0.754,0.395c-0.414,0.166-0.847,0.286-1.288,0.352c-0.382,0.046-0.769,0.069-1.151,0.027
	c-0.122-0.019-0.243-0.041-0.363-0.069c-0.127-0.031-0.251-0.073-0.373-0.122c-0.119-0.055-0.235-0.112-0.349-0.179
	c-0.028-0.016-0.055-0.034-0.081-0.051c-0.019-0.012-0.035-0.023-0.054-0.037c-0.046-0.032-0.167-0.084-0.198-0.089
	c-0.11-0.018-0.218-0.044-0.329-0.005c-0.011,0.003-0.021,0.007-0.033,0.011c-0.095,0.027-0.177,0.075-0.247,0.144
	c-0.056,0.045-0.099,0.103-0.131,0.167c-0.031,0.053-0.053,0.11-0.064,0.17c-0.01,0.062-0.018,0.124-0.024,0.186
	c-0.008,0.068,0.015,0.172,0.023,0.229c0.006,0.041,0.014,0.081,0.021,0.121c0.018,0.087,0.048,0.172,0.08,0.255
	c0.086,0.226,0.194,0.442,0.32,0.648c0.154,0.254,0.355,0.474,0.562,0.686c0.05,0.051,0.107,0.098,0.16,0.146
	c0.155,0.141,0.329,0.268,0.508,0.377c0.188,0.115,0.395,0.201,0.603,0.271c0.224,0.076,0.46,0.11,0.693,0.139
	c0.303,0.038,0.609,0.049,0.915,0.056c0.316,0.007,0.635,0.015,0.95,0c0.423-0.02,0.84-0.125,1.232-0.278
	c0.246-0.096,0.478-0.217,0.71-0.342c0.521-0.279,1.021-0.602,1.454-1.007c0.194-0.182,0.38-0.371,0.556-0.57
	c0.183-0.208,0.362-0.418,0.547-0.625c0.172-0.192,0.337-0.391,0.518-0.575c0.177-0.18,0.358-0.355,0.554-0.515
	c0.137-0.099,0.277-0.188,0.43-0.262c0.093-0.037,0.188-0.07,0.286-0.088c0.038-0.003,0.077-0.003,0.116-0.003
	c0.045,0,0.099,0.001,0.143-0.011c0.054-0.015,0.097-0.044,0.139-0.079c0.064-0.054,0.082-0.148,0.084-0.227
	c0.003-0.099-0.058-0.2-0.109-0.279c-0.099-0.149-0.257-0.249-0.42-0.313c-0.003-0.001-0.006-0.002-0.009-0.003
	c-0.051-0.064-0.103-0.128-0.154-0.192c-0.037-0.046-0.075-0.093-0.112-0.14c-0.114-0.142-0.235-0.293-0.385-0.399
	c-0.142-0.101-0.302-0.155-0.471-0.189c-0.13-0.026-0.261-0.042-0.393-0.042C20.346,10.899,20.284,10.902,20.223,10.91"/>
<path opacity="0.9753" fill="#292521" d="M21.98,10.95c-0.002,0.001-0.004,0.002-0.007,0.003
	C21.977,10.952,21.979,10.951,21.98,10.95 M22,10.922c-0.002,0.001-0.004,0.003-0.006,0.004C21.996,10.925,21.998,10.923,22,10.922
	 M21.879,10.176c-0.126,0.008-0.225,0.038-0.336,0.096c-0.105,0.055-0.191,0.164-0.251,0.264c-0.07,0.119-0.091,0.263-0.1,0.398
	c-0.007,0.103,0.018,0.212,0.032,0.313c0.013,0.087,0.038,0.172,0.062,0.256c0.033,0.113,0.077,0.222,0.122,0.331
	c0.066,0.16,0.135,0.318,0.206,0.476c0.105,0.233,0.214,0.465,0.318,0.7c0.05,0.126,0.1,0.252,0.146,0.38
	c0.115,0.311,0.211,0.628,0.318,0.941c0,0.001,0.001,0.001,0.001,0c-0.01-0.386-0.02-0.77-0.059-1.155
	c-0.02-0.184-0.053-0.37-0.092-0.551c-0.092-0.423-0.209-0.844-0.276-1.271c-0.014-0.118-0.021-0.237-0.014-0.356
	c0.001-0.005,0.002-0.011,0.004-0.016c0.082,0.001,0.164,0.01,0.246,0.018c0.09,0.008,0.18,0.017,0.27,0.025
	c0.037,0.005,0.074,0.011,0.111,0.016c0.152,0.025,0.302,0.057,0.448,0.105c-0.02,0.087-0.039,0.173-0.054,0.261
	c-0.025,0.142-0.047,0.283-0.066,0.425c-0.018,0.131-0.037,0.268-0.039,0.4c-0.001,0.122-0.008,0.245,0,0.367
	c0.018,0.275,0.044,0.546,0.089,0.818c0.055,0.334,0.111,0.668,0.174,1.002c0,0.001,0.001,0,0.002,0
	c0.064-0.484,0.119-0.969,0.171-1.454c0.018-0.123,0.031-0.247,0.056-0.368c0.032-0.159,0.063-0.316,0.104-0.473
	c0.067-0.267,0.152-0.528,0.249-0.786c0.045-0.099,0.099-0.209,0.094-0.317c-0.005-0.113-0.026-0.224-0.092-0.318
	c-0.068-0.096-0.154-0.166-0.253-0.229c-0.085-0.054-0.187-0.087-0.279-0.123c-0.229-0.088-0.487-0.124-0.73-0.147
	c-0.139-0.013-0.277-0.022-0.416-0.029c-0.028-0.001-0.058-0.002-0.086-0.002C21.933,10.173,21.906,10.174,21.879,10.176"/>
<path opacity="0.9753" fill="#292521" d="M22.639,11.532c-0.118,0.177-0.187,0.386-0.263,0.584
	c-0.071,0.182-0.136,0.367-0.196,0.552c-0.001,0.001,0,0.001,0.001,0.001c0.113-0.136,0.224-0.274,0.331-0.415
	c0.035-0.047,0.071-0.094,0.105-0.142c0,0.025,0,0.051,0,0.076c0.002,0.141,0.009,0.281,0.017,0.421
	c-0.004,0.088,0.076,0.162,0.161,0.162c0.094,0,0.154-0.074,0.162-0.162c0.013-0.156,0.022-0.312,0.027-0.469
	c0.002-0.076,0.001-0.153,0-0.229c-0.001-0.038-0.002-0.076-0.003-0.114c-0.002-0.042-0.004-0.083-0.01-0.125
	c-0.009-0.051-0.027-0.094-0.048-0.141c-0.022-0.052-0.09-0.082-0.143-0.082C22.72,11.45,22.671,11.483,22.639,11.532"/>
<path opacity="0.9753" fill="#292521" d="M22.182,11.013c-0.063,0.112-0.083,0.255-0.097,0.38c-0.014,0.12-0.021,0.24-0.021,0.361
	c-0.001,0.112,0.006,0.224,0.011,0.336c0.001,0.017,0.002,0.034,0.003,0.05c-0.138-0.162-0.279-0.321-0.423-0.478
	c0,0-0.001,0-0.001,0c0.045,0.108,0.09,0.216,0.136,0.324c-0.002-0.004-0.004-0.009-0.006-0.014c0.078,0.188,0.16,0.375,0.244,0.562
	c-0.005-0.012-0.01-0.023-0.015-0.035c0.039,0.093,0.079,0.186,0.119,0.278c0.029,0.314,0.057,0.628,0.09,0.942
	c0.001,0,0.002,0.001,0.002,0c0.04-0.181,0.079-0.361,0.115-0.542c0.052,0.045,0.136,0.057,0.197,0.039
	c0.074-0.02,0.134-0.08,0.154-0.153c0.081-0.297,0.098-0.611,0.113-0.918c0.011-0.199,0.017-0.399,0.018-0.599
	c0.006-0.049,0.002-0.103,0.001-0.149c0-0.074,0-0.147-0.004-0.221c-0.006-0.157-0.096-0.296-0.252-0.339
	c-0.029-0.008-0.058-0.012-0.085-0.012C22.356,10.825,22.244,10.901,22.182,11.013"/>
<path opacity="0.9753" fill="#292521" d="M21.796,10.569c0,0,0.001,0.001,0.002,0.002l0,0C21.797,10.57,21.796,10.57,21.796,10.569
	L21.796,10.569 M21.784,10.555L21.784,10.555C21.785,10.555,21.785,10.555,21.784,10.555C21.785,10.555,21.785,10.555,21.784,10.555
	C21.784,10.555,21.784,10.555,21.784,10.555 M21.661,10.127c-0.076,0.021-0.128,0.077-0.17,0.14
	c-0.032,0.05-0.044,0.121-0.049,0.178c-0.008,0.07,0.004,0.135,0.013,0.205c0.009,0.058,0.04,0.123,0.064,0.175
	c0.032,0.067,0.069,0.131,0.109,0.193c0.075,0.116,0.158,0.228,0.237,0.341c0.008,0.012,0.017,0.024,0.024,0.036
	c0.019,0.221,0.042,0.441,0.07,0.661c0,0,0.001,0,0.001,0c0.036-0.144,0.069-0.287,0.101-0.432c0.021,0.026,0.041,0.053,0.062,0.079
	c0.188,0.239,0.387,0.469,0.58,0.703c0.001,0,0.002,0,0.002,0c-0.16-0.399-0.337-0.791-0.504-1.186
	c0.006,0.014,0.012,0.028,0.019,0.042c-0.021-0.047-0.04-0.095-0.061-0.142c0.011-0.062,0.02-0.125,0.028-0.188
	c0.01-0.068,0.019-0.136,0.026-0.205c0.018-0.153-0.011-0.305-0.106-0.428c-0.068-0.089-0.163-0.168-0.278-0.184
	c-0.022-0.003-0.044-0.005-0.065-0.005C21.73,10.112,21.697,10.117,21.661,10.127"/>
</svg>
