<?xml version="1.0" encoding="utf-8"?>
<!-- Generator: Adobe Illustrator 15.0.0, SVG Export Plug-In . SVG Version: 6.00 Build 0)  -->
<!DOCTYPE svg PUBLIC "-//W3C//DTD SVG 1.1//EN" "http://www.w3.org/Graphics/SVG/1.1/DTD/svg11.dtd">
<svg version="1.1" id="Capa_1" xmlns="http://www.w3.org/2000/svg" xmlns:xlink="http://www.w3.org/1999/xlink" x="0px" y="0px"
	 width="44px" height="44px" viewBox="0 0 44 44" enable-background="new 0 0 44 44" xml:space="preserve">
<g>
	<path opacity="0.9753" fill="#292521" d="M16.95,26.868c0.001,0.01,0.003,0.02,0.004,0.029
		C16.952,26.888,16.951,26.878,16.95,26.868 M28.986,13.619c-0.518,0.156-0.953,0.481-1.344,0.844
		c-0.271,0.251-0.512,0.548-0.747,0.833c-0.452,0.547-0.907,1.101-1.454,1.556c-0.144,0.102-0.292,0.194-0.449,0.273
		c-0.162,0.059-0.326,0.104-0.496,0.137c-0.066,0.005-0.133,0.009-0.2,0.008c-0.072-0.018-0.143-0.039-0.213-0.063
		c-0.229-0.118-0.445-0.265-0.652-0.42c-0.504-0.403-0.983-0.842-1.455-1.282c-0.204-0.19-0.406-0.381-0.613-0.567
		c-0.229-0.206-0.464-0.399-0.711-0.584c-0.353-0.264-0.781-0.432-1.207-0.534c-0.241-0.057-0.488-0.087-0.735-0.108
		c-0.259-0.022-0.522,0.024-0.776,0.076c-0.248,0.05-0.486,0.168-0.711,0.279c-0.208,0.103-0.398,0.237-0.581,0.378
		c-0.342,0.265-0.659,0.542-0.928,0.883c-0.154,0.195-0.302,0.383-0.41,0.607c-0.129,0.27-0.229,0.55-0.292,0.842
		c-0.108,0.494-0.141,1-0.152,1.504c-0.004,0.189,0.009,0.381,0.024,0.571c-0.097,0.024-0.195,0.044-0.293,0.062
		c-0.601,0.061-1.204,0.093-1.803,0.167c-0.46,0.058-0.903,0.143-1.337,0.31c-0.229,0.087-0.455,0.186-0.67,0.3
		c-0.245,0.129-0.466,0.302-0.684,0.472c-0.462,0.36-0.861,0.778-1.217,1.242c-0.527,0.689-0.878,1.493-0.958,2.36
		c-0.045,0.486-0.063,0.964,0.042,1.446c0.082,0.372,0.302,0.723,0.59,0.969c0.304,0.261,0.659,0.418,1.051,0.495
		c0.363,0.07,0.74,0.086,1.107,0.106c0.583,0.033,1.164,0.014,1.745-0.033c0.295-0.023,0.589-0.049,0.883-0.078
		c0.145-0.014,0.289-0.027,0.433-0.042c0.187-0.019,0.373-0.036,0.561-0.043c0.229-0.008,0.458,0.021,0.683,0.052
		c-0.008-0.001-0.016-0.002-0.024-0.003c0.271,0.039,0.54,0.085,0.811,0.122c0.002,0.001,0.003-0.001,0.001-0.002
		c-0.531-0.198-1.045-0.441-1.609-0.531c-0.283-0.046-0.57-0.066-0.855-0.097c-0.4-0.042-0.801-0.087-1.201-0.136
		c-0.357-0.051-0.711-0.111-1.064-0.188c-0.409-0.09-0.833-0.188-1.225-0.338c-0.079-0.038-0.153-0.08-0.226-0.129
		c-0.049-0.044-0.094-0.09-0.137-0.138c-0.019-0.029-0.037-0.06-0.054-0.09c-0.018-0.054-0.031-0.107-0.043-0.163
		c-0.009-0.155-0.001-0.309,0.015-0.464c0.056-0.34,0.127-0.668,0.248-0.991c0.105-0.221,0.232-0.427,0.375-0.625
		c0.221-0.269,0.465-0.51,0.731-0.734c0.309-0.23,0.621-0.446,0.969-0.615c0.264-0.098,0.535-0.168,0.812-0.218
		c0.366-0.035,0.732-0.032,1.1-0.029c0.262,0.002,0.523,0.004,0.786-0.007c0.712-0.031,1.473-0.092,2.084-0.495
		c0.248-0.164,0.49-0.389,0.617-0.661c0.104-0.224,0.189-0.438,0.186-0.691c-0.003-0.154-0.032-0.306-0.054-0.458
		c-0.015-0.099-0.036-0.196-0.055-0.294c-0.029-0.369-0.022-0.733,0.016-1.1c0.033-0.193,0.077-0.381,0.139-0.565
		c0.036-0.066,0.074-0.13,0.116-0.193c0.144-0.168,0.302-0.324,0.471-0.468c0.149-0.106,0.303-0.202,0.466-0.285
		c0.058-0.019,0.116-0.035,0.176-0.049c0.086-0.002,0.171,0,0.257,0.007c0.155,0.028,0.307,0.063,0.457,0.113
		c0.11,0.058,0.215,0.123,0.317,0.194c0.427,0.352,0.813,0.75,1.218,1.125c0.247,0.229,0.494,0.457,0.742,0.683
		c0.232,0.212,0.477,0.408,0.727,0.599c0.156,0.119,0.316,0.231,0.481,0.337c0.245,0.158,0.528,0.268,0.804,0.358
		c0.249,0.082,0.526,0.111,0.786,0.108c0.101-0.001,0.201-0.018,0.3-0.031c0.162-0.021,0.319-0.041,0.479-0.073
		c0.18-0.036,0.354-0.096,0.525-0.163c0.27-0.104,0.524-0.224,0.768-0.379c0.537-0.344,0.984-0.788,1.421-1.246
		c0.455-0.479,0.858-1.004,1.322-1.475c0.071-0.072,0.146-0.14,0.224-0.205c0.07-0.047,0.142-0.09,0.216-0.129
		c0.064-0.021,0.13-0.037,0.195-0.052c0.404-0.022,0.815,0.018,1.218,0.067c0.433,0.079,0.861,0.166,1.275,0.316
		c0.307,0.144,0.592,0.317,0.868,0.516c0.061,0.048,0.122,0.096,0.184,0.145c0.234,0.185,0.445,0.398,0.636,0.626
		c0.136,0.194,0.253,0.396,0.354,0.611c0.11,0.289,0.194,0.584,0.25,0.889c0.031,0.375,0.014,0.75-0.027,1.124
		c-0.037,0.227-0.089,0.448-0.165,0.665c-0.11,0.227-0.241,0.441-0.389,0.646c-0.19,0.229-0.395,0.441-0.622,0.635
		c-0.253,0.176-0.522,0.322-0.803,0.452c-0.24,0.092-0.48,0.175-0.726,0.255c-0.281,0.091-0.576,0.149-0.861,0.224
		c-0.601,0.156-1.182,0.345-1.758,0.572c-0.479,0.189-0.948,0.411-1.371,0.707c-0.345,0.24-0.672,0.507-0.941,0.831
		c-0.153,0.186-0.3,0.38-0.428,0.585c-0.16,0.256-0.272,0.549-0.37,0.832c-0.129,0.368-0.187,0.769-0.26,1.152
		c-0.057,0.3-0.111,0.601-0.175,0.9c-0.065,0.312-0.154,0.617-0.27,0.915c-0.172,0.379-0.376,0.738-0.618,1.077
		c-0.167,0.198-0.348,0.38-0.545,0.546c-0.166,0.116-0.339,0.219-0.521,0.307c-0.168,0.061-0.338,0.107-0.513,0.141
		c-0.37,0.032-0.74,0.02-1.11-0.021c-0.432-0.069-0.85-0.186-1.257-0.347c-0.424-0.19-0.821-0.421-1.195-0.696
		c-0.32-0.26-0.611-0.545-0.873-0.864c-0.252-0.343-0.451-0.713-0.621-1.104c-0.162-0.406-0.281-0.82-0.4-1.241
		c-0.076-0.267-0.137-0.534-0.23-0.797c-0.049-0.139-0.109-0.273-0.185-0.399c-0.075-0.125-0.185-0.265-0.311-0.342
		c-0.407-0.249-0.915-0.028-1.337,0.083c-0.408,0.106-0.815,0.215-1.222,0.325c-0.002,0-0.001,0.002,0,0.002
		c0.331-0.011,0.662-0.023,0.992-0.035c0.146-0.006,0.292-0.012,0.438-0.018c0.194-0.008,0.388-0.026,0.582-0.012
		c0.059,0.011,0.116,0.023,0.174,0.041c0.009,0.005,0.018,0.011,0.026,0.016c0.026,0.024,0.049,0.053,0.069,0.083
		c-0.014-0.019-0.028-0.037-0.043-0.056c0.034,0.057,0.063,0.112,0.091,0.171c0.057,0.165,0.085,0.336,0.108,0.509
		c0.046,0.451,0.075,0.902,0.145,1.351c0.136,0.882,0.435,1.735,0.939,2.475c1.002,1.47,2.646,2.47,4.399,2.729
		c0.254,0.037,0.506,0.066,0.762,0.073c0.243,0.008,0.486-0.022,0.726-0.061c0.468-0.075,0.911-0.252,1.324-0.482
		c0.218-0.122,0.42-0.28,0.614-0.437c0.148-0.119,0.286-0.246,0.419-0.382c0.188-0.191,0.347-0.411,0.51-0.623
		c0.147-0.192,0.276-0.398,0.397-0.607c0.351-0.602,0.576-1.259,0.724-1.936c0.063-0.292,0.113-0.588,0.172-0.881
		c0.067-0.332,0.139-0.667,0.253-0.986c0.067-0.133,0.142-0.26,0.227-0.383c0.135-0.158,0.281-0.303,0.441-0.437
		c0.302-0.212,0.623-0.378,0.955-0.537c0.503-0.195,1.008-0.373,1.53-0.512c0.297-0.079,0.595-0.153,0.892-0.231
		c0.288-0.077,0.566-0.176,0.845-0.282c0.343-0.131,0.678-0.28,0.997-0.46c0.431-0.24,0.825-0.565,1.163-0.925
		c0.648-0.691,1.16-1.531,1.355-2.466c0.096-0.455,0.14-0.933,0.145-1.398c0.005-0.517-0.075-1.035-0.218-1.531
		c-0.123-0.427-0.309-0.848-0.527-1.234c-0.129-0.227-0.29-0.432-0.451-0.636c-0.15-0.193-0.312-0.372-0.49-0.541
		c-0.151-0.144-0.315-0.272-0.478-0.403c-0.266-0.213-0.533-0.423-0.821-0.604c-0.554-0.348-1.171-0.557-1.801-0.715
		c-0.28-0.071-0.568-0.11-0.855-0.149c-0.366-0.05-0.729-0.085-1.097-0.108c-0.07-0.004-0.141-0.006-0.212-0.006
		C29.608,13.483,29.288,13.528,28.986,13.619"/>
	<path opacity="0.9753" fill="#292521" d="M23.311,26.438c0.001,0.007,0.002,0.013,0.003,0.019l0,0
		C23.312,26.451,23.312,26.445,23.311,26.438 M23.113,25.787c0.01,0.008,0.02,0.016,0.029,0.023
		C23.133,25.803,23.123,25.795,23.113,25.787L23.113,25.787 M23.112,25.787L23.112,25.787
		C23.113,25.787,23.113,25.787,23.112,25.787C23.112,25.787,23.112,25.787,23.112,25.787 M22.853,25.691
		c0.064,0.013,0.125,0.029,0.188,0.052c0.018,0.009,0.035,0.019,0.052,0.029c0.015,0.016,0.029,0.031,0.044,0.047
		c0.02,0.028,0.037,0.059,0.053,0.091c0.062,0.168,0.095,0.342,0.121,0.52c0.001,0.01,0.002,0.02,0.003,0.029
		c-0.043,0.162-0.092,0.323-0.152,0.48c-0.04,0.091-0.086,0.177-0.142,0.26c-0.048,0.057-0.098,0.107-0.154,0.155
		c-0.045,0.028-0.089,0.054-0.136,0.077c-0.049,0.015-0.096,0.026-0.146,0.035c-0.027,0.002-0.055,0.002-0.082,0
		c-0.133-0.026-0.259-0.062-0.386-0.11c-0.086-0.041-0.167-0.085-0.247-0.14c-0.02-0.018-0.039-0.036-0.057-0.056
		c-0.011-0.018-0.022-0.035-0.032-0.054c-0.014-0.043-0.025-0.084-0.034-0.128c-0.002-0.081,0.003-0.16,0.012-0.241
		c0.03-0.153,0.07-0.3,0.122-0.447c0.043-0.092,0.09-0.178,0.146-0.262c0.053-0.062,0.108-0.118,0.17-0.171
		c0.059-0.039,0.119-0.074,0.182-0.104c0.079-0.027,0.156-0.047,0.238-0.062C22.695,25.687,22.772,25.687,22.853,25.691
		 M21.529,25.306c-0.403,0.322-0.609,0.801-0.705,1.297c-0.045,0.241-0.03,0.485,0.042,0.72c0.085,0.273,0.277,0.47,0.504,0.631
		c0.217,0.155,0.52,0.223,0.78,0.251c0.252,0.028,0.49,0.019,0.724-0.087c0.651-0.296,0.759-0.942,0.737-1.594
		c0.039-0.205,0.064-0.411,0.063-0.619c0-0.23-0.097-0.436-0.243-0.605c-0.155-0.18-0.427-0.266-0.65-0.312
		c-0.093-0.019-0.188-0.027-0.282-0.027C22.149,24.959,21.803,25.087,21.529,25.306"/>
	<path opacity="0.9753" fill="#292521" d="M9.402,25.771c0.003,0.001,0.006,0.002,0.009,0.004
		C9.408,25.773,9.405,25.772,9.402,25.771 M8.662,25.341c0.161,0.211,0.313,0.437,0.507,0.619c0.098,0.093,0.207,0.176,0.315,0.257
		c0.221,0.164,0.458,0.308,0.705,0.429c0.553,0.271,1.184,0.303,1.788,0.34c0.271,0.018,0.543,0.028,0.814,0.023
		c0.294-0.005,0.586-0.027,0.881-0.043c0.587-0.03,1.187-0.049,1.772,0.014c0.02,0.002,0.04,0.005,0.059,0.007
		c0.168,0.027,0.332,0.066,0.492,0.125c0.147,0.069,0.286,0.151,0.418,0.246c0.102,0.087,0.193,0.182,0.279,0.284
		c0.141,0.195,0.254,0.407,0.352,0.627c0.224,0.547,0.393,1.115,0.584,1.674c0.001,0.002,0.003,0.001,0.003-0.001
		c0.019-0.594,0.042-1.197-0.038-1.788c-0.074-0.559-0.273-1.069-0.651-1.491c-0.338-0.377-0.814-0.627-1.304-0.74
		c-0.466-0.107-0.967-0.168-1.447-0.156c-0.493,0.014-0.982,0.103-1.47,0.175c-0.355,0.043-0.71,0.084-1.066,0.12
		c-0.375,0.039-0.739,0.068-1.115,0.037c-0.384-0.062-0.757-0.173-1.118-0.317c-0.269-0.118-0.509-0.286-0.759-0.441h0
		C8.663,25.339,8.662,25.34,8.662,25.341"/>
</g>
</svg>
