<?xml version="1.0" encoding="utf-8"?>
<!-- Generator: Adobe Illustrator 15.0.0, SVG Export Plug-In . SVG Version: 6.00 Build 0)  -->
<!DOCTYPE svg PUBLIC "-//W3C//DTD SVG 1.1//EN" "http://www.w3.org/Graphics/SVG/1.1/DTD/svg11.dtd">
<svg version="1.1" id="Capa_1" xmlns="http://www.w3.org/2000/svg" xmlns:xlink="http://www.w3.org/1999/xlink" x="0px" y="0px"
	 width="20px" height="20px" viewBox="12.5 12.5 20 20" enable-background="new 12.5 12.5 20 20" xml:space="preserve">
<g>
	<path fill="#FFFFFF" d="M17.438,25.476c0,0.001,0,0.002,0,0.003C17.438,25.478,17.438,25.477,17.438,25.476 M22.741,18.77
		c-0.013,0.006-0.025,0.011-0.037,0.016C22.716,18.78,22.729,18.774,22.741,18.77 M26.875,18.509
		c-0.01-0.002-0.02-0.003-0.029-0.004C26.855,18.506,26.865,18.507,26.875,18.509 M30.063,20.913
		c-0.205-0.427-0.411-0.854-0.625-1.278c-0.062-0.124-0.131-0.245-0.206-0.362c-0.107-0.168-0.251-0.311-0.396-0.445
		c-0.217-0.202-0.453-0.396-0.714-0.538c-0.279-0.151-0.565-0.287-0.873-0.373c-0.205-0.057-0.41-0.11-0.617-0.156
		c-0.187-0.042-0.376-0.07-0.565-0.097c-0.233-0.032-0.467-0.063-0.701-0.087c-0.196-0.021-0.393-0.031-0.589-0.041
		c-0.193-0.01-0.387-0.022-0.58-0.021c-0.212,0-0.421,0.005-0.631,0.024c-0.324,0.031-0.645,0.099-0.946,0.225
		c-0.124,0.052-0.249,0.101-0.368,0.162c-0.102,0.051-0.202,0.103-0.301,0.159c-0.179,0.103-0.351,0.216-0.521,0.332
		c-0.161,0.11-0.314,0.233-0.469,0.353c-0.151,0.116-0.306,0.227-0.462,0.338c-0.338,0.239-0.695,0.473-0.961,0.795
		c-0.153,0.187-0.287,0.382-0.412,0.587c-0.099,0.164-0.189,0.333-0.29,0.496c-0.106,0.172-0.22,0.338-0.337,0.502
		c-0.105,0.147-0.207,0.296-0.293,0.456c-0.191,0.358-0.313,0.739-0.43,1.126c-0.057,0.187-0.117,0.372-0.173,0.56
		c-0.056,0.182-0.087,0.372-0.113,0.56c-0.026,0.188-0.033,0.379-0.038,0.568c-0.003,0.087-0.004,0.175-0.002,0.263
		c0.001,0.042,0.003,0.085,0.005,0.127c0.005,0.111-0.002,0.219-0.015,0.329c-0.015,0.107-0.031,0.215-0.045,0.323
		c0,0.001,0.002,0.001,0.002,0c0.062-0.18,0.138-0.357,0.177-0.544c0.014-0.07,0.021-0.144,0.033-0.215
		c0.023-0.144,0.055-0.286,0.088-0.428c0.061-0.26,0.141-0.507,0.241-0.752c0.136-0.3,0.285-0.594,0.426-0.892
		c0.134-0.283,0.298-0.548,0.482-0.802c0.164-0.203,0.352-0.387,0.512-0.592c0.102-0.131,0.207-0.262,0.304-0.396
		c0.086-0.121,0.172-0.242,0.261-0.362c0.071-0.089,0.142-0.178,0.221-0.261c0.086-0.091,0.179-0.174,0.274-0.255
		c0.173-0.126,0.351-0.242,0.531-0.359c0.21-0.137,0.416-0.278,0.617-0.428c0.189-0.14,0.381-0.277,0.581-0.401
		c0.11-0.068,0.22-0.136,0.334-0.198c0.112-0.063,0.228-0.119,0.343-0.177c0.048-0.021,0.097-0.04,0.145-0.061
		c0.15-0.058,0.303-0.105,0.459-0.143c0.072-0.018,0.147-0.028,0.221-0.043c-0.003,0-0.005,0-0.008,0.001
		c0.039-0.005,0.077-0.011,0.116-0.016c0.528-0.04,1.057-0.05,1.587-0.055c0.532-0.005,1.064,0.033,1.593,0.096
		c0.058,0.008,0.114,0.016,0.172,0.022c0.316,0.045,0.623,0.131,0.919,0.25c0.143,0.065,0.274,0.145,0.406,0.229
		c0.071,0.045,0.138,0.098,0.205,0.149c0.154,0.126,0.293,0.26,0.419,0.414c0.052,0.064,0.103,0.13,0.152,0.194
		c0.283,0.382,0.568,0.762,0.855,1.139C30.062,20.915,30.063,20.915,30.063,20.913C30.063,20.914,30.063,20.914,30.063,20.913"/>
	<path fill="#FFFFFF" d="M21.602,17.882c-0.007-0.001-0.015-0.002-0.022-0.003C21.587,17.88,21.595,17.881,21.602,17.882
		 M28.455,20.191c-0.01,0.002-0.02,0.003-0.03,0.004C28.436,20.194,28.445,20.192,28.455,20.191 M29.758,20.531
		c-0.05-0.103-0.093-0.209-0.15-0.308c-0.035-0.062-0.086-0.104-0.148-0.136c-0.083-0.043-0.172-0.079-0.263-0.104
		c-0.161-0.044-0.327-0.058-0.493-0.069c-0.406-0.028-0.808-0.021-1.21,0.047c-0.407,0.07-0.809,0.157-1.21,0.25
		c-0.389,0.088-0.767,0.215-1.128,0.385c-0.332,0.155-0.657,0.328-0.97,0.52c-0.348,0.212-0.688,0.445-0.999,0.71
		c-0.132,0.112-0.264,0.229-0.375,0.365c-0.144,0.177-0.28,0.357-0.413,0.544c-0.106,0.147-0.206,0.301-0.311,0.449
		c-0.094,0.134-0.194,0.265-0.292,0.396c-0.114,0.143-0.233,0.284-0.342,0.431c-0.102,0.137-0.206,0.273-0.288,0.424
		c-0.084,0.154-0.172,0.309-0.241,0.471c-0.093,0.22-0.178,0.442-0.268,0.663c-0.094,0.205-0.208,0.398-0.34,0.58
		c-0.131,0.164-0.272,0.32-0.41,0.478c-0.218,0.248-0.437,0.497-0.691,0.708c-0.069,0.05-0.14,0.094-0.215,0.134
		c-0.049,0.017-0.098,0.03-0.149,0.041c-0.251,0.018-0.508,0.003-0.759-0.007c-0.217-0.008-0.433-0.021-0.648-0.041
		c-0.121-0.018-0.239-0.037-0.356-0.07c-0.138-0.039-0.271-0.085-0.404-0.137c-0.137-0.063-0.27-0.131-0.394-0.217
		c-0.058-0.05-0.112-0.104-0.163-0.161c-0.048-0.068-0.09-0.14-0.126-0.216c-0.045-0.126-0.076-0.257-0.098-0.39
		c-0.024-0.248-0.023-0.5-0.022-0.75c0-0.074,0.001-0.149,0-0.225c-0.001-0.265,0-0.529,0.004-0.794
		c0.004-0.293,0.013-0.586,0.026-0.878c0.011-0.23,0.038-0.459,0.066-0.688c0.047-0.291,0.095-0.579,0.171-0.864
		c0.041-0.153,0.086-0.302,0.137-0.453c0.042-0.125,0.091-0.248,0.14-0.371c0.075-0.171,0.151-0.341,0.24-0.505
		c0.104-0.189,0.229-0.365,0.353-0.543c0.177-0.218,0.359-0.433,0.542-0.646c0.271-0.314,0.524-0.647,0.846-0.911
		c0.171-0.124,0.35-0.227,0.537-0.322c0.085-0.043,0.172-0.08,0.26-0.117c0.328-0.122,0.656-0.229,1.002-0.283
		c0.245-0.027,0.492-0.041,0.738-0.05c0.223-0.008,0.442-0.012,0.664,0.013c0.191,0.029,0.375,0.079,0.561,0.132
		c0.227,0.063,0.454,0.128,0.681,0.19c0.001,0,0.001-0.001,0-0.001c-0.208-0.108-0.417-0.216-0.626-0.322
		c-0.185-0.094-0.369-0.184-0.567-0.247c-0.178-0.058-0.365-0.091-0.551-0.114c-0.193-0.024-0.388-0.047-0.582-0.062
		c-0.159-0.012-0.316-0.022-0.475-0.019c-0.141,0.004-0.282,0.024-0.422,0.041c-0.208,0.025-0.421,0.067-0.623,0.127
		c-0.285,0.085-0.561,0.185-0.827,0.32c-0.368,0.187-0.664,0.468-0.955,0.754c-0.292,0.287-0.578,0.583-0.85,0.889
		c-0.08,0.091-0.151,0.188-0.224,0.284c-0.116,0.152-0.225,0.307-0.321,0.473c-0.141,0.239-0.251,0.499-0.354,0.757
		c-0.072,0.18-0.144,0.362-0.193,0.551c-0.029,0.11-0.058,0.222-0.087,0.332c-0.029,0.111-0.045,0.226-0.067,0.337
		c-0.043,0.217-0.07,0.439-0.096,0.658c-0.024,0.199-0.048,0.4-0.057,0.601c-0.036,0.824-0.037,1.648-0.04,2.472
		c0,0.264,0.033,0.526,0.09,0.783c0.061,0.271,0.197,0.515,0.37,0.729c0.162,0.2,0.371,0.36,0.596,0.481
		c0.132,0.071,0.272,0.129,0.411,0.184c0.188,0.074,0.378,0.137,0.576,0.178c0.227,0.048,0.465,0.077,0.698,0.088
		c0.309,0.015,0.618,0.02,0.927,0.022c0.188,0.002,0.372-0.01,0.557-0.046c0.104-0.021,0.212-0.066,0.306-0.111
		c0.095-0.047,0.181-0.1,0.266-0.161c0.181-0.133,0.345-0.281,0.499-0.443c0.073-0.077,0.143-0.158,0.213-0.238
		c0.09-0.101,0.176-0.203,0.262-0.306c0.119-0.141,0.24-0.279,0.353-0.425c0.134-0.173,0.254-0.351,0.359-0.543
		c0.092-0.169,0.162-0.352,0.23-0.532c0.046-0.12,0.093-0.239,0.142-0.358c0.073-0.146,0.149-0.291,0.228-0.435
		c0.064-0.115,0.143-0.222,0.223-0.326c0.24-0.294,0.48-0.591,0.694-0.905c0.193-0.284,0.376-0.575,0.58-0.853
		c0.065-0.074,0.131-0.146,0.201-0.217s0.144-0.138,0.216-0.206c0.15-0.143,0.318-0.269,0.481-0.397
		c0.268-0.203,0.538-0.398,0.821-0.578c0.3-0.191,0.605-0.361,0.93-0.508c0.363-0.145,0.73-0.279,1.101-0.406
		c0.198-0.068,0.395-0.143,0.598-0.196c0.196-0.051,0.394-0.09,0.595-0.117c0.254-0.032,0.513-0.07,0.768-0.044
		c0.083,0.013,0.163,0.03,0.243,0.056c0.017,0.01,0.032,0.02,0.048,0.029c0.039,0.038,0.074,0.077,0.108,0.12
		c-0.001-0.002-0.003-0.003-0.004-0.005c0.046,0.062,0.091,0.124,0.138,0.186C29.758,20.534,29.758,20.533,29.758,20.531
		C29.758,20.531,29.758,20.531,29.758,20.531"/>
</g>
</svg>
