<?xml version="1.0" encoding="utf-8"?>
<!-- Generator: Adobe Illustrator 15.0.0, SVG Export Plug-In . SVG Version: 6.00 Build 0)  -->
<!DOCTYPE svg PUBLIC "-//W3C//DTD SVG 1.1//EN" "http://www.w3.org/Graphics/SVG/1.1/DTD/svg11.dtd">
<svg version="1.1" id="Capa_1" xmlns="http://www.w3.org/2000/svg" xmlns:xlink="http://www.w3.org/1999/xlink" x="0px" y="0px"
	 width="45px" height="45px" viewBox="0 0 45 45" enable-background="new 0 0 45 45" xml:space="preserve">
<g>
	<path fill="#FFFFFF" d="M12.397,26.754c0,0.002,0,0.004,0,0.006C12.397,26.758,12.397,26.756,12.397,26.754 M22.458,14.032
		c-0.023,0.011-0.047,0.021-0.07,0.03C22.411,14.053,22.435,14.042,22.458,14.032 M30.3,13.537
		c-0.018-0.003-0.036-0.005-0.055-0.008C30.264,13.532,30.282,13.534,30.3,13.537 M36.35,18.099
		c-0.391-0.811-0.781-1.621-1.187-2.425c-0.118-0.235-0.249-0.466-0.392-0.688c-0.203-0.319-0.476-0.589-0.75-0.846
		c-0.412-0.383-0.858-0.751-1.354-1.021c-0.528-0.287-1.071-0.545-1.655-0.707c-0.389-0.108-0.777-0.209-1.171-0.297
		c-0.354-0.079-0.713-0.133-1.073-0.183c-0.441-0.062-0.885-0.12-1.33-0.166c-0.371-0.038-0.744-0.059-1.115-0.077
		c-0.367-0.019-0.734-0.042-1.102-0.041c-0.4,0.001-0.798,0.01-1.195,0.047c-0.615,0.059-1.226,0.187-1.796,0.426
		c-0.235,0.099-0.472,0.191-0.698,0.307c-0.193,0.097-0.383,0.196-0.571,0.304c-0.34,0.193-0.665,0.409-0.989,0.63
		c-0.306,0.208-0.596,0.442-0.89,0.668c-0.287,0.221-0.581,0.431-0.877,0.641c-0.641,0.455-1.319,0.897-1.824,1.509
		c-0.29,0.353-0.543,0.725-0.78,1.113c-0.188,0.311-0.359,0.632-0.551,0.941c-0.201,0.326-0.417,0.64-0.64,0.951
		c-0.2,0.28-0.393,0.562-0.556,0.866c-0.362,0.679-0.594,1.402-0.815,2.136c-0.107,0.354-0.222,0.706-0.329,1.061
		c-0.105,0.345-0.165,0.706-0.215,1.062c-0.05,0.355-0.062,0.717-0.072,1.076c-0.006,0.166-0.007,0.332-0.003,0.498
		c0.002,0.08,0.005,0.161,0.009,0.241c0.01,0.211-0.004,0.415-0.028,0.625c-0.028,0.204-0.059,0.408-0.086,0.613
		c0,0.002,0.004,0.002,0.005,0c0.118-0.341,0.262-0.679,0.336-1.032c0.027-0.134,0.04-0.271,0.062-0.407
		c0.044-0.272,0.104-0.543,0.167-0.812c0.114-0.491,0.268-0.961,0.457-1.426c0.259-0.568,0.541-1.126,0.809-1.69
		c0.255-0.538,0.566-1.041,0.915-1.521c0.312-0.386,0.667-0.733,0.971-1.123c0.194-0.249,0.393-0.496,0.576-0.752
		c0.164-0.23,0.327-0.46,0.495-0.688c0.135-0.169,0.27-0.338,0.419-0.494c0.164-0.173,0.34-0.33,0.521-0.484
		c0.328-0.238,0.666-0.459,1.007-0.681c0.398-0.261,0.788-0.529,1.171-0.812c0.358-0.265,0.722-0.527,1.101-0.762
		c0.21-0.13,0.418-0.257,0.634-0.377c0.213-0.119,0.432-0.226,0.65-0.334c0.092-0.039,0.184-0.077,0.275-0.116
		c0.285-0.108,0.573-0.199,0.87-0.27c0.138-0.033,0.279-0.055,0.419-0.082c-0.005,0-0.01,0.001-0.016,0.002
		c0.074-0.01,0.146-0.02,0.222-0.03c1.002-0.075,2.005-0.094,3.011-0.103c1.01-0.009,2.02,0.063,3.021,0.181
		c0.107,0.015,0.217,0.029,0.324,0.044c0.601,0.085,1.183,0.247,1.744,0.474c0.271,0.124,0.521,0.273,0.771,0.433
		c0.136,0.085,0.263,0.186,0.39,0.283c0.293,0.239,0.557,0.493,0.795,0.787c0.1,0.121,0.193,0.245,0.289,0.368
		c0.537,0.724,1.077,1.444,1.623,2.16C36.348,18.102,36.35,18.102,36.35,18.099C36.35,18.1,36.35,18.1,36.35,18.099"/>
	<path fill="#FFFFFF" d="M20.297,12.349c-0.014-0.002-0.028-0.004-0.042-0.006C20.269,12.345,20.283,12.347,20.297,12.349
		 M33.297,16.729c-0.02,0.003-0.037,0.005-0.057,0.007C33.26,16.734,33.277,16.731,33.297,16.729 M35.77,17.375
		c-0.095-0.195-0.177-0.396-0.285-0.585c-0.067-0.118-0.162-0.195-0.281-0.258c-0.158-0.081-0.326-0.149-0.498-0.196
		c-0.307-0.083-0.621-0.109-0.938-0.131c-0.771-0.054-1.531-0.041-2.295,0.09c-0.771,0.132-1.533,0.298-2.296,0.473
		c-0.737,0.168-1.452,0.409-2.14,0.73c-0.629,0.294-1.245,0.623-1.838,0.985c-0.661,0.402-1.305,0.846-1.896,1.347
		c-0.251,0.214-0.502,0.437-0.712,0.693c-0.272,0.335-0.532,0.679-0.783,1.031c-0.2,0.281-0.391,0.57-0.589,0.853
		c-0.178,0.255-0.367,0.502-0.555,0.75c-0.217,0.271-0.441,0.538-0.648,0.817c-0.192,0.26-0.391,0.519-0.547,0.803
		c-0.16,0.293-0.325,0.587-0.456,0.895c-0.177,0.417-0.338,0.84-0.509,1.26c-0.178,0.387-0.394,0.754-0.645,1.1
		c-0.249,0.311-0.516,0.607-0.778,0.906c-0.414,0.47-0.829,0.942-1.312,1.344c-0.131,0.094-0.265,0.178-0.408,0.253
		c-0.093,0.032-0.187,0.058-0.282,0.077c-0.477,0.033-0.964,0.006-1.44-0.012c-0.411-0.017-0.82-0.041-1.229-0.078
		c-0.229-0.033-0.454-0.071-0.677-0.135c-0.261-0.074-0.514-0.16-0.767-0.259c-0.26-0.121-0.511-0.248-0.747-0.411
		c-0.11-0.095-0.213-0.195-0.309-0.306c-0.091-0.13-0.171-0.267-0.24-0.409c-0.086-0.24-0.144-0.488-0.186-0.74
		c-0.047-0.471-0.044-0.947-0.042-1.422c0-0.143,0.002-0.285,0.001-0.427c-0.002-0.502-0.001-1.005,0.007-1.506
		c0.008-0.556,0.024-1.111,0.051-1.667c0.021-0.438,0.071-0.87,0.125-1.303c0.089-0.552,0.181-1.1,0.325-1.64
		c0.077-0.291,0.163-0.573,0.26-0.859c0.079-0.238,0.173-0.472,0.265-0.705c0.143-0.324,0.286-0.646,0.456-0.957
		c0.197-0.359,0.436-0.693,0.669-1.03c0.336-0.414,0.682-0.82,1.029-1.226c0.513-0.598,0.993-1.229,1.604-1.729
		c0.324-0.234,0.664-0.429,1.02-0.61c0.161-0.083,0.327-0.153,0.493-0.224c0.622-0.23,1.245-0.436,1.902-0.536
		c0.464-0.052,0.934-0.078,1.399-0.095c0.423-0.015,0.839-0.022,1.26,0.024c0.363,0.055,0.711,0.149,1.064,0.249
		c0.431,0.121,0.86,0.243,1.292,0.362c0.002,0,0.003-0.003,0.001-0.003c-0.396-0.205-0.79-0.409-1.188-0.61
		c-0.351-0.178-0.7-0.349-1.075-0.47c-0.339-0.109-0.692-0.172-1.045-0.216c-0.367-0.047-0.735-0.089-1.104-0.118
		c-0.301-0.023-0.6-0.044-0.901-0.035c-0.268,0.007-0.534,0.045-0.8,0.077c-0.395,0.048-0.8,0.127-1.182,0.241
		c-0.541,0.16-1.063,0.35-1.568,0.606c-0.697,0.354-1.26,0.888-1.812,1.431c-0.553,0.545-1.096,1.104-1.612,1.687
		c-0.152,0.171-0.287,0.356-0.425,0.538c-0.22,0.289-0.426,0.583-0.609,0.896c-0.268,0.454-0.476,0.947-0.671,1.436
		c-0.136,0.342-0.271,0.688-0.365,1.045c-0.055,0.211-0.11,0.421-0.165,0.631s-0.085,0.428-0.127,0.64
		c-0.081,0.411-0.133,0.832-0.183,1.247c-0.046,0.379-0.091,0.76-0.108,1.141c-0.068,1.562-0.069,3.127-0.075,4.689
		c-0.001,0.5,0.062,0.996,0.171,1.483c0.115,0.515,0.374,0.978,0.701,1.386c0.307,0.379,0.704,0.683,1.131,0.912
		c0.25,0.135,0.517,0.245,0.779,0.35c0.355,0.141,0.717,0.259,1.092,0.337c0.431,0.09,0.883,0.146,1.324,0.167
		c0.586,0.027,1.172,0.037,1.758,0.043c0.357,0.003,0.706-0.02,1.057-0.088c0.197-0.039,0.402-0.125,0.58-0.213
		c0.18-0.088,0.344-0.188,0.505-0.306c0.343-0.252,0.653-0.532,0.945-0.841c0.139-0.146,0.271-0.3,0.404-0.451
		c0.17-0.189,0.334-0.386,0.497-0.58c0.226-0.268,0.456-0.529,0.669-0.807c0.254-0.328,0.482-0.664,0.681-1.029
		c0.174-0.32,0.307-0.667,0.437-1.009c0.087-0.229,0.177-0.455,0.27-0.681c0.139-0.279,0.282-0.553,0.433-0.825
		c0.121-0.218,0.271-0.42,0.422-0.619c0.456-0.558,0.912-1.12,1.317-1.716c0.366-0.54,0.713-1.092,1.101-1.618
		c0.124-0.141,0.248-0.278,0.383-0.411c0.133-0.133,0.271-0.262,0.407-0.391c0.286-0.271,0.604-0.511,0.915-0.755
		c0.506-0.385,1.021-0.755,1.557-1.097c0.568-0.363,1.149-0.686,1.765-0.963c0.688-0.274,1.387-0.529,2.089-0.771
		c0.375-0.129,0.748-0.271,1.133-0.372c0.373-0.098,0.747-0.171,1.129-0.224c0.481-0.061,0.973-0.132,1.456-0.083
		c0.157,0.024,0.31,0.059,0.462,0.106c0.03,0.018,0.061,0.036,0.09,0.055c0.074,0.073,0.142,0.146,0.207,0.229
		c-0.004-0.003-0.007-0.006-0.009-0.009C35.594,17.141,35.68,17.259,35.77,17.375C35.77,17.379,35.77,17.377,35.77,17.375
		L35.77,17.375"/>
</g>
</svg>
