<?xml version="1.0" encoding="utf-8"?>
<!-- Generator: Adobe Illustrator 15.0.0, SVG Export Plug-In . SVG Version: 6.00 Build 0)  -->
<!DOCTYPE svg PUBLIC "-//W3C//DTD SVG 1.1//EN" "http://www.w3.org/Graphics/SVG/1.1/DTD/svg11.dtd">
<svg version="1.1" xmlns="http://www.w3.org/2000/svg" xmlns:xlink="http://www.w3.org/1999/xlink" x="0px" y="0px" width="44px"
	 height="44px" viewBox="0 0 44 44" enable-background="new 0 0 44 44" xml:space="preserve">
<g id="Capa_2_1_">
	<path fill="#FFFFFF" d="M34,21.333C34.274,28.23,29.403,34,22.5,34S10,28.403,10,21.5S13.764,10,20.667,10S33.827,16.988,34,21.333
		z"/>
</g>
<g id="Capa_1">
	<g>
		<path fill="#292521" d="M25.045,18.182c-0.247,0.016-0.494,0.047-0.738,0.089c-0.236,0.04-0.47,0.115-0.697,0.19
			c-0.218,0.071-0.427,0.165-0.636,0.253c-0.308,0.131-0.607,0.278-0.907,0.425c-0.518,0.255-1.02,0.545-1.507,0.852
			c-0.249,0.158-0.495,0.32-0.737,0.488c-0.129,0.09-0.254,0.182-0.379,0.276c-0.122,0.093-0.261,0.197-0.347,0.327
			c-0.105,0.159-0.172,0.337-0.245,0.515c0,0,0,0,0-0.002c-0.007,0.018-0.013,0.033-0.021,0.05c0,0.001,0.001,0.001,0.001,0.001
			c0.146-0.153,0.27-0.331,0.433-0.467c0.176-0.118,0.37-0.219,0.562-0.312c0.124-0.062,0.247-0.123,0.371-0.184
			c0.287-0.138,0.574-0.271,0.862-0.409c0.19-0.078,0.381-0.158,0.569-0.238c0.221-0.078,0.443-0.157,0.664-0.236
			c0.112-0.04,0.232-0.066,0.346-0.1c0.124-0.036,0.249-0.072,0.373-0.109c0.107-0.033,0.221-0.053,0.33-0.08
			c0.137-0.033,0.271-0.069,0.406-0.106c0.626-0.172,1.265-0.305,1.908-0.396c0.599-0.075,1.199-0.096,1.803-0.083
			c0.43,0.009,0.861,0.011,1.291,0.01c0.001,0,0.001-0.001,0-0.001c-0.441-0.166-0.887-0.318-1.335-0.461
			c-0.306-0.097-0.619-0.167-0.935-0.218c-0.351-0.056-0.705-0.087-1.06-0.087C25.296,18.171,25.17,18.174,25.045,18.182"/>
		<path fill="#292521" d="M18.264,17.19c0.24,0.15,0.475,0.312,0.73,0.436c0.157,0.076,0.327,0.124,0.494,0.173
			c0.184,0.055,0.369,0.106,0.552,0.164c0.428,0.135,0.857,0.273,1.273,0.444c0.286,0.125,0.561,0.276,0.832,0.435
			c0.14,0.083,0.283,0.16,0.424,0.244c0.304,0.183,0.612,0.354,0.927,0.519c0.264,0.137,0.531,0.263,0.798,0.394
			c0.175,0.087,0.351,0.17,0.526,0.253c0.369,0.173,0.723,0.389,1.057,0.62c0.089,0.062,0.176,0.127,0.262,0.193
			c0.203,0.156,0.396,0.324,0.596,0.488c0.232,0.191,0.467,0.384,0.703,0.574c0.002,0,0.002,0,0.002-0.002
			c-0.229-0.39-0.47-0.772-0.717-1.15c-0.208-0.318-0.462-0.613-0.732-0.88c-0.25-0.243-0.53-0.457-0.821-0.647
			c-0.545-0.355-1.108-0.686-1.685-0.993c-0.291-0.155-0.587-0.297-0.89-0.432c-0.277-0.124-0.56-0.242-0.852-0.328
			c-0.23-0.067-0.466-0.109-0.702-0.15c-0.308-0.053-0.618-0.088-0.929-0.114c-0.329-0.027-0.661-0.02-0.989-0.053
			C18.833,17.336,18.551,17.249,18.264,17.19L18.264,17.19C18.263,17.189,18.263,17.189,18.264,17.19"/>
		<path fill="#292521" d="M21.213,14.943c0.312-0.004,0.622-0.008,0.932,0.006c0.327,0.016,0.654,0.028,0.98,0.059
			c0.346,0.032,0.691,0.065,1.037,0.097c0.152,0.015,0.306,0.034,0.457,0.051c0.191,0.031,0.385,0.058,0.572,0.101
			c0.143,0.032,0.284,0.064,0.426,0.096c0.108,0.024,0.217,0.061,0.324,0.091c0.49,0.138,0.971,0.31,1.441,0.505
			c0.434,0.187,0.842,0.418,1.245,0.661c0.215,0.233,0.409,0.484,0.606,0.732c0.166,0.221,0.334,0.442,0.496,0.666
			c0.076,0.103,0.149,0.205,0.223,0.311c0.084,0.124,0.175,0.246,0.252,0.374c0.35,0.579,0.688,1.164,0.961,1.784
			c0.162,0.402,0.281,0.817,0.35,1.248c0.073,0.649,0.042,1.311,0.02,1.963c-0.012,0.373-0.053,0.741-0.098,1.112
			c-0.033,0.174-0.065,0.348-0.1,0.521c-0.075,0.396-0.2,0.784-0.352,1.156c-0.088,0.196-0.184,0.389-0.281,0.579
			c-0.061,0.113-0.116,0.229-0.182,0.338c-0.266,0.449-0.531,0.896-0.844,1.312c-0.301,0.377-0.637,0.73-1.012,1.036
			c-0.455,0.331-0.958,0.585-1.459,0.839c-0.268,0.135-0.537,0.268-0.812,0.387c-0.546,0.223-1.117,0.387-1.699,0.477
			c-0.558,0.062-1.121,0.043-1.681,0.029c-0.469-0.012-0.938-0.025-1.404-0.08c-0.268-0.043-0.528-0.1-0.79-0.168
			c-0.143-0.037-0.285-0.072-0.424-0.119c-0.152-0.053-0.308-0.096-0.457-0.156c-0.138-0.055-0.277-0.109-0.416-0.164
			c-0.233-0.105-0.465-0.211-0.693-0.326c-0.27-0.135-0.536-0.277-0.802-0.422c-0.237-0.126-0.467-0.27-0.69-0.42
			c-0.116-0.078-0.236-0.152-0.347-0.236c-0.085-0.065-0.171-0.129-0.256-0.194c-0.302-0.257-0.597-0.517-0.875-0.798
			c-0.29-0.291-0.568-0.594-0.839-0.903c-0.218-0.29-0.43-0.586-0.62-0.897c-0.121-0.196-0.241-0.396-0.355-0.599
			c-0.099-0.176-0.187-0.356-0.276-0.538c-0.099-0.246-0.197-0.494-0.267-0.751c-0.043-0.161-0.096-0.323-0.13-0.487
			c-0.043-0.209-0.089-0.416-0.124-0.627c-0.045-0.44-0.021-0.892-0.01-1.334c0.008-0.308,0.032-0.611,0.059-0.916
			c0.016-0.112,0.034-0.225,0.056-0.336c0.04-0.19,0.082-0.378,0.133-0.565c0.05-0.185,0.111-0.362,0.171-0.543
			c0.052-0.158,0.125-0.31,0.19-0.463c-0.024,0.056-0.047,0.112-0.071,0.169c0.131-0.265,0.257-0.537,0.413-0.788
			c0.081-0.13,0.156-0.267,0.244-0.393c0.089-0.127,0.178-0.254,0.267-0.381c0.212-0.271,0.428-0.536,0.665-0.787
			c0.154-0.164,0.313-0.319,0.476-0.474c0.125-0.118,0.262-0.223,0.396-0.331c0.154-0.115,0.312-0.224,0.477-0.325
			c0.205-0.125,0.419-0.229,0.637-0.327c0.16-0.073,0.323-0.139,0.484-0.207c-0.051,0.022-0.103,0.044-0.155,0.065
			c0.161-0.062,0.321-0.132,0.485-0.188c0.163-0.054,0.325-0.119,0.49-0.165c0.168-0.046,0.337-0.103,0.508-0.139
			c0.26-0.056,0.518-0.113,0.78-0.154C20.366,14.956,20.79,14.948,21.213,14.943 M19.602,13.532c-0.279,0.03-0.554,0.078-0.83,0.126
			c-0.156,0.027-0.309,0.071-0.463,0.109c-0.306,0.076-0.602,0.188-0.896,0.301c-0.147,0.057-0.292,0.117-0.438,0.179
			c-0.344,0.145-0.687,0.289-1.01,0.476c-0.331,0.19-0.632,0.425-0.928,0.664c-0.127,0.103-0.252,0.205-0.372,0.316
			c-0.233,0.22-0.458,0.446-0.667,0.688c-0.464,0.539-0.903,1.109-1.249,1.733c-0.164,0.295-0.32,0.591-0.453,0.903
			c-0.03,0.07-0.06,0.141-0.09,0.211c-0.06,0.141-0.109,0.276-0.159,0.42c-0.054,0.16-0.1,0.319-0.145,0.483
			c-0.084,0.307-0.135,0.619-0.186,0.934c-0.059,0.365-0.086,0.742-0.098,1.113c-0.014,0.446-0.043,0.901-0.001,1.347
			c0.046,0.492,0.153,0.975,0.287,1.448c0.088,0.312,0.2,0.614,0.323,0.912c0.086,0.21,0.179,0.414,0.278,0.618
			c0.072,0.146,0.155,0.287,0.235,0.432c0.155,0.275,0.328,0.543,0.498,0.812c0.077,0.119,0.16,0.24,0.245,0.355
			c0.127,0.171,0.249,0.35,0.388,0.512c0.205,0.239,0.41,0.479,0.633,0.703c0.12,0.119,0.235,0.245,0.36,0.359
			c0.124,0.113,0.248,0.226,0.371,0.338c0.122,0.109,0.254,0.211,0.38,0.314c0.181,0.15,0.377,0.287,0.566,0.428
			c0.126,0.096,0.263,0.176,0.395,0.262c0.121,0.082,0.246,0.152,0.372,0.225c0.578,0.33,1.176,0.617,1.786,0.883
			c0.639,0.279,1.3,0.514,1.981,0.664c0.951,0.209,1.924,0.221,2.895,0.229c0.313,0.004,0.629,0.004,0.941-0.023
			c0.51-0.047,1.01-0.146,1.501-0.291c0.62-0.182,1.198-0.457,1.774-0.742c0.42-0.205,0.842-0.424,1.238-0.674
			c0.414-0.262,0.797-0.568,1.146-0.914c0.351-0.35,0.659-0.742,0.944-1.147c0.166-0.235,0.317-0.483,0.463-0.733
			c0.082-0.142,0.17-0.279,0.246-0.424c0.086-0.168,0.172-0.336,0.258-0.502c0.21-0.404,0.381-0.835,0.52-1.271
			c0.146-0.463,0.242-0.95,0.307-1.434c0.022-0.171,0.057-0.346,0.068-0.518c0.014-0.188,0.026-0.375,0.039-0.562
			c0.021-0.311,0.025-0.623,0.031-0.935c0.007-0.321,0.012-0.642-0.02-0.962c-0.052-0.52-0.158-1.023-0.353-1.509
			c-0.14-0.35-0.3-0.689-0.495-1.012c-0.086-0.14-0.167-0.285-0.259-0.421c-0.106-0.159-0.216-0.317-0.324-0.475
			c-0.095-0.138-0.201-0.269-0.304-0.403c-0.208-0.275-0.436-0.537-0.67-0.789c-0.217-0.229-0.432-0.461-0.658-0.681
			c-0.51-0.493-1.044-0.97-1.648-1.344c-0.279-0.172-0.58-0.314-0.893-0.415c-0.312-0.102-0.641-0.144-0.967-0.168
			c-0.114-0.009-0.229-0.014-0.344-0.017c-0.021-0.009-0.039-0.018-0.059-0.026c-0.309-0.141-0.624-0.266-0.945-0.367
			c-0.305-0.095-0.609-0.176-0.922-0.247c-0.322-0.074-0.646-0.151-0.971-0.212c-0.338-0.064-0.675-0.12-1.016-0.171
			c-0.377-0.056-0.76-0.086-1.141-0.113c-0.262-0.019-0.525-0.032-0.788-0.032C20.078,13.495,19.84,13.505,19.602,13.532"/>
		<path fill="#292521" d="M28.259,10.56c0.292-0.207,0.583-0.411,0.878-0.612c-0.085,0.322-0.188,0.639-0.309,0.948
			c-0.122,0.273-0.26,0.536-0.434,0.78c-0.131,0.156-0.279,0.297-0.438,0.427c-0.41,0.299-0.86,0.535-1.305,0.782
			c-0.295,0.165-0.586,0.334-0.875,0.509c-0.226,0.135-0.445,0.279-0.66,0.432c0.037-0.052,0.074-0.104,0.113-0.153
			c0.146-0.19,0.291-0.38,0.436-0.57c0.158-0.199,0.318-0.398,0.477-0.598c0.208-0.262,0.43-0.514,0.665-0.752
			c0.251-0.253,0.521-0.483,0.8-0.706C27.824,10.883,28.037,10.717,28.259,10.56 M30.508,7.004c-0.16,0-0.311,0.041-0.447,0.121
			c-0.074,0.045-0.143,0.099-0.201,0.161c-0.148,0.152-0.222,0.342-0.285,0.538c-0.207,0.199-0.438,0.375-0.666,0.55
			c-0.311,0.235-0.618,0.471-0.928,0.71c-0.224,0.174-0.447,0.353-0.66,0.542c-0.387,0.342-0.771,0.682-1.114,1.067
			c-0.445,0.498-0.806,1.056-1.153,1.624c-0.29,0.472-0.568,0.955-0.792,1.462c-0.131,0.299-0.244,0.606-0.334,0.92
			c-0.058,0.196-0.099,0.397-0.132,0.599c-0.018,0.035-0.036,0.071-0.053,0.107c-0.207,0.418-0.366,0.861-0.442,1.322
			c-0.082,0.502-0.063,1.013-0.024,1.519c0.037,0.463,0.096,0.922,0.157,1.382l0,0c0.011,0.075,0.021,0.15,0.03,0.226
			c0,0.001,0.001,0.001,0.001,0c0.037-0.407,0.067-0.814,0.112-1.22c0.027-0.204,0.055-0.407,0.08-0.61
			c0.07-0.446,0.158-0.89,0.326-1.311c0.174-0.397,0.4-0.767,0.662-1.114c0.133-0.164,0.28-0.313,0.443-0.447
			c0.391-0.283,0.824-0.503,1.262-0.702c0.319-0.145,0.639-0.287,0.96-0.427c0.462-0.201,0.927-0.392,1.358-0.651
			c0.215-0.129,0.414-0.285,0.605-0.445c0.207-0.173,0.375-0.38,0.537-0.595c0.312-0.414,0.528-0.88,0.723-1.359
			c0.188-0.462,0.322-0.949,0.435-1.434c0.04-0.172,0.08-0.344,0.119-0.517c0.04-0.177,0.078-0.357,0.128-0.532
			c0.085-0.11,0.139-0.246,0.182-0.374c0.073-0.218,0.024-0.483-0.088-0.677c-0.046-0.059-0.092-0.119-0.138-0.177
			c-0.108-0.109-0.238-0.184-0.388-0.226c-0.082-0.012-0.164-0.035-0.248-0.035C30.527,7.003,30.518,7.003,30.508,7.004"/>
	</g>
</g>
<g id="Capa_3">
	<g id="Capa_2">
		<path opacity="0.9753" fill="#FF9435" enable-background="new    " d="M24.93,8.251c0.062,0.007,0.125,0.017,0.188,0.024
			C25.055,8.268,24.992,8.258,24.93,8.251 M19.119,8.074c0.4-0.023,0.808-0.049,1.209-0.043c0.355,0.007,0.711,0.009,1.067,0.013
			c0.331,0.003,0.66,0.005,0.99,0.007c0.817,0.002,1.642,0.084,2.456,0.188c1.068,0.155,2.117,0.404,3.119,0.808
			c0.695,0.311,1.344,0.686,1.95,1.142c0.323,0.259,0.633,0.531,0.927,0.817c-0.044-0.005-0.086-0.013-0.129-0.02
			c-0.545-0.083-1.095-0.15-1.644-0.225c-0.198-0.026-0.396-0.054-0.593-0.082c-0.004-0.001-0.004,0.003-0.002,0.004
			c0.972,0.378,1.956,0.716,2.92,1.116c0.113,0.048,0.227,0.1,0.336,0.15c0.184,0.21,0.36,0.425,0.531,0.644
			c0.494,0.646,0.943,1.324,1.398,1.997c0.481,0.711,0.969,1.421,1.454,2.129c0.003,0.003,0.004,0.001,0.004,0
			c-0.415-1.08-0.842-2.158-1.283-3.229c0.345,0.375,0.666,0.774,0.979,1.168c0.32,0.44,0.613,0.896,0.842,1.39
			c0.17,0.435,0.289,0.879,0.365,1.339c0.123,1.121,0.049,2.25-0.052,3.371c-0.084,0.889-0.182,1.775-0.293,2.661
			c-0.14,0.815-0.272,1.631-0.478,2.433c-0.107,0.413-0.199,0.835-0.337,1.242c-0.209,0.63-0.417,1.251-0.665,1.865
			c-0.416,0.95-0.891,1.869-1.504,2.708c-0.212,0.26-0.435,0.508-0.672,0.746c-0.205,0.203-0.428,0.386-0.654,0.564
			c-1.035,0.784-2.158,1.478-3.345,2.006c-0.837,0.326-1.697,0.555-2.581,0.693c-0.864,0.099-1.736,0.105-2.607,0.076
			c-0.896-0.031-1.796-0.104-2.688-0.213c-0.615-0.09-1.229-0.195-1.833-0.346c-0.645-0.16-1.276-0.368-1.893-0.615
			c-1.184-0.524-2.298-1.185-3.333-1.962c-0.921-0.739-1.739-1.585-2.479-2.507c-0.556-0.75-1.03-1.552-1.413-2.404
			c-0.25-0.627-0.443-1.266-0.554-1.933c-0.178-1.612-0.075-3.234-0.014-4.851c0.016-0.396,0.053-0.794,0.083-1.189
			c0.047-0.615,0.097-1.229,0.17-1.843c0.192-1.312,0.512-2.598,1.002-3.831c0.371-0.833,0.82-1.632,1.36-2.368
			c0.448-0.549,0.948-1.053,1.497-1.5c0.643-0.468,1.327-0.863,2.052-1.188c1.028-0.405,2.096-0.67,3.188-0.833
			C18.357,8.129,18.738,8.095,19.119,8.074 M18.217,5.125c-1.315,0.078-2.635,0.295-3.883,0.728
			c-1.22,0.424-2.384,1.038-3.408,1.829c-0.521,0.4-1.009,0.824-1.46,1.304c-0.48,0.511-0.907,1.08-1.293,1.666
			c-0.719,1.093-1.244,2.316-1.652,3.558c-0.421,1.277-0.623,2.614-0.779,3.945c-0.064,0.553-0.099,1.107-0.14,1.661
			c-0.025,0.354-0.06,0.709-0.071,1.063c-0.054,1.478-0.144,2.96-0.027,4.438c0.052,0.671,0.139,1.348,0.301,2.005
			c0.176,0.712,0.471,1.396,0.769,2.067c0.525,1.186,1.282,2.245,2.105,3.239c1.581,1.903,3.604,3.432,5.837,4.496
			c1.169,0.562,2.399,0.986,3.67,1.245c1.329,0.268,2.686,0.398,4.036,0.486c0.606,0.04,1.211,0.049,1.82,0.045
			c0.751-0.005,1.485-0.086,2.227-0.193c1.31-0.188,2.556-0.62,3.742-1.188c1.094-0.521,2.133-1.176,3.104-1.901
			c0.52-0.39,1.024-0.786,1.477-1.257c0.494-0.518,0.928-1.104,1.32-1.699c0.312-0.479,0.572-0.982,0.811-1.499
			c0.306-0.67,0.574-1.351,0.808-2.046c0.152-0.459,0.271-0.935,0.399-1.398c0.042-0.159,0.064-0.322,0.096-0.482
			c0.051-0.252,0.101-0.508,0.146-0.76c0.037-0.189,0.055-0.383,0.082-0.572c0.048-0.344,0.107-0.691,0.143-1.037
			c0.076-0.823,0.146-1.645,0.156-2.472c0.008-0.867,0-1.734-0.033-2.602c-0.018-0.399-0.06-0.798-0.101-1.195
			c-0.113-1.108-0.396-2.181-0.923-3.164c-0.626-1.164-1.666-2.062-2.699-2.855c-0.261-0.202-0.523-0.402-0.803-0.582
			c-0.344-0.222-0.727-0.394-1.115-0.531c-0.256-0.468-0.538-0.921-0.85-1.358c-0.729-1.025-1.609-1.896-2.646-2.605
			c-0.475-0.324-0.982-0.594-1.506-0.83c-0.643-0.288-1.305-0.536-1.981-0.727c-1.687-0.479-3.429-0.641-5.169-0.782
			c-0.509-0.042-1.02-0.063-1.53-0.063C18.868,5.096,18.542,5.106,18.217,5.125"/>
	</g>
</g>
</svg>
