<?xml version="1.0" encoding="utf-8"?>
<!-- Generator: Adobe Illustrator 15.0.0, SVG Export Plug-In . SVG Version: 6.00 Build 0)  -->
<!DOCTYPE svg PUBLIC "-//W3C//DTD SVG 1.1//EN" "http://www.w3.org/Graphics/SVG/1.1/DTD/svg11.dtd">
<svg version="1.1" id="Capa_1" xmlns="http://www.w3.org/2000/svg" xmlns:xlink="http://www.w3.org/1999/xlink" x="0px" y="0px"
	 width="20px" height="20px" viewBox="12.5 12.5 20 20" enable-background="new 12.5 12.5 20 20" xml:space="preserve">
<g id="Capa_1_1_">
	<g>
		<path fill="#292521" d="M27.975,25.082L27.975,25.082L27.975,25.082L27.975,25.082 M28.02,22.562
			c0.006,0.008,0.012,0.015,0.017,0.023C28.031,22.576,28.025,22.569,28.02,22.562 M19.56,19.29
			c-0.145,0.045-0.284,0.115-0.417,0.19c-0.133,0.076-0.258,0.167-0.378,0.263c-0.146,0.117-0.292,0.232-0.43,0.359
			c-0.148,0.14-0.295,0.281-0.439,0.424c-0.172,0.169-0.337,0.349-0.485,0.539c-0.191,0.244-0.356,0.506-0.509,0.774
			c-0.053,0.094-0.106,0.188-0.159,0.283c-0.058,0.101-0.106,0.207-0.152,0.313c-0.069,0.158-0.132,0.315-0.187,0.479
			c-0.042,0.122-0.077,0.245-0.107,0.371c-0.042,0.169-0.066,0.341-0.088,0.515c-0.02,0.146-0.027,0.292-0.036,0.438
			c-0.013,0.215-0.019,0.429-0.019,0.645c0,0.301,0.038,0.603,0.123,0.892c0.044,0.151,0.106,0.299,0.169,0.443
			c0.055,0.127,0.121,0.246,0.195,0.361c0.155,0.244,0.339,0.473,0.535,0.684c0.089,0.095,0.184,0.184,0.275,0.275
			c0.282,0.273,0.595,0.52,0.932,0.723c0.24,0.144,0.479,0.289,0.731,0.412c0.133,0.064,0.266,0.129,0.399,0.193
			c0.094,0.047,0.195,0.083,0.291,0.123c0.071,0.03,0.143,0.06,0.214,0.09c-0.026-0.012-0.052-0.022-0.078-0.033
			c0.116,0.048,0.234,0.087,0.354,0.132c0.072,0.026,0.144,0.05,0.217,0.069c0.102,0.03,0.203,0.06,0.306,0.087
			c0.033,0.01,0.068,0.013,0.102,0.021c0.069,0.014,0.139,0.029,0.208,0.044c0.074,0.015,0.146,0.027,0.222,0.038
			c0.064,0.009,0.129,0.018,0.194,0.026c0.068,0.01,0.14,0.023,0.209,0.028c0.19,0.015,0.38,0.03,0.571,0.038
			c0.204,0.008,0.405,0.011,0.607,0.012c0.092,0.001,0.184-0.006,0.275-0.01c0.189-0.009,0.379-0.026,0.568-0.053
			c0.273-0.039,0.542-0.111,0.802-0.197c0.127-0.042,0.249-0.092,0.372-0.142c0.201-0.082,0.396-0.173,0.592-0.263
			c0.098-0.045,0.19-0.098,0.285-0.147c0.176-0.09,0.342-0.196,0.5-0.312c0.225-0.166,0.42-0.358,0.593-0.574
			c0.149-0.187,0.285-0.383,0.381-0.601c0.084-0.187,0.169-0.375,0.227-0.571c0.029-0.097,0.057-0.191,0.079-0.288
			c0.023-0.099,0.042-0.197,0.061-0.298c0.051-0.278,0.053-0.561,0.086-0.842c0.002-0.013,0.008-0.028,0.013-0.042
			c-0.001,0.004-0.003,0.008-0.005,0.01c0.006-0.015,0.013-0.03,0.024-0.043c-0.003,0.004-0.004,0.006-0.006,0.008
			c0.006-0.004,0.011-0.009,0.015-0.013c0.019-0.012,0.037-0.022,0.059-0.031c0.051-0.02,0.103-0.034,0.152-0.055v-0.002
			c-0.009,0.002-0.017,0.002-0.025,0.003l0,0c0,0,0,0-0.002,0h0.002c-0.091,0.01-0.191,0.004-0.264,0.065
			c-0.051,0.043-0.065,0.133-0.086,0.192c-0.031,0.089-0.057,0.181-0.083,0.271c-0.055,0.191-0.12,0.379-0.192,0.565
			c-0.062,0.143-0.125,0.29-0.203,0.427c-0.111,0.19-0.226,0.38-0.357,0.558c-0.157,0.196-0.344,0.37-0.54,0.525
			c-0.207,0.154-0.437,0.273-0.671,0.377c-0.111,0.043-0.221,0.086-0.331,0.129c-0.119,0.047-0.243,0.085-0.364,0.13
			c-0.117,0.041-0.24,0.074-0.359,0.111c-0.256,0.08-0.524,0.136-0.792,0.176c-0.379,0.045-0.763,0.043-1.144,0.04
			c-0.277-0.002-0.554-0.021-0.83-0.042c-0.098-0.014-0.195-0.027-0.293-0.041c-0.067-0.009-0.133-0.028-0.198-0.041
			c-0.071-0.015-0.143-0.03-0.214-0.045c-0.066-0.014-0.131-0.037-0.195-0.056c-0.069-0.021-0.14-0.041-0.209-0.062
			c-0.062-0.018-0.12-0.044-0.181-0.065c-0.065-0.023-0.131-0.049-0.197-0.072c-0.045-0.019-0.091-0.038-0.136-0.059
			c-0.06-0.025-0.121-0.05-0.179-0.079c-0.141-0.069-0.283-0.134-0.421-0.209c-0.139-0.076-0.282-0.149-0.417-0.233
			c-0.214-0.132-0.428-0.261-0.631-0.412c-0.157-0.125-0.304-0.262-0.446-0.402c-0.156-0.153-0.305-0.311-0.441-0.48
			c-0.134-0.181-0.252-0.369-0.346-0.573c-0.071-0.182-0.124-0.366-0.155-0.558c-0.029-0.271-0.016-0.542-0.008-0.813
			c0.006-0.188,0.019-0.38,0.041-0.568c0.05-0.315,0.143-0.622,0.262-0.918c0.097-0.214,0.214-0.414,0.332-0.615
			c0.045-0.075,0.093-0.148,0.14-0.224c0.068-0.107,0.139-0.214,0.215-0.316c0.197-0.243,0.425-0.457,0.653-0.669
			c0.165-0.154,0.338-0.298,0.513-0.441c0.043-0.033,0.088-0.066,0.132-0.099c0.13-0.098,0.273-0.181,0.42-0.25
			c0.044-0.015,0.087-0.029,0.132-0.039c0.112-0.005,0.227,0.005,0.339,0.019c0.166,0.027,0.331,0.057,0.494,0.101
			c0.179,0.048,0.356,0.104,0.533,0.158c0.365,0.113,0.728,0.238,1.091,0.354c0.33,0.106,0.672,0.17,1.02,0.164
			c0.183-0.004,0.369-0.007,0.55-0.027c0.142-0.016,0.283-0.033,0.425-0.059c0.202-0.036,0.396-0.091,0.585-0.168
			c0.17-0.069,0.331-0.147,0.495-0.23c0.083-0.042,0.165-0.086,0.25-0.126c0.04-0.015,0.082-0.028,0.124-0.038
			c0.015,0,0.031,0,0.046,0c0.031,0.007,0.062,0.016,0.093,0.026c0.073,0.038,0.14,0.084,0.204,0.132
			c0.29,0.242,0.553,0.512,0.815,0.781c0.255,0.26,0.5,0.536,0.724,0.821c0.039,0.05,0.078,0.1,0.118,0.147
			c0.067,0.09,0.137,0.178,0.205,0.267c0.264,0.344,0.532,0.684,0.804,1.021c0,0.001,0.001,0,0.001-0.001
			c-0.184-0.405-0.367-0.814-0.565-1.213c-0.094-0.188-0.19-0.373-0.289-0.559c-0.091-0.168-0.197-0.33-0.302-0.491
			c-0.211-0.331-0.451-0.643-0.694-0.952c-0.115-0.147-0.234-0.29-0.362-0.426c-0.056-0.06-0.113-0.116-0.176-0.167
			c-0.069-0.057-0.14-0.109-0.22-0.149c-0.052-0.027-0.107-0.047-0.16-0.068c-0.067-0.027-0.142-0.033-0.213-0.042
			c-0.095-0.012-0.178,0-0.273,0.013c-0.064,0.009-0.126,0.023-0.188,0.043c-0.108,0.035-0.213,0.084-0.318,0.128
			c-0.082,0.035-0.163,0.07-0.243,0.105c-0.181,0.072-0.363,0.132-0.553,0.173c-0.064,0.014-0.131,0.024-0.196,0.034
			c-0.321,0.03-0.649,0.053-0.971,0.02c-0.221-0.038-0.433-0.109-0.646-0.176c-0.188-0.059-0.377-0.121-0.564-0.181
			c-0.352-0.112-0.704-0.228-1.062-0.318c-0.18-0.046-0.362-0.086-0.547-0.111c-0.084-0.012-0.167-0.021-0.251-0.03
			c-0.036-0.004-0.072-0.006-0.11-0.006C19.81,19.229,19.681,19.251,19.56,19.29"/>
		<path fill="#292521" d="M26.391,16.15c-0.002,0-0.003,0-0.006,0C26.388,16.15,26.389,16.15,26.391,16.15 M26.396,16.149
			c-0.412,0.053-0.822,0.137-1.213,0.28c-0.256,0.093-0.501,0.218-0.721,0.379c-0.238,0.174-0.439,0.385-0.599,0.636
			c-0.15,0.24-0.25,0.513-0.295,0.792c-0.022,0.144-0.035,0.285-0.033,0.43c0.001,0.093,0.006,0.186,0.012,0.28
			c0.011,0.207,0.027,0.413,0.041,0.619c0.021,0.326,0.049,0.651,0.084,0.975c0,0.001,0.001,0.001,0.001,0
			c0.087-0.33,0.163-0.66,0.232-0.993c0.055-0.264,0.087-0.534,0.123-0.801c0.032-0.228,0.086-0.451,0.171-0.664
			c0.09-0.202,0.205-0.391,0.336-0.568c0.135-0.167,0.286-0.316,0.454-0.45c0.394-0.295,0.84-0.503,1.285-0.706
			c0.071-0.03,0.144-0.06,0.215-0.091c0.126-0.05,0.265-0.059,0.396-0.086c0.001,0,0.001,0,0,0c-0.075-0.013-0.15-0.028-0.227-0.037
			c-0.043-0.006-0.085-0.009-0.129-0.01c-0.002,0-0.006,0-0.009,0C26.482,16.134,26.438,16.143,26.396,16.149"/>
		<path fill="#292521" d="M20.055,16.295c0.142,0.004,0.285,0.012,0.427,0.028c0.241,0.038,0.473,0.104,0.7,0.195
			c0.317,0.14,0.616,0.316,0.893,0.524c0.245,0.194,0.471,0.412,0.666,0.657c0.182,0.242,0.325,0.512,0.444,0.789
			c-0.156-0.137-0.342-0.248-0.524-0.344c-0.097-0.05-0.192-0.103-0.289-0.153c-0.308-0.163-0.628-0.307-0.945-0.452
			c-0.136-0.062-0.271-0.123-0.407-0.183c-0.117-0.052-0.229-0.111-0.345-0.166c-0.232-0.113-0.458-0.244-0.673-0.388
			c-0.098-0.065-0.19-0.136-0.282-0.208c-0.088-0.078-0.176-0.154-0.264-0.231c-0.005-0.004-0.01-0.009-0.015-0.013
			c0.062-0.016,0.126-0.029,0.19-0.04C19.771,16.294,19.912,16.291,20.055,16.295 M19.145,15.52
			c-0.212,0.044-0.414,0.119-0.609,0.209c-0.077,0.037-0.153,0.072-0.229,0.109c-0.11,0.052-0.24,0.102-0.318,0.197
			c-0.063,0.064-0.108,0.14-0.132,0.226c-0.024,0.086-0.026,0.201-0.001,0.286c0.014,0.047,0.032,0.093,0.057,0.136
			c0.037,0.063,0.131,0.167,0.2,0.198c0.048,0.021,0.095,0.042,0.143,0.061c0.064,0.018,0.128,0.023,0.196,0.032
			c0.034,0.005,0.069,0.007,0.104,0.01c0.023,0.005,0.048,0.011,0.069,0.019c0.219,0.11,0.402,0.282,0.611,0.409
			c0.13,0.077,0.257,0.151,0.394,0.218c0.14,0.068,0.284,0.128,0.43,0.185c0.079,0.031,0.159,0.062,0.24,0.087
			c0.183,0.058,0.365,0.116,0.551,0.166c0.193,0.052,0.388,0.104,0.581,0.156c0.213,0.058,0.425,0.118,0.637,0.179
			c0.084,0.024,0.166,0.051,0.25,0.078c0.149,0.047,0.299,0.094,0.444,0.152c0.123,0.054,0.241,0.115,0.35,0.194
			c0.053,0.044,0.101,0.092,0.144,0.146c0.048,0.067,0.086,0.138,0.119,0.214c0.111,0.272,0.162,0.56,0.238,0.843l0,0
			c-0.008-0.264,0.002-0.527-0.033-0.789c-0.017-0.118-0.042-0.235-0.09-0.345c-0.008-0.017-0.016-0.034-0.024-0.051
			c-0.044-0.355-0.107-0.707-0.229-1.043c-0.184-0.509-0.529-0.958-0.927-1.321c-0.409-0.375-0.897-0.681-1.428-0.85
			c-0.278-0.088-0.569-0.126-0.858-0.157c-0.094-0.01-0.188-0.014-0.281-0.014C19.541,15.458,19.342,15.479,19.145,15.52"/>
	</g>
</g>
</svg>
