<?xml version="1.0" encoding="utf-8"?>
<!-- Generator: Adobe Illustrator 15.0.0, SVG Export Plug-In . SVG Version: 6.00 Build 0)  -->
<!DOCTYPE svg PUBLIC "-//W3C//DTD SVG 1.1//EN" "http://www.w3.org/Graphics/SVG/1.1/DTD/svg11.dtd">
<svg version="1.1" id="Capa_1" xmlns="http://www.w3.org/2000/svg" xmlns:xlink="http://www.w3.org/1999/xlink" x="0px" y="0px"
	 width="45px" height="45px" viewBox="-0.5 -0.5 45 45" enable-background="new -0.5 -0.5 45 45" xml:space="preserve">
<g>
	<path fill="#FFFFFF" d="M30.945,26.4L30.945,26.4L30.945,26.4L30.945,26.4 M31.022,22.099c0.011,0.013,0.021,0.026,0.03,0.04
		C31.043,22.125,31.033,22.112,31.022,22.099 M16.585,16.516c-0.247,0.079-0.487,0.198-0.712,0.326
		c-0.227,0.129-0.441,0.285-0.645,0.448c-0.248,0.2-0.5,0.396-0.733,0.614c-0.254,0.238-0.504,0.478-0.751,0.723
		c-0.292,0.29-0.574,0.596-0.828,0.919c-0.326,0.416-0.608,0.863-0.867,1.322c-0.091,0.161-0.183,0.322-0.273,0.483
		c-0.098,0.172-0.181,0.354-0.26,0.535c-0.118,0.269-0.224,0.54-0.318,0.817c-0.071,0.208-0.132,0.419-0.184,0.633
		c-0.07,0.289-0.112,0.582-0.15,0.877c-0.032,0.25-0.046,0.5-0.061,0.751c-0.021,0.365-0.032,0.731-0.032,1.098
		c0.001,0.512,0.066,1.03,0.21,1.522c0.076,0.259,0.182,0.509,0.289,0.757c0.093,0.215,0.207,0.419,0.333,0.616
		c0.265,0.417,0.578,0.806,0.914,1.167c0.151,0.162,0.312,0.314,0.47,0.469c0.481,0.468,1.014,0.887,1.589,1.233
		c0.409,0.246,0.818,0.494,1.247,0.703c0.228,0.111,0.455,0.222,0.683,0.332c0.16,0.078,0.333,0.141,0.496,0.209
		c0.122,0.051,0.244,0.103,0.365,0.153c-0.044-0.019-0.088-0.037-0.133-0.056c0.199,0.082,0.401,0.152,0.604,0.225
		c0.123,0.045,0.244,0.084,0.369,0.12c0.174,0.05,0.348,0.099,0.521,0.148c0.057,0.017,0.117,0.024,0.174,0.037
		c0.119,0.024,0.237,0.05,0.355,0.074c0.127,0.026,0.25,0.048,0.379,0.065c0.11,0.016,0.22,0.031,0.331,0.046
		c0.117,0.017,0.24,0.04,0.357,0.049c0.325,0.025,0.649,0.052,0.975,0.064c0.346,0.014,0.691,0.019,1.037,0.021
		c0.156,0.002,0.313-0.01,0.47-0.017c0.324-0.014,0.646-0.045,0.969-0.091c0.467-0.065,0.924-0.187,1.37-0.335
		c0.215-0.072,0.424-0.158,0.635-0.243c0.341-0.139,0.673-0.294,1.008-0.448c0.166-0.076,0.326-0.167,0.488-0.251
		c0.299-0.154,0.584-0.335,0.854-0.534c0.381-0.282,0.715-0.61,1.011-0.981c0.253-0.317,0.486-0.652,0.65-1.024
		c0.142-0.32,0.287-0.641,0.387-0.977c0.049-0.163,0.096-0.324,0.134-0.489c0.04-0.169,0.072-0.338,0.103-0.509
		c0.086-0.474,0.09-0.957,0.147-1.435c0.004-0.024,0.011-0.049,0.02-0.072c-0.002,0.005-0.004,0.011-0.007,0.016
		c0.009-0.027,0.022-0.053,0.041-0.074c-0.003,0.004-0.006,0.008-0.009,0.012c0.009-0.007,0.017-0.014,0.025-0.021
		c0.032-0.021,0.064-0.038,0.101-0.054c0.085-0.033,0.173-0.06,0.258-0.095c0,0,0-0.001-0.001-0.001
		c-0.014,0.002-0.028,0.004-0.043,0.006l0,0c0,0,0,0-0.001,0h0.001c-0.155,0.016-0.326,0.005-0.45,0.112
		c-0.085,0.073-0.112,0.225-0.147,0.327c-0.052,0.152-0.095,0.308-0.14,0.462c-0.095,0.327-0.206,0.646-0.329,0.963
		c-0.107,0.246-0.213,0.497-0.348,0.729c-0.189,0.326-0.383,0.648-0.608,0.952c-0.269,0.335-0.586,0.631-0.922,0.897
		c-0.355,0.263-0.745,0.466-1.148,0.644c-0.188,0.072-0.375,0.145-0.562,0.219c-0.205,0.08-0.416,0.146-0.623,0.221
		c-0.201,0.071-0.41,0.127-0.614,0.19c-0.438,0.137-0.896,0.232-1.351,0.301c-0.646,0.076-1.301,0.072-1.951,0.068
		c-0.474-0.003-0.945-0.037-1.417-0.072c-0.167-0.023-0.334-0.047-0.501-0.07c-0.113-0.016-0.226-0.047-0.337-0.07
		c-0.122-0.026-0.244-0.052-0.366-0.077c-0.112-0.024-0.223-0.064-0.332-0.096c-0.119-0.035-0.239-0.069-0.358-0.104
		c-0.104-0.03-0.205-0.075-0.307-0.112c-0.112-0.041-0.225-0.083-0.337-0.123c-0.078-0.034-0.155-0.067-0.233-0.101
		c-0.101-0.044-0.205-0.084-0.304-0.133c-0.239-0.119-0.484-0.23-0.719-0.359c-0.237-0.13-0.48-0.253-0.71-0.395
		c-0.366-0.226-0.732-0.448-1.078-0.704c-0.268-0.215-0.517-0.448-0.762-0.689c-0.266-0.261-0.52-0.529-0.752-0.82
		c-0.228-0.307-0.431-0.63-0.59-0.978c-0.121-0.309-0.212-0.625-0.266-0.952c-0.048-0.462-0.025-0.924-0.012-1.388
		c0.009-0.321,0.032-0.647,0.07-0.968c0.084-0.538,0.243-1.062,0.446-1.568c0.164-0.365,0.365-0.706,0.567-1.051
		c0.076-0.128,0.159-0.252,0.238-0.379c0.116-0.185,0.236-0.367,0.366-0.542c0.337-0.413,0.726-0.779,1.115-1.142
		c0.282-0.263,0.577-0.509,0.875-0.753c0.075-0.057,0.15-0.113,0.225-0.169c0.221-0.167,0.466-0.309,0.718-0.426
		c0.074-0.026,0.148-0.049,0.224-0.067c0.191-0.009,0.387,0.01,0.579,0.033c0.282,0.046,0.566,0.097,0.842,0.172
		c0.305,0.083,0.608,0.177,0.91,0.271c0.624,0.192,1.242,0.405,1.863,0.603c0.562,0.18,1.147,0.291,1.74,0.279
		c0.312-0.006,0.628-0.012,0.939-0.047c0.242-0.027,0.483-0.057,0.725-0.1c0.343-0.061,0.675-0.155,0.998-0.287
		c0.288-0.118,0.565-0.252,0.843-0.393c0.142-0.072,0.282-0.147,0.427-0.215c0.069-0.025,0.14-0.047,0.212-0.064
		c0.026-0.001,0.052-0.001,0.078,0c0.054,0.012,0.107,0.027,0.159,0.045c0.124,0.064,0.237,0.143,0.349,0.225
		c0.494,0.413,0.942,0.873,1.391,1.333c0.434,0.445,0.851,0.914,1.235,1.401c0.067,0.085,0.134,0.169,0.201,0.253
		c0.116,0.151,0.233,0.302,0.351,0.453c0.449,0.587,0.907,1.167,1.371,1.742c0,0.001,0.001,0,0.001-0.001
		c-0.314-0.693-0.626-1.39-0.965-2.071c-0.159-0.32-0.323-0.637-0.493-0.952c-0.155-0.288-0.337-0.564-0.514-0.839
		c-0.361-0.564-0.771-1.097-1.185-1.624c-0.197-0.251-0.401-0.495-0.62-0.728c-0.094-0.101-0.192-0.197-0.299-0.285
		c-0.118-0.097-0.239-0.186-0.374-0.255c-0.089-0.046-0.183-0.08-0.274-0.117c-0.115-0.047-0.242-0.057-0.363-0.072
		c-0.162-0.021-0.305-0.001-0.468,0.021c-0.109,0.016-0.215,0.04-0.319,0.073c-0.186,0.06-0.364,0.144-0.544,0.22
		c-0.139,0.059-0.277,0.119-0.415,0.179c-0.308,0.123-0.619,0.225-0.944,0.295c-0.11,0.024-0.223,0.041-0.334,0.058
		c-0.549,0.051-1.109,0.091-1.658,0.035c-0.376-0.065-0.738-0.187-1.102-0.301c-0.322-0.101-0.643-0.206-0.964-0.309
		c-0.6-0.192-1.201-0.389-1.813-0.543c-0.308-0.078-0.619-0.147-0.934-0.19c-0.143-0.02-0.285-0.037-0.427-0.052
		c-0.063-0.007-0.125-0.01-0.189-0.01C17.01,16.413,16.791,16.45,16.585,16.516"/>
	<path fill="#FFFFFF" d="M28.242,11.158c-0.003,0-0.006,0.001-0.009,0.001C28.236,11.159,28.239,11.158,28.242,11.158
		 M28.252,11.156c-0.703,0.091-1.404,0.233-2.071,0.478c-0.437,0.159-0.854,0.372-1.23,0.647c-0.407,0.298-0.751,0.658-1.021,1.086
		c-0.258,0.409-0.427,0.875-0.504,1.352c-0.039,0.244-0.06,0.486-0.057,0.733c0.003,0.159,0.01,0.318,0.019,0.478
		c0.019,0.353,0.048,0.705,0.071,1.057c0.035,0.556,0.084,1.11,0.143,1.663c0,0.001,0.001,0.001,0.001,0
		c0.149-0.562,0.281-1.126,0.398-1.694c0.093-0.451,0.149-0.912,0.209-1.368c0.055-0.388,0.148-0.768,0.293-1.132
		c0.153-0.344,0.349-0.667,0.573-0.969c0.229-0.285,0.491-0.54,0.776-0.768c0.672-0.504,1.432-0.859,2.193-1.205
		c0.123-0.051,0.245-0.102,0.366-0.155c0.216-0.086,0.452-0.101,0.679-0.147c0.001,0,0.001-0.001,0-0.001
		c-0.129-0.021-0.258-0.048-0.388-0.063c-0.073-0.009-0.146-0.015-0.22-0.016c-0.004,0-0.009,0-0.013,0
		C28.398,11.131,28.324,11.146,28.252,11.156"/>
	<path fill="#FFFFFF" d="M17.428,11.406c0.243,0.007,0.487,0.021,0.729,0.048c0.412,0.064,0.807,0.177,1.195,0.332
		c0.541,0.238,1.052,0.539,1.524,0.895c0.418,0.331,0.802,0.703,1.135,1.121c0.311,0.413,0.554,0.873,0.759,1.346
		c-0.267-0.235-0.584-0.424-0.894-0.588c-0.164-0.086-0.328-0.174-0.492-0.26c-0.527-0.279-1.073-0.525-1.616-0.771
		c-0.231-0.105-0.463-0.21-0.695-0.313c-0.198-0.089-0.391-0.189-0.587-0.284c-0.398-0.192-0.782-0.415-1.149-0.661
		c-0.166-0.111-0.324-0.233-0.482-0.355c-0.149-0.132-0.299-0.263-0.449-0.395c-0.009-0.007-0.017-0.015-0.026-0.022
		c0.107-0.027,0.215-0.05,0.325-0.068C16.945,11.404,17.185,11.398,17.428,11.406 M15.876,10.083
		c-0.362,0.075-0.706,0.202-1.04,0.358c-0.131,0.062-0.261,0.123-0.392,0.185c-0.187,0.089-0.411,0.174-0.543,0.337
		c-0.108,0.109-0.184,0.238-0.225,0.386c-0.041,0.146-0.045,0.342-0.001,0.488c0.023,0.081,0.055,0.158,0.095,0.232
		c0.063,0.108,0.224,0.284,0.343,0.337c0.081,0.036,0.162,0.071,0.244,0.104c0.11,0.031,0.218,0.039,0.334,0.054
		c0.059,0.008,0.118,0.012,0.177,0.017c0.04,0.009,0.08,0.019,0.119,0.032c0.372,0.189,0.686,0.481,1.043,0.697
		c0.22,0.132,0.438,0.258,0.67,0.371c0.24,0.117,0.486,0.22,0.734,0.317c0.135,0.053,0.271,0.105,0.41,0.148
		c0.312,0.098,0.624,0.197,0.94,0.283c0.33,0.089,0.661,0.178,0.991,0.267c0.364,0.098,0.726,0.201,1.088,0.305
		c0.143,0.041,0.284,0.087,0.426,0.132c0.255,0.081,0.51,0.16,0.758,0.26c0.21,0.093,0.411,0.196,0.596,0.331
		c0.09,0.075,0.17,0.157,0.244,0.248c0.082,0.115,0.149,0.236,0.206,0.365c0.188,0.465,0.276,0.956,0.405,1.439c0,0,0.001,0,0.001,0
		c-0.012-0.451,0.004-0.899-0.058-1.347c-0.027-0.202-0.071-0.401-0.153-0.589c-0.013-0.029-0.026-0.058-0.04-0.087
		c-0.076-0.605-0.183-1.206-0.392-1.781c-0.315-0.868-0.903-1.635-1.581-2.254c-0.699-0.64-1.533-1.162-2.438-1.45
		c-0.474-0.151-0.971-0.215-1.464-0.268c-0.16-0.017-0.321-0.025-0.481-0.025C16.552,9.977,16.212,10.014,15.876,10.083"/>
</g>
</svg>
