<?xml version="1.0" encoding="utf-8"?>
<!-- Generator: Adobe Illustrator 15.0.0, SVG Export Plug-In . SVG Version: 6.00 Build 0)  -->
<!DOCTYPE svg PUBLIC "-//W3C//DTD SVG 1.1//EN" "http://www.w3.org/Graphics/SVG/1.1/DTD/svg11.dtd">
<svg version="1.1" xmlns="http://www.w3.org/2000/svg" xmlns:xlink="http://www.w3.org/1999/xlink" x="0px" y="0px" width="45px"
	 height="45px" viewBox="0 0 45 45" enable-background="new 0 0 45 45" xml:space="preserve">
<g id="Capa_1">
	<g>
		<path fill="#292521" d="M29.945,26.4L29.945,26.4L29.945,26.4L29.945,26.4 M30.021,22.099c0.012,0.013,0.021,0.026,0.03,0.04
			C30.043,22.125,30.033,22.112,30.021,22.099 M15.585,16.516c-0.247,0.079-0.487,0.198-0.712,0.326
			c-0.227,0.129-0.441,0.285-0.645,0.448c-0.248,0.2-0.5,0.396-0.733,0.614c-0.254,0.238-0.504,0.478-0.751,0.723
			c-0.292,0.29-0.574,0.596-0.828,0.919c-0.326,0.416-0.608,0.863-0.867,1.322c-0.091,0.161-0.183,0.322-0.273,0.483
			c-0.098,0.172-0.181,0.354-0.26,0.535c-0.118,0.27-0.224,0.54-0.318,0.817c-0.071,0.208-0.132,0.419-0.184,0.633
			c-0.07,0.289-0.112,0.582-0.15,0.877c-0.032,0.25-0.046,0.5-0.061,0.751c-0.021,0.365-0.032,0.731-0.032,1.099
			c0.001,0.512,0.066,1.029,0.21,1.521c0.076,0.259,0.182,0.509,0.289,0.757c0.093,0.216,0.207,0.419,0.333,0.616
			c0.265,0.417,0.578,0.807,0.914,1.167c0.151,0.162,0.312,0.313,0.47,0.469c0.481,0.468,1.014,0.888,1.589,1.233
			c0.409,0.246,0.818,0.494,1.247,0.703c0.228,0.111,0.455,0.222,0.683,0.332c0.16,0.078,0.333,0.141,0.496,0.209
			c0.122,0.051,0.244,0.103,0.365,0.152c-0.044-0.019-0.088-0.037-0.133-0.056c0.199,0.082,0.401,0.151,0.604,0.226
			c0.123,0.045,0.244,0.084,0.369,0.119c0.174,0.051,0.348,0.1,0.521,0.148c0.057,0.017,0.117,0.023,0.174,0.037
			c0.119,0.023,0.237,0.05,0.355,0.074c0.127,0.025,0.25,0.047,0.379,0.064c0.11,0.016,0.22,0.031,0.331,0.046
			c0.117,0.017,0.24,0.04,0.357,0.05c0.325,0.024,0.649,0.051,0.975,0.063c0.347,0.014,0.691,0.019,1.037,0.021
			c0.156,0.002,0.313-0.01,0.47-0.017c0.324-0.015,0.646-0.045,0.97-0.091c0.467-0.065,0.924-0.188,1.369-0.335
			c0.215-0.072,0.424-0.158,0.635-0.243c0.342-0.139,0.674-0.294,1.009-0.448c0.166-0.075,0.325-0.167,0.487-0.251
			c0.3-0.154,0.584-0.335,0.854-0.533c0.382-0.283,0.716-0.611,1.011-0.981c0.254-0.317,0.486-0.652,0.65-1.024
			c0.143-0.32,0.287-0.641,0.387-0.977c0.049-0.163,0.096-0.324,0.135-0.489c0.039-0.169,0.071-0.338,0.103-0.509
			c0.086-0.475,0.09-0.957,0.147-1.436c0.004-0.023,0.011-0.049,0.02-0.072c-0.002,0.006-0.004,0.012-0.007,0.017
			c0.009-0.026,0.022-0.053,0.041-0.074c-0.003,0.005-0.007,0.009-0.009,0.013c0.009-0.008,0.017-0.015,0.024-0.021
			c0.032-0.021,0.063-0.038,0.101-0.054c0.086-0.033,0.174-0.06,0.259-0.095c0,0,0-0.002-0.001-0.002
			c-0.014,0.002-0.028,0.004-0.043,0.006l0,0c0,0,0,0-0.002,0h0.002c-0.155,0.017-0.326,0.006-0.45,0.112
			c-0.085,0.073-0.112,0.226-0.147,0.327c-0.052,0.152-0.095,0.309-0.14,0.462c-0.095,0.327-0.206,0.646-0.329,0.964
			c-0.107,0.245-0.213,0.496-0.348,0.729c-0.189,0.326-0.383,0.648-0.608,0.951c-0.269,0.336-0.586,0.632-0.922,0.897
			c-0.354,0.263-0.745,0.466-1.147,0.644c-0.188,0.072-0.375,0.146-0.562,0.22c-0.205,0.08-0.416,0.146-0.623,0.221
			c-0.201,0.071-0.41,0.127-0.613,0.19c-0.438,0.137-0.896,0.232-1.352,0.301c-0.646,0.076-1.302,0.072-1.951,0.068
			c-0.474-0.004-0.945-0.037-1.417-0.072c-0.167-0.023-0.334-0.047-0.501-0.07c-0.113-0.016-0.226-0.047-0.337-0.07
			c-0.122-0.025-0.244-0.052-0.366-0.076c-0.112-0.024-0.223-0.064-0.332-0.096c-0.119-0.035-0.239-0.07-0.358-0.104
			c-0.104-0.03-0.205-0.075-0.307-0.112c-0.112-0.041-0.225-0.083-0.337-0.123c-0.078-0.033-0.155-0.066-0.233-0.101
			c-0.101-0.044-0.205-0.084-0.304-0.134c-0.239-0.118-0.484-0.229-0.719-0.358c-0.237-0.13-0.48-0.253-0.71-0.396
			c-0.366-0.226-0.732-0.447-1.078-0.703c-0.268-0.215-0.517-0.448-0.762-0.689c-0.266-0.261-0.52-0.529-0.752-0.82
			c-0.228-0.307-0.431-0.629-0.59-0.978c-0.121-0.31-0.212-0.625-0.266-0.952c-0.048-0.462-0.025-0.924-0.012-1.388
			c0.009-0.321,0.032-0.647,0.07-0.968c0.084-0.539,0.243-1.062,0.446-1.568c0.164-0.365,0.365-0.706,0.567-1.051
			c0.076-0.128,0.159-0.252,0.238-0.379c0.116-0.185,0.236-0.367,0.366-0.542c0.337-0.413,0.726-0.779,1.115-1.142
			c0.282-0.263,0.577-0.509,0.875-0.753c0.075-0.057,0.15-0.113,0.225-0.169c0.221-0.167,0.466-0.309,0.718-0.426
			c0.074-0.026,0.148-0.049,0.224-0.067c0.191-0.009,0.387,0.01,0.579,0.033c0.282,0.046,0.566,0.097,0.842,0.172
			c0.305,0.083,0.608,0.177,0.91,0.271c0.624,0.192,1.242,0.405,1.863,0.603c0.562,0.18,1.146,0.291,1.739,0.279
			c0.312-0.006,0.629-0.012,0.939-0.047c0.242-0.027,0.483-0.057,0.725-0.1c0.344-0.061,0.676-0.155,0.998-0.287
			c0.289-0.118,0.565-0.252,0.844-0.393c0.142-0.072,0.281-0.147,0.427-0.215c0.069-0.025,0.14-0.047,0.212-0.064
			c0.025-0.001,0.053-0.001,0.078,0c0.054,0.012,0.107,0.027,0.159,0.045c0.124,0.064,0.237,0.143,0.349,0.225
			c0.494,0.413,0.942,0.873,1.391,1.333c0.435,0.445,0.852,0.914,1.235,1.401c0.067,0.085,0.134,0.169,0.201,0.253
			c0.116,0.151,0.233,0.302,0.351,0.453c0.449,0.587,0.907,1.167,1.371,1.742c0,0.001,0.002,0,0.002-0.001
			c-0.314-0.693-0.627-1.39-0.966-2.071c-0.159-0.32-0.323-0.637-0.493-0.952c-0.154-0.288-0.336-0.564-0.514-0.839
			c-0.361-0.564-0.771-1.097-1.186-1.624c-0.196-0.251-0.4-0.495-0.619-0.728c-0.094-0.101-0.192-0.197-0.299-0.285
			c-0.119-0.097-0.239-0.186-0.375-0.255c-0.088-0.046-0.183-0.08-0.273-0.117c-0.115-0.047-0.242-0.057-0.363-0.072
			c-0.162-0.021-0.305-0.001-0.468,0.021c-0.108,0.016-0.215,0.04-0.319,0.073c-0.186,0.06-0.363,0.144-0.543,0.22
			c-0.14,0.059-0.277,0.119-0.416,0.179c-0.308,0.123-0.619,0.225-0.943,0.295c-0.11,0.024-0.223,0.041-0.334,0.058
			c-0.549,0.051-1.109,0.091-1.658,0.035c-0.376-0.065-0.738-0.187-1.103-0.301c-0.322-0.101-0.643-0.206-0.963-0.309
			c-0.6-0.192-1.201-0.389-1.813-0.543c-0.308-0.078-0.619-0.147-0.934-0.19c-0.143-0.02-0.285-0.037-0.427-0.052
			c-0.063-0.007-0.125-0.01-0.189-0.01C16.01,16.413,15.791,16.45,15.585,16.516"/>
		<path fill="#292521" d="M27.242,11.158c-0.004,0-0.006,0.001-0.01,0.001C27.236,11.159,27.238,11.158,27.242,11.158
			 M27.252,11.156c-0.703,0.091-1.404,0.233-2.07,0.478c-0.438,0.159-0.854,0.372-1.23,0.647c-0.407,0.298-0.751,0.658-1.021,1.086
			c-0.258,0.409-0.427,0.875-0.504,1.352c-0.039,0.244-0.06,0.486-0.057,0.733c0.003,0.159,0.01,0.318,0.02,0.478
			c0.019,0.353,0.047,0.705,0.07,1.057c0.035,0.556,0.084,1.11,0.143,1.663c0,0.001,0.002,0.001,0.002,0
			c0.148-0.562,0.28-1.126,0.397-1.694c0.093-0.451,0.149-0.912,0.209-1.368c0.056-0.388,0.147-0.768,0.293-1.132
			c0.153-0.344,0.349-0.667,0.573-0.969c0.229-0.285,0.49-0.54,0.775-0.768c0.672-0.504,1.433-0.859,2.193-1.205
			c0.123-0.051,0.245-0.102,0.366-0.155c0.216-0.086,0.452-0.101,0.679-0.147c0.001,0,0.001-0.001,0-0.001
			c-0.129-0.021-0.258-0.048-0.388-0.063c-0.073-0.009-0.146-0.015-0.22-0.016c-0.004,0-0.01,0-0.014,0
			C27.398,11.131,27.324,11.146,27.252,11.156"/>
		<path fill="#292521" d="M16.428,11.406c0.243,0.007,0.487,0.021,0.729,0.048c0.412,0.064,0.807,0.177,1.195,0.332
			c0.541,0.238,1.052,0.539,1.524,0.895c0.418,0.331,0.803,0.703,1.135,1.121c0.311,0.413,0.555,0.873,0.76,1.346
			c-0.268-0.235-0.584-0.424-0.895-0.588c-0.164-0.086-0.328-0.174-0.492-0.26c-0.527-0.279-1.073-0.525-1.616-0.771
			c-0.231-0.105-0.463-0.21-0.695-0.313c-0.198-0.089-0.391-0.189-0.587-0.284c-0.398-0.192-0.782-0.415-1.149-0.661
			c-0.166-0.111-0.324-0.233-0.482-0.355c-0.149-0.132-0.299-0.263-0.449-0.395c-0.009-0.007-0.017-0.015-0.026-0.022
			c0.107-0.027,0.215-0.05,0.325-0.068C15.945,11.404,16.185,11.398,16.428,11.406 M14.876,10.083
			c-0.362,0.075-0.706,0.202-1.04,0.358c-0.131,0.062-0.261,0.123-0.392,0.185c-0.187,0.089-0.411,0.174-0.543,0.337
			c-0.108,0.109-0.184,0.238-0.225,0.386c-0.041,0.146-0.045,0.342-0.001,0.488c0.023,0.081,0.055,0.158,0.095,0.232
			c0.063,0.108,0.224,0.284,0.343,0.337c0.081,0.036,0.162,0.071,0.244,0.104c0.11,0.031,0.218,0.039,0.334,0.054
			c0.059,0.008,0.118,0.012,0.177,0.017c0.04,0.009,0.08,0.019,0.119,0.032c0.372,0.189,0.686,0.481,1.043,0.697
			c0.22,0.132,0.438,0.258,0.67,0.371c0.24,0.117,0.486,0.22,0.734,0.317c0.135,0.053,0.271,0.105,0.41,0.148
			c0.312,0.098,0.624,0.197,0.94,0.283c0.33,0.089,0.661,0.178,0.991,0.267c0.364,0.098,0.726,0.201,1.088,0.305
			c0.143,0.041,0.284,0.087,0.426,0.132c0.255,0.081,0.51,0.16,0.758,0.26c0.21,0.093,0.411,0.196,0.597,0.331
			c0.09,0.075,0.17,0.157,0.244,0.248c0.082,0.115,0.148,0.236,0.205,0.365c0.188,0.465,0.276,0.956,0.405,1.439h0.001
			c-0.013-0.451,0.004-0.899-0.058-1.347c-0.027-0.202-0.071-0.401-0.153-0.589c-0.013-0.029-0.026-0.058-0.04-0.087
			c-0.076-0.605-0.184-1.206-0.392-1.781c-0.315-0.868-0.903-1.635-1.582-2.254c-0.699-0.64-1.533-1.162-2.438-1.45
			c-0.474-0.151-0.971-0.215-1.464-0.268c-0.16-0.017-0.321-0.025-0.481-0.025C15.552,9.977,15.212,10.014,14.876,10.083"/>
	</g>
</g>
<g id="Capa_2" display="none">
	<path display="inline" fill="#292521" d="M17.515,16.025c-0.238,0.064-0.463,0.162-0.689,0.26
		c-0.184,0.079-0.366,0.167-0.537,0.271c-0.145,0.086-0.288,0.172-0.432,0.26c-0.129,0.076-0.25,0.171-0.373,0.257
		c-0.154,0.106-0.299,0.224-0.445,0.341c-0.104,0.083-0.21,0.164-0.309,0.254c-0.112,0.104-0.231,0.204-0.338,0.312
		c-0.121,0.125-0.242,0.248-0.361,0.371c-0.203,0.207-0.389,0.429-0.569,0.655c-0.204,0.257-0.399,0.521-0.58,0.793
		c-0.329,0.5-0.655,1.005-0.938,1.534c-0.067,0.126-0.139,0.25-0.197,0.381c-0.089,0.2-0.186,0.399-0.264,0.604
		c-0.061,0.16-0.121,0.318-0.184,0.479c-0.049,0.129-0.088,0.264-0.131,0.395c-0.083,0.255-0.156,0.513-0.222,0.771
		c-0.037,0.149-0.087,0.301-0.112,0.452c-0.029,0.174-0.059,0.347-0.088,0.521c-0.032,0.186-0.048,0.373-0.066,0.561
		c-0.013,0.131-0.025,0.261-0.033,0.393c-0.016,0.319-0.025,0.639-0.033,0.959c-0.022,0.926,0.203,1.85,0.656,2.656
		c0.129,0.23,0.285,0.441,0.443,0.651c0.124,0.163,0.242,0.334,0.375,0.491c0.303,0.355,0.6,0.716,0.936,1.043
		c0.627,0.615,1.367,1.132,2.154,1.521c0.219,0.109,0.445,0.205,0.672,0.301c0.129,0.055,0.26,0.107,0.395,0.151
		c0.18,0.06,0.359,0.117,0.539,0.177c0.287,0.094,0.58,0.165,0.872,0.242c0.284,0.075,0.575,0.129,0.864,0.191
		c0.269,0.058,0.541,0.1,0.81,0.15c0.153,0.029,0.312,0.044,0.465,0.064c0.17,0.023,0.345,0.058,0.517,0.07
		c0.294,0.02,0.589,0.049,0.882,0.059c0.305,0.01,0.605,0.021,0.909,0.023c0.525,0.006,1.057,0.021,1.582-0.024
		c0.979-0.089,1.932-0.336,2.865-0.629c0.16-0.05,0.32-0.103,0.48-0.15c0.406-0.129,0.805-0.291,1.191-0.471
		c0.781-0.361,1.512-0.853,2.119-1.464c0.305-0.307,0.58-0.648,0.812-1.014c0.123-0.192,0.215-0.402,0.301-0.613
		c0.086-0.204,0.156-0.412,0.215-0.627c0.178-0.635,0.23-1.291,0.25-1.947c0.016-0.542,0.014-1.086-0.021-1.628
		c-0.033-0.568-0.076-1.136-0.152-1.7c0,0.005,0.002,0.009,0.002,0.014c-0.008-0.06-0.014-0.115-0.033-0.173
		c-0.012-0.041-0.012-0.057-0.051-0.063c-0.062-0.014-0.143,0.052-0.195,0.076c-0.002,0,0,0,0.002,0
		c0.047-0.009,0.094-0.021,0.141-0.028l0,0c0.014-0.002,0.025-0.002,0.039,0l0,0c0.01,0.112-0.006,0.228-0.014,0.342
		c-0.008,0.069-0.014,0.142-0.02,0.212c-0.014,0.165-0.035,0.328-0.053,0.492c-0.031,0.304-0.07,0.605-0.107,0.908
		c-0.053,0.377-0.104,0.754-0.178,1.127c-0.043,0.22-0.086,0.441-0.129,0.662c-0.096,0.511-0.242,1.013-0.438,1.492
		c-0.139,0.314-0.301,0.619-0.502,0.896c-0.285,0.354-0.611,0.67-0.969,0.953c-0.52,0.389-1.094,0.694-1.688,0.952
		c-0.342,0.141-0.689,0.262-1.039,0.369c-0.217,0.068-0.434,0.145-0.65,0.203c-0.232,0.062-0.465,0.125-0.695,0.188
		c-0.393,0.106-0.791,0.188-1.193,0.247c-0.479,0.058-0.957,0.062-1.438,0.057c-0.24-0.004-0.48-0.006-0.722-0.014
		c-0.24-0.01-0.484-0.012-0.727-0.028c-0.264-0.021-0.525-0.043-0.789-0.062c-0.217-0.029-0.434-0.059-0.646-0.1
		c-0.288-0.059-0.579-0.111-0.865-0.176c-0.297-0.068-0.596-0.133-0.889-0.215c-0.18-0.049-0.36-0.1-0.541-0.148
		c-0.117-0.033-0.231-0.076-0.346-0.115c-0.24-0.082-0.477-0.161-0.711-0.258c-0.599-0.263-1.162-0.591-1.685-0.981
		c-0.394-0.315-0.759-0.675-1.082-1.062c-0.131-0.158-0.263-0.315-0.394-0.475c-0.088-0.117-0.174-0.232-0.263-0.35
		c-0.204-0.272-0.382-0.562-0.522-0.871c-0.121-0.307-0.209-0.622-0.262-0.947c-0.047-0.432-0.031-0.873-0.008-1.307
		c0.01-0.155,0.014-0.314,0.028-0.473c0.015-0.146,0.028-0.291,0.044-0.438c0.027-0.174,0.051-0.352,0.094-0.522
		c0.061-0.241,0.118-0.483,0.188-0.726c0.068-0.241,0.143-0.479,0.221-0.717c0.061-0.187,0.136-0.368,0.208-0.553
		c0.046-0.104,0.092-0.209,0.138-0.313c0.051-0.115,0.114-0.226,0.174-0.336c0.119-0.224,0.244-0.448,0.379-0.664
		c0.154-0.245,0.311-0.49,0.472-0.732c0.14-0.209,0.284-0.415,0.431-0.62c0.191-0.238,0.385-0.474,0.604-0.689
		c0.255-0.256,0.509-0.51,0.785-0.741c0.088-0.067,0.174-0.135,0.262-0.201c0.117-0.09,0.244-0.167,0.365-0.249
		c0.32-0.212,0.662-0.402,1.014-0.56c0.225-0.089,0.455-0.161,0.693-0.204c0.308-0.027,0.612-0.004,0.92,0.025
		c0.072,0.012,0.146,0.022,0.219,0.035c0.113,0.018,0.229,0.053,0.34,0.079c0.109,0.026,0.219,0.066,0.327,0.101
		c0.073,0.022,0.147,0.053,0.22,0.082c0.513,0.231,1.019,0.479,1.533,0.711c0.23,0.104,0.474,0.205,0.715,0.281
		c0.231,0.075,0.483,0.104,0.726,0.119c0.152,0.01,0.305,0.004,0.457-0.002c0.395-0.016,0.787-0.051,1.178-0.115
		c0.469-0.078,0.9-0.274,1.33-0.461c0.205-0.09,0.404-0.188,0.607-0.279c0.145-0.057,0.289-0.104,0.439-0.135
		c0.137-0.008,0.27-0.006,0.406,0.006c0.154,0.029,0.307,0.07,0.453,0.125c0.162,0.074,0.316,0.162,0.461,0.267
		c0.068,0.05,0.141,0.101,0.211,0.149c0.344,0.283,0.684,0.576,0.994,0.896c0.186,0.192,0.367,0.384,0.547,0.583
		c0.16,0.178,0.309,0.362,0.459,0.546c-0.002-0.003-0.004-0.005-0.006-0.008c0.096,0.124,0.195,0.244,0.283,0.371
		c0.115,0.169,0.23,0.337,0.348,0.505c0.111,0.164,0.211,0.339,0.316,0.509c0.156,0.248,0.312,0.497,0.471,0.747
		c0,0.001,0.002,0,0-0.001c-0.135-0.419-0.273-0.837-0.416-1.254c-0.035-0.101-0.072-0.196-0.113-0.295
		c-0.062-0.153-0.119-0.313-0.189-0.463c-0.074-0.151-0.148-0.304-0.225-0.453c-0.066-0.136-0.145-0.269-0.219-0.399
		c-0.131-0.233-0.279-0.459-0.434-0.678c-0.189-0.269-0.387-0.535-0.598-0.787c-0.191-0.226-0.381-0.455-0.596-0.66
		c-0.223-0.213-0.449-0.416-0.705-0.588c-0.191-0.128-0.402-0.22-0.615-0.306c-0.225-0.091-0.459-0.131-0.697-0.161
		c-0.398-0.049-0.818,0.034-1.193,0.176c-0.15,0.057-0.301,0.112-0.449,0.168c-0.135,0.051-0.27,0.101-0.404,0.15
		c-0.273,0.102-0.553,0.182-0.842,0.229c-0.174,0.02-0.35,0.031-0.523,0.041c-0.264,0.018-0.531,0.028-0.797,0.006
		c-0.221-0.045-0.43-0.125-0.639-0.209c-0.522-0.236-1.044-0.483-1.569-0.711c-0.326-0.141-0.661-0.258-1.007-0.338
		c-0.354-0.084-0.717-0.123-1.078-0.156c-0.105-0.01-0.211-0.014-0.318-0.014C18.175,15.891,17.835,15.938,17.515,16.025"/>
	<path display="inline" fill="#292521" d="M27.814,10.113c-0.059,0.004-0.115,0.012-0.17,0.019c-0.289,0.037-0.57,0.081-0.848,0.168
		c-0.803,0.251-1.529,0.733-2.148,1.292c-0.654,0.59-1.219,1.291-1.637,2.067c-0.216,0.403-0.395,0.833-0.527,1.271
		c-0.131,0.426-0.213,0.865-0.225,1.31c-0.013,0.501,0.104,0.989,0.256,1.462c0.075,0.234,0.168,0.462,0.258,0.689
		c0.092,0.231,0.186,0.463,0.279,0.692c0,0,0.002,0,0.002-0.001c-0.021-0.412-0.051-0.825-0.074-1.236
		c-0.026-0.416-0.041-0.837,0.007-1.25c0.036-0.236,0.089-0.467,0.159-0.693c0.066-0.215,0.15-0.424,0.238-0.631
		c0.215-0.496,0.473-0.972,0.75-1.435c0.273-0.457,0.568-0.899,0.891-1.323c0.406-0.519,0.85-1.002,1.369-1.41
		c0.326-0.246,0.67-0.457,1.045-0.623c0.201-0.082,0.404-0.172,0.613-0.229c0.033-0.003,0.062-0.002,0.098,0.001
		c0.113,0.021,0.221,0.061,0.334,0.085c0,0,0.002-0.001,0-0.001c-0.137-0.088-0.264-0.205-0.428-0.232
		c-0.023-0.002-0.047-0.004-0.07-0.004C27.93,10.1,27.869,10.109,27.814,10.113"/>
	<path display="inline" fill="#292521" d="M14.216,8.352c-0.285,0.021-0.57,0.045-0.859,0.052c-0.135,0.004-0.271-0.001-0.405-0.011
		c-0.062-0.004-0.121-0.011-0.183-0.01C12.708,8.384,12.56,8.4,12.48,8.432c-0.194,0.077-0.229,0.09-0.389,0.226
		c-0.14,0.118-0.242,0.315-0.279,0.493c-0.043,0.215-0.035,0.438,0.045,0.646c0.053,0.138,0.109,0.261,0.188,0.384
		c0.079,0.125,0.176,0.241,0.266,0.357c0.131,0.166,0.28,0.314,0.437,0.458c0.224,0.205,0.47,0.383,0.716,0.56
		c0.324,0.232,0.672,0.439,1.032,0.609c0.729,0.345,1.517,0.55,2.323,0.574c0.294,0.008,0.588,0.014,0.884,0.001
		c0.298-0.013,0.595-0.026,0.894-0.046c0.603-0.041,1.203-0.104,1.807-0.103c0.203,0.001,0.404,0.023,0.605,0.05
		c0.143,0.022,0.281,0.055,0.416,0.106c0.074,0.033,0.145,0.069,0.209,0.116c0.062,0.054,0.117,0.113,0.168,0.176
		c0.094,0.126,0.168,0.262,0.23,0.407c0.122,0.302,0.2,0.616,0.302,0.928h0.001c-0.028-0.415-0.019-0.837-0.127-1.241
		c-0.045-0.167-0.118-0.328-0.213-0.474c-0.111-0.169-0.277-0.292-0.449-0.394c-0.135-0.08-0.285-0.138-0.432-0.185
		c-0.076-0.024-0.152-0.052-0.23-0.072c-0.145-0.038-0.291-0.073-0.439-0.101c-0.612-0.108-1.237-0.143-1.857-0.189
		c-0.441-0.035-0.883-0.078-1.322-0.125c-0.127-0.021-0.254-0.039-0.382-0.06c-0.388-0.058-0.77-0.183-1.133-0.329
		c-0.333-0.148-0.659-0.332-0.951-0.55c-0.099-0.074-0.198-0.147-0.296-0.222c-0.104-0.086-0.206-0.175-0.309-0.262
		c-0.129-0.107-0.254-0.227-0.371-0.351c0.508-0.063,1.016-0.117,1.529-0.132c0.572-0.018,1.147-0.024,1.722-0.014
		c0.401,0.008,0.801,0.016,1.2,0.062c0.646,0.096,1.272,0.273,1.877,0.521c0.445,0.193,0.873,0.425,1.263,0.716
		c0.24,0.19,0.463,0.399,0.655,0.638c0.238,0.323,0.425,0.677,0.591,1.042c0.173,0.376,0.327,0.761,0.491,1.141c0,0.001,0,0,0-0.001
		c-0.064-0.42-0.125-0.842-0.207-1.26c-0.08-0.412-0.199-0.812-0.379-1.19c-0.178-0.371-0.441-0.705-0.728-0.998
		c-0.299-0.31-0.65-0.57-1.01-0.802C20.09,9.07,19.256,8.729,18.4,8.548c-0.5-0.104-1.012-0.145-1.521-0.186
		c-0.262-0.022-0.526-0.03-0.789-0.04c-0.333-0.012-0.665-0.02-0.997-0.021c-0.01,0-0.02,0-0.029,0
		C14.782,8.305,14.498,8.33,14.216,8.352"/>
	<path display="inline" fill="#292521" d="M11.726,22.641c-0.004,0.002-0.008,0.004-0.012,0.004
		C11.718,22.645,11.722,22.643,11.726,22.641 M31.01,22.46c0.004,0.003,0.006,0.006,0.01,0.009
		C31.016,22.466,31.014,22.463,31.01,22.46 M28.318,20.176c-0.166,0-0.307,0.053-0.455,0.122c-0.098,0.046-0.186,0.13-0.258,0.209
		c-0.08,0.089-0.152,0.189-0.215,0.291c-0.119,0.194-0.201,0.418-0.266,0.636c-0.059,0.207-0.088,0.42-0.119,0.635
		c-0.025,0.181-0.047,0.363-0.061,0.545c-0.014,0.191-0.025,0.382-0.027,0.572c-0.004,0.191-0.002,0.383,0.002,0.573
		c0.002,0.166,0.006,0.332,0.006,0.498c0.002,0.204,0.006,0.41-0.01,0.614c-0.006,0.032-0.014,0.064-0.023,0.097
		c-0.002,0.007-0.006,0.011-0.008,0.017c-0.088,0.027-0.178,0.049-0.268,0.063c-0.068,0.005-0.137,0.007-0.205,0.003
		c-0.076-0.017-0.15-0.037-0.225-0.062c-0.025-0.015-0.049-0.027-0.074-0.042c-0.023-0.037-0.045-0.077-0.064-0.117
		c-0.072-0.211-0.113-0.428-0.158-0.646c-0.023-0.125-0.045-0.252-0.066-0.377c-0.023-0.151-0.049-0.303-0.074-0.453
		c-0.025-0.146-0.059-0.289-0.094-0.433c-0.053-0.229-0.154-0.454-0.252-0.667c-0.105-0.234-0.248-0.433-0.408-0.634
		c-0.141-0.179-0.332-0.323-0.523-0.442c-0.127-0.076-0.27-0.128-0.408-0.18c-0.104-0.038-0.211-0.064-0.32-0.083
		c-0.15-0.026-0.307-0.049-0.463-0.046c-0.145,0.002-0.294,0.029-0.438,0.062c-0.144,0.03-0.277,0.099-0.412,0.154
		c-0.099,0.043-0.19,0.1-0.279,0.161c-0.122,0.083-0.239,0.178-0.349,0.278c-0.105,0.102-0.195,0.225-0.281,0.341
		c-0.156,0.208-0.262,0.437-0.359,0.676c-0.145,0.356-0.211,0.735-0.273,1.115c-0.041,0.255-0.07,0.511-0.105,0.767
		c0.01-0.068,0.018-0.136,0.027-0.203c-0.043,0.307-0.076,0.613-0.113,0.922c-0.018,0.114-0.035,0.229-0.055,0.344
		c-0.051,0.33-0.135,0.66-0.253,0.973c-0.062,0.132-0.137,0.257-0.22,0.376c-0.178,0.212-0.377,0.402-0.592,0.577
		c-0.179,0.131-0.366,0.248-0.567,0.342c-0.173,0.064-0.352,0.115-0.533,0.148c-0.092,0.009-0.186,0.011-0.278,0.006
		c-0.032-0.008-0.063-0.016-0.097-0.026c-0.039-0.021-0.078-0.043-0.115-0.067c-0.035-0.031-0.068-0.063-0.1-0.1
		c-0.037-0.055-0.068-0.111-0.099-0.168c-0.065-0.191-0.106-0.39-0.14-0.589c-0.039-0.345-0.043-0.69-0.004-1.035
		c0.043-0.289,0.101-0.575,0.146-0.866c0.054-0.342,0.103-0.683,0.144-1.025c0.062-0.518,0.106-1.053-0.018-1.561
		c-0.029-0.125-0.088-0.244-0.139-0.363c-0.035-0.08-0.08-0.155-0.129-0.229c-0.151-0.231-0.342-0.41-0.567-0.567
		c-0.185-0.127-0.401-0.211-0.61-0.287c-0.209-0.075-0.429-0.117-0.647-0.147c-0.313-0.044-0.628-0.067-0.945-0.052
		c-0.299,0.015-0.585,0.074-0.862,0.188c-0.277,0.114-0.527,0.266-0.771,0.439c-0.093,0.068-0.188,0.137-0.276,0.213
		c-0.305,0.264-0.592,0.548-0.91,0.798c-0.104,0.074-0.213,0.13-0.33,0.181c0-0.002,0.002-0.002,0.002-0.002
		c-0.164,0.066-0.332,0.127-0.5,0.193v0.001c0.195-0.024,0.39-0.043,0.584-0.073c0.172-0.029,0.326-0.087,0.481-0.166
		c0.153-0.078,0.306-0.16,0.454-0.246c0.133-0.078,0.262-0.158,0.396-0.232c0.17-0.096,0.347-0.182,0.525-0.262
		c0.219-0.088,0.441-0.154,0.674-0.192c0.178-0.019,0.351-0.015,0.527,0.006c0.346,0.052,0.688,0.142,1.012,0.271
		c0.164,0.074,0.319,0.16,0.467,0.264c0.06,0.052,0.115,0.105,0.168,0.166c0.043,0.062,0.082,0.13,0.117,0.199
		c0.024,0.072,0.045,0.144,0.061,0.218c0.014,0.188,0,0.379-0.023,0.565c-0.037,0.254-0.087,0.508-0.146,0.758
		c-0.07,0.295-0.136,0.591-0.209,0.885c-0.041,0.164-0.08,0.329-0.12,0.494c-0.032,0.134-0.053,0.271-0.071,0.406
		c-0.036,0.269-0.057,0.527-0.049,0.799c0.008,0.266,0.046,0.529,0.086,0.791c0.031,0.205,0.082,0.41,0.161,0.601
		c0.059,0.142,0.113,0.272,0.193,0.399c0.078,0.125,0.172,0.24,0.271,0.35s0.224,0.195,0.339,0.283
		c0.131,0.099,0.285,0.158,0.436,0.22c0.17,0.069,0.336,0.089,0.52,0.111c0.137,0.019,0.275,0.009,0.413-0.009
		c0.331-0.037,0.647-0.104,0.959-0.227c0.302-0.117,0.582-0.262,0.845-0.449c0.283-0.203,0.552-0.427,0.791-0.68
		c0.217-0.229,0.41-0.484,0.559-0.762c0.16-0.301,0.271-0.631,0.358-0.959c0.082-0.311,0.133-0.635,0.176-0.953
		c-0.002,0.021-0.004,0.044-0.008,0.066c0.004-0.028,0.008-0.058,0.012-0.084c0.002-0.02,0.004-0.039,0.008-0.058
		c0.015-0.112,0.029-0.223,0.045-0.335c0.035-0.26,0.072-0.518,0.113-0.777c0.059-0.381,0.138-0.768,0.271-1.129
		c0.053-0.111,0.113-0.217,0.184-0.318c0.051-0.06,0.104-0.114,0.162-0.168c0.057-0.036,0.113-0.069,0.174-0.102
		c0.045-0.015,0.09-0.027,0.135-0.038c0.039-0.001,0.076,0,0.113,0.003c0.082,0.017,0.164,0.037,0.244,0.064
		c0.037,0.02,0.074,0.042,0.109,0.064c0.043,0.039,0.082,0.078,0.119,0.121c0.076,0.111,0.141,0.229,0.195,0.351
		c0.227,0.606,0.229,1.271,0.367,1.901c0.051,0.244,0.137,0.474,0.248,0.699c0.061,0.127,0.152,0.239,0.238,0.35
		c0.098,0.119,0.223,0.205,0.346,0.295c0.07,0.053,0.152,0.09,0.232,0.125c0.141,0.061,0.271,0.115,0.418,0.154
		c0.139,0.036,0.283,0.049,0.426,0.067c0.164,0.021,0.332-0.01,0.492-0.034c0.18-0.025,0.354-0.066,0.52-0.135
		c0.133-0.055,0.254-0.1,0.363-0.186c0.076-0.059,0.148-0.108,0.217-0.176c0.074-0.072,0.133-0.162,0.195-0.244
		c0.08-0.107,0.123-0.246,0.176-0.369c0.055-0.131,0.066-0.287,0.082-0.424c0.018-0.147,0.01-0.296-0.002-0.443
		c-0.029-0.471-0.078-0.941-0.111-1.412c-0.018-0.234-0.031-0.469-0.031-0.702c-0.002-0.272-0.006-0.545,0.023-0.817
		c0.023-0.154,0.061-0.307,0.113-0.455c0.021-0.041,0.043-0.08,0.068-0.119c0.01-0.002,0.018-0.004,0.027-0.006
		c0.152-0.011,0.307,0.004,0.461,0.02c0.057,0.01,0.111,0.02,0.168,0.027c0.201,0.033,0.4,0.104,0.59,0.18
		c0.201,0.089,0.389,0.193,0.564,0.322c0.293,0.233,0.547,0.504,0.775,0.801c0.252,0.33,0.482,0.678,0.721,1.018
		c0,0.001,0,0,0-0.001c-0.145-0.388-0.283-0.778-0.449-1.157c-0.17-0.383-0.387-0.732-0.656-1.051
		c-0.27-0.314-0.625-0.56-0.992-0.744C29.443,20.45,29.225,20.362,29,20.3c-0.115-0.034-0.23-0.063-0.35-0.087
		c-0.107-0.021-0.217-0.035-0.326-0.035C28.322,20.175,28.32,20.175,28.318,20.176"/>
	<path display="inline" fill="#292521" d="M37.971,9.143c-0.1,0.018-0.189,0.045-0.285,0.08c-0.252,0.092-0.496,0.207-0.73,0.338
		c-0.381,0.213-0.742,0.461-1.09,0.721c-0.121,0.089-0.238,0.182-0.354,0.275c-0.15,0.077-0.301,0.156-0.447,0.238
		c-0.379,0.209-0.742,0.441-1.098,0.688c-0.271,0.189-0.547,0.385-0.801,0.597c-0.807,0.67-1.598,1.356-2.369,2.067
		c0,0,0,0.002,0.002,0c0.562-0.291,1.125-0.582,1.686-0.879c-0.002,0.004-0.006,0.006-0.01,0.008
		c-0.221,0.193-0.438,0.391-0.664,0.576c-0.262,0.217-0.523,0.434-0.789,0.645c-0.24,0.182-0.506,0.325-0.758,0.49
		c0,0,0,0.001,0.002,0.001c0.186-0.056,0.375-0.108,0.559-0.169c0.189-0.063,0.367-0.146,0.545-0.232
		c0.135-0.066,0.27-0.13,0.402-0.195c0.26-0.129,0.514-0.265,0.768-0.404c0.514-0.287,1.014-0.59,1.508-0.902
		c0.514-0.324,1.021-0.652,1.525-0.986c0.26-0.172,0.527-0.33,0.791-0.496c0.17-0.108,0.342-0.211,0.516-0.312
		c0.051-0.028,0.1-0.056,0.148-0.084c0.014-0.005,0.027-0.01,0.043-0.017c0.246-0.092,0.492-0.183,0.74-0.271
		c0.109-0.041,0.221-0.079,0.332-0.117c0.096-0.033,0.191-0.061,0.287-0.097c0.102-0.04,0.201-0.07,0.303-0.12
		c0.102-0.053,0.225-0.184,0.281-0.279c0.031-0.058,0.076-0.16,0.09-0.236c0.008-0.066,0.016-0.133,0.025-0.196
		c-0.002-0.134-0.035-0.258-0.102-0.373c-0.066-0.112-0.154-0.201-0.266-0.267c-0.115-0.067-0.24-0.101-0.373-0.101
		c-0.045-0.004-0.088-0.009-0.133-0.014c-0.016-0.002-0.031-0.003-0.049-0.003C38.127,9.114,38.041,9.131,37.971,9.143"/>
	<path display="inline" fill="#292521" d="M24.543,4.652c0.004,0.005,0.008,0.01,0.008,0.015
		C24.551,4.662,24.547,4.657,24.543,4.652 M24.852,4.005c-0.082,0.024-0.154,0.066-0.215,0.126
		c-0.166,0.131-0.221,0.366-0.254,0.562c-0.02,0.104-0.029,0.209-0.043,0.313c-0.018,0.132-0.021,0.267-0.029,0.399
		c-0.014,0.262-0.023,0.523-0.021,0.787c0.004,0.209,0.012,0.416,0.023,0.623c-0.035,0.174-0.072,0.347-0.109,0.519
		c-0.061,0.29-0.117,0.58-0.168,0.873c-0.053,0.304-0.111,0.61-0.109,0.92c0,0.118,0.008,0.237,0.027,0.354
		c0.014,0.07,0.043,0.179,0.139,0.156c0.053-0.012,0.08-0.063,0.107-0.103c0.039-0.058,0.061-0.129,0.086-0.193
		c0,0.001,0,0.003,0,0.005c0.01-0.025,0.021-0.052,0.033-0.076c0,0-0.002-0.002-0.002,0c-0.061,0.055-0.111,0.115-0.172,0.17
		c0.047-0.217,0.123-0.426,0.207-0.633c0.234-0.55,0.49-1.092,0.721-1.646c0.109-0.263,0.223-0.531,0.301-0.806
		c0.051-0.18,0.104-0.359,0.143-0.541c0.051-0.234,0.086-0.475,0.09-0.715c0.002-0.106-0.008-0.213-0.021-0.318
		c-0.023-0.167-0.043-0.324-0.117-0.479c-0.031-0.067-0.078-0.127-0.137-0.174c-0.105-0.084-0.205-0.143-0.348-0.143
		C24.939,3.994,24.896,4,24.852,4.005"/>
	<path display="inline" fill="#292521" d="M4.118,13.115c-0.001,0.002-0.003,0.004-0.005,0.007c-0.064,0.112-0.098,0.231-0.098,0.36
		c0,0.131,0.032,0.25,0.098,0.363c0.052,0.068,0.097,0.143,0.164,0.198c0.07,0.058,0.145,0.113,0.216,0.167
		c0.052,0.04,0.104,0.079,0.159,0.116c0.08,0.052,0.16,0.104,0.24,0.155c0.117,0.076,0.236,0.143,0.358,0.209
		c0.29,0.156,0.588,0.287,0.89,0.418c0.322,0.141,0.652,0.257,0.983,0.373c0.106,0.039,0.22,0.068,0.329,0.1
		c0.172,0.051,0.345,0.1,0.518,0.148c0.105,0.031,0.211,0.058,0.317,0.084c0.289,0.084,0.58,0.16,0.872,0.229
		c0.73,0.169,1.463,0.325,2.199,0.469c0,0,0,0,0-0.002c-0.133-0.072-0.268-0.143-0.401-0.214c0.181,0.017,0.363,0.029,0.545,0.039
		c0.323,0.019,0.646,0.034,0.97,0.033c0.473-0.001,0.938-0.086,1.402-0.16c0.001,0,0.001-0.001,0-0.002
		c-0.43-0.067-0.861-0.124-1.29-0.213c-0.278-0.06-0.555-0.134-0.831-0.206c-0.572-0.148-1.133-0.332-1.688-0.538
		c-0.317-0.117-0.631-0.242-0.945-0.366c-0.127-0.054-0.255-0.109-0.384-0.162c-0.048-0.021-0.095-0.041-0.144-0.062
		c-0.054-0.022-0.109-0.046-0.164-0.069c-0.125-0.055-0.25-0.109-0.375-0.165c-0.129-0.056-0.262-0.104-0.388-0.167
		c-0.146-0.07-0.292-0.141-0.438-0.211c-0.107-0.052-0.219-0.1-0.326-0.156c-0.17-0.09-0.34-0.178-0.512-0.265
		c-0.109-0.056-0.215-0.117-0.32-0.176c-0.125-0.069-0.254-0.134-0.375-0.207c-0.168-0.101-0.336-0.204-0.502-0.306
		C5.066,12.826,4.9,12.764,4.73,12.764C4.476,12.764,4.25,12.9,4.118,13.115"/>
	<path display="inline" fill="#292521" d="M2.6,18.717c-0.203,0.028-0.381,0.122-0.48,0.25c-0.083,0.11-0.113,0.234-0.066,0.357
		c0.058,0.147,0.238,0.292,0.458,0.323c0.265,0.038,0.538,0.062,0.803,0.094c0.256,0.033,0.513,0.063,0.769,0.099
		c0.564,0.079,1.13,0.156,1.697,0.228c1.165,0.148,2.342,0.255,3.518,0.351c0.121,0.009,0.243,0.02,0.363,0.029
		c0.001,0,0.001-0.002,0-0.002c-0.499-0.146-0.999-0.287-1.502-0.424c0.206-0.003,0.412-0.007,0.617-0.014
		c0.152-0.005,0.304-0.013,0.455-0.02c0.111-0.005,0.225-0.012,0.336-0.014c0.124-0.001,0.249,0.004,0.372,0.009
		c0.248,0.009,0.494,0.022,0.743,0.03v-0.001c-0.372-0.092-0.738-0.195-1.12-0.257c-0.11-0.018-0.224-0.027-0.333-0.04
		c-0.088-0.011-0.176-0.02-0.265-0.031c-0.236-0.026-0.473-0.058-0.708-0.092c-0.127-0.019-0.256-0.033-0.384-0.054
		c-0.149-0.026-0.298-0.051-0.447-0.076c-0.267-0.044-0.532-0.093-0.797-0.142c-0.513-0.092-1.022-0.193-1.532-0.292
		c-0.255-0.049-0.508-0.097-0.764-0.145c-0.229-0.042-0.458-0.086-0.69-0.119c-0.225-0.032-0.457-0.057-0.687-0.063
		c-0.032-0.001-0.061-0.002-0.092-0.002C2.774,18.699,2.692,18.705,2.6,18.717"/>
</g>
<g id="Capa_3" display="none">
	<g display="inline">
		<path fill="#292521" d="M17.189,16.713c-0.355,0.006-0.711,0.051-1.058,0.131c-0.345,0.081-0.678,0.229-0.997,0.381
			c-0.57,0.271-1.07,0.684-1.523,1.121c-0.459,0.444-0.859,0.957-1.209,1.493s-0.609,1.113-0.853,1.702
			c-0.222,0.534-0.397,1.083-0.524,1.646c-0.107,0.484-0.184,0.984-0.219,1.479c-0.019,0.263-0.037,0.522-0.057,0.785
			c-0.034,0.472-0.036,0.946-0.007,1.419c0.038,0.636,0.187,1.254,0.419,1.846c0.456,1.154,1.122,2.24,2.061,3.065
			c0.48,0.423,1.012,0.784,1.582,1.073c0.564,0.287,1.156,0.527,1.76,0.716c0.486,0.151,0.992,0.276,1.498,0.351
			c0.252,0.037,0.504,0.074,0.756,0.111c0.818,0.12,1.652,0.163,2.479,0.158c0.424-0.002,0.848-0.004,1.271-0.021
			c0.234-0.009,0.469-0.021,0.703-0.028c0.256-0.013,0.515-0.045,0.77-0.08c0.359-0.047,0.717-0.104,1.07-0.181
			c0.252-0.055,0.5-0.128,0.748-0.196c0.355-0.098,0.707-0.205,1.05-0.34c0.563-0.226,1.098-0.494,1.587-0.854
			c0.248-0.183,0.484-0.376,0.705-0.591c0.22-0.211,0.413-0.444,0.597-0.688c0.522-0.691,0.822-1.533,0.935-2.389
			c0.117-0.885,0.043-1.776,0.018-2.664c0-0.001-0.002-0.002-0.002,0c-0.189,0.994-0.32,2.003-0.703,2.947
			c-0.16,0.371-0.359,0.717-0.602,1.039c-0.243,0.304-0.518,0.572-0.818,0.813c-0.4,0.299-0.835,0.548-1.293,0.749
			c-0.538,0.216-1.105,0.368-1.678,0.464c-0.264,0.044-0.526,0.089-0.789,0.134c-0.482,0.059-0.965,0.086-1.451,0.092
			c-0.234,0.002-0.467-0.01-0.701-0.016c-0.408-0.011-0.814-0.025-1.222-0.041c-0.39-0.015-0.778-0.037-1.166-0.056
			c-0.328-0.017-0.656-0.05-0.983-0.079c-0.262-0.039-0.523-0.079-0.787-0.117c-0.384-0.059-0.767-0.15-1.142-0.251
			c-0.39-0.104-0.771-0.235-1.146-0.388c-0.535-0.234-1.045-0.514-1.518-0.857c-0.324-0.265-0.619-0.558-0.882-0.881
			c-0.341-0.463-0.623-0.962-0.856-1.486c-0.15-0.377-0.27-0.767-0.338-1.166c-0.056-0.545-0.039-1.104,0.008-1.646
			c0.023-0.287,0.041-0.576,0.073-0.861c0.115-0.755,0.313-1.481,0.601-2.19c0.271-0.617,0.59-1.205,0.99-1.749
			c0.33-0.408,0.699-0.781,1.105-1.114c0.238-0.171,0.492-0.317,0.759-0.442c0.216-0.082,0.437-0.144,0.663-0.186
			c0.539-0.043,1.087,0.018,1.625,0.077c0.512,0.087,1.02,0.237,1.504,0.422c0.211,0.081,0.421,0.163,0.635,0.237
			c0.524,0.185,1.098,0.266,1.653,0.211c0.582-0.059,1.179-0.131,1.731-0.324c0.488-0.169,0.953-0.414,1.408-0.659
			c0.186-0.101,0.369-0.201,0.561-0.291c0.169-0.063,0.343-0.112,0.521-0.142c0.254-0.023,0.51-0.014,0.764,0.015
			c0.31,0.049,0.606,0.129,0.897,0.245c0.313,0.141,0.611,0.311,0.888,0.516c0.449,0.36,0.828,0.786,1.186,1.234
			c0.293,0.368,0.588,0.734,0.882,1.104c0.001,0,0.002,0,0.002-0.002c-0.235-0.524-0.479-1.047-0.725-1.566
			c-0.216-0.453-0.49-0.875-0.81-1.262c-0.363-0.437-0.839-0.799-1.34-1.062c-0.539-0.284-1.145-0.45-1.751-0.499
			c-0.286-0.022-0.577,0.015-0.858,0.065c-0.262,0.047-0.51,0.144-0.756,0.232c-0.396,0.145-0.795,0.292-1.203,0.395
			c-0.113,0.029-0.228,0.052-0.342,0.07c-0.207,0.021-0.416,0.032-0.623,0.037c-0.242,0.006-0.486,0.008-0.729-0.013
			c-0.206-0.038-0.407-0.097-0.604-0.17c-0.422-0.188-0.836-0.397-1.271-0.556c-0.322-0.115-0.642-0.227-0.978-0.295
			c-0.221-0.047-0.445-0.07-0.668-0.099c-0.098-0.012-0.194-0.028-0.293-0.035c-0.299-0.022-0.598-0.043-0.897-0.043
			C17.253,16.712,17.221,16.712,17.189,16.713"/>
		<path fill="#EC7F4C" d="M28.448,23.537c-0.808,0.002-1.615,0.018-2.421,0.042c-1.637,0.051-3.268,0.158-4.898,0.308
			c-1.293,0.118-2.585,0.264-3.875,0.428c-0.001,0-0.001,0,0,0c1.771,0.293,3.553,0.533,5.344,0.675
			c1.693,0.134,3.395,0.206,5.092,0.224c0.828,0.01,1.652,0.004,2.479-0.02c0.835-0.023,1.667-0.077,2.5-0.145
			c0.808-0.064,1.613-0.162,2.416-0.261c0.808-0.099,1.612-0.209,2.415-0.339c0.497-0.08,0.993-0.168,1.488-0.264
			c0.229-0.043,0.459-0.086,0.688-0.133c0.106-0.021,0.213-0.046,0.319-0.068c0.138-0.031,0.274-0.082,0.413-0.108
			c0.015,0.001,0.029,0.002,0.044,0.004c0.121,0.027,0.231,0.079,0.351,0.117c0.002,0,0.002-0.002,0.002-0.002
			c-0.019-0.013-0.035-0.024-0.053-0.037c0.001,0.001,0.001,0.001,0.002,0.002c-0.085-0.065-0.167-0.133-0.262-0.185
			c-0.073-0.041-0.145-0.033-0.227-0.031c-0.101,0.003-0.201,0.005-0.304,0.006c-0.187,0.002-0.375-0.002-0.562-0.006
			c-0.4-0.012-0.801-0.014-1.201-0.02c-0.807-0.011-1.611-0.024-2.417-0.045c-1.632-0.039-3.263-0.056-4.894-0.101
			c-0.779-0.022-1.56-0.043-2.34-0.043C28.518,23.537,28.482,23.537,28.448,23.537"/>
		<path fill="#EC7F4C" d="M34.756,28.223c0.01-0.008,0.02-0.016,0.029-0.022C34.775,28.207,34.766,28.215,34.756,28.223
			 M30.963,12.868c-0.232,0.151-0.406,0.354-0.48,0.626c-0.068,0.248-0.053,0.59,0.104,0.807c0.106,0.147,0.197,0.262,0.33,0.377
			c0.052,0.043,0.104,0.084,0.154,0.127c0.085,0.073,0.167,0.147,0.249,0.223c0.146,0.131,0.283,0.27,0.426,0.404
			c0.311,0.293,0.623,0.582,0.938,0.869c0.602,0.545,1.187,1.105,1.779,1.658c0.62,0.576,1.258,1.135,1.887,1.7
			c0.303,0.271,0.59,0.553,0.885,0.833c0.291,0.277,0.566,0.568,0.849,0.857c0.087,0.09,0.181,0.176,0.263,0.271
			c0.135,0.157,0.27,0.312,0.403,0.468c0.367,0.424,0.733,0.848,1.101,1.274c0.002,0.001,0.002,0,0.002-0.001
			c-0.276-0.553-0.562-1.1-0.854-1.645c-0.08-0.148-0.151-0.307-0.243-0.449c-0.111-0.177-0.225-0.353-0.337-0.528
			c-0.041-0.062-0.08-0.125-0.121-0.188c0.252,0.194,0.505,0.389,0.759,0.578c0.334,0.249,0.668,0.496,0.998,0.748
			c0.205,0.166,0.412,0.333,0.602,0.52c0.154,0.154,0.3,0.318,0.438,0.487c0.029,0.042,0.059,0.083,0.086,0.125
			c-0.031,0.052-0.062,0.101-0.097,0.148c-0.146,0.176-0.297,0.343-0.459,0.503c-0.194,0.189-0.403,0.359-0.615,0.529
			c-0.584,0.442-1.173,0.879-1.758,1.319c-0.703,0.529-1.39,1.08-2.083,1.62c-0.186,0.145-0.371,0.289-0.557,0.436
			c-0.275,0.211-0.551,0.423-0.823,0.635c0.028-0.021,0.056-0.043,0.085-0.064c-0.659,0.508-1.311,1.031-1.934,1.584
			c-0.609,0.54-1.183,1.12-1.742,1.713c-0.096,0.104-0.191,0.205-0.288,0.309c-0.216,0.229-0.41,0.474-0.604,0.722
			c0,0.001,0.002,0.002,0.002,0.001c0.168-0.128,0.332-0.262,0.498-0.391c0.313-0.239,0.645-0.463,0.967-0.69
			c0.332-0.235,0.666-0.47,1.004-0.698c0.656-0.442,1.346-0.834,2.035-1.22c0.756-0.422,1.519-0.832,2.275-1.251
			c0.361-0.199,0.721-0.408,1.078-0.613c0.354-0.205,0.711-0.4,1.066-0.602c0.721-0.404,1.451-0.797,2.147-1.243
			c0.526-0.339,1.031-0.729,1.442-1.204c0.134-0.154,0.262-0.32,0.369-0.496c0.035-0.057,0.062-0.117,0.088-0.179
			c0.059-0.136,0.113-0.26,0.156-0.397c0.037-0.121,0.062-0.342,0.063-0.432c0.004-0.068,0.002-0.131-0.005-0.197
			c-0.016-0.147-0.023-0.27-0.069-0.402c-0.049-0.145-0.11-0.285-0.187-0.417c-0.033-0.058-0.075-0.109-0.115-0.162
			c-0.082-0.106-0.162-0.211-0.248-0.313c-0.059-0.067-0.123-0.136-0.189-0.195c-0.217-0.184-0.438-0.357-0.685-0.497
			c-0.187-0.106-0.39-0.188-0.573-0.298c-0.22-0.131-0.433-0.271-0.646-0.411c-0.352-0.234-0.686-0.496-1.02-0.755
			c0.022,0.017,0.043,0.033,0.065,0.051c-0.601-0.492-1.195-0.99-1.772-1.51c-0.636-0.568-1.271-1.14-1.902-1.711
			c-0.627-0.567-1.25-1.139-1.877-1.705c-0.278-0.254-0.574-0.489-0.865-0.729c-0.153-0.125-0.312-0.246-0.469-0.368
			c-0.408-0.318-0.896-0.729-1.418-0.729C31.339,12.695,31.152,12.746,30.963,12.868"/>
		<path d="M26.188,12.18c-0.104,0.026-0.203,0.058-0.306,0.088c-0.181,0.056-0.36,0.11-0.538,0.176
			c-0.584,0.217-1.146,0.481-1.647,0.856c-0.47,0.353-0.896,0.785-1.146,1.321c-0.264,0.564-0.347,1.18-0.315,1.799
			c0.033,0.667,0.195,1.334,0.35,1.983c0.102,0.424,0.214,0.846,0.335,1.266c0,0.001,0.002,0.001,0.002,0
			c0.052-0.55,0.091-1.101,0.118-1.651c0.029-0.619,0.027-1.242,0.104-1.857c0.058-0.378,0.164-0.735,0.299-1.09
			c0.113-0.24,0.252-0.461,0.41-0.674c0.295-0.365,0.633-0.69,0.992-0.991c0.127-0.106,0.258-0.207,0.387-0.31
			c0.182-0.128,0.361-0.257,0.543-0.382c0.086-0.058,0.17-0.116,0.254-0.175c0.103-0.068,0.205-0.148,0.314-0.202
			c0.033-0.01,0.066-0.019,0.102-0.022c0.119-0.014,0.238-0.016,0.359-0.026v-0.002c-0.162-0.048-0.318-0.12-0.484-0.12
			C26.275,12.164,26.232,12.168,26.188,12.18"/>
		<path fill="#292521" d="M17.908,11.547c0.447-0.004,0.895,0.02,1.338,0.074c0.377,0.057,0.749,0.145,1.104,0.285
			c0.504,0.226,0.963,0.529,1.402,0.861c0.289,0.227,0.564,0.467,0.84,0.709c0.059,0.052,0.117,0.103,0.176,0.152
			c-0.263-0.143-0.539-0.254-0.83-0.339c-0.332-0.099-0.67-0.185-1.014-0.231c-0.685-0.094-1.371-0.17-2.056-0.25
			c-0.166-0.022-0.332-0.045-0.496-0.076c-0.134-0.026-0.269-0.053-0.401-0.076c-0.281-0.053-0.557-0.146-0.822-0.251
			c-0.287-0.13-0.562-0.283-0.848-0.415c-0.091-0.042-0.184-0.083-0.277-0.12c0.086-0.054,0.177-0.104,0.271-0.147
			c0.181-0.066,0.361-0.113,0.55-0.146C17.198,11.541,17.555,11.549,17.908,11.547 M15.801,10.111
			c-0.627,0.162-1.185,0.511-1.629,0.979c-0.142,0.15-0.27,0.305-0.396,0.469c-0.07,0.092-0.135,0.188-0.184,0.293
			c-0.048,0.102-0.102,0.211-0.125,0.324c-0.049,0.234-0.041,0.389,0.01,0.624c0.041,0.198,0.188,0.388,0.321,0.529
			c0.146,0.153,0.353,0.261,0.552,0.325c0.183,0.059,0.379,0.076,0.57,0.084c0.133,0.006,0.266,0.004,0.398,0.01
			c0.177,0.042,0.34,0.113,0.513,0.178c0.108,0.041,0.217,0.08,0.325,0.12c0.509,0.188,1.047,0.276,1.586,0.318
			c0.371,0.028,0.752,0.02,1.123,0c0.412-0.023,0.826-0.062,1.238-0.087c0.229-0.016,0.459-0.031,0.688-0.047
			c0.18-0.015,0.361-0.014,0.542-0.013c0.265,0,0.533,0.013,0.797,0.044c0.286,0.049,0.563,0.139,0.833,0.248
			c0.354,0.154,0.688,0.34,1.01,0.549c0.332,0.217,0.652,0.45,0.985,0.666c0.001,0,0.001-0.002,0.001-0.002
			c-0.287-0.316-0.553-0.648-0.835-0.968c-0.239-0.269-0.496-0.513-0.776-0.733c-0.552-0.885-1.113-1.78-1.873-2.5
			c-0.203-0.191-0.429-0.365-0.658-0.523c-0.26-0.18-0.547-0.307-0.838-0.426c-0.522-0.215-1.08-0.338-1.639-0.424
			c-0.292-0.047-0.587-0.077-0.882-0.111c-0.226-0.025-0.45-0.042-0.675-0.042C16.453,9.994,16.126,10.027,15.801,10.111"/>
		<path fill="#292521" d="M12.532,20.156c0,0.365,0.305,0.67,0.67,0.67c0.366,0,0.671-0.305,0.671-0.67s-0.305-0.67-0.671-0.67
			C12.837,19.486,12.532,19.791,12.532,20.156"/>
	</g>
</g>
</svg>
