<?xml version="1.0" encoding="utf-8"?>
<!-- Generator: Adobe Illustrator 15.0.0, SVG Export Plug-In . SVG Version: 6.00 Build 0)  -->
<!DOCTYPE svg PUBLIC "-//W3C//DTD SVG 1.1//EN" "http://www.w3.org/Graphics/SVG/1.1/DTD/svg11.dtd">
<svg version="1.1" id="Capa_1" xmlns="http://www.w3.org/2000/svg" xmlns:xlink="http://www.w3.org/1999/xlink" x="0px" y="0px"
	 width="45px" height="45px" viewBox="-0.5 -0.5 45 45" enable-background="new -0.5 -0.5 45 45" xml:space="preserve">
<g>
	<path fill="#FFFFFF" d="M19.602,17.027c-0.238,0.065-0.464,0.163-0.69,0.26c-0.183,0.079-0.366,0.167-0.537,0.271
		c-0.144,0.087-0.288,0.173-0.432,0.26c-0.128,0.077-0.25,0.171-0.373,0.257c-0.154,0.106-0.298,0.224-0.445,0.341
		c-0.104,0.083-0.21,0.164-0.308,0.254c-0.113,0.104-0.232,0.204-0.339,0.313c-0.121,0.124-0.241,0.247-0.361,0.37
		c-0.203,0.207-0.388,0.429-0.569,0.656c-0.204,0.256-0.4,0.52-0.58,0.793c-0.33,0.5-0.656,1.004-0.939,1.534
		c-0.067,0.126-0.139,0.25-0.197,0.381c-0.089,0.2-0.186,0.399-0.263,0.603c-0.061,0.16-0.122,0.319-0.184,0.479
		c-0.049,0.129-0.088,0.263-0.131,0.395c-0.083,0.254-0.157,0.512-0.222,0.771c-0.037,0.149-0.086,0.301-0.112,0.452
		c-0.029,0.174-0.059,0.346-0.088,0.52c-0.032,0.186-0.048,0.373-0.066,0.561c-0.013,0.131-0.026,0.261-0.033,0.393
		c-0.016,0.319-0.026,0.638-0.034,0.959c-0.022,0.925,0.203,1.849,0.656,2.656c0.129,0.23,0.286,0.441,0.444,0.651
		c0.124,0.163,0.242,0.334,0.375,0.491c0.302,0.356,0.6,0.716,0.935,1.044c0.628,0.615,1.367,1.131,2.154,1.521
		c0.22,0.109,0.446,0.205,0.672,0.3c0.129,0.055,0.261,0.108,0.395,0.152c0.18,0.059,0.359,0.117,0.539,0.177
		c0.287,0.094,0.58,0.165,0.872,0.242c0.285,0.075,0.576,0.129,0.865,0.191c0.268,0.058,0.54,0.1,0.809,0.151
		c0.153,0.029,0.311,0.044,0.465,0.064c0.17,0.024,0.345,0.058,0.516,0.07c0.295,0.02,0.59,0.05,0.884,0.059
		c0.303,0.01,0.604,0.021,0.907,0.024c0.526,0.005,1.057,0.021,1.583-0.025c0.978-0.088,1.931-0.336,2.865-0.629
		c0.16-0.05,0.321-0.102,0.48-0.15c0.406-0.129,0.806-0.291,1.192-0.471c0.781-0.361,1.512-0.853,2.12-1.464
		c0.304-0.307,0.58-0.648,0.812-1.013c0.122-0.193,0.214-0.403,0.301-0.613c0.085-0.205,0.156-0.413,0.215-0.627
		c0.176-0.636,0.229-1.292,0.249-1.948c0.016-0.542,0.013-1.086-0.021-1.628c-0.034-0.568-0.076-1.136-0.153-1.7
		c0.001,0.005,0.002,0.009,0.002,0.014c-0.007-0.06-0.014-0.115-0.032-0.173c-0.013-0.041-0.013-0.057-0.052-0.064
		c-0.063-0.013-0.143,0.052-0.195,0.076c-0.001,0,0,0.001,0.001,0.001c0.047-0.009,0.094-0.022,0.142-0.029
		c-0.001,0-0.001,0-0.001,0c0.014-0.002,0.026-0.002,0.039,0c0,0,0,0,0.001,0c0.01,0.113-0.006,0.228-0.015,0.342
		c-0.006,0.069-0.012,0.141-0.018,0.212c-0.014,0.165-0.035,0.328-0.053,0.492c-0.032,0.304-0.07,0.605-0.107,0.908
		c-0.054,0.377-0.105,0.754-0.178,1.127c-0.044,0.22-0.086,0.441-0.129,0.663c-0.096,0.51-0.243,1.012-0.438,1.492
		c-0.138,0.314-0.3,0.618-0.502,0.895c-0.285,0.354-0.612,0.67-0.968,0.953c-0.521,0.389-1.094,0.695-1.689,0.953
		c-0.34,0.14-0.688,0.261-1.038,0.369c-0.217,0.068-0.433,0.144-0.651,0.202c-0.231,0.062-0.464,0.126-0.695,0.189
		c-0.392,0.106-0.791,0.188-1.193,0.247c-0.479,0.058-0.957,0.063-1.438,0.057c-0.24-0.004-0.48-0.006-0.72-0.014
		c-0.242-0.01-0.485-0.011-0.728-0.028c-0.263-0.021-0.525-0.043-0.789-0.062c-0.216-0.029-0.433-0.058-0.646-0.1
		c-0.288-0.058-0.579-0.11-0.865-0.175c-0.297-0.068-0.595-0.133-0.888-0.215c-0.181-0.049-0.361-0.099-0.542-0.149
		c-0.117-0.032-0.231-0.076-0.346-0.114c-0.24-0.082-0.476-0.162-0.71-0.258c-0.599-0.263-1.162-0.591-1.685-0.982
		c-0.394-0.315-0.759-0.675-1.082-1.062c-0.131-0.158-0.263-0.315-0.394-0.474c-0.087-0.117-0.174-0.232-0.262-0.35
		c-0.204-0.272-0.382-0.562-0.523-0.871c-0.121-0.307-0.209-0.622-0.262-0.947c-0.046-0.431-0.03-0.873-0.007-1.306
		c0.009-0.156,0.013-0.315,0.028-0.473c0.015-0.146,0.029-0.292,0.044-0.438c0.027-0.174,0.051-0.351,0.094-0.522
		c0.06-0.242,0.118-0.484,0.187-0.726c0.068-0.241,0.143-0.478,0.221-0.716c0.061-0.187,0.136-0.369,0.208-0.554
		c0.046-0.104,0.092-0.209,0.138-0.313c0.051-0.115,0.114-0.225,0.173-0.336c0.12-0.224,0.244-0.448,0.379-0.664
		c0.155-0.245,0.311-0.49,0.472-0.732c0.14-0.209,0.285-0.415,0.431-0.621c0.191-0.238,0.385-0.473,0.603-0.689
		c0.255-0.255,0.509-0.51,0.786-0.741c0.087-0.067,0.174-0.135,0.261-0.201c0.117-0.09,0.244-0.167,0.366-0.249
		c0.32-0.212,0.661-0.403,1.013-0.56c0.225-0.089,0.455-0.161,0.693-0.204c0.308-0.027,0.613-0.004,0.92,0.025
		c0.073,0.012,0.146,0.023,0.219,0.035c0.114,0.018,0.228,0.053,0.34,0.08c0.11,0.026,0.219,0.066,0.327,0.1
		c0.074,0.023,0.147,0.053,0.22,0.083c0.514,0.231,1.02,0.478,1.532,0.71c0.231,0.105,0.474,0.205,0.715,0.282
		c0.231,0.075,0.483,0.103,0.725,0.118c0.153,0.01,0.306,0.005,0.457-0.001c0.396-0.016,0.788-0.051,1.179-0.116
		c0.468-0.078,0.899-0.274,1.33-0.461c0.205-0.089,0.404-0.188,0.608-0.279c0.144-0.057,0.288-0.104,0.438-0.134
		c0.137-0.009,0.271-0.006,0.407,0.006c0.154,0.028,0.306,0.07,0.453,0.125c0.162,0.074,0.316,0.162,0.461,0.266
		c0.069,0.05,0.14,0.101,0.21,0.149c0.345,0.283,0.684,0.576,0.994,0.896c0.186,0.192,0.369,0.384,0.548,0.583
		c0.159,0.178,0.308,0.362,0.459,0.546c-0.002-0.003-0.004-0.005-0.006-0.008c0.096,0.124,0.196,0.244,0.283,0.371
		c0.115,0.169,0.23,0.337,0.347,0.505c0.113,0.164,0.212,0.339,0.317,0.509c0.157,0.248,0.312,0.497,0.47,0.747
		c0.001,0.001,0.002,0,0.001-0.001c-0.134-0.419-0.274-0.837-0.417-1.254c-0.035-0.101-0.072-0.197-0.112-0.295
		c-0.062-0.153-0.119-0.313-0.19-0.463c-0.074-0.151-0.148-0.303-0.224-0.453c-0.067-0.136-0.146-0.268-0.22-0.399
		c-0.131-0.234-0.278-0.46-0.433-0.678c-0.19-0.269-0.386-0.535-0.598-0.787c-0.191-0.226-0.381-0.456-0.596-0.661
		c-0.221-0.212-0.448-0.415-0.705-0.587c-0.19-0.128-0.401-0.22-0.615-0.306c-0.224-0.091-0.458-0.131-0.696-0.161
		c-0.4-0.049-0.819,0.034-1.194,0.175c-0.15,0.057-0.3,0.113-0.45,0.169c-0.134,0.05-0.269,0.1-0.403,0.15
		c-0.274,0.102-0.554,0.181-0.842,0.228c-0.175,0.02-0.35,0.032-0.524,0.042c-0.264,0.017-0.532,0.028-0.796,0.005
		c-0.222-0.044-0.43-0.125-0.639-0.209c-0.523-0.236-1.043-0.483-1.569-0.71c-0.327-0.141-0.661-0.259-1.008-0.339
		c-0.354-0.083-0.716-0.122-1.078-0.155c-0.105-0.011-0.211-0.015-0.318-0.015C20.261,16.892,19.922,16.939,19.602,17.027"/>
	<path fill="#FFFFFF" d="M29.9,11.115c-0.058,0.004-0.114,0.012-0.17,0.019c-0.288,0.037-0.57,0.081-0.847,0.168
		c-0.802,0.251-1.53,0.733-2.149,1.292c-0.653,0.59-1.218,1.291-1.636,2.067c-0.216,0.403-0.395,0.833-0.528,1.271
		c-0.13,0.425-0.213,0.865-0.225,1.309c-0.012,0.501,0.104,0.989,0.257,1.462c0.075,0.234,0.167,0.462,0.257,0.69
		c0.092,0.231,0.186,0.462,0.28,0.692c0,0,0.001,0,0.001-0.001c-0.02-0.412-0.049-0.825-0.074-1.236
		c-0.026-0.416-0.041-0.837,0.007-1.251c0.037-0.235,0.09-0.466,0.16-0.693c0.067-0.214,0.15-0.424,0.237-0.631
		c0.215-0.496,0.473-0.971,0.751-1.434c0.274-0.457,0.568-0.899,0.891-1.323c0.406-0.519,0.85-1.003,1.369-1.41
		c0.326-0.247,0.67-0.457,1.044-0.624c0.202-0.082,0.404-0.172,0.614-0.229c0.033-0.003,0.063-0.002,0.097,0.001
		c0.113,0.021,0.222,0.061,0.334,0.085c0.001,0,0.002-0.001,0.001-0.001c-0.137-0.088-0.265-0.205-0.429-0.232
		c-0.022-0.003-0.046-0.005-0.069-0.005C30.016,11.102,29.956,11.111,29.9,11.115"/>
	<path fill="#FFFFFF" d="M16.303,9.354c-0.286,0.021-0.571,0.044-0.859,0.051c-0.135,0.004-0.271-0.001-0.406-0.011
		c-0.061-0.004-0.121-0.01-0.182-0.009s-0.209,0.017-0.29,0.048c-0.194,0.078-0.229,0.09-0.388,0.226
		c-0.14,0.119-0.242,0.315-0.279,0.493c-0.044,0.215-0.035,0.439,0.044,0.646c0.053,0.138,0.11,0.261,0.188,0.384
		c0.079,0.125,0.175,0.241,0.266,0.357c0.13,0.166,0.28,0.315,0.436,0.458c0.224,0.205,0.47,0.383,0.716,0.56
		c0.324,0.232,0.671,0.439,1.032,0.609c0.729,0.345,1.516,0.55,2.323,0.574c0.294,0.008,0.588,0.014,0.884,0.001
		c0.298-0.013,0.595-0.026,0.893-0.046c0.603-0.041,1.204-0.104,1.808-0.102c0.203,0.001,0.404,0.023,0.605,0.049
		c0.143,0.023,0.28,0.055,0.416,0.107c0.073,0.033,0.144,0.07,0.209,0.116c0.062,0.054,0.117,0.113,0.168,0.176
		c0.093,0.126,0.167,0.262,0.229,0.407c0.122,0.302,0.201,0.617,0.302,0.928h0.001c-0.028-0.415-0.019-0.837-0.127-1.241
		c-0.045-0.167-0.118-0.329-0.213-0.474c-0.111-0.169-0.276-0.292-0.449-0.394c-0.134-0.079-0.284-0.137-0.432-0.184
		c-0.076-0.024-0.152-0.052-0.229-0.072c-0.146-0.038-0.291-0.074-0.439-0.101c-0.613-0.108-1.238-0.142-1.858-0.19
		c-0.442-0.035-0.883-0.077-1.323-0.125c-0.127-0.02-0.254-0.039-0.381-0.059c-0.388-0.057-0.77-0.182-1.133-0.329
		c-0.333-0.148-0.659-0.332-0.951-0.55c-0.099-0.074-0.198-0.147-0.296-0.221c-0.103-0.087-0.206-0.175-0.309-0.262
		c-0.129-0.108-0.253-0.227-0.371-0.351c0.508-0.063,1.016-0.117,1.529-0.132c0.573-0.017,1.148-0.024,1.722-0.013
		c0.402,0.008,0.801,0.016,1.201,0.062c0.646,0.096,1.272,0.273,1.876,0.521c0.446,0.193,0.874,0.424,1.264,0.716
		c0.24,0.19,0.463,0.399,0.654,0.637c0.239,0.323,0.425,0.677,0.591,1.042c0.173,0.376,0.327,0.761,0.491,1.141
		c0,0.001,0.001,0,0.001-0.001c-0.064-0.42-0.126-0.842-0.208-1.26c-0.08-0.412-0.199-0.811-0.379-1.19
		c-0.177-0.372-0.441-0.705-0.727-0.999c-0.299-0.309-0.649-0.569-1.01-0.801c-0.736-0.474-1.57-0.815-2.426-0.996
		c-0.5-0.105-1.012-0.145-1.521-0.186c-0.262-0.022-0.526-0.03-0.789-0.04c-0.333-0.012-0.665-0.019-0.997-0.021
		c-0.01,0-0.02,0-0.03,0C16.868,9.307,16.584,9.332,16.303,9.354"/>
	<path fill="#FFFFFF" d="M13.812,23.643c-0.003,0.001-0.008,0.003-0.011,0.004C13.805,23.646,13.809,23.644,13.812,23.643
		 M33.096,23.462c0.004,0.003,0.006,0.006,0.009,0.009C33.102,23.468,33.1,23.465,33.096,23.462 M30.405,21.178
		c-0.167,0-0.307,0.053-0.455,0.122c-0.099,0.046-0.186,0.13-0.259,0.209c-0.08,0.089-0.151,0.189-0.214,0.291
		c-0.12,0.194-0.202,0.418-0.265,0.635c-0.06,0.208-0.088,0.421-0.119,0.635c-0.026,0.181-0.048,0.363-0.061,0.545
		c-0.014,0.191-0.025,0.382-0.028,0.573s-0.001,0.382,0.002,0.573c0.003,0.166,0.006,0.332,0.006,0.498
		c0.001,0.204,0.006,0.41-0.009,0.614c-0.006,0.032-0.015,0.064-0.024,0.097c-0.003,0.006-0.006,0.011-0.009,0.016
		c-0.087,0.027-0.177,0.049-0.267,0.064c-0.068,0.005-0.136,0.006-0.204,0.003c-0.076-0.017-0.151-0.038-0.226-0.062
		c-0.024-0.014-0.049-0.027-0.073-0.042c-0.023-0.037-0.046-0.077-0.065-0.117c-0.073-0.211-0.114-0.428-0.158-0.646
		c-0.024-0.125-0.046-0.252-0.066-0.378c-0.025-0.151-0.049-0.302-0.075-0.452c-0.025-0.146-0.059-0.289-0.093-0.433
		c-0.054-0.23-0.155-0.454-0.252-0.667c-0.106-0.234-0.249-0.433-0.408-0.634c-0.142-0.179-0.333-0.323-0.525-0.442
		c-0.126-0.077-0.269-0.128-0.407-0.18c-0.104-0.038-0.212-0.064-0.32-0.083c-0.151-0.026-0.308-0.049-0.463-0.046
		c-0.146,0.002-0.295,0.029-0.438,0.062c-0.144,0.031-0.278,0.099-0.412,0.155c-0.099,0.043-0.191,0.1-0.28,0.161
		c-0.122,0.083-0.238,0.178-0.347,0.278c-0.106,0.102-0.195,0.225-0.282,0.341c-0.157,0.208-0.262,0.436-0.359,0.676
		c-0.145,0.357-0.212,0.735-0.273,1.115c-0.041,0.255-0.071,0.511-0.106,0.767c0.01-0.068,0.018-0.136,0.027-0.204
		c-0.042,0.307-0.076,0.614-0.113,0.923c-0.018,0.114-0.035,0.229-0.054,0.343c-0.051,0.331-0.135,0.66-0.254,0.973
		c-0.062,0.132-0.137,0.257-0.22,0.376c-0.178,0.212-0.377,0.402-0.592,0.577c-0.179,0.131-0.366,0.248-0.567,0.342
		c-0.173,0.065-0.352,0.115-0.534,0.148c-0.092,0.009-0.185,0.011-0.278,0.006c-0.032-0.008-0.064-0.016-0.096-0.026
		c-0.04-0.021-0.078-0.043-0.116-0.068c-0.035-0.031-0.068-0.063-0.099-0.099c-0.037-0.055-0.069-0.111-0.099-0.168
		c-0.065-0.191-0.107-0.39-0.139-0.589c-0.039-0.345-0.044-0.69-0.005-1.035c0.044-0.289,0.101-0.576,0.146-0.866
		c0.053-0.342,0.102-0.683,0.144-1.026c0.061-0.517,0.106-1.052-0.018-1.561c-0.03-0.125-0.088-0.244-0.139-0.362
		c-0.035-0.08-0.08-0.156-0.128-0.23c-0.152-0.232-0.342-0.41-0.568-0.567c-0.185-0.128-0.401-0.212-0.61-0.288
		c-0.209-0.075-0.429-0.117-0.648-0.147c-0.313-0.044-0.628-0.067-0.945-0.052c-0.299,0.015-0.585,0.074-0.862,0.188
		c-0.278,0.114-0.528,0.265-0.771,0.439c-0.093,0.068-0.189,0.137-0.276,0.213c-0.305,0.263-0.592,0.548-0.91,0.798
		c-0.104,0.074-0.213,0.13-0.33,0.18c0-0.001,0.001-0.001,0.002-0.001c-0.165,0.066-0.333,0.126-0.5,0.193c0,0,0,0.001,0,0.001
		c0.194-0.025,0.389-0.043,0.583-0.074c0.172-0.028,0.327-0.086,0.482-0.165c0.153-0.078,0.305-0.16,0.454-0.247
		c0.133-0.077,0.262-0.158,0.396-0.232c0.171-0.096,0.347-0.182,0.526-0.261c0.218-0.089,0.441-0.155,0.673-0.193
		c0.178-0.019,0.351-0.015,0.528,0.006c0.345,0.052,0.687,0.141,1.011,0.27c0.164,0.074,0.32,0.161,0.467,0.264
		c0.06,0.052,0.116,0.105,0.168,0.166c0.044,0.063,0.082,0.13,0.117,0.2c0.025,0.071,0.045,0.143,0.061,0.217
		c0.014,0.189,0,0.379-0.023,0.566c-0.038,0.254-0.087,0.508-0.146,0.757c-0.07,0.295-0.136,0.591-0.209,0.885
		c-0.041,0.164-0.08,0.329-0.12,0.494c-0.032,0.134-0.053,0.271-0.071,0.406c-0.037,0.269-0.057,0.528-0.049,0.8
		c0.008,0.265,0.046,0.529,0.086,0.79c0.031,0.205,0.082,0.41,0.161,0.601c0.058,0.141,0.113,0.272,0.193,0.399
		c0.078,0.125,0.173,0.241,0.271,0.35c0.098,0.11,0.223,0.195,0.339,0.283c0.13,0.099,0.285,0.159,0.435,0.22
		c0.17,0.069,0.337,0.089,0.52,0.111c0.137,0.019,0.276,0.009,0.413-0.008c0.331-0.038,0.648-0.104,0.959-0.227
		c0.301-0.118,0.582-0.262,0.845-0.45c0.283-0.203,0.552-0.426,0.791-0.679c0.216-0.228,0.41-0.484,0.558-0.762
		c0.16-0.3,0.271-0.631,0.358-0.959c0.082-0.311,0.133-0.634,0.176-0.953c-0.002,0.021-0.005,0.044-0.009,0.066
		c0.004-0.028,0.008-0.057,0.012-0.083c0.002-0.02,0.005-0.039,0.008-0.058c0.015-0.112,0.03-0.223,0.045-0.335
		c0.035-0.26,0.072-0.518,0.113-0.777c0.059-0.381,0.138-0.768,0.272-1.129c0.053-0.111,0.113-0.217,0.183-0.319
		c0.051-0.059,0.105-0.114,0.162-0.167c0.057-0.037,0.115-0.07,0.175-0.102c0.044-0.015,0.089-0.027,0.134-0.038
		c0.039-0.001,0.076,0,0.114,0.002c0.082,0.017,0.164,0.038,0.243,0.065c0.038,0.02,0.075,0.042,0.111,0.064
		c0.042,0.039,0.082,0.079,0.119,0.122c0.075,0.111,0.14,0.228,0.195,0.35c0.226,0.606,0.229,1.271,0.366,1.901
		c0.052,0.245,0.138,0.474,0.248,0.7c0.062,0.127,0.154,0.239,0.24,0.349c0.097,0.119,0.221,0.206,0.345,0.296
		c0.071,0.052,0.152,0.089,0.233,0.125c0.139,0.06,0.271,0.114,0.417,0.153c0.139,0.037,0.284,0.05,0.426,0.068
		c0.164,0.02,0.333-0.01,0.493-0.034c0.178-0.025,0.353-0.066,0.519-0.135c0.132-0.055,0.253-0.1,0.364-0.186
		c0.076-0.058,0.148-0.108,0.216-0.175c0.075-0.072,0.132-0.162,0.195-0.244c0.081-0.108,0.124-0.247,0.175-0.37
		c0.055-0.131,0.068-0.286,0.083-0.423c0.017-0.148,0.01-0.296-0.001-0.444c-0.03-0.471-0.079-0.941-0.113-1.412
		c-0.017-0.234-0.031-0.468-0.031-0.702c-0.002-0.272-0.005-0.545,0.023-0.817c0.025-0.155,0.062-0.307,0.115-0.455
		c0.021-0.041,0.043-0.08,0.067-0.119c0.01-0.003,0.019-0.005,0.028-0.007c0.153-0.01,0.307,0.005,0.461,0.02
		c0.056,0.01,0.111,0.019,0.168,0.028c0.201,0.033,0.401,0.103,0.59,0.179c0.2,0.089,0.389,0.193,0.564,0.322
		c0.294,0.234,0.546,0.505,0.776,0.801c0.252,0.33,0.481,0.678,0.72,1.018c0.001,0.001,0.001,0,0.001-0.001
		c-0.145-0.388-0.284-0.778-0.45-1.158c-0.169-0.382-0.386-0.732-0.656-1.05c-0.269-0.315-0.626-0.56-0.993-0.745
		c-0.208-0.104-0.428-0.192-0.651-0.254c-0.116-0.034-0.231-0.064-0.35-0.087c-0.107-0.021-0.218-0.036-0.326-0.036
		C30.409,21.177,30.407,21.177,30.405,21.178"/>
	<path fill="#FFFFFF" d="M40.057,10.145c-0.099,0.017-0.19,0.045-0.285,0.08c-0.253,0.092-0.497,0.206-0.731,0.337
		c-0.38,0.213-0.741,0.461-1.09,0.721c-0.12,0.089-0.238,0.182-0.354,0.276c-0.15,0.077-0.3,0.156-0.447,0.238
		c-0.379,0.209-0.742,0.441-1.097,0.688c-0.271,0.189-0.546,0.384-0.801,0.596c-0.807,0.67-1.597,1.356-2.368,2.067
		c-0.001,0.001,0,0.002,0.001,0.001c0.563-0.291,1.125-0.583,1.686-0.879c-0.003,0.003-0.007,0.005-0.01,0.008
		c-0.221,0.193-0.438,0.39-0.664,0.576c-0.262,0.216-0.523,0.433-0.79,0.644c-0.24,0.181-0.506,0.325-0.757,0.49
		c0,0,0,0.001,0.001,0.001c0.187-0.055,0.375-0.108,0.56-0.169c0.188-0.063,0.366-0.146,0.545-0.232
		c0.134-0.066,0.268-0.13,0.401-0.195c0.26-0.129,0.515-0.265,0.769-0.405c0.512-0.287,1.012-0.589,1.507-0.902
		c0.513-0.324,1.021-0.652,1.526-0.987c0.259-0.171,0.527-0.329,0.79-0.496c0.17-0.108,0.342-0.21,0.516-0.311
		c0.051-0.028,0.1-0.056,0.148-0.084c0.015-0.005,0.028-0.01,0.043-0.016c0.246-0.092,0.493-0.183,0.74-0.272
		c0.11-0.041,0.222-0.079,0.333-0.117c0.095-0.033,0.192-0.061,0.287-0.097c0.102-0.04,0.202-0.07,0.302-0.12
		c0.103-0.053,0.225-0.183,0.281-0.28c0.033-0.057,0.078-0.159,0.09-0.236c0.008-0.066,0.017-0.132,0.026-0.196
		c-0.001-0.134-0.035-0.258-0.102-0.373c-0.066-0.112-0.153-0.201-0.266-0.267c-0.115-0.067-0.239-0.1-0.373-0.1
		c-0.044-0.004-0.087-0.009-0.131-0.014c-0.016-0.002-0.032-0.003-0.049-0.003C40.214,10.116,40.127,10.133,40.057,10.145"/>
	<path fill="#FFFFFF" d="M26.63,5.654c0.004,0.005,0.006,0.01,0.007,0.015C26.636,5.664,26.633,5.659,26.63,5.654 M26.938,5.007
		c-0.083,0.024-0.154,0.066-0.216,0.126c-0.166,0.13-0.219,0.366-0.253,0.563C26.45,5.8,26.44,5.904,26.427,6.009
		c-0.018,0.132-0.023,0.267-0.03,0.399c-0.014,0.262-0.024,0.524-0.021,0.787c0.004,0.209,0.01,0.416,0.022,0.624
		c-0.035,0.173-0.072,0.346-0.108,0.518c-0.062,0.29-0.118,0.58-0.169,0.873c-0.053,0.303-0.111,0.611-0.11,0.92
		c0,0.118,0.009,0.237,0.029,0.354c0.013,0.071,0.043,0.179,0.138,0.157c0.052-0.012,0.081-0.064,0.107-0.103
		c0.039-0.058,0.061-0.129,0.087-0.193c0,0.001-0.001,0.003-0.001,0.004c0.01-0.025,0.021-0.051,0.033-0.075
		c0-0.001-0.001-0.002-0.001-0.001c-0.06,0.055-0.112,0.116-0.172,0.17c0.046-0.217,0.122-0.425,0.206-0.632
		c0.236-0.55,0.491-1.092,0.721-1.646c0.109-0.263,0.224-0.531,0.301-0.806C27.51,7.18,27.562,7,27.601,6.818
		c0.052-0.234,0.087-0.474,0.09-0.714c0.002-0.107-0.007-0.213-0.021-0.319c-0.023-0.167-0.043-0.324-0.117-0.478
		c-0.031-0.068-0.078-0.127-0.136-0.174c-0.106-0.084-0.206-0.143-0.348-0.143C27.026,4.996,26.982,5.002,26.938,5.007"/>
	<path fill="#FFFFFF" d="M6.204,14.117c-0.001,0.002-0.003,0.004-0.005,0.007c-0.064,0.112-0.097,0.232-0.098,0.361
		c0,0.13,0.033,0.25,0.098,0.362c0.052,0.069,0.097,0.143,0.165,0.199c0.07,0.057,0.144,0.113,0.215,0.167
		c0.052,0.04,0.105,0.079,0.16,0.116c0.08,0.052,0.16,0.104,0.239,0.156c0.117,0.076,0.237,0.142,0.359,0.208
		c0.29,0.157,0.588,0.288,0.89,0.419c0.322,0.14,0.652,0.256,0.983,0.373c0.107,0.039,0.219,0.068,0.329,0.099
		c0.172,0.051,0.345,0.1,0.517,0.149c0.106,0.03,0.212,0.057,0.318,0.084c0.289,0.084,0.58,0.16,0.872,0.228
		c0.73,0.169,1.463,0.325,2.199,0.469c0,0,0.001-0.001,0-0.002c-0.133-0.072-0.267-0.143-0.401-0.214
		c0.181,0.017,0.363,0.029,0.545,0.039c0.323,0.019,0.646,0.034,0.97,0.033c0.472-0.001,0.938-0.086,1.402-0.16
		c0.001,0,0.001-0.001,0-0.002c-0.43-0.068-0.862-0.124-1.29-0.213c-0.279-0.059-0.555-0.134-0.831-0.206
		c-0.572-0.148-1.133-0.332-1.688-0.538c-0.317-0.117-0.63-0.242-0.945-0.366c-0.127-0.054-0.255-0.109-0.384-0.163
		c-0.047-0.021-0.095-0.041-0.143-0.061c-0.054-0.023-0.109-0.046-0.165-0.069c-0.125-0.055-0.25-0.11-0.375-0.165
		c-0.128-0.056-0.261-0.105-0.387-0.167c-0.146-0.07-0.292-0.141-0.438-0.211c-0.108-0.052-0.22-0.1-0.326-0.156
		c-0.17-0.09-0.341-0.178-0.513-0.265c-0.109-0.056-0.214-0.117-0.32-0.176c-0.125-0.069-0.253-0.133-0.375-0.207
		c-0.167-0.101-0.335-0.204-0.501-0.306c-0.128-0.111-0.293-0.174-0.464-0.174C6.562,13.766,6.336,13.903,6.204,14.117"/>
	<path fill="#FFFFFF" d="M2.722,21.491c-0.226,0.045-0.426,0.192-0.536,0.396c-0.094,0.174-0.127,0.369-0.074,0.562
		c0.064,0.232,0.266,0.462,0.511,0.511c0.297,0.059,0.601,0.096,0.899,0.148c0.287,0.052,0.574,0.1,0.86,0.156
		c0.632,0.125,1.265,0.246,1.899,0.36c1.304,0.233,2.622,0.402,3.938,0.553c0.135,0.015,0.271,0.03,0.406,0.045
		c0.001,0,0.001-0.001,0-0.002c-0.558-0.229-1.118-0.453-1.681-0.669c0.23-0.004,0.46-0.011,0.69-0.022
		c0.17-0.008,0.34-0.02,0.509-0.031c0.125-0.008,0.251-0.02,0.376-0.021c0.139-0.002,0.279,0.005,0.417,0.013
		c0.277,0.015,0.553,0.036,0.831,0.047c0,0,0-0.001,0-0.001c-0.415-0.145-0.825-0.308-1.253-0.406
		c-0.124-0.028-0.25-0.043-0.374-0.063c-0.098-0.017-0.197-0.032-0.296-0.049c-0.265-0.042-0.529-0.092-0.793-0.146
		c-0.143-0.029-0.288-0.052-0.43-0.086c-0.167-0.041-0.334-0.08-0.5-0.119c-0.299-0.069-0.595-0.147-0.892-0.223
		c-0.574-0.146-1.144-0.306-1.715-0.461c-0.285-0.078-0.569-0.153-0.855-0.228c-0.257-0.066-0.513-0.136-0.773-0.188
		c-0.251-0.051-0.511-0.09-0.768-0.1c-0.035-0.002-0.068-0.003-0.102-0.003C2.918,21.463,2.825,21.472,2.722,21.491"/>
</g>
</svg>
