<?xml version="1.0" encoding="utf-8"?>
<!-- Generator: Adobe Illustrator 15.0.0, SVG Export Plug-In . SVG Version: 6.00 Build 0)  -->
<!DOCTYPE svg PUBLIC "-//W3C//DTD SVG 1.1//EN" "http://www.w3.org/Graphics/SVG/1.1/DTD/svg11.dtd">
<svg version="1.1" xmlns="http://www.w3.org/2000/svg" xmlns:xlink="http://www.w3.org/1999/xlink" x="0px" y="0px" width="44px"
	 height="44px" viewBox="0 0 44 44" enable-background="new 0 0 44 44" xml:space="preserve">
<g id="Capa_2_1_">
</g>
<g id="Capa_1">
</g>
<g id="Capa_3">
	<g>
		<path fill="#FFFFFF" d="M21.898,34.424c0.01,0.008,0.02,0.016,0.029,0.021c-0.009-0.006-0.02-0.014-0.028-0.02
			C21.899,34.424,21.899,34.424,21.898,34.424 M21.878,34.387c0.002,0.002,0.004,0.003,0.006,0.003
			C21.882,34.39,21.88,34.389,21.878,34.387L21.878,34.387 M24.082,31.131c0.067,0.227,0.111,0.454,0.148,0.688
			c0.031,0.27,0.059,0.539,0.079,0.811c0.02,0.275,0.012,0.552-0.011,0.827c-0.013,0.063-0.026,0.126-0.045,0.188
			c-0.003,0.006-0.007,0.011-0.01,0.018c-0.058,0.032-0.116,0.063-0.177,0.091c-0.397,0.152-0.811,0.261-1.223,0.369
			c-0.324,0.085-0.658,0.148-0.99,0.198c-0.04-0.132-0.067-0.267-0.088-0.404c-0.077-0.649-0.122-1.304-0.193-1.954
			c-0.018-0.165-0.036-0.329-0.054-0.493c0.091-0.003,0.181-0.009,0.272-0.014c0.42-0.028,0.844-0.092,1.26-0.15
			c0.314-0.045,0.624-0.111,0.937-0.163C24.019,31.139,24.051,31.134,24.082,31.131 M20.963,29.079
			c0.001,0.002,0.003,0.002,0.004,0.003l0,0C20.966,29.081,20.964,29.081,20.963,29.079 M23.862,17.142
			c0.537,0.081,1.059,0.203,1.565,0.4c0.373,0.17,0.726,0.376,1.058,0.62c0.339,0.276,0.646,0.591,0.923,0.93
			c0.166,0.229,0.311,0.473,0.432,0.728c0.094,0.25,0.162,0.507,0.207,0.771c0.025,0.254,0.03,0.511,0.035,0.767
			c0.006,0.296,0.001,0.595-0.018,0.891c-0.016,0.252-0.03,0.505-0.045,0.758c-0.021,0.372-0.07,0.742-0.114,1.114
			c-0.124,0.812-0.304,1.618-0.613,2.384c-0.226,0.505-0.525,0.967-0.825,1.43c-0.242,0.374-0.486,0.741-0.655,1.155
			c-0.03,0.075-0.057,0.151-0.078,0.229c-0.038-0.046-0.079-0.09-0.117-0.133c-0.015-0.013-0.029-0.023-0.044-0.034
			c-0.085-0.085-0.18-0.155-0.284-0.209c-0.246-0.135-0.413-0.145-0.688-0.18c-0.064-0.01-0.138,0.004-0.202,0.012
			c-0.214,0.025-0.427,0.055-0.64,0.084c-0.409,0.058-0.814,0.142-1.222,0.206c-0.405,0.044-0.812,0.076-1.219,0.061
			c-0.01-0.069-0.021-0.14-0.03-0.209c-0.037-0.253-0.098-0.504-0.185-0.744c-0.215-0.592-0.578-1.114-0.923-1.635
			c-0.219-0.332-0.434-0.665-0.659-0.992c-0.331-0.476-0.681-0.949-0.961-1.458c-0.055-0.101-0.106-0.203-0.154-0.307
			c-0.078-0.209-0.137-0.425-0.177-0.645c-0.029-0.327-0.026-0.659-0.013-0.987c0.014-0.351,0.038-0.698,0.078-1.046
			c0.064-0.404,0.165-0.801,0.314-1.184c0.221-0.49,0.48-0.958,0.798-1.392c0.216-0.267,0.449-0.514,0.714-0.734
			c0.235-0.17,0.483-0.319,0.747-0.443c0.296-0.113,0.6-0.197,0.914-0.25C22.471,17.027,23.174,17.058,23.862,17.142 M22.371,15.062
			c-0.354,0.006-0.708,0.054-1.058,0.105c-0.312,0.045-0.616,0.13-0.911,0.24c-0.33,0.121-0.65,0.268-0.951,0.448
			c-0.309,0.186-0.598,0.409-0.87,0.643c-0.218,0.188-0.41,0.4-0.593,0.622c-0.234,0.282-0.456,0.576-0.653,0.886
			c-0.161,0.251-0.301,0.518-0.433,0.787c-0.17,0.346-0.318,0.705-0.429,1.076c-0.084,0.282-0.14,0.57-0.182,0.86
			c-0.054,0.378-0.096,0.753-0.12,1.135c-0.041,0.655-0.045,1.308,0.086,1.956c0.069,0.344,0.203,0.665,0.344,0.984
			c0.128,0.291,0.293,0.563,0.464,0.83c0.237,0.372,0.489,0.733,0.734,1.098c0.239,0.354,0.459,0.724,0.681,1.089
			c0.146,0.24,0.286,0.488,0.407,0.744c0.067,0.192,0.111,0.386,0.147,0.586c0.009,0.095,0.018,0.188,0.023,0.282
			c0.005,0.087,0.008,0.174,0.01,0.26c0.001,0.081-0.001,0.157,0.01,0.237c0.021,0.155,0.021,0.277,0.073,0.412
			c0.099,0.259,0.147,0.363,0.334,0.569c0.242,0.27,0.607,0.428,0.96,0.484c0.168,0.028,0.342,0.055,0.515,0.068
			c-0.048,0.404-0.096,0.81-0.145,1.214c-0.024,0.201-0.048,0.401-0.072,0.602c-0.049,0.399-0.12,0.807-0.082,1.21
			c0.016,0.161,0.038,0.32,0.099,0.47c0.037,0.088,0.063,0.161,0.116,0.237c0.09,0.131,0.141,0.17,0.266,0.267
			c0.226,0.172,0.519,0.201,0.794,0.201c0.215,0.001,0.431,0.001,0.647,0.001c0.415-0.001,0.827-0.037,1.24-0.08
			c0.317-0.034,0.644-0.081,0.953-0.164c0.336-0.092,0.674-0.256,0.904-0.522c0.238-0.276,0.399-0.6,0.473-0.958
			c0.1-0.488,0.167-0.982,0.191-1.479c0.021-0.395,0.032-0.804-0.007-1.197c-0.027-0.276-0.057-0.552-0.113-0.825
			c-0.029-0.141-0.071-0.278-0.121-0.415c-0.008-0.024-0.018-0.048-0.027-0.073c0.023-0.074,0.049-0.148,0.077-0.221
			c0.086-0.188,0.192-0.363,0.314-0.53c0.197-0.243,0.417-0.465,0.633-0.693c0.309-0.326,0.61-0.655,0.883-1.013
			c0.388-0.509,0.669-1.068,0.915-1.655c0.198-0.473,0.363-0.971,0.479-1.471c0.06-0.261,0.118-0.522,0.177-0.782
			c0.037-0.168,0.058-0.338,0.083-0.507c0.046-0.301,0.094-0.604,0.131-0.907c0.035-0.296,0.065-0.592,0.08-0.889
			c0.018-0.329,0.029-0.654-0.008-0.981c-0.039-0.352-0.098-0.699-0.208-1.037c-0.115-0.35-0.279-0.692-0.468-1.009
			c-0.171-0.287-0.384-0.548-0.597-0.803c-0.189-0.226-0.394-0.437-0.614-0.632c-0.486-0.431-1.036-0.789-1.629-1.051
			c-0.326-0.144-0.656-0.271-0.998-0.37c-0.298-0.087-0.604-0.141-0.911-0.188c-0.618-0.095-1.245-0.152-1.87-0.152
			C22.488,15.061,22.43,15.062,22.371,15.062"/>
		<path fill="#FFFFFF" d="M23.299,31.36c-0.283,0-0.566,0.031-0.848,0.073c-0.644,0.096-1.282,0.307-1.89,0.531
			c-0.001,0.001-0.001,0.003,0,0.003C21.176,32,21.794,32,22.407,31.941c0.246-0.023,0.49-0.048,0.732-0.088
			c0.254-0.044,0.508-0.092,0.763-0.131c0.2-0.019,0.402-0.012,0.604-0.008c0.134,0.004,0.267,0.008,0.401,0.004v-0.002
			c-0.328-0.132-0.664-0.301-1.02-0.336c-0.17-0.019-0.342-0.021-0.513-0.021C23.35,31.36,23.324,31.36,23.299,31.36"/>
		<path fill="#FFFFFF" d="M25.229,21.918c0,0.008-0.002,0.014-0.003,0.021C25.228,21.932,25.229,21.926,25.229,21.918
			 M25.227,21.902c-0.002,0.006-0.004,0.011-0.006,0.016C25.223,21.913,25.225,21.907,25.227,21.902 M25.259,21.853
			c-0.003,0.001-0.005,0.004-0.007,0.007C25.254,21.857,25.256,21.854,25.259,21.853 M25.286,21.843
			c-0.013,0.01-0.025,0.019-0.037,0.028C25.26,21.86,25.272,21.851,25.286,21.843 M26.147,21.041
			c-0.207,0.11-0.403,0.24-0.617,0.338c-0.061,0.023-0.12,0.039-0.187,0.05c-0.186,0.021-0.38,0.04-0.508,0.194
			c-0.123,0.147-0.132,0.334-0.151,0.518c-0.022,0.206-0.044,0.412-0.064,0.617c-0.043,0.432-0.078,0.865-0.101,1.297
			c-0.043,0.812-0.021,1.622,0.064,2.43c0.095,0.905,0.248,1.803,0.446,2.69h0.001c0.177-0.993,0.301-1.996,0.368-3.004
			c0.058-0.856,0.054-1.709-0.009-2.565c-0.02-0.273-0.044-0.546-0.07-0.817c-0.016-0.153-0.03-0.308-0.048-0.461
			c-0.016-0.14-0.043-0.29-0.038-0.431c0.001-0.004,0.003-0.009,0.003-0.012c0,0,0.001,0,0.001-0.001
			c0.002-0.002,0.004-0.003,0.007-0.006c0.149-0.091,0.307-0.15,0.438-0.27c0.147-0.135,0.265-0.306,0.387-0.463
			c-0.002,0.001-0.004,0.003-0.005,0.004c0.027-0.034,0.055-0.07,0.083-0.104L26.147,21.041L26.147,21.041"/>
		<path fill="#FFFFFF" d="M21.883,21.695c0.001,0.001,0.001,0.003,0.002,0.003C21.885,21.698,21.884,21.696,21.883,21.695
			 M21.762,20.817c-0.139,0.197-0.25,0.442-0.197,0.684c0.048,0.22,0.315,0.307,0.485,0.411c0,0,0.001,0,0.001-0.001
			c-0.054-0.076-0.115-0.147-0.173-0.222c-0.029-0.04-0.055-0.081-0.079-0.125c0.003,0.008,0.006,0.014,0.009,0.021
			c-0.017-0.029-0.025-0.06-0.026-0.094c0.001,0.009,0.002,0.019,0.004,0.028c0.001-0.016,0.001-0.031,0.002-0.046
			c-0.001,0.009-0.002,0.02-0.004,0.029c0.002-0.033,0.009-0.063,0.02-0.095c0.011-0.021,0.023-0.043,0.037-0.065
			c0.06-0.073,0.125-0.139,0.196-0.2c0.03-0.021,0.06-0.037,0.092-0.054c0.018-0.006,0.036-0.011,0.056-0.016
			c0.028-0.001,0.055-0.001,0.083,0c0.012,0.003,0.024,0.006,0.036,0.009c0.023,0.012,0.047,0.026,0.069,0.04
			c0.007,0.008,0.014,0.014,0.02,0.022c0.012,0.017,0.023,0.034,0.033,0.053c0.019,0.059,0.03,0.118,0.041,0.178
			c0.002,0.02,0.005,0.039,0.008,0.057c0.078,0.817,0.033,1.637,0.063,2.456c0.033,0.901,0.113,1.805,0.231,2.699
			c0.06,0.45,0.13,0.898,0.211,1.347c0,0,0.001,0,0.002,0c0.216-0.974,0.382-1.958,0.468-2.952c0.071-0.808,0.077-1.626-0.031-2.43
			c-0.006-0.041-0.01-0.081-0.017-0.12c-0.03-0.235-0.067-0.469-0.11-0.702c-0.048-0.259-0.106-0.535-0.214-0.775
			c-0.105-0.236-0.322-0.397-0.574-0.437c-0.042-0.008-0.083-0.011-0.125-0.011C22.14,20.506,21.905,20.618,21.762,20.817"/>
		<path fill="#FFFFFF" d="M22.733,25.945c-0.166,0.82-0.301,1.66-0.266,2.5c0.024,0.578,0.095,1.153,0.204,1.722h0.001
			c0.136-0.564,0.243-1.143,0.284-1.722c0.06-0.84-0.066-1.675-0.222-2.5C22.735,25.944,22.734,25.944,22.733,25.945
			C22.733,25.944,22.733,25.944,22.733,25.945"/>
		<path fill="#FFFFFF" d="M22.982,32.76c-0.254,0.05-0.503,0.118-0.749,0.196c-0.202,0.064-0.4,0.134-0.599,0.205
			c-0.241,0.084-0.514,0.147-0.721,0.298c0,0,0,0.001,0.001,0.001c0.053-0.011,0.104-0.023,0.157-0.034
			c0.311-0.009,0.616-0.032,0.924-0.074c-0.013,0.002-0.026,0.003-0.04,0.005c0.279-0.037,0.557-0.082,0.832-0.143
			c0.216-0.047,0.429-0.108,0.644-0.164c0.396-0.104,0.801-0.166,1.2-0.255c0.001-0.001,0.001-0.001,0-0.001
			c-0.29-0.048-0.581-0.085-0.875-0.1c-0.04-0.001-0.08-0.001-0.12-0.001C23.418,32.693,23.196,32.72,22.982,32.76"/>
		<path fill="#FFFFFF" d="M20.857,34.646c0.001,0,0.003,0,0.004,0C20.86,34.646,20.859,34.646,20.857,34.646 M20.541,29.639
			c-0.159,0.935-0.268,1.893-0.245,2.842c0.009,0.394,0.042,0.786,0.082,1.177c0.022,0.215,0.048,0.429,0.078,0.643
			c0.016,0.116,0.021,0.284,0.112,0.367c0.041,0.039,0.095,0.084,0.157,0.079c0.111-0.011,0.213-0.045,0.321-0.074
			c0,0,0-0.003,0-0.003c-0.064-0.01-0.128-0.017-0.192-0.024c-0.034-0.005-0.067-0.013-0.1-0.023
			c-0.005-0.005-0.011-0.008-0.017-0.011c-0.004-0.005-0.009-0.011-0.014-0.016c-0.004-0.007-0.007-0.013-0.011-0.019
			c-0.002-0.011-0.005-0.021-0.008-0.033c-0.006-0.202,0.039-0.41,0.062-0.611c0.021-0.187,0.04-0.371,0.056-0.555
			c0.032-0.372,0.055-0.749,0.048-1.122c-0.019-0.879-0.151-1.758-0.327-2.616c0-0.002,0-0.002-0.001-0.002
			C20.542,29.637,20.541,29.637,20.541,29.639"/>
		<path fill="#FFFFFF" d="M31.796,10.743c-0.482,0.361-0.94,0.75-1.343,1.198c-0.187,0.209-0.358,0.428-0.521,0.655
			c-0.096,0.135-0.196,0.268-0.29,0.406c-0.218,0.313-0.347,0.688-0.499,1.035c-0.001,0.001,0,0.001,0.001,0.001
			c0.198-0.208,0.385-0.425,0.581-0.634c0.149-0.157,0.316-0.294,0.479-0.438c0.077-0.07,0.149-0.143,0.222-0.217
			c0.073-0.077,0.166-0.163,0.219-0.257c0.438-0.541,0.815-1.141,1.153-1.748C31.798,10.745,31.797,10.743,31.796,10.743
			L31.796,10.743"/>
		<path fill="#FFFFFF" d="M32.688,16.32c-0.214,0.016-0.428,0.033-0.642,0.056c-0.097,0.011-0.193,0.022-0.288,0.034
			c-0.123,0.017-0.274,0.021-0.404,0.062c-0.111,0.016-0.223,0.031-0.333,0.054c-0.315,0.065-0.431,0.451-0.289,0.71
			c0.129,0.235,0.365,0.294,0.615,0.287c0.22-0.006,0.44-0.043,0.655-0.093c0.195-0.045,0.388-0.098,0.581-0.148
			c0.247-0.067,0.488-0.144,0.731-0.22c0.07-0.011,0.139-0.021,0.206-0.031c0.887-0.113,1.779-0.132,2.667-0.2
			c0.002,0,0.002-0.001,0-0.003c-0.386-0.107-0.772-0.212-1.163-0.301c0.144-0.036,0.288-0.071,0.432-0.108
			c0.002,0,0.002-0.001,0-0.001c-0.395-0.054-0.782-0.098-1.181-0.081c-0.088,0.003-0.178,0.008-0.267,0.011
			c-0.268-0.029-0.539-0.045-0.811-0.045C33.028,16.302,32.857,16.308,32.688,16.32"/>
		<path fill="#FFFFFF" d="M26.266,7.853c-0.033,0.023-0.073,0.046-0.096,0.082c-0.026,0.042-0.043,0.084-0.064,0.129
			c-0.028,0.056-0.056,0.113-0.084,0.169c-0.068,0.138-0.136,0.276-0.201,0.415c-0.072,0.152-0.145,0.304-0.216,0.456
			c-0.066-0.218-0.141-0.434-0.212-0.646c-0.001-0.001-0.002-0.001-0.002,0c-0.036,0.434-0.052,0.873-0.098,1.307
			c-0.061,0.131-0.119,0.265-0.174,0.401c-0.081,0.198-0.156,0.396-0.22,0.603c-0.124,0.395-0.203,0.838-0.118,1.248
			c0.03,0.147,0.167,0.268,0.306,0.307c0.177,0.048,0.416-0.025,0.496-0.202c0.021-0.046,0.042-0.093,0.061-0.141
			c0.014-0.066,0.022-0.135,0.03-0.203c0.047-0.319,0.093-0.64,0.126-0.962c0.004-0.037,0.007-0.074,0.01-0.113
			c0.08-0.371,0.172-0.739,0.253-1.111c0.055-0.251,0.102-0.5,0.144-0.753c0.04-0.245,0.086-0.493,0.115-0.739
			c0.026,0.073,0.047,0.148,0.075,0.223c0.001,0,0.002,0,0.003-0.001c0.001-0.093,0.013-0.185,0.014-0.278
			c0-0.062-0.006-0.131-0.052-0.176c-0.016-0.014-0.037-0.023-0.059-0.023C26.29,7.842,26.277,7.845,26.266,7.853"/>
		<path fill="#FFFFFF" d="M17.418,9.111c-0.177,0.002-0.343,0.096-0.433,0.25c-0.097,0.165-0.079,0.339,0,0.505
			c0.118,0.25,0.249,0.494,0.374,0.739c0.024,0.048,0.048,0.096,0.072,0.144c-0.012-0.008-0.023-0.016-0.035-0.021
			c-0.334-0.202-0.673-0.394-1.017-0.578c0-0.001-0.001,0-0.001,0c0.407,0.482,0.831,0.945,1.24,1.422
			c0.177,0.207,0.356,0.408,0.536,0.612c0.08,0.091,0.162,0.181,0.242,0.274c0.146,0.169,0.28,0.355,0.466,0.48
			c0.177,0.121,0.437,0.07,0.581-0.075c0.06-0.06,0.101-0.13,0.124-0.21c0.03-0.11,0.015-0.206-0.021-0.306
			c0.071,0.048,0.145,0.092,0.219,0.135c0,0,0.001,0,0.001-0.002c-0.053-0.069-0.108-0.139-0.163-0.209
			c-0.108-0.146-0.188-0.31-0.274-0.47c-0.061-0.115-0.123-0.229-0.185-0.342c-0.136-0.248-0.274-0.495-0.416-0.739
			c-0.135-0.234-0.273-0.465-0.414-0.697c-0.066-0.11-0.133-0.219-0.204-0.326c-0.169-0.26-0.333-0.587-0.689-0.587
			C17.419,9.111,17.418,9.111,17.418,9.111"/>
		<path fill="#FFFFFF" d="M11.063,14.304c-0.184,0.006-0.368,0.02-0.551,0.034c-0.195,0.014-0.389,0.039-0.582,0.068
			c-0.145,0.022-0.283,0.047-0.408,0.129c-0.189,0.124-0.303,0.324-0.293,0.553c0.013,0.257,0.167,0.48,0.421,0.552
			c0.215,0.06,0.445,0.063,0.667,0.088c0.177,0.02,0.353,0.04,0.529,0.06c0.292,0.033,0.584,0.061,0.877,0.087
			c0.788,0.068,1.578,0.108,2.368,0.13c0.001,0,0.001-0.001,0.001-0.001c-0.362-0.141-0.726-0.279-1.09-0.413
			c0.413-0.011,0.826-0.019,1.24-0.017c0.097,0.006,0.194,0.011,0.292,0.014c0.299,0.009,0.549-0.256,0.549-0.549
			c0-0.288-0.25-0.565-0.549-0.55c-0.171,0.009-0.35-0.022-0.519-0.042c-0.206-0.025-0.41-0.048-0.615-0.071
			c-0.379-0.043-0.759-0.066-1.139-0.081c-0.156-0.005-0.313-0.008-0.469-0.008C11.548,14.289,11.307,14.295,11.063,14.304"/>
		<path fill="#FFFFFF" d="M13.175,24.049c-0.008,0-0.017,0.001-0.025,0.003C13.158,24.05,13.167,24.049,13.175,24.049
			 M10.692,23.132c-0.425,0.016-0.853,0.079-1.273,0.146c-0.167,0.026-0.335,0.058-0.5,0.095c-0.242,0.055-0.496,0.101-0.729,0.188
			c-0.135,0.052-0.245,0.118-0.319,0.247c-0.074,0.125-0.088,0.269-0.054,0.41c0.025,0.104,0.079,0.208,0.155,0.283
			c0.132,0.134,0.299,0.161,0.476,0.18c0.074,0.008,0.161-0.011,0.235-0.017c0.137-0.011,0.274-0.034,0.409-0.058
			c0.197-0.032,0.391-0.087,0.583-0.135c0.167-0.042,0.331-0.093,0.495-0.146c0.331-0.036,0.663-0.073,0.994-0.108
			c0.436-0.047,0.874-0.068,1.312-0.101c-0.019,0.019-0.036,0.037-0.054,0.057c-0.275,0.289-0.539,0.588-0.801,0.889
			c0,0.001,0,0.003,0.002,0.001c0.351-0.178,0.698-0.364,1.045-0.552c0.293-0.156,0.591-0.312,0.876-0.481
			c0.202-0.121,0.232-0.394,0.073-0.562c-0.162-0.17-0.36-0.178-0.58-0.208c0.036,0.007,0.071,0.012,0.107,0.016
			c-0.396-0.054-0.793-0.108-1.192-0.132c-0.211-0.012-0.422-0.021-0.634-0.029c-0.037-0.001-0.074-0.001-0.112-0.001
			C11.035,23.113,10.862,23.124,10.692,23.132"/>
	</g>
</g>
</svg>
