<?xml version="1.0" encoding="utf-8"?>
<!-- Generator: Adobe Illustrator 15.0.0, SVG Export Plug-In . SVG Version: 6.00 Build 0)  -->
<!DOCTYPE svg PUBLIC "-//W3C//DTD SVG 1.1//EN" "http://www.w3.org/Graphics/SVG/1.1/DTD/svg11.dtd">
<svg version="1.1" id="Capa_1" xmlns="http://www.w3.org/2000/svg" xmlns:xlink="http://www.w3.org/1999/xlink" x="0px" y="0px"
	 width="44px" height="44px" viewBox="0 0 44 44" enable-background="new 0 0 44 44" xml:space="preserve">
<g>
	<path opacity="0.9753" fill="#292521" d="M31.365,15.51c0.095,0.021,0.188,0.05,0.28,0.084c0.075,0.037,0.148,0.078,0.22,0.124
		c0.107,0.095,0.205,0.198,0.297,0.309c0.212,0.292,0.386,0.602,0.531,0.932c0.089,0.22,0.168,0.443,0.235,0.671
		c0.077,0.266,0.126,0.54,0.166,0.813c0.074,0.61,0.074,1.227,0.095,1.84c0.007,0.199,0.008,0.398,0.008,0.597
		c-0.049,0.246-0.098,0.492-0.146,0.738c-0.037,0.19-0.099,0.376-0.149,0.562c-0.04,0.152-0.081,0.304-0.12,0.457
		c-0.018,0.065-0.031,0.134-0.054,0.197c-0.085,0.254-0.171,0.508-0.256,0.761c-0.059,0.176-0.111,0.355-0.178,0.528
		c-0.107,0.279-0.216,0.559-0.321,0.838c-0.045,0.117-0.09,0.236-0.135,0.354c-0.131,0.294-0.261,0.588-0.391,0.883
		c-0.14,0.317-0.283,0.634-0.435,0.943c-0.198,0.402-0.411,0.8-0.675,1.163c-0.19,0.234-0.399,0.453-0.632,0.646
		c-0.118,0.084-0.24,0.161-0.37,0.228c-0.061,0.021-0.121,0.039-0.185,0.055c-0.017,0-0.032,0-0.049,0
		c-0.012-0.003-0.022-0.006-0.033-0.009c-0.026-0.016-0.054-0.032-0.08-0.049c-0.101-0.09-0.192-0.187-0.279-0.29
		c-0.209-0.292-0.378-0.606-0.525-0.935c-0.183-0.462-0.31-0.938-0.386-1.43c-0.066-0.571-0.084-1.146-0.077-1.722
		c0.004-0.327,0-0.657,0.012-0.983c0.034-0.961,0.054-1.921,0.173-2.875c0.065-0.446,0.154-0.884,0.277-1.318
		c0.123-0.429,0.271-0.852,0.438-1.265c0.252-0.571,0.56-1.114,0.932-1.616c0.234-0.291,0.486-0.568,0.772-0.808
		c0.169-0.122,0.345-0.232,0.531-0.325c0.113-0.04,0.227-0.073,0.344-0.097C31.257,15.51,31.311,15.509,31.365,15.51 M31.156,13.878
		c-0.194,0-0.393,0.036-0.582,0.073c-0.219,0.043-0.424,0.138-0.626,0.227c-0.323,0.14-0.608,0.356-0.881,0.575
		c-0.25,0.2-0.47,0.443-0.673,0.689c-0.437,0.528-0.794,1.108-1.085,1.727c-0.305,0.646-0.542,1.325-0.73,2.014
		c-0.192,0.695-0.286,1.413-0.354,2.129c-0.072,0.765-0.078,1.534-0.097,2.3c-0.012,0.462-0.006,0.925-0.007,1.387
		c-0.001,0.545,0.031,1.092,0.101,1.632c0.049,0.373,0.111,0.74,0.207,1.104c0.098,0.377,0.239,0.739,0.394,1.098
		c0.12,0.275,0.251,0.544,0.406,0.801c0.104,0.173,0.226,0.331,0.349,0.489c0.108,0.141,0.225,0.274,0.36,0.391
		c0.192,0.167,0.382,0.292,0.622,0.379c0.193,0.069,0.398,0.097,0.603,0.106c0.112,0.006,0.272-0.025,0.369-0.041
		c0.068-0.011,0.135-0.025,0.201-0.043c0.207-0.056,0.408-0.152,0.595-0.257c0.169-0.095,0.327-0.221,0.477-0.342
		c0.121-0.099,0.234-0.204,0.343-0.316c0.262-0.271,0.49-0.583,0.689-0.902c0.19-0.307,0.326-0.644,0.465-0.977
		c0.135-0.322,0.252-0.651,0.36-0.983c0.096-0.294,0.186-0.588,0.274-0.883c0.058-0.189,0.124-0.379,0.17-0.572
		c0.067-0.29,0.136-0.58,0.203-0.87c0.038-0.167,0.081-0.332,0.11-0.5c0.088-0.496,0.193-0.992,0.243-1.493
		c0.031-0.309,0.062-0.617,0.091-0.926c0.007-0.07,0.011-0.14,0.015-0.21c0.047-0.24,0.091-0.481,0.134-0.724
		c0.088-0.498,0.149-0.997,0.212-1.499c0.069-0.556,0.095-1.113,0.047-1.671c-0.062-0.723-0.261-1.416-0.555-2.077
		c-0.143-0.318-0.327-0.607-0.539-0.881c-0.217-0.28-0.49-0.506-0.805-0.669c-0.169-0.088-0.351-0.161-0.532-0.217
		c-0.177-0.054-0.372-0.067-0.558-0.067C31.167,13.877,31.162,13.878,31.156,13.878"/>
	<path opacity="0.9753" fill="#292521" d="M31.582,18.042c-0.004,0-0.008,0.001-0.012,0.001c0.001,0,0.001,0,0.001,0
		C31.574,18.043,31.578,18.042,31.582,18.042 M31.051,16.562c-0.393,0.114-0.655,0.447-0.885,0.763
		c-0.089,0.122-0.156,0.26-0.221,0.396c-0.095,0.196-0.175,0.399-0.255,0.601c-0.117,0.293-0.201,0.6-0.28,0.905
		c-0.093,0.35-0.165,0.703-0.229,1.059c-0.055,0.305-0.096,0.613-0.138,0.92c-0.065,0.462-0.115,0.926-0.154,1.392
		c-0.039,0.471-0.075,0.942-0.074,1.415c0.001,0.22,0.003,0.438,0.01,0.656c0.016,0.513,0.074,1.022,0.128,1.531
		c0,0.002,0.001,0.002,0.002,0c0.089-0.492,0.153-0.988,0.25-1.479c0.047-0.234,0.098-0.469,0.146-0.704
		c0.092-0.431,0.218-0.854,0.338-1.277c0.327-1.157,0.693-2.307,1.151-3.418c0.008-0.02,0.017-0.039,0.024-0.058
		c-0.009,0.128-0.021,0.257-0.033,0.385c-0.031,0.295-0.051,0.592-0.09,0.887c-0.045,0.344-0.087,0.689-0.128,1.035
		c0.001-0.009,0.003-0.019,0.004-0.027c-0.001,0.011-0.003,0.022-0.005,0.033c0.007-0.048,0.014-0.097,0.021-0.145
		c-0.246,1.823-0.452,3.651-0.609,5.484c0,0.001,0.001,0.001,0.002,0c0.437-1.215,0.848-2.439,1.229-3.673
		c0.266-0.861,0.492-1.735,0.705-2.611c0.097-0.402,0.165-0.813,0.236-1.221c0.069-0.395,0.124-0.792,0.179-1.19
		c-0.001,0.007-0.002,0.014-0.004,0.021c0.028-0.188,0.056-0.374,0.072-0.562c0.021-0.222-0.034-0.423-0.127-0.622
		c-0.04-0.086-0.118-0.204-0.183-0.259c-0.013-0.011-0.025-0.022-0.039-0.034c-0.097-0.096-0.212-0.163-0.343-0.2
		c-0.104-0.039-0.216-0.055-0.328-0.055C31.296,16.508,31.169,16.529,31.051,16.562"/>
	<path opacity="0.9753" fill="#292521" d="M24.12,13.815c-0.888,0.005-1.774,0.045-2.661,0.107
		c-0.447,0.031-0.896,0.064-1.341,0.122c-0.519,0.067-1.038,0.137-1.555,0.221c-0.932,0.15-1.856,0.328-2.782,0.507
		c-0.476,0.092-0.949,0.19-1.426,0.28c-0.493,0.093-0.984,0.19-1.476,0.293c-0.872,0.182-1.727,0.432-2.582,0.677
		c-0.002,0-0.001,0.002,0,0.002c0.699-0.023,1.397-0.067,2.096-0.097c0.284-0.013,0.569-0.013,0.853-0.02
		c0.487-0.01,0.975-0.021,1.462-0.036c0.925-0.027,1.851-0.099,2.771-0.174c1.884-0.153,3.767-0.31,5.643-0.532
		c0.869-0.103,1.737-0.204,2.604-0.318c0.488-0.065,0.979-0.124,1.465-0.205c0.57-0.096,1.139-0.197,1.707-0.303
		c0.615-0.115,1.228-0.239,1.839-0.369c0.001,0,0.001-0.002,0-0.002c-1.232-0.055-2.466-0.095-3.699-0.113
		c-0.525-0.008-1.051-0.03-1.576-0.038c-0.268-0.004-0.536-0.005-0.806-0.005C24.479,13.814,24.3,13.815,24.12,13.815"/>
	<path opacity="0.9753" fill="#292521" d="M16.548,29.069c-1.074,0.004-2.145,0.075-3.214,0.164c-0.002,0-0.002,0.002-0.001,0.002
		c0.669,0.125,1.342,0.231,2.014,0.344c0.269,0.046,0.534,0.099,0.802,0.146c0.442,0.079,0.886,0.163,1.329,0.24
		c0.861,0.151,1.723,0.313,2.589,0.434c0.531,0.073,1.065,0.157,1.599,0.201c0.496,0.041,0.994,0.064,1.492,0.084
		c0.495,0.02,0.994,0.012,1.491,0.008c0.46-0.005,0.921-0.025,1.382-0.046c0.238-0.012,0.477-0.016,0.716-0.025
		c0.296-0.012,0.595-0.026,0.892-0.021c0.152,0.033,0.306,0.062,0.459,0.083c0.133,0.019,0.252,0.007,0.353-0.093
		c0.12-0.119,0.132-0.292,0.057-0.438c-0.134-0.258-0.43-0.298-0.683-0.364c-0.212-0.055-0.433-0.096-0.65-0.126
		c-0.314-0.042-0.628-0.084-0.942-0.122c-0.469-0.059-0.939-0.095-1.41-0.133c-0.902-0.071-1.806-0.142-2.709-0.184
		c0.029,0.005,0.059,0.008,0.088,0.012c-0.194-0.021-0.386-0.022-0.581-0.034c-0.273-0.016-0.546-0.028-0.819-0.039
		c-0.459-0.02-0.92-0.035-1.379-0.052c-0.852-0.028-1.701-0.04-2.553-0.04C16.761,29.069,16.655,29.069,16.548,29.069"/>
	<path opacity="0.9753" fill="#292521" d="M19.624,18.782c-0.302,0.004-0.596,0.015-0.897,0.043
		c-0.714,0.066-1.419,0.189-2.112,0.371c-0.616,0.162-1.22,0.366-1.822,0.568c-0.175,0.059-0.346,0.13-0.52,0.197
		c-0.267,0.104-0.534,0.208-0.799,0.319c-0.62,0.26-1.229,0.546-1.837,0.832c0,0,0,0.001,0.001,0.001
		c0.717-0.124,1.428-0.28,2.146-0.401c0.333-0.056,0.665-0.113,0.996-0.173c0.503-0.09,1.012-0.15,1.518-0.229
		c0.643-0.082,1.284-0.155,1.932-0.186c0.392-0.019,0.783-0.028,1.176-0.027c0.465,0.002,0.932-0.021,1.397-0.03
		c1.051-0.02,2.103-0.071,3.15-0.147c1.193-0.086,2.385-0.187,3.573-0.324c0.002,0,0.002-0.002,0.001-0.002
		c-1.145-0.217-2.297-0.417-3.453-0.55c-1.027-0.119-2.055-0.205-3.087-0.249c-0.285-0.012-0.572-0.017-0.857-0.017
		C19.96,18.778,19.792,18.78,19.624,18.782"/>
	<path opacity="0.9753" fill="#292521" d="M17.591,23.052c-0.48,0.016-0.96,0.037-1.439,0.075c-0.511,0.039-1.006,0.126-1.499,0.263
		c-0.506,0.141-1,0.322-1.498,0.488c-0.001,0.001-0.001,0.002,0,0.002c0.545-0.021,1.088-0.079,1.632-0.115
		c0.27-0.018,0.54-0.027,0.811-0.021c0.265,0.007,0.528,0.03,0.792,0.05c0.465,0.034,0.928,0.075,1.392,0.105
		c0.649,0.042,1.299,0.085,1.949,0.118c-0.015-0.002-0.029-0.005-0.044-0.006c0.272,0.032,0.553,0.028,0.827,0.035
		c0.306,0.007,0.611,0.011,0.916,0.013c0.29,0,0.579,0,0.868-0.003c1.357-0.013,2.714-0.076,4.067-0.176
		c0.001,0,0.002-0.001,0.001-0.002c-1.395-0.247-2.796-0.454-4.203-0.612c-0.863-0.097-1.729-0.175-2.597-0.213
		c-0.313-0.013-0.627-0.019-0.941-0.019C18.279,23.034,17.935,23.041,17.591,23.052"/>
	<path opacity="0.9753" fill="#292521" d="M17.854,25.98c-1.006,0.058-2.006,0.167-3.005,0.308c-0.001,0-0.001,0.002,0,0.002
		c0.662,0.109,1.326,0.199,1.992,0.284c0.34,0.047,0.681,0.091,1.022,0.13c-0.032-0.004-0.064-0.008-0.097-0.013
		c0.436,0.06,0.872,0.114,1.309,0.161c-0.04-0.005-0.079-0.011-0.119-0.017c1.988,0.268,3.995,0.344,6,0.293
		c0.32-0.008,0.642-0.021,0.961-0.035c0.001,0,0.002-0.002,0-0.002c-1.194-0.329-2.403-0.611-3.624-0.826
		c-0.541-0.095-1.088-0.165-1.635-0.228c-0.457-0.051-0.919-0.067-1.378-0.08c-0.146-0.006-0.293-0.007-0.439-0.007
		C18.513,25.951,18.183,25.961,17.854,25.98"/>
	<path opacity="0.9753" fill="#292521" d="M22.491,16.046c-0.47,0.039-0.937,0.129-1.398,0.215
		c-1.022,0.191-2.027,0.464-3.029,0.744c-0.001,0-0.001,0.001,0,0.001c1.005,0.026,2.012,0.028,3.017,0
		c0.453-0.012,0.906-0.05,1.359-0.062c0.55-0.014,1.099-0.063,1.645-0.124c0.139-0.016,0.28-0.021,0.42-0.032
		c0.334-0.027,0.668-0.061,1.001-0.099c0.735-0.083,1.47-0.187,2.198-0.308c0.002,0,0.002-0.002,0-0.002
		c-0.702-0.117-1.406-0.212-2.115-0.281c-0.338-0.033-0.677-0.061-1.017-0.083c-0.157-0.01-0.318-0.026-0.478-0.027
		c-0.007,0-0.014,0-0.021,0C23.545,15.99,23.017,16.003,22.491,16.046"/>
	<path opacity="0.9753" fill="#292521" d="M11.19,15.131c-0.311,0.627-0.609,1.258-0.897,1.896c-0.19,0.421-0.365,0.843-0.531,1.275
		c-0.091,0.237-0.186,0.474-0.267,0.715c-0.219,0.654-0.379,1.317-0.483,1.999c-0.048,0.313-0.078,0.629-0.111,0.944
		c-0.037,0.36-0.064,0.719-0.072,1.083c-0.006,0.266,0.012,0.53,0.042,0.795c0.037,0.327,0.087,0.652,0.172,0.97
		c0.083,0.313,0.213,0.616,0.35,0.909c0.122,0.262,0.27,0.512,0.43,0.753c0.66,0.989,1.602,1.754,2.618,2.353
		c0.632,0.373,1.318,0.617,2.01,0.852c0.221,0.075,0.446,0.141,0.669,0.207c0.579,0.175,1.186,0.245,1.781,0.337
		c0.002,0,0.003-0.002,0.001-0.003c-0.488-0.226-0.995-0.417-1.474-0.667c-0.243-0.127-0.48-0.266-0.721-0.397
		c-0.536-0.293-1.065-0.604-1.55-0.973c-0.594-0.469-1.152-0.995-1.624-1.587c-0.332-0.446-0.611-0.916-0.836-1.424
		c-0.192-0.484-0.313-0.981-0.391-1.496c-0.073-0.625-0.057-1.251-0.045-1.879c0.003-0.174,0.005-0.348,0.007-0.521
		c0.005-0.532,0.059-1.068,0.127-1.595c0.056-0.399,0.126-0.793,0.193-1.19c0.042-0.25,0.077-0.501,0.126-0.75
		c0.17-0.865,0.326-1.734,0.476-2.604C11.192,15.131,11.191,15.13,11.19,15.131C11.19,15.13,11.19,15.131,11.19,15.131"/>
</g>
</svg>
