<?xml version="1.0" encoding="utf-8"?>
<!-- Generator: Adobe Illustrator 15.0.0, SVG Export Plug-In . SVG Version: 6.00 Build 0)  -->
<!DOCTYPE svg PUBLIC "-//W3C//DTD SVG 1.1//EN" "http://www.w3.org/Graphics/SVG/1.1/DTD/svg11.dtd">
<svg version="1.1" id="Capa_1" xmlns="http://www.w3.org/2000/svg" xmlns:xlink="http://www.w3.org/1999/xlink" x="0px" y="0px"
	 width="44px" height="44px" viewBox="0 0 44 44" enable-background="new 0 0 44 44" xml:space="preserve">
<g>
	<path opacity="0.9753" fill="#292521" d="M21.487,11.874c0.036-0.172,0.077-0.344,0.121-0.516c0.011-0.043,0.022-0.087,0.033-0.131
		c0.139,0.51,0.175,1.041,0.271,1.562c0.063,0.343,0.143,0.68,0.26,1.01c0.14,0.395,0.338,0.762,0.544,1.125
		c0.251,0.443,0.545,0.859,0.828,1.281c0.302,0.451,0.594,0.907,0.898,1.355c0.288,0.423,0.607,0.828,0.913,1.239
		c0.297,0.398,0.582,0.803,0.869,1.208c0.619,0.877,1.279,1.726,1.818,2.657c0.133,0.229,0.261,0.463,0.389,0.694
		c0.099,0.18,0.184,0.367,0.272,0.551c0.05,0.125,0.099,0.249,0.148,0.374c0.035,0.089,0.061,0.183,0.091,0.273
		c0.031,0.092,0.067,0.186,0.093,0.279c0.109,0.416,0.216,0.832,0.284,1.257c0.037,0.367,0.034,0.733,0.026,1.104
		c-0.006,0.238-0.025,0.479-0.053,0.716c-0.052,0.315-0.129,0.622-0.242,0.921c-0.132,0.286-0.29,0.557-0.475,0.812
		c-0.227,0.273-0.476,0.518-0.751,0.741c-0.559,0.417-1.162,0.775-1.799,1.057c-0.574,0.229-1.173,0.396-1.782,0.491
		c-0.675,0.076-1.355,0.071-2.034,0.057c-0.561-0.012-1.124-0.021-1.681-0.083c-0.402-0.065-0.789-0.167-1.168-0.314
		c-0.45-0.203-0.874-0.455-1.272-0.747c-0.375-0.306-0.713-0.655-1.017-1.032c-0.249-0.338-0.471-0.693-0.646-1.075
		c-0.131-0.336-0.229-0.682-0.288-1.037c-0.052-0.507-0.036-1.011-0.017-1.519c0.01-0.267,0.032-0.536,0.063-0.802
		c0.106-0.699,0.29-1.387,0.554-2.043c0.512-1.16,1.239-2.209,1.966-3.242c0.598-0.85,1.106-1.751,1.596-2.666
		c0.132-0.247,0.26-0.499,0.377-0.752c0.251-0.543,0.448-1.102,0.597-1.68c0.133-0.508,0.245-1.018,0.272-1.544
		c0.021-0.416-0.04-0.827-0.131-1.234C21.44,12.104,21.463,11.989,21.487,11.874 M21.892,10.496
		c-0.008,0.006-0.017,0.013-0.025,0.019l0,0C21.875,10.508,21.883,10.501,21.892,10.496 M21.569,9.349
		c-0.247,0.014-0.457,0.09-0.626,0.277c-0.268,0.293-0.309,0.714-0.345,1.092c-0.012,0.125-0.015,0.25-0.021,0.375
		c-0.015,0.261-0.023,0.521-0.028,0.783c-0.009,0.522,0.028,1.044,0.047,1.566c0.014,0.387,0.032,0.774,0.049,1.161
		c-0.177,0.401-0.357,0.798-0.575,1.181c-0.223,0.394-0.479,0.774-0.739,1.145c-0.219,0.313-0.438,0.626-0.66,0.936
		c-0.185,0.258-0.376,0.51-0.568,0.763c-0.145,0.179-0.287,0.361-0.436,0.537c-0.167,0.196-0.338,0.389-0.499,0.59
		c-0.201,0.251-0.405,0.5-0.597,0.757c-0.154,0.207-0.317,0.411-0.46,0.625c-0.228,0.344-0.455,0.685-0.656,1.046
		c-0.377,0.675-0.655,1.41-0.844,2.159c-0.195,0.772-0.237,1.571-0.274,2.362c-0.034,0.728,0.041,1.471,0.252,2.168
		c0.11,0.363,0.264,0.719,0.44,1.056c0.194,0.37,0.442,0.709,0.697,1.038c0.476,0.614,1.042,1.133,1.683,1.571
		c0.295,0.202,0.606,0.377,0.927,0.534c0.379,0.186,0.779,0.344,1.186,0.455c0.577,0.157,1.18,0.204,1.774,0.235
		c0.277,0.014,0.554,0.021,0.831,0.026c0.273,0.006,0.544,0.004,0.816,0.003c0.644-0.003,1.283-0.055,1.918-0.166
		c1.006-0.179,1.979-0.569,2.87-1.064c0.834-0.464,1.649-1.017,2.252-1.767c0.248-0.308,0.469-0.629,0.65-0.98
		c0.196-0.384,0.345-0.792,0.444-1.211c0.074-0.315,0.115-0.644,0.14-0.966c0.01-0.138,0.026-0.275,0.03-0.412
		c0.006-0.152,0.01-0.304,0.015-0.455c0.013-0.416-0.049-0.835-0.115-1.243c-0.043-0.265-0.107-0.531-0.179-0.789
		c-0.037-0.136-0.075-0.271-0.112-0.407c-0.042-0.149-0.104-0.296-0.154-0.442c-0.033-0.096-0.071-0.188-0.109-0.281
		c-0.079-0.191-0.149-0.396-0.241-0.58c-0.113-0.224-0.221-0.45-0.344-0.669c-0.143-0.25-0.286-0.5-0.434-0.748
		c-0.54-0.907-1.2-1.74-1.811-2.599c-0.298-0.42-0.598-0.837-0.903-1.251c-0.299-0.403-0.606-0.802-0.896-1.211
		c-0.316-0.45-0.626-0.904-0.944-1.353c-0.296-0.419-0.597-0.834-0.874-1.266c-0.164-0.256-0.321-0.515-0.449-0.79
		c-0.195-0.5-0.319-1.017-0.458-1.534c-0.114-0.431-0.255-0.854-0.462-1.25c-0.083-0.159-0.192-0.305-0.305-0.444
		c-0.079-0.097-0.159-0.19-0.252-0.273c-0.073-0.066-0.155-0.123-0.237-0.178c-0.089-0.059-0.279-0.11-0.394-0.11
		C21.581,9.348,21.575,9.348,21.569,9.349"/>
	<path opacity="0.9753" fill="#292521" d="M19.458,25.636c0.111,0.019,0.218,0.045,0.325,0.083c0.098,0.045,0.189,0.096,0.279,0.157
		c0.215,0.176,0.4,0.388,0.58,0.6c0.207,0.244,0.409,0.494,0.614,0.739c0.003,0.018,0.007,0.036,0.01,0.054
		c0.019,0.179,0.02,0.354,0.001,0.531c-0.022,0.133-0.055,0.26-0.103,0.385c-0.041,0.084-0.086,0.161-0.138,0.238
		c-0.043,0.05-0.089,0.097-0.139,0.142c-0.053,0.035-0.106,0.068-0.164,0.097c-0.078,0.027-0.156,0.049-0.237,0.064
		c-0.108,0.006-0.213,0.002-0.321-0.008c-0.208-0.035-0.413-0.09-0.611-0.164c-0.122-0.057-0.236-0.123-0.347-0.201
		c-0.152-0.126-0.292-0.265-0.418-0.415c-0.069-0.098-0.13-0.197-0.182-0.304c-0.024-0.07-0.043-0.14-0.059-0.213
		c-0.016-0.216-0.006-0.432,0.017-0.648c0.033-0.201,0.079-0.396,0.151-0.587c0.053-0.112,0.112-0.218,0.183-0.318
		c0.043-0.049,0.086-0.094,0.134-0.136c0.037-0.024,0.074-0.047,0.113-0.067c0.038-0.013,0.075-0.022,0.114-0.031
		C19.327,25.629,19.392,25.63,19.458,25.636 M18.935,24.838c-0.641,0.111-1.073,0.681-1.306,1.245
		c-0.125,0.305-0.188,0.618-0.23,0.942c-0.047,0.358-0.028,0.716,0.106,1.055c0.057,0.142,0.119,0.272,0.204,0.399
		c0.098,0.146,0.214,0.28,0.337,0.403c0.227,0.227,0.498,0.421,0.789,0.557c0.328,0.153,0.673,0.214,1.03,0.246
		c0.353,0.033,0.723-0.016,1.044-0.166c0.271-0.128,0.48-0.321,0.648-0.566c0.076-0.109,0.122-0.243,0.166-0.368
		c0.056-0.161,0.074-0.34,0.08-0.51c0.01-0.303-0.068-0.609-0.185-0.886c-0.118-0.282-0.311-0.523-0.497-0.764
		c0.003,0.004,0.005,0.007,0.009,0.011c-0.071-0.092-0.14-0.183-0.207-0.274c0-0.002-0.002-0.001-0.002,0
		c0.091,0.277,0.203,0.547,0.281,0.828c-0.18-0.477-0.367-0.957-0.641-1.384c-0.159-0.247-0.39-0.444-0.647-0.584
		c-0.231-0.126-0.495-0.203-0.758-0.203C19.083,24.819,19.008,24.826,18.935,24.838"/>
</g>
</svg>
