<?xml version="1.0" encoding="utf-8"?>
<!-- Generator: Adobe Illustrator 15.0.0, SVG Export Plug-In . SVG Version: 6.00 Build 0)  -->
<!DOCTYPE svg PUBLIC "-//W3C//DTD SVG 1.1//EN" "http://www.w3.org/Graphics/SVG/1.1/DTD/svg11.dtd">
<svg version="1.1" id="Capa_1" xmlns="http://www.w3.org/2000/svg" xmlns:xlink="http://www.w3.org/1999/xlink" x="0px" y="0px"
	 width="10px" height="10px" viewBox="0 0 10 10" enable-background="new 0 0 10 10" xml:space="preserve">
<g>
	<path fill="#9D9995" d="M6.552,4.281c0.002,0.014,0.003,0.03,0.005,0.045C6.555,4.311,6.554,4.295,6.552,4.281 M5.573,3.015
		c0.011,0.003,0.02,0.008,0.031,0.013C5.593,3.023,5.582,3.018,5.573,3.015 M5.549,6.26c0.017-0.008,0.032-0.013,0.044-0.018
		C5.581,6.249,5.568,6.254,5.556,6.26C5.554,6.26,5.551,6.26,5.549,6.26 M5.442,6.305C5.477,6.29,5.507,6.277,5.541,6.263
		c0.001,0,0.005,0,0.006,0C5.512,6.279,5.478,6.292,5.442,6.305 M4.986,2.942c0.122-0.009,0.237-0.007,0.357,0.003
		C5.395,2.957,5.446,2.97,5.497,2.986c0.076,0.043,0.148,0.086,0.221,0.137c0.135,0.113,0.261,0.231,0.378,0.364
		c0.115,0.16,0.218,0.325,0.309,0.499C5.938,3.63,5.465,3.281,4.986,2.942 M3.21,5.717c0.016,0.041,0.032,0.08,0.049,0.12
		C3.239,5.799,3.223,5.758,3.21,5.717 M3.239,4.338C3.27,4.147,3.31,3.964,3.365,3.778C3.407,3.692,3.452,3.608,3.5,3.527
		c0.066-0.046,0.131-0.088,0.199-0.129c0.516,0.103,1.013,0.276,1.514,0.435c0.432,0.136,0.865,0.275,1.298,0.413
		c0.021,0.064,0.04,0.129,0.054,0.197c0.003,0.035,0.003,0.07,0,0.107c-0.04,0.188-0.097,0.366-0.168,0.548
		c-0.14,0.306-0.29,0.599-0.478,0.877c-0.064,0.07-0.128,0.137-0.199,0.199c-0.023,0.015-0.047,0.027-0.072,0.04
		c-0.062,0.021-0.126,0.039-0.19,0.053c-0.31,0.02-0.614,0-0.923-0.032C4.253,6.188,3.982,6.123,3.711,6.031
		C3.6,5.976,3.492,5.912,3.386,5.845C3.32,5.787,3.259,5.729,3.199,5.663C3.197,5.66,3.195,5.657,3.193,5.653
		C3.172,5.215,3.199,4.773,3.239,4.338 M3.166,5.523c0.001,0.008,0.002,0.016,0.002,0.025C3.168,5.539,3.166,5.531,3.166,5.523
		 M1.356,6.362C1.45,6.769,1.768,7.128,2.049,7.414c0.357,0.366,0.844,0.62,1.319,0.797C3.958,8.43,4.585,8.525,5.211,8.549
		c0.947,0.039,1.837-0.428,2.381-1.189c0.25-0.351,0.432-0.741,0.576-1.147C8.275,5.909,8.361,5.607,8.416,5.29
		c0.072-0.421,0.065-0.841-0.062-1.254C8.237,3.669,8.014,3.332,7.77,3.039C7.466,2.677,7.108,2.357,6.697,2.123
		C6.078,1.772,5.419,1.691,4.752,1.957C4.499,2.06,4.266,2.208,4.047,2.369c-0.059-0.026-0.118-0.05-0.175-0.07
		C3.009,1.99,2.339,2.68,1.938,3.369C1.609,3.94,1.456,4.664,1.341,5.31C1.309,5.486,1.292,5.65,1.292,5.814
		C1.292,5.993,1.311,6.172,1.356,6.362"/>
</g>
</svg>
