<?xml version="1.0" encoding="utf-8"?>
<!-- Generator: Adobe Illustrator 15.0.0, SVG Export Plug-In . SVG Version: 6.00 Build 0)  -->
<!DOCTYPE svg PUBLIC "-//W3C//DTD SVG 1.1//EN" "http://www.w3.org/Graphics/SVG/1.1/DTD/svg11.dtd">
<svg version="1.1" id="Capa_1" xmlns="http://www.w3.org/2000/svg" xmlns:xlink="http://www.w3.org/1999/xlink" x="0px" y="0px"
	 width="10px" height="10px" viewBox="17.5 17.5 10 10" enable-background="new 17.5 17.5 10 10" xml:space="preserve">
<g>
	<path fill="#292521" d="M24.534,21.412c0.003,0.018,0.004,0.036,0.007,0.055C24.538,21.448,24.537,21.43,24.534,21.412
		 M23.345,19.875c0.014,0.004,0.025,0.01,0.039,0.015C23.37,19.885,23.358,19.879,23.345,19.875 M23.316,23.817
		c0.021-0.01,0.039-0.016,0.054-0.022c-0.015,0.007-0.029,0.013-0.045,0.021C23.322,23.817,23.319,23.817,23.316,23.817
		 M23.188,23.871c0.04-0.017,0.078-0.033,0.118-0.05c0.002,0,0.007,0,0.008-0.001C23.271,23.84,23.23,23.855,23.188,23.871
		 M22.633,19.786c0.148-0.01,0.288-0.008,0.434,0.004c0.062,0.014,0.125,0.03,0.187,0.05c0.092,0.052,0.18,0.106,0.268,0.167
		c0.164,0.137,0.316,0.281,0.458,0.441c0.14,0.194,0.265,0.396,0.376,0.606C23.789,20.622,23.215,20.198,22.633,19.786
		 M20.476,23.155c0.02,0.051,0.04,0.099,0.06,0.147C20.512,23.256,20.492,23.206,20.476,23.155 M20.511,21.482
		c0.038-0.232,0.086-0.454,0.153-0.68c0.051-0.105,0.106-0.206,0.165-0.305c0.08-0.055,0.16-0.106,0.242-0.156
		c0.626,0.125,1.23,0.335,1.838,0.527c0.525,0.165,1.051,0.335,1.578,0.502c0.024,0.078,0.047,0.157,0.065,0.239
		c0.002,0.043,0.002,0.087-0.001,0.131c-0.048,0.229-0.118,0.445-0.203,0.665c-0.17,0.373-0.353,0.727-0.581,1.065
		c-0.077,0.087-0.156,0.166-0.241,0.243c-0.029,0.017-0.058,0.032-0.088,0.048c-0.076,0.025-0.154,0.047-0.232,0.065
		c-0.376,0.023-0.746,0-1.121-0.039c-0.342-0.058-0.671-0.137-1-0.249c-0.136-0.068-0.267-0.143-0.395-0.225
		c-0.08-0.071-0.154-0.142-0.227-0.221c-0.003-0.004-0.005-0.009-0.008-0.013C20.429,22.546,20.463,22.011,20.511,21.482
		 M20.423,22.922c0.001,0.009,0.002,0.019,0.003,0.03C20.425,22.941,20.423,22.931,20.423,22.922 M18.224,23.939
		c0.115,0.494,0.5,0.93,0.843,1.279c0.433,0.445,1.025,0.753,1.602,0.967c0.716,0.266,1.478,0.382,2.237,0.411
		c1.151,0.047,2.231-0.519,2.892-1.446c0.303-0.425,0.524-0.899,0.699-1.393c0.131-0.367,0.236-0.733,0.302-1.118
		c0.088-0.513,0.079-1.023-0.077-1.524c-0.14-0.446-0.411-0.855-0.708-1.211c-0.37-0.44-0.803-0.828-1.303-1.113
		c-0.751-0.426-1.552-0.523-2.361-0.201c-0.309,0.125-0.591,0.304-0.858,0.5c-0.071-0.032-0.142-0.061-0.213-0.085
		c-1.047-0.375-1.861,0.463-2.347,1.299c-0.401,0.694-0.586,1.574-0.726,2.357c-0.039,0.215-0.06,0.415-0.06,0.615
		C18.146,23.492,18.17,23.708,18.224,23.939"/>
</g>
</svg>
