<?xml version="1.0" encoding="utf-8"?>
<!-- Generator: Adobe Illustrator 15.0.0, SVG Export Plug-In . SVG Version: 6.00 Build 0)  -->
<!DOCTYPE svg PUBLIC "-//W3C//DTD SVG 1.1//EN" "http://www.w3.org/Graphics/SVG/1.1/DTD/svg11.dtd">
<svg version="1.1" id="Capa_1" xmlns="http://www.w3.org/2000/svg" xmlns:xlink="http://www.w3.org/1999/xlink" x="0px" y="0px"
	 width="44px" height="44px" viewBox="0 0 44 44" enable-background="new 0 0 44 44" xml:space="preserve">
<path opacity="0.9753" fill="#292521" d="M15.931,7.913c-0.12,0.006-0.209,0.051-0.295,0.133c-0.151,0.146-0.131,0.37-0.062,0.549
	c0.043,0.114,0.106,0.217,0.156,0.328c0.018,0.04,0.036,0.08,0.054,0.12c0.204,0.544,0.36,1.101,0.499,1.664
	c0.033,0.133,0.06,0.269,0.098,0.4c0.04,0.135,0.079,0.269,0.114,0.405c0.031,0.124,0.065,0.249,0.106,0.371
	c0.014,0.045,0.034,0.132,0.074,0.16c0.065,0.046,0.127-0.066,0.161-0.106c0.001,0,0-0.002-0.001-0.001
	c-0.035,0.025-0.032,0.023-0.066,0.05c0.001-0.001,0.001-0.001,0.001-0.001c-0.011,0.007-0.021,0.014-0.032,0.021
	c-0.009,0.003-0.018,0.007-0.027,0.01c-0.001-0.002-0.002-0.003-0.003-0.004c-0.011-0.029-0.015-0.058-0.02-0.088
	c-0.029-0.263-0.022-0.526-0.048-0.789c-0.026-0.28-0.027-0.562-0.045-0.844c-0.017-0.282-0.036-0.565-0.072-0.847
	c-0.02-0.152-0.04-0.305-0.065-0.456c0.023,0.016,0.046,0.03,0.068,0.046c0.096,0.065,0.195,0.128,0.287,0.198
	c0.081,0.062,0.161,0.124,0.241,0.186c0.135,0.111,0.27,0.223,0.405,0.334c0.134,0.11,0.259,0.233,0.389,0.349
	c0.101,0.091,0.197,0.183,0.294,0.278c0.127,0.124,0.261,0.243,0.383,0.373c0.482,0.515,0.961,1.033,1.45,1.542
	c0.051,0.052,0.102,0.104,0.152,0.156c0.082,0.085,0.16,0.174,0.243,0.258c0.111,0.111,0.242,0.196,0.374,0.279
	c0.146,0.092,0.338,0.111,0.501,0.066c0.11-0.031,0.206-0.087,0.287-0.168s0.137-0.177,0.168-0.287
	c0.024-0.061,0.039-0.126,0.046-0.191c0.095,0.135,0.195,0.269,0.285,0.407c0.108,0.168,0.217,0.336,0.326,0.505
	c0.377,0.583,0.701,1.199,1.026,1.812c0.086,0.163,0.169,0.326,0.252,0.49c0.157,0.313,0.304,0.641,0.497,0.935
	c0.091,0.139,0.184,0.282,0.305,0.396c0.114,0.107,0.219,0.161,0.363,0.216c0.088,0.034,0.188,0.053,0.282,0.041
	c0.12,0,0.232-0.03,0.337-0.091c0.055-0.038,0.106-0.079,0.155-0.123c0.101-0.089,0.148-0.22,0.194-0.341
	c0.041,0.077,0.081,0.154,0.12,0.232c0.121,0.243,0.238,0.488,0.355,0.733c0.098,0.205,0.181,0.418,0.269,0.628
	c-0.018-0.041-0.035-0.083-0.053-0.124c0.043,0.119,0.085,0.238,0.128,0.358c0.036,0.102,0.08,0.203,0.108,0.307
	c0.036,0.135,0.072,0.269,0.109,0.403c0.026,0.099,0.06,0.199,0.08,0.3c0.05,0.236,0.109,0.473,0.148,0.711
	c0.025,0.152,0.051,0.305,0.075,0.457c0.011,0.062,0.021,0.124,0.03,0.187c0.009,0.066,0.02,0.132,0.035,0.197
	c0.026,0.114,0.084,0.218,0.146,0.314c0.095,0.146,0.222,0.254,0.392,0.301c0.116,0.031,0.232,0.031,0.349,0
	c0.11-0.031,0.207-0.087,0.289-0.168c0.044-0.057,0.089-0.113,0.132-0.171c0.047-0.069,0.085-0.157,0.109-0.233
	c0.014-0.042,0.027-0.084,0.042-0.126c0.022-0.061,0.045-0.121,0.068-0.182c0.039-0.102,0.079-0.203,0.12-0.304
	c0.033-0.072,0.065-0.145,0.099-0.218c0.016-0.035,0.032-0.069,0.049-0.104c0.025,0.028,0.05,0.056,0.074,0.084
	c0.052,0.071,0.103,0.143,0.153,0.213c0.13,0.181,0.234,0.384,0.323,0.588c0.243,0.6,0.386,1.236,0.478,1.875
	c0.058,0.461,0.088,0.93,0.08,1.395c-0.003,0.184-0.005,0.368-0.007,0.552c-0.001,0.14,0.003,0.28-0.004,0.419
	c-0.008,0.199-0.017,0.397-0.024,0.596c-0.006,0.164-0.012,0.327-0.017,0.491c-0.005,0.146-0.023,0.295-0.034,0.441
	c-0.037,0.499-0.071,0.998-0.108,1.497c-0.001,0.02-0.002,0.039-0.004,0.059c0,0,0.002,0.001,0.002,0
	c0.146-0.493,0.286-0.987,0.421-1.484c0.042-0.152,0.083-0.306,0.123-0.458c0.04-0.147,0.065-0.301,0.097-0.45
	c0.042-0.201,0.084-0.402,0.125-0.604c0.026-0.129,0.042-0.26,0.062-0.39c0.029-0.189,0.058-0.379,0.085-0.568
	c0.069-0.473,0.102-0.949,0.085-1.426c-0.015-0.459-0.09-0.921-0.226-1.359c-0.074-0.24-0.176-0.47-0.273-0.7
	c-0.087-0.205-0.191-0.402-0.297-0.599c-0.107-0.196-0.227-0.386-0.338-0.58c-0.075-0.131-0.143-0.265-0.207-0.4
	c-0.021-0.054-0.045-0.107-0.068-0.16c-0.007-0.017-0.014-0.033-0.021-0.049c-0.032-0.071-0.074-0.126-0.128-0.187
	c-0.087-0.1-0.208-0.177-0.336-0.212c-0.105-0.028-0.211-0.028-0.316,0c-0.084,0.012-0.157,0.053-0.233,0.086
	c-0.138,0.061-0.236,0.193-0.323,0.309c-0.003-0.007-0.005-0.015-0.007-0.022c-0.062-0.202-0.126-0.404-0.188-0.606
	c-0.047-0.148-0.111-0.291-0.168-0.436c-0.07-0.179-0.142-0.356-0.222-0.531c-0.075-0.163-0.146-0.329-0.227-0.489
	c-0.086-0.17-0.172-0.34-0.258-0.51c-0.238-0.472-0.494-0.932-0.762-1.387c-0.035-0.06-0.069-0.12-0.104-0.18
	c-0.022-0.036-0.044-0.072-0.065-0.107c-0.047-0.079-0.093-0.143-0.152-0.219c-0.093-0.12-0.236-0.213-0.383-0.254
	c-0.198-0.055-0.41-0.007-0.582,0.098c-0.14,0.085-0.238,0.214-0.305,0.36c-0.025-0.047-0.05-0.093-0.075-0.139
	c-0.16-0.294-0.332-0.581-0.497-0.872c-0.081-0.141-0.172-0.276-0.257-0.414c-0.096-0.154-0.192-0.31-0.288-0.464
	c-0.024-0.041-0.055-0.079-0.082-0.118c-0.072-0.102-0.145-0.204-0.217-0.307c-0.082-0.116-0.162-0.236-0.248-0.35
	c-0.44-0.584-0.879-1.17-1.365-1.717c-0.227-0.255-0.455-0.507-0.695-0.749c-0.039-0.039-0.077-0.077-0.116-0.116
	c-0.018-0.018-0.033-0.035-0.051-0.054c-0.061-0.065-0.128-0.114-0.199-0.168c-0.168-0.125-0.395-0.181-0.6-0.124
	c-0.244,0.067-0.45,0.276-0.518,0.52c-0.027,0.099-0.031,0.197-0.019,0.295c-0.048-0.041-0.096-0.081-0.145-0.12
	c-0.155-0.121-0.31-0.243-0.465-0.363c-0.135-0.105-0.271-0.208-0.41-0.307c-0.137-0.097-0.272-0.198-0.414-0.288
	c-0.373-0.239-0.746-0.476-1.14-0.681c-0.24-0.125-0.479-0.257-0.731-0.36c-0.064-0.026-0.137-0.039-0.206-0.039
	C15.946,7.913,15.938,7.913,15.931,7.913"/>
<path opacity="0.9753" fill="#292521" d="M15.629,12.507c-0.008,0.003-0.016,0.007-0.023,0.01c0,0,0-0.001,0.001-0.001
	C15.613,12.513,15.621,12.509,15.629,12.507 M15.691,8.402c0.018,0.262,0.035,0.522,0.052,0.784
	c0.012,0.161,0.027,0.324,0.034,0.485c0.007,0.169,0.02,0.338,0.02,0.506c-0.001,0.189-0.002,0.377-0.008,0.565
	c-0.009,0.3-0.034,0.599-0.058,0.896c-0.04-0.023-0.082-0.042-0.128-0.055c-0.17-0.069-0.383-0.041-0.541,0.048
	c-0.229,0.129-0.387,0.334-0.531,0.548c-0.103,0.153-0.195,0.317-0.274,0.484c-0.072,0.152-0.146,0.305-0.214,0.46
	c-0.155,0.356-0.309,0.714-0.429,1.083c-0.108,0.334-0.203,0.672-0.291,1.013c-0.091,0.353-0.16,0.71-0.248,1.062
	c-0.022,0.088-0.045,0.175-0.068,0.263c-0.016,0.055-0.031,0.11-0.047,0.165c-0.067,0.229-0.077,0.485,0.047,0.698
	c0.131,0.224,0.411,0.393,0.674,0.357c0.032-0.004,0.062-0.007,0.092-0.011c-0.087,0.634-0.174,1.27-0.193,1.91
	c-0.021,0.689-0.023,1.379-0.025,2.068c-0.001,0.438-0.004,0.877-0.004,1.315c0,0.108-0.001,0.218,0.004,0.326
	c0.008,0.24,0.073,0.485,0.247,0.66c0.18,0.179,0.45,0.276,0.702,0.254c0.148-0.014,0.281-0.043,0.419-0.095
	c0.041,0.385,0.063,0.771,0.104,1.157c0.022,0.211,0.039,0.425,0.075,0.635c0.035,0.204,0.07,0.409,0.105,0.613
	c0.029,0.167,0.08,0.334,0.121,0.498c0.034,0.142,0.073,0.277,0.118,0.416c0.049,0.154,0.094,0.312,0.151,0.465
	c0.07,0.189,0.142,0.379,0.213,0.568c0.061,0.162,0.134,0.32,0.201,0.48c0.078,0.186,0.162,0.367,0.248,0.549
	c0.141,0.299,0.313,0.579,0.485,0.861c0.354,0.578,0.729,1.139,1.143,1.675c-0.033-0.044-0.067-0.087-0.101-0.131
	c0.076,0.1,0.148,0.204,0.232,0.297c0.037,0.039,0.072,0.077,0.113,0.112c0.062,0.055,0.136,0.108,0.206,0.154
	c0.087,0.057,0.19,0.089,0.285,0.128c0.147,0.062,0.329,0.074,0.483,0.094c0.09,0.012,0.18,0.02,0.271,0.027
	c0.335,0.026,0.671,0.041,1.006,0.053c0.329,0.011,0.659,0.009,0.988,0.009c0.046,0,0.092,0,0.138,0c0.273,0,0.546,0,0.818-0.011
	c0.185-0.007,0.37-0.015,0.555-0.025c0.351-0.019,0.698-0.067,1.041-0.148c0.329-0.078,0.656-0.164,0.979-0.265
	c0.664-0.207,1.334-0.398,1.981-0.656c0.346-0.138,0.686-0.286,1.014-0.464c0.103-0.056,0.204-0.112,0.303-0.174
	c0.217-0.134,0.418-0.293,0.608-0.46c0.349-0.305,0.596-0.714,0.723-1.157c0.083-0.292,0.109-0.599,0.144-0.899
	c0.018-0.155,0.029-0.312,0.04-0.468c0.023-0.322,0.026-0.646,0.05-0.967c0.031-0.433,0.079-0.863,0.117-1.295
	c0-0.001-0.001-0.001-0.002,0c-0.121,0.365-0.246,0.73-0.35,1.102c-0.062,0.221-0.116,0.443-0.17,0.667
	c-0.053,0.222-0.108,0.442-0.169,0.661c-0.085,0.308-0.169,0.617-0.286,0.914c-0.063,0.138-0.138,0.268-0.226,0.392
	c-0.096,0.116-0.202,0.221-0.318,0.316c-0.229,0.168-0.479,0.305-0.738,0.422c-0.13,0.052-0.261,0.104-0.394,0.152
	c-0.172,0.062-0.346,0.116-0.521,0.17c-0.312,0.097-0.629,0.178-0.947,0.254c-0.316,0.074-0.633,0.146-0.947,0.228
	c-0.329,0.086-0.658,0.174-0.991,0.247c-0.194,0.043-0.39,0.091-0.587,0.123c-0.353,0.038-0.713,0.044-1.067,0.043
	c-0.349-0.002-0.698-0.009-1.047-0.017c-0.622-0.013-1.243-0.055-1.863-0.112c-0.085-0.014-0.168-0.031-0.251-0.057
	c-0.021-0.011-0.041-0.023-0.061-0.036c-0.212-0.184-0.393-0.396-0.567-0.614c-0.226-0.31-0.44-0.625-0.645-0.948
	c-0.123-0.194-0.237-0.39-0.35-0.59c-0.089-0.156-0.158-0.323-0.232-0.486c-0.085-0.209-0.169-0.418-0.244-0.631
	c-0.053-0.149-0.104-0.299-0.157-0.447c-0.046-0.131-0.078-0.269-0.117-0.401c-0.03-0.103-0.063-0.204-0.086-0.309
	c-0.037-0.177-0.074-0.354-0.112-0.53c-0.047-0.224-0.071-0.452-0.102-0.68c0.004,0.025,0.007,0.051,0.011,0.076
	c-0.024-0.354-0.048-0.71-0.065-1.065c-0.02-0.372-0.04-0.741-0.096-1.11c-0.051-0.332-0.22-0.676-0.527-0.837
	c-0.2-0.104-0.434-0.123-0.646-0.046c-0.064,0.023-0.128,0.052-0.19,0.08c-0.004-0.159-0.003-0.319-0.004-0.479
	c-0.001-0.347,0.001-0.693,0.002-1.04c0.003-0.678,0.017-1.354,0.063-2.03c0.008-0.1,0.021-0.198,0.032-0.297
	c0.053-0.34,0.109-0.679,0.169-1.018c0.037-0.212,0.076-0.424,0.091-0.639c0.011-0.157-0.008-0.32-0.05-0.472
	c-0.023-0.083-0.062-0.163-0.105-0.238c-0.077-0.133-0.178-0.202-0.298-0.293c-0.011-0.005-0.021-0.011-0.032-0.016
	c-0.097-0.057-0.2-0.087-0.311-0.092c0.01-0.049,0.02-0.098,0.029-0.146c0.065-0.318,0.144-0.635,0.224-0.949
	c0.086-0.333,0.175-0.663,0.284-0.988c0.112-0.333,0.237-0.659,0.365-0.985c0.001-0.003,0.002-0.006,0.004-0.008
	c0.047-0.108,0.097-0.217,0.152-0.321c0.011,0.014,0.022,0.028,0.034,0.042c0.039,0.048,0.076,0.097,0.115,0.144
	c0.026,0.031,0.052,0.062,0.078,0.095c0.062,0.075,0.137,0.132,0.218,0.187c0.128,0.087,0.314,0.076,0.443,0
	c0.125-0.072,0.231-0.229,0.218-0.38c-0.006-0.077-0.016-0.149-0.041-0.223c-0.009-0.026-0.016-0.057-0.021-0.085
	c-0.012-0.052-0.021-0.104-0.03-0.156c-0.034-0.282-0.054-0.565-0.079-0.848c-0.03-0.332-0.064-0.664-0.113-0.994
	c-0.108-0.738-0.346-1.453-0.565-2.165H15.691C15.691,8.402,15.691,8.402,15.691,8.402"/>
<path opacity="0.9753" fill="#292521" d="M17.922,16.673L17.922,16.673L17.922,16.673 M17.89,16.607
	c0.003,0.039,0.023,0.076,0.037,0.111c0,0.001,0.001,0.001,0.001,0c-0.002-0.017-0.004-0.029-0.006-0.047l0,0v-0.001l0,0l0,0
	c0-0.001-0.001-0.002-0.001-0.002c0.072,0.123,0.157,0.237,0.243,0.352c0.105,0.141,0.21,0.282,0.315,0.424
	c0.196,0.265,0.387,0.533,0.574,0.805c0.379,0.549,0.741,1.108,1.121,1.656c0.763,1.096,1.538,2.182,2.322,3.262
	c0.195,0.269,0.4,0.532,0.586,0.808c0.132,0.195,0.264,0.389,0.396,0.582c0.063,0.092,0.129,0.182,0.188,0.275
	c0.116,0.186,0.231,0.371,0.348,0.557c0.077,0.123,0.158,0.244,0.231,0.369c0.18,0.309,0.36,0.616,0.54,0.925
	c0.172,0.294,0.328,0.598,0.492,0.896c0.171,0.311,0.349,0.618,0.526,0.925c0.179,0.311,0.37,0.616,0.558,0.922
	c0.186,0.3,0.357,0.609,0.537,0.912c0.294,0.494,0.59,0.988,0.863,1.493c0.104,0.191,0.209,0.382,0.313,0.572
	c0.041,0.073,0.079,0.145,0.114,0.221c0.145,0.316,0.291,0.632,0.439,0.946c0.099,0.246,0.197,0.492,0.298,0.737
	c0.074,0.183,0.152,0.362,0.216,0.549c0.244,0.729,0.494,1.457,0.736,2.187c0.001,0.001,0.002,0.001,0.002,0
	c-0.067-0.506-0.141-1.009-0.223-1.512c-0.038-0.234-0.076-0.468-0.115-0.702c-0.015-0.086-0.026-0.173-0.047-0.258
	c-0.096-0.395-0.193-0.789-0.293-1.183c-0.027-0.108-0.065-0.214-0.1-0.32c-0.072-0.225-0.145-0.449-0.218-0.674
	c-0.11-0.337-0.264-0.659-0.402-0.985c-0.049-0.115-0.095-0.232-0.149-0.346c-0.083-0.173-0.168-0.345-0.253-0.517
	c-0.288-0.587-0.581-1.173-0.906-1.74c-0.344-0.599-0.701-1.19-1.037-1.794c-0.165-0.297-0.324-0.598-0.496-0.891
	c-0.177-0.302-0.346-0.609-0.531-0.905c-0.196-0.314-0.393-0.629-0.589-0.942c-0.086-0.137-0.187-0.267-0.28-0.397
	c-0.118-0.167-0.237-0.333-0.356-0.499c-0.089-0.123-0.188-0.24-0.281-0.358c-0.147-0.185-0.295-0.368-0.443-0.551
	c-0.209-0.257-0.42-0.511-0.632-0.765c-0.857-1.029-1.749-2.03-2.631-3.038c-0.321-0.367-0.644-0.73-0.983-1.079
	c-0.154-0.159-0.311-0.317-0.471-0.471c-0.178-0.171-0.37-0.331-0.531-0.518c-0.003-0.003-0.006-0.004-0.01-0.004
	C17.896,16.594,17.889,16.6,17.89,16.607"/>
<path opacity="0.9753" fill="#292521" d="M26.087,21.033c0.038,0.405,0.106,0.808,0.139,1.213c0.013,0.164,0.038,0.329,0.041,0.494
	c0.003,0.169,0.018,0.341,0.013,0.51c-0.005,0.188-0.009,0.376-0.011,0.563c-0.002,0.181-0.019,0.363-0.025,0.544
	c-0.004,0.125-0.011,0.249-0.018,0.374c-0.018,0.334-0.017,0.669-0.022,1.004c-0.01,0.438,0.002,0.877-0.002,1.314
	c-0.006,0.646,0.013,1.292,0.042,1.936c0,0.001,0.001,0.001,0.001,0.001c0.139-0.48,0.263-0.961,0.37-1.448
	c0.064-0.291,0.13-0.581,0.171-0.876c0.034-0.255,0.066-0.509,0.094-0.765c0.015-0.134,0.032-0.27,0.039-0.405
	c0.017-0.334,0.033-0.674,0.015-1.008c-0.014-0.229-0.022-0.46-0.051-0.687c-0.029-0.234-0.053-0.473-0.1-0.704
	c-0.028-0.138-0.058-0.274-0.088-0.411c-0.021-0.095-0.054-0.188-0.082-0.281C26.469,21.933,26.279,21.483,26.087,21.033
	C26.088,21.032,26.088,21.032,26.087,21.033C26.087,21.032,26.087,21.032,26.087,21.033"/>
<path opacity="0.9753" fill="#292521" d="M21.877,16.459c0.087,0.322,0.188,0.639,0.28,0.96c0.092,0.322,0.163,0.65,0.211,0.983
	c0.057,0.44,0.08,0.886,0.103,1.329c0.024,0.477,0.036,0.954,0.039,1.432c0.006,0.979-0.06,1.957-0.062,2.937
	c0,0.001,0.001,0.001,0.002,0c0.222-0.624,0.431-1.258,0.58-1.904c0.078-0.34,0.126-0.687,0.161-1.032
	c0.033-0.338,0.05-0.684,0.029-1.022c-0.021-0.343-0.079-0.685-0.147-1.021c-0.064-0.319-0.151-0.635-0.263-0.941
	C22.584,17.56,22.224,17.015,21.877,16.459C21.878,16.458,21.878,16.458,21.877,16.459L21.877,16.459"/>
<path opacity="0.9753" fill="#292521" d="M18.29,14.068c-0.006,0.315,0,0.631,0.012,0.946c0.013,0.335,0.02,0.675,0.053,1.01
	c0.032,0.324,0.057,0.647,0.098,0.971c0.04,0.325,0.09,0.649,0.15,0.972c0,0.001,0.001,0.001,0.001,0
	c0.12-0.638,0.206-1.293,0.166-1.942c-0.021-0.335-0.099-0.666-0.185-0.989c-0.086-0.325-0.191-0.646-0.293-0.967
	C18.292,14.067,18.291,14.067,18.29,14.068C18.291,14.067,18.29,14.067,18.29,14.068"/>
<path opacity="0.9753" fill="#292521" d="M15.483,15.628c0.384,0.353,0.785,0.686,1.165,1.041c0.191,0.18,0.385,0.355,0.58,0.529
	c0.101,0.09,0.201,0.178,0.301,0.269c0.212,0.193,0.424,0.394,0.652,0.566c0.138,0.111,0.277,0.221,0.417,0.328
	c0.783,0.639,1.605,1.229,2.447,1.789l0.001-0.001c-0.603-0.745-1.245-1.453-1.934-2.118c-0.194-0.188-0.402-0.362-0.613-0.531
	c-0.264-0.21-0.53-0.421-0.811-0.608c-0.251-0.169-0.506-0.332-0.763-0.493C16.466,16.11,15.97,15.874,15.483,15.628L15.483,15.628
	C15.483,15.627,15.483,15.628,15.483,15.628"/>
<path opacity="0.9753" fill="#292521" d="M18.498,21.294c0.375,0.285,0.752,0.566,1.124,0.854c0.452,0.35,0.892,0.713,1.337,1.07
	c0.229,0.184,0.457,0.367,0.687,0.549c0.224,0.179,0.452,0.349,0.68,0.521c0.453,0.364,0.918,0.715,1.392,1.053
	c0.259,0.185,0.521,0.366,0.786,0.544c0.354,0.237,0.706,0.479,1.064,0.71c0.001,0.001,0.002,0,0.001-0.001
	c-0.283-0.335-0.568-0.669-0.87-0.988c-0.238-0.252-0.48-0.5-0.726-0.745c-0.277-0.274-0.559-0.545-0.846-0.809
	c-0.089-0.082-0.179-0.162-0.268-0.242c-0.122-0.109-0.252-0.208-0.381-0.308c-0.137-0.124-0.295-0.228-0.445-0.334
	c-0.16-0.112-0.323-0.221-0.488-0.326c-0.312-0.201-0.631-0.396-0.961-0.566c-0.683-0.353-1.393-0.649-2.085-0.983l0,0
	C18.498,21.292,18.498,21.293,18.498,21.294"/>
<path opacity="0.9753" fill="#292521" d="M19.278,24.88c0.551,0.399,1.106,0.792,1.653,1.197c0.271,0.2,0.54,0.405,0.814,0.602
	c0.27,0.193,0.542,0.385,0.814,0.574c0.035,0.017,0.068,0.037,0.1,0.061c0.033,0.021,0.065,0.044,0.098,0.065
	c0.064,0.044,0.129,0.087,0.193,0.131c0.145,0.098,0.29,0.196,0.435,0.295c0.275,0.188,0.547,0.38,0.819,0.571
	c0.55,0.388,1.107,0.767,1.674,1.13c0.001,0.001,0.002-0.001,0.001-0.001c-0.42-0.516-0.857-1.015-1.321-1.492
	c-0.481-0.494-1.004-0.942-1.572-1.334c-0.113-0.087-0.235-0.162-0.357-0.237c-0.133-0.082-0.268-0.16-0.403-0.236
	c-0.274-0.156-0.553-0.3-0.839-0.432c-0.588-0.27-1.189-0.506-1.785-0.757c0.003,0.001,0.007,0.003,0.01,0.004
	C19.5,24.974,19.39,24.927,19.278,24.88L19.278,24.88C19.278,24.879,19.277,24.88,19.278,24.88"/>
</svg>
