<?xml version="1.0" encoding="utf-8"?>
<!-- Generator: Adobe Illustrator 16.0.4, SVG Export Plug-In . SVG Version: 6.00 Build 0)  -->
<!DOCTYPE svg PUBLIC "-//W3C//DTD SVG 1.1//EN" "http://www.w3.org/Graphics/SVG/1.1/DTD/svg11.dtd">
<svg version="1.1" id="Layer_1" xmlns="http://www.w3.org/2000/svg" xmlns:xlink="http://www.w3.org/1999/xlink" x="0px" y="0px"
	 width="44px" height="44px" viewBox="0 0 44 44" enable-background="new 0 0 44 44" xml:space="preserve">
<g id="Capa_2_1_">
</g>
<g id="Capa_1">
</g>
<g id="Capa_3">
	<path fill="#FFFFFF" d="M27.279,31.854c0.353-0.01,0.705-0.018,1.057-0.033c0.544-0.025,1.109-0.034,1.643-0.115
		c0.972-0.148,1.543-0.807,1.282-1.387c-0.127-0.282-0.435-0.527-0.845-0.676c-0.145-0.052-0.29-0.088-0.439-0.11
		c0,0,0.002-0.001,0.002-0.003c-0.658-0.1-1.367-0.107-2.043-0.129c-0.519-0.017-1.037-0.031-1.556-0.041
		c-1.235-0.022-2.476-0.028-3.712-0.018c-2.165,0.02-4.328,0.133-6.488,0.213c-0.215,0.008-0.43,0.016-0.645,0.02
		c-0.042-0.002-0.084-0.004-0.126-0.008c-0.39-0.02-0.779-0.033-1.17-0.028c-0.355-0.019-0.741,0.045-1.03,0.149
		c-0.393,0.142-0.686,0.375-0.807,0.644c-0.004,0.01-0.008,0.019-0.012,0.028c0,0,0,0.002-0.001,0.002
		c-0.001,0.004-0.002,0.007-0.003,0.01c-0.001,0.004-0.002,0.007-0.003,0.01c0,0.001-0.001,0.002-0.001,0.003
		c-0.012,0.034-0.022,0.069-0.029,0.105l0,0c0,0.005-0.001,0.008-0.002,0.013c0,0,0,0.001,0,0.002c0,0.003-0.001,0.008-0.001,0.012
		c0,0,0,0,0,0.002c-0.001,0.004-0.001,0.006-0.001,0.01c0,0,0,0.002,0,0.005s0,0.005-0.001,0.009c0,0.001,0,0.003-0.001,0.005
		c0,0.003,0,0.006-0.001,0.009c0,0.002,0,0.004,0,0.004c0,0.004,0,0.008,0,0.012v0.002c0,0.005,0,0.009-0.001,0.013l0,0
		c0,0.013-0.001,0.022-0.001,0.034c0,0.061,0.009,0.119,0.024,0.177c0,0.002,0.001,0.005,0.001,0.006c0,0.003,0,0.003,0.001,0.005
		c0.036,0.125,0.107,0.246,0.212,0.356c0.066,0.069,0.143,0.132,0.228,0.188c0.016,0.01,0.031,0.021,0.047,0.029
		c0.347,0.213,0.901,0.354,1.409,0.318c0.434,0.004,0.866-0.016,1.298-0.038c0.587,0.012,1.175,0.039,1.76,0.063
		c1.079,0.047,2.157,0.09,3.237,0.123c1.173,0.034,2.348,0.053,3.521,0.053C25.146,31.898,26.214,31.884,27.279,31.854"/>
	<path fill="#FFFFFF" d="M15.995,23.619c0.316-0.012,0.634-0.021,0.95-0.038c0.593-0.031,1.185-0.062,1.775-0.099
		c0.987-0.06,1.973-0.121,2.958-0.19c0.112-0.002,0.224-0.005,0.336-0.008c1.038-0.026,2.077-0.032,3.115-0.054
		c0.469-0.008,0.938-0.02,1.406-0.03c0.729-0.017,1.467-0.06,2.197-0.062c0.123,0.004,0.248,0.006,0.371,0.004
		c0.818-0.008,1.551-0.297,1.771-0.73c0.021-0.042,0.036-0.085,0.048-0.128c0.014-0.007,0.027-0.014,0.041-0.021
		c0.002-0.001,0-0.004-0.003-0.003c-0.011,0.003-0.022,0.005-0.034,0.007c0.047-0.214-0.035-0.435-0.238-0.623
		c-0.258-0.241-0.631-0.36-1.096-0.457c-0.455-0.095-0.941-0.113-1.425-0.141c-0.209-0.012-0.417-0.022-0.625-0.031
		c-0.431-0.018-0.858-0.034-1.289-0.049c-0.657-0.023-1.315-0.029-1.974-0.036c-0.639-0.008-1.276,0.004-1.915,0.015
		c-0.207,0.003-0.411,0.008-0.617,0.015c-0.511,0.018-1.045,0.023-1.552,0.071c-1.574,0.085-3.131,0.247-4.691,0.384
		c-0.277,0.016-0.555,0.028-0.836,0.033c-0.89,0.014-1.683,0.32-1.923,0.794c-0.142,0.279-0.069,0.584,0.201,0.834
		c0.275,0.257,0.688,0.4,1.192,0.497c0.298,0.058,0.612,0.075,0.929,0.075C15.377,23.648,15.69,23.632,15.995,23.619"/>
	<path fill="#FFFFFF" d="M15.709,15.37c0.144-0.009,0.288-0.019,0.432-0.028C15.997,15.351,15.854,15.36,15.709,15.37
		 M18.259,15.437c1.8-0.01,3.602-0.067,5.398-0.127c0.485-0.016,0.972-0.033,1.459-0.05c1.272-0.021,2.546-0.049,3.817-0.084
		c0.604-0.017,1.145-0.105,1.58-0.317c0.418-0.202,0.653-0.479,0.653-0.766c0-0.538-0.91-1.054-2.041-1.083
		c-0.298-0.097-0.653-0.151-1.022-0.153c0-0.001,0-0.003,0-0.005c-1.627-0.004-3.256,0.002-4.886,0.008
		c-1.651-0.054-3.305-0.103-4.958-0.111c-0.461-0.021-0.929-0.018-1.389-0.01c-0.593,0.01-1.161,0.024-1.742,0.064
		c-0.032,0.002-0.065,0.004-0.098,0.007c-0.097,0.007-0.195,0.015-0.293,0.023c0.001,0.002,0.003,0.005,0.004,0.007
		c-0.883,0.118-1.625,0.445-1.886,0.906c-0.192,0.337-0.093,0.706,0.271,1.007c0.058,0.048,3.019,0.682,3.744,0.694
		c0.203,0.003,0.407,0.005,0.611,0.005C17.742,15.452,18.001,15.448,18.259,15.437"/>
</g>
</svg>
