<?xml version="1.0" encoding="utf-8"?>
<!-- Generator: Adobe Illustrator 15.0.0, SVG Export Plug-In . SVG Version: 6.00 Build 0)  -->
<!DOCTYPE svg PUBLIC "-//W3C//DTD SVG 1.1//EN" "http://www.w3.org/Graphics/SVG/1.1/DTD/svg11.dtd">
<svg version="1.1" xmlns="http://www.w3.org/2000/svg" xmlns:xlink="http://www.w3.org/1999/xlink" x="0px" y="0px" width="28px"
	 height="44px" viewBox="-4.401 -12.167 28 44" enable-background="new -4.401 -12.167 28 44" xml:space="preserve">
<g id="Layer_1">
	<g id="Capa_2_1_">
	</g>
	<g id="Capa_1">
	</g>
	<path fill="#FFFFFF" d="M1.534,2.635C1.031,2.738,0.53,2.847,0.029,2.96c-0.002,0.001-0.002,0.004,0,0.004
		c1.797,0.297,3.604,0.522,5.42,0.686C6.938,3.783,8.428,3.9,9.924,3.935c3.056,0.069,6.13-0.306,9.114-0.96
		c0.251-0.056,0.504-0.107,0.751-0.179c0.469-0.138,0.925-0.323,1.384-0.493c0.001,0,0.001-0.003-0.002-0.003
		c-0.527-0.02-1.058-0.016-1.587-0.042c-0.237-0.012-0.476-0.048-0.712-0.071c-0.388-0.037-0.778-0.069-1.167-0.103
		c-0.731-0.065-1.461-0.135-2.193-0.18c-1.515-0.092-3.026-0.219-4.544-0.247c-0.199-0.003-0.398-0.005-0.597-0.005
		C7.401,1.651,4.435,2.045,1.534,2.635"/>
	<path fill="#FFFFFF" d="M9.451,8.75C7.965,8.881,6.483,9.049,4.997,9.187c-1.8,0.169-3.597,0.396-5.382,0.69
		c-0.001,0-0.001,0.003,0,0.003c1.801,0.409,3.614,0.749,5.446,0.979c1.513,0.19,3.047,0.229,4.571,0.182
		c1.376-0.044,2.748-0.157,4.12-0.272c1.43-0.121,2.856-0.282,4.277-0.471c-0.004,0.001-0.007,0.001-0.01,0.001
		c0.046-0.006,0.094-0.013,0.141-0.019c0.005,0,0.01-0.001,0.014-0.001c-0.001,0-0.003,0-0.004,0
		c0.746-0.102,1.49-0.224,2.234-0.337c0.393-0.036,0.786-0.039,1.179-0.061c0.002,0,0.002-0.003,0-0.003
		c-0.455-0.162-0.903-0.345-1.381-0.426c-0.185-0.033-0.369-0.064-0.555-0.093c-0.408-0.064-0.82-0.121-1.23-0.175
		c0.047,0.006,0.094,0.013,0.141,0.019c-2.231-0.303-4.489-0.553-6.745-0.553C11.025,8.649,10.237,8.679,9.451,8.75"/>
	<path fill="#FFFFFF" d="M6.46,15.616c-1.547,0.118-3.096,0.23-4.638,0.402c-0.57,0.063-1.14,0.134-1.71,0.21
		c-0.002,0-0.003,0.004,0,0.004c1.704,0.447,3.423,0.841,5.167,1.091c1.519,0.219,3.059,0.319,4.591,0.354
		c1.536,0.036,3.077-0.06,4.605-0.19c0.771-0.063,1.534-0.156,2.295-0.289c0.736-0.127,1.457-0.299,2.184-0.466
		c0.711-0.164,1.425-0.324,2.133-0.5c0.003,0,0.003-0.004,0-0.004c-1.08-0.163-2.154-0.283-3.245-0.349
		c-0.776-0.048-1.556-0.099-2.329-0.157c-1.514-0.111-3.017-0.253-4.53-0.283c-0.195-0.003-0.393-0.006-0.588-0.006
		C9.082,15.433,7.768,15.516,6.46,15.616"/>
</g>
<g id="Capa_2">
</g>
</svg>
