<?xml version="1.0" encoding="utf-8"?>
<!-- Generator: Adobe Illustrator 15.0.0, SVG Export Plug-In . SVG Version: 6.00 Build 0)  -->
<!DOCTYPE svg PUBLIC "-//W3C//DTD SVG 1.1//EN" "http://www.w3.org/Graphics/SVG/1.1/DTD/svg11.dtd">
<svg version="1.1" xmlns="http://www.w3.org/2000/svg" xmlns:xlink="http://www.w3.org/1999/xlink" x="0px" y="0px" width="44px"
	 height="44px" viewBox="0 0 44 44" enable-background="new 0 0 44 44" xml:space="preserve">
<g id="Capa_2_1_">
</g>
<g id="Capa_1">
</g>
<g id="Capa_3">
	<path opacity="0.9753" fill="#FFFFFF" d="M27.178,21.966c-0.002-0.001-0.002-0.003-0.004-0.005
		C27.176,21.963,27.176,21.965,27.178,21.966L27.178,21.966 M27.083,21.842c-0.009-0.011-0.018-0.021-0.025-0.031
		c0.001,0,0.002,0.002,0.002,0.002C27.068,21.825,27.075,21.832,27.083,21.842 M27.279,22.1c-0.007-0.011-0.014-0.02-0.021-0.027
		l0,0C27.267,22.081,27.272,22.089,27.279,22.1 M22.075,29.841c0.137-0.007,0.272-0.02,0.409-0.032
		c0.352-0.031,0.682-0.159,1.016-0.262c0.002,0,0.002-0.002,0-0.002c-0.317,0.025-0.632,0.075-0.951,0.055
		c-0.111-0.007-0.223-0.019-0.333-0.033c-0.117-0.018-0.232-0.032-0.35-0.049c-0.208-0.033-0.413-0.069-0.62-0.112
		c-0.263-0.058-0.523-0.14-0.772-0.24c-0.283-0.126-0.546-0.283-0.798-0.465c-0.09-0.067-0.179-0.132-0.268-0.199
		c-0.228-0.187-0.432-0.4-0.614-0.629c-0.15-0.201-0.271-0.415-0.387-0.638c-0.054-0.104-0.1-0.21-0.146-0.317
		c-0.179-0.452-0.359-0.909-0.439-1.394c-0.03-0.286-0.015-0.583,0.007-0.873c0.01-0.108,0.016-0.218,0.023-0.327
		c0.006-0.066,0.014-0.131,0.023-0.196c-0.002,0.013-0.003,0.024-0.005,0.04c0.038-0.21,0.08-0.418,0.127-0.624
		c0.051-0.215,0.127-0.427,0.196-0.635c0.091-0.211,0.186-0.419,0.298-0.62c0.197-0.356,0.393-0.724,0.635-1.054
		c0.13-0.16,0.273-0.304,0.432-0.436c0.238-0.172,0.496-0.303,0.755-0.439c0.127-0.068,0.26-0.121,0.393-0.179
		c0.127-0.05,0.254-0.101,0.381-0.15c0.293-0.116,0.604-0.199,0.914-0.249c0.34-0.037,0.679-0.032,1.021-0.016
		c0.153,0.009,0.304,0.026,0.456,0.041c0.106,0.02,0.212,0.038,0.318,0.057c0.063,0.014,0.125,0.032,0.188,0.048
		c0.062,0.017,0.128,0.027,0.189,0.048c0.128,0.039,0.261,0.073,0.385,0.124c0.095,0.038,0.189,0.075,0.284,0.114
		c0.48,0.226,0.96,0.452,1.389,0.766c0.202,0.164,0.384,0.348,0.56,0.539c0.092,0.101,0.183,0.202,0.266,0.309
		c0.039,0.049,0.078,0.101,0.116,0.151c-0.001,0-0.002-0.003-0.002-0.003c0.002,0.003,0.004,0.005,0.006,0.008l0,0
		c0.002,0.002,0.003,0.006,0.005,0.006c0.003,0.005,0.007,0.01,0.011,0.014c-0.006-0.007-0.011-0.013-0.016-0.02
		c0.012,0.016,0.022,0.029,0.035,0.047c0.079,0.108,0.158,0.218,0.237,0.327c0.169,0.238,0.345,0.474,0.47,0.739
		c0.048,0.128,0.085,0.256,0.11,0.39c0.026,0.28,0.015,0.566,0.004,0.846c-0.009,0.249-0.019,0.495-0.047,0.737
		c-0.05,0.33-0.132,0.647-0.255,0.956c-0.162,0.369-0.368,0.709-0.61,1.032c-0.334,0.421-0.716,0.812-1.137,1.148
		c-0.369,0.281-0.767,0.526-1.191,0.711c-0.355,0.14-0.731,0.214-1.109,0.264c-0.341,0.047-0.682,0.087-1.023,0.13
		c-0.001,0-0.001,0.002,0,0.002c0.46,0.043,0.923,0.093,1.385,0.102c0.222,0.002,0.447-0.009,0.668-0.043
		c0.227-0.033,0.447-0.096,0.665-0.169c0.869-0.294,1.64-0.832,2.285-1.479c0.323-0.325,0.61-0.692,0.841-1.088
		c0.243-0.417,0.413-0.876,0.51-1.351c0.063-0.312,0.092-0.634,0.118-0.953c0.028-0.359,0.041-0.716-0.01-1.073
		c-0.062-0.446-0.261-0.866-0.517-1.23c-0.091-0.128-0.18-0.256-0.271-0.384c-0.062-0.089-0.125-0.178-0.188-0.265
		c-0.019-0.028-0.037-0.055-0.059-0.08c-0.135-0.183-0.273-0.361-0.423-0.53c-0.178-0.199-0.354-0.396-0.558-0.572
		c-0.232-0.201-0.484-0.368-0.743-0.534c-0.116-0.075-0.243-0.133-0.364-0.196c-0.151-0.076-0.306-0.153-0.46-0.225
		c-0.189-0.089-0.384-0.165-0.579-0.242c-0.149-0.058-0.304-0.103-0.458-0.151c-0.059-0.016-0.12-0.029-0.182-0.043
		c-0.075-0.017-0.15-0.037-0.228-0.051c-0.199-0.036-0.397-0.072-0.599-0.093c-0.168-0.015-0.334-0.032-0.502-0.039
		c-0.309-0.015-0.615-0.017-0.923,0.012c-0.436,0.045-0.873,0.142-1.277,0.308c-0.192,0.076-0.389,0.148-0.578,0.233
		c-0.076,0.036-0.152,0.069-0.229,0.105c-0.068,0.031-0.14,0.059-0.206,0.094c-0.152,0.082-0.308,0.16-0.456,0.247
		c-0.401,0.235-0.762,0.527-1.052,0.892c-0.148,0.187-0.283,0.382-0.407,0.585c-0.054,0.091-0.106,0.183-0.16,0.273
		c-0.153,0.261-0.313,0.521-0.436,0.801c-0.081,0.191-0.167,0.38-0.234,0.575c-0.058,0.163-0.105,0.328-0.154,0.491
		c-0.074,0.258-0.124,0.527-0.16,0.791c0.008-0.049,0.015-0.102,0.021-0.154c-0.027,0.201-0.059,0.403-0.073,0.606
		c-0.014,0.174-0.022,0.346-0.027,0.521c-0.015,0.412,0.048,0.82,0.177,1.214c0.062,0.189,0.139,0.381,0.222,0.562
		c0.072,0.162,0.146,0.321,0.226,0.479c0.07,0.144,0.148,0.285,0.227,0.425c0.036,0.063,0.081,0.126,0.123,0.187
		c0.088,0.14,0.187,0.269,0.287,0.398c0.146,0.187,0.323,0.355,0.503,0.512c0.219,0.19,0.456,0.351,0.711,0.491
		c0.277,0.153,0.562,0.295,0.865,0.398c0.399,0.136,0.834,0.192,1.256,0.205c0.074,0.002,0.148,0.005,0.222,0.005
		C21.666,29.862,21.87,29.854,22.075,29.841"/>
	<path opacity="0.9753" fill="#FFFFFF" d="M26.459,28.561c0.253,0.125,0.511,0.242,0.759,0.377c0.178,0.096,0.342,0.199,0.507,0.313
		c0.086,0.073,0.17,0.144,0.25,0.222c0.101,0.094,0.191,0.198,0.275,0.306c0.188,0.257,0.323,0.542,0.452,0.828
		c0.101,0.283,0.191,0.566,0.253,0.859c0.057,0.278,0.1,0.555,0.143,0.832c0.011,0.098,0.024,0.196,0.025,0.295
		c0.004,0.146,0.006,0.288,0.001,0.434c-0.008,0.211-0.029,0.421-0.056,0.631c-0.015,0.102-0.031,0.199-0.054,0.296
		c-0.258,0.018-0.517,0.014-0.773,0.022c-0.311,0.012-0.619,0.036-0.929,0.043c-0.633,0.017-1.268,0.015-1.901,0.017
		c-1.263,0.009-2.527,0.038-3.788-0.036c-1.289-0.074-2.579-0.134-3.867-0.213c-0.988-0.06-1.974-0.14-2.957-0.247
		c-0.101-0.014-0.199-0.025-0.297-0.048c-0.173-0.032-0.348-0.064-0.517-0.114c0.002-0.021,0.003-0.044,0.005-0.064
		c0.021-0.116,0.047-0.232,0.082-0.343c0.03-0.094,0.065-0.186,0.103-0.279c0.114-0.244,0.244-0.476,0.391-0.703
		c0.149-0.227,0.304-0.45,0.463-0.672c0.107-0.133,0.214-0.266,0.325-0.396c0.056-0.065,0.111-0.128,0.17-0.191
		c0.068-0.073,0.133-0.149,0.206-0.22c0.162-0.153,0.325-0.307,0.488-0.462c0.188-0.18,0.383-0.358,0.586-0.521
		c0.125-0.093,0.253-0.171,0.395-0.237c0.462-0.185,0.964-0.253,1.453-0.324c-0.018,0.002-0.036,0.004-0.052,0.005
		c0.096-0.012,0.194-0.023,0.292-0.039c0.215-0.017,0.43-0.028,0.646-0.028c0.308,0,0.616-0.002,0.924-0.004
		c0.001,0,0.001-0.003,0-0.003c-0.388-0.091-0.776-0.18-1.167-0.255c-0.319-0.058-0.643-0.066-0.966-0.076
		c-0.313-0.011-0.624,0.007-0.936,0.041c-0.189,0.021-0.377,0.058-0.559,0.114c-0.214,0.066-0.416,0.181-0.604,0.302
		c-0.163,0.104-0.324,0.213-0.478,0.329c-0.285,0.211-0.573,0.421-0.839,0.654c-0.237,0.21-0.455,0.432-0.669,0.662
		c-0.241,0.261-0.452,0.55-0.666,0.832c-0.191,0.25-0.353,0.517-0.498,0.796c-0.157,0.302-0.279,0.629-0.341,0.962
		c-0.015,0.08-0.024,0.161-0.033,0.241c-0.007,0.055-0.016,0.111-0.01,0.168c0.016,0.167,0.03,0.209,0.099,0.362
		c0.033,0.072,0.084,0.132,0.136,0.193c0.093,0.108,0.218,0.194,0.348,0.252c0.192,0.085,0.391,0.146,0.601,0.178
		c0.102,0.017,0.204,0.032,0.305,0.048c0.343,0.054,0.689,0.078,1.036,0.102c0.311,0.021,0.624,0.041,0.935,0.055
		c0.631,0.029,1.262,0.06,1.893,0.089c0.67,0.032,1.341,0.057,2.011,0.091c0.308,0.017,0.616,0.025,0.923,0.039
		c0.304,0.014,0.607,0.03,0.91,0.041c0.643,0.02,1.286,0.026,1.929,0.032c0.656,0.007,1.313,0.015,1.973,0.021
		c0.299,0.001,0.597,0.001,0.896,0.003c0.32,0.005,0.641,0.011,0.959,0.007c0.299-0.007,0.597-0.017,0.894-0.017
		c0.034,0,0.067,0,0.1,0c0.118,0,0.233,0,0.351-0.007c0.122-0.007,0.242-0.022,0.361-0.039c0.043-0.007,0.085-0.02,0.124-0.031
		c0.159-0.051,0.265-0.117,0.39-0.229c0.116-0.099,0.175-0.252,0.228-0.394c0.017-0.041,0.023-0.089,0.031-0.135
		c0.013-0.08,0.022-0.162,0.032-0.242c0.011-0.107,0.011-0.217,0.013-0.324c0.005-0.142,0-0.282-0.007-0.424
		c-0.018-0.349-0.049-0.696-0.131-1.033c-0.078-0.319-0.185-0.628-0.288-0.938c-0.104-0.305-0.235-0.604-0.392-0.888
		c-0.163-0.301-0.365-0.58-0.592-0.834c-0.164-0.186-0.366-0.35-0.575-0.484c-0.137-0.087-0.278-0.16-0.426-0.227
		c-0.412-0.185-0.863-0.272-1.302-0.373C26.458,28.558,26.458,28.561,26.459,28.561"/>
	<path opacity="0.9753" fill="#FFFFFF" d="M28.052,12.723c-0.001,0.003-0.002,0.004-0.003,0.007
		C28.05,12.727,28.051,12.726,28.052,12.723L28.052,12.723 M25.391,8.879c-0.194,0.028-0.387,0.069-0.575,0.122
		c-0.229,0.064-0.452,0.161-0.665,0.268c-0.167,0.084-0.325,0.189-0.477,0.297c-0.199,0.143-0.388,0.3-0.569,0.464
		c-0.261,0.239-0.496,0.501-0.715,0.776c-0.072-0.304-0.193-0.604-0.368-0.86c-0.121-0.176-0.258-0.34-0.422-0.474
		c-0.091-0.076-0.186-0.145-0.287-0.208c-0.116-0.069-0.245-0.119-0.37-0.17c-0.201-0.08-0.418-0.106-0.632-0.132
		c-0.207-0.027-0.421-0.019-0.629-0.004c-0.223,0.015-0.446,0.048-0.667,0.082c-0.206,0.032-0.411,0.08-0.612,0.134
		c-0.216,0.059-0.422,0.136-0.626,0.226c-0.191,0.082-0.372,0.178-0.546,0.294c-0.355,0.233-0.674,0.526-0.94,0.86
		c-0.233,0.289-0.434,0.595-0.58,0.939c-0.077,0.18-0.145,0.358-0.186,0.551c-0.043,0.201-0.062,0.409-0.067,0.613
		c-0.005,0.197,0.024,0.394,0.053,0.589c0.025,0.176,0.061,0.351,0.109,0.521c0.05,0.18,0.127,0.356,0.207,0.526
		c0.083,0.178,0.203,0.335,0.33,0.487c0.096,0.113,0.208,0.214,0.324,0.308c0.163,0.13,0.33,0.254,0.506,0.363
		c0.307,0.19,0.646,0.335,0.988,0.449c0.359,0.12,0.737,0.197,1.116,0.218c0.172,0.01,0.347,0.01,0.519,0.027
		c0.033,0.006,0.065,0.013,0.097,0.021c0.008,0.012,0.014,0.027,0.021,0.04c0.041,0.111,0.066,0.229,0.092,0.344
		c0.029,0.135,0.057,0.267,0.084,0.4c0.048,0.236,0.085,0.468,0.119,0.705c0.079,0.673,0.15,1.348,0.229,2.021
		c0,0.003,0.001,0.003,0.001,0c0.052-0.444,0.1-0.889,0.145-1.335c0.024-0.249,0.048-0.501,0.058-0.753
		c0.007-0.157,0.013-0.31,0.011-0.467c-0.003-0.148-0.009-0.295-0.016-0.445c-0.005-0.134-0.012-0.266-0.023-0.398
		c-0.013-0.133-0.023-0.268-0.062-0.396c-0.016-0.057-0.042-0.106-0.066-0.16c-0.018-0.038-0.071-0.113-0.098-0.134
		c-0.048-0.04-0.098-0.081-0.152-0.113c-0.067-0.042-0.149-0.067-0.224-0.093c-0.18-0.061-0.38-0.083-0.569-0.111
		c-0.332-0.048-0.654-0.157-0.965-0.283c-0.325-0.145-0.632-0.316-0.918-0.528c-0.157-0.126-0.303-0.261-0.431-0.413
		c-0.067-0.095-0.123-0.193-0.172-0.298c-0.101-0.258-0.164-0.526-0.207-0.799c-0.019-0.187-0.019-0.372-0.001-0.558
		c0.028-0.162,0.072-0.316,0.132-0.469c0.107-0.237,0.24-0.458,0.394-0.667c0.172-0.212,0.363-0.407,0.575-0.579
		c0.197-0.145,0.405-0.264,0.628-0.362c0.359-0.143,0.736-0.229,1.116-0.285c0.29-0.034,0.582-0.053,0.873-0.023
		c0.119,0.021,0.236,0.05,0.349,0.09c0.08,0.04,0.156,0.084,0.229,0.134c0.069,0.061,0.134,0.125,0.194,0.195
		c0.067,0.097,0.125,0.195,0.175,0.3c0.085,0.233,0.131,0.472,0.171,0.717c0.009,0.082,0.019,0.164,0.028,0.245
		c0.006,0.057,0.012,0.113,0.02,0.17c0.016,0.136,0.022,0.279,0.076,0.407c0.027,0.097,0.076,0.181,0.146,0.252
		c0.072,0.08,0.167,0.143,0.271,0.169c0.124,0.032,0.253,0.036,0.375-0.004c0.168-0.055,0.297-0.164,0.392-0.311
		c0.039-0.059,0.077-0.117,0.114-0.178c0.086-0.136,0.167-0.274,0.257-0.411c0.075-0.113,0.153-0.225,0.234-0.331
		c0.278-0.351,0.589-0.676,0.936-0.956c0.196-0.145,0.402-0.273,0.625-0.375c0.242-0.092,0.495-0.155,0.751-0.198
		c0.202-0.023,0.406-0.029,0.61-0.01c0.098,0.017,0.194,0.043,0.288,0.077c0.093,0.044,0.18,0.094,0.263,0.155
		c0.085,0.069,0.163,0.145,0.236,0.229c0.059,0.085,0.112,0.176,0.157,0.27c0.058,0.155,0.095,0.315,0.121,0.479
		c0.012,0.124,0.015,0.246,0.006,0.371c-0.032,0.174-0.083,0.342-0.144,0.508c-0.022,0.027-0.045,0.056-0.066,0.088
		c-0.05,0.067-0.079,0.146-0.104,0.229c-0.077,0.243,0.048,0.522,0.264,0.648c0.09,0.052,0.187,0.078,0.29,0.078
		c0.144,0,0.31-0.057,0.406-0.168c0.05-0.056,0.094-0.117,0.139-0.176c0.008-0.01,0.015-0.019,0.021-0.029
		c0.03-0.03,0.062-0.057,0.095-0.084c0.122-0.086,0.253-0.158,0.389-0.218c0.398-0.155,0.824-0.237,1.247-0.298
		c0.318-0.04,0.642-0.064,0.962-0.034c0.192,0.031,0.377,0.083,0.559,0.153c0.156,0.073,0.306,0.157,0.444,0.258
		c0.086,0.071,0.167,0.149,0.238,0.233c0.045,0.064,0.083,0.132,0.117,0.201c0.019,0.055,0.034,0.109,0.046,0.165
		c0.001,0.032,0.001,0.062-0.001,0.091c-0.009,0.044-0.021,0.088-0.035,0.13c-0.048,0.094-0.103,0.182-0.164,0.266
		c-0.146,0.178-0.312,0.335-0.493,0.48c-0.268,0.199-0.55,0.377-0.854,0.514c-0.395,0.155-0.809,0.228-1.225,0.289
		c-0.258,0.029-0.519,0.04-0.776,0.059c-0.165,0.013-0.33,0.026-0.483,0.086c-0.069,0.027-0.125,0.053-0.188,0.093
		c-0.05,0.033-0.097,0.073-0.142,0.111c-0.03,0.028-0.056,0.059-0.081,0.09c-0.05,0.063-0.095,0.124-0.131,0.195
		c-0.14,0.262-0.214,0.542-0.276,0.828c-0.122,0.56-0.155,1.139-0.224,1.708c-0.036,0.314-0.07,0.628-0.112,0.943
		c-0.055,0.317-0.144,0.625-0.216,0.938c0,0.002,0.001,0.002,0.001,0.002c0.09-0.181,0.184-0.361,0.271-0.542
		c0.039-0.079,0.08-0.159,0.111-0.243c0.055-0.137,0.101-0.277,0.146-0.415c0.09-0.272,0.179-0.545,0.263-0.818
		c0.084-0.271,0.162-0.543,0.242-0.813c0.076-0.254,0.171-0.501,0.271-0.746c0.063-0.143,0.139-0.277,0.228-0.405
		c0.017-0.019,0.034-0.036,0.052-0.054c0.014-0.007,0.024-0.016,0.037-0.022c0.021-0.006,0.046-0.012,0.068-0.016
		c0.142-0.011,0.283-0.007,0.426-0.008c0.146-0.002,0.295-0.005,0.441-0.01c0.433-0.016,0.87-0.055,1.294-0.152
		c0.417-0.094,0.815-0.276,1.178-0.501c0.374-0.23,0.725-0.514,1.001-0.859c0.157-0.201,0.288-0.403,0.38-0.642
		c0.032-0.085,0.053-0.169,0.064-0.26c0.013-0.08,0.023-0.155,0.026-0.235c0.004-0.09-0.014-0.197-0.029-0.283
		c-0.036-0.21-0.122-0.412-0.229-0.596c-0.062-0.104-0.141-0.198-0.217-0.293c-0.063-0.08-0.14-0.149-0.216-0.216
		c-0.183-0.161-0.386-0.299-0.6-0.413c-0.218-0.115-0.455-0.208-0.693-0.274c-0.498-0.134-1.016-0.125-1.525-0.071
		c-0.464,0.048-0.932,0.117-1.376,0.258c-0.008-0.111-0.022-0.225-0.038-0.337c-0.028-0.185-0.075-0.363-0.143-0.535
		c-0.043-0.116-0.095-0.229-0.152-0.34c-0.064-0.122-0.151-0.235-0.237-0.342c-0.135-0.167-0.291-0.3-0.461-0.428
		c-0.188-0.143-0.396-0.239-0.618-0.316c-0.204-0.074-0.428-0.097-0.643-0.111c-0.045-0.002-0.092-0.004-0.138-0.004
		C25.789,8.823,25.588,8.85,25.391,8.879"/>
</g>
</svg>
