<?xml version="1.0" encoding="utf-8"?>
<!-- Generator: Adobe Illustrator 15.0.0, SVG Export Plug-In . SVG Version: 6.00 Build 0)  -->
<!DOCTYPE svg PUBLIC "-//W3C//DTD SVG 1.1//EN" "http://www.w3.org/Graphics/SVG/1.1/DTD/svg11.dtd">
<svg version="1.1" id="Capa_1" xmlns="http://www.w3.org/2000/svg" xmlns:xlink="http://www.w3.org/1999/xlink" x="0px" y="0px"
	 width="45px" height="45px" viewBox="0 0 45 45" enable-background="new 0 0 45 45" xml:space="preserve">
<path fill="#FFFFFF" d="M23.816,20.866c-0.022-0.028-0.045-0.057-0.066-0.085C23.771,20.81,23.794,20.838,23.816,20.866
	 M24.934,15.282c-0.002-0.003-0.006-0.007-0.009-0.01C24.93,15.274,24.932,15.278,24.934,15.282 M32.457,11.357
	c-0.048-0.519-0.172-1.011-0.344-1.501c-0.098-0.287-0.234-0.564-0.367-0.836c-0.189-0.388-0.439-0.736-0.705-1.076
	c-0.133-0.173-0.305-0.322-0.477-0.455c-0.142-0.108-0.278-0.225-0.426-0.326c-0.121-0.083-0.244-0.167-0.369-0.246
	c-0.306-0.19-0.641-0.327-0.974-0.458c-0.522-0.207-1.108-0.25-1.666-0.241c-0.233,0.003-0.469,0.005-0.702,0.02
	c-0.33,0.021-0.658,0.05-0.986,0.097c-0.23,0.034-0.469,0.062-0.693,0.125C23.8,6.726,22.95,7.196,22.156,7.771
	c-0.982,0.71-1.946,1.502-2.565,2.565c-0.102,0.176-0.192,0.358-0.274,0.544c-0.106,0.238-0.207,0.477-0.289,0.725
	c-0.121,0.366-0.163,0.765-0.193,1.147c-0.02,0.244-0.004,0.495-0.003,0.74c0,0.237,0.002,0.474,0.005,0.711
	c0.01,0.95,0.042,1.929,0.266,2.857c0.104,0.431,0.252,0.849,0.418,1.259c0.113,0.28,0.224,0.561,0.354,0.833
	c0.106,0.222,0.227,0.436,0.348,0.651c0.468,0.835,1.064,1.603,1.674,2.337c0.426,0.513,0.876,1.004,1.35,1.473
	c0.413,0.408,0.815,0.822,1.19,1.265c0.138,0.192,0.261,0.39,0.371,0.601c0.14,0.383,0.229,0.777,0.293,1.182
	c0.062,0.738,0.088,1.482,0.111,2.224c0.021,0.7-0.048,1.396-0.132,2.091c-0.194,1.233-0.407,2.48-0.867,3.646
	c-0.44,0.986-0.983,1.924-1.495,2.875c-0.002,0.002,0.001,0.005,0.003,0.002c0.702-0.835,1.428-1.66,2.037-2.566
	c0.495-0.736,0.82-1.584,1.113-2.418c0.31-0.877,0.587-1.771,0.756-2.686c0.179-0.969,0.248-1.951,0.302-2.934
	c0.033-0.625-0.035-1.273-0.174-1.884s-0.469-1.175-0.845-1.668c-0.711-0.933-1.531-1.772-2.263-2.69
	c-0.012-0.017-0.024-0.034-0.037-0.05c-0.631-0.85-1.231-1.732-1.687-2.69c-0.124-0.308-0.24-0.618-0.347-0.932
	c-0.113-0.33-0.19-0.667-0.249-1.01c-0.05-0.505-0.071-1.01-0.075-1.518c-0.002-0.289-0.005-0.579-0.006-0.869
	c-0.001-0.316-0.009-0.634,0.015-0.95c0.041-0.213,0.096-0.42,0.168-0.626c0.13-0.287,0.275-0.561,0.457-0.82
	c0.179-0.215,0.366-0.426,0.571-0.614c0.216-0.199,0.441-0.385,0.667-0.571c0.551-0.418,1.121-0.82,1.746-1.116
	c0.344-0.115,0.688-0.193,1.044-0.253c0.229-0.024,0.457-0.046,0.688-0.061c0.398-0.024,0.801-0.057,1.198-0.027
	c0.224,0.045,0.438,0.109,0.652,0.189c0.292,0.137,0.573,0.298,0.837,0.485c0.135,0.117,0.258,0.241,0.373,0.377
	c0.281,0.391,0.521,0.802,0.727,1.238c0.075,0.197,0.146,0.395,0.195,0.602c0.055,0.216,0.091,0.435,0.125,0.655
	c0.036,0.289,0.073,0.58,0.087,0.871c0.015,0.333,0.009,0.657-0.022,0.986c-0.064,0.321-0.145,0.632-0.254,0.94
	c-0.084,0.177-0.181,0.343-0.293,0.502c-0.131,0.15-0.27,0.286-0.422,0.414c-0.174,0.125-0.352,0.236-0.545,0.329
	c-0.385,0.143-0.787,0.247-1.193,0.309c-0.375,0.036-0.748,0.017-1.123-0.016c-0.319-0.052-0.629-0.119-0.932-0.236
	c-0.172-0.082-0.332-0.178-0.484-0.292c-0.217-0.184-0.414-0.396-0.596-0.616c-0.019-0.026-0.035-0.053-0.054-0.079
	c-0.007-0.037-0.014-0.074-0.021-0.112c0-0.135,0.007-0.269,0.01-0.403c0-0.003-0.004-0.003-0.006-0.001
	c-0.029,0.132-0.064,0.263-0.092,0.396c-0.01,0.049-0.021,0.11-0.002,0.157c0.047,0.117,0.105,0.224,0.17,0.332
	c0.131,0.218,0.271,0.43,0.441,0.62c0.234,0.262,0.529,0.438,0.84,0.595c0.199,0.101,0.424,0.188,0.639,0.247
	c0.219,0.059,0.434,0.108,0.654,0.154c0.377,0.078,0.754,0.082,1.137,0.066c0.41-0.016,0.834-0.076,1.222-0.208
	c0.569-0.195,1.096-0.547,1.498-0.992c0.276-0.306,0.465-0.661,0.635-1.032c0.106-0.238,0.216-0.496,0.277-0.75
	c0.129-0.518,0.19-1.043,0.209-1.577c0.005-0.127,0.007-0.255,0.007-0.382C32.5,11.995,32.486,11.676,32.457,11.357"/>
<path fill="#FFFFFF" d="M21.505,28.672c-0.145-0.954-0.546-1.872-0.956-2.736c-0.47-0.994-1.291-1.772-2.147-2.438
	c-0.655-0.509-1.257-1.08-1.883-1.623c-0.601-0.522-1.239-1-1.84-1.522c-0.588-0.512-1.128-1.072-1.622-1.675
	c-0.217-0.307-0.414-0.617-0.571-0.959c-0.151-0.381-0.28-0.771-0.383-1.167c-0.086-0.333-0.141-0.674-0.189-1.015
	c-0.037-0.312-0.069-0.624-0.093-0.938c-0.025-0.335-0.005-0.675,0.019-1.009c-0.006,0.046-0.013,0.093-0.019,0.141
	c0.001-0.011,0.002-0.021,0.003-0.03c0.006-0.047,0.013-0.094,0.019-0.141c0.011-0.083,0.022-0.167,0.033-0.25
	c-0.005,0.044-0.012,0.088-0.017,0.133c0.104-0.557,0.26-1.088,0.469-1.614c0.038-0.087,0.077-0.174,0.118-0.26
	c0.101-0.214,0.269-0.399,0.394-0.6c0.142-0.229,0.23-0.502,0.321-0.753c0.126-0.353,0.229-0.714,0.351-1.068
	c0.001-0.003-0.002-0.004-0.004-0.002c-0.287,0.452-0.545,0.921-0.861,1.354c-0.155,0.196-0.327,0.369-0.517,0.532
	c-0.12,0.103-0.209,0.233-0.303,0.359c-0.133,0.177-0.25,0.37-0.361,0.561c-0.23,0.392-0.411,0.801-0.576,1.224
	c-0.175,0.446-0.269,0.95-0.312,1.424c-0.043,0.46-0.06,0.92-0.052,1.382c0.007,0.507,0.068,1.004,0.15,1.504
	c0.108,0.658,0.338,1.277,0.635,1.873c0.197,0.394,0.477,0.751,0.742,1.102c0.311,0.41,0.631,0.821,0.992,1.19
	c0.685,0.699,1.423,1.343,2.144,2.002c0.334,0.309,0.67,0.619,1.027,0.902c0.419,0.332,0.856,0.639,1.285,0.959
	c0.381,0.303,0.747,0.615,1.063,0.99c0.417,0.573,0.744,1.211,1.037,1.855c0.181,0.459,0.347,0.918,0.439,1.404
	c0.053,0.479,0.064,0.969,0.071,1.451c0.007,0.438-0.008,0.868-0.05,1.303c-0.128,0.74-0.356,1.453-0.583,2.168
	c-0.308,0.972-0.642,1.935-0.961,2.901c-0.001,0.003,0.003,0.004,0.004,0.002c0.589-0.942,1.181-1.883,1.709-2.86
	c0.43-0.797,0.866-1.6,1.062-2.492c0.113-0.512,0.177-1.03,0.238-1.551c0.024-0.217,0.044-0.435,0.062-0.651
	c0.009-0.104,0.013-0.21,0.013-0.313C21.605,29.368,21.559,29.021,21.505,28.672"/>
</svg>
