<?xml version="1.0" encoding="utf-8"?>
<!-- Generator: Adobe Illustrator 15.0.0, SVG Export Plug-In . SVG Version: 6.00 Build 0)  -->
<!DOCTYPE svg PUBLIC "-//W3C//DTD SVG 1.1//EN" "http://www.w3.org/Graphics/SVG/1.1/DTD/svg11.dtd">
<svg version="1.1" id="Capa_1" xmlns="http://www.w3.org/2000/svg" xmlns:xlink="http://www.w3.org/1999/xlink" x="0px" y="0px"
	 width="20px" height="20px" viewBox="12.5 12.5 20 20" enable-background="new 12.5 12.5 20 20" xml:space="preserve">
<g>
	<path fill="#919191" d="M23.63,21.992c-0.011-0.014-0.021-0.027-0.033-0.041C23.608,21.965,23.619,21.979,23.63,21.992
		 M24.177,19.256c-0.001-0.001-0.003-0.003-0.004-0.005C24.175,19.253,24.176,19.255,24.177,19.256 M27.863,17.333
		c-0.023-0.254-0.084-0.495-0.168-0.735c-0.048-0.141-0.115-0.276-0.181-0.41c-0.093-0.189-0.215-0.36-0.345-0.526
		c-0.065-0.085-0.149-0.158-0.233-0.224c-0.069-0.053-0.137-0.11-0.209-0.159c-0.06-0.041-0.119-0.082-0.181-0.12
		c-0.149-0.094-0.313-0.16-0.477-0.225c-0.257-0.102-0.544-0.122-0.816-0.118c-0.115,0.002-0.229,0.002-0.345,0.01
		c-0.161,0.01-0.322,0.024-0.482,0.047c-0.113,0.017-0.23,0.03-0.341,0.062c-0.464,0.13-0.881,0.36-1.27,0.643
		c-0.481,0.348-0.954,0.736-1.258,1.257c-0.05,0.086-0.094,0.176-0.134,0.267c-0.052,0.116-0.102,0.233-0.142,0.354
		c-0.06,0.18-0.08,0.375-0.095,0.562c-0.01,0.119-0.002,0.243-0.001,0.362c0,0.116,0.001,0.232,0.002,0.349
		c0.005,0.466,0.021,0.945,0.131,1.4c0.051,0.211,0.124,0.416,0.205,0.616c0.056,0.138,0.109,0.275,0.173,0.409
		c0.053,0.108,0.111,0.213,0.171,0.318c0.229,0.409,0.521,0.785,0.82,1.146c0.209,0.252,0.43,0.492,0.662,0.722
		c0.202,0.201,0.399,0.403,0.583,0.62c0.067,0.095,0.128,0.19,0.182,0.294c0.068,0.188,0.112,0.381,0.144,0.579
		c0.03,0.361,0.043,0.726,0.055,1.089c0.012,0.344-0.023,0.684-0.064,1.024c-0.095,0.604-0.199,1.216-0.425,1.787
		c-0.216,0.483-0.481,0.942-0.732,1.408c-0.001,0.001,0.001,0.003,0.002,0.001c0.344-0.409,0.699-0.813,0.998-1.257
		c0.242-0.361,0.401-0.777,0.545-1.186c0.151-0.43,0.288-0.867,0.37-1.315c0.088-0.475,0.122-0.956,0.148-1.438
		c0.017-0.306-0.018-0.624-0.085-0.922c-0.068-0.299-0.23-0.576-0.414-0.817c-0.349-0.457-0.75-0.868-1.108-1.319
		c-0.006-0.008-0.013-0.017-0.019-0.024c-0.309-0.416-0.604-0.849-0.826-1.317c-0.061-0.151-0.117-0.303-0.17-0.457
		c-0.056-0.162-0.094-0.327-0.122-0.495c-0.024-0.247-0.035-0.495-0.037-0.744c-0.001-0.142-0.002-0.283-0.003-0.425
		c-0.001-0.155-0.005-0.311,0.007-0.466c0.021-0.104,0.047-0.206,0.083-0.307c0.063-0.141,0.135-0.274,0.224-0.401
		c0.088-0.105,0.18-0.209,0.28-0.301c0.105-0.098,0.216-0.189,0.327-0.28c0.27-0.205,0.549-0.401,0.854-0.547
		c0.169-0.057,0.337-0.095,0.512-0.124c0.112-0.012,0.225-0.022,0.337-0.029c0.195-0.012,0.392-0.028,0.587-0.014
		c0.11,0.022,0.215,0.054,0.32,0.093c0.143,0.067,0.28,0.146,0.41,0.237c0.065,0.058,0.126,0.118,0.183,0.186
		c0.138,0.191,0.255,0.393,0.355,0.606c0.037,0.097,0.071,0.193,0.096,0.294c0.026,0.106,0.045,0.214,0.062,0.321
		c0.018,0.142,0.036,0.284,0.043,0.427c0.007,0.163,0.004,0.322-0.012,0.483c-0.031,0.157-0.07,0.31-0.124,0.461
		c-0.041,0.087-0.089,0.168-0.144,0.246c-0.064,0.073-0.132,0.14-0.207,0.202c-0.085,0.062-0.172,0.116-0.267,0.161
		c-0.188,0.07-0.386,0.121-0.585,0.151c-0.184,0.018-0.367,0.008-0.551-0.008c-0.156-0.025-0.308-0.059-0.456-0.115
		c-0.084-0.04-0.162-0.088-0.237-0.144c-0.106-0.09-0.203-0.194-0.292-0.302c-0.009-0.013-0.018-0.025-0.026-0.038
		c-0.003-0.019-0.006-0.037-0.01-0.056c0-0.065,0.004-0.131,0.005-0.197c0-0.001-0.002-0.002-0.002,0
		c-0.016,0.064-0.032,0.128-0.046,0.194c-0.004,0.023-0.01,0.054-0.001,0.076c0.023,0.058,0.052,0.11,0.083,0.163
		c0.064,0.107,0.133,0.211,0.217,0.304c0.115,0.128,0.26,0.215,0.412,0.291c0.098,0.05,0.207,0.093,0.312,0.121
		c0.106,0.029,0.212,0.054,0.32,0.075c0.186,0.039,0.37,0.041,0.558,0.033c0.2-0.008,0.408-0.037,0.598-0.103
		c0.279-0.096,0.537-0.268,0.734-0.485c0.136-0.15,0.228-0.324,0.311-0.506c0.053-0.117,0.105-0.243,0.136-0.368
		c0.063-0.254,0.094-0.511,0.103-0.772c0.003-0.062,0.004-0.125,0.004-0.188C27.885,17.646,27.878,17.489,27.863,17.333"/>
	<path fill="#919191" d="M22.497,25.817c-0.07-0.468-0.268-0.917-0.468-1.341c-0.23-0.487-0.633-0.869-1.053-1.195
		c-0.321-0.249-0.616-0.529-0.923-0.795c-0.294-0.256-0.607-0.49-0.901-0.746c-0.288-0.251-0.553-0.525-0.795-0.821
		c-0.106-0.15-0.203-0.303-0.28-0.47c-0.074-0.188-0.137-0.378-0.188-0.572c-0.042-0.163-0.069-0.33-0.093-0.497
		c-0.018-0.153-0.034-0.306-0.045-0.459c-0.013-0.165-0.003-0.331,0.009-0.495c-0.003,0.022-0.006,0.046-0.009,0.069
		c0-0.005,0.001-0.01,0.001-0.015c0.004-0.023,0.007-0.046,0.01-0.069c0.006-0.041,0.011-0.082,0.017-0.123
		c-0.003,0.022-0.006,0.044-0.009,0.065c0.051-0.272,0.128-0.532,0.229-0.791c0.019-0.042,0.038-0.085,0.058-0.127
		c0.05-0.104,0.132-0.195,0.193-0.294c0.069-0.112,0.113-0.246,0.157-0.369c0.062-0.173,0.112-0.35,0.172-0.523
		c0.001-0.002-0.001-0.002-0.002-0.001c-0.141,0.222-0.267,0.451-0.422,0.664c-0.076,0.096-0.16,0.181-0.253,0.26
		c-0.059,0.051-0.103,0.114-0.148,0.177c-0.065,0.087-0.122,0.181-0.177,0.274c-0.113,0.192-0.202,0.393-0.283,0.6
		c-0.085,0.219-0.131,0.466-0.152,0.698c-0.021,0.225-0.029,0.45-0.026,0.677c0.004,0.248,0.034,0.492,0.074,0.737
		c0.053,0.322,0.165,0.626,0.311,0.917c0.097,0.193,0.234,0.368,0.364,0.54c0.152,0.201,0.309,0.402,0.486,0.583
		c0.335,0.343,0.696,0.658,1.05,0.982c0.164,0.15,0.329,0.303,0.504,0.441c0.205,0.163,0.419,0.313,0.629,0.47
		c0.187,0.148,0.366,0.302,0.521,0.485c0.204,0.281,0.364,0.594,0.508,0.909c0.089,0.225,0.17,0.45,0.215,0.688
		c0.026,0.235,0.031,0.475,0.035,0.711c0.004,0.214-0.004,0.426-0.024,0.639c-0.062,0.362-0.175,0.712-0.285,1.062
		c-0.151,0.477-0.315,0.948-0.472,1.422c0,0.002,0.002,0.002,0.002,0.001c0.289-0.461,0.579-0.922,0.838-1.401
		c0.21-0.391,0.424-0.783,0.521-1.222c0.055-0.25,0.087-0.505,0.117-0.759c0.012-0.106,0.021-0.213,0.03-0.32
		c0.005-0.052,0.006-0.103,0.006-0.153C22.546,26.158,22.523,25.989,22.497,25.817"/>
</g>
</svg>
