<?xml version="1.0" encoding="utf-8"?>
<!-- Generator: Adobe Illustrator 15.0.0, SVG Export Plug-In . SVG Version: 6.00 Build 0)  -->
<!DOCTYPE svg PUBLIC "-//W3C//DTD SVG 1.1//EN" "http://www.w3.org/Graphics/SVG/1.1/DTD/svg11.dtd">
<svg version="1.1" id="Capa_1" xmlns="http://www.w3.org/2000/svg" xmlns:xlink="http://www.w3.org/1999/xlink" x="0px" y="0px"
	 width="45px" height="45px" viewBox="-0.5 -0.5 45 45" enable-background="new -0.5 -0.5 45 45" xml:space="preserve">
<g>
	<path fill="#FFFFFF" d="M23.552,13.47c0.035,0.012,0.069,0.026,0.102,0.043C23.62,13.499,23.586,13.484,23.552,13.47
		 M23.589,13.303c0.018,0.035,0.032,0.07,0.044,0.105C23.619,13.373,23.604,13.337,23.589,13.303 M21.354,13.204
		c0.262,0.02,0.523,0.067,0.782,0.094c0.316,0.032,0.633,0.057,0.948,0.093c0.197,0.034,0.389,0.075,0.579,0.135
		c0.045,0.432,0.062,0.87,0.098,1.302c0.04,0.498,0.09,0.996,0.149,1.492c0,0.003,0,0.007,0.001,0.009
		c-0.361-0.053-0.724-0.105-1.087-0.158c-0.638-0.093-1.29-0.159-1.9-0.377c-0.011-0.006-0.021-0.011-0.031-0.017
		c0.009-0.203,0.035-0.405,0.061-0.607C21.045,14.511,21.132,13.832,21.354,13.204 M21.112,11.325
		c-0.475,0.008-0.923,0.271-1.183,0.661c-0.487,0.733-0.486,1.697-0.475,2.55c0.002,0.223,0.008,0.446,0.016,0.668
		c0.004,0.123,0.008,0.245,0.013,0.365c0.012,0.309,0.02,0.666,0.214,0.922c0.184,0.243,0.405,0.365,0.696,0.451
		c0.254,0.076,0.542,0.081,0.803,0.084c0.379,0.004,0.759-0.057,1.133-0.104c0.575-0.072,1.145-0.161,1.716-0.252
		c0.094,0.123,0.233,0.203,0.418,0.203c0.228,0,0.441-0.152,0.52-0.36c0.013-0.002,0.025-0.004,0.038-0.006
		c0.002-0.001,0.002-0.005,0-0.005c-0.012-0.001-0.021-0.002-0.032-0.005c0.02-0.055,0.028-0.115,0.026-0.177
		c0.061-0.55,0.116-1.1,0.163-1.65c0.018-0.232,0.035-0.464,0.052-0.695c0.031-0.446,0.103-0.902-0.106-1.319
		c-0.497-0.989-1.765-1.083-2.739-1.202c-0.24-0.03-0.48-0.058-0.721-0.086c-0.172-0.021-0.34-0.042-0.512-0.042
		C21.138,11.325,21.125,11.325,21.112,11.325"/>
	<path fill="#FFFFFF" d="M20.275,23.748c0.018,0.012,0.034,0.025,0.051,0.038C20.309,23.773,20.292,23.762,20.275,23.748
		 M20.156,23.615c0.014,0.019,0.027,0.035,0.04,0.054C20.183,23.652,20.169,23.634,20.156,23.615 M20.781,21.262
		c-0.007,0.002-0.013,0.002-0.019,0.003c0-0.001,0-0.001,0.001-0.001C20.769,21.264,20.775,21.263,20.781,21.262 M20.823,19.507
		c-0.242,0.002-0.486,0.008-0.713,0.1c-0.351,0.141-0.601,0.376-0.796,0.698c-0.16,0.268-0.225,0.593-0.27,0.897
		c-0.038,0.253-0.065,0.51-0.07,0.767c-0.009,0.467,0.009,0.933,0.028,1.402c0.009,0.227,0.026,0.445,0.07,0.67
		c0.044,0.221,0.264,0.476,0.46,0.577c0.547,0.285,1.186,0.27,1.788,0.244c0.805-0.035,1.606-0.165,2.4-0.285
		c0.003,0,0.003-0.005,0-0.005c-1.074-0.204-2.211-0.34-3.24-0.729c-0.075-0.034-0.146-0.07-0.217-0.114
		c0.004-0.126,0.019-0.25,0.034-0.379c0.011-0.088,0.023-0.179,0.036-0.268c-0.009,0.06-0.017,0.119-0.024,0.178
		c0.098-0.642,0.184-1.306,0.41-1.919c0.008-0.014,0.016-0.029,0.023-0.043c0.615,0.01,1.23,0.022,1.843,0.084
		c0.185,0.032,0.367,0.067,0.544,0.125c0.028,0.017,0.056,0.033,0.082,0.051c0.009,0.008,0.02,0.018,0.028,0.027
		c0.027,0.042,0.055,0.084,0.08,0.129c0.024,0.073,0.043,0.144,0.058,0.222c0.083,0.679,0.13,1.363,0.215,2.042
		c-0.02,0.153,0.066,0.294,0.188,0.387c0.079,0.069,0.183,0.11,0.31,0.11c0.126,0,0.229-0.041,0.309-0.11
		c0.123-0.093,0.209-0.233,0.189-0.387c0.06-0.476,0.106-0.953,0.151-1.43c0.019-0.217,0.033-0.435,0.044-0.651
		c0.033-0.598-0.158-1.165-0.587-1.588c-0.479-0.472-1.206-0.605-1.85-0.692c-0.477-0.065-0.948-0.11-1.43-0.11
		C20.888,19.507,20.856,19.507,20.823,19.507"/>
	<path fill="#FFFFFF" d="M20.256,31.668c0.029,0.013,0.06,0.025,0.088,0.038C20.314,31.694,20.284,31.683,20.256,31.668
		 M20.149,31.62c0.019,0.015,0.038,0.031,0.058,0.046C20.187,31.651,20.167,31.637,20.149,31.62 M24.036,28.556
		c0.006,0.01,0.013,0.018,0.02,0.027C24.049,28.574,24.042,28.565,24.036,28.556 M23.883,28.415
		c0.023,0.017,0.047,0.033,0.068,0.054C23.929,28.45,23.905,28.432,23.883,28.415 M23.939,28.388
		c0.002,0.006,0.005,0.013,0.007,0.017C23.944,28.4,23.941,28.394,23.939,28.388 M20.407,28.365
		c-0.014,0.005-0.027,0.011-0.042,0.017C20.38,28.376,20.394,28.37,20.407,28.365 M19.884,26.633
		c-0.37,0.142-0.613,0.382-0.814,0.722c-0.209,0.352-0.252,0.792-0.298,1.188c-0.075,0.638-0.023,1.295,0.015,1.934
		c0.018,0.269,0.059,0.536,0.094,0.803c0.014,0.102,0.032,0.201,0.05,0.301c0.014,0.075,0.03,0.146,0.048,0.219
		c0.056,0.21,0.177,0.366,0.309,0.532c0.148,0.185,0.45,0.26,0.668,0.3c0.195,0.036,0.396,0.046,0.594,0.044
		c0.247,0,0.494-0.002,0.74-0.026c0.722-0.068,1.438-0.172,2.156-0.28c0.002,0,0.002-0.003,0-0.004
		c-0.688-0.132-1.378-0.252-2.065-0.386c-0.383-0.075-0.773-0.179-1.138-0.316c-0.037-0.019-0.073-0.038-0.108-0.059
		c0-0.002-0.002-0.002-0.002-0.006c-0.004-0.015-0.007-0.029-0.011-0.046c-0.029-0.489,0.042-0.982,0.106-1.466
		c0.084-0.583,0.148-1.179,0.344-1.735c0.413-0.017,0.827-0.024,1.241-0.034c0.565-0.014,1.144-0.01,1.706,0.053
		c0.146,0.025,0.283,0.059,0.421,0.106c0.014,0.008,0.026,0.015,0.04,0.021c0,0.005,0.001,0.009,0.003,0.011
		c0.006,0.075,0.008,0.148,0.008,0.222c-0.029,0.295-0.057,0.589-0.082,0.883c-0.033,0.383-0.081,0.764-0.063,1.147
		c0.012,0.284,0.376,0.479,0.587,0.244c0.16-0.176,0.224-0.361,0.293-0.587c0.038-0.127,0.078-0.255,0.116-0.384
		c0.066-0.225,0.128-0.45,0.188-0.676c0.059-0.221,0.115-0.444,0.161-0.669c0.05-0.257,0.045-0.499-0.029-0.749
		c-0.103-0.346-0.391-0.588-0.685-0.771c-0.249-0.157-0.562-0.241-0.846-0.311c-0.178-0.044-0.36-0.071-0.542-0.099
		c-0.287-0.041-0.574-0.079-0.863-0.108c-0.452-0.045-0.904-0.087-1.358-0.104c-0.117-0.004-0.234-0.008-0.354-0.008
		C20.298,26.539,20.085,26.557,19.884,26.633"/>
</g>
</svg>
