<?xml version="1.0" encoding="utf-8"?>
<!-- Generator: Adobe Illustrator 15.0.0, SVG Export Plug-In . SVG Version: 6.00 Build 0)  -->
<!DOCTYPE svg PUBLIC "-//W3C//DTD SVG 1.1//EN" "http://www.w3.org/Graphics/SVG/1.1/DTD/svg11.dtd">
<svg version="1.1" id="Capa_1" xmlns="http://www.w3.org/2000/svg" xmlns:xlink="http://www.w3.org/1999/xlink" x="0px" y="0px"
	 width="45px" height="45px" viewBox="-0.5 -0.5 45 45" enable-background="new -0.5 -0.5 45 45" xml:space="preserve">
<g>
	<path fill="#292521" d="M24.192,9.949c0.05,0.018,0.098,0.038,0.145,0.061C24.288,9.989,24.24,9.969,24.192,9.949 M24.245,9.712
		c0.024,0.048,0.045,0.098,0.062,0.148C24.287,9.811,24.267,9.761,24.245,9.712 M21.087,9.573c0.369,0.028,0.739,0.094,1.104,0.132
		c0.446,0.046,0.894,0.081,1.34,0.131c0.278,0.048,0.549,0.105,0.818,0.19c0.064,0.611,0.088,1.229,0.138,1.84
		c0.058,0.704,0.127,1.407,0.211,2.108c0,0.004,0.001,0.009,0.002,0.013c-0.512-0.076-1.023-0.149-1.535-0.223
		c-0.902-0.13-1.823-0.224-2.686-0.534c-0.015-0.008-0.03-0.016-0.044-0.023c0.013-0.287,0.05-0.573,0.085-0.859
		C20.65,11.418,20.773,10.46,21.087,9.573 M20.745,6.918c-0.67,0.012-1.303,0.384-1.67,0.935c-0.688,1.036-0.687,2.397-0.671,3.602
		c0.004,0.315,0.012,0.631,0.022,0.945c0.006,0.173,0.012,0.345,0.018,0.517c0.016,0.436,0.028,0.94,0.301,1.303
		c0.26,0.343,0.574,0.515,0.985,0.637c0.357,0.106,0.765,0.114,1.134,0.119c0.534,0.006,1.072-0.081,1.6-0.147
		c0.812-0.102,1.617-0.229,2.424-0.357c0.133,0.173,0.33,0.286,0.59,0.286c0.322,0,0.624-0.213,0.735-0.508
		c0.018-0.003,0.035-0.006,0.053-0.009c0.004-0.001,0.004-0.006,0-0.006c-0.015-0.002-0.029-0.004-0.044-0.007
		c0.026-0.079,0.04-0.163,0.037-0.25c0.086-0.777,0.164-1.554,0.229-2.333c0.025-0.328,0.051-0.655,0.074-0.982
		c0.044-0.629,0.145-1.274-0.151-1.863c-0.701-1.397-2.494-1.53-3.87-1.698c-0.34-0.042-0.679-0.082-1.019-0.122
		c-0.242-0.03-0.48-0.06-0.723-0.06C20.782,6.917,20.763,6.918,20.745,6.918"/>
	<path fill="#292521" d="M19.563,24.469c0.024,0.018,0.047,0.037,0.071,0.055C19.61,24.506,19.586,24.488,19.563,24.469
		 M19.395,24.283c0.019,0.025,0.037,0.049,0.056,0.074C19.431,24.334,19.413,24.309,19.395,24.283 M20.278,20.958
		c-0.009,0.002-0.018,0.003-0.027,0.004c0-0.001,0-0.001,0-0.001C20.261,20.959,20.27,20.958,20.278,20.958 M20.338,18.477
		c-0.343,0.004-0.687,0.011-1.009,0.141c-0.495,0.199-0.849,0.531-1.123,0.987c-0.228,0.378-0.318,0.838-0.382,1.268
		c-0.053,0.358-0.092,0.721-0.099,1.084c-0.012,0.661,0.012,1.319,0.04,1.981c0.013,0.32,0.037,0.629,0.1,0.945
		c0.062,0.312,0.373,0.672,0.649,0.816c0.774,0.402,1.676,0.381,2.526,0.344c1.138-0.049,2.27-0.232,3.393-0.402
		c0.003,0,0.003-0.006,0-0.006c-1.519-0.289-3.125-0.48-4.579-1.031c-0.105-0.049-0.206-0.1-0.306-0.16
		c0.006-0.18,0.026-0.355,0.048-0.537c0.017-0.125,0.033-0.252,0.051-0.377c-0.011,0.084-0.022,0.168-0.034,0.25
		c0.137-0.906,0.259-1.844,0.579-2.71c0.011-0.021,0.022-0.041,0.034-0.062c0.87,0.014,1.738,0.031,2.604,0.12
		c0.261,0.045,0.518,0.094,0.769,0.175c0.04,0.023,0.078,0.047,0.116,0.072c0.013,0.012,0.026,0.025,0.039,0.039
		c0.039,0.06,0.077,0.119,0.114,0.183c0.033,0.103,0.06,0.204,0.08,0.313c0.117,0.959,0.184,1.924,0.305,2.885
		c-0.027,0.217,0.094,0.416,0.267,0.547c0.112,0.098,0.258,0.156,0.438,0.156c0.178,0,0.324-0.059,0.436-0.156
		c0.174-0.131,0.295-0.33,0.268-0.547c0.084-0.672,0.15-1.346,0.213-2.02c0.027-0.307,0.047-0.614,0.063-0.92
		c0.047-0.844-0.224-1.646-0.83-2.243c-0.677-0.667-1.704-0.855-2.612-0.979c-0.675-0.093-1.34-0.156-2.021-0.156
		C20.428,18.477,20.383,18.477,20.338,18.477"/>
	<path fill="#292521" d="M19.535,35.66c0.042,0.018,0.083,0.035,0.125,0.053C19.618,35.697,19.576,35.68,19.535,35.66
		 M19.384,35.592c0.027,0.021,0.055,0.043,0.083,0.064C19.438,35.637,19.41,35.615,19.384,35.592 M24.876,31.262
		c0.01,0.014,0.019,0.025,0.028,0.039C24.895,31.289,24.885,31.275,24.876,31.262 M24.66,31.062
		c0.033,0.025,0.066,0.049,0.097,0.076C24.725,31.113,24.691,31.088,24.66,31.062 M24.74,31.025c0.003,0.008,0.007,0.018,0.01,0.023
		C24.747,31.043,24.743,31.033,24.74,31.025 M19.749,30.992c-0.02,0.008-0.039,0.016-0.059,0.023
		C19.71,31.008,19.729,31,19.749,30.992 M19.01,28.545c-0.523,0.201-0.867,0.539-1.151,1.02c-0.295,0.498-0.355,1.119-0.421,1.68
		c-0.106,0.9-0.033,1.83,0.021,2.732c0.024,0.379,0.082,0.758,0.132,1.135c0.02,0.143,0.045,0.283,0.069,0.424
		c0.019,0.105,0.042,0.205,0.069,0.309c0.078,0.297,0.249,0.518,0.435,0.752c0.21,0.262,0.637,0.367,0.944,0.424
		c0.275,0.051,0.559,0.064,0.838,0.062c0.349,0,0.699-0.002,1.046-0.037c1.02-0.098,2.032-0.244,3.046-0.396
		c0.003,0,0.003-0.004,0-0.006c-0.973-0.186-1.946-0.355-2.918-0.545c-0.541-0.105-1.092-0.252-1.607-0.447
		c-0.052-0.025-0.104-0.053-0.153-0.082c-0.001-0.002-0.002-0.004-0.003-0.008c-0.005-0.021-0.01-0.043-0.015-0.066
		c-0.041-0.689,0.06-1.387,0.15-2.07c0.12-0.822,0.211-1.664,0.486-2.451c0.584-0.023,1.17-0.035,1.753-0.049
		c0.8-0.02,1.617-0.014,2.412,0.074c0.205,0.037,0.4,0.084,0.595,0.15c0.019,0.012,0.037,0.021,0.056,0.031
		c0.001,0.006,0.002,0.012,0.004,0.016c0.008,0.105,0.012,0.209,0.012,0.312c-0.041,0.416-0.08,0.832-0.115,1.246
		c-0.048,0.541-0.115,1.08-0.091,1.623c0.018,0.4,0.531,0.676,0.83,0.344c0.226-0.248,0.316-0.51,0.413-0.828
		c0.054-0.18,0.11-0.361,0.164-0.543c0.095-0.316,0.182-0.637,0.266-0.955c0.082-0.312,0.163-0.627,0.227-0.945
		c0.071-0.361,0.065-0.705-0.04-1.057c-0.146-0.49-0.553-0.832-0.967-1.092c-0.353-0.221-0.795-0.34-1.195-0.438
		c-0.252-0.062-0.51-0.102-0.767-0.139c-0.406-0.059-0.812-0.113-1.219-0.154c-0.639-0.064-1.279-0.123-1.92-0.146
		c-0.165-0.006-0.332-0.012-0.499-0.012C19.595,28.412,19.293,28.438,19.01,28.545"/>
</g>
</svg>
