<?xml version="1.0" encoding="utf-8"?>
<!-- Generator: Adobe Illustrator 15.0.0, SVG Export Plug-In . SVG Version: 6.00 Build 0)  -->
<!DOCTYPE svg PUBLIC "-//W3C//DTD SVG 1.1//EN" "http://www.w3.org/Graphics/SVG/1.1/DTD/svg11.dtd">
<svg version="1.1" id="Capa_1" xmlns="http://www.w3.org/2000/svg" xmlns:xlink="http://www.w3.org/1999/xlink" x="0px" y="0px"
	 width="44px" height="44px" viewBox="0 0 44 44" enable-background="new 0 0 44 44" xml:space="preserve">
<path opacity="0.9753" fill="#292521" d="M31.435,9.47c-0.003,0.004-0.006,0.007-0.009,0.012C31.429,9.477,31.432,9.474,31.435,9.47
	 M31.753,9.501c0.145-0.314,0.253-0.643,0.368-0.969c0.064,0.016,0.128,0.035,0.191,0.058c0.06,0.027,0.12,0.058,0.176,0.095
	c0.006,0.005,0.011,0.011,0.017,0.016c0.003,0.011,0.005,0.022,0.009,0.033c0,0.005,0,0.011,0,0.017
	C32.51,8.766,32.505,8.78,32.5,8.795c-0.047,0.099-0.102,0.192-0.165,0.281c-0.152,0.186-0.334,0.347-0.522,0.495
	c-0.047,0.037-0.095,0.071-0.144,0.106C31.698,9.619,31.727,9.56,31.753,9.501 M31.782,8.47c0.088,0.013,0.174,0.026,0.261,0.045
	c-0.201,0.334-0.395,0.672-0.631,0.982c-0.162,0.208-0.334,0.407-0.539,0.572c-0.11,0.08-0.227,0.142-0.349,0.197
	c-0.211,0.084-0.427,0.137-0.65,0.17c-0.274,0.032-0.548,0.029-0.822-0.002c-0.269-0.04-0.535-0.096-0.79-0.194
	c-0.059-0.027-0.116-0.057-0.172-0.092c-0.02-0.02-0.04-0.039-0.059-0.06c-0.008-0.012-0.016-0.024-0.022-0.036
	c-0.001-0.002-0.001-0.005-0.001-0.007c-0.002-0.017-0.002-0.033-0.001-0.05c0.011-0.043,0.025-0.084,0.04-0.125
	c0.044-0.092,0.096-0.178,0.153-0.261c0.094-0.11,0.198-0.207,0.31-0.297c0.288-0.211,0.602-0.382,0.928-0.526
	c0.358-0.145,0.733-0.256,1.115-0.314C30.96,8.423,31.375,8.422,31.782,8.47 M29.886,7.639c-0.393,0.092-0.767,0.248-1.128,0.426
	c-0.344,0.169-0.668,0.383-0.962,0.628c-0.15,0.125-0.272,0.271-0.39,0.428c-0.13,0.173-0.218,0.375-0.287,0.578
	c-0.034,0.103-0.044,0.216-0.044,0.324c0,0.105,0.018,0.218,0.054,0.317c0.047,0.127,0.11,0.228,0.197,0.331
	c0.076,0.088,0.166,0.159,0.262,0.226c0.084,0.06,0.188,0.096,0.283,0.135c0.075,0.03,0.153,0.052,0.231,0.074
	c0.199,0.055,0.411,0.072,0.617,0.089c0.764,0.063,1.589-0.1,2.211-0.564c0.099-0.072,0.187-0.154,0.268-0.242
	c0.017-0.006,0.032-0.011,0.049-0.016c0.224-0.076,0.442-0.169,0.655-0.269c0.327-0.154,0.646-0.356,0.908-0.607
	c0.131-0.127,0.246-0.279,0.333-0.439c0.104-0.193,0.119-0.434,0.049-0.641c-0.071-0.208-0.229-0.349-0.406-0.469
	c-0.162-0.112-0.351-0.185-0.538-0.242c-0.375-0.115-0.774-0.166-1.165-0.182c-0.059-0.002-0.118-0.003-0.177-0.003
	C30.562,7.519,30.219,7.56,29.886,7.639"/>
<path opacity="0.9753" fill="#292521" d="M29.68,16.286c-0.006,0.015-0.012,0.029-0.019,0.044
	C29.668,16.315,29.674,16.301,29.68,16.286 M27.513,9.778c0.304,0.241,0.611,0.474,0.918,0.709c0.138,0.107,0.274,0.217,0.408,0.329
	c0.121,0.102,0.229,0.217,0.328,0.34c0.135,0.183,0.24,0.378,0.33,0.585c0.105,0.258,0.193,0.521,0.263,0.792
	c0.074,0.287,0.126,0.579,0.168,0.872c0.035,0.289,0.062,0.579,0.081,0.87c0.021,0.31,0.016,0.624-0.02,0.933
	c-0.028,0.184-0.066,0.366-0.117,0.545c-0.049,0.176-0.115,0.346-0.185,0.515c-0.156,0.357-0.346,0.699-0.533,1.042
	c-0.235,0.428-0.473,0.854-0.694,1.289c0,0.001,0.002,0.001,0.002,0.001c0.312-0.33,0.619-0.666,0.916-1.009
	c0.196-0.227,0.391-0.457,0.57-0.696c0.232-0.313,0.438-0.644,0.587-1.004c0.07-0.167,0.127-0.336,0.174-0.512
	c0.055-0.211,0.082-0.43,0.105-0.647c0.039-0.381,0.02-0.767-0.026-1.146c-0.05-0.414-0.133-0.82-0.264-1.215
	c-0.109-0.329-0.257-0.645-0.434-0.941C30,11.279,29.897,11.135,29.783,11c-0.112-0.132-0.245-0.248-0.383-0.352
	c-0.128-0.096-0.265-0.173-0.407-0.245c-0.165-0.082-0.332-0.159-0.503-0.231C28.168,10.035,27.841,9.905,27.513,9.778L27.513,9.778
	C27.513,9.777,27.513,9.778,27.513,9.778"/>
<path opacity="0.9753" fill="#292521" d="M29.135,16.516c-0.004,0.002-0.006,0.004-0.009,0.006
	C29.129,16.52,29.131,16.518,29.135,16.516 M31.655,12.408c-0.005,0.012-0.01,0.024-0.015,0.037
	C31.646,12.432,31.65,12.42,31.655,12.408 M32.31,8.12c-0.019,0.367-0.034,0.735-0.048,1.104c-0.005,0.136-0.008,0.271-0.011,0.408
	c-0.007,0.257-0.03,0.516-0.063,0.772c-0.102,0.709-0.288,1.409-0.561,2.072c-0.158,0.365-0.336,0.72-0.521,1.071
	c-0.095,0.179-0.184,0.362-0.277,0.54c-0.105,0.196-0.209,0.394-0.31,0.593c-0.208,0.404-0.439,0.798-0.716,1.159
	c-0.097,0.125-0.196,0.247-0.306,0.361c-0.118,0.122-0.252,0.229-0.386,0.333c-0.235,0.178-0.479,0.345-0.711,0.528
	c-0.001,0,0,0.001,0,0.001c0.015-0.006,0.027-0.012,0.041-0.017l-0.002,0.001c0.322-0.135,0.651-0.252,0.965-0.406
	c0.332-0.165,0.621-0.399,0.889-0.654c0.389-0.372,0.702-0.812,1.003-1.256c0.16-0.233,0.312-0.471,0.461-0.711
	c0.12-0.195,0.236-0.392,0.342-0.594c0.096-0.183,0.174-0.378,0.252-0.57c0.076-0.187,0.139-0.378,0.192-0.573
	c0.137-0.487,0.203-0.999,0.213-1.504c0.006-0.25-0.01-0.5-0.041-0.748c-0.02-0.154-0.039-0.309-0.07-0.461
	C32.544,9.083,32.434,8.6,32.31,8.12C32.311,8.119,32.311,8.119,32.31,8.12C32.31,8.119,32.31,8.119,32.31,8.12"/>
<path opacity="0.9753" fill="#292521" d="M22.854,17.996c-0.004,0.003-0.006,0.007-0.01,0.011
	C22.849,18.003,22.851,18,22.854,17.996 M25.069,16.139c-0.191,0.028-0.377,0.078-0.561,0.139c-0.179,0.059-0.352,0.136-0.521,0.216
	c-0.175,0.082-0.342,0.178-0.499,0.289c-0.303,0.211-0.568,0.478-0.778,0.782c-0.137,0.197-0.229,0.432-0.31,0.657
	c-0.044,0.124-0.065,0.259-0.089,0.388c-0.025,0.135-0.045,0.271-0.068,0.406c0,0,0,0.001,0.001,0
	c0.123-0.222,0.23-0.452,0.359-0.671c0.066-0.112,0.15-0.219,0.231-0.322c-0.003,0.002-0.005,0.005-0.008,0.009
	c0.133-0.168,0.285-0.308,0.452-0.439c0.229-0.171,0.474-0.312,0.734-0.427c0.478-0.195,0.983-0.341,1.494-0.417
	c0.42-0.049,0.846-0.028,1.265,0.026c0.256,0.036,0.509,0.086,0.763,0.132c0.308,0.055,0.616,0.107,0.926,0.157
	c0.001,0,0.001-0.001,0.001-0.001c-0.357-0.189-0.719-0.368-1.085-0.538c-0.542-0.25-1.115-0.417-1.715-0.434
	c-0.019-0.001-0.037-0.001-0.056-0.001C25.427,16.088,25.247,16.112,25.069,16.139"/>
<path opacity="0.9753" fill="#292521" d="M27.353,20.615c0,0,0.001,0,0.002,0C27.354,20.615,27.354,20.615,27.353,20.615
	L27.353,20.615 M30.613,17.028c-0.208,0.008-0.415,0.03-0.622,0.052c-0.293,0.031-0.586,0.064-0.88,0.099v0.001
	c0.477,0.057,0.954,0.107,1.428,0.169c0.124,0.018,0.244,0.043,0.362,0.087c0.033,0.016,0.065,0.035,0.097,0.056
	c0.032,0.028,0.062,0.058,0.09,0.09c0.05,0.069,0.091,0.143,0.128,0.22c0.058,0.147,0.093,0.301,0.116,0.457
	c0.018,0.149,0.025,0.298,0.035,0.448c0.012,0.214,0.009,0.428-0.015,0.641c-0.026,0.166-0.066,0.328-0.127,0.485
	c-0.143,0.309-0.352,0.585-0.549,0.862c-0.024,0.031-0.05,0.063-0.075,0.097c-0.07,0.089-0.141,0.177-0.214,0.264
	c-0.032,0.039-0.066,0.075-0.1,0.112c-0.026-0.025-0.054-0.051-0.08-0.075c-0.054-0.047-0.108-0.095-0.162-0.143
	c-0.052-0.046-0.108-0.088-0.164-0.131c-0.086-0.068-0.174-0.135-0.265-0.194c-0.119-0.077-0.253-0.132-0.385-0.184
	c-0.093-0.037-0.191-0.062-0.289-0.08c-0.137-0.024-0.275-0.039-0.414-0.038c-0.127,0.001-0.257,0.025-0.383,0.046
	c-0.097,0.017-0.192,0.044-0.288,0.073c-0.12,0.036-0.238,0.082-0.356,0.125c-0.041-0.071-0.078-0.145-0.113-0.218
	c-0.051-0.108-0.099-0.217-0.16-0.317c-0.121-0.198-0.299-0.369-0.51-0.466c-0.062-0.028-0.123-0.054-0.188-0.074
	c-0.076-0.024-0.17-0.033-0.248-0.041c-0.149-0.014-0.293,0.007-0.44,0.03c-0.189,0.029-0.376,0.098-0.558,0.157
	c-0.167,0.055-0.338,0.113-0.512,0.145c-0.051,0.003-0.1,0.004-0.15,0.001c-0.06-0.013-0.116-0.031-0.175-0.053
	c-0.289-0.137-0.535-0.348-0.806-0.517c-0.095-0.059-0.188-0.11-0.288-0.158c-0.152-0.075-0.309-0.122-0.475-0.156
	c-0.221-0.047-0.445-0.087-0.671-0.108c-0.178-0.016-0.367-0.023-0.523,0.077c-0.103,0.067-0.175,0.189-0.237,0.292
	c-0.075,0.125-0.137,0.26-0.212,0.386c0,0.001,0,0.002,0.001,0.001c0.153-0.157,0.283-0.336,0.455-0.474
	c0.024-0.017,0.048-0.032,0.074-0.045c0.021-0.007,0.042-0.014,0.063-0.018c0.042-0.002,0.083-0.001,0.125,0.003
	c0.293,0.053,0.574,0.176,0.848,0.291c0.062,0.026,0.122,0.053,0.181,0.086c0.065,0.036,0.125,0.079,0.186,0.122
	c0.115,0.093,0.225,0.191,0.331,0.294c0.063,0.061,0.125,0.124,0.188,0.185c0.084,0.08,0.169,0.156,0.259,0.227
	c0.133,0.104,0.265,0.185,0.42,0.25c0.336,0.139,0.702,0.065,1.046-0.005c0.155-0.032,0.311-0.065,0.467-0.089
	c0.091-0.01,0.179-0.013,0.27-0.008c0.033,0.006,0.066,0.015,0.099,0.025c0.016,0.009,0.031,0.018,0.046,0.028
	c0.02,0.017,0.037,0.035,0.055,0.053c0.024,0.038,0.046,0.078,0.065,0.118c0.061,0.153,0.119,0.307,0.188,0.456
	c0.064,0.139,0.146,0.253,0.242,0.373c0.015,0.018,0.031,0.033,0.05,0.046c0.104,0.083,0.133,0.103,0.258,0.149
	c0.086,0.032,0.184,0.047,0.274,0.037c0.101-0.011,0.173-0.028,0.264-0.059c0.039-0.013,0.076-0.029,0.113-0.042
	c0.048-0.017,0.096-0.034,0.144-0.049c0.16-0.053,0.318-0.101,0.483-0.131c0.087-0.008,0.174-0.008,0.261,0
	c0.087,0.016,0.173,0.04,0.256,0.07c0.084,0.041,0.162,0.092,0.237,0.146c0.084,0.068,0.165,0.139,0.246,0.213
	c0.047,0.043,0.094,0.086,0.143,0.129c0.04,0.036,0.079,0.073,0.121,0.107c0.053,0.045,0.11,0.088,0.167,0.128
	c0.071,0.048,0.152,0.077,0.231,0.106c0.064,0.023,0.139,0.022,0.206,0.027c0.068,0.005,0.139-0.014,0.205-0.026
	c0.01-0.004,0.02-0.008,0.029-0.012c0.055-0.017,0.105-0.039,0.152-0.07c0.055-0.035,0.105-0.079,0.155-0.122
	c0.067-0.059,0.115-0.143,0.169-0.214c0.021-0.028,0.042-0.057,0.063-0.086c0.076-0.103,0.148-0.205,0.221-0.312
	c0.144-0.215,0.281-0.433,0.405-0.659c0.146-0.264,0.277-0.534,0.345-0.83c0.09-0.39,0.07-0.789,0.015-1.181
	c-0.018-0.122-0.044-0.244-0.068-0.365c-0.038-0.197-0.095-0.39-0.173-0.575c-0.104-0.246-0.247-0.472-0.461-0.635
	c-0.096-0.074-0.204-0.125-0.321-0.154c-0.102-0.024-0.208-0.032-0.312-0.032C30.686,17.026,30.648,17.026,30.613,17.028"/>
<path opacity="0.9753" fill="#292521" d="M17.321,31.338c0.005-0.002,0.011-0.004,0.017-0.007
	C17.332,31.334,17.326,31.336,17.321,31.338 M17.213,31.384c0.001,0,0.001,0,0.002-0.001c0.011-0.004,0.021-0.009,0.031-0.014
	C17.236,31.374,17.224,31.379,17.213,31.384 M10.15,30.668c0.156,0.195,0.312,0.391,0.47,0.582c0.171,0.208,0.348,0.408,0.533,0.604
	c0.042,0.044,0.083,0.088,0.124,0.132c0.139,0.146,0.296,0.274,0.456,0.396c-0.02-0.006-0.04-0.014-0.06-0.021
	c-0.255-0.089-0.509-0.181-0.758-0.283c-0.143-0.063-0.28-0.136-0.408-0.225c-0.073-0.062-0.141-0.129-0.203-0.201
	c-0.04-0.059-0.074-0.118-0.104-0.181c-0.029-0.083-0.052-0.166-0.068-0.251C10.117,31.035,10.13,30.852,10.15,30.668
	 M23.487,17.475c-0.142,0.388-0.281,0.775-0.419,1.165c-0.087,0.246-0.181,0.49-0.271,0.734c-0.086,0.229-0.181,0.456-0.271,0.683
	c-0.103,0.259-0.199,0.52-0.292,0.783c-0.359,1.006-0.715,2.015-0.989,3.047c-0.068,0.258-0.125,0.521-0.188,0.78
	c-0.056,0.235-0.124,0.471-0.2,0.7c-0.087,0.266-0.174,0.531-0.268,0.794c-0.09,0.254-0.184,0.508-0.279,0.761
	c-0.077,0.21-0.16,0.417-0.242,0.624c-0.184,0.436-0.371,0.875-0.624,1.275c-0.142,0.225-0.297,0.439-0.446,0.659
	c-0.148,0.219-0.273,0.449-0.394,0.684c-0.048,0.094-0.099,0.186-0.15,0.277c-0.035,0.062-0.076,0.12-0.12,0.177
	c-0.104,0.128-0.22,0.241-0.347,0.347c-0.196,0.142-0.409,0.266-0.632,0.359c0.042-0.017,0.083-0.035,0.125-0.053
	c-0.088,0.037-0.176,0.075-0.265,0.112c-0.01,0.005-0.021,0.01-0.032,0.014c-0.004,0.002-0.008,0.003-0.012,0.005
	c0.028-0.013,0.055-0.023,0.083-0.035c-0.002,0.001-0.005,0.003-0.008,0.003c0.004-0.001,0.009-0.004,0.013-0.005
	c0.012-0.005,0.024-0.011,0.037-0.016c0,0-0.001,0-0.001,0.001c0.008-0.004,0.017-0.008,0.025-0.012
	c-0.004,0.003-0.009,0.004-0.013,0.006s-0.009,0.004-0.013,0.006c-0.394,0.14-0.799,0.245-1.209,0.318
	c-0.413,0.05-0.831,0.075-1.244,0.035c-0.079-0.015-0.157-0.03-0.234-0.052c-0.078-0.022-0.155-0.048-0.234-0.066
	c-0.099-0.022-0.202-0.033-0.303-0.038c-0.102-0.005-0.207,0.019-0.307,0.04c-0.126,0.026-0.249,0.079-0.373,0.116
	c-0.108,0.033-0.218,0.06-0.33,0.079c-0.071,0.006-0.141,0.007-0.212,0.003c-0.071-0.015-0.139-0.033-0.207-0.058
	c-0.127-0.062-0.244-0.136-0.357-0.22c-0.251-0.203-0.476-0.439-0.694-0.679c-0.159-0.176-0.311-0.357-0.46-0.542
	c-0.091-0.121-0.18-0.242-0.262-0.37c-0.091-0.142-0.187-0.281-0.261-0.434c-0.038-0.089-0.08-0.171-0.151-0.248
	c-0.109-0.119-0.285-0.212-0.452-0.203c-0.009,0-0.018,0.001-0.027,0.001c-0.097,0.001-0.187,0.025-0.271,0.074
	c-0.057,0.023-0.125,0.076-0.163,0.114c-0.086,0.086-0.153,0.187-0.202,0.297c-0.049,0.113-0.09,0.223-0.119,0.342
	c-0.021,0.087-0.037,0.176-0.05,0.265c-0.021,0.134-0.037,0.268-0.05,0.403c-0.007,0.072-0.015,0.146-0.02,0.22
	c-0.016,0.226-0.012,0.448,0.024,0.673c0.032,0.202,0.102,0.387,0.188,0.571c0.037,0.079,0.085,0.151,0.138,0.222
	c0.079,0.105,0.161,0.205,0.256,0.296c0.38,0.361,0.884,0.538,1.367,0.715c0.256,0.094,0.513,0.184,0.768,0.279
	c0.093,0.035,0.184,0.072,0.276,0.109c0.11,0.05,0.222,0.101,0.332,0.151c0.123,0.056,0.242,0.12,0.363,0.18
	c0.241,0.119,0.477,0.251,0.714,0.377c0.509,0.271,1.008,0.566,1.544,0.782c0.353,0.143,0.725,0.234,1.103,0.282
	c0.127,0.017,0.255,0.039,0.384,0.049c0.265,0.02,0.528,0.04,0.793,0.046c0.149,0.004,0.298,0.009,0.448,0.011
	c0.399,0.003,0.807-0.023,1.184-0.162c0.47-0.174,0.892-0.437,1.316-0.697c0.44-0.27,0.88-0.545,1.343-0.773
	c0.234-0.116,0.472-0.226,0.704-0.345c0.241-0.124,0.484-0.245,0.719-0.383c0.129-0.075,0.258-0.15,0.387-0.226
	c0.138-0.08,0.271-0.17,0.4-0.261c0.097-0.069,0.19-0.144,0.283-0.216c0.072-0.057,0.146-0.114,0.215-0.176
	c0.115-0.103,0.23-0.204,0.345-0.306c0.094-0.084,0.18-0.177,0.269-0.266c0.17-0.171,0.332-0.351,0.486-0.537
	c0.194-0.236,0.393-0.47,0.582-0.711c0.181-0.231,0.349-0.468,0.496-0.722c0.061-0.104,0.112-0.212,0.168-0.318
	c0.091-0.175,0.169-0.356,0.248-0.537c0.088-0.198,0.17-0.4,0.245-0.604c0.071-0.191,0.14-0.387,0.219-0.576
	c-0.016,0.04-0.032,0.08-0.049,0.118c0.041-0.097,0.082-0.194,0.122-0.291c0.054-0.11,0.104-0.222,0.165-0.329
	c0.07-0.126,0.145-0.248,0.221-0.371c0.06-0.096,0.126-0.188,0.186-0.283c0.077-0.123,0.152-0.246,0.225-0.372
	c0.281-0.487,0.501-1.013,0.716-1.532c0.019-0.045,0.037-0.091,0.057-0.135c0.104-0.231,0.209-0.462,0.329-0.687
	c0.121-0.227,0.245-0.452,0.363-0.682c0.067-0.133,0.119-0.275,0.174-0.415c0.045-0.116,0.086-0.235,0.127-0.354
	c0.083-0.243,0.162-0.487,0.243-0.73c0.026-0.076,0.053-0.152,0.081-0.227c0.095-0.209,0.229-0.398,0.346-0.596
	c0,0-0.001-0.001-0.002,0c-0.123,0.128-0.251,0.249-0.37,0.381c-0.083,0.092-0.148,0.191-0.212,0.296
	c-0.062,0.102-0.121,0.203-0.18,0.307c-0.135,0.235-0.271,0.472-0.409,0.705c-0.261,0.437-0.597,0.82-0.878,1.243
	c-0.287,0.43-0.523,0.889-0.79,1.331c-0.143,0.238-0.29,0.474-0.446,0.704c-0.141,0.206-0.295,0.404-0.434,0.611
	c-0.1,0.149-0.198,0.301-0.277,0.462c-0.096,0.194-0.186,0.391-0.263,0.593c-0.07,0.182-0.138,0.364-0.204,0.547
	c-0.054,0.146-0.113,0.29-0.172,0.434c-0.067,0.153-0.132,0.307-0.21,0.454c-0.053,0.105-0.108,0.21-0.162,0.314
	c-0.11,0.212-0.25,0.412-0.396,0.603c-0.269,0.344-0.551,0.679-0.842,1.004c-0.137,0.152-0.286,0.294-0.433,0.438
	c-0.076,0.076-0.162,0.146-0.244,0.217c-0.11,0.098-0.223,0.192-0.338,0.284c-0.298,0.224-0.622,0.419-0.95,0.599
	c-0.238,0.131-0.477,0.266-0.721,0.386c-0.25,0.122-0.499,0.244-0.748,0.368c-0.127,0.063-0.25,0.138-0.375,0.208
	c-0.117,0.063-0.231,0.133-0.348,0.2c-0.502,0.29-0.986,0.62-1.517,0.857c-0.156,0.061-0.313,0.104-0.478,0.132
	c-0.263,0.027-0.525,0.019-0.789,0.012c-0.159-0.004-0.317-0.011-0.476-0.018c-0.156-0.008-0.311-0.021-0.467-0.033
	c-0.095-0.007-0.19-0.02-0.284-0.032c-0.334-0.056-0.658-0.142-0.972-0.265c-0.096-0.043-0.193-0.085-0.285-0.134
	c-0.117-0.062-0.233-0.124-0.349-0.187c-0.229-0.125-0.458-0.252-0.688-0.376c-0.236-0.128-0.471-0.259-0.711-0.381
	c-0.144-0.072-0.287-0.146-0.432-0.216c0.029,0.002,0.059,0.004,0.088,0.004c0.072,0.002,0.146-0.01,0.218-0.02
	c0.098-0.013,0.197-0.023,0.292-0.047c0.059-0.014,0.119-0.024,0.176-0.042c0.139-0.039,0.277-0.092,0.417-0.125
	c0.019,0,0.037,0,0.056,0.001c0.14,0.029,0.276,0.074,0.417,0.1c0.172,0.031,0.347,0.053,0.522,0.064
	c0.252,0.017,0.509,0.005,0.76-0.016c0.176-0.014,0.351-0.035,0.525-0.062c0.116-0.017,0.23-0.05,0.343-0.079
	c0.25-0.067,0.504-0.128,0.749-0.214c0.375-0.131,0.747-0.289,1.074-0.517c0.172-0.12,0.337-0.253,0.482-0.405
	c0.103-0.108,0.189-0.23,0.28-0.349c0.074-0.096,0.135-0.203,0.192-0.311c0.122-0.232,0.239-0.467,0.376-0.691
	c0.135-0.224,0.284-0.438,0.421-0.658c0.296-0.475,0.513-0.991,0.729-1.506c0.201-0.48,0.381-0.97,0.551-1.462
	c0.179-0.514,0.343-1.032,0.473-1.562c0.063-0.261,0.108-0.528,0.157-0.793c0.05-0.268,0.113-0.533,0.174-0.799
	c0.058-0.261,0.119-0.52,0.177-0.78c0.055-0.237,0.116-0.474,0.171-0.712c0.12-0.521,0.229-1.046,0.349-1.568
	c0.064-0.281,0.131-0.564,0.182-0.849c0.029-0.165,0.062-0.33,0.086-0.496c0.022-0.161,0.045-0.323,0.066-0.484
	c0,0.004-0.002,0.008-0.002,0.013C23.408,18.144,23.448,17.81,23.487,17.475L23.487,17.475L23.487,17.475"/>
<path opacity="0.9753" fill="#292521" d="M21.586,30.337L21.586,30.337C21.586,30.337,21.586,30.337,21.586,30.337L21.586,30.337
	 M21.609,30.319c-0.008,0.005-0.016,0.011-0.023,0.018l0,0C21.594,30.33,21.602,30.324,21.609,30.319 M22.109,29.933
	c0,0-0.001,0-0.001,0c-0.002,0.002-0.004,0.004-0.007,0.005C22.104,29.937,22.106,29.934,22.109,29.933 M25.631,24.032
	c-0.003,0.006-0.005,0.013-0.009,0.02C25.626,24.045,25.628,24.038,25.631,24.032 M25.639,24.016
	c-0.002,0.004-0.003,0.008-0.006,0.012C25.635,24.023,25.637,24.02,25.639,24.016 M25.72,23.821
	c-0.003,0.008-0.007,0.016-0.011,0.024C25.713,23.837,25.717,23.829,25.72,23.821 M26.092,22.687
	c-0.125,0.388-0.229,0.782-0.384,1.161c-0.025,0.061-0.051,0.122-0.076,0.183c-0.2,0.467-0.413,0.928-0.646,1.38
	c-0.119,0.233-0.243,0.463-0.374,0.689c-0.137,0.237-0.274,0.474-0.396,0.718c-0.062,0.128-0.126,0.256-0.19,0.385
	c-0.068,0.139-0.134,0.282-0.206,0.42c-0.258,0.495-0.513,0.994-0.847,1.444c-0.122,0.151-0.251,0.296-0.387,0.436
	c-0.146,0.15-0.305,0.297-0.47,0.426c-0.147,0.114-0.295,0.229-0.443,0.343c-0.381,0.279-0.761,0.561-1.141,0.841
	c-0.202,0.148-0.407,0.294-0.612,0.439c-0.512,0.367-1.043,0.707-1.621,0.96c-0.263,0.106-0.531,0.183-0.811,0.226
	c-0.116,0.014-0.232,0.022-0.35,0.023c-0.138,0.002-0.275-0.005-0.413-0.01c-0.26-0.008-0.52-0.029-0.778-0.062
	c-0.3-0.043-0.597-0.102-0.89-0.18c-0.193-0.051-0.384-0.111-0.574-0.171c-0.138-0.044-0.276-0.088-0.415-0.131
	c-0.083-0.026-0.164-0.06-0.245-0.089c-0.197-0.074-0.393-0.147-0.586-0.227c-0.313-0.129-0.626-0.256-0.94-0.384
	c0,0-0.001,0.001,0,0.001c0.326,0.232,0.654,0.461,0.983,0.686c0.08,0.054,0.16,0.104,0.243,0.153
	c0.079,0.049,0.159,0.098,0.239,0.146c0.041,0.025,0.082,0.053,0.125,0.075c0.377,0.198,0.754,0.396,1.15,0.555
	c0.365,0.147,0.745,0.256,1.13,0.333c0.201,0.04,0.404,0.068,0.607,0.094c0.198,0.024,0.395,0.049,0.595,0.049
	c0.397,0,0.795-0.069,1.17-0.199c0.383-0.133,0.749-0.312,1.097-0.518c0.415-0.245,0.797-0.546,1.185-0.832
	c0.432-0.319,0.861-0.645,1.292-0.966c0.111-0.082,0.22-0.168,0.329-0.254c0.119-0.091,0.239-0.181,0.354-0.276
	c0.287-0.24,0.554-0.498,0.785-0.793c0.249-0.315,0.453-0.658,0.632-1.019c0.269-0.544,0.471-1.115,0.7-1.676
	c0.043-0.104,0.086-0.207,0.127-0.31c0.115-0.263,0.226-0.526,0.334-0.792c0.093-0.232,0.166-0.475,0.239-0.715
	c0.08-0.253,0.151-0.51,0.215-0.769c0.086-0.349,0.167-0.7,0.205-1.059C26.059,23.178,26.073,22.932,26.092,22.687
	C26.093,22.686,26.093,22.686,26.092,22.687C26.093,22.686,26.092,22.686,26.092,22.687"/>
</svg>
