<?xml version="1.0" encoding="utf-8"?>
<!-- Generator: Adobe Illustrator 15.0.0, SVG Export Plug-In . SVG Version: 6.00 Build 0)  -->
<!DOCTYPE svg PUBLIC "-//W3C//DTD SVG 1.1//EN" "http://www.w3.org/Graphics/SVG/1.1/DTD/svg11.dtd">
<svg version="1.1" id="Capa_1" xmlns="http://www.w3.org/2000/svg" xmlns:xlink="http://www.w3.org/1999/xlink" x="0px" y="0px"
	 width="44px" height="44px" viewBox="0 0 44 44" enable-background="new 0 0 44 44" xml:space="preserve">
<path opacity="0.9753" fill="#292521" d="M20.035,35.087c0,0-0.001,0.001-0.002,0.002C20.034,35.088,20.035,35.087,20.035,35.087
	 M20.038,35.085c0,0.001,0,0.001-0.001,0.001C20.037,35.086,20.037,35.086,20.038,35.085 M24.654,14.495
	c-0.03,0.021-0.061,0.043-0.088,0.065c-0.091,0.068-0.183,0.135-0.274,0.202c-0.398,0.291-0.795,0.588-1.18,0.899
	c-0.387,0.312-0.754,0.646-1.125,0.977c-0.165,0.148-0.326,0.301-0.487,0.454c-0.165,0.157-0.329,0.317-0.481,0.487
	c-0.093,0.104-0.187,0.209-0.279,0.313c-0.08,0.088-0.153,0.183-0.229,0.275c-0.154,0.185-0.303,0.375-0.449,0.568
	c-0.289,0.383-0.575,0.768-0.822,1.179c-0.208,0.346-0.411,0.694-0.607,1.048c-0.068,0.124-0.136,0.248-0.207,0.371
	c-0.021-0.088-0.042-0.174-0.061-0.262c-0.04-0.175-0.069-0.354-0.104-0.53c-0.021-0.108-0.061-0.204-0.105-0.304
	c-0.028-0.039-0.058-0.078-0.089-0.116c-0.055-0.055-0.15-0.115-0.226-0.133c-0.131-0.032-0.287-0.029-0.404,0.049
	c-0.04,0.026-0.079,0.056-0.115,0.087c-0.042,0.041-0.076,0.091-0.113,0.138c-0.022,0.03-0.045,0.061-0.067,0.091
	c-0.019,0.026-0.038,0.052-0.057,0.077c-0.149,0.19-0.298,0.381-0.435,0.58c-0.136,0.199-0.253,0.408-0.368,0.62
	c-0.054,0.102-0.103,0.206-0.152,0.311c-0.059,0.125-0.114,0.254-0.163,0.383c-0.044,0.116-0.088,0.229-0.125,0.348
	c-0.039,0.121-0.075,0.243-0.111,0.365c-0.137,0.469-0.259,0.942-0.324,1.427c0.005-0.039,0.01-0.077,0.016-0.117
	c-0.018,0.134-0.036,0.268-0.054,0.402c-0.014,0.098-0.019,0.198-0.027,0.298c-0.017,0.188-0.028,0.378-0.045,0.567
	c-0.017,0.184-0.042,0.368-0.065,0.551c-0.022,0.187-0.036,0.376-0.059,0.563c-0.008,0.053-0.017,0.104-0.027,0.157
	c-0.029-0.016-0.059-0.029-0.088-0.044c-0.072-0.033-0.145-0.063-0.218-0.094c-0.033-0.013-0.067-0.022-0.101-0.031
	c-0.112-0.028-0.201-0.023-0.312-0.005c-0.232,0.037-0.396,0.246-0.444,0.466c-0.024,0.106-0.031,0.22-0.03,0.328
	c0,0.112,0.006,0.224,0.012,0.335c0.012,0.271,0.042,0.538,0.08,0.807c0.016,0.119,0.041,0.236,0.064,0.353
	c0.021,0.104,0.045,0.208,0.076,0.31c0.078,0.255,0.173,0.503,0.291,0.741c0.052,0.107,0.103,0.213,0.161,0.315
	c0.062,0.109,0.125,0.218,0.189,0.325c0.127,0.21,0.268,0.411,0.412,0.611c0.154,0.213,0.325,0.413,0.498,0.611
	c0.154,0.175,0.322,0.341,0.487,0.507c0.154,0.155,0.309,0.309,0.469,0.458c0.178,0.168,0.359,0.331,0.542,0.493
	c0.1,0.088,0.206,0.17,0.309,0.254c0.204,0.166,0.423,0.312,0.66,0.426c0.178,0.085,0.37,0.144,0.561,0.192
	c0.198,0.051,0.398,0.094,0.597,0.139c0,0,0.001,0,0-0.001c-0.363-0.179-0.742-0.34-1.067-0.585
	c-0.164-0.13-0.318-0.274-0.457-0.433c-0.083-0.095-0.167-0.189-0.251-0.284c-0.115-0.129-0.225-0.263-0.334-0.396
	c-0.258-0.312-0.511-0.626-0.766-0.94c-0.062-0.08-0.125-0.161-0.188-0.243c-0.104-0.145-0.208-0.289-0.306-0.439
	c-0.094-0.145-0.184-0.289-0.268-0.439c-0.094-0.167-0.187-0.333-0.272-0.506c-0.043-0.085-0.085-0.172-0.128-0.258
	c-0.026-0.051-0.048-0.105-0.07-0.158c-0.038-0.096-0.079-0.189-0.113-0.285c-0.041-0.119-0.079-0.236-0.113-0.356
	c-0.051-0.179-0.081-0.363-0.108-0.548c-0.019-0.184-0.032-0.367-0.034-0.551c0-0.045-0.001-0.088-0.002-0.132
	c0.023,0.016,0.048,0.029,0.073,0.042c0.068,0.032,0.137,0.062,0.207,0.088c0.055,0.021,0.117,0.02,0.175,0.025
	c0.052-0.006,0.103-0.012,0.154-0.021c0.047-0.017,0.093-0.036,0.139-0.057c0.196-0.108,0.302-0.306,0.364-0.512
	c0.056-0.184,0.078-0.381,0.098-0.57c0.014-0.134,0.021-0.268,0.03-0.402c0.017-0.243,0.039-0.485,0.063-0.728
	c0.022-0.218,0.031-0.434,0.048-0.651c0.008-0.098,0.011-0.197,0.024-0.293c0.007-0.061,0.015-0.12,0.023-0.181
	c0.059-0.338,0.126-0.672,0.222-1.001c0.05-0.17,0.097-0.342,0.15-0.511c0.028-0.089,0.051-0.18,0.084-0.265
	c0.031-0.081,0.061-0.161,0.091-0.243c0.091-0.209,0.186-0.419,0.301-0.618c0.07-0.122,0.142-0.241,0.216-0.36
	c0.042-0.068,0.09-0.133,0.14-0.198c0.004,0.015,0.007,0.029,0.011,0.044c0.057,0.223,0.12,0.445,0.184,0.667
	c0.042,0.148,0.083,0.296,0.148,0.436c0.024,0.049,0.065,0.089,0.099,0.13c0.037,0.046,0.163,0.123,0.221,0.131
	c0.056,0.009,0.111,0.024,0.168,0.018c0.082-0.011,0.185-0.019,0.256-0.071c0.048-0.036,0.099-0.069,0.139-0.114
	c0.04-0.044,0.076-0.098,0.111-0.146c0.042-0.056,0.077-0.118,0.112-0.178c0.117-0.205,0.233-0.41,0.343-0.619
	c0.108-0.207,0.212-0.417,0.324-0.622c0.127-0.231,0.256-0.462,0.387-0.692c0.238-0.416,0.519-0.804,0.802-1.19
	c0.08-0.109,0.163-0.216,0.247-0.323c0.151-0.185,0.302-0.369,0.459-0.548c0.145-0.164,0.292-0.329,0.451-0.479
	c0.35-0.333,0.708-0.658,1.068-0.98c0.125-0.113,0.252-0.223,0.381-0.333c0.035-0.03,0.071-0.06,0.107-0.088
	c-0.041,0.073-0.082,0.148-0.123,0.223c-0.128,0.231-0.252,0.463-0.373,0.698c-0.107,0.21-0.201,0.426-0.298,0.642
	c-0.06,0.134-0.11,0.271-0.162,0.408c-0.041,0.107-0.074,0.216-0.107,0.326c-0.068,0.222-0.118,0.449-0.168,0.675
	c-0.051,0.229-0.098,0.462-0.145,0.692c-0.054,0.266-0.083,0.538-0.108,0.807c-0.021,0.223-0.029,0.447-0.036,0.671
	c-0.012,0.465-0.013,0.931-0.025,1.395c-0.002,0.087-0.006,0.172-0.006,0.258c0,0.07,0.007,0.146,0.033,0.213
	c0.022,0.081,0.063,0.151,0.123,0.212c0.034,0.042,0.081,0.07,0.125,0.101c0.044,0.029,0.09,0.047,0.141,0.053
	c0.093,0.017,0.189,0.027,0.281-0.002c0.078-0.025,0.15-0.059,0.219-0.102c0.075-0.048,0.143-0.107,0.212-0.161
	c0.041-0.033,0.082-0.069,0.122-0.105c0.04-0.037,0.08-0.074,0.12-0.111c0.071-0.065,0.141-0.133,0.209-0.2
	c0.242-0.233,0.485-0.463,0.747-0.672c0.007-0.004,0.013-0.009,0.02-0.014c-0.005,0.12-0.017,0.239-0.03,0.358
	c-0.035,0.217-0.067,0.435-0.098,0.653c-0.036,0.267-0.055,0.535-0.065,0.806c-0.009,0.233-0.014,0.468-0.014,0.702
	c-0.001,0.258,0.026,0.516,0.071,0.77c0.033,0.186,0.067,0.371,0.108,0.555c0.043,0.193,0.097,0.383,0.157,0.571
	c0.125,0.385,0.296,0.751,0.458,1.121c0.064,0.15,0.128,0.301,0.187,0.453c0.063,0.164,0.12,0.33,0.188,0.492
	c0.046,0.113,0.09,0.236,0.153,0.343c0.041,0.069,0.091,0.132,0.141,0.193c0.02,0.024,0.041,0.047,0.062,0.067
	c0.05,0.047,0.106,0.093,0.167,0.124c0.104,0.053,0.223,0.088,0.34,0.075c0.086,0,0.169-0.021,0.243-0.066
	c0.007-0.002,0.012-0.005,0.019-0.007c0.016,0.221,0.023,0.442,0.029,0.664c0.005,0.167,0.009,0.336,0.012,0.505
	c0.005,0.214,0.009,0.433-0.011,0.647c-0.029,0.175-0.078,0.345-0.143,0.509c-0.137,0.305-0.305,0.588-0.499,0.857
	c-0.081,0.104-0.161,0.208-0.251,0.306c-0.058,0.062-0.111,0.129-0.172,0.188c-0.073,0.068-0.145,0.136-0.217,0.204
	c-0.212,0.201-0.441,0.388-0.67,0.57c-0.146,0.106-0.292,0.213-0.448,0.307c-0.092,0.054-0.185,0.108-0.28,0.159
	c-0.085,0.046-0.17,0.088-0.257,0.128c-0.084,0.035-0.168,0.067-0.256,0.093c-0.005,0.003-0.011,0.004-0.016,0.006
	c0.016-0.027,0.032-0.053,0.047-0.08c0.055-0.092,0.104-0.188,0.152-0.284c0.124-0.255,0.232-0.513,0.333-0.777
	c0.151-0.401,0.222-0.826,0.252-1.254c0.005-0.079,0.011-0.157,0.016-0.236c0.01-0.194-0.011-0.39-0.056-0.579
	c-0.017-0.074-0.045-0.148-0.074-0.219c-0.041-0.1-0.083-0.195-0.137-0.287c-0.046-0.08-0.098-0.155-0.15-0.229
	c-0.156-0.222-0.317-0.441-0.497-0.646c-0.154-0.175-0.318-0.34-0.489-0.498c-0.171-0.156-0.35-0.306-0.514-0.467
	c-0.171-0.166-0.343-0.333-0.499-0.514c-0.052-0.061-0.106-0.119-0.156-0.181c-0.155-0.202-0.305-0.406-0.414-0.638
	c-0.038-0.102-0.067-0.203-0.086-0.308c-0.017-0.157-0.028-0.314-0.033-0.473c-0.002-0.072-0.004-0.146-0.003-0.219
	c0.001-0.041,0.002-0.083,0.003-0.124c0.002-0.061,0.006-0.121,0.003-0.181c0.007-0.123-0.055-0.254-0.14-0.339
	c-0.089-0.089-0.211-0.14-0.338-0.14c-0.126,0-0.249,0.051-0.338,0.14c-0.093,0.093-0.134,0.21-0.14,0.339
	c-0.003,0.061,0.001,0.121,0.005,0.183c0,0.103-0.006,0.204-0.016,0.306c-0.083,0.476-0.181,0.948-0.21,1.43
	c-0.014,0.236-0.022,0.474-0.026,0.711c-0.003,0.227-0.009,0.457,0.018,0.684c0.02,0.167,0.039,0.335,0.074,0.501
	c0.034,0.162,0.086,0.317,0.141,0.474c0.072,0.202,0.159,0.4,0.243,0.597c-0.008-0.02-0.017-0.039-0.025-0.058
	c0.023,0.054,0.046,0.106,0.069,0.161c-0.011-0.002-0.021-0.002-0.032-0.003c-0.108-0.02-0.213-0.045-0.316-0.082
	c-0.15-0.07-0.291-0.156-0.425-0.254c-0.171-0.14-0.324-0.297-0.463-0.468c-0.059-0.072-0.116-0.146-0.173-0.22
	c-0.058-0.076-0.115-0.154-0.171-0.232c-0.041-0.057-0.079-0.115-0.119-0.173c-0.029-0.041-0.064-0.097-0.097-0.128
	c-0.038-0.036-0.081-0.069-0.125-0.097c-0.063-0.04-0.167-0.064-0.241-0.064c-0.121,0-0.241,0.055-0.326,0.14
	c-0.079,0.08-0.129,0.188-0.147,0.297c-0.018,0.104-0.027,0.206-0.026,0.312c0.001,0.079,0.008,0.157,0.013,0.236
	c0.01,0.147,0.035,0.294,0.058,0.438c0.025,0.155,0.062,0.31,0.109,0.46c0.068,0.22,0.167,0.43,0.262,0.638
	c0.098,0.216,0.217,0.42,0.337,0.624c0.111,0.187,0.236,0.364,0.358,0.543c0.134,0.195,0.29,0.376,0.439,0.562
	c0.135,0.167,0.271,0.336,0.415,0.498c0.144,0.162,0.299,0.319,0.48,0.442c0.004,0.004,0.007,0.007,0.011,0.01
	c0.002,0.004,0.004,0.008,0.007,0.011c0,0.003,0,0.004,0.001,0.006c-0.001,0.001-0.001,0.003-0.002,0.005
	c0.001-0.001,0.002-0.002,0.003-0.004c0,0.001,0,0.001,0,0.001c-0.007,0.01-0.016,0.019-0.025,0.026
	c-0.05,0.035-0.106,0.06-0.157,0.094c0,0,0,0.001,0,0c0.082-0.03,0.32-0.057,0.217-0.195c-0.026-0.037-0.059-0.07-0.088-0.104
	c-0.023-0.028-0.045-0.056-0.068-0.084c-0.226-0.312-0.404-0.657-0.589-0.994c-0.09-0.165-0.185-0.327-0.265-0.497
	c-0.081-0.172-0.158-0.345-0.234-0.519c-0.036-0.09-0.071-0.181-0.107-0.271c-0.037-0.093-0.065-0.188-0.097-0.283
	c-0.032-0.091-0.056-0.185-0.083-0.277c-0.047-0.16-0.087-0.321-0.116-0.486c0.137,0.166,0.286,0.321,0.457,0.458
	c0.143,0.113,0.29,0.221,0.451,0.31c0.169,0.092,0.352,0.165,0.539,0.211c0.18,0.043,0.37,0.071,0.555,0.062
	c0.237-0.012,0.478-0.066,0.661-0.228c0.181-0.159,0.236-0.42,0.158-0.644c-0.03-0.089-0.068-0.173-0.106-0.259
	c-0.045-0.1-0.102-0.192-0.151-0.291c-0.045-0.09-0.087-0.182-0.127-0.273c-0.033-0.082-0.064-0.164-0.093-0.248
	c-0.062-0.179-0.11-0.363-0.143-0.55c-0.007-0.058-0.013-0.115-0.02-0.173c-0.009-0.073-0.008-0.148-0.012-0.223
	c-0.007-0.152-0.001-0.305,0-0.457c0.002-0.101,0.004-0.203,0.009-0.304c0.006,0.008,0.012,0.017,0.018,0.024
	c0.065,0.083,0.127,0.169,0.195,0.25c0.153,0.18,0.307,0.358,0.474,0.526c0.108,0.108,0.216,0.217,0.33,0.32
	c0.116,0.105,0.23,0.212,0.344,0.32c0.112,0.106,0.218,0.217,0.326,0.327c0.087,0.091,0.167,0.188,0.249,0.284
	c0.052,0.069,0.104,0.139,0.153,0.209c0.118,0.17,0.239,0.336,0.329,0.522c0.031,0.085,0.056,0.172,0.072,0.262
	c0.019,0.234-0.008,0.472-0.034,0.705c-0.016,0.101-0.034,0.2-0.059,0.299c-0.035,0.144-0.084,0.283-0.136,0.422
	c-0.023,0.061-0.048,0.12-0.073,0.18c-0.1,0.211-0.2,0.42-0.316,0.621c-0.059,0.103-0.122,0.203-0.182,0.305
	c-0.068,0.116-0.12,0.236-0.169,0.361c-0.037,0.093-0.056,0.196-0.062,0.296c-0.002,0.031-0.002,0.061,0.001,0.091
	c0.01,0.096,0.021,0.206,0.077,0.29c0.036,0.054,0.072,0.108,0.124,0.15c0.032,0.024,0.064,0.05,0.097,0.074
	c0.049,0.021,0.099,0.041,0.148,0.062c0.013,0.003,0.026,0.007,0.039,0.009c0.05,0.009,0.1,0.015,0.149,0.02
	c0.025,0.002,0.051,0,0.076-0.001c0.107-0.008,0.215-0.029,0.32-0.052c0.106-0.023,0.214-0.056,0.316-0.093
	c0.255-0.093,0.502-0.204,0.737-0.337c0.192-0.107,0.386-0.223,0.562-0.356c0.119-0.09,0.24-0.177,0.356-0.272
	c0.096-0.08,0.192-0.16,0.286-0.242c0.185-0.158,0.363-0.32,0.539-0.486c0.174-0.165,0.326-0.35,0.479-0.536
	c0.173-0.215,0.334-0.438,0.474-0.677c0.184-0.314,0.337-0.657,0.414-1.013c0.081-0.372,0.069-0.762,0.071-1.141
	c0.001-0.225,0.004-0.449-0.004-0.674c-0.01-0.274-0.021-0.55-0.081-0.819c-0.028-0.116-0.074-0.229-0.121-0.339
	c-0.048-0.113-0.115-0.21-0.197-0.3c-0.064-0.07-0.162-0.118-0.253-0.146c-0.094-0.029-0.203-0.021-0.296,0.005
	c-0.124,0.035-0.215,0.109-0.293,0.198c-0.017-0.035-0.032-0.07-0.048-0.105c-0.042-0.106-0.083-0.211-0.126-0.316
	c-0.06-0.143-0.124-0.283-0.186-0.425c-0.095-0.222-0.196-0.44-0.295-0.66c-0.047-0.12-0.092-0.24-0.136-0.361
	c-0.05-0.141-0.088-0.284-0.127-0.428c-0.069-0.26-0.113-0.528-0.158-0.793c-0.007-0.058-0.013-0.114-0.02-0.17
	c-0.01-0.081-0.009-0.165-0.013-0.246c-0.008-0.151,0-0.306,0.005-0.456c0.01-0.317,0.029-0.631,0.064-0.946
	c0.032-0.211,0.066-0.419,0.104-0.629c0.028-0.149,0.043-0.303,0.059-0.455c0.03-0.316,0.014-0.653-0.137-0.941
	c-0.028-0.052-0.07-0.097-0.109-0.142c-0.06-0.068-0.152-0.108-0.234-0.141c-0.059-0.021-0.121-0.027-0.184-0.028
	c-0.104-0.002-0.171,0.03-0.265,0.069c-0.073,0.032-0.141,0.078-0.206,0.124c-0.099,0.066-0.195,0.135-0.291,0.207
	c-0.206,0.154-0.399,0.325-0.594,0.492c-0.108,0.094-0.215,0.19-0.32,0.287c-0.002-0.196-0.004-0.391-0.006-0.586
	c-0.001-0.234-0.001-0.469,0.003-0.704c0.004-0.216,0.021-0.431,0.043-0.646c0.058-0.364,0.131-0.726,0.21-1.086
	c0.037-0.172,0.08-0.342,0.131-0.51c0.024-0.082,0.046-0.166,0.077-0.246c0.033-0.087,0.066-0.175,0.1-0.263
	c0.093-0.204,0.189-0.405,0.288-0.606c0.103-0.208,0.221-0.41,0.338-0.611c0.233-0.405,0.475-0.807,0.72-1.206
	c0.129-0.208,0.266-0.41,0.401-0.613c0.041-0.061,0.08-0.124,0.121-0.184c0.033-0.046,0.055-0.101,0.063-0.156
	c0.005-0.041,0.011-0.083,0.017-0.125c-0.001-0.084-0.021-0.162-0.064-0.236c-0.052-0.068-0.093-0.136-0.174-0.176
	c-0.085-0.042-0.148-0.069-0.246-0.069C24.842,14.422,24.713,14.452,24.654,14.495"/>
<path opacity="0.9753" fill="#292521" d="M25.879,19.156c0,0.001,0.003,0.001,0.004,0.002
	C25.882,19.157,25.879,19.157,25.879,19.156 M28.193,15.556c0,0.002,0,0.003-0.001,0.005C28.192,15.56,28.192,15.559,28.193,15.556
	C28.193,15.557,28.193,15.557,28.193,15.556 M28.235,15.516c0.009,0.02,0.018,0.039,0.026,0.06
	C28.253,15.555,28.244,15.536,28.235,15.516 M20.875,8.414c-0.313,0.037-0.619,0.095-0.911,0.214
	c-0.146,0.06-0.288,0.125-0.426,0.201c-0.146,0.082-0.28,0.182-0.411,0.286c-0.219,0.172-0.414,0.368-0.584,0.587
	c-0.188,0.244-0.354,0.496-0.481,0.777c-0.072,0.159-0.137,0.321-0.188,0.488c-0.032,0.107-0.06,0.215-0.097,0.321
	c-0.095,0.021-0.191,0.038-0.284,0.061c-0.27,0.068-0.535,0.155-0.774,0.301c-0.147,0.089-0.282,0.208-0.394,0.337
	c-0.128,0.148-0.224,0.306-0.295,0.488c-0.109,0.274-0.118,0.572-0.094,0.862c0.022,0.261,0.048,0.521,0.085,0.78
	c0.034,0.237,0.082,0.469,0.161,0.695c0.072,0.203,0.173,0.396,0.281,0.582c0.166,0.283,0.333,0.566,0.504,0.846
	c0,0.001,0.001,0,0.001,0c-0.082-0.25-0.164-0.5-0.247-0.75c-0.091-0.275-0.183-0.547-0.227-0.835
	c-0.033-0.275-0.032-0.553-0.021-0.829c0.01-0.238,0.015-0.479,0.041-0.716c0.017-0.101,0.042-0.199,0.077-0.295
	c0.034-0.074,0.074-0.143,0.121-0.209c0.059-0.07,0.124-0.134,0.194-0.193c0.08-0.057,0.163-0.104,0.25-0.145
	c0.166-0.062,0.338-0.097,0.512-0.124c0.052-0.005,0.103-0.011,0.155-0.014c0.049-0.002,0.098-0.002,0.147-0.006
	c0.056-0.005,0.118-0.012,0.174-0.028c0.095-0.026,0.186-0.086,0.259-0.15c0.169-0.151,0.235-0.374,0.305-0.582
	c0.054-0.157,0.104-0.313,0.165-0.468c0.111-0.249,0.246-0.483,0.408-0.702c0.142-0.175,0.3-0.334,0.475-0.476
	c0.154-0.112,0.317-0.207,0.491-0.286c0.194-0.076,0.396-0.125,0.601-0.157c0.127-0.015,0.254-0.022,0.382-0.014
	c0.044,0.01,0.087,0.021,0.13,0.036c0.019,0.01,0.037,0.021,0.055,0.032c0.022,0.021,0.045,0.042,0.065,0.065
	c0.037,0.056,0.07,0.114,0.098,0.174c0.042,0.112,0.073,0.224,0.093,0.34c0.001,0.024,0.003,0.047,0.004,0.073
	c-0.007,0.032-0.012,0.064-0.009,0.091c0.01,0.095,0.015,0.167,0.064,0.252c0.041,0.068,0.108,0.137,0.177,0.177
	c0.042,0.019,0.084,0.036,0.126,0.054c0.082,0.021,0.164,0.021,0.245,0c0.095-0.019,0.17-0.075,0.254-0.117
	c0.064-0.033,0.129-0.065,0.194-0.095c0.314-0.125,0.645-0.203,0.979-0.252c0.217-0.027,0.435-0.042,0.651-0.021
	c0.133,0.024,0.261,0.059,0.386,0.107c0.13,0.06,0.253,0.131,0.368,0.215c0.111,0.091,0.217,0.19,0.311,0.301
	c0.057,0.081,0.109,0.166,0.152,0.255c0.018,0.048,0.031,0.097,0.043,0.146c0,0.029-0.002,0.059-0.004,0.089
	c-0.002,0.019-0.002,0.036,0.002,0.053c0.004,0.041,0.011,0.083,0.017,0.125c0.016,0.05,0.037,0.097,0.063,0.142
	c0.073,0.135,0.214,0.216,0.34,0.295c0.13,0.081,0.257,0.163,0.381,0.254c0.271,0.216,0.524,0.458,0.743,0.727
	c0.109,0.148,0.203,0.306,0.28,0.473c0.103,0.266,0.169,0.541,0.21,0.823c0.023,0.188,0.037,0.38,0.021,0.569
	c-0.011,0.06-0.027,0.117-0.048,0.174c-0.03,0.064-0.066,0.125-0.106,0.184c-0.042,0.051-0.084,0.102-0.122,0.156
	c-0.032,0.048-0.052,0.109-0.062,0.167c-0.018,0.106-0.023,0.207,0.005,0.312c0.046,0.17,0.145,0.315,0.227,0.467
	c0.089,0.165,0.182,0.328,0.26,0.498c0.091,0.236,0.151,0.486,0.19,0.737c0.02,0.166,0.033,0.329,0.018,0.495
	c-0.017,0.103-0.041,0.202-0.078,0.299c-0.055,0.116-0.123,0.225-0.199,0.328c-0.084,0.103-0.175,0.194-0.278,0.278
	c-0.117,0.086-0.243,0.156-0.377,0.214c-0.269,0.109-0.557,0.181-0.844,0.221c-0.108,0.012-0.215,0.011-0.321,0.001
	c-0.017-0.003-0.034-0.009-0.049-0.015c-0.106-0.045-0.201-0.112-0.303-0.167c0-0.001-0.001,0,0,0
	c0.089,0.08,0.169,0.168,0.267,0.237c0.038,0.026,0.079,0.038,0.123,0.051c0.061,0.016,0.121,0.03,0.184,0.038
	c0.169,0.022,0.341,0.016,0.509,0.007c0.289-0.015,0.588-0.062,0.856-0.174c0.274-0.114,0.511-0.29,0.712-0.507
	c0.102-0.11,0.192-0.233,0.262-0.368c0.071-0.139,0.123-0.29,0.155-0.442c0.036-0.161,0.042-0.328,0.046-0.492
	c0.003-0.166-0.009-0.331-0.028-0.496c-0.021-0.171-0.048-0.34-0.093-0.505c-0.03-0.107-0.071-0.214-0.114-0.317
	c-0.027-0.064-0.055-0.127-0.08-0.191c-0.048-0.111-0.098-0.221-0.148-0.331c0.022-0.034,0.045-0.068,0.065-0.104
	c0.066-0.117,0.119-0.243,0.163-0.37c0.044-0.126,0.058-0.262,0.068-0.393c0.009-0.121,0.002-0.243-0.006-0.363
	c-0.02-0.271-0.06-0.541-0.116-0.806c-0.055-0.26-0.146-0.511-0.259-0.75c-0.11-0.238-0.264-0.45-0.427-0.654
	c-0.151-0.189-0.319-0.361-0.496-0.527c-0.085-0.08-0.173-0.156-0.265-0.228c-0.091-0.073-0.184-0.149-0.282-0.213
	c-0.052-0.033-0.105-0.067-0.157-0.101c-0.006-0.04-0.016-0.08-0.029-0.119c-0.036-0.11-0.086-0.22-0.14-0.324
	c-0.098-0.195-0.237-0.375-0.387-0.532c-0.156-0.167-0.34-0.312-0.53-0.44c-0.199-0.134-0.43-0.232-0.66-0.302
	c-0.126-0.039-0.257-0.057-0.388-0.075c-0.119-0.015-0.237-0.021-0.357-0.017c-0.255,0.006-0.509,0.038-0.76,0.076
	c-0.225,0.035-0.445,0.086-0.661,0.156c-0.046,0.014-0.091,0.03-0.136,0.046c-0.028-0.085-0.062-0.17-0.098-0.254
	c-0.116-0.274-0.31-0.521-0.577-0.662c-0.158-0.084-0.329-0.123-0.505-0.141c-0.05-0.006-0.099-0.008-0.148-0.008
	C21.054,8.396,20.966,8.403,20.875,8.414"/>
</svg>
