<?xml version="1.0" encoding="utf-8"?>
<!-- Generator: Adobe Illustrator 15.0.0, SVG Export Plug-In . SVG Version: 6.00 Build 0)  -->
<!DOCTYPE svg PUBLIC "-//W3C//DTD SVG 1.1//EN" "http://www.w3.org/Graphics/SVG/1.1/DTD/svg11.dtd">
<svg version="1.1" id="Capa_1" xmlns="http://www.w3.org/2000/svg" xmlns:xlink="http://www.w3.org/1999/xlink" x="0px" y="0px"
	 width="44px" height="44px" viewBox="0 0 44 44" enable-background="new 0 0 44 44" xml:space="preserve">
<g>
	<path opacity="0.9753" fill="#292521" d="M25.594,13.098c-0.029-0.003-0.059-0.008-0.089-0.011
		C25.535,13.09,25.564,13.094,25.594,13.098 M25.614,13.101c0.011,0.001,0.022,0.003,0.033,0.005
		c-0.018-0.001-0.036-0.005-0.054-0.008C25.601,13.099,25.608,13.101,25.614,13.101 M22.261,13.032c-0.102,0-0.204,0-0.307,0
		c-0.45,0-0.899,0-1.35,0.008c-0.542,0.009-1.085,0.033-1.626,0.06c-0.14,0.008-0.278,0.016-0.417,0.023
		c-0.171,0.009-0.34,0.03-0.51,0.055c-0.127,0.021-0.253,0.061-0.375,0.103c-0.151,0.053-0.298,0.125-0.433,0.213
		c-0.075,0.047-0.145,0.1-0.214,0.154c-0.101,0.079-0.181,0.169-0.256,0.275c-0.083,0.117-0.133,0.264-0.164,0.405
		c-0.021,0.091-0.03,0.185-0.036,0.277c-0.012,0.161,0.026,0.323,0.116,0.458c0.116,0.174,0.302,0.258,0.495,0.317
		c0.146,0.045,0.303,0.062,0.452,0.084c0.18,0.025,0.364,0.053,0.534,0.117c0.025,0.013,0.048,0.025,0.071,0.039
		c0.023,0.023,0.045,0.047,0.065,0.072c0.103,0.141,0.178,0.299,0.247,0.459c0.06,0.141,0.115,0.285,0.178,0.424
		c0.001,0.001,0.001,0,0.001,0c-0.063-0.322-0.083-0.667-0.216-0.971c-0.027-0.061-0.057-0.128-0.103-0.177
		c-0.052-0.053-0.111-0.095-0.174-0.134c-0.051-0.031-0.106-0.055-0.16-0.08c-0.208-0.095-0.431-0.161-0.644-0.246
		c-0.071-0.033-0.14-0.069-0.205-0.114c-0.014-0.011-0.026-0.023-0.04-0.038c-0.003-0.005-0.006-0.011-0.008-0.016
		c-0.004-0.011-0.008-0.023-0.011-0.035c0-0.017,0-0.034,0.001-0.053c0.016-0.077,0.038-0.15,0.065-0.224
		c0.021-0.044,0.045-0.084,0.072-0.124c0.025-0.03,0.051-0.056,0.078-0.082c0.099-0.068,0.206-0.122,0.315-0.172
		c0.056-0.02,0.113-0.042,0.172-0.056c0.065-0.016,0.13-0.03,0.196-0.041c0.105-0.011,0.21-0.019,0.317-0.017
		c0.139,0.003,0.279,0.011,0.418,0.019c0.262,0.014,0.524,0.027,0.787,0.039c0.553,0.023,1.105,0.035,1.659,0.039
		c0.452,0.003,0.905,0.001,1.357,0c0.647-0.001,1.293-0.003,1.939,0.008c0.291,0.006,0.58,0.017,0.868,0.047
		c0.212,0.038,0.42,0.087,0.623,0.164c0.064,0.03,0.125,0.062,0.187,0.1c-0.062,0.036-0.125,0.067-0.189,0.097
		c-0.26,0.104-0.522,0.197-0.776,0.311c-0.152,0.068-0.304,0.161-0.416,0.286c-0.097,0.11-0.167,0.224-0.215,0.363
		c-0.034,0.097-0.045,0.202-0.047,0.303c-0.001,0.13,0.007,0.259,0.013,0.388c0.01,0.266,0.015,0.53,0.025,0.795
		c0.011,0.28,0.026,0.56,0.047,0.838c0.019,0.273,0.039,0.547,0.065,0.819c0.026,0.263,0.057,0.524,0.086,0.787
		c0.06,0.56,0.069,1.121,0.106,1.682c0.036,0.536,0.064,1.074,0.119,1.61c0.029,0.289,0.058,0.58,0.078,0.87
		c0.017,0.252,0.017,0.507,0.017,0.76c0,1.121,0.002,2.243-0.001,3.365c0,0.554-0.003,1.106-0.013,1.66
		c-0.005,0.267-0.014,0.534-0.023,0.8c-0.01,0.277-0.011,0.554-0.018,0.828c-0.006,0.316-0.016,0.632-0.031,0.946
		c-0.014,0.271-0.045,0.544-0.076,0.814c-0.022,0.134-0.046,0.269-0.077,0.401c-0.039,0.175-0.089,0.349-0.151,0.518
		c-0.044,0.092-0.096,0.178-0.154,0.263c-0.012,0.017-0.023,0.032-0.036,0.05c-0.083,0.099-0.172,0.188-0.269,0.271
		c-0.106,0.075-0.216,0.142-0.335,0.198c-0.131,0.049-0.268,0.084-0.406,0.107c-0.361,0.036-0.731,0.018-1.093-0.02
		c-0.146-0.023-0.288-0.052-0.428-0.101c-0.249-0.118-0.477-0.279-0.696-0.445c-0.148-0.119-0.295-0.239-0.43-0.372
		c-0.083-0.081-0.165-0.161-0.243-0.247c-0.051-0.056-0.1-0.115-0.147-0.177c-0.105-0.146-0.199-0.3-0.275-0.464
		c-0.113-0.292-0.183-0.599-0.228-0.908c-0.018-0.115-0.034-0.232-0.05-0.349c-0.029-0.253-0.054-0.508-0.056-0.764
		c-0.003-0.271-0.002-0.54-0.002-0.81c-0.001-0.552-0.005-1.105-0.036-1.657c-0.016-0.278-0.036-0.557-0.05-0.836
		c-0.015-0.294-0.025-0.586-0.04-0.88c-0.024-0.533-0.098-1.064-0.105-1.598c-0.016-1.124-0.003-2.248-0.033-3.371
		c-0.03-1.103-0.081-2.202-0.15-3.303c-0.036-0.564-0.082-1.128-0.146-1.691c-0.073-0.642-0.191-1.28-0.309-1.916l0,0
		c-0.032,0.646-0.051,1.292-0.091,1.937c-0.034,0.558-0.071,1.114-0.107,1.672c-0.07,1.107-0.119,2.213-0.148,3.322
		c-0.03,1.118-0.029,2.237-0.027,3.356c0.001,0.271,0.021,0.54,0.038,0.809c0.017,0.268,0.039,0.534,0.048,0.802
		c0.011,0.287,0.021,0.576,0.033,0.864c0.013,0.283,0.032,0.567,0.048,0.851c0.029,0.55,0.021,1.102,0.023,1.651
		c0.002,0.532-0.009,1.066,0.061,1.595c0.024,0.183,0.049,0.367,0.075,0.55c0.015,0.104,0.03,0.206,0.048,0.308
		c0.035,0.192,0.094,0.384,0.157,0.568c0.065,0.191,0.151,0.379,0.253,0.555c0.09,0.154,0.198,0.295,0.31,0.436
		c0.082,0.104,0.165,0.21,0.259,0.304c0.102,0.102,0.205,0.201,0.31,0.3c0.098,0.092,0.206,0.174,0.309,0.26
		c0.257,0.208,0.523,0.401,0.813,0.561c0.293,0.161,0.614,0.231,0.943,0.27c0.128,0.014,0.255,0.027,0.383,0.032
		c0.135,0.007,0.271,0.015,0.405,0.01c0.196-0.005,0.391-0.019,0.586-0.047c0.356-0.054,0.695-0.185,1.002-0.374
		c0.146-0.091,0.283-0.2,0.413-0.312c0.12-0.104,0.214-0.232,0.309-0.359c0.078-0.106,0.15-0.213,0.208-0.333
		c0.07-0.153,0.135-0.312,0.177-0.477c0.021-0.072,0.044-0.144,0.058-0.218c0.03-0.141,0.057-0.279,0.077-0.422
		c0.024-0.186,0.047-0.372,0.063-0.561c0.025-0.271,0.041-0.541,0.052-0.812c0.021-0.548,0.011-1.096,0.03-1.644
		c0.037-1.092,0.031-2.187,0.027-3.28c0-0.567-0.003-1.137,0-1.704c0.002-0.548,0.015-1.099-0.024-1.646
		c-0.041-0.548-0.109-1.093-0.146-1.642c-0.037-0.555-0.06-1.108-0.072-1.663c-0.006-0.278-0.037-0.557-0.067-0.833
		c-0.029-0.266-0.059-0.528-0.082-0.794c-0.023-0.267-0.035-0.535-0.052-0.802c-0.018-0.275-0.033-0.549-0.039-0.825
		c-0.007-0.203-0.008-0.408-0.005-0.611c0.002-0.146,0.002-0.292,0.01-0.438c0.055-0.031,0.11-0.06,0.168-0.084
		c0.176-0.069,0.353-0.134,0.525-0.205c0.127-0.05,0.258-0.097,0.377-0.164c0.144-0.083,0.283-0.186,0.388-0.316
		c0.047-0.06,0.096-0.119,0.135-0.183c0.043-0.073,0.074-0.156,0.104-0.236c0.006-0.022,0.011-0.043,0.013-0.067
		c0.012-0.086,0.024-0.146,0.019-0.225c-0.007-0.064-0.016-0.127-0.028-0.189c-0.016-0.077-0.058-0.147-0.089-0.217
		c-0.011-0.021-0.023-0.042-0.038-0.062c-0.04-0.059-0.087-0.117-0.136-0.17c-0.064-0.073-0.154-0.137-0.231-0.192
		c-0.112-0.083-0.235-0.147-0.362-0.202c-0.179-0.077-0.362-0.144-0.554-0.18c-0.125-0.022-0.25-0.041-0.375-0.058
		c-0.555-0.072-1.119-0.065-1.677-0.069c-0.268,0-0.534,0-0.802,0C22.845,13.032,22.553,13.032,22.261,13.032"/>
	<path opacity="0.9753" fill="#292521" d="M17.903,15.167c-0.137,0.033-0.27,0.092-0.397,0.147c-0.138,0.059-0.273,0.124-0.41,0.184
		c0,0.002,0,0.002,0.001,0.002c0.165-0.013,0.329-0.028,0.493-0.044c0.15-0.016,0.301-0.026,0.451-0.013
		c0.034,0.006,0.065,0.014,0.097,0.025c0.019,0.009,0.036,0.019,0.052,0.029c0.02,0.019,0.039,0.039,0.057,0.06
		c0.065,0.092,0.116,0.191,0.163,0.294c0.103,0.256,0.156,0.528,0.194,0.802c0.036,0.278,0.06,0.558,0.091,0.838
		c0.036,0.312,0.069,0.626,0.111,0.938c0.038,0.297,0.089,0.591,0.133,0.887c0.045,0.306,0.09,0.61,0.137,0.917c0,0.002,0,0,0,0
		c0.061-0.534,0.132-1.067,0.181-1.602c0.024-0.265,0.034-0.53,0.038-0.794c0.003-0.131,0.001-0.264-0.003-0.396
		c-0.005-0.151-0.011-0.306-0.039-0.456c-0.071-0.579-0.215-1.174-0.624-1.61c-0.081-0.086-0.189-0.18-0.305-0.213
		c-0.062-0.017-0.125-0.025-0.188-0.025C18.059,15.137,17.982,15.148,17.903,15.167"/>
	<path opacity="0.9753" fill="#292521" d="M17.187,13.967C17.186,13.967,17.186,13.967,17.187,13.967
		C17.186,13.967,17.186,13.967,17.187,13.967 M25.885,11.952c0,0.002,0.002,0.002,0.002,0.002S25.885,11.954,25.885,11.952
		L25.885,11.952 M25.877,11.933c0.003,0.006,0.006,0.013,0.008,0.019l0,0C25.883,11.946,25.88,11.939,25.877,11.933 M16.631,10.909
		c-0.002,0.002-0.005,0.003-0.007,0.006c0-0.001,0-0.001,0-0.001C16.626,10.913,16.629,10.911,16.631,10.909 M19.217,9.184
		c-0.203,0.131-0.359,0.325-0.454,0.547c-0.034,0.08-0.069,0.158-0.098,0.241c-0.004,0.014-0.009,0.026-0.013,0.041
		c-0.093,0.028-0.187,0.048-0.283,0.064c-0.237,0.023-0.469,0.016-0.706-0.009c-0.114-0.013-0.228-0.026-0.341-0.039
		c-0.173-0.021-0.346-0.034-0.52-0.048c-0.111-0.009-0.223-0.022-0.333-0.027c-0.083-0.004-0.181,0.005-0.259,0.023
		c-0.081,0.019-0.156,0.053-0.23,0.091c-0.047,0.035-0.093,0.07-0.139,0.106c-0.02,0.017-0.037,0.036-0.052,0.056
		c-0.09,0.109-0.14,0.198-0.19,0.332c-0.049,0.133-0.068,0.283-0.058,0.425c0.008,0.128,0.03,0.263,0.063,0.389
		c-0.048,0.01-0.097,0.021-0.145,0.031c-0.101,0.022-0.202,0.047-0.302,0.07c-0.103,0.025-0.205,0.058-0.305,0.094
		c-0.17,0.06-0.334,0.131-0.486,0.229c-0.139,0.087-0.271,0.195-0.38,0.317c-0.067,0.076-0.129,0.161-0.181,0.248
		c-0.05,0.083-0.088,0.182-0.123,0.271c-0.049,0.122-0.08,0.249-0.104,0.377c-0.033,0.183-0.052,0.369-0.062,0.555
		c-0.008,0.142,0.001,0.286,0.019,0.428c0.024,0.191,0.059,0.374,0.124,0.555c0.053,0.15,0.119,0.297,0.197,0.437
		c0.082,0.145,0.192,0.278,0.306,0.401c0.07,0.075,0.144,0.147,0.212,0.225c0.021,0.031,0.041,0.066,0.058,0.1
		c0.087,0.241,0.124,0.499,0.16,0.752c0.028,0.264,0.049,0.528,0.062,0.792c0.014,0.283,0.014,0.567,0.017,0.85
		c0.006,0.538,0.01,1.074,0.009,1.612c0,0.139,0,0.277-0.002,0.418c-0.001,0.163-0.007,0.325,0.001,0.488
		c0.009,0.196,0.046,0.394,0.107,0.58c0.076,0.231,0.202,0.458,0.385,0.618c0.079,0.07,0.167,0.133,0.257,0.187
		c0.101,0.058,0.214,0.11,0.329,0.133c0.069,0.013,0.145,0.023,0.216,0.021c0.073-0.001,0.161-0.019,0.234-0.04
		c0.171-0.051,0.298-0.152,0.435-0.262c0.085-0.068,0.156-0.156,0.228-0.238c0.07-0.082,0.135-0.168,0.2-0.254
		c0.084-0.112,0.161-0.228,0.237-0.345c0.117-0.184,0.202-0.39,0.276-0.591c0.049-0.13,0.084-0.266,0.114-0.402
		c0.032-0.151,0.059-0.3,0.08-0.453c0.045-0.302,0.063-0.604,0.066-0.909c0.001-0.174-0.001-0.346-0.016-0.518
		c-0.018-0.194-0.056-0.385-0.115-0.571c-0.045-0.141-0.105-0.275-0.166-0.408c-0.109-0.246-0.241-0.479-0.374-0.711
		c-0.131-0.228-0.28-0.448-0.392-0.688c0-0.003-0.002-0.006-0.004-0.009c-0.056-0.146-0.09-0.294-0.114-0.449
		c-0.019-0.161-0.02-0.325-0.002-0.488c0.022-0.137,0.057-0.271,0.104-0.403c0.032-0.07,0.066-0.138,0.11-0.202
		c0.033-0.038,0.07-0.069,0.108-0.099c0.08-0.061,0.163-0.116,0.242-0.175c0,0,0-0.002,0-0.002
		c-0.013,0.006-0.026,0.011-0.039,0.018c-0.067,0.028-0.136,0.053-0.203,0.083c-0.063,0.028-0.134,0.056-0.187,0.103
		c-0.073,0.066-0.138,0.143-0.189,0.225c-0.103,0.164-0.183,0.344-0.236,0.532c-0.093,0.327-0.106,0.689-0.029,1.021
		c0.028,0.122,0.079,0.237,0.126,0.353c0.049,0.122,0.099,0.244,0.146,0.366c0.097,0.247,0.195,0.496,0.271,0.75
		c0.048,0.166,0.092,0.33,0.121,0.499c0.028,0.288-0.003,0.575-0.036,0.861c-0.065,0.433-0.155,0.861-0.314,1.272
		c-0.073,0.161-0.158,0.318-0.264,0.462c-0.034,0.047-0.069,0.094-0.104,0.143c-0.116,0.136-0.232,0.273-0.365,0.394
		c-0.007-0.004-0.015-0.009-0.022-0.014c-0.011-0.011-0.021-0.021-0.031-0.033c-0.02-0.031-0.038-0.062-0.055-0.095
		c-0.032-0.091-0.057-0.185-0.074-0.278c-0.014-0.153-0.013-0.308-0.015-0.463c-0.001-0.136-0.001-0.271-0.001-0.408
		c-0.001-0.267,0.001-0.532,0.001-0.8c0.002-0.56,0.003-1.119-0.008-1.679c-0.008-0.352-0.033-0.702-0.077-1.052
		c-0.016-0.121-0.034-0.239-0.053-0.359c-0.008-0.052-0.016-0.102-0.027-0.153c-0.033-0.155-0.084-0.299-0.146-0.444
		c-0.084-0.199-0.227-0.361-0.388-0.5c-0.076-0.065-0.148-0.133-0.214-0.208c-0.05-0.074-0.092-0.148-0.13-0.229
		c-0.047-0.124-0.081-0.25-0.104-0.379c-0.018-0.199-0.01-0.397,0.012-0.596c0.021-0.131,0.051-0.259,0.095-0.385
		c0.02-0.039,0.041-0.075,0.064-0.111c0.033-0.038,0.067-0.07,0.104-0.103c0.064-0.044,0.131-0.084,0.202-0.119
		c0.236-0.088,0.484-0.136,0.732-0.183c0.165-0.031,0.33-0.058,0.486-0.122c0.058-0.02,0.113-0.045,0.167-0.075
		c0.048-0.036,0.095-0.072,0.142-0.109c0.08-0.097,0.146-0.178,0.182-0.302c0.033-0.116,0.041-0.239,0.008-0.356
		c-0.016-0.058-0.038-0.112-0.061-0.167c-0.033-0.097-0.061-0.196-0.081-0.295c0.091,0.004,0.181,0.016,0.271,0.023
		c0.106,0.011,0.211,0.023,0.317,0.037c0.083,0.011,0.168,0.023,0.251,0.036c0.193,0.028,0.387,0.058,0.582,0.066
		c0.209,0.009,0.415-0.013,0.623-0.042c0.141-0.021,0.278-0.047,0.41-0.102c0.057-0.022,0.113-0.045,0.168-0.073
		c0.058-0.028,0.13-0.091,0.173-0.127c0.07-0.059,0.128-0.134,0.177-0.212c0.066-0.106,0.09-0.228,0.117-0.347
		c0.008-0.031,0.018-0.062,0.028-0.092c0.015-0.028,0.03-0.057,0.046-0.083c0.004-0.005,0.008-0.008,0.012-0.013
		c0.006-0.003,0.012-0.006,0.017-0.009c0.012-0.003,0.024-0.006,0.037-0.009c0.01-0.001,0.021-0.001,0.03-0.001
		c0.057,0.014,0.112,0.031,0.166,0.053c0.155,0.073,0.298,0.164,0.437,0.267c0.2,0.159,0.394,0.328,0.587,0.496
		c0.163,0.142,0.335,0.281,0.544,0.348c0.071,0.023,0.139,0.035,0.215,0.039c0.075,0.006,0.147-0.011,0.222-0.023
		c0.015-0.006,0.028-0.011,0.042-0.016c0.059-0.017,0.112-0.042,0.161-0.075c0.062-0.038,0.116-0.088,0.172-0.135
		c0.085-0.07,0.168-0.144,0.252-0.214c0.101-0.069,0.202-0.128,0.312-0.18c0.047-0.016,0.094-0.03,0.142-0.041
		c0.046-0.002,0.091-0.002,0.136,0.001c0.064,0.012,0.126,0.028,0.187,0.05c0.014,0.006,0.028,0.016,0.042,0.023
		c0.01,0.009,0.021,0.021,0.03,0.031c0.024,0.039,0.047,0.08,0.066,0.122c0.069,0.178,0.124,0.364,0.224,0.527
		c0.041,0.067,0.096,0.131,0.153,0.186c0.085,0.078,0.171,0.122,0.276,0.162c0.046,0.018,0.121,0.025,0.164,0.027
		c0.039,0.001,0.077,0.001,0.117,0c0.028-0.001,0.059-0.005,0.088-0.006c0.261-0.019,0.522-0.033,0.781-0.005
		c0.094,0.014,0.185,0.035,0.275,0.066c0.039,0.019,0.075,0.039,0.111,0.064c0.023,0.021,0.045,0.042,0.065,0.066
		c0.005,0.008,0.009,0.016,0.014,0.023c0.007,0.019,0.011,0.039,0.016,0.058c0.003,0.038,0.003,0.074,0.002,0.109
		c-0.005,0.022-0.011,0.042-0.018,0.064c-0.014,0.025-0.028,0.05-0.045,0.075c-0.128,0.151-0.286,0.278-0.439,0.405
		c-0.183,0.152-0.364,0.303-0.545,0.457c-0.002,0,0,0.001,0,0.001c0.234-0.117,0.47-0.231,0.7-0.355
		c0.129-0.068,0.258-0.134,0.379-0.214c0.111-0.074,0.215-0.164,0.271-0.286c0.064-0.138,0.069-0.283,0.046-0.43
		c-0.01-0.055-0.039-0.109-0.064-0.158c-0.032-0.059-0.081-0.112-0.128-0.161c-0.102-0.105-0.237-0.175-0.372-0.23
		c-0.153-0.061-0.308-0.103-0.469-0.138c-0.208-0.043-0.421-0.065-0.633-0.09c-0.018-0.003-0.035-0.008-0.052-0.011
		c0-0.001-0.002-0.003-0.003-0.004c-0.01-0.016-0.02-0.031-0.028-0.048c-0.06-0.178-0.086-0.364-0.148-0.541
		c-0.022-0.061-0.05-0.12-0.078-0.18s-0.075-0.112-0.114-0.163c-0.068-0.089-0.154-0.158-0.248-0.22
		c-0.091-0.061-0.205-0.1-0.306-0.138c-0.123-0.047-0.256-0.06-0.384-0.077c-0.113-0.014-0.238,0.005-0.348,0.025
		c-0.09,0.016-0.175,0.042-0.259,0.075c-0.165,0.064-0.329,0.139-0.475,0.239c-0.078,0.053-0.156,0.114-0.237,0.169
		c-0.136-0.114-0.267-0.235-0.403-0.346c-0.219-0.18-0.441-0.356-0.684-0.503c-0.083-0.05-0.17-0.092-0.259-0.129
		c-0.137-0.061-0.273-0.119-0.419-0.153c-0.086-0.019-0.174-0.028-0.262-0.028C19.638,8.996,19.408,9.061,19.217,9.184"/>
	<path opacity="0.9753" fill="#292521" d="M22.073,17.918c0.005,0,0.009,0.001,0.014,0.001
		C22.082,17.919,22.078,17.918,22.073,17.918 M21.776,17.865c0.003,0.001,0.007,0.004,0.01,0.006
		C21.783,17.869,21.779,17.866,21.776,17.865L21.776,17.865 M22.776,16.791c0.019,0.148,0.056,0.293,0.078,0.44
		c0.005,0.055,0.008,0.108,0.005,0.163c-0.007,0.031-0.015,0.061-0.025,0.092c-0.025,0.055-0.055,0.106-0.089,0.156
		c-0.052,0.062-0.106,0.121-0.169,0.172c-0.039,0.027-0.078,0.052-0.122,0.074c-0.048,0.016-0.096,0.028-0.146,0.038
		c-0.088,0.004-0.177-0.002-0.264-0.011c-0.09-0.014-0.18-0.028-0.266-0.058c0.089-0.177,0.215-0.338,0.32-0.503
		c0.101-0.156,0.196-0.316,0.29-0.477c0-0.002,0-0.002-0.001-0.002c-0.189,0.15-0.374,0.305-0.554,0.464
		c-0.118,0.105-0.243,0.211-0.336,0.339c-0.03,0.042-0.05,0.086-0.068,0.134c-0.016,0.042-0.022,0.117-0.007,0.163
		c0.039,0.1,0.098,0.172,0.193,0.225c0.084,0.045,0.181,0.07,0.272,0.091c0.116,0.025,0.236,0.036,0.355,0.034
		c0.238-0.006,0.456-0.133,0.604-0.314c0.136-0.166,0.236-0.393,0.211-0.61c-0.025-0.225-0.182-0.419-0.283-0.613c0,0,0,0-0.001,0
		C22.776,16.789,22.776,16.789,22.776,16.791"/>
	<path opacity="0.9753" fill="#292521" d="M22.136,21.248c-0.005,0.007-0.01,0.013-0.015,0.018
		C22.125,21.26,22.13,21.255,22.136,21.248 M22.261,21.244c0.008,0.003,0.016,0.006,0.021,0.009
		C22.275,21.25,22.269,21.247,22.261,21.244 M22.199,21.222c-0.001,0-0.003,0.002-0.005,0.002
		C22.196,21.224,22.198,21.222,22.199,21.222 M22.169,21.217c-0.004,0.004-0.007,0.007-0.011,0.01
		C22.161,21.224,22.165,21.221,22.169,21.217 M23.378,20.448c-0.003,0.224,0.026,0.447,0.005,0.671
		c-0.012,0.063-0.028,0.123-0.052,0.183c-0.033,0.073-0.073,0.139-0.12,0.203c-0.069,0.084-0.146,0.159-0.23,0.229
		c-0.065,0.047-0.133,0.084-0.206,0.118c-0.053,0.019-0.104,0.034-0.159,0.044c-0.069,0.005-0.136,0.003-0.205-0.003
		c-0.062-0.011-0.122-0.028-0.181-0.05c-0.034-0.016-0.066-0.033-0.097-0.054c-0.015-0.014-0.028-0.028-0.041-0.042
		c-0.007-0.011-0.014-0.021-0.02-0.033c-0.01-0.027-0.017-0.056-0.022-0.084c-0.002-0.047,0-0.092,0.004-0.139
		c0.011-0.062,0.026-0.121,0.047-0.179c0.013-0.025,0.025-0.047,0.04-0.07c0.002-0.002,0.003-0.003,0.005-0.005
		c0.004-0.001,0.007-0.005,0.01-0.006c0.008-0.002,0.016-0.003,0.023-0.007c0.02,0,0.039,0.002,0.058,0.007
		c-0.011-0.002-0.022-0.003-0.034-0.005c0.02,0.005,0.038,0.01,0.056,0.018c0.202,0.095,0.378,0.239,0.562,0.365c0,0,0.001,0,0,0
		c-0.121-0.178-0.238-0.369-0.396-0.518c-0.071-0.066-0.16-0.128-0.262-0.134c-0.115-0.007-0.204,0.034-0.286,0.114
		c-0.074,0.073-0.122,0.17-0.161,0.266c-0.046,0.112-0.071,0.228-0.071,0.35c-0.001,0.119,0.039,0.233,0.101,0.335
		c0.071,0.113,0.19,0.195,0.31,0.253c0.227,0.106,0.491,0.127,0.73,0.053c0.25-0.076,0.442-0.258,0.594-0.461
		c0.069-0.091,0.114-0.196,0.158-0.3c0.05-0.122,0.07-0.265,0.062-0.394c-0.014-0.254-0.139-0.491-0.221-0.728l0,0
		C23.379,20.446,23.378,20.446,23.378,20.448"/>
	<path opacity="0.9753" fill="#292521" d="M22.397,26.3c-0.007,0.002-0.012,0.002-0.02,0.003C22.385,26.302,22.391,26.3,22.397,26.3
		 M22.28,26.289c0.01,0.005,0.02,0.008,0.029,0.013C22.3,26.299,22.289,26.294,22.28,26.289 M22.257,26.278
		c0.008,0.005,0.016,0.011,0.023,0.017C22.272,26.291,22.265,26.284,22.257,26.278 M22.604,24.879
		c0.068,0.062,0.141,0.117,0.214,0.174c0.067,0.053,0.131,0.107,0.189,0.174c0.014,0.021,0.027,0.042,0.039,0.065
		c0.009,0.025,0.016,0.049,0.021,0.073c0.002,0.033,0.002,0.062-0.002,0.094c-0.006,0.034-0.014,0.065-0.024,0.097
		c-0.06,0.135-0.14,0.258-0.226,0.375c-0.081,0.103-0.165,0.196-0.264,0.278c-0.046,0.031-0.093,0.059-0.142,0.082
		c-0.015,0.004-0.03,0.009-0.046,0.012c-0.008,0-0.016,0-0.023,0c-0.022-0.004-0.044-0.009-0.065-0.017
		c-0.008-0.003-0.016-0.007-0.022-0.011c-0.001-0.002-0.004-0.005-0.005-0.007c-0.008-0.009-0.013-0.021-0.019-0.031
		c-0.021-0.058-0.036-0.118-0.048-0.18c-0.01-0.104-0.007-0.205-0.004-0.308c0.003-0.119-0.001-0.236-0.004-0.354h-0.001
		c-0.069,0.184-0.141,0.371-0.191,0.562c-0.02,0.075-0.023,0.154-0.023,0.232c0,0.077,0.012,0.171,0.051,0.237
		c0.083,0.137,0.232,0.202,0.388,0.207c0.083,0.003,0.171-0.033,0.246-0.067c0.092-0.042,0.172-0.104,0.247-0.172
		c0.141-0.128,0.242-0.299,0.321-0.471c0.073-0.161,0.141-0.346,0.102-0.525c-0.016-0.073-0.042-0.137-0.086-0.2
		s-0.107-0.107-0.173-0.146C22.917,24.972,22.753,24.938,22.604,24.879L22.604,24.879L22.604,24.879"/>
</g>
</svg>
