<?xml version="1.0" encoding="utf-8"?>
<!-- Generator: Adobe Illustrator 15.0.0, SVG Export Plug-In . SVG Version: 6.00 Build 0)  -->
<!DOCTYPE svg PUBLIC "-//W3C//DTD SVG 1.1//EN" "http://www.w3.org/Graphics/SVG/1.1/DTD/svg11.dtd">
<svg version="1.1" xmlns="http://www.w3.org/2000/svg" xmlns:xlink="http://www.w3.org/1999/xlink" x="0px" y="0px" width="44px"
	 height="44px" viewBox="0 0 44 44" enable-background="new 0 0 44 44" xml:space="preserve">
<g id="Capa_2_1_">
</g>
<g id="Capa_1">
</g>
<g id="Capa_3">
	<path fill="#FFFFFF" d="M23.067,25.928c-0.176,0.001-0.352,0.004-0.528,0.007c-0.215,0.004-0.439,0.001-0.656,0.032
		c-1.208,0.051-2.411,0.146-3.616,0.246c-1.307,0.111-2.614,0.224-3.917,0.364c-0.464,0.049-0.926,0.103-1.388,0.159
		c-0.424,0.051-0.853,0.091-1.275,0.161c-0.453,0.076-0.903,0.159-1.349,0.27c-0.475,0.118-0.95,0.264-1.431,0.359
		c-0.235,0.017-0.47-0.002-0.706-0.002c-0.002,0-0.002,0.004-0.001,0.004c0.198,0.07,0.391,0.147,0.593,0.202
		c0.121,0.032,0.242,0.03,0.365,0.03c0.152,0.001,0.304-0.002,0.456-0.006c0.288-0.007,0.576-0.025,0.863-0.034
		c0.611-0.019,1.218-0.025,1.829-0.001c1.212,0.045,2.425,0.08,3.637,0.129c2.011,0.08,4.026,0.121,6.04,0.102
		c-0.016-0.003-0.032-0.005-0.048-0.006c0.216,0.019,0.43,0.009,0.649,0.006c0.355-0.005,0.711-0.013,1.067-0.022
		c0.561-0.015,1.123-0.037,1.683-0.07c0.611-0.037,1.229-0.062,1.838-0.136c0.775-0.093,1.549-0.196,2.32-0.307
		c0.459-0.067,0.917-0.162,1.374-0.249c0.372-0.068,0.744-0.138,1.114-0.218c1.28-0.276,2.555-0.575,3.824-0.9
		c0.001,0,0.001-0.002-0.002-0.002c-1.434-0.042-2.868-0.051-4.303-0.069c-0.728-0.01-1.453-0.012-2.181-0.006
		c-0.343,0.003-0.686-0.001-1.028-0.004c-0.316-0.004-0.632-0.007-0.949-0.006c-0.862,0.005-1.726-0.021-2.59-0.031
		c-0.316-0.004-0.633-0.007-0.95-0.007C23.556,25.923,23.311,25.926,23.067,25.928"/>
	<path fill="#FFFFFF" d="M27.061,18.965c0.021,0.009,0.042,0.019,0.064,0.028C27.103,18.984,27.082,18.975,27.061,18.965
		 M18.567,15.492c-0.458,0.105-0.897,0.289-1.327,0.474c-0.396,0.17-0.772,0.369-1.137,0.597c-0.751,0.471-1.429,1.066-2.013,1.731
		c-0.244,0.279-0.488,0.574-0.701,0.876c-0.292,0.416-0.573,0.835-0.837,1.268c-0.322,0.533-0.592,1.118-0.728,1.726
		c-0.097,0.433-0.121,0.873-0.131,1.313c-0.018,0.687,0.083,1.393,0.4,2.005c0.094,0.18,0.207,0.351,0.312,0.521
		c0.059,0.092,0.117,0.187,0.174,0.278c0.164,0.262,0.383,0.491,0.58,0.729c0,0.001,0.002,0,0.002-0.001
		c-0.118-0.304-0.253-0.603-0.337-0.918c-0.03-0.112-0.06-0.224-0.09-0.335c-0.067-0.245-0.135-0.49-0.174-0.744
		c-0.024-0.239-0.015-0.474,0.011-0.713c0.097-0.559,0.216-1.106,0.423-1.637c0.154-0.339,0.35-0.651,0.572-0.951
		c0.348-0.433,0.738-0.834,1.128-1.23c0.361-0.365,0.747-0.71,1.15-1.03c0.571-0.422,1.183-0.783,1.831-1.072
		c0.559-0.222,1.135-0.398,1.729-0.495c1.225-0.135,2.462-0.041,3.686,0.047c-0.017-0.002-0.034-0.005-0.052-0.007
		c0.22,0.027,0.44,0.055,0.653,0.102c0.329,0.074,0.663,0.134,0.99,0.219c0.333,0.087,0.671,0.161,0.999,0.266
		c0.525,0.165,1.043,0.327,1.553,0.531c0.738,0.325,1.442,0.717,2.088,1.201c0.58,0.455,1.143,0.95,1.608,1.52
		c0.141,0.193,0.259,0.396,0.358,0.613c0.082,0.226,0.135,0.455,0.172,0.691c0.053,0.44,0.053,0.887,0.067,1.328
		c0.016,0.478,0.035,0.955,0.056,1.432c0,0.001,0.001,0.001,0.003,0c0.129-0.457,0.255-0.915,0.378-1.373
		c0.12-0.448,0.252-0.9,0.313-1.361c0.057-0.416,0.049-0.81-0.031-1.222c-0.086-0.445-0.293-0.862-0.523-1.249
		c-0.224-0.377-0.488-0.725-0.762-1.068c-0.284-0.36-0.591-0.701-0.926-1.015c-0.679-0.636-1.467-1.164-2.29-1.59
		c-0.458-0.238-0.94-0.426-1.416-0.625c-0.555-0.232-1.134-0.41-1.71-0.578c-0.293-0.086-0.586-0.149-0.884-0.212
		c-0.39-0.082-0.784-0.128-1.178-0.178c-0.607-0.076-1.213-0.104-1.825-0.105c-0.009,0-0.019,0-0.028,0
		C19.987,15.25,19.265,15.331,18.567,15.492"/>
	<path fill="#FFFFFF" d="M20.923,16.536c0,0,0.001,0,0.001-0.002C20.924,16.536,20.923,16.536,20.923,16.536 M20.414,10.304
		c-0.463,0.019-0.926,0.136-1.325,0.37c-0.434,0.253-0.71,0.683-0.876,1.146c-0.071,0.202-0.09,0.436-0.073,0.648
		c0.022,0.255,0.094,0.463,0.207,0.694c0.092,0.187,0.239,0.355,0.377,0.51c0.151,0.167,0.324,0.313,0.499,0.455
		c0.254,0.206,0.526,0.39,0.799,0.57c0.273,0.181,0.555,0.352,0.818,0.547c0.075,0.062,0.142,0.128,0.204,0.203
		c0.037,0.054,0.069,0.108,0.097,0.167c0.013,0.036,0.023,0.073,0.031,0.111c0.006,0.059,0.008,0.112,0.003,0.17
		c-0.011,0.044-0.024,0.086-0.041,0.127c-0.102,0.218-0.24,0.413-0.354,0.624c-0.001,0.002,0.001,0.004,0.002,0.002
		c0.046-0.04,0.094-0.078,0.142-0.114c-0.001,0-0.001,0.001-0.002,0.001c0.18-0.134,0.377-0.264,0.512-0.445
		c0.148-0.198,0.204-0.457,0.157-0.7c-0.081-0.417-0.354-0.73-0.625-1.042c-0.299-0.345-0.6-0.686-0.892-1.036
		c-0.152-0.202-0.295-0.411-0.408-0.638c-0.019-0.051-0.035-0.103-0.049-0.154c0-0.025,0-0.05,0.001-0.075
		c0.009-0.037,0.02-0.072,0.031-0.107c0.027-0.05,0.057-0.098,0.087-0.145c0.025-0.026,0.049-0.051,0.075-0.076
		c0.033-0.021,0.066-0.041,0.1-0.059c0.102-0.034,0.204-0.059,0.309-0.078c0.373-0.029,0.75-0.001,1.122,0.029
		c0.258,0.021,0.513,0.039,0.77,0.068c0.417,0.063,0.832,0.155,1.226,0.306c0.122,0.057,0.237,0.117,0.35,0.19
		c0.05,0.044,0.097,0.089,0.144,0.138c0.02,0.032,0.038,0.063,0.057,0.098c0.022,0.066,0.043,0.133,0.058,0.202
		c0.011,0.129,0.011,0.257-0.002,0.386c-0.037,0.198-0.093,0.386-0.167,0.572c-0.164,0.365-0.358,0.715-0.544,1.068
		c-0.18,0.337-0.354,0.677-0.528,1.016c0,0.002,0,0.003,0.002,0.002c0.342-0.294,0.679-0.593,1.012-0.897
		c0.432-0.394,0.867-0.809,1.127-1.339c0.181-0.366,0.281-0.781,0.237-1.188c-0.052-0.48-0.282-0.893-0.642-1.215
		c-0.346-0.307-0.754-0.497-1.176-0.673c-0.46-0.191-0.958-0.291-1.451-0.352c-0.398-0.049-0.795-0.094-1.195-0.094
		C20.549,10.3,20.481,10.301,20.414,10.304"/>
	<path fill="#FFFFFF" d="M13.976,33.41c0.016,0.007,0.03,0.013,0.045,0.019C14.006,33.425,13.99,33.417,13.976,33.41 M13.942,33.389
		c0.02,0.002,0.041,0.005,0.062,0.008C13.983,33.396,13.962,33.392,13.942,33.389 M12.422,30.996c0,0.003,0,0.005,0.001,0.007
		C12.422,31.001,12.422,30.999,12.422,30.996 M32.117,29.396c-0.007,0.008-0.013,0.016-0.02,0.025
		C32.104,29.412,32.11,29.404,32.117,29.396 M32.55,28.315c-0.29,0.007-0.574,0.019-0.861,0.068
		c-0.233,0.039-0.469,0.226-0.585,0.428c-0.112,0.192-0.178,0.404-0.238,0.618c-0.051,0.188-0.087,0.381-0.119,0.572
		c-0.033,0.182-0.048,0.376-0.09,0.558c-0.019,0.012-0.037,0.021-0.056,0.031c-0.175,0.062-0.352,0.104-0.534,0.135
		c-0.619,0.068-1.24,0.078-1.861,0.098c-0.628,0.02-1.256,0.048-1.883,0.085c-0.581,0.035-1.172,0.054-1.751,0.124
		c-0.399,0.049-0.802,0.087-1.195,0.157c-0.298,0.054-0.594,0.112-0.89,0.172c-1.183,0.243-2.354,0.534-3.521,0.846
		c-1.187,0.315-2.36,0.688-3.565,0.931c-0.386,0.078-0.772,0.148-1.161,0.205c-0.106,0.013-0.213,0.026-0.32,0.03
		c-0.062-0.058-0.118-0.121-0.173-0.188c-0.359-0.481-0.638-1.016-0.881-1.563c-0.043-0.105-0.084-0.212-0.125-0.318
		c-0.107-0.285-0.25-0.549-0.393-0.818c-0.001-0.001-0.003,0-0.002,0.002c0.024,0.166,0.05,0.331,0.076,0.495
		c0.046,0.355,0.04,0.712,0.091,1.066c0.045,0.312,0.1,0.622,0.166,0.93c0.032,0.153,0.084,0.309,0.132,0.457
		c0.123,0.382,0.303,0.829,0.689,1.009c0.272,0.127,0.603,0.123,0.914,0.119c0.082-0.001,0.161-0.001,0.239-0.001
		c1.235,0.021,2.465-0.071,3.688-0.225c0.97-0.123,1.94-0.242,2.906-0.384c0.867-0.112,1.733-0.229,2.595-0.364
		c0.032-0.005,0.065-0.01,0.098-0.014c0.227-0.029,0.453-0.06,0.68-0.089c1.298-0.135,2.592-0.301,3.885-0.481
		c0.671-0.094,1.345-0.193,1.996-0.389c0.878-0.264,1.872-0.901,1.744-1.951c-0.033-0.277-0.061-0.562-0.063-0.843
		c-0.004-0.154-0.004-0.308,0.004-0.463c0.004-0.001,0.006-0.003,0.009-0.005c0.469-0.178,0.958-0.274,1.449-0.375
		c0.596-0.121,1.197-0.225,1.792-0.343c0.003-0.001,0.003-0.002,0-0.002c-0.58-0.085-1.163-0.162-1.745-0.236
		c-0.345-0.041-0.698-0.085-1.047-0.085C32.61,28.314,32.58,28.314,32.55,28.315"/>
</g>
</svg>
