<?xml version="1.0" encoding="utf-8"?>
<!-- Generator: Adobe Illustrator 15.0.0, SVG Export Plug-In . SVG Version: 6.00 Build 0)  -->
<!DOCTYPE svg PUBLIC "-//W3C//DTD SVG 1.1//EN" "http://www.w3.org/Graphics/SVG/1.1/DTD/svg11.dtd">
<svg version="1.1" id="Capa_1" xmlns="http://www.w3.org/2000/svg" xmlns:xlink="http://www.w3.org/1999/xlink" x="0px" y="0px"
	 width="45px" height="45px" viewBox="-0.5 -0.5 45 45" enable-background="new -0.5 -0.5 45 45" xml:space="preserve">
<path opacity="0.9753" d="M25.455,6.651c-0.156,0.004-0.314,0.003-0.469,0.021c-0.203,0.024-0.399,0.054-0.594,0.115
	c-0.176,0.055-0.346,0.13-0.513,0.206c-0.303,0.137-0.57,0.339-0.827,0.547c-0.12,0.098-0.231,0.208-0.334,0.325
	c-0.068,0.079-0.136,0.16-0.196,0.246c-0.088,0.122-0.155,0.252-0.22,0.388c-0.142,0.3-0.265,0.617-0.349,0.938
	c-0.081,0.312-0.146,0.628-0.188,0.948c-0.039,0.301-0.052,0.6-0.042,0.903c0.008,0.248-0.01,0.496-0.017,0.743
	c0,0.001,0.001,0.001,0.001,0c0.077-0.283,0.155-0.564,0.21-0.853c0.029-0.15,0.065-0.3,0.107-0.447
	c0.085-0.297,0.196-0.584,0.313-0.87c0.09-0.199,0.182-0.395,0.292-0.583c0.109-0.189,0.226-0.376,0.356-0.553
	c0.114-0.138,0.245-0.256,0.384-0.368c0.226-0.159,0.463-0.294,0.715-0.408c0.231-0.09,0.468-0.159,0.712-0.203
	c0.342-0.028,0.685,0.001,1.026,0.018c0.344,0.016,0.687,0.048,1.028,0.083c0.075,0.01,0.149,0.021,0.223,0.036
	c0.136,0.027,0.269,0.059,0.402,0.091c0.231,0.057,0.454,0.143,0.677,0.228c0.56,0.239,1.124,0.487,1.618,0.846
	c0.064,0.054,0.126,0.111,0.183,0.173c0.015,0.022,0.027,0.045,0.04,0.068c0.014,0.043,0.024,0.086,0.034,0.131
	c0.005,0.097,0,0.192-0.01,0.289c-0.016,0.098-0.032,0.194-0.05,0.292c-0.03,0.157-0.08,0.306-0.137,0.454
	c-0.156,0.313-0.34,0.607-0.536,0.898c-0.19,0.283-0.384,0.562-0.588,0.836c-0.21,0.265-0.42,0.529-0.626,0.796
	c-0.094,0.122-0.186,0.247-0.275,0.372c-0.094,0.131-0.176,0.267-0.253,0.408c-0.057,0.104-0.099,0.217-0.144,0.327
	c-0.099,0.244-0.106,0.501-0.036,0.754c0.045,0.164,0.135,0.313,0.223,0.456c0.042,0.069,0.088,0.137,0.132,0.206
	c0.165,0.255,0.32,0.517,0.481,0.775c0.162,0.259,0.327,0.517,0.5,0.77c0.178,0.259,0.354,0.521,0.517,0.79
	c0.338,0.566,0.665,1.138,0.957,1.729c0.167,0.338,0.337,0.675,0.488,1.02c0.151,0.345,0.303,0.689,0.454,1.034
	c0.043,0.116,0.088,0.232,0.132,0.348c0.044,0.114,0.075,0.235,0.112,0.352c0.081,0.252,0.147,0.505,0.194,0.766
	c0.02,0.109,0.034,0.22,0.051,0.329c0.065,0.615,0.102,1.233,0.152,1.85c0.051,0.615,0.106,1.231,0.171,1.846
	c0.042,0.397,0.086,0.794,0.132,1.19c0,0.001,0.001,0.001,0.001,0c0.159-1.375,0.288-2.753,0.389-4.134
	c0.023-0.325,0.04-0.648,0.029-0.975c-0.011-0.359-0.048-0.717-0.126-1.068c-0.033-0.149-0.06-0.302-0.104-0.449
	c-0.046-0.158-0.09-0.316-0.146-0.471c-0.057-0.157-0.113-0.312-0.173-0.468c-0.131-0.346-0.268-0.691-0.416-1.03
	c-0.256-0.584-0.547-1.158-0.862-1.712c-0.162-0.285-0.323-0.569-0.492-0.85c-0.165-0.274-0.339-0.542-0.512-0.811
	c-0.188-0.293-0.374-0.586-0.555-0.884c-0.089-0.148-0.179-0.296-0.269-0.445c-0.09-0.151-0.188-0.3-0.266-0.458
	c-0.004-0.012-0.008-0.024-0.011-0.036c0.009-0.031,0.02-0.062,0.031-0.092c0.08-0.166,0.173-0.321,0.28-0.472
	c0.103-0.145,0.21-0.286,0.317-0.427c0.212-0.271,0.426-0.542,0.632-0.818c0.187-0.25,0.356-0.511,0.528-0.771
	c0.173-0.262,0.345-0.527,0.484-0.81c0.125-0.251,0.229-0.514,0.292-0.789c0.054-0.232,0.087-0.476,0.11-0.713
	c0.014-0.147-0.004-0.289-0.025-0.436c-0.015-0.099-0.038-0.194-0.074-0.288c-0.049-0.127-0.103-0.246-0.185-0.354
	c-0.095-0.124-0.189-0.233-0.308-0.333c-0.262-0.221-0.554-0.39-0.853-0.553c-0.311-0.17-0.641-0.307-0.968-0.442
	c-0.143-0.059-0.284-0.12-0.429-0.174c-0.171-0.063-0.34-0.12-0.514-0.173c-0.144-0.044-0.291-0.075-0.438-0.102
	c-0.192-0.036-0.389-0.065-0.584-0.081c-0.325-0.026-0.65-0.042-0.977-0.044c-0.017,0-0.034,0-0.052,0
	C25.707,6.646,25.581,6.647,25.455,6.651"/>
<path opacity="0.9753" d="M25.806,10.805c0.005,0.012,0.011,0.024,0.015,0.036C25.815,10.83,25.811,10.817,25.806,10.805
	 M24.589,9.699c-0.183,0.011-0.362,0.035-0.543,0.063c-0.14,0.021-0.275,0.063-0.408,0.109c-0.154,0.054-0.311,0.127-0.446,0.218
	c-0.192,0.128-0.382,0.273-0.476,0.491c-0.038,0.086-0.068,0.175-0.094,0.265c-0.027,0.099-0.033,0.204-0.044,0.306
	c-0.014,0.135-0.023,0.271-0.03,0.407c-0.017,0.312-0.005,0.623,0.004,0.934c0,0.001,0.001,0.001,0.001,0
	c0.1-0.317,0.186-0.638,0.297-0.95c0.055-0.153,0.11-0.306,0.168-0.458c0.039-0.085,0.088-0.167,0.142-0.244
	c0.02-0.023,0.041-0.044,0.063-0.064c0.08-0.054,0.167-0.096,0.255-0.136c0.173-0.067,0.347-0.111,0.528-0.14
	c0.294-0.022,0.584-0.019,0.878,0.005c0.037,0.005,0.073,0.01,0.109,0.015c0.216,0.039,0.433,0.08,0.638,0.155
	c0.041,0.021,0.08,0.044,0.117,0.07c0.016,0.013,0.03,0.027,0.044,0.041c0.002,0.005,0.003,0.01,0.004,0.015
	c0.022,0.257-0.01,0.522-0.036,0.777c-0.022,0.224-0.05,0.447-0.074,0.67c-0.063,0.592-0.108,1.186-0.14,1.78
	c0,0.001,0.001,0.001,0.002,0c0.288-0.726,0.558-1.459,0.789-2.206c0.044-0.144,0.083-0.29,0.117-0.436
	c0.052-0.224,0.105-0.463,0.093-0.692c-0.007-0.13-0.046-0.261-0.12-0.37c-0.06-0.086-0.131-0.161-0.213-0.226
	c-0.089-0.07-0.174-0.13-0.278-0.174c-0.119-0.05-0.238-0.094-0.364-0.128c-0.175-0.048-0.361-0.073-0.542-0.088
	C24.933,9.7,24.837,9.695,24.74,9.695C24.69,9.695,24.64,9.696,24.589,9.699"/>
<path opacity="0.9753" d="M22.475,11.033c-0.206,0.378-0.438,0.756-0.552,1.175c-0.117,0.428,0.027,0.851,0.207,1.238
	c0.179,0.386,0.42,0.733,0.664,1.08c0.19,0.271,0.392,0.535,0.597,0.795c0.19,0.243,0.385,0.479,0.618,0.684
	c0.325,0.285,0.685,0.525,1.03,0.783c0.138,0.113,0.269,0.228,0.387,0.361c0.028,0.042,0.055,0.084,0.079,0.129
	c0.018,0.054,0.032,0.108,0.044,0.163c0.007,0.125-0.002,0.249-0.017,0.372c-0.021,0.137-0.042,0.275-0.071,0.411
	c-0.038,0.175-0.076,0.35-0.116,0.525c-0.069,0.3-0.152,0.596-0.228,0.895c-0.085,0.335-0.174,0.668-0.26,1.002
	c-0.079,0.309-0.143,0.619-0.192,0.934c-0.053,0.329-0.088,0.66-0.126,0.991c-0.035,0.309-0.075,0.617-0.105,0.927
	c-0.031,0.309-0.049,0.616-0.045,0.926c0.003,0.296,0.036,0.591,0.023,0.887c-0.002,0.046-0.005,0.092-0.01,0.137
	c-0.013,0.073-0.036,0.14-0.064,0.208c0-0.001,0.001-0.003,0.002-0.004c-0.069,0.165-0.119,0.337-0.175,0.506
	c0,0.001,0.001,0.002,0.002,0.001c0.094-0.148,0.183-0.302,0.287-0.443c0.063-0.086,0.116-0.173,0.148-0.275
	c0.046-0.146,0.079-0.296,0.107-0.446c0.055-0.289,0.089-0.58,0.156-0.867c0.072-0.307,0.16-0.609,0.244-0.914
	c0.08-0.291,0.16-0.581,0.237-0.873c0.084-0.319,0.173-0.636,0.274-0.951c0.096-0.295,0.213-0.584,0.324-0.874
	c0.12-0.313,0.229-0.63,0.343-0.946c0.109-0.301,0.205-0.607,0.289-0.916c0.043-0.158,0.078-0.314,0.109-0.475
	c0.029-0.15,0.049-0.301,0.065-0.453c0.024-0.232,0.002-0.466-0.06-0.692c-0.077-0.284-0.249-0.527-0.452-0.734
	c-0.136-0.139-0.299-0.255-0.457-0.367c-0.23-0.162-0.474-0.312-0.722-0.447c-0.232-0.126-0.459-0.27-0.673-0.427
	c-0.28-0.228-0.542-0.478-0.793-0.737c-0.308-0.318-0.626-0.632-0.9-0.98c-0.148-0.197-0.289-0.401-0.393-0.625
	c-0.035-0.092-0.06-0.185-0.076-0.282c-0.013-0.129-0.006-0.254,0.009-0.383c0.052-0.344,0.155-0.68,0.241-1.018
	C22.477,11.033,22.476,11.033,22.475,11.033C22.476,11.033,22.475,11.033,22.475,11.033"/>
<path opacity="0.9753" d="M13.186,30.243c0,0.001,0.001,0.001,0.002,0.001C13.187,30.244,13.186,30.243,13.186,30.243
	C13.185,30.243,13.185,30.243,13.186,30.243 M32.379,24.008c-0.158,0.712-0.323,1.426-0.446,2.146
	c-0.057,0.33-0.083,0.663-0.108,0.998c-0.022,0.305-0.045,0.609-0.067,0.915c-0.019,0.259-0.036,0.518-0.054,0.775
	c-0.018,0.251-0.034,0.502-0.031,0.754c0.004,0.479,0.01,0.96-0.021,1.437c-0.021,0.121-0.052,0.239-0.09,0.357
	c-0.057,0.114-0.123,0.223-0.196,0.328c-0.045,0.051-0.091,0.099-0.141,0.144c-0.085,0.057-0.171,0.104-0.263,0.147
	c-0.302,0.112-0.619,0.175-0.937,0.223c-0.548,0.063-1.103,0.062-1.653,0.065c-0.605,0.003-1.212,0.004-1.817,0.006
	c-0.317,0.002-0.634,0.001-0.951,0.012c-0.31,0.011-0.618,0.032-0.928,0.044c-0.614,0.023-1.229,0.025-1.844,0.028
	c-0.269,0.001-0.537,0-0.804-0.001c-0.361-0.002-0.721-0.004-1.081,0c-0.324,0.004-0.649,0.013-0.973,0.023
	c-0.32,0.01-0.64,0.031-0.96,0.019c-0.048-0.001-0.095-0.006-0.142-0.01c-0.222-0.037-0.443-0.081-0.658-0.146
	c-0.216-0.064-0.43-0.14-0.639-0.224c-0.348-0.162-0.692-0.342-1.003-0.569c-0.438-0.336-0.894-0.649-1.396-0.883
	c-0.136-0.063-0.273-0.126-0.417-0.169c-0.146-0.043-0.299-0.061-0.451-0.071c-0.137-0.009-0.273-0.02-0.41-0.026
	c-0.075-0.004-0.15-0.002-0.225,0.001c-0.072,0.002-0.145,0.004-0.216,0.001c-0.093-0.02-0.18-0.051-0.267-0.087
	c0,0,0.001,0.001,0.001,0.001c-0.001-0.001-0.002-0.001-0.003-0.002c0,0-0.001,0-0.002,0c0,0,0.001,0,0.001,0
	c-0.076-0.032-0.151-0.064-0.229-0.094c-0.001,0-0.001,0.001-0.001,0.001c0.125,0.085,0.242,0.181,0.372,0.258
	c0.081,0.048,0.163,0.064,0.253,0.081c0.112,0.021,0.222,0.047,0.331,0.077c0.098,0.026,0.194,0.06,0.292,0.085
	c0.109,0.028,0.215,0.062,0.319,0.103c0.196,0.092,0.372,0.217,0.544,0.347c0.234,0.19,0.459,0.388,0.675,0.6
	c0.215,0.211,0.414,0.438,0.649,0.627c0.263,0.211,0.54,0.409,0.834,0.574c0.134,0.075,0.274,0.141,0.413,0.206
	c0.172,0.081,0.349,0.156,0.53,0.217c0.163,0.055,0.325,0.103,0.492,0.144c0.183,0.045,0.378,0.061,0.566,0.074
	c0.32,0.022,0.641,0.028,0.962,0.037c0.64,0.019,1.278,0.018,1.918,0.015c0.619-0.004,1.238-0.002,1.856-0.011
	c0.307-0.004,0.612-0.015,0.918-0.026c0.308-0.012,0.616-0.033,0.925-0.034c0.339-0.001,0.679,0.001,1.019,0.003
	c0.283,0.002,0.566,0.003,0.85,0.003c0.127,0,0.254,0.001,0.381,0.001c0.452,0.001,0.905,0.003,1.357-0.018
	c0.351-0.016,0.698-0.054,1.044-0.112c0.276-0.048,0.55-0.105,0.813-0.2c0.11-0.04,0.218-0.091,0.324-0.139
	c0.069-0.031,0.137-0.066,0.199-0.109c0.097-0.066,0.192-0.139,0.278-0.218c0.088-0.08,0.161-0.175,0.231-0.271
	c0.205-0.276,0.37-0.604,0.427-0.945c0.032-0.189,0.062-0.382,0.054-0.575c-0.007-0.149-0.018-0.299-0.028-0.448
	c-0.021-0.301-0.054-0.6-0.092-0.898c-0.039-0.305-0.058-0.61-0.08-0.916c-0.023-0.309-0.047-0.617-0.073-0.925
	c-0.049-0.554-0.116-1.107-0.118-1.663c-0.002-0.695-0.002-1.39-0.011-2.084H32.379C32.379,24.008,32.379,24.008,32.379,24.008"/>
<path opacity="0.9753" d="M18.362,22.271c-0.314,0.023-0.622,0.088-0.91,0.218c-0.175,0.079-0.333,0.182-0.475,0.312
	c-0.084,0.077-0.165,0.157-0.243,0.24c-0.316,0.338-0.469,0.774-0.635,1.197c0.005-0.013,0.01-0.024,0.015-0.036
	c-0.012,0.029-0.025,0.06-0.038,0.09c-0.037,0.08-0.076,0.158-0.119,0.235c-0.11,0.198-0.261,0.372-0.394,0.556
	c0,0,0,0.001,0.001,0.001c0.202-0.148,0.411-0.287,0.589-0.465c0.082-0.082,0.152-0.173,0.222-0.265
	c0.121-0.156,0.231-0.321,0.351-0.479c0.063-0.076,0.127-0.15,0.198-0.22c0.056-0.055,0.116-0.104,0.178-0.153
	c0.131-0.092,0.266-0.183,0.41-0.254c0.117-0.044,0.238-0.076,0.361-0.097c0.137-0.014,0.272-0.022,0.411-0.02
	c0.145,0.003,0.29,0.02,0.434,0.028c0.303,0.02,0.606,0.034,0.909,0.049c0.308,0.015,0.616,0.032,0.924,0.051
	c0.307,0.019,0.611,0.053,0.916,0.088c0.012,0.001,0.025,0.003,0.038,0.004c0.312,0.049,0.621,0.117,0.917,0.229
	c0.104,0.049,0.199,0.104,0.294,0.171c0.315,0.252,0.613,0.523,0.919,0.787c0.426,0.368,0.857,0.729,1.295,1.083
	c0.001,0,0.002,0,0.002-0.001c-0.412-0.618-0.837-1.228-1.283-1.82c-0.19-0.253-0.386-0.52-0.622-0.73
	c-0.27-0.241-0.609-0.396-0.948-0.513c-0.285-0.098-0.58-0.156-0.877-0.207c-0.338-0.059-0.681-0.104-1.024-0.119
	c-0.179-0.009-0.358-0.012-0.538-0.012C19.214,22.218,18.787,22.24,18.362,22.271"/>
<path opacity="0.9753" d="M20.896,27.362c-0.063,0.008-0.127,0.017-0.19,0.025c-0.149,0.015-0.296,0.027-0.446,0.028
	c-0.167,0.002-0.335,0.008-0.502,0.015c-0.313,0.014-0.625,0.033-0.938,0.059c-0.308,0.025-0.615,0.05-0.922,0.078
	c-0.303,0.028-0.606,0.049-0.911,0.048c-0.106,0-0.212-0.01-0.318-0.021c-0.038-0.007-0.073-0.015-0.109-0.027
	c-0.06-0.033-0.117-0.071-0.172-0.112c-0.122-0.098-0.237-0.204-0.361-0.299c0,0-0.001,0.001-0.001,0.001
	c0.101,0.156,0.187,0.323,0.299,0.473c0.05,0.066,0.104,0.121,0.171,0.171c0.062,0.047,0.146,0.07,0.218,0.099
	c0.136,0.054,0.276,0.09,0.418,0.121c0.305,0.068,0.619,0.094,0.93,0.114c0.624,0.042,1.252,0.062,1.875,0.005
	c0.285-0.026,0.567-0.056,0.845-0.121c0.219-0.051,0.435-0.129,0.644-0.212c0.616-0.244,1.222-0.514,1.817-0.803
	c0,0,0-0.001-0.001-0.001C22.456,27.092,21.675,27.221,20.896,27.362"/>
<path opacity="0.9753" d="M21.811,33.032c-0.17,0.005-0.338,0.016-0.507,0.029c-0.305,0.024-0.609,0.043-0.915,0.046
	c-0.074,0.001-0.147,0.001-0.222,0.001c-0.22,0-0.44,0-0.659,0.022c-0.347,0.037-0.687,0.101-1.029,0.169
	c-0.308,0.062-0.617,0.114-0.924,0.181c-0.008,0.002-0.016,0.004-0.024,0.006c-0.008-0.002-0.016-0.005-0.023-0.007
	c-0.206-0.059-0.417-0.104-0.628-0.134c-0.221-0.031-0.438-0.019-0.649,0.058c-0.217,0.078-0.418,0.194-0.615,0.313
	c-0.274,0.166-0.547,0.332-0.806,0.522c-0.278,0.205-0.55,0.421-0.809,0.65c-0.177,0.156-0.351,0.314-0.517,0.482
	c-0.08,0.081-0.158,0.163-0.235,0.246c-0.182,0.196-0.391,0.404-0.381,0.692c0.01,0.311,0.246,0.547,0.556,0.557
	c0.21,0.006,0.396-0.095,0.578-0.188c0.075-0.038,0.148-0.08,0.222-0.12c0.144-0.079,0.285-0.163,0.425-0.25
	c0.258-0.158,0.513-0.327,0.759-0.504c0.259-0.187,0.509-0.384,0.779-0.555c0.274-0.173,0.55-0.335,0.841-0.479
	c0.15-0.074,0.302-0.143,0.455-0.21c0.282-0.106,0.57-0.192,0.857-0.286c0.311-0.102,0.619-0.211,0.93-0.313
	c0.282-0.093,0.575-0.162,0.868-0.212c0.308-0.052,0.613-0.112,0.915-0.195c0.193-0.053,0.384-0.118,0.579-0.167
	c0.483-0.123,0.974-0.215,1.461-0.319c0.001,0,0.001-0.001,0-0.001c-0.358-0.013-0.719-0.038-1.078-0.038
	C21.945,33.029,21.877,33.029,21.811,33.032"/>
<path opacity="0.9753" d="M12.093,23.171c-0.154,0.029-0.307,0.071-0.458,0.112c-0.069,0.019-0.137,0.038-0.206,0.058
	c-0.09,0.025-0.176,0.057-0.262,0.096c-0.057,0.026-0.124,0.075-0.164,0.116c-0.062,0.062-0.105,0.137-0.129,0.222
	c-0.009,0.051-0.015,0.103-0.02,0.154c-0.017,0.178,0.109,0.343,0.249,0.434c0.161,0.105,0.369,0.11,0.555,0.111
	c0.095,0,0.189-0.012,0.284-0.021c0.102-0.011,0.204-0.023,0.305-0.036c0.291-0.035,0.58-0.076,0.869-0.122
	c0.457-0.071,0.911-0.154,1.368-0.22c0.051-0.007,0.102-0.014,0.153-0.021c0.366-0.045,0.732-0.089,1.098-0.133
	c0.053-0.007,0.106-0.014,0.159-0.02c0.099,0.013,0.197,0.025,0.295,0.038c-0.007-0.001-0.015-0.002-0.022-0.003
	c0.183,0.025,0.366,0.049,0.549,0.071c0.001,0,0.001-0.001,0-0.001c-0.12-0.055-0.241-0.108-0.361-0.162
	c0.067-0.006,0.135-0.008,0.203-0.008c0.257,0,0.515,0.013,0.773,0.018c0,0,0.001-0.001,0-0.002
	c-0.22-0.073-0.439-0.148-0.661-0.217c-0.085-0.026-0.171-0.051-0.259-0.065c-0.159-0.026-0.319-0.045-0.479-0.063
	c-0.163-0.019-0.326-0.036-0.489-0.051c-0.007-0.003-0.014-0.006-0.021-0.009c-0.122-0.051-0.246-0.095-0.369-0.14
	c-0.256-0.094-0.512-0.18-0.782-0.228c-0.252-0.045-0.506-0.064-0.761-0.064C13.036,23.017,12.56,23.083,12.093,23.171"/>
</svg>
