<?xml version="1.0" encoding="utf-8"?>
<!-- Generator: Adobe Illustrator 15.0.0, SVG Export Plug-In . SVG Version: 6.00 Build 0)  -->
<!DOCTYPE svg PUBLIC "-//W3C//DTD SVG 1.1//EN" "http://www.w3.org/Graphics/SVG/1.1/DTD/svg11.dtd">
<svg version="1.1" id="Capa_1" xmlns="http://www.w3.org/2000/svg" xmlns:xlink="http://www.w3.org/1999/xlink" x="0px" y="0px"
	 width="45px" height="45px" viewBox="-0.5 -0.5 45 45" enable-background="new -0.5 -0.5 45 45" xml:space="preserve">
<g>
	<path opacity="0.9753" fill="#292521" d="M25.515,35.837c0.021-0.026,0.041-0.054,0.062-0.079c0.005-0.008,0.01-0.016,0.016-0.022
		C25.567,35.77,25.541,35.803,25.515,35.837 M26.673,36.075c-0.032,0.024-0.064,0.05-0.097,0.074
		c0.029-0.023,0.06-0.047,0.089-0.069C26.668,36.079,26.671,36.077,26.673,36.075 M26.755,36.012
		c-0.022,0.017-0.044,0.033-0.064,0.05C26.711,36.045,26.732,36.027,26.755,36.012 M10.465,22.994
		c0.263-0.011,0.527-0.021,0.79-0.025c0.552-0.01,1.103-0.014,1.654-0.018c1.054-0.006,2.108-0.006,3.163-0.01
		c1.078-0.002,2.156-0.004,3.234-0.005c0.502,0,1.003,0.001,1.504,0.021c0.536,0.021,1.073,0.033,1.609,0.059
		c0.536,0.026,1.073,0.048,1.608,0.095c0.248,0.021,0.495,0.051,0.744,0.076c0.255,0.024,0.511,0.043,0.767,0.057
		c0.409,0.021,0.819,0.05,1.228,0.095c0.106,0.015,0.214,0.034,0.316,0.066c0.075,0.205,0.121,0.42,0.166,0.634
		c0.041,0.192,0.073,0.387,0.108,0.58s0.06,0.39,0.09,0.584c0.022,0.149,0.045,0.298,0.066,0.447c0.059,0.524,0.101,1.05,0.13,1.577
		c0.015,0.261,0.035,0.522,0.051,0.784c0.014,0.244,0.026,0.488,0.043,0.732c0.019,0.269,0.044,0.537,0.063,0.806
		c0.02,0.25,0.028,0.501,0.036,0.752c0.015,0.521,0.015,1.046,0.013,1.568c-0.001,0.142,0.002,0.286-0.01,0.427
		c-0.011,0.132-0.023,0.261-0.039,0.392c-0.034,0.229-0.077,0.458-0.138,0.684c-0.066,0.242-0.13,0.486-0.218,0.722
		c-0.016,0.035-0.032,0.07-0.05,0.104c-0.034,0.064-0.077,0.124-0.121,0.184c-0.038,0.049-0.077,0.095-0.12,0.139
		c-0.056,0.059-0.114,0.112-0.176,0.163c-0.098,0.069-0.196,0.137-0.297,0.202c-0.115,0.074-0.236,0.145-0.351,0.221
		c-0.15,0.102-0.294,0.21-0.437,0.323c-0.054,0.044-0.106,0.092-0.156,0.142c-0.058,0.06-0.109,0.122-0.16,0.188
		c-0.082,0.106-0.154,0.219-0.232,0.327c-0.086,0.104-0.178,0.201-0.28,0.29c-0.033,0.023-0.065,0.046-0.102,0.065
		c-0.025,0.015-0.053,0.029-0.08,0.041c-0.157,0.059-0.314,0.101-0.479,0.128c-0.455,0.048-0.916,0.034-1.372,0.038
		c-0.516,0.005-1.031,0.007-1.546,0.012c-0.273,0.003-0.546,0.007-0.819,0.013c-0.324-0.02-0.647-0.038-0.971-0.052
		c-0.281-0.011-0.56-0.008-0.84,0.004c-0.245,0.01-0.49,0.022-0.734,0.044c-0.529,0.049-1.058,0.098-1.589,0.111
		c-0.536,0.014-1.071,0.019-1.607,0.019c-0.214,0-0.427-0.002-0.641-0.005c-0.121-0.001-0.241-0.003-0.362-0.006
		c-0.083-0.002-0.166-0.002-0.248-0.009c-0.003-0.005-0.006-0.01-0.009-0.016c-0.056-0.161-0.085-0.332-0.131-0.496
		c-0.063-0.222-0.165-0.439-0.348-0.584c-0.112-0.09-0.231-0.169-0.362-0.228c-0.196-0.09-0.4-0.162-0.6-0.245
		c-0.144-0.059-0.29-0.111-0.433-0.168c-0.216-0.095-0.423-0.2-0.615-0.338c-0.036-0.029-0.072-0.059-0.108-0.088
		c-0.121-0.099-0.225-0.22-0.323-0.342c-0.128-0.175-0.236-0.364-0.326-0.562c-0.029-0.064-0.058-0.129-0.087-0.193
		c-0.033-0.086-0.065-0.171-0.098-0.256c-0.042-0.109-0.069-0.226-0.103-0.337c-0.014-0.047-0.021-0.097-0.033-0.145
		c-0.016-0.068-0.031-0.137-0.047-0.204c-0.027-0.119-0.045-0.241-0.067-0.36c-0.076-0.41-0.136-0.823-0.197-1.235
		c-0.06-0.505-0.108-1.013-0.137-1.521c-0.015-0.265-0.02-0.528-0.026-0.792c-0.006-0.268-0.016-0.534-0.029-0.801
		c-0.012-0.244-0.042-0.488-0.069-0.73c-0.032-0.283-0.064-0.566-0.095-0.849c-0.026-0.245-0.056-0.49-0.074-0.736
		c-0.02-0.273-0.036-0.548-0.055-0.821c-0.027-0.401-0.053-0.808-0.009-1.208c0.02-0.134,0.047-0.269,0.088-0.397
		c0.114-0.036,0.231-0.059,0.35-0.075C9.974,23.021,10.22,23.005,10.465,22.994 M10.798,22.015
		c-0.265,0.006-0.531,0.008-0.795,0.027c-0.261,0.019-0.521,0.039-0.778,0.091c-0.081,0.016-0.16,0.041-0.236,0.072
		c-0.065,0.027-0.125,0.051-0.186,0.086c-0.058,0.032-0.108,0.078-0.158,0.121c-0.035,0.029-0.086,0.106-0.115,0.155
		c-0.031,0.053-0.06,0.131-0.079,0.181c-0.017,0.046-0.031,0.092-0.044,0.139c-0.036,0.124-0.062,0.252-0.083,0.38
		c-0.028,0.17-0.048,0.343-0.052,0.516c-0.003,0.121,0.011,0.242,0.021,0.362c0.011,0.126,0.022,0.252,0.033,0.378
		c0.046,0.525,0.079,1.054,0.137,1.58c0.058,0.524,0.131,1.048,0.173,1.574c0.043,0.536,0.04,1.073,0.063,1.608
		c0.01,0.247,0.028,0.492,0.051,0.736c0.024,0.263,0.045,0.525,0.075,0.787c0.033,0.292,0.073,0.584,0.116,0.874
		c0.038,0.257,0.073,0.516,0.118,0.771c0.046,0.264,0.085,0.532,0.161,0.789c0.04,0.134,0.078,0.266,0.126,0.396
		c0.062,0.168,0.131,0.333,0.204,0.497c0.048,0.109,0.099,0.217,0.155,0.321c0.102,0.191,0.23,0.362,0.365,0.532
		c0.169,0.212,0.371,0.384,0.586,0.546c0.295,0.223,0.636,0.361,0.975,0.503c0.213,0.09,0.431,0.17,0.646,0.256
		c0.083,0.039,0.163,0.082,0.24,0.132c0.005,0.006,0.01,0.011,0.016,0.016c0.006,0.01,0.012,0.02,0.017,0.029
		c0.123,0.368,0.146,0.791,0.457,1.063c0.176,0.153,0.39,0.231,0.623,0.235c0.064,0.001,0.128,0.001,0.193-0.001
		c0.127-0.003,0.255-0.006,0.383-0.008c0.524-0.009,1.049-0.009,1.574-0.016c0.379-0.005,0.759-0.01,1.137-0.031
		c0.194-0.011,0.388-0.022,0.582-0.044c0.213-0.023,0.425-0.05,0.638-0.078c0.133-0.018,0.267-0.034,0.401-0.05
		c0.69,0.037,1.381,0.064,2.073,0.083c0.519,0.014,1.038,0.019,1.557,0.021c0.481,0.004,0.963,0.011,1.444,0.003
		c0.23-0.003,0.461-0.01,0.691-0.027c0.271-0.021,0.532-0.072,0.788-0.158c0.181-0.062,0.36-0.142,0.517-0.252
		c0.118-0.083,0.24-0.177,0.338-0.285c0.098-0.109,0.192-0.226,0.276-0.346c0.052-0.075,0.1-0.152,0.151-0.227
		c0.094-0.104,0.195-0.194,0.303-0.283c0.193-0.146,0.407-0.266,0.608-0.399c0.133-0.088,0.261-0.182,0.386-0.28
		c0.104-0.082,0.195-0.175,0.281-0.274c0.133-0.153,0.261-0.321,0.347-0.507c0.065-0.143,0.122-0.288,0.168-0.438
		c0.075-0.249,0.148-0.502,0.204-0.756c0.064-0.285,0.103-0.578,0.133-0.869c0.015-0.135,0.022-0.27,0.028-0.404
		c0.004-0.132-0.001-0.265-0.002-0.396c-0.004-0.507-0.006-1.015-0.023-1.521c-0.01-0.274-0.024-0.551-0.046-0.825
		c-0.02-0.243-0.046-0.484-0.063-0.728c-0.021-0.271-0.036-0.543-0.051-0.813c-0.015-0.259-0.034-0.518-0.049-0.775
		c-0.03-0.557-0.079-1.114-0.153-1.666c-0.073-0.536-0.148-1.073-0.239-1.607c-0.019-0.111-0.037-0.226-0.064-0.335
		c-0.075-0.297-0.146-0.628-0.396-0.83c-0.057-0.046-0.101-0.081-0.161-0.112c-0.059-0.03-0.122-0.054-0.184-0.076
		c-0.043-0.016-0.089-0.022-0.134-0.031c-0.1-0.02-0.202-0.031-0.304-0.044c-0.125-0.015-0.251-0.023-0.376-0.033
		c-0.52-0.039-1.04-0.056-1.562-0.092c-0.246-0.018-0.491-0.045-0.737-0.065c-0.259-0.021-0.517-0.04-0.776-0.054
		c-0.258-0.013-0.518-0.024-0.776-0.035c-0.262-0.011-0.524-0.025-0.786-0.031c-0.267-0.007-0.534-0.011-0.8-0.02
		c-0.271-0.009-0.542-0.024-0.812-0.025c-0.521-0.002-1.042-0.003-1.562-0.003c-1.076-0.001-2.151-0.004-3.227-0.007
		c-1.047-0.002-2.093-0.006-3.14-0.007c-0.285-0.001-0.57-0.002-0.855-0.002C11.3,22.009,11.049,22.01,10.798,22.015"/>
	<path opacity="0.9753" fill="#292521" d="M29.185,33.43c-0.005,0.001-0.01,0.001-0.015,0.002
		C29.175,33.431,29.18,33.431,29.185,33.43 M28.575,33.399c0.003,0.002,0.007,0.003,0.01,0.004
		C28.582,33.402,28.578,33.401,28.575,33.399 M30.442,25.288c-0.132,0.013-0.265,0.028-0.396,0.044
		c-0.593,0.075-1.183,0.188-1.769,0.296c-0.001,0-0.001,0.002,0,0.002c0.426,0.021,0.853,0.038,1.279,0.056
		c0.348,0.014,0.698,0.019,1.043,0.061c0.181,0.029,0.354,0.083,0.524,0.15c0.163,0.074,0.317,0.164,0.462,0.271
		c0.265,0.212,0.498,0.457,0.71,0.723c0.137,0.188,0.278,0.375,0.395,0.576c0.158,0.272,0.316,0.543,0.445,0.829
		c0.105,0.268,0.181,0.54,0.229,0.823c0.026,0.203,0.05,0.405,0.061,0.609c0.021,0.361,0.046,0.726,0.008,1.086
		c-0.025,0.163-0.063,0.322-0.122,0.477c-0.072,0.155-0.158,0.305-0.259,0.443c-0.155,0.19-0.328,0.365-0.521,0.521
		c-0.105,0.078-0.216,0.149-0.326,0.224c-0.085,0.057-0.18,0.103-0.269,0.153c-0.173,0.099-0.357,0.179-0.538,0.261
		c-0.073,0.029-0.146,0.059-0.219,0.088c-0.083,0.034-0.172,0.061-0.257,0.091c-0.173,0.061-0.352,0.104-0.529,0.148
		c-0.344,0.088-0.698,0.136-1.05,0.188c0.003,0,0.006,0,0.008-0.001c-0.05,0.007-0.099,0.014-0.149,0.02
		c-0.148,0.017-0.302,0.04-0.451,0.03c-0.057-0.011-0.11-0.031-0.164-0.053c-0.148-0.066-0.288-0.15-0.436-0.22
		c-0.001-0.001-0.001,0-0.001,0.001c0.119,0.094,0.227,0.201,0.349,0.292c0.058,0.042,0.118,0.088,0.186,0.115
		c0.079,0.033,0.161,0.043,0.245,0.053c0.128,0.015,0.256,0.026,0.385,0.033c0.266,0.016,0.531,0.018,0.797,0.019
		c0.272,0,0.543-0.025,0.812-0.063c0.25-0.036,0.501-0.083,0.744-0.155c0.208-0.062,0.413-0.127,0.614-0.211
		c-0.021,0.01-0.043,0.019-0.065,0.028c0.145-0.061,0.292-0.116,0.431-0.188c0.062-0.032,0.123-0.064,0.184-0.096
		c0.186-0.098,0.354-0.228,0.519-0.357c0.292-0.231,0.537-0.521,0.723-0.843c0.211-0.365,0.297-0.78,0.327-1.197
		c0.014-0.195-0.001-0.393-0.008-0.588c-0.005-0.12-0.011-0.24-0.021-0.359c-0.032-0.406-0.07-0.812-0.188-1.204
		c-0.136-0.453-0.371-0.869-0.638-1.257c-0.174-0.254-0.362-0.494-0.565-0.725c-0.196-0.222-0.414-0.42-0.649-0.6
		c-0.297-0.228-0.619-0.408-0.98-0.513c-0.218-0.062-0.443-0.093-0.67-0.093C30.6,25.277,30.521,25.28,30.442,25.288"/>
	<path opacity="0.9753" fill="#292521" d="M28.591,27.246c0,0.001-0.001,0.003-0.001,0.004
		C28.59,27.249,28.591,27.247,28.591,27.246 M29.373,26.604c-0.06,0.002-0.118,0.008-0.177,0.014
		c-0.126,0.015-0.239,0.058-0.354,0.11c-0.133,0.062-0.242,0.174-0.301,0.309c-0.072,0.167-0.062,0.365-0.077,0.544
		c0,0.001,0.001,0.001,0.001,0c0.043-0.109,0.079-0.221,0.123-0.329c0.021-0.049,0.044-0.094,0.074-0.138
		c0.024-0.029,0.05-0.056,0.079-0.08c0.027-0.02,0.055-0.036,0.085-0.051c0.065-0.023,0.131-0.038,0.198-0.05
		c0.079-0.008,0.156-0.004,0.234,0.004c0.152,0.023,0.303,0.054,0.451,0.092c0.157,0.041,0.309,0.095,0.46,0.152
		c0.089,0.041,0.177,0.083,0.265,0.127c0.191,0.099,0.371,0.214,0.543,0.342c0.216,0.172,0.409,0.364,0.582,0.578
		c0.102,0.137,0.194,0.279,0.277,0.429c0.079,0.143,0.156,0.287,0.222,0.436c0.101,0.25,0.173,0.509,0.215,0.774
		c0.027,0.261,0.019,0.521-0.012,0.782c-0.032,0.215-0.081,0.427-0.16,0.63c-0.056,0.124-0.121,0.242-0.201,0.354
		c-0.057,0.069-0.119,0.134-0.188,0.191c-0.072,0.051-0.147,0.094-0.228,0.131c-0.201,0.077-0.414,0.131-0.622,0.188
		c-0.163,0.045-0.326,0.092-0.489,0.138c-0.448,0.128-0.896,0.261-1.342,0.4v0.001c0.635-0.019,1.272-0.038,1.906-0.092
		c0.203-0.018,0.406-0.034,0.608-0.063c0.374-0.054,0.715-0.255,0.962-0.538c0.255-0.292,0.425-0.641,0.529-1.012
		c0.055-0.191,0.083-0.389,0.107-0.586c0.022-0.19,0.027-0.381,0.009-0.572c-0.019-0.202-0.055-0.402-0.114-0.597
		c-0.059-0.199-0.144-0.394-0.237-0.58c-0.077-0.152-0.173-0.298-0.267-0.44c-0.118-0.177-0.253-0.345-0.396-0.499
		c-0.252-0.271-0.556-0.493-0.879-0.67c-0.228-0.125-0.47-0.211-0.716-0.289c-0.257-0.08-0.53-0.119-0.799-0.136
		c-0.072-0.004-0.145-0.006-0.216-0.006C29.478,26.602,29.426,26.603,29.373,26.604"/>
	<path opacity="0.9753" fill="#292521" d="M23.075,7.323c-0.003,0.001-0.006,0.002-0.008,0.003
		C23.069,7.325,23.072,7.324,23.075,7.323 M23.519,7.056c-0.041,0.002-0.083,0.013-0.124,0.019c-0.142,0.02-0.282,0.045-0.423,0.074
		c-0.139,0.029-0.276,0.073-0.4,0.143c-0.27,0.152-0.514,0.362-0.705,0.605c-0.328,0.433-0.569,0.927-0.713,1.451
		c-0.101,0.365-0.109,0.75-0.115,1.126c-0.003,0.279,0,0.558,0.01,0.837c0.005,0.143,0.019,0.287,0.036,0.43
		c0.025,0.209,0.058,0.416,0.11,0.619c0.042,0.166,0.099,0.328,0.161,0.487c0.135,0.349,0.308,0.677,0.513,0.989
		c0.075,0.114,0.158,0.224,0.237,0.335c0.076,0.108,0.161,0.211,0.241,0.317c0.088,0.114,0.177,0.228,0.265,0.342
		c0.145,0.187,0.29,0.374,0.435,0.561c0.09,0.118,0.18,0.235,0.271,0.352c0.25,0.346,0.518,0.685,0.7,1.074
		c0.039,0.104,0.069,0.21,0.089,0.32c0.021,0.225,0.018,0.454,0.004,0.679c-0.003,0.041-0.006,0.082-0.009,0.123
		c0.002,0.004,0.003,0.009,0.004,0.013c0.049,0.168,0.048,0.356,0.027,0.53c-0.021,0.182-0.073,0.354-0.144,0.523
		c-0.032,0.076-0.066,0.151-0.103,0.226c-0.002,0.007-0.005,0.015-0.007,0.022c-0.021,0.076-0.053,0.151-0.086,0.224
		c-0.04,0.131-0.083,0.26-0.141,0.386c-0.007,0.015-0.015,0.031-0.021,0.046c0.108-0.04,0.212-0.098,0.308-0.161
		c0.16-0.108,0.299-0.239,0.413-0.394c0.181-0.247,0.293-0.539,0.383-0.829c0.078-0.25,0.124-0.509,0.159-0.768
		c0.017-0.122,0.033-0.243,0.046-0.364c0.021-0.221,0.005-0.438-0.035-0.655c-0.035-0.195-0.119-0.381-0.203-0.559
		c-0.082-0.168-0.178-0.328-0.277-0.485c-0.155-0.241-0.328-0.471-0.502-0.696c-0.336-0.435-0.682-0.862-1.02-1.295
		c-0.078-0.108-0.155-0.216-0.232-0.324c-0.177-0.247-0.317-0.523-0.439-0.801c-0.119-0.293-0.213-0.594-0.272-0.905
		c-0.023-0.126-0.041-0.253-0.059-0.38c-0.025-0.243-0.051-0.484-0.07-0.727c-0.028-0.349-0.062-0.7-0.029-1.05
		c0.011-0.075,0.022-0.15,0.037-0.225c0.021-0.105,0.047-0.208,0.072-0.312c0.049-0.193,0.118-0.378,0.192-0.562
		c0.044-0.101,0.091-0.199,0.143-0.296c0.05-0.094,0.114-0.18,0.178-0.266c0.102-0.125,0.212-0.242,0.334-0.348
		c0.104-0.076,0.216-0.135,0.335-0.188c0.056-0.023,0.112-0.047,0.167-0.071c0.058-0.024,0.117-0.045,0.175-0.068
		c0.047-0.019,0.093-0.038,0.141-0.052c0.098-0.029,0.199-0.046,0.298-0.07c0,0,0-0.001,0-0.001c-0.066,0-0.132-0.002-0.198-0.002
		C23.621,7.052,23.57,7.053,23.519,7.056"/>
	<path opacity="0.9753" fill="#292521" d="M18.194,9.796c-0.13,0.047-0.251,0.114-0.371,0.183c-0.048,0.027-0.095,0.059-0.139,0.092
		c-0.108,0.079-0.218,0.158-0.309,0.257c-0.102,0.113-0.197,0.23-0.289,0.353c-0.071,0.094-0.135,0.195-0.197,0.295
		c-0.068,0.111-0.136,0.222-0.196,0.338c-0.08,0.155-0.148,0.314-0.21,0.477c-0.11,0.283-0.154,0.579-0.166,0.881
		c-0.01,0.269-0.001,0.537,0.02,0.805c0.019,0.228,0.064,0.457,0.144,0.672c0.059,0.161,0.126,0.318,0.197,0.475
		c0.055,0.122,0.127,0.237,0.197,0.35c0.061,0.099,0.128,0.195,0.196,0.289c0.184,0.253,0.375,0.5,0.57,0.744
		c0.101,0.125,0.211,0.243,0.315,0.365c0.106,0.124,0.209,0.249,0.313,0.375c0.126,0.169,0.251,0.339,0.376,0.509
		c0.067,0.092,0.13,0.188,0.195,0.281c0.146,0.209,0.277,0.429,0.381,0.662c0.042,0.108,0.073,0.218,0.093,0.333
		c0.012,0.12,0.012,0.239,0,0.358c-0.015,0.082-0.039,0.161-0.069,0.238c-0.117,0.261-0.278,0.498-0.432,0.738
		c-0.142,0.221-0.283,0.443-0.423,0.665c0,0.001,0,0.001,0.001,0.001c0.255-0.239,0.508-0.482,0.759-0.726
		c0.252-0.245,0.502-0.521,0.608-0.862c0.053-0.173,0.075-0.362,0.073-0.542c-0.002-0.205-0.053-0.41-0.117-0.603
		c-0.131-0.397-0.341-0.77-0.549-1.132c-0.129-0.224-0.268-0.44-0.414-0.653c-0.118-0.174-0.25-0.34-0.378-0.507
		c-0.125-0.163-0.24-0.334-0.358-0.503c-0.111-0.158-0.225-0.315-0.326-0.48c-0.06-0.097-0.118-0.193-0.172-0.293
		c-0.045-0.082-0.086-0.166-0.127-0.25c-0.034-0.085-0.068-0.172-0.099-0.259c-0.062-0.172-0.088-0.354-0.117-0.535
		c-0.043-0.337-0.09-0.68-0.055-1.018c0.031-0.199,0.081-0.396,0.144-0.587c0.042-0.126,0.092-0.25,0.142-0.373
		c0.106-0.243,0.22-0.484,0.376-0.698c0.124-0.15,0.261-0.283,0.411-0.407c0.066-0.048,0.131-0.093,0.206-0.128
		c0.133-0.049,0.277-0.068,0.417-0.087c-0.005,0-0.01,0.001-0.015,0.002c0.158-0.02,0.316-0.036,0.473-0.061
		c0.001,0,0-0.001,0-0.001c-0.189-0.019-0.378-0.048-0.568-0.066c-0.065-0.006-0.131-0.011-0.197-0.011
		C18.401,9.748,18.295,9.76,18.194,9.796"/>
	<path opacity="0.9753" fill="#292521" d="M14.676,7.935c-0.026,0.012-0.053,0.023-0.08,0.035c0,0,0.001,0,0.001-0.001
		c-0.151,0.063-0.303,0.123-0.449,0.198C14.07,8.208,14,8.266,13.929,8.32c-0.101,0.077-0.198,0.158-0.298,0.235
		c-0.208,0.161-0.41,0.329-0.606,0.504c-0.28,0.249-0.542,0.529-0.72,0.861c-0.09,0.167-0.156,0.351-0.191,0.537
		c-0.032,0.164-0.048,0.332-0.054,0.499c-0.006,0.143-0.01,0.285-0.012,0.428c-0.001,0.247-0.001,0.497,0.02,0.743
		c0.025,0.296,0.054,0.594,0.116,0.885c0.055,0.257,0.111,0.515,0.193,0.766c0.091,0.279,0.191,0.555,0.295,0.829
		c0.087,0.229,0.175,0.457,0.276,0.679c0.057,0.125,0.115,0.249,0.172,0.373c0.058,0.123,0.13,0.241,0.195,0.36
		c0.049,0.089,0.1,0.177,0.151,0.265c0.057,0.097,0.111,0.196,0.173,0.29c0.079,0.122,0.159,0.242,0.239,0.362
		c0.163,0.243,0.334,0.478,0.454,0.745c0.035,0.09,0.062,0.18,0.079,0.275c0.004,0.054,0.005,0.108,0.001,0.162
		c-0.014,0.066-0.034,0.13-0.058,0.194c-0.095,0.209-0.23,0.396-0.369,0.578c-0.185,0.235-0.379,0.464-0.568,0.696
		c0,0,0,0.001,0.001,0.001c0.259-0.19,0.521-0.379,0.768-0.584c0.238-0.196,0.473-0.418,0.603-0.704
		c0.143-0.314,0.088-0.676-0.019-0.993c-0.086-0.255-0.214-0.492-0.332-0.732c-0.063-0.127-0.126-0.255-0.189-0.382
		c-0.05-0.102-0.093-0.208-0.14-0.311c-0.084-0.188-0.166-0.377-0.248-0.565c-0.049-0.13-0.098-0.261-0.147-0.391
		c-0.044-0.115-0.081-0.234-0.121-0.351c-0.078-0.232-0.16-0.463-0.235-0.697c-0.042-0.129-0.089-0.257-0.127-0.387
		c-0.039-0.133-0.085-0.266-0.119-0.4c-0.033-0.128-0.074-0.257-0.1-0.387c-0.025-0.124-0.057-0.249-0.076-0.373
		c-0.015-0.096-0.03-0.192-0.045-0.288c-0.023-0.195-0.048-0.39-0.064-0.585c-0.028-0.327-0.071-0.663-0.038-0.99
		c0.022-0.133,0.058-0.261,0.107-0.387c0.072-0.158,0.155-0.316,0.254-0.458c0.066-0.094,0.133-0.186,0.202-0.278
		c0.141-0.181,0.284-0.359,0.432-0.534c0.072-0.086,0.143-0.172,0.213-0.258c0.034-0.042,0.067-0.083,0.102-0.123
		c0.025-0.03,0.051-0.06,0.077-0.09c0.055-0.064,0.127-0.116,0.192-0.167c-0.002,0.001-0.004,0.003-0.007,0.005
		C14.465,8.095,14.573,8.018,14.676,7.935C14.678,7.936,14.677,7.935,14.676,7.935L14.676,7.935"/>
</g>
</svg>
