<?xml version="1.0" encoding="utf-8"?>
<!-- Generator: Adobe Illustrator 15.0.0, SVG Export Plug-In . SVG Version: 6.00 Build 0)  -->
<!DOCTYPE svg PUBLIC "-//W3C//DTD SVG 1.1//EN" "http://www.w3.org/Graphics/SVG/1.1/DTD/svg11.dtd">
<svg version="1.1" id="Capa_1" xmlns="http://www.w3.org/2000/svg" xmlns:xlink="http://www.w3.org/1999/xlink" x="0px" y="0px"
	 width="44px" height="44px" viewBox="0 0 44 44" enable-background="new 0 0 44 44" xml:space="preserve">
<path opacity="0.9753" fill="#292521" d="M22.621,8.448c-0.002-0.005-0.004-0.01-0.006-0.015
	C22.617,8.438,22.619,8.442,22.621,8.448 M21.301,8.374c0.021,0.004,0.041,0.008,0.061,0.013c0.049,0.12,0.1,0.239,0.152,0.358
	c0.1,0.23,0.207,0.461,0.324,0.684c0.135,0.255,0.271,0.509,0.412,0.76c0.114,0.205,0.239,0.405,0.362,0.604
	c0.057,0.091,0.113,0.183,0.17,0.274c0.03,0.057,0.061,0.114,0.094,0.17c0.145,0.241,0.289,0.48,0.441,0.717
	c0.019,0.029,0.038,0.058,0.057,0.087c0.045,0.076,0.091,0.152,0.136,0.229c0.256,0.429,0.501,0.863,0.747,1.297
	c0.275,0.487,0.564,0.964,0.845,1.448s0.548,0.975,0.812,1.468c0.236,0.439,0.47,0.88,0.708,1.317
	c0.14,0.256,0.279,0.512,0.416,0.769c0.139,0.258,0.271,0.519,0.404,0.779c0.23,0.453,0.431,0.92,0.633,1.387
	c0.068,0.175,0.128,0.351,0.162,0.535c0.005,0.054,0.007,0.107,0.005,0.16c-0.098,0.061-0.202,0.111-0.305,0.162
	c-0.109,0.056-0.221,0.106-0.333,0.156c-0.245,0.108-0.488,0.218-0.733,0.326c-0.232,0.103-0.463,0.21-0.695,0.312
	c-0.248,0.109-0.497,0.217-0.743,0.33c-0.347,0.158-0.686,0.335-1.026,0.506c-0.356,0.18-0.715,0.355-1.08,0.517
	c-0.13,0.054-0.26,0.106-0.391,0.156c-0.22,0.083-0.443,0.164-0.674,0.207c-0.093,0.007-0.185,0.005-0.277-0.004
	c-0.075-0.014-0.148-0.03-0.22-0.055c-0.049-0.026-0.096-0.055-0.142-0.087c-0.176-0.15-0.339-0.315-0.5-0.48
	c-0.176-0.181-0.353-0.36-0.528-0.542c-0.375-0.386-0.763-0.757-1.156-1.125c-0.386-0.361-0.764-0.732-1.146-1.099
	c-0.408-0.393-0.822-0.776-1.245-1.153c-0.398-0.356-0.803-0.704-1.207-1.054c-0.41-0.354-0.808-0.722-1.206-1.088
	c-0.391-0.359-0.791-0.71-1.189-1.062c-0.391-0.346-0.797-0.675-1.174-1.038c-0.245-0.236-0.499-0.47-0.716-0.733
	c-0.02-0.027-0.038-0.054-0.056-0.082c0.117-0.111,0.25-0.207,0.377-0.305c-0.03,0.023-0.061,0.047-0.091,0.07
	c0.197-0.15,0.394-0.303,0.598-0.443c0.219-0.151,0.439-0.298,0.662-0.444c0.472-0.308,0.948-0.607,1.426-0.905
	c0.206-0.129,0.409-0.264,0.609-0.403c0.244-0.168,0.489-0.334,0.736-0.499c0.45-0.301,0.901-0.598,1.347-0.904
	c0.441-0.304,0.892-0.597,1.337-0.894c0.445-0.296,0.893-0.587,1.347-0.869c0.213-0.133,0.434-0.252,0.664-0.354
	c0.188-0.075,0.381-0.137,0.581-0.173C21.162,8.372,21.231,8.37,21.301,8.374 M21.145,7.306c-0.121,0.007-0.243,0.027-0.362,0.05
	c-0.184,0.036-0.363,0.102-0.536,0.173c-0.299,0.125-0.59,0.268-0.861,0.445c-0.447,0.292-0.89,0.59-1.331,0.892
	c-0.444,0.305-0.892,0.604-1.334,0.912c-0.453,0.314-0.911,0.62-1.368,0.928c-0.23,0.155-0.46,0.31-0.688,0.468
	c-0.22,0.152-0.444,0.299-0.668,0.445c-0.237,0.155-0.482,0.3-0.723,0.45c-0.217,0.135-0.433,0.272-0.648,0.41
	c-0.226,0.145-0.452,0.291-0.676,0.44c-0.216,0.144-0.427,0.295-0.641,0.441c-0.097,0.067-0.197,0.131-0.295,0.198
	c-0.052,0.035-0.104,0.072-0.154,0.109c-0.059,0.043-0.114,0.088-0.169,0.134c-0.083,0.069-0.151,0.163-0.212,0.251
	c-0.035,0.051-0.075,0.147-0.088,0.194c-0.021,0.071-0.028,0.145-0.031,0.218c0.001,0.014,0.003,0.027,0.004,0.04
	c0.004,0.062,0.013,0.123,0.028,0.183c0.016,0.069,0.053,0.134,0.081,0.199c0.032,0.073,0.08,0.14,0.125,0.204
	c0.076,0.105,0.158,0.207,0.244,0.302c0.127,0.141,0.267,0.269,0.402,0.4c0.391,0.377,0.811,0.721,1.23,1.065
	c0.398,0.327,0.786,0.667,1.174,1.006c0.403,0.353,0.798,0.714,1.2,1.067c0.412,0.361,0.83,0.717,1.239,1.082
	c0.415,0.37,0.826,0.744,1.229,1.127c0.378,0.36,0.743,0.732,1.119,1.093c0.377,0.361,0.76,0.718,1.121,1.095
	c0.185,0.193,0.367,0.388,0.55,0.582c0.184,0.195,0.363,0.394,0.548,0.587c0.197,0.206,0.401,0.418,0.665,0.536
	c0.094,0.042,0.188,0.082,0.288,0.107c0.107,0.026,0.218,0.04,0.327,0.053c0.318,0.036,0.641-0.034,0.94-0.138
	c0.297-0.104,0.587-0.229,0.875-0.356c0.225-0.1,0.446-0.207,0.666-0.317c0.251-0.128,0.501-0.257,0.752-0.385
	c0.232-0.117,0.462-0.243,0.698-0.351c0.485-0.221,0.976-0.429,1.465-0.639c0.215-0.09,0.43-0.179,0.645-0.267
	c0.273-0.111,0.544-0.229,0.804-0.367c0.095-0.05,0.18-0.12,0.259-0.189c0.054-0.047,0.091-0.111,0.134-0.167
	c0.037-0.05,0.077-0.158,0.092-0.203c0.085-0.248,0.059-0.501,0.022-0.753c-0.045-0.305-0.18-0.595-0.307-0.873
	c-0.116-0.254-0.234-0.507-0.354-0.76c-0.108-0.231-0.227-0.459-0.348-0.685c-0.141-0.263-0.284-0.524-0.43-0.785
	c-0.25-0.443-0.508-0.881-0.751-1.327c-0.334-0.612-0.669-1.224-1.017-1.828c-0.409-0.862-0.904-1.679-1.413-2.486
	c-0.141-0.223-0.284-0.445-0.427-0.667c-0.089-0.138-0.179-0.275-0.269-0.413c-0.072-0.111-0.137-0.228-0.204-0.342
	c-0.275-0.46-0.504-0.948-0.722-1.438c-0.123-0.295-0.247-0.589-0.373-0.882C22.64,8.492,22.605,8.41,22.57,8.328
	c0.016,0.035,0.03,0.07,0.045,0.104c-0.065-0.154-0.128-0.308-0.2-0.458c-0.062-0.13-0.145-0.25-0.249-0.353
	c-0.174-0.171-0.417-0.256-0.654-0.292c-0.099-0.015-0.192-0.025-0.289-0.025C21.198,7.304,21.171,7.305,21.145,7.306"/>
<path opacity="0.9753" fill="#292521" d="M28.317,20.853c0.223,0.468,0.448,0.935,0.668,1.405c0.045,0.108,0.092,0.215,0.128,0.326
	c0.05,0.15,0.093,0.3,0.135,0.452c0.071,0.256,0.114,0.52,0.153,0.781c0.024,0.198,0.044,0.396,0.055,0.596
	c0.012,0.206,0.012,0.414,0.008,0.621c-0.008,0.43-0.02,0.859-0.055,1.288c-0.036,0.221-0.085,0.437-0.164,0.646
	c-0.042,0.086-0.091,0.165-0.146,0.241c-0.108,0.128-0.231,0.236-0.36,0.345c-0.008,0.007-0.017,0.013-0.024,0.02
	c-0.116,0.08-0.232,0.154-0.358,0.216c-0.168,0.061-0.341,0.095-0.517,0.122c-0.288,0.028-0.575,0.04-0.864,0.047
	c-0.136,0.003-0.272,0.006-0.408,0.007c-0.202,0.002-0.403,0.006-0.605-0.014c-0.188-0.031-0.373-0.08-0.552-0.147
	c-0.199-0.093-0.386-0.205-0.573-0.32c-0.094-0.058-0.187-0.117-0.276-0.18c-0.195-0.137-0.39-0.274-0.581-0.416
	c-0.391-0.305-0.776-0.615-1.135-0.957c-0.381-0.363-0.702-0.783-1.039-1.187c-0.23-0.276-0.453-0.559-0.678-0.839
	c-0.109-0.137-0.228-0.264-0.352-0.388c-0.059-0.06-0.122-0.116-0.185-0.171c-0.172-0.149-0.316-0.323-0.47-0.491
	c0-0.001-0.001,0-0.001,0.001c0.086,0.157,0.167,0.317,0.261,0.471c0.042,0.066,0.094,0.128,0.139,0.192
	c0.074,0.104,0.144,0.212,0.21,0.321c0.132,0.22,0.241,0.452,0.362,0.678c0.126,0.235,0.254,0.469,0.388,0.699
	c0.132,0.229,0.262,0.458,0.402,0.682c0.291,0.462,0.656,0.866,1.041,1.251c0.194,0.195,0.393,0.385,0.6,0.566
	c0.229,0.201,0.469,0.389,0.712,0.573c0.123,0.094,0.251,0.182,0.381,0.267c0.347,0.224,0.741,0.374,1.149,0.433
	c0.165,0.023,0.329,0.042,0.496,0.043c0.068,0,0.137,0,0.205,0c0.13-0.001,0.26-0.001,0.389-0.003
	c0.251-0.003,0.503-0.005,0.754-0.027c0.175-0.016,0.349-0.038,0.522-0.062c0.06-0.009,0.119-0.021,0.178-0.03
	c0.207-0.037,0.399-0.114,0.59-0.2c0.206-0.095,0.385-0.238,0.562-0.378c0.192-0.152,0.353-0.333,0.496-0.533
	c0.158-0.22,0.256-0.479,0.312-0.742c0.036-0.169,0.055-0.34,0.074-0.511c0.015-0.124,0.01-0.251,0.008-0.375
	c-0.001-0.141-0.011-0.281-0.02-0.422c-0.016-0.26-0.04-0.52-0.068-0.778c-0.059-0.546-0.166-1.094-0.354-1.61
	c-0.051-0.14-0.105-0.277-0.163-0.415c-0.05-0.122-0.104-0.246-0.166-0.361c-0.067-0.123-0.134-0.242-0.21-0.359
	c-0.074-0.113-0.151-0.221-0.231-0.329C28.875,21.54,28.597,21.195,28.317,20.853l0.001-0.001
	C28.317,20.851,28.317,20.852,28.317,20.853"/>
<path opacity="0.9753" fill="#292521" d="M27.104,23.204c-0.518,0.086-1.005,0.296-1.473,0.527
	c-0.469,0.232-0.927,0.493-1.378,0.758c-0.195,0.114-0.389,0.233-0.577,0.359c-0.104,0.069-0.202,0.146-0.296,0.229
	c-0.107,0.094-0.138,0.259-0.163,0.393c-0.027,0.146-0.037,0.295-0.056,0.441c0-0.001,0-0.001,0-0.002
	c-0.002,0.015-0.004,0.028-0.007,0.044c0,0,0.001,0.001,0.002,0c0.104-0.199,0.183-0.411,0.31-0.598
	c0.018-0.021,0.035-0.039,0.056-0.058c0.081-0.048,0.169-0.084,0.256-0.121c0.444-0.174,0.895-0.332,1.337-0.511
	c0.263-0.106,0.523-0.217,0.781-0.332c0.293-0.132,0.578-0.278,0.872-0.405c0.202-0.083,0.405-0.158,0.614-0.222
	c0.213-0.065,0.431-0.108,0.65-0.139c0.229-0.028,0.459-0.043,0.69-0.056c0.229-0.013,0.458-0.03,0.688-0.049
	c0,0,0.001-0.001,0-0.001c-0.369-0.098-0.74-0.198-1.117-0.26c-0.189-0.031-0.383-0.049-0.575-0.054c-0.017,0-0.034,0-0.051,0
	C27.479,23.149,27.291,23.174,27.104,23.204"/>
<path opacity="0.9753" fill="#292521" d="M27.4,26.074c0,0.302,0.252,0.553,0.553,0.553c0.302,0,0.554-0.251,0.554-0.553
	s-0.252-0.553-0.554-0.553C27.652,25.521,27.4,25.772,27.4,26.074"/>
<path opacity="0.9753" fill="#292521" d="M26.064,27.289c0,0.301,0.252,0.553,0.553,0.553c0.302,0,0.554-0.252,0.554-0.553
	c0-0.302-0.252-0.554-0.554-0.554C26.316,26.735,26.064,26.987,26.064,27.289"/>
<path opacity="0.9753" fill="#292521" d="M19.816,9.314c0.053,0.177,0.105,0.354,0.16,0.53c0.047,0.152,0.095,0.306,0.155,0.454
	c0.052,0.129,0.104,0.259,0.162,0.386s0.115,0.252,0.182,0.375c0.062,0.115,0.124,0.229,0.19,0.341
	c0.292,0.495,0.591,0.985,0.892,1.474c0.259,0.42,0.527,0.836,0.792,1.252c0.316,0.495,0.635,0.991,0.966,1.476
	c0.611,0.896,1.225,1.79,1.856,2.671c0.142,0.197,0.285,0.393,0.429,0.589c0.034,0.046,0.064,0.096,0.097,0.144
	c0.088,0.129,0.177,0.259,0.265,0.388c0.203,0.295,0.408,0.588,0.616,0.88c0.237,0.333,0.47,0.669,0.707,1.003c0,0,0.001,0,0.001,0
	c-0.153-0.388-0.31-0.775-0.477-1.158c-0.153-0.352-0.31-0.702-0.469-1.05c-0.08-0.175-0.155-0.355-0.244-0.526
	c-0.146-0.278-0.295-0.556-0.445-0.832c-0.135-0.247-0.271-0.492-0.409-0.737c-0.118-0.212-0.249-0.418-0.376-0.625
	c-0.161-0.264-0.325-0.526-0.491-0.788c-0.133-0.208-0.279-0.408-0.423-0.608c-0.353-0.494-0.722-0.976-1.095-1.454
	c-0.295-0.379-0.6-0.751-0.899-1.127c-0.344-0.432-0.691-0.862-1.036-1.293c-0.073-0.1-0.146-0.199-0.221-0.297
	c-0.071-0.095-0.132-0.199-0.198-0.298C20.253,10.106,20.048,9.702,19.816,9.314C19.817,9.314,19.817,9.314,19.816,9.314
	C19.816,9.314,19.816,9.314,19.816,9.314"/>
<path opacity="0.9753" fill="#292521" d="M13.865,12.229c0.356,0.371,0.713,0.744,1.093,1.09c0.196,0.179,0.396,0.354,0.586,0.539
	c0.376,0.367,0.744,0.742,1.085,1.143c0.171,0.202,0.347,0.4,0.514,0.604c0.18,0.22,0.358,0.44,0.543,0.655
	c0.371,0.429,0.749,0.854,1.131,1.273c0.367,0.401,0.738,0.798,1.116,1.188c0.35,0.361,0.703,0.719,1.071,1.061
	c0.779,0.722,1.581,1.419,2.393,2.103c0.001,0,0.002,0,0.001-0.001c-0.423-0.595-0.858-1.181-1.304-1.759
	c-0.317-0.411-0.645-0.813-0.965-1.222c-0.376-0.479-0.76-0.951-1.154-1.416c-0.145-0.17-0.291-0.339-0.439-0.506
	c-0.174-0.196-0.349-0.394-0.532-0.583c-0.413-0.426-0.835-0.844-1.257-1.262c-0.186-0.184-0.377-0.36-0.569-0.538
	c-0.2-0.184-0.407-0.36-0.615-0.536c-0.156-0.131-0.319-0.257-0.483-0.377c-0.179-0.131-0.359-0.26-0.543-0.385
	c-0.16-0.108-0.325-0.209-0.486-0.314C14.658,12.731,14.265,12.476,13.865,12.229L13.865,12.229
	C13.865,12.229,13.865,12.229,13.865,12.229"/>
<path opacity="0.9753" fill="#292521" d="M29.223,30.689c0,0.301,0.251,0.553,0.553,0.553c0.301,0,0.553-0.252,0.553-0.553
	c0-0.302-0.252-0.553-0.553-0.553C29.474,30.137,29.223,30.388,29.223,30.689"/>
<path opacity="0.9753" fill="#292521" d="M27.279,32.329c0,0.301,0.251,0.553,0.553,0.553s0.553-0.252,0.553-0.553
	c0-0.302-0.251-0.554-0.553-0.554S27.279,32.027,27.279,32.329"/>
<path opacity="0.9753" fill="#292521" d="M25.519,32.146c0,0.302,0.251,0.553,0.553,0.553c0.301,0,0.553-0.251,0.553-0.553
	s-0.252-0.553-0.553-0.553C25.77,31.594,25.519,31.845,25.519,32.146"/>
<path opacity="0.9753" fill="#292521" d="M29.587,35.972c0,0.302,0.251,0.554,0.553,0.554s0.553-0.252,0.553-0.554
	c0-0.301-0.251-0.553-0.553-0.553S29.587,35.671,29.587,35.972"/>
<path opacity="0.9753" fill="#292521" d="M31.895,31.175c0,0.302,0.251,0.553,0.553,0.553c0.301,0,0.553-0.251,0.553-0.553
	s-0.252-0.553-0.553-0.553C32.146,30.622,31.895,30.873,31.895,31.175"/>
<path opacity="0.9753" fill="#292521" d="M30.801,31.418c0,0.301,0.252,0.553,0.554,0.553c0.301,0,0.553-0.252,0.553-0.553
	c0-0.302-0.252-0.553-0.553-0.553C31.053,30.865,30.801,31.116,30.801,31.418"/>
<path opacity="0.9753" fill="#292521" d="M27.583,35.305c0,0.301,0.251,0.553,0.553,0.553s0.553-0.252,0.553-0.553
	c0-0.302-0.251-0.554-0.553-0.554S27.583,35.003,27.583,35.305"/>
<path opacity="0.9753" fill="#292521" d="M29.769,32.997c0,0.301,0.252,0.553,0.553,0.553c0.302,0,0.554-0.252,0.554-0.553
	c0-0.302-0.252-0.554-0.554-0.554C30.021,32.443,29.769,32.695,29.769,32.997"/>
<path opacity="0.9753" fill="#292521" d="M29.647,34.939c0,0.302,0.251,0.554,0.553,0.554s0.553-0.252,0.553-0.554
	c0-0.301-0.251-0.553-0.553-0.553S29.647,34.639,29.647,34.939"/>
<path opacity="0.9753" fill="#292521" d="M29.769,38.766c0,0.301,0.252,0.553,0.553,0.553c0.302,0,0.554-0.252,0.554-0.553
	c0-0.302-0.252-0.553-0.554-0.553C30.021,38.213,29.769,38.464,29.769,38.766"/>
</svg>
