<?xml version="1.0" encoding="utf-8"?>
<!-- Generator: Adobe Illustrator 15.0.0, SVG Export Plug-In . SVG Version: 6.00 Build 0)  -->
<!DOCTYPE svg PUBLIC "-//W3C//DTD SVG 1.1//EN" "http://www.w3.org/Graphics/SVG/1.1/DTD/svg11.dtd">
<svg version="1.1" id="Capa_1" xmlns="http://www.w3.org/2000/svg" xmlns:xlink="http://www.w3.org/1999/xlink" x="0px" y="0px"
	 width="20px" height="20px" viewBox="12.5 12.5 20 20" enable-background="new 12.5 12.5 20 20" xml:space="preserve">
<g>
	<path fill="#FFFFFF" d="M30.138,17.951c-0.04-0.298-0.178-0.583-0.343-0.831c-0.179-0.268-0.407-0.495-0.652-0.7
		c-0.238-0.198-0.492-0.388-0.77-0.527c-0.143-0.071-0.292-0.129-0.443-0.177c-0.186-0.058-0.381-0.084-0.57-0.108
		c-0.277-0.035-0.557-0.047-0.837-0.051c-0.215-0.004-0.431-0.004-0.646,0.01c-0.119,0.008-0.24,0.01-0.357,0.025
		c-0.17,0.022-0.338,0.045-0.507,0.068c-0.285,0.039-0.562,0.129-0.829,0.237c-0.261,0.105-0.516,0.229-0.751,0.38
		c-0.407,0.262-0.791,0.554-1.112,0.92c-0.258,0.293-0.498,0.605-0.667,0.96c-0.082,0.173-0.148,0.357-0.206,0.54
		c-0.042,0.133-0.087,0.267-0.115,0.404c-0.06,0.291-0.106,0.583-0.153,0.876c-0.023,0.141-0.041,0.283-0.065,0.424
		c-0.02,0.12-0.04,0.239-0.054,0.36c0-0.004,0.001-0.008,0.002-0.011c-0.009,0.061-0.022,0.112-0.045,0.169
		c-0.033,0.068-0.069,0.134-0.104,0.201c-0.001,0.001,0,0.002,0.001,0.001c0.048-0.059,0.104-0.116,0.146-0.179
		c0.038-0.057,0.061-0.106,0.083-0.17c0.021-0.061,0.04-0.123,0.061-0.184c0.054-0.153,0.11-0.305,0.161-0.459
		c0.105-0.316,0.215-0.632,0.331-0.944c0.149-0.333,0.31-0.661,0.529-0.954c0.123-0.152,0.255-0.305,0.401-0.435
		c0.141-0.125,0.283-0.246,0.429-0.364c0.139-0.095,0.275-0.187,0.421-0.272c0.183-0.107,0.373-0.202,0.567-0.288
		c0.301-0.122,0.609-0.215,0.93-0.266c0.373-0.042,0.749-0.048,1.124-0.033c0.351,0.014,0.702,0.032,1.052,0.073
		c0.229,0.034,0.454,0.084,0.67,0.166c0.217,0.103,0.417,0.236,0.608,0.38c0.183,0.145,0.352,0.301,0.501,0.479
		c0.067,0.097,0.129,0.196,0.18,0.302c0.033,0.096,0.057,0.193,0.075,0.292c0.027,0.363-0.012,0.723-0.049,1.084
		c-0.088,0.554-0.237,1.09-0.448,1.609c-0.131,0.292-0.281,0.572-0.439,0.85c-0.091,0.16-0.18,0.319-0.281,0.473
		c-0.106,0.163-0.206,0.336-0.324,0.492c-0.118,0.157-0.236,0.314-0.354,0.473c-0.303,0.372-0.608,0.743-0.914,1.112
		c-0.27,0.327-0.545,0.649-0.813,0.978c-0.305,0.374-0.604,0.753-0.915,1.122c-0.152,0.181-0.298,0.368-0.457,0.544
		c-0.156,0.172-0.305,0.351-0.467,0.515c-0.195,0.199-0.386,0.401-0.585,0.595c-0.308,0.297-0.615,0.597-0.923,0.896
		c-0.001,0,0,0.002,0.001,0.001c0.872-0.562,1.743-1.13,2.507-1.835c0.721-0.664,1.403-1.367,2.084-2.072
		c0.323-0.333,0.634-0.677,0.939-1.025c0.15-0.172,0.295-0.347,0.438-0.526c0.069-0.086,0.139-0.173,0.207-0.26
		c0.093-0.118,0.176-0.245,0.262-0.369c0.071-0.104,0.142-0.207,0.212-0.311c0.063-0.093,0.115-0.194,0.171-0.29
		c0.063-0.107,0.128-0.215,0.189-0.324c0.17-0.295,0.303-0.616,0.43-0.931c0.225-0.555,0.37-1.145,0.44-1.738
		c0.016-0.132,0.032-0.265,0.049-0.397c0.016-0.134,0.024-0.27,0.029-0.405c0.002-0.031,0.002-0.061,0.002-0.092
		C30.176,18.272,30.16,18.115,30.138,17.951"/>
	<path fill="#FFFFFF" d="M22.464,29.402C22.464,29.402,22.465,29.402,22.464,29.402L22.464,29.402 M20.206,17.734
		c-0.004-0.003-0.008-0.007-0.012-0.01C20.198,17.727,20.202,17.73,20.206,17.734 M21.907,28.732
		c-0.004-0.005-0.008-0.01-0.012-0.015C21.899,28.723,21.903,28.728,21.907,28.732 M22.52,29.442
		c-0.058-0.069-0.12-0.137-0.178-0.206c-0.027-0.032-0.05-0.067-0.071-0.104c-0.038-0.096-0.066-0.196-0.107-0.292
		c-0.044-0.102-0.088-0.205-0.149-0.298c-0.116-0.177-0.232-0.353-0.342-0.533c-0.115-0.188-0.225-0.381-0.346-0.566
		c-0.129-0.198-0.269-0.386-0.414-0.571c-0.062-0.079-0.134-0.154-0.205-0.225c-0.087-0.087-0.173-0.174-0.263-0.256
		c-0.177-0.161-0.359-0.315-0.544-0.468c-0.341-0.281-0.674-0.576-0.994-0.882c-0.459-0.439-0.918-0.891-1.315-1.388
		c-0.17-0.228-0.327-0.463-0.485-0.697c-0.098-0.146-0.192-0.295-0.28-0.446c-0.216-0.374-0.434-0.748-0.61-1.142
		c-0.122-0.31-0.2-0.627-0.252-0.956c-0.048-0.427-0.041-0.856-0.038-1.286c0.001-0.249,0.016-0.494,0.042-0.74
		c0.033-0.196,0.08-0.387,0.149-0.573c0.042-0.087,0.088-0.171,0.142-0.251c0.06-0.07,0.124-0.135,0.193-0.195
		c0.09-0.063,0.186-0.117,0.286-0.165c0.158-0.06,0.318-0.104,0.486-0.132c0.232-0.026,0.465-0.029,0.698-0.034
		c0.273-0.006,0.547,0.01,0.818,0.043c0.226,0.036,0.445,0.092,0.658,0.175c0.294,0.129,0.563,0.296,0.819,0.489
		c0.261,0.208,0.483,0.449,0.688,0.712c0.162,0.211,0.322,0.422,0.484,0.632c0.001,0.002,0.002,0.001,0.002,0
		c-0.139-0.289-0.277-0.579-0.426-0.862c-0.143-0.272-0.321-0.521-0.529-0.746c-0.192-0.208-0.407-0.391-0.638-0.554
		c-0.276-0.194-0.591-0.328-0.914-0.421c-0.369-0.106-0.756-0.149-1.137-0.187c-0.227-0.022-0.451-0.039-0.679-0.027
		c-0.34,0.016-0.66,0.108-0.97,0.248c-0.132,0.059-0.25,0.147-0.362,0.237c-0.102,0.082-0.191,0.17-0.273,0.272
		c-0.095,0.12-0.177,0.243-0.246,0.379c-0.08,0.159-0.143,0.328-0.196,0.498c-0.05,0.163-0.077,0.332-0.105,0.5
		c-0.024,0.138-0.04,0.282-0.052,0.422c-0.02,0.25-0.032,0.5-0.04,0.751c-0.006,0.223-0.006,0.444,0.014,0.667
		c0.03,0.343,0.093,0.688,0.188,1.02c0.05,0.175,0.122,0.345,0.193,0.513c0.039,0.091,0.078,0.183,0.124,0.272
		c0.056,0.108,0.108,0.22,0.168,0.325c0.126,0.222,0.255,0.438,0.391,0.653c0.109,0.176,0.231,0.344,0.355,0.509
		c0.075,0.099,0.15,0.197,0.225,0.297c0.215,0.281,0.449,0.544,0.705,0.789c0.369,0.353,0.764,0.677,1.167,0.989
		c0.369,0.287,0.748,0.561,1.138,0.817c0.226,0.148,0.449,0.299,0.669,0.457c0.061,0.047,0.122,0.094,0.182,0.141
		c0.144,0.123,0.289,0.244,0.418,0.384c0.136,0.147,0.268,0.296,0.396,0.451c0.12,0.145,0.239,0.293,0.365,0.435
		s0.26,0.276,0.385,0.418c0.063,0.084,0.125,0.169,0.179,0.258c0.037,0.06,0.069,0.122,0.106,0.182
		c0.061,0.093,0.181,0.162,0.27,0.228h0c0.018,0.014,0.036,0.028,0.054,0.042C22.519,29.445,22.52,29.444,22.52,29.442L22.52,29.442
		"/>
</g>
</svg>
