<?xml version="1.0" encoding="utf-8"?>
<!-- Generator: Adobe Illustrator 15.0.0, SVG Export Plug-In . SVG Version: 6.00 Build 0)  -->
<!DOCTYPE svg PUBLIC "-//W3C//DTD SVG 1.1//EN" "http://www.w3.org/Graphics/SVG/1.1/DTD/svg11.dtd">
<svg version="1.1" id="Capa_1" xmlns="http://www.w3.org/2000/svg" xmlns:xlink="http://www.w3.org/1999/xlink" x="0px" y="0px"
	 width="45px" height="45px" viewBox="-0.5 -0.5 45 45" enable-background="new -0.5 -0.5 45 45" xml:space="preserve">
<g>
	<path fill="#292521" d="M35.111,14.192c-0.068-0.512-0.305-1-0.588-1.426c-0.307-0.46-0.699-0.849-1.121-1.202
		c-0.408-0.339-0.844-0.666-1.32-0.904c-0.244-0.122-0.502-0.222-0.762-0.304c-0.318-0.099-0.652-0.145-0.979-0.186
		c-0.477-0.06-0.955-0.081-1.436-0.088c-0.369-0.006-0.74-0.007-1.109,0.018c-0.203,0.014-0.412,0.017-0.613,0.043
		c-0.291,0.039-0.58,0.078-0.869,0.117c-0.49,0.067-0.967,0.222-1.424,0.407c-0.447,0.181-0.885,0.393-1.289,0.653
		c-0.699,0.451-1.357,0.952-1.909,1.579c-0.442,0.504-0.854,1.04-1.144,1.648c-0.141,0.297-0.254,0.613-0.354,0.927
		c-0.073,0.228-0.149,0.458-0.197,0.694c-0.102,0.499-0.181,1.002-0.263,1.505c-0.04,0.242-0.07,0.485-0.111,0.728
		c-0.034,0.207-0.068,0.411-0.092,0.618c0.001-0.006,0.002-0.013,0.003-0.019c-0.015,0.105-0.037,0.192-0.077,0.292
		c-0.058,0.116-0.119,0.229-0.178,0.344c-0.001,0.001,0.001,0.004,0.003,0.002c0.083-0.101,0.179-0.198,0.251-0.308
		c0.065-0.097,0.104-0.182,0.143-0.292c0.036-0.104,0.069-0.21,0.105-0.315c0.093-0.263,0.188-0.524,0.276-0.789
		c0.18-0.542,0.369-1.085,0.567-1.621c0.257-0.57,0.533-1.135,0.908-1.637c0.21-0.261,0.438-0.523,0.688-0.747
		c0.242-0.216,0.485-0.422,0.736-0.625c0.237-0.163,0.473-0.32,0.722-0.467c0.313-0.185,0.641-0.347,0.975-0.494
		c0.516-0.208,1.047-0.368,1.596-0.457c0.641-0.072,1.285-0.082,1.93-0.057c0.602,0.024,1.205,0.055,1.805,0.126
		c0.395,0.059,0.779,0.144,1.15,0.284c0.373,0.177,0.717,0.405,1.045,0.652c0.312,0.25,0.604,0.516,0.859,0.821
		c0.115,0.167,0.221,0.337,0.309,0.519c0.057,0.165,0.098,0.331,0.129,0.502c0.047,0.624-0.02,1.242-0.084,1.862
		c-0.15,0.951-0.406,1.871-0.77,2.762c-0.225,0.502-0.482,0.981-0.754,1.458c-0.156,0.274-0.309,0.547-0.482,0.811
		c-0.184,0.281-0.354,0.577-0.557,0.846c-0.203,0.27-0.406,0.54-0.609,0.811c-0.52,0.639-1.043,1.275-1.568,1.91
		c-0.463,0.561-0.936,1.114-1.396,1.678c-0.523,0.642-1.035,1.293-1.57,1.927c-0.262,0.31-0.512,0.632-0.785,0.933
		c-0.268,0.295-0.523,0.602-0.801,0.885c-0.335,0.341-0.662,0.688-1.005,1.02c-0.528,0.511-1.055,1.024-1.583,1.537
		c-0.002,0.001,0,0.005,0.002,0.003c1.496-0.964,2.992-1.939,4.305-3.15c1.236-1.14,2.408-2.348,3.576-3.557
		c0.555-0.572,1.088-1.162,1.613-1.761c0.258-0.296,0.506-0.596,0.75-0.903c0.119-0.148,0.238-0.298,0.355-0.446
		c0.16-0.203,0.303-0.421,0.449-0.634c0.123-0.177,0.244-0.355,0.365-0.532c0.107-0.159,0.197-0.334,0.293-0.499
		c0.109-0.185,0.219-0.369,0.324-0.555c0.293-0.506,0.52-1.057,0.738-1.598c0.385-0.952,0.635-1.964,0.756-2.983
		c0.027-0.228,0.055-0.455,0.084-0.683c0.027-0.23,0.041-0.463,0.051-0.695c0.002-0.053,0.002-0.105,0.002-0.157
		C35.176,14.744,35.15,14.473,35.111,14.192"/>
	<path fill="#292521" d="M21.939,33.848c0,0.001,0.001,0.001,0.002,0.001C21.941,33.849,21.94,33.849,21.939,33.848 M18.063,13.819
		c-0.007-0.005-0.014-0.011-0.021-0.017C18.049,13.808,18.056,13.813,18.063,13.819 M20.983,32.699
		c-0.007-0.009-0.014-0.018-0.021-0.026C20.969,32.682,20.976,32.69,20.983,32.699 M22.035,33.917
		c-0.1-0.119-0.206-0.234-0.306-0.354c-0.046-0.056-0.086-0.115-0.122-0.178c-0.065-0.165-0.113-0.337-0.184-0.501
		c-0.076-0.175-0.151-0.352-0.256-0.511c-0.199-0.304-0.399-0.606-0.587-0.916c-0.198-0.324-0.387-0.654-0.594-0.973
		c-0.222-0.34-0.46-0.662-0.71-0.98c-0.106-0.135-0.229-0.265-0.352-0.386c-0.148-0.148-0.296-0.298-0.451-0.439
		c-0.303-0.276-0.616-0.54-0.934-0.802c-0.586-0.483-1.157-0.989-1.706-1.515c-0.789-0.755-1.576-1.529-2.259-2.383
		c-0.292-0.39-0.56-0.794-0.832-1.196c-0.168-0.25-0.33-0.507-0.48-0.767c-0.37-0.641-0.744-1.282-1.046-1.958
		c-0.208-0.531-0.344-1.077-0.433-1.64c-0.083-0.732-0.069-1.47-0.065-2.207c0.001-0.426,0.027-0.848,0.072-1.271
		c0.056-0.336,0.136-0.664,0.256-0.983c0.071-0.15,0.151-0.293,0.244-0.431c0.103-0.12,0.213-0.231,0.332-0.336
		c0.155-0.109,0.318-0.201,0.491-0.283c0.271-0.103,0.547-0.178,0.834-0.227c0.398-0.044,0.798-0.05,1.199-0.059
		c0.469-0.011,0.939,0.017,1.404,0.074c0.388,0.062,0.764,0.158,1.13,0.3c0.504,0.223,0.966,0.509,1.406,0.84
		c0.449,0.356,0.83,0.77,1.182,1.222c0.277,0.362,0.553,0.725,0.831,1.086c0.001,0.003,0.004,0.001,0.003-0.001
		c-0.239-0.495-0.475-0.993-0.73-1.479c-0.246-0.466-0.551-0.894-0.909-1.28c-0.33-0.356-0.699-0.671-1.095-0.95
		c-0.474-0.333-1.015-0.563-1.569-0.723c-0.632-0.183-1.298-0.256-1.952-0.32c-0.388-0.038-0.774-0.066-1.165-0.047
		c-0.584,0.028-1.134,0.187-1.665,0.425c-0.226,0.101-0.429,0.252-0.622,0.407c-0.174,0.14-0.329,0.292-0.468,0.467
		c-0.164,0.206-0.304,0.417-0.423,0.651c-0.138,0.272-0.245,0.563-0.336,0.854c-0.087,0.28-0.132,0.57-0.181,0.859
		c-0.041,0.237-0.069,0.483-0.089,0.724c-0.034,0.429-0.056,0.859-0.068,1.29c-0.011,0.382-0.01,0.762,0.023,1.144
		c0.051,0.589,0.16,1.181,0.324,1.75c0.086,0.301,0.209,0.593,0.332,0.881c0.067,0.157,0.134,0.314,0.212,0.467
		c0.096,0.186,0.185,0.377,0.289,0.559c0.216,0.379,0.438,0.751,0.67,1.121c0.188,0.301,0.397,0.59,0.61,0.873
		c0.128,0.17,0.257,0.339,0.386,0.509c0.369,0.483,0.77,0.934,1.21,1.354c0.634,0.605,1.312,1.162,2.003,1.699
		c0.632,0.492,1.284,0.962,1.953,1.402c0.388,0.255,0.771,0.514,1.149,0.785c0.104,0.08,0.208,0.161,0.312,0.241
		c0.247,0.212,0.496,0.42,0.717,0.659c0.233,0.253,0.46,0.508,0.679,0.773c0.206,0.249,0.411,0.503,0.625,0.746
		c0.215,0.244,0.446,0.475,0.661,0.719c0.108,0.144,0.214,0.289,0.307,0.442c0.063,0.102,0.118,0.209,0.183,0.311
		c0.104,0.16,0.311,0.278,0.462,0.391c0,0,0,0-0.001,0c0.031,0.023,0.062,0.049,0.093,0.072
		C22.033,33.922,22.035,33.92,22.035,33.917L22.035,33.917"/>
</g>
</svg>
