<?xml version="1.0" encoding="utf-8"?>
<!-- Generator: Adobe Illustrator 15.0.0, SVG Export Plug-In . SVG Version: 6.00 Build 0)  -->
<!DOCTYPE svg PUBLIC "-//W3C//DTD SVG 1.1//EN" "http://www.w3.org/Graphics/SVG/1.1/DTD/svg11.dtd">
<svg version="1.1" id="Capa_1" xmlns="http://www.w3.org/2000/svg" xmlns:xlink="http://www.w3.org/1999/xlink" x="0px" y="0px"
	 width="44px" height="44px" viewBox="0 0 44 44" enable-background="new 0 0 44 44" xml:space="preserve">
<g>
	<path fill="#FFFFFF" d="M18.975,30.406c0,1.066,0.891,1.957,1.957,1.957c1.067,0,1.957-0.891,1.957-1.957
		c0-1.065-0.89-1.957-1.957-1.957C19.865,28.449,18.975,29.34,18.975,30.406"/>
	<path fill="#FFFFFF" d="M20.62,15.808c-0.293,1.597-0.466,3.231-0.438,4.855c0.012,0.675,0.047,1.351,0.047,2.024
		c0.002,0.678,0.03,1.357,0.072,2.034c0.098,1.552,0.297,3.099,0.567,4.629c0,0.002,0.002,0.002,0.003,0
		c0.331-1.527,0.572-3.07,0.686-4.629c0.049-0.679,0.069-1.355,0.062-2.034c-0.009-0.725-0.13-1.45-0.252-2.162
		c-0.106-0.623-0.216-1.246-0.306-1.872c-0.135-0.948-0.26-1.903-0.438-2.847C20.622,15.807,20.622,15.807,20.62,15.808
		C20.62,15.807,20.62,15.807,20.62,15.808"/>
	<path fill="#FFFFFF" d="M17.514,27.547c-0.394,0.204-0.783,0.412-1.172,0.624c-0.312,0.171-0.633,0.362-0.859,0.642
		c-0.213,0.261-0.275,0.585-0.328,0.908c-0.078,0.47-0.135,0.958-0.072,1.433c0.105,0.801,0.486,1.495,0.975,2.124
		c0.568,0.736,1.438,1.2,2.265,1.593c0.661,0.313,1.351,0.613,2.069,0.771c0.713,0.155,1.455,0.171,2.184,0.147
		c0.32-0.009,0.643-0.022,0.964-0.046c0.226-0.015,0.457-0.032,0.677-0.075c0.354-0.068,0.678-0.177,1.006-0.331
		c0.43-0.202,0.752-0.552,1.019-0.933c0.179-0.254,0.286-0.548,0.405-0.833c0.123-0.292,0.213-0.604,0.28-0.915
		c0.076-0.345,0.144-0.696,0.171-1.051c0.021-0.263,0.041-0.523,0.002-0.786c-0.062-0.44-0.324-0.767-0.619-1.084
		c-0.203-0.22-0.428-0.422-0.639-0.635c-0.001-0.001-0.003,0.001-0.002,0.002c0.135,0.301,0.283,0.596,0.412,0.897
		c0.072,0.181,0.139,0.359,0.175,0.55c0.005,0.077,0.003,0.149-0.003,0.228c-0.045,0.231-0.129,0.449-0.215,0.668
		c-0.271,0.602-0.589,1.165-0.975,1.7c-0.113,0.135-0.233,0.26-0.366,0.375c-0.073,0.048-0.146,0.091-0.224,0.13
		c-0.138,0.047-0.273,0.083-0.414,0.109c-0.431,0.032-0.859-0.012-1.289-0.038c-0.478-0.031-0.955-0.064-1.431-0.11
		c-0.024-0.004-0.05-0.007-0.075-0.011c-0.278-0.051-0.556-0.101-0.828-0.177c-0.307-0.086-0.608-0.18-0.912-0.276
		c-0.492-0.161-0.976-0.353-1.454-0.549c-0.306-0.14-0.595-0.29-0.869-0.484c-0.233-0.196-0.442-0.414-0.636-0.649
		c-0.127-0.177-0.238-0.359-0.331-0.556c-0.121-0.339-0.181-0.688-0.232-1.044c-0.021-0.186-0.045-0.37-0.038-0.558
		c0.01-0.046,0.023-0.09,0.039-0.136c0.055-0.103,0.116-0.194,0.184-0.288c0.365-0.461,0.773-0.892,1.16-1.334
		C17.518,27.549,17.516,27.547,17.514,27.547L17.514,27.547"/>
	<path fill="#FFFFFF" d="M24.596,27.487c0.121,0.339,0.238,0.683,0.441,0.981c0.111,0.164,0.255,0.317,0.393,0.462
		c0.245,0.261,0.504,0.503,0.781,0.73c0.001,0.001,0.003,0,0.003-0.002c-0.147-0.308-0.306-0.618-0.505-0.896
		c-0.104-0.146-0.214-0.284-0.337-0.413c-0.267-0.281-0.506-0.586-0.774-0.865l0,0C24.596,27.485,24.596,27.486,24.596,27.487"/>
	<path fill="#FFFFFF" d="M23.898,27.355c0.004,0.006,0.006,0.013,0.009,0.02C23.904,27.368,23.9,27.361,23.898,27.355
		 M19.369,11.553c-0.01,0.007-0.02,0.015-0.028,0.021C19.35,11.567,19.359,11.561,19.369,11.553 M19.956,9.789
		c-0.204,0.019-0.406,0.045-0.608,0.075c-0.203,0.031-0.399,0.13-0.574,0.236c-0.44,0.269-0.65,0.752-0.806,1.22
		c-0.133,0.404-0.157,0.846-0.196,1.266c-0.047,0.506-0.043,1.017-0.021,1.522c0.02,0.505,0.059,1.009,0.076,1.515
		c0,0.002,0.002,0.002,0.003,0c0.282-1.064,0.582-2.112,0.999-3.131c0.125-0.289,0.268-0.56,0.449-0.816
		c0.049-0.057,0.099-0.108,0.152-0.159c0.021-0.007,0.041-0.013,0.062-0.017c0.089,0,0.177,0.01,0.267,0.02
		c0.431,0.059,0.874,0.123,1.285,0.26c0.019,0.031,0.036,0.062,0.054,0.094c0.152,0.478,0.213,0.989,0.293,1.481
		c0.01,0.082,0.021,0.163,0.032,0.245c0.04,0.326,0.078,0.652,0.109,0.979c0.019,0.191,0.04,0.383,0.062,0.573
		c0.013,0.099,0.025,0.198,0.038,0.296c0.018,0.135,0.031,0.25,0.053,0.376c0.01,0.056,0.025,0.107,0.043,0.159
		c0.125,0.66,0.301,1.309,0.436,1.966c0.134,0.661,0.24,1.324,0.347,1.99c0.029,0.226,0.058,0.452,0.089,0.678
		c0.08,1.016,0.149,2.029,0.201,3.046c0.024,0.479,0.036,0.957,0.077,1.436c0.038,0.432,0.077,0.866,0.185,1.288
		c0.07,0.281,0.184,0.56,0.363,0.789c0.227,0.286,0.483,0.548,0.737,0.812c0.001,0.001,0.003,0,0.002-0.001
		c-0.084-0.202-0.169-0.403-0.255-0.604c0.001,0.002,0.002,0.004,0.003,0.006c-0.079-0.195-0.153-0.394-0.199-0.6
		c-0.028-0.259-0.017-0.517,0.013-0.775c0.099-0.694,0.256-1.377,0.368-2.068c0.123-0.759,0.216-1.52,0.285-2.284
		c0.123-1.334,0.077-2.67-0.077-4c-0.078-0.677-0.188-1.35-0.287-2.022c0.01-0.132-0.019-0.269-0.043-0.402
		c-0.168-1.457-0.357-2.937-0.947-4.291c-0.1-0.224-0.268-0.42-0.428-0.603c-0.14-0.156-0.326-0.289-0.52-0.373
		c-0.146-0.064-0.266-0.115-0.415-0.151c-0.159-0.038-0.327-0.048-0.489-0.063c-0.086-0.01-0.174-0.008-0.26-0.01
		c-0.043-0.002-0.087-0.003-0.131-0.003C20.505,9.738,20.229,9.767,19.956,9.789"/>
	<path fill="#FFFFFF" d="M18.01,10.527c-0.297,1.562-0.529,3.137-0.695,4.719c-0.135,1.289-0.224,2.601-0.129,3.895
		c0.01,0.136,0.026,0.271,0.045,0.406c0.07,0.552,0.164,1.097,0.285,1.64c0.143,0.632,0.33,1.254,0.428,1.895
		c0.08,0.697,0.092,1.416,0.012,2.111c-0.137,0.909-0.438,1.786-0.691,2.668c0,0.001,0.002,0.002,0.004,0.001
		c0.803-1.012,1.635-2.062,1.899-3.361c0.131-0.646,0.233-1.296,0.213-1.956c-0.019-0.537-0.101-1.078-0.175-1.61
		c-0.018-0.131-0.035-0.261-0.053-0.392c-0.146-1.283-0.232-2.569-0.319-3.858c-0.091-1.348-0.261-2.688-0.455-4.023
		c-0.104-0.714-0.229-1.423-0.364-2.132c0-0.001-0.002-0.001-0.002-0.001C18.011,10.525,18.01,10.526,18.01,10.527"/>
	<path fill="#FFFFFF" d="M18.913,28.915c0,1.067,0.89,1.957,1.957,1.957s1.957-0.89,1.957-1.957c0-1.065-0.89-1.955-1.957-1.955
		S18.913,27.849,18.913,28.915"/>
	<path fill="#FFFFFF" d="M19.658,29.475c0,1.065,0.89,1.957,1.957,1.957c1.066,0,1.957-0.892,1.957-1.957
		c0-1.066-0.891-1.957-1.957-1.957C20.548,27.518,19.658,28.408,19.658,29.475"/>
	<path fill="#FFFFFF" d="M19.473,30.22c0,1.066,0.889,1.957,1.957,1.957c1.066,0,1.956-0.891,1.956-1.957s-0.89-1.957-1.956-1.957
		C20.361,28.263,19.473,29.153,19.473,30.22"/>
	<path fill="#FFFFFF" d="M19.225,29.351c0,1.065,0.89,1.956,1.957,1.956c1.066,0,1.957-0.891,1.957-1.956
		c0-1.067-0.891-1.957-1.957-1.957C20.114,27.394,19.225,28.283,19.225,29.351"/>
	<path fill="#FFFFFF" d="M28.462,12.362c-0.7,0.14-1.411,0.361-2.063,0.648c-0.002,0-0.002,0.003,0,0.003
		c0.72,0.007,1.433-0.03,2.144-0.143c0.776-0.125,1.537-0.379,2.269-0.666c0.002,0,0.002-0.002,0-0.002
		c-0.143-0.004-0.285-0.007-0.429-0.007C29.738,12.197,29.092,12.238,28.462,12.362"/>
	<path fill="#FFFFFF" d="M27.577,17.609c0,0.002,0.002,0.002,0.003,0c0.059-0.14,0.104-0.286,0.158-0.427
		c0.021-0.044,0.044-0.085,0.07-0.125c0.006-0.007,0.012-0.013,0.019-0.019c0.003,0,0.006,0,0.009,0
		c0.796,0.246,1.653,0.258,2.477,0.197c0.002,0,0.002-0.002,0-0.003c-0.532-0.198-1.088-0.374-1.656-0.44
		c-0.239-0.028-0.479-0.028-0.717-0.045c-0.015-0.002-0.027-0.002-0.041-0.002C27.467,16.748,27.566,17.309,27.577,17.609"/>
	<path fill="#FFFFFF" d="M28.148,20.351c-0.371,0.019-0.371,0.561,0,0.578c0.324,0.016,0.646,0.016,0.968,0.004
		c0.143,0.051,0.304,0.026,0.459-0.025c0.225-0.017,0.45-0.039,0.675-0.065c0.002,0,0.002-0.002,0.001-0.003
		c-0.101-0.032-0.202-0.064-0.303-0.095c0.019-0.009,0.036-0.019,0.054-0.026c0.002-0.001,0.001-0.003,0-0.003
		c-0.048,0.001-0.095,0.002-0.143,0.004c-0.055-0.018-0.111-0.033-0.168-0.049c0.016-0.067,0-0.141-0.057-0.194
		c-0.107-0.105-0.281-0.085-0.422-0.091c-0.113-0.005-0.227-0.012-0.34-0.018c-0.184-0.008-0.368-0.021-0.553-0.021
		C28.266,20.346,28.207,20.347,28.148,20.351"/>
	<path fill="#FFFFFF" d="M28.436,16.449c-0.076,0.018-0.15,0.039-0.227,0.059c-0.16,0.041-0.273,0.084-0.357,0.231
		c-0.058,0.103-0.008,0.247,0.111,0.275c0.26,0.062,0.518,0.016,0.771-0.043c0.324-0.075,0.645-0.179,0.957-0.293
		c0.002,0,0-0.003,0-0.003c-0.319-0.026-0.637-0.036-0.957-0.023c-0.043,0.002-0.088,0.004-0.133,0.008
		c0.201-0.111,0.398-0.226,0.592-0.354c0.003-0.001,0.002-0.003,0-0.003C28.938,16.342,28.686,16.39,28.436,16.449"/>
	<path fill="#FFFFFF" d="M28.578,11.111c-0.413,0.033-0.818,0.071-1.227,0.148c-0.225,0.042-0.381,0.283-0.381,0.498
		c0,0.015,0.002,0.029,0.004,0.045c-0.022,0.011-0.045,0.021-0.065,0.035c-0.291,0.158-0.343,0.513-0.207,0.789
		c0.005,0.009,0.009,0.019,0.014,0.027c0.118,0.244,0.403,0.303,0.644,0.262c0.123-0.021,0.248-0.054,0.371-0.092
		c0.117-0.012,0.236-0.02,0.354-0.029c0.099-0.008,0.196-0.015,0.295-0.021c0.191-0.014,0.414,0,0.576-0.124
		c0.043-0.032,0.084-0.067,0.121-0.103c0.058-0.008,0.116-0.016,0.174-0.023c0.229-0.025,0.478-0.031,0.69-0.105
		c0.296-0.099,0.509-0.346,0.509-0.666c0-0.397-0.315-0.666-0.691-0.692c-0.081-0.005-0.161-0.008-0.243-0.008
		C29.203,11.051,28.889,11.086,28.578,11.111"/>
	<path fill="#FFFFFF" d="M29.805,15.336c-0.011,0-0.021,0.002-0.029,0.004c-0.291,0.025-0.584,0.039-0.875,0.061
		c-0.123,0.01-0.246,0.018-0.368,0.027c-0.13,0.01-0.271,0.012-0.392,0.06c-0.201,0.078-0.313,0.197-0.375,0.405
		c-0.048,0.163-0.004,0.335,0.098,0.461c-0.074,0.045-0.148,0.091-0.223,0.136c-0.002,0,0,0.003,0,0.003
		c0.107-0.014,0.215-0.029,0.321-0.044c0.028,0.021,0.06,0.04,0.093,0.056c-0.129,0.026-0.257,0.055-0.381,0.092
		c-0.17,0.05-0.113,0.269,0.039,0.279c-0.001,0-0.001,0.002-0.001,0.002c0.034,0.002,0.067,0.004,0.103,0.011
		c-0.015-0.003-0.028-0.005-0.043-0.007c0.262,0.037,0.523,0.066,0.787,0.082c0.037,0.013,0.078,0.02,0.121,0.021
		c0.103,0.004,0.204-0.003,0.307-0.011c0.02,0,0.039,0,0.058-0.001c0.069-0.001,0.13-0.021,0.181-0.05
		c0.086-0.017,0.168-0.037,0.25-0.062c0.162-0.052,0.324-0.148,0.414-0.301c0.074-0.129,0.084-0.284,0.039-0.421
		c0.029-0.011,0.061-0.022,0.09-0.034c0.2-0.081,0.342-0.264,0.277-0.491c-0.048-0.174-0.212-0.292-0.387-0.292
		C29.873,15.321,29.838,15.326,29.805,15.336"/>
	<path fill="#FFFFFF" d="M29.076,20.153c0.016-0.002,0.031-0.004,0.046-0.006c0.001,0,0.001,0,0.001,0
		C29.107,20.148,29.092,20.151,29.076,20.153 M28.967,20.168c0.037-0.006,0.073-0.01,0.109-0.016
		C29.04,20.158,29.004,20.164,28.967,20.168 M29.777,20.064c-0.219,0.025-0.438,0.055-0.655,0.083
		c-0.229,0.031-0.461,0.063-0.69,0.097c-0.117,0.01-0.229,0.023-0.338,0.064c-0.099,0.005-0.197,0.011-0.294,0.019
		c-0.384,0.029-0.704,0.299-0.704,0.705c0,0.188,0.074,0.367,0.205,0.499c0.146,0.146,0.303,0.182,0.499,0.207
		c0.401,0.054,0.817,0.062,1.222,0.064c0.147,0.002,0.297-0.001,0.445-0.003c0.135-0.002,0.27-0.005,0.402-0.004
		c0.145,0.017,0.289,0.024,0.429,0.015c0.002,0,0.004,0,0.007,0l0,0c0.045-0.004,0.088-0.009,0.133-0.018
		c0.439-0.08,0.473-0.733,0.117-0.924c0.025-0.008,0.051-0.016,0.076-0.023c-0.001-0.002-0.003-0.005-0.004-0.008
		c0.182-0.057,0.318-0.191,0.318-0.405c0-0.244-0.195-0.416-0.43-0.429c-0.027-0.002-0.058-0.002-0.086-0.002
		C30.215,20,29.989,20.041,29.777,20.064"/>
</g>
</svg>
