<?xml version="1.0" encoding="utf-8"?>
<!-- Generator: Adobe Illustrator 15.0.0, SVG Export Plug-In . SVG Version: 6.00 Build 0)  -->
<!DOCTYPE svg PUBLIC "-//W3C//DTD SVG 1.1//EN" "http://www.w3.org/Graphics/SVG/1.1/DTD/svg11.dtd">
<svg version="1.1" id="Capa_1" xmlns="http://www.w3.org/2000/svg" xmlns:xlink="http://www.w3.org/1999/xlink" x="0px" y="0px"
	 width="20px" height="20px" viewBox="12.5 12.5 20 20" enable-background="new 12.5 12.5 20 20" xml:space="preserve">
<g>
	<path fill="#FFFFFF" d="M20.754,26.97c0,0.64,0.535,1.174,1.174,1.174s1.173-0.534,1.173-1.174c0-0.639-0.533-1.173-1.173-1.173
		S20.754,26.331,20.754,26.97"/>
	<path fill="#FFFFFF" d="M21.741,18.217c-0.175,0.957-0.278,1.938-0.262,2.911c0.007,0.404,0.028,0.81,0.028,1.214
		c0.001,0.406,0.018,0.813,0.044,1.22c0.058,0.931,0.177,1.857,0.339,2.774c0,0.002,0.001,0.002,0.002,0
		c0.199-0.915,0.343-1.84,0.411-2.774c0.03-0.407,0.042-0.812,0.037-1.22c-0.005-0.435-0.078-0.87-0.151-1.297
		c-0.064-0.373-0.129-0.747-0.184-1.122c-0.081-0.569-0.155-1.141-0.262-1.707C21.743,18.216,21.743,18.216,21.741,18.217
		C21.741,18.216,21.741,18.216,21.741,18.217"/>
	<path fill="#FFFFFF" d="M19.878,25.255c-0.236,0.122-0.469,0.248-0.702,0.374c-0.188,0.104-0.379,0.218-0.516,0.386
		c-0.127,0.155-0.164,0.35-0.196,0.544c-0.047,0.281-0.082,0.574-0.043,0.858c0.063,0.48,0.292,0.897,0.584,1.274
		c0.341,0.441,0.862,0.719,1.358,0.955c0.397,0.188,0.81,0.367,1.241,0.462c0.428,0.094,0.873,0.103,1.309,0.09
		c0.191-0.006,0.386-0.015,0.578-0.028c0.135-0.009,0.274-0.019,0.405-0.045c0.212-0.041,0.407-0.106,0.603-0.199
		c0.258-0.12,0.452-0.329,0.612-0.558c0.105-0.153,0.17-0.33,0.241-0.501c0.075-0.175,0.129-0.361,0.17-0.548
		c0.046-0.207,0.085-0.418,0.102-0.631c0.013-0.158,0.024-0.312,0.001-0.471c-0.036-0.265-0.194-0.459-0.371-0.65
		c-0.122-0.131-0.257-0.253-0.384-0.381l-0.001,0.002c0.082,0.18,0.171,0.356,0.248,0.538c0.043,0.107,0.083,0.216,0.105,0.329
		c0.002,0.047,0.001,0.091-0.002,0.138c-0.028,0.138-0.078,0.269-0.13,0.399c-0.162,0.361-0.352,0.698-0.585,1.02
		c-0.067,0.08-0.139,0.155-0.218,0.225c-0.045,0.029-0.088,0.056-0.135,0.078c-0.083,0.028-0.164,0.05-0.249,0.066
		c-0.257,0.018-0.516-0.008-0.771-0.023c-0.287-0.02-0.574-0.039-0.858-0.065c-0.015-0.003-0.03-0.005-0.045-0.008
		c-0.167-0.03-0.333-0.06-0.497-0.105c-0.184-0.051-0.365-0.107-0.547-0.166c-0.296-0.097-0.585-0.211-0.872-0.329
		c-0.184-0.083-0.357-0.173-0.521-0.29c-0.14-0.118-0.265-0.248-0.381-0.389c-0.076-0.107-0.143-0.217-0.198-0.334
		c-0.073-0.203-0.108-0.413-0.14-0.626c-0.012-0.111-0.026-0.223-0.022-0.335c0.005-0.026,0.014-0.054,0.024-0.08
		c0.032-0.062,0.069-0.118,0.11-0.174c0.218-0.276,0.463-0.534,0.696-0.8C19.881,25.257,19.88,25.255,19.878,25.255L19.878,25.255"
		/>
	<path fill="#FFFFFF" d="M24.125,25.219c0.072,0.204,0.143,0.41,0.265,0.589c0.066,0.099,0.153,0.19,0.235,0.277
		c0.147,0.156,0.303,0.302,0.469,0.438c0.001,0.001,0.002,0,0.002-0.001c-0.089-0.184-0.184-0.37-0.303-0.536
		c-0.062-0.088-0.129-0.172-0.202-0.248C24.431,25.569,24.288,25.386,24.125,25.219L24.125,25.219
		C24.125,25.218,24.125,25.219,24.125,25.219"/>
	<path fill="#FFFFFF" d="M23.707,25.141c0.002,0.003,0.004,0.007,0.006,0.011C23.711,25.147,23.707,25.144,23.707,25.141
		 M20.991,15.665c-0.006,0.004-0.011,0.009-0.018,0.013C20.98,15.674,20.985,15.669,20.991,15.665 M21.343,14.607
		c-0.123,0.012-0.244,0.027-0.365,0.045c-0.122,0.019-0.239,0.078-0.344,0.142c-0.264,0.161-0.39,0.451-0.484,0.731
		c-0.079,0.242-0.094,0.507-0.117,0.759c-0.028,0.303-0.025,0.609-0.013,0.913c0.012,0.302,0.036,0.604,0.046,0.908
		c0,0.001,0.001,0.001,0.002,0c0.169-0.639,0.349-1.267,0.599-1.877c0.075-0.173,0.16-0.335,0.269-0.49
		c0.03-0.034,0.059-0.064,0.092-0.095c0.012-0.004,0.024-0.008,0.037-0.01c0.054,0,0.106,0.006,0.16,0.012
		c0.258,0.035,0.524,0.074,0.771,0.156c0.01,0.018,0.021,0.037,0.031,0.056c0.092,0.286,0.128,0.593,0.176,0.888
		c0.006,0.049,0.013,0.098,0.019,0.147c0.025,0.195,0.047,0.391,0.066,0.586c0.011,0.115,0.023,0.229,0.037,0.344
		c0.008,0.059,0.016,0.119,0.023,0.178c0.01,0.081,0.019,0.15,0.032,0.225c0.005,0.033,0.015,0.064,0.025,0.096
		c0.075,0.396,0.181,0.785,0.261,1.179c0.081,0.396,0.144,0.794,0.208,1.193c0.018,0.135,0.035,0.271,0.053,0.406
		c0.048,0.609,0.089,1.217,0.121,1.826c0.016,0.288,0.021,0.573,0.047,0.861c0.022,0.258,0.046,0.52,0.109,0.772
		c0.043,0.168,0.111,0.335,0.219,0.473c0.136,0.172,0.29,0.329,0.441,0.487c0,0,0.002,0,0.002-0.001
		c-0.051-0.122-0.102-0.242-0.153-0.362c0.001,0.001,0.001,0.003,0.002,0.004c-0.048-0.117-0.092-0.236-0.12-0.36
		c-0.017-0.155-0.01-0.309,0.008-0.464c0.061-0.417,0.154-0.826,0.221-1.24c0.075-0.455,0.129-0.912,0.172-1.37
		c0.073-0.8,0.046-1.601-0.047-2.398c-0.047-0.406-0.112-0.81-0.172-1.213c0.006-0.079-0.011-0.161-0.025-0.241
		C23.65,17,23.537,16.112,23.184,15.3c-0.06-0.134-0.16-0.252-0.256-0.361c-0.083-0.094-0.196-0.173-0.311-0.224
		c-0.089-0.039-0.16-0.069-0.249-0.091c-0.096-0.023-0.197-0.029-0.294-0.038c-0.052-0.006-0.104-0.005-0.156-0.006
		c-0.026-0.001-0.052-0.001-0.079-0.001C21.672,14.577,21.506,14.594,21.343,14.607"/>
	<path fill="#FFFFFF" d="M20.176,15.05c-0.178,0.937-0.317,1.881-0.417,2.829c-0.081,0.773-0.133,1.56-0.076,2.335
		c0.005,0.082,0.015,0.163,0.026,0.244c0.042,0.331,0.098,0.658,0.171,0.983c0.084,0.379,0.198,0.752,0.256,1.136
		c0.048,0.418,0.055,0.85,0.007,1.266c-0.082,0.546-0.262,1.071-0.415,1.601c0,0,0.002,0.001,0.003,0
		c0.481-0.606,0.98-1.236,1.138-2.016c0.079-0.387,0.14-0.776,0.127-1.172c-0.01-0.322-0.06-0.646-0.104-0.966
		c-0.011-0.079-0.021-0.157-0.031-0.235c-0.088-0.77-0.14-1.541-0.192-2.314c-0.054-0.808-0.156-1.611-0.273-2.412
		c-0.062-0.428-0.137-0.854-0.218-1.278C20.178,15.05,20.177,15.05,20.176,15.05C20.177,15.049,20.176,15.05,20.176,15.05"/>
	<path fill="#FFFFFF" d="M20.718,26.075c0,0.641,0.534,1.174,1.173,1.174c0.641,0,1.174-0.533,1.174-1.174
		c0-0.639-0.533-1.172-1.174-1.172C21.251,24.903,20.718,25.437,20.718,26.075"/>
	<path fill="#FFFFFF" d="M21.165,26.411c0,0.639,0.534,1.174,1.173,1.174c0.64,0,1.174-0.535,1.174-1.174s-0.535-1.174-1.174-1.174
		C21.698,25.237,21.165,25.772,21.165,26.411"/>
	<path fill="#FFFFFF" d="M21.053,26.857c0,0.64,0.533,1.174,1.173,1.174c0.64,0,1.173-0.534,1.173-1.174s-0.533-1.173-1.173-1.173
		C21.586,25.685,21.053,26.218,21.053,26.857"/>
	<path fill="#FFFFFF" d="M20.904,26.336c0,0.64,0.534,1.174,1.174,1.174c0.639,0,1.173-0.534,1.173-1.174s-0.535-1.173-1.173-1.173
		C21.438,25.163,20.904,25.696,20.904,26.336"/>
	<path fill="#FFFFFF" d="M26.443,16.15c-0.42,0.084-0.847,0.217-1.237,0.389c-0.001,0-0.001,0.002,0,0.002
		c0.432,0.004,0.858-0.018,1.285-0.085c0.465-0.075,0.922-0.227,1.359-0.399c0.001,0,0.001-0.001,0-0.001
		c-0.085-0.002-0.171-0.004-0.256-0.004C27.208,16.052,26.82,16.076,26.443,16.15"/>
	<path fill="#FFFFFF" d="M25.913,19.297C25.913,19.298,25.914,19.298,25.913,19.297c0.036-0.083,0.063-0.172,0.096-0.256
		c0.014-0.027,0.027-0.051,0.043-0.075c0.003-0.004,0.007-0.008,0.011-0.011c0.001,0,0.004,0,0.006,0
		c0.477,0.148,0.991,0.155,1.483,0.118c0.001,0,0.001-0.001,0-0.001c-0.318-0.119-0.651-0.224-0.992-0.264
		c-0.143-0.017-0.286-0.017-0.43-0.027c-0.008-0.001-0.016-0.001-0.024-0.001C25.847,18.78,25.905,19.116,25.913,19.297"/>
	<path fill="#FFFFFF" d="M26.255,20.94c-0.223,0.011-0.223,0.337,0,0.347c0.194,0.009,0.388,0.009,0.581,0.002
		c0.086,0.03,0.182,0.016,0.275-0.015c0.135-0.01,0.27-0.024,0.404-0.04c0.001,0,0.001-0.001,0.001-0.002
		c-0.062-0.019-0.123-0.038-0.182-0.057c0.01-0.005,0.021-0.011,0.031-0.016c0.001,0,0.001-0.002,0-0.002
		c-0.028,0-0.056,0.001-0.085,0.002c-0.033-0.01-0.066-0.02-0.102-0.029c0.011-0.04,0-0.084-0.033-0.117
		c-0.064-0.063-0.169-0.051-0.253-0.054c-0.067-0.003-0.136-0.007-0.204-0.011c-0.109-0.004-0.22-0.012-0.331-0.012
		C26.325,20.938,26.29,20.938,26.255,20.94"/>
	<path fill="#FFFFFF" d="M26.427,18.601c-0.046,0.01-0.09,0.023-0.136,0.035c-0.096,0.024-0.164,0.051-0.214,0.139
		c-0.034,0.062-0.005,0.148,0.066,0.166c0.156,0.037,0.311,0.009,0.463-0.026c0.194-0.044,0.387-0.107,0.573-0.175
		c0.002,0,0-0.002,0-0.002c-0.19-0.016-0.382-0.021-0.573-0.014c-0.025,0.001-0.053,0.002-0.079,0.004
		c0.12-0.067,0.238-0.135,0.354-0.212c0.002,0,0.001-0.002,0-0.002C26.728,18.537,26.577,18.565,26.427,18.601"/>
	<path fill="#FFFFFF" d="M26.513,15.4c-0.247,0.02-0.49,0.042-0.735,0.089c-0.135,0.025-0.229,0.17-0.229,0.299
		c0,0.009,0.001,0.018,0.002,0.027c-0.013,0.006-0.026,0.013-0.038,0.021c-0.174,0.095-0.206,0.307-0.124,0.473
		c0.002,0.005,0.004,0.011,0.008,0.016c0.07,0.146,0.241,0.182,0.386,0.157c0.073-0.012,0.148-0.032,0.223-0.055
		c0.07-0.007,0.142-0.012,0.213-0.017c0.059-0.005,0.117-0.009,0.177-0.013c0.115-0.008,0.248,0,0.346-0.074
		c0.025-0.019,0.05-0.041,0.072-0.062c0.034-0.005,0.069-0.009,0.104-0.014c0.137-0.015,0.285-0.019,0.413-0.063
		c0.178-0.059,0.306-0.207,0.306-0.399c0-0.239-0.189-0.399-0.414-0.415c-0.05-0.003-0.098-0.005-0.147-0.005
		C26.887,15.364,26.699,15.385,26.513,15.4"/>
	<path fill="#FFFFFF" d="M27.248,17.934c-0.006,0-0.011,0.001-0.018,0.002c-0.174,0.015-0.35,0.023-0.525,0.036
		c-0.073,0.006-0.146,0.011-0.219,0.017c-0.079,0.005-0.163,0.007-0.235,0.036c-0.121,0.047-0.188,0.118-0.226,0.243
		c-0.028,0.098-0.002,0.201,0.059,0.276c-0.045,0.027-0.089,0.055-0.134,0.082c-0.001,0,0,0.001,0,0.001
		c0.064-0.008,0.129-0.017,0.193-0.026c0.017,0.013,0.035,0.024,0.055,0.033c-0.076,0.016-0.152,0.033-0.229,0.055
		c-0.101,0.03-0.067,0.161,0.023,0.167v0.001c0.021,0.001,0.04,0.002,0.062,0.006c-0.008-0.001-0.017-0.002-0.025-0.004
		c0.157,0.022,0.314,0.04,0.472,0.049c0.021,0.008,0.048,0.012,0.073,0.012c0.062,0.002,0.122-0.002,0.184-0.006
		c0.011,0,0.023,0,0.034-0.001c0.042,0,0.078-0.012,0.108-0.029c0.052-0.01,0.101-0.022,0.149-0.038
		c0.098-0.031,0.195-0.089,0.248-0.181c0.045-0.077,0.051-0.17,0.023-0.252c0.018-0.007,0.037-0.014,0.055-0.021
		c0.12-0.048,0.205-0.158,0.166-0.294c-0.028-0.104-0.127-0.175-0.231-0.175C27.289,17.925,27.269,17.928,27.248,17.934"/>
	<path fill="#FFFFFF" d="M26.812,20.822c0.009-0.001,0.019-0.002,0.027-0.003l0,0C26.83,20.819,26.82,20.821,26.812,20.822
		 M26.746,20.831c0.021-0.004,0.044-0.006,0.065-0.01C26.79,20.825,26.768,20.829,26.746,20.831 M27.231,20.769
		c-0.131,0.016-0.262,0.033-0.393,0.05c-0.138,0.018-0.276,0.038-0.414,0.058c-0.07,0.006-0.137,0.014-0.203,0.039
		c-0.058,0.003-0.118,0.007-0.175,0.011c-0.23,0.018-0.423,0.179-0.423,0.423c0,0.112,0.044,0.22,0.123,0.299
		c0.087,0.088,0.181,0.109,0.3,0.125c0.239,0.032,0.489,0.037,0.732,0.039c0.088,0.001,0.177-0.001,0.266-0.002
		c0.082-0.001,0.162-0.003,0.242-0.002c0.087,0.01,0.173,0.014,0.257,0.009c0.001,0,0.003,0,0.004,0l0,0
		c0.026-0.002,0.052-0.006,0.08-0.011c0.263-0.048,0.283-0.44,0.07-0.554c0.015-0.004,0.03-0.009,0.045-0.014
		c0-0.001-0.001-0.003-0.002-0.005c0.108-0.034,0.19-0.115,0.19-0.243c0-0.146-0.117-0.25-0.257-0.257
		c-0.017-0.001-0.035-0.001-0.053-0.001C27.494,20.73,27.359,20.754,27.231,20.769"/>
</g>
</svg>
