<?xml version="1.0" encoding="utf-8"?>
<!-- Generator: Adobe Illustrator 15.0.0, SVG Export Plug-In . SVG Version: 6.00 Build 0)  -->
<!DOCTYPE svg PUBLIC "-//W3C//DTD SVG 1.1//EN" "http://www.w3.org/Graphics/SVG/1.1/DTD/svg11.dtd">
<svg version="1.1" id="Capa_1" xmlns="http://www.w3.org/2000/svg" xmlns:xlink="http://www.w3.org/1999/xlink" x="0px" y="0px"
	 width="44px" height="44px" viewBox="0 0 44 44" enable-background="new 0 0 44 44" xml:space="preserve">
<g>
	<path fill="#FFFFFF" d="M21.675,9.615c0.072,0.614,0.168,1.215,0.309,1.817c0.087,0.371,0.193,0.738,0.285,1.108
		c0.184,0.753,0.364,1.506,0.561,2.255c0.205,0.79,0.447,1.562,0.742,2.323c0.332,0.854,0.719,1.685,1.141,2.499
		c0.377,0.73,0.777,1.451,1.186,2.167c0.377,0.663,0.744,1.333,1.146,1.981c0.887,1.43,1.871,2.797,2.891,4.135
		c0.264,0.348,0.529,0.691,0.799,1.031c0.002,0.002,0.004,0,0.004,0c-0.689-2.193-1.496-4.346-2.387-6.464
		c0.014,0.035,0.029,0.07,0.043,0.103c-0.348-0.861-0.715-1.709-1.121-2.543c-0.355-0.729-0.768-1.434-1.182-2.132
		c-0.379-0.642-0.744-1.295-1.084-1.959c-0.375-0.739-0.723-1.489-1.074-2.239c-0.277-0.584-0.566-1.176-0.898-1.731
		c-0.176-0.292-0.354-0.583-0.527-0.875c-0.29-0.486-0.553-0.983-0.829-1.478l0,0C21.675,9.613,21.675,9.613,21.675,9.615"/>
	<path fill="#FFFFFF" d="M16.591,13.219c0.105,0.627,0.244,1.248,0.351,1.874c0.067,0.398,0.123,0.799,0.188,1.197
		c0.127,0.781,0.23,1.564,0.408,2.338c0.371,1.614,0.883,3.189,1.518,4.719c0.328,0.789,0.736,1.535,1.154,2.279
		c0.402,0.713,0.813,1.43,1.262,2.117c0.228,0.346,0.457,0.691,0.693,1.033c0.273,0.395,0.538,0.797,0.84,1.168
		c0.27,0.338,0.547,0.67,0.824,0.998c0.24,0.285,0.521,0.541,0.785,0.805c0.43,0.426,0.867,0.842,1.312,1.252
		c0.002,0.002,0.004,0,0.002-0.002c-0.377-0.793-0.76-1.584-1.158-2.367c-0.242-0.477-0.443-0.973-0.668-1.461
		c-0.637-1.559-1.32-3.104-2.061-4.613c-0.688-1.402-1.4-2.792-2.062-4.206c-0.25-0.535-0.502-1.068-0.756-1.602
		c-0.219-0.461-0.41-0.938-0.613-1.407c-0.25-0.631-0.514-1.256-0.795-1.873c-0.357-0.784-0.77-1.521-1.223-2.253v-0.001
		C16.591,13.215,16.591,13.217,16.591,13.219"/>
	<path fill="#FFFFFF" d="M11.599,17.378c0.14,0.482,0.309,0.956,0.418,1.447c0.044,0.193,0.088,0.389,0.141,0.58
		c0.102,0.365,0.213,0.727,0.334,1.086c0.251,0.743,0.533,1.478,0.796,2.217c0.282,0.797,0.565,1.594,0.86,2.385
		c0.148,0.4,0.271,0.811,0.421,1.211c0.129,0.342,0.26,0.688,0.396,1.027c0.116,0.295,0.237,0.588,0.361,0.881
		c-0.031-0.074-0.062-0.148-0.094-0.221c0.324,0.771,0.663,1.533,1.051,2.277c0.293,0.561,0.613,1.098,0.975,1.617
		c0.619,0.896,1.365,1.705,2.104,2.5c0.002,0,0.004,0,0.003-0.002c-0.395-1.062-0.834-2.105-1.2-3.176
		c-0.204-0.598-0.377-1.201-0.562-1.805c-0.215-0.695-0.42-1.396-0.646-2.092c-0.302-0.932-0.648-1.836-1.042-2.73
		c-0.312-0.715-0.692-1.404-1.079-2.08c-0.416-0.732-0.869-1.443-1.313-2.159c-0.231-0.373-0.464-0.745-0.687-1.123
		c-0.107-0.184-0.209-0.372-0.312-0.559c-0.255-0.469-0.595-0.873-0.927-1.287l0,0C11.599,17.376,11.599,17.377,11.599,17.378"/>
	<path fill="#FFFFFF" d="M30.734,13.957c-3.33,0.836-6.619,1.867-9.797,3.169c-1.59,0.649-3.079,1.481-4.562,2.342
		c-0.671,0.39-1.322,0.798-1.959,1.244c-0.677,0.474-1.322,0.989-1.973,1.5c-0.109,0.086-0.219,0.174-0.325,0.264
		c-0.305,0.257-0.543,0.603-0.795,0.91c-0.001,0.002,0,0.004,0.002,0.002c0.327-0.174,0.646-0.369,0.983-0.523
		c0.363-0.148,0.732-0.285,1.095-0.438c-0.021,0.009-0.043,0.019-0.065,0.027c0.398-0.162,0.795-0.327,1.188-0.497
		c0.737-0.297,1.472-0.595,2.22-0.863c0.715-0.258,1.417-0.541,2.124-0.819c1.575-0.618,3.149-1.246,4.679-1.977
		c2.531-1.211,4.912-2.697,7.188-4.336C30.738,13.958,30.736,13.957,30.734,13.957L30.734,13.957"/>
	<path fill="#FFFFFF" d="M25.861,20.027c-1.465,0.481-2.973,0.824-4.442,1.294c-1.644,0.526-3.229,1.205-4.736,2.044
		c-1.37,0.766-2.678,1.639-4.029,2.436c-0.104,0.061-0.209,0.117-0.312,0.18c-0.237,0.146-0.441,0.363-0.649,0.547
		c-0.001,0.002,0,0.004,0.002,0.004c0.257-0.088,0.509-0.186,0.769-0.262c0.108-0.033,0.227-0.045,0.336-0.068
		c0.184-0.037,0.364-0.082,0.545-0.131c0.397-0.105,0.795-0.221,1.188-0.336c0.729-0.215,1.456-0.449,2.177-0.695
		c0.788-0.271,1.578-0.535,2.372-0.791c0.712-0.229,1.435-0.422,2.15-0.637c1.662-0.498,3.302-1.105,4.865-1.86
		c0.689-0.334,1.348-0.748,2.002-1.147c0.744-0.454,1.477-0.925,2.201-1.409c0.301-0.201,0.6-0.406,0.898-0.613
		c0.002,0,0-0.002-0.002-0.002C29.393,18.975,27.615,19.451,25.861,20.027"/>
	<path fill="#FFFFFF" d="M32.676,22.83c-1.777,0.422-3.525,0.938-5.289,1.412c-1.578,0.424-3.148,0.875-4.729,1.301
		c-0.795,0.215-1.588,0.451-2.374,0.703c-0.842,0.271-1.661,0.598-2.475,0.943c-1.447,0.617-2.812,1.4-4.143,2.232
		c-0.18,0.113-0.361,0.221-0.544,0.33c-0.429,0.256-0.889,0.443-1.339,0.656c-0.001,0-0.001,0.004,0.001,0.004
		c0.445-0.023,0.896-0.031,1.332-0.127c0.201-0.045,0.399-0.092,0.597-0.146c0.385-0.105,0.766-0.219,1.146-0.33
		c0.734-0.217,1.464-0.447,2.205-0.641c0.765-0.197,1.529-0.396,2.299-0.578c0.801-0.191,1.605-0.363,2.409-0.545
		c1.669-0.381,3.281-0.977,4.845-1.664c1.459-0.645,2.842-1.438,4.182-2.299c0.633-0.406,1.256-0.824,1.875-1.25
		C32.678,22.832,32.678,22.83,32.676,22.83L32.676,22.83"/>
</g>
</svg>
