<?xml version="1.0" encoding="utf-8"?>
<!-- Generator: Adobe Illustrator 15.0.0, SVG Export Plug-In . SVG Version: 6.00 Build 0)  -->
<!DOCTYPE svg PUBLIC "-//W3C//DTD SVG 1.1//EN" "http://www.w3.org/Graphics/SVG/1.1/DTD/svg11.dtd">
<svg version="1.1" id="Capa_1" xmlns="http://www.w3.org/2000/svg" xmlns:xlink="http://www.w3.org/1999/xlink" x="0px" y="0px"
	 width="20px" height="20px" viewBox="12.5 12.5 20 20" enable-background="new 12.5 12.5 20 20" xml:space="preserve">
<g>
	<path fill="#919191" d="M22.153,14.47c0.048,0.407,0.111,0.805,0.204,1.204c0.058,0.246,0.128,0.489,0.188,0.734
		c0.122,0.499,0.241,0.998,0.371,1.494c0.137,0.523,0.297,1.034,0.492,1.539c0.221,0.566,0.476,1.116,0.755,1.655
		c0.25,0.483,0.516,0.961,0.785,1.435c0.251,0.439,0.494,0.883,0.76,1.312c0.587,0.947,1.239,1.853,1.915,2.738
		c0.174,0.229,0.35,0.457,0.529,0.683c0,0.002,0.002,0,0.002,0c-0.457-1.453-0.99-2.878-1.58-4.281
		c0.009,0.022,0.019,0.046,0.028,0.068c-0.231-0.57-0.475-1.132-0.743-1.685c-0.235-0.483-0.509-0.949-0.783-1.412
		c-0.251-0.425-0.492-0.858-0.718-1.297c-0.248-0.49-0.478-0.986-0.711-1.483c-0.184-0.387-0.375-0.779-0.595-1.147
		c-0.116-0.193-0.234-0.386-0.35-0.58c-0.191-0.322-0.366-0.651-0.549-0.979l0,0C22.153,14.468,22.153,14.468,22.153,14.47"/>
	<path fill="#919191" d="M18.786,16.857c0.07,0.415,0.162,0.827,0.232,1.241c0.045,0.264,0.082,0.529,0.125,0.793
		c0.084,0.517,0.153,1.036,0.271,1.548c0.246,1.068,0.584,2.112,1.004,3.126c0.218,0.521,0.488,1.017,0.765,1.509
		c0.267,0.473,0.539,0.947,0.836,1.401c0.15,0.229,0.303,0.459,0.459,0.685c0.182,0.262,0.356,0.528,0.557,0.774
		c0.179,0.223,0.362,0.443,0.546,0.661c0.159,0.188,0.345,0.358,0.521,0.532c0.284,0.282,0.573,0.558,0.868,0.829
		c0.002,0.001,0.003,0,0.002-0.002c-0.25-0.524-0.504-1.048-0.767-1.566c-0.161-0.316-0.295-0.646-0.442-0.968
		c-0.423-1.032-0.875-2.056-1.365-3.056c-0.456-0.929-0.928-1.849-1.366-2.785c-0.166-0.354-0.332-0.708-0.501-1.061
		c-0.145-0.305-0.271-0.622-0.406-0.932c-0.165-0.417-0.34-0.832-0.526-1.24c-0.237-0.52-0.51-1.007-0.81-1.492v0
		C18.786,16.854,18.786,16.855,18.786,16.857"/>
	<path fill="#919191" d="M15.48,19.611c0.092,0.319,0.204,0.633,0.277,0.958c0.029,0.128,0.058,0.257,0.093,0.384
		c0.067,0.242,0.141,0.481,0.221,0.719c0.167,0.492,0.354,0.979,0.527,1.469c0.187,0.527,0.375,1.056,0.57,1.58
		c0.098,0.265,0.18,0.536,0.279,0.801c0.085,0.228,0.172,0.455,0.262,0.682c0.077,0.195,0.157,0.389,0.239,0.582
		c-0.021-0.049-0.042-0.098-0.062-0.146c0.215,0.512,0.439,1.016,0.696,1.508c0.194,0.372,0.406,0.728,0.646,1.071
		c0.41,0.594,0.904,1.129,1.394,1.655c0.001,0.001,0.002,0,0.002-0.001c-0.262-0.703-0.553-1.394-0.795-2.103
		c-0.135-0.396-0.25-0.796-0.372-1.195c-0.142-0.461-0.278-0.926-0.428-1.386c-0.2-0.617-0.429-1.216-0.69-1.809
		c-0.207-0.474-0.458-0.93-0.715-1.378c-0.275-0.484-0.576-0.955-0.87-1.429c-0.153-0.247-0.307-0.494-0.455-0.744
		c-0.071-0.122-0.139-0.246-0.207-0.37c-0.169-0.311-0.394-0.579-0.614-0.853l0,0C15.48,19.61,15.48,19.611,15.48,19.611"/>
	<path fill="#919191" d="M28.152,17.345c-2.205,0.554-4.383,1.237-6.488,2.099c-1.053,0.43-2.039,0.981-3.021,1.551
		c-0.444,0.258-0.876,0.529-1.297,0.824c-0.448,0.314-0.876,0.655-1.307,0.994c-0.072,0.057-0.145,0.115-0.215,0.174
		c-0.202,0.171-0.359,0.4-0.526,0.603c0,0.001,0,0.003,0.001,0.002c0.217-0.116,0.428-0.245,0.651-0.348
		c0.241-0.098,0.485-0.188,0.725-0.289c-0.014,0.006-0.028,0.012-0.043,0.018c0.264-0.107,0.527-0.217,0.787-0.329
		c0.488-0.196,0.975-0.394,1.47-0.571c0.474-0.171,0.938-0.358,1.407-0.543c1.043-0.409,2.086-0.825,3.099-1.309
		c1.677-0.802,3.253-1.786,4.76-2.872C28.155,17.347,28.153,17.345,28.152,17.345L28.152,17.345"/>
	<path fill="#919191" d="M24.926,21.365c-0.971,0.319-1.97,0.546-2.942,0.857c-1.088,0.349-2.139,0.797-3.137,1.354
		c-0.907,0.508-1.773,1.085-2.668,1.613c-0.068,0.04-0.138,0.078-0.207,0.119c-0.157,0.097-0.292,0.24-0.43,0.362
		c-0.001,0.001,0,0.002,0.001,0.002c0.17-0.058,0.337-0.123,0.509-0.174c0.072-0.021,0.15-0.029,0.222-0.044
		c0.122-0.025,0.241-0.056,0.361-0.088c0.263-0.069,0.526-0.146,0.787-0.223c0.483-0.142,0.964-0.297,1.442-0.46
		c0.522-0.18,1.045-0.354,1.571-0.523c0.472-0.151,0.95-0.279,1.424-0.422c1.101-0.33,2.187-0.731,3.222-1.231
		c0.457-0.222,0.894-0.496,1.326-0.76c0.492-0.301,0.979-0.613,1.458-0.934c0.198-0.133,0.397-0.269,0.595-0.406
		c0.001,0,0-0.001-0.002-0.001C27.264,20.669,26.087,20.984,24.926,21.365"/>
	<path fill="#919191" d="M29.438,23.222c-1.176,0.279-2.334,0.621-3.502,0.935c-1.046,0.281-2.086,0.581-3.132,0.862
		c-0.526,0.143-1.052,0.299-1.571,0.466c-0.558,0.18-1.101,0.396-1.639,0.625c-0.958,0.408-1.862,0.928-2.744,1.479
		c-0.119,0.075-0.239,0.146-0.36,0.219c-0.284,0.169-0.588,0.293-0.887,0.434c0,0,0,0.003,0.001,0.003
		c0.295-0.016,0.593-0.021,0.882-0.084c0.133-0.03,0.265-0.062,0.396-0.098c0.255-0.069,0.507-0.145,0.759-0.219
		c0.486-0.143,0.969-0.296,1.46-0.423c0.506-0.132,1.013-0.263,1.522-0.384c0.53-0.127,1.062-0.24,1.596-0.361
		c1.105-0.251,2.172-0.646,3.208-1.102c0.967-0.427,1.882-0.951,2.77-1.522C28.615,23.781,29.028,23.505,29.438,23.222
		C29.439,23.224,29.439,23.222,29.438,23.222L29.438,23.222"/>
</g>
</svg>
