<?xml version="1.0" encoding="utf-8"?>
<!-- Generator: Adobe Illustrator 15.0.0, SVG Export Plug-In . SVG Version: 6.00 Build 0)  -->
<!DOCTYPE svg PUBLIC "-//W3C//DTD SVG 1.1//EN" "http://www.w3.org/Graphics/SVG/1.1/DTD/svg11.dtd">
<svg version="1.1" id="Capa_1" xmlns="http://www.w3.org/2000/svg" xmlns:xlink="http://www.w3.org/1999/xlink" x="0px" y="0px"
	 width="45px" height="45px" viewBox="-0.5 -0.5 45 45" enable-background="new -0.5 -0.5 45 45" xml:space="preserve">
<g>
	<path fill="#FFFFFF" d="M20.6,13.518c0.191,0.004,0.383,0.009,0.575,0.015c0.344,0.01,0.688,0.017,1.032,0.037
		c0.171,0.01,0.342,0.018,0.513,0.032c0.113,0.009,0.229,0.014,0.343,0.022c0.044,0.012,0.089,0.024,0.134,0.037
		c0.305,0.084,0.609,0.169,0.913,0.256c0.002,0,0.002,0,0.001-0.001c-0.114-0.067-0.229-0.135-0.345-0.202
		c0.217,0.041,0.435,0.08,0.647,0.134c0.153,0.039,0.307,0.077,0.46,0.116c0.139,0.035,0.275,0.091,0.412,0.137
		c0.445,0.148,0.881,0.328,1.313,0.51c0.831,0.4,1.684,0.79,2.428,1.34c0.401,0.322,0.764,0.688,1.085,1.09
		c0.184,0.247,0.354,0.504,0.525,0.76c0.303,0.45,0.562,0.928,0.78,1.424c0.259,0.636,0.449,1.296,0.553,1.975
		c0.096,0.811,0.065,1.633,0.046,2.447c-0.013,0.6-0.075,1.198-0.128,1.795c-0.026,0.186-0.052,0.371-0.077,0.557
		c-0.023,0.173-0.057,0.342-0.09,0.513c-0.049,0.249-0.092,0.5-0.15,0.747c-0.141,0.599-0.319,1.182-0.554,1.75
		c-0.178,0.412-0.375,0.812-0.602,1.198c-0.226,0.385-0.477,0.756-0.746,1.111c-0.442,0.56-0.945,1.066-1.505,1.511
		c-0.529,0.399-1.097,0.741-1.705,1.009c-0.538,0.217-1.1,0.365-1.674,0.45c-0.838,0.102-1.678,0.085-2.521,0.081
		c-0.278-0.001-0.557-0.019-0.834-0.027c-0.478-0.017-0.953-0.052-1.427-0.111c-0.824-0.118-1.633-0.307-2.406-0.619
		c-0.603-0.266-1.166-0.604-1.692-0.999c-0.376-0.299-0.73-0.623-1.066-0.966c-0.333-0.339-0.663-0.683-0.96-1.055
		c-0.277-0.369-0.528-0.756-0.757-1.156c-0.238-0.416-0.467-0.841-0.66-1.28c-0.24-0.591-0.417-1.204-0.515-1.835
		c-0.064-0.563-0.053-1.128-0.045-1.693c0.009-0.663,0.034-1.323,0.115-1.98c0.092-0.633,0.236-1.256,0.476-1.85
		c0.191-0.436,0.41-0.865,0.667-1.265c0.159-0.246,0.317-0.492,0.475-0.738c0.214-0.333,0.455-0.649,0.683-0.973
		c0.195-0.242,0.389-0.486,0.582-0.73c0.206-0.261,0.433-0.508,0.662-0.749c0.302-0.318,0.625-0.62,0.968-0.893
		c0.754-0.57,1.583-1.054,2.451-1.429C19.504,13.804,20.044,13.627,20.6,13.518 M20.221,11.866
		c-0.176,0.002-0.351,0.006-0.526,0.011c-0.358,0.011-0.708,0.036-1.064,0.086c-0.24,0.034-0.477,0.102-0.706,0.182
		c-0.278,0.097-0.549,0.218-0.806,0.361c-0.449,0.251-0.854,0.588-1.222,0.945c-0.431,0.419-0.809,0.9-1.147,1.396
		c-0.184,0.269-0.354,0.546-0.514,0.83c-0.164,0.169-0.322,0.344-0.475,0.524c-0.263,0.31-0.533,0.617-0.771,0.947
		c-0.209,0.29-0.43,0.577-0.62,0.88c-0.277,0.444-0.557,0.884-0.802,1.348c-0.254,0.48-0.477,0.986-0.643,1.504
		c-0.157,0.49-0.254,1.003-0.323,1.513c-0.076,0.561-0.119,1.119-0.138,1.685c-0.007,0.193-0.007,0.386-0.009,0.579
		c-0.003,0.217-0.005,0.433-0.007,0.649c-0.005,0.453,0.041,0.909,0.105,1.356c0.151,1.049,0.552,2.04,1.045,2.971
		c0.232,0.438,0.477,0.866,0.752,1.279c0.299,0.45,0.634,0.874,1,1.272c0.344,0.375,0.703,0.74,1.087,1.075
		c0.409,0.356,0.85,0.683,1.309,0.972c0.875,0.554,1.86,0.932,2.868,1.161c0.544,0.125,1.1,0.201,1.654,0.262
		c0.327,0.035,0.656,0.06,0.985,0.071c0.358,0.012,0.717,0.032,1.075,0.034c0.456,0.002,0.911,0.01,1.366,0
		c1.063-0.024,2.139-0.168,3.132-0.562c0.494-0.196,0.971-0.431,1.421-0.713c0.445-0.28,0.868-0.605,1.266-0.95
		c0.774-0.674,1.417-1.492,1.968-2.354c0.272-0.427,0.507-0.874,0.715-1.336c0.225-0.5,0.429-1.01,0.585-1.535
		c0.158-0.532,0.264-1.075,0.373-1.619c0.068-0.336,0.104-0.68,0.154-1.019c0.029-0.207,0.048-0.417,0.068-0.626
		c0.017-0.171,0.038-0.342,0.05-0.513c0.023-0.343,0.052-0.683,0.066-1.025c0.015-0.383,0.026-0.765,0.028-1.147
		c0.002-0.257,0.002-0.51-0.011-0.767c-0.029-0.561-0.112-1.124-0.247-1.668c-0.135-0.542-0.331-1.063-0.552-1.575
		c-0.187-0.434-0.409-0.864-0.669-1.259c-0.114-0.174-0.229-0.348-0.343-0.522c-0.217-0.328-0.457-0.642-0.714-0.939
		c-0.626-0.725-1.413-1.316-2.259-1.761c-0.329-0.173-0.658-0.346-0.993-0.508c-0.194-0.094-0.389-0.184-0.589-0.268
		c-0.196-0.083-0.394-0.166-0.59-0.249c-0.312-0.131-0.633-0.244-0.954-0.352c-0.151-0.052-0.3-0.101-0.453-0.142
		c-0.169-0.043-0.337-0.095-0.508-0.129c-0.183-0.038-0.366-0.086-0.55-0.112c-0.196-0.028-0.394-0.056-0.592-0.084
		c-0.409-0.059-0.822-0.085-1.236-0.116c-0.492-0.036-0.985-0.047-1.479-0.047C20.595,11.861,20.408,11.863,20.221,11.866"/>
	<path fill="#FFFFFF" d="M22.01,24.058c0.002,0.002,0.005,0.004,0.007,0.006h0C22.014,24.062,22.012,24.06,22.01,24.058
		 M21.355,16.147c-0.099,0.811-0.179,1.624-0.263,2.437c-0.076,0.731-0.142,1.463-0.189,2.197c-0.044,0.699-0.062,1.401-0.091,2.1
		c-0.014,0.334-0.03,0.668-0.05,1.001c-0.01,0.173-0.019,0.345-0.029,0.518c-0.01,0.177-0.008,0.352,0.038,0.525
		c0.06,0.231,0.23,0.457,0.437,0.577c0.209,0.122,0.42,0.178,0.66,0.197c0.271,0.022,0.555-0.035,0.808-0.135
		c0.279-0.109,0.531-0.245,0.775-0.419c0.296-0.21,0.574-0.444,0.846-0.684c0.247-0.22,0.49-0.446,0.733-0.671
		c0.527-0.489,1.05-0.984,1.564-1.487c0.312-0.307,0.613-0.624,0.908-0.948c0.301-0.331,0.591-0.679,0.922-0.979
		c-0.004,0.003-0.008,0.007-0.013,0.01c0.024-0.021,0.052-0.035,0.083-0.044c-0.004,0.001-0.008,0.003-0.012,0.005
		c0.092-0.029,0.185-0.046,0.278-0.069c0.001,0,0-0.002-0.001-0.002c-0.116-0.01-0.229-0.029-0.345-0.018
		c-0.062,0.006-0.125,0.047-0.179,0.076c-0.069,0.037-0.138,0.076-0.204,0.117c-0.14,0.085-0.274,0.176-0.411,0.267
		c-0.287,0.19-0.568,0.391-0.858,0.576c-0.612,0.389-1.233,0.761-1.848,1.146c-0.336,0.211-0.672,0.42-1.006,0.634
		c-0.482,0.309-0.963,0.646-1.485,0.886c-0.06,0.021-0.12,0.043-0.18,0.061c-0.018-0.219-0.028-0.439-0.041-0.659
		c-0.019-0.329-0.038-0.656-0.062-0.984c-0.051-0.703-0.125-1.405-0.183-2.107c-0.053-0.631-0.116-1.264-0.208-1.892
		c-0.109-0.747-0.245-1.489-0.395-2.229C21.356,16.146,21.356,16.146,21.355,16.147C21.355,16.146,21.355,16.146,21.355,16.147"/>
	<path fill="#FFFFFF" d="M21.953,24.237c-0.059,0.007-0.121,0.029-0.179,0.046c-0.098,0.027-0.194,0.069-0.287,0.112
		c-0.237,0.11-0.453,0.271-0.655,0.437c0,0,0,0.001,0.001,0.001c0.212-0.052,0.42-0.118,0.622-0.203
		c0.195-0.082,0.367-0.206,0.559-0.295c0.014-0.004,0.028-0.006,0.042-0.01c0.067-0.006,0.134-0.008,0.201-0.014
		c0.001,0,0.001-0.002,0-0.002c-0.089-0.032-0.175-0.074-0.27-0.074C21.977,24.235,21.965,24.236,21.953,24.237"/>
	<path fill="#FFFFFF" d="M21.147,24.548c0,0.554,0.462,1.015,1.016,1.015s1.016-0.461,1.016-1.015s-0.462-1.016-1.016-1.016
		S21.147,23.994,21.147,24.548"/>
	<path fill="#FFFFFF" d="M20.293,24.737c0,0.554,0.462,1.016,1.016,1.016c0.553,0,1.015-0.462,1.015-1.016s-0.462-1.015-1.015-1.015
		C20.755,23.723,20.293,24.184,20.293,24.737"/>
	<path fill="#FFFFFF" d="M21.1,24.928c0,0.554,0.462,1.015,1.015,1.015c0.554,0,1.016-0.461,1.016-1.015s-0.462-1.016-1.016-1.016
		C21.562,23.912,21.1,24.374,21.1,24.928"/>
	<path fill="#FFFFFF" d="M21.432,24.5c0,0.554,0.462,1.016,1.015,1.016c0.554,0,1.016-0.462,1.016-1.016s-0.462-1.015-1.016-1.015
		C21.894,23.485,21.432,23.946,21.432,24.5"/>
	<path fill="#FFFFFF" d="M20.578,24.737c0,0.554,0.462,1.016,1.016,1.016c0.553,0,1.015-0.462,1.015-1.016s-0.462-1.015-1.015-1.015
		C21.04,23.723,20.578,24.184,20.578,24.737"/>
	<path fill="#FFFFFF" d="M21.242,24.928c0,0.554,0.462,1.015,1.016,1.015s1.016-0.461,1.016-1.015s-0.462-1.016-1.016-1.016
		S21.242,24.374,21.242,24.928"/>
	<path fill="#FFFFFF" d="M21.195,24.595c0,0.554,0.462,1.016,1.016,1.016c0.553,0,1.015-0.462,1.015-1.016s-0.462-1.015-1.015-1.015
		C21.657,23.58,21.195,24.041,21.195,24.595"/>
	<path fill="#FFFFFF" d="M19.927,11.48c0.002,0.005,0.004,0.01,0.007,0.015C19.931,11.49,19.929,11.485,19.927,11.48 M23.65,9.747
		c0.002,0.001,0.005,0.002,0.006,0.003C23.655,9.749,23.652,9.748,23.65,9.747 M22.586,8.871c-0.184,0.032-0.365,0.071-0.547,0.113
		c-0.569,0.13-1.133,0.266-1.71,0.351c-0.052,0.006-0.104,0.013-0.156,0.019c-0.171,0.019-0.368,0.038-0.498,0.165
		c-0.282,0.274-0.178,0.704-0.099,1.043c0.068,0.29,0.201,0.568,0.318,0.84c-0.004-0.01-0.008-0.021-0.013-0.03
		c0.015,0.035,0.029,0.069,0.044,0.104c0.072,0.178,0.13,0.362,0.196,0.543c0,0,0.001,0,0.001,0c0.01-0.227,0.02-0.452,0.004-0.679
		c-0.008-0.117-0.018-0.233-0.025-0.35c-0.016-0.251-0.015-0.5,0.013-0.75c0.008-0.042,0.017-0.082,0.027-0.122
		c0.093-0.003,0.186-0.002,0.279,0c0.066,0.001,0.132,0.002,0.197,0.001c0.195-0.001,0.392-0.008,0.587-0.021
		c0.473-0.032,0.944-0.095,1.411-0.178c-0.007,0.001-0.015,0.001-0.021,0.002c0.288-0.043,0.569-0.121,0.856-0.17
		c0.051,0.438,0.089,0.878,0.175,1.313c0.116,0.594,0.268,1.179,0.434,1.76c0,0.001,0.001,0.001,0.002,0
		c0.08-0.804,0.123-1.61,0.187-2.415c0.014-0.181,0.024-0.361,0.039-0.542c0.01-0.125,0.021-0.249,0.029-0.374
		c0.022-0.315-0.174-0.616-0.486-0.697c-0.122-0.031-0.247-0.044-0.372-0.044C23.167,8.753,22.871,8.821,22.586,8.871"/>
	<path fill="#FFFFFF" d="M12.19,12.982c-0.097,0.006-0.228,0.033-0.31,0.089c-0.2,0.136-0.344,0.322-0.479,0.521
		c-0.105,0.156-0.203,0.316-0.299,0.477c-0.17,0.284-0.337,0.57-0.518,0.847c-0.048,0.073-0.095,0.146-0.144,0.218
		c-0.079,0.115-0.116,0.257-0.113,0.395c0.003,0.188,0.098,0.326,0.209,0.467c0.082,0.103,0.197,0.182,0.302,0.259
		c0.089,0.066,0.187,0.123,0.283,0.178c0.102,0.059,0.204,0.117,0.307,0.174c0.295,0.165,0.602,0.308,0.899,0.468
		c0.173,0.093,0.356,0.175,0.52,0.284c0.104,0.082,0.199,0.173,0.298,0.26c0.001,0,0.002,0,0.001-0.001
		c-0.083-0.166-0.155-0.332-0.278-0.472c-0.058-0.066-0.121-0.127-0.183-0.189c-0.125-0.126-0.247-0.254-0.373-0.38
		c-0.137-0.138-0.281-0.271-0.423-0.405c-0.072-0.068-0.141-0.14-0.211-0.209c-0.132-0.13-0.267-0.257-0.386-0.398
		c-0.004-0.006-0.008-0.012-0.012-0.018c0.156-0.195,0.316-0.387,0.468-0.584c0.166-0.215,0.321-0.437,0.475-0.66
		c-0.005,0.007-0.01,0.014-0.016,0.021c0.028-0.037,0.054-0.075,0.081-0.112c0.104,0.091,0.21,0.18,0.318,0.269
		c0.346,0.283,0.701,0.559,1.107,0.752c0.636,0.304,1.288,0.571,1.947,0.82c0.001,0,0.001-0.001,0.001-0.001
		c-0.484-0.431-0.981-0.847-1.482-1.258c-0.505-0.413-0.943-0.906-1.356-1.409c-0.019-0.024-0.037-0.048-0.056-0.073
		c0.015,0.02,0.03,0.039,0.045,0.059c-0.091-0.129-0.176-0.238-0.314-0.32c-0.082-0.049-0.172-0.07-0.266-0.07
		C12.218,12.98,12.205,12.981,12.19,12.982"/>
</g>
</svg>
