<?xml version="1.0" encoding="utf-8"?>
<!-- Generator: Adobe Illustrator 15.0.0, SVG Export Plug-In . SVG Version: 6.00 Build 0)  -->
<!DOCTYPE svg PUBLIC "-//W3C//DTD SVG 1.1//EN" "http://www.w3.org/Graphics/SVG/1.1/DTD/svg11.dtd">
<svg version="1.1" id="Capa_1" xmlns="http://www.w3.org/2000/svg" xmlns:xlink="http://www.w3.org/1999/xlink" x="0px" y="0px"
	 width="20px" height="20px" viewBox="12.5 12.5 20 20" enable-background="new 12.5 12.5 20 20" xml:space="preserve">
<g>
	<path fill="#9D9995" d="M22.006,17.189c0.108,0.002,0.218,0.005,0.326,0.008c0.195,0.006,0.39,0.01,0.585,0.021
		c0.097,0.005,0.194,0.01,0.291,0.018c0.064,0.005,0.13,0.008,0.194,0.013c0.024,0.007,0.051,0.014,0.076,0.021
		c0.173,0.048,0.346,0.096,0.518,0.146c0.002,0,0.002,0,0.001,0c-0.065-0.039-0.131-0.077-0.195-0.115
		c0.122,0.023,0.247,0.046,0.367,0.076c0.087,0.022,0.174,0.044,0.261,0.066c0.078,0.02,0.156,0.052,0.233,0.078
		c0.253,0.084,0.5,0.186,0.745,0.289c0.472,0.228,0.956,0.449,1.378,0.76c0.227,0.183,0.433,0.39,0.615,0.618
		c0.104,0.141,0.2,0.286,0.298,0.432c0.172,0.255,0.319,0.526,0.442,0.808c0.147,0.361,0.255,0.735,0.313,1.121
		c0.055,0.46,0.037,0.926,0.026,1.388c-0.008,0.34-0.043,0.68-0.072,1.018c-0.016,0.105-0.03,0.211-0.044,0.316
		c-0.014,0.098-0.032,0.194-0.051,0.291c-0.027,0.141-0.053,0.283-0.085,0.424c-0.081,0.34-0.182,0.67-0.315,0.992
		c-0.101,0.234-0.212,0.461-0.34,0.68c-0.129,0.218-0.271,0.429-0.424,0.63c-0.252,0.318-0.536,0.605-0.854,0.857
		c-0.299,0.227-0.621,0.421-0.967,0.573c-0.306,0.122-0.623,0.206-0.949,0.255c-0.476,0.058-0.952,0.048-1.43,0.046
		c-0.157-0.001-0.315-0.011-0.473-0.016c-0.271-0.01-0.541-0.029-0.81-0.063c-0.468-0.066-0.926-0.174-1.365-0.351
		c-0.341-0.151-0.661-0.343-0.959-0.566c-0.214-0.17-0.415-0.354-0.605-0.549c-0.189-0.192-0.376-0.387-0.544-0.599
		c-0.157-0.209-0.3-0.428-0.43-0.655c-0.135-0.235-0.265-0.478-0.375-0.727c-0.136-0.335-0.237-0.683-0.292-1.041
		c-0.036-0.318-0.03-0.64-0.025-0.96c0.005-0.376,0.02-0.75,0.065-1.124c0.053-0.359,0.134-0.712,0.271-1.049
		c0.108-0.247,0.232-0.491,0.378-0.717c0.09-0.14,0.179-0.279,0.27-0.419c0.121-0.188,0.258-0.368,0.387-0.552
		c0.11-0.137,0.221-0.276,0.33-0.414c0.117-0.148,0.246-0.288,0.375-0.425c0.171-0.18,0.354-0.352,0.549-0.506
		c0.428-0.323,0.898-0.598,1.391-0.811C21.385,17.351,21.69,17.251,22.006,17.189 M21.791,16.251
		c-0.1,0.001-0.199,0.004-0.298,0.007c-0.203,0.006-0.402,0.02-0.604,0.049c-0.136,0.02-0.27,0.058-0.4,0.103
		c-0.157,0.055-0.311,0.124-0.457,0.205c-0.254,0.143-0.484,0.333-0.693,0.537c-0.244,0.237-0.459,0.51-0.651,0.792
		c-0.104,0.153-0.2,0.31-0.292,0.471c-0.093,0.096-0.183,0.195-0.269,0.297c-0.149,0.176-0.302,0.35-0.438,0.537
		c-0.119,0.164-0.244,0.327-0.352,0.5C17.18,20,17.022,20.25,16.882,20.513c-0.144,0.272-0.27,0.559-0.364,0.853
		c-0.089,0.279-0.145,0.57-0.184,0.859c-0.042,0.318-0.067,0.635-0.078,0.956c-0.004,0.109-0.004,0.22-0.005,0.328
		c-0.002,0.124-0.003,0.246-0.004,0.368c-0.002,0.258,0.023,0.517,0.06,0.77c0.085,0.595,0.313,1.157,0.593,1.686
		c0.132,0.249,0.271,0.491,0.426,0.727c0.17,0.255,0.36,0.495,0.567,0.721c0.195,0.213,0.399,0.421,0.617,0.61
		c0.232,0.202,0.482,0.388,0.742,0.551c0.497,0.314,1.056,0.529,1.627,0.658c0.308,0.071,0.624,0.114,0.938,0.149
		c0.186,0.02,0.373,0.034,0.559,0.04c0.204,0.007,0.407,0.019,0.61,0.02c0.259,0.001,0.517,0.006,0.775,0
		c0.603-0.014,1.213-0.096,1.776-0.318c0.279-0.112,0.55-0.245,0.806-0.404c0.253-0.16,0.492-0.344,0.718-0.539
		c0.439-0.383,0.805-0.847,1.116-1.337c0.154-0.241,0.288-0.495,0.405-0.757c0.128-0.284,0.244-0.573,0.332-0.871
		c0.09-0.303,0.149-0.61,0.212-0.919c0.038-0.19,0.059-0.385,0.088-0.577c0.017-0.117,0.026-0.236,0.038-0.354
		c0.01-0.098,0.022-0.194,0.028-0.291c0.014-0.194,0.029-0.388,0.038-0.583c0.009-0.217,0.015-0.433,0.016-0.65
		c0.001-0.146,0.001-0.289-0.006-0.435c-0.017-0.319-0.064-0.638-0.141-0.947c-0.076-0.308-0.188-0.603-0.312-0.894
		c-0.105-0.246-0.232-0.49-0.38-0.714c-0.064-0.099-0.129-0.197-0.194-0.296c-0.123-0.186-0.259-0.364-0.405-0.533
		c-0.354-0.411-0.801-0.747-1.28-0.999c-0.188-0.099-0.374-0.196-0.563-0.289c-0.11-0.053-0.221-0.104-0.335-0.152
		c-0.111-0.046-0.223-0.093-0.334-0.141c-0.177-0.075-0.359-0.139-0.541-0.2c-0.087-0.029-0.17-0.057-0.258-0.08
		c-0.096-0.025-0.191-0.054-0.288-0.074c-0.104-0.021-0.207-0.049-0.312-0.063c-0.11-0.017-0.223-0.032-0.336-0.048
		c-0.231-0.034-0.466-0.049-0.701-0.066c-0.279-0.02-0.559-0.027-0.839-0.027C22.003,16.25,21.897,16.25,21.791,16.251"/>
	<path fill="#9D9995" d="M22.806,23.169c0.001,0.001,0.003,0.002,0.004,0.003l0,0C22.808,23.171,22.807,23.17,22.806,23.169
		 M22.435,18.681c-0.056,0.46-0.102,0.921-0.149,1.382c-0.043,0.415-0.081,0.83-0.107,1.246c-0.025,0.397-0.036,0.795-0.051,1.192
		c-0.008,0.189-0.018,0.378-0.029,0.568c-0.006,0.098-0.011,0.195-0.017,0.293c-0.006,0.1-0.005,0.199,0.021,0.298
		c0.034,0.131,0.13,0.26,0.248,0.327c0.119,0.069,0.238,0.101,0.374,0.112c0.154,0.013,0.315-0.021,0.458-0.077
		c0.158-0.062,0.301-0.139,0.439-0.237c0.168-0.118,0.325-0.252,0.479-0.388c0.141-0.125,0.278-0.254,0.416-0.38
		c0.299-0.278,0.596-0.559,0.888-0.845c0.177-0.174,0.348-0.354,0.516-0.538c0.171-0.187,0.335-0.385,0.522-0.555
		c-0.002,0.002-0.004,0.003-0.007,0.005c0.014-0.012,0.029-0.02,0.047-0.026c-0.002,0.001-0.004,0.002-0.006,0.003
		c0.051-0.017,0.104-0.026,0.157-0.039c0.001,0,0-0.001-0.001-0.001c-0.066-0.006-0.13-0.017-0.195-0.011
		c-0.035,0.004-0.071,0.027-0.102,0.043c-0.039,0.021-0.078,0.042-0.116,0.066c-0.079,0.048-0.155,0.1-0.232,0.151
		c-0.163,0.108-0.322,0.222-0.487,0.327c-0.347,0.22-0.699,0.432-1.048,0.65c-0.19,0.119-0.381,0.238-0.57,0.359
		c-0.273,0.175-0.547,0.366-0.843,0.503c-0.033,0.011-0.068,0.023-0.102,0.034c-0.01-0.125-0.016-0.25-0.023-0.374
		c-0.01-0.187-0.021-0.372-0.035-0.559c-0.029-0.399-0.07-0.797-0.104-1.196c-0.03-0.358-0.065-0.717-0.117-1.073
		C22.598,19.521,22.52,19.101,22.435,18.681C22.436,18.68,22.436,18.68,22.435,18.681C22.435,18.68,22.435,18.68,22.435,18.681"/>
	<path fill="#9D9995" d="M22.774,23.271c-0.034,0.003-0.069,0.017-0.102,0.025c-0.056,0.016-0.11,0.039-0.163,0.064
		c-0.135,0.062-0.257,0.154-0.371,0.247c0,0,0,0,0,0c0.12-0.028,0.238-0.066,0.352-0.114c0.111-0.047,0.208-0.118,0.317-0.168
		c0.008-0.002,0.017-0.003,0.024-0.005c0.038-0.004,0.076-0.005,0.114-0.008c0,0,0-0.002,0-0.002
		c-0.051-0.018-0.1-0.041-0.153-0.041C22.787,23.27,22.781,23.27,22.774,23.271"/>
	<path fill="#9D9995" d="M22.317,23.446c0,0.313,0.262,0.575,0.576,0.575s0.576-0.262,0.576-0.575s-0.262-0.576-0.576-0.576
		S22.317,23.133,22.317,23.446"/>
	<path fill="#9D9995" d="M21.832,23.554c0,0.314,0.262,0.576,0.576,0.576c0.313,0,0.576-0.262,0.576-0.576s-0.263-0.575-0.576-0.575
		C22.094,22.979,21.832,23.239,21.832,23.554"/>
	<path fill="#9D9995" d="M22.29,23.661c0,0.315,0.262,0.576,0.576,0.576c0.314,0,0.576-0.261,0.576-0.576
		c0-0.313-0.262-0.576-0.576-0.576C22.552,23.085,22.29,23.348,22.29,23.661"/>
	<path fill="#9D9995" d="M22.478,23.419c0,0.314,0.262,0.577,0.576,0.577c0.314,0,0.577-0.263,0.577-0.577s-0.263-0.575-0.577-0.575
		C22.74,22.844,22.478,23.104,22.478,23.419"/>
	<path fill="#9D9995" d="M21.994,23.554c0,0.314,0.262,0.576,0.576,0.576s0.576-0.262,0.576-0.576s-0.262-0.575-0.576-0.575
		S21.994,23.239,21.994,23.554"/>
	<path fill="#9D9995" d="M22.371,23.661c0,0.315,0.262,0.576,0.576,0.576c0.314,0,0.576-0.261,0.576-0.576
		c0-0.313-0.262-0.576-0.576-0.576C22.632,23.085,22.371,23.348,22.371,23.661"/>
	<path fill="#9D9995" d="M22.344,23.473c0,0.314,0.262,0.576,0.576,0.576c0.313,0,0.576-0.262,0.576-0.576s-0.263-0.576-0.576-0.576
		C22.605,22.897,22.344,23.158,22.344,23.473"/>
	<path fill="#9D9995" d="M21.624,16.033c0.002,0.002,0.003,0.005,0.004,0.008C21.627,16.039,21.626,16.036,21.624,16.033
		 M23.736,15.049c0.001,0,0.004,0.002,0.004,0.002C23.74,15.051,23.737,15.05,23.736,15.049 M23.133,14.553
		c-0.104,0.018-0.207,0.041-0.31,0.064c-0.323,0.073-0.643,0.15-0.97,0.199c-0.029,0.004-0.059,0.007-0.088,0.011
		c-0.097,0.011-0.209,0.022-0.282,0.094c-0.16,0.155-0.102,0.399-0.056,0.592c0.038,0.164,0.114,0.322,0.18,0.476
		c-0.002-0.006-0.004-0.011-0.007-0.017c0.008,0.02,0.016,0.039,0.025,0.059c0.041,0.102,0.074,0.206,0.111,0.308c0,0,0,0,0,0
		c0.006-0.128,0.011-0.256,0.002-0.385c-0.004-0.066-0.01-0.132-0.014-0.198c-0.009-0.143-0.008-0.284,0.008-0.426
		c0.004-0.023,0.009-0.046,0.015-0.069c0.053-0.002,0.105-0.001,0.159,0c0.037,0,0.075,0.001,0.112,0.001
		c0.111-0.001,0.222-0.004,0.333-0.012c0.269-0.018,0.535-0.053,0.8-0.101c-0.004,0.001-0.009,0.001-0.012,0.001
		c0.163-0.025,0.322-0.068,0.486-0.097c0.028,0.249,0.05,0.498,0.099,0.745c0.065,0.337,0.152,0.668,0.245,0.999
		c0,0,0.001,0,0.001,0c0.046-0.457,0.07-0.914,0.106-1.371c0.008-0.102,0.015-0.205,0.022-0.307
		c0.005-0.071,0.012-0.142,0.017-0.212c0.013-0.179-0.099-0.35-0.275-0.396c-0.07-0.017-0.142-0.024-0.212-0.024
		C23.462,14.486,23.294,14.525,23.133,14.553"/>
	<path fill="#9D9995" d="M17.236,16.885c-0.055,0.003-0.129,0.019-0.176,0.051c-0.113,0.077-0.195,0.183-0.271,0.295
		c-0.06,0.088-0.115,0.179-0.169,0.27c-0.097,0.161-0.191,0.324-0.294,0.481c-0.027,0.041-0.054,0.083-0.082,0.124
		c-0.044,0.065-0.065,0.146-0.064,0.224c0.001,0.107,0.056,0.185,0.118,0.265c0.046,0.059,0.112,0.103,0.171,0.147
		c0.05,0.038,0.105,0.069,0.161,0.101c0.058,0.034,0.116,0.066,0.174,0.099c0.167,0.093,0.341,0.175,0.51,0.265
		c0.098,0.053,0.202,0.099,0.294,0.161c0.059,0.047,0.113,0.098,0.169,0.147c0,0,0.001,0,0.001,0
		c-0.047-0.094-0.088-0.188-0.158-0.268c-0.033-0.037-0.068-0.072-0.104-0.107c-0.07-0.071-0.14-0.145-0.211-0.215
		c-0.078-0.078-0.16-0.154-0.24-0.23c-0.041-0.039-0.08-0.079-0.119-0.118c-0.075-0.074-0.151-0.146-0.219-0.227
		c-0.002-0.003-0.004-0.007-0.007-0.01c0.088-0.11,0.18-0.22,0.266-0.332c0.094-0.122,0.182-0.248,0.27-0.374
		c-0.003,0.003-0.006,0.008-0.009,0.012c0.015-0.021,0.031-0.042,0.045-0.064c0.059,0.052,0.119,0.103,0.181,0.152
		c0.196,0.161,0.398,0.317,0.628,0.427c0.361,0.172,0.73,0.324,1.104,0.465c0,0,0.001,0,0-0.001
		c-0.274-0.245-0.557-0.48-0.841-0.713c-0.286-0.235-0.535-0.515-0.77-0.799c-0.011-0.014-0.021-0.028-0.031-0.042
		c0.009,0.011,0.017,0.022,0.025,0.033c-0.051-0.073-0.099-0.135-0.178-0.182c-0.046-0.027-0.098-0.04-0.151-0.04
		C17.251,16.884,17.244,16.885,17.236,16.885"/>
</g>
</svg>
