<?xml version="1.0" encoding="utf-8"?>
<!-- Generator: Adobe Illustrator 15.0.0, SVG Export Plug-In . SVG Version: 6.00 Build 0)  -->
<!DOCTYPE svg PUBLIC "-//W3C//DTD SVG 1.1//EN" "http://www.w3.org/Graphics/SVG/1.1/DTD/svg11.dtd">
<svg version="1.1" id="Capa_1" xmlns="http://www.w3.org/2000/svg" xmlns:xlink="http://www.w3.org/1999/xlink" x="0px" y="0px"
	 width="44px" height="44px" viewBox="0 0 44 44" enable-background="new 0 0 44 44" xml:space="preserve">
<path opacity="0.9753" fill="#292521" d="M27.667,19.789c-0.217,0.019-0.434,0.038-0.65,0.057c-0.213,0.018-0.426,0.057-0.637,0.087
	c-0.366,0.051-0.729,0.11-1.094,0.169c-0.656,0.106-1.311,0.222-1.968,0.315c-0.38,0.054-0.759,0.108-1.138,0.164
	c-0.306,0.045-0.611,0.09-0.913,0.148c-0.368,0.072-0.737,0.144-1.104,0.22c-0.324,0.067-0.646,0.143-0.968,0.217
	c-0.377,0.087-0.753,0.174-1.13,0.263c-0.331,0.077-0.661,0.163-0.993,0.237c-0.333,0.075-0.666,0.147-0.999,0.225
	c-0.335,0.079-0.668,0.166-1.001,0.255c-0.671,0.181-1.339,0.364-2.003,0.568c-0.382,0.118-0.76,0.245-1.127,0.401
	c-0.101,0.043-0.199,0.088-0.294,0.142c-0.123,0.07-0.232,0.163-0.34,0.253c-0.082,0.068-0.152,0.149-0.219,0.233
	c-0.102,0.129-0.194,0.257-0.27,0.401c-0.192,0.368-0.284,0.767-0.344,1.173c-0.057,0.392-0.093,0.784-0.103,1.18
	c-0.01,0.363-0.016,0.728-0.019,1.091c-0.003,0.346-0.005,0.691,0.003,1.035c0.009,0.385,0.027,0.772,0.089,1.153
	c0.015,0.087,0.03,0.172,0.048,0.258c0.03,0.139,0.09,0.268,0.148,0.396c0.041,0.09,0.109,0.168,0.169,0.243
	c0.068,0.086,0.138,0.136,0.229,0.206c0.117,0.089,0.25,0.145,0.387,0.198c0.094,0.036,0.188,0.063,0.286,0.086
	c0.188,0.043,0.381,0.061,0.573,0.078c0.332,0.029,0.666,0.043,0.998,0.046c0.352,0.004,0.702,0.004,1.054,0.005
	c0.364,0.002,0.728,0.013,1.092,0.023c1.375,0.037,2.751,0.022,4.126,0.019c1.399-0.004,2.802-0.001,4.198-0.116
	c1.444-0.118,2.877-0.355,4.285-0.7c0.2-0.05,0.399-0.104,0.6-0.15c0.216-0.05,0.431-0.099,0.644-0.154
	c0.203-0.053,0.406-0.106,0.607-0.165c0.088-0.026,0.178-0.049,0.263-0.081c0.204-0.079,0.404-0.167,0.605-0.253
	c0.001,0,0-0.002,0-0.002c-0.212,0.035-0.424,0.074-0.637,0.104c-0.144,0.014-0.286,0.021-0.43,0.027
	c-0.161,0.009-0.32,0.026-0.48,0.038c-0.323,0.023-0.647,0.035-0.971,0.062c-0.7,0.059-1.4,0.103-2.102,0.135
	c-0.676,0.03-1.353,0.05-2.029,0.041c-0.342-0.004-0.685-0.002-1.027-0.013c-0.377-0.012-0.754-0.022-1.131-0.032
	c-1.385-0.037-2.77-0.025-4.155-0.037c-0.712-0.006-1.424-0.017-2.136-0.038c-0.335-0.01-0.671-0.035-1.007-0.043
	c-0.338-0.008-0.676-0.014-1.014-0.023c-0.467-0.014-0.931-0.035-1.396-0.083c-0.122-0.021-0.24-0.049-0.357-0.088
	c-0.013-0.007-0.025-0.014-0.038-0.021c-0.006-0.01-0.012-0.021-0.018-0.032c-0.043-0.132-0.072-0.266-0.096-0.403
	c-0.06-0.571-0.059-1.145-0.052-1.719c0.004-0.334,0.012-0.666,0.024-1c0.01-0.277,0.033-0.553,0.06-0.83
	c0.049-0.301,0.103-0.598,0.209-0.884c0.044-0.092,0.095-0.179,0.152-0.263c0.053-0.061,0.11-0.117,0.17-0.17
	c0.137-0.091,0.284-0.16,0.434-0.228c0.625-0.243,1.264-0.443,1.908-0.631c0.683-0.2,1.369-0.383,2.059-0.553
	c0.351-0.087,0.702-0.166,1.054-0.25c0.331-0.079,0.659-0.17,0.99-0.252c0.313-0.076,0.626-0.15,0.939-0.225
	c0.383-0.09,0.765-0.173,1.15-0.253c0.744-0.154,1.495-0.263,2.248-0.367c0.56-0.074,1.118-0.151,1.677-0.232
	c0.51-0.075,1.02-0.155,1.529-0.229c0.286-0.037,0.572-0.077,0.86-0.098c0.203-0.015,0.407-0.029,0.61-0.043
	c0.186-0.013,0.373-0.007,0.559-0.01c0.308-0.005,0.617,0.004,0.924,0.019c0.365,0.017,0.729,0.034,1.092,0.076
	c0.228,0.035,0.45,0.086,0.666,0.165c0.062,0.03,0.121,0.062,0.179,0.1c0.015,0.014,0.028,0.028,0.043,0.042
	c0.009,0.015,0.018,0.03,0.025,0.045c0.018,0.057,0.032,0.114,0.043,0.172c0.033,0.375,0.029,0.756,0.039,1.132
	c0.009,0.353,0.016,0.706,0.021,1.06c0.012,0.674,0,1.346-0.032,2.02c-0.032,0.695-0.051,1.39-0.071,2.085
	c-0.021,0.749-0.049,1.498-0.07,2.247c-0.009,0.305-0.017,0.609-0.023,0.915c0,0.001,0.001,0.001,0.002,0
	c0.219-0.843,0.429-1.688,0.613-2.539c0.146-0.667,0.254-1.342,0.363-2.016c0.114-0.704,0.231-1.409,0.295-2.121
	c0.062-0.711,0.095-1.424,0.123-2.138c0.007-0.186,0.015-0.372,0.019-0.558c0.002-0.112-0.002-0.22-0.017-0.331
	c-0.013-0.1-0.025-0.194-0.048-0.291c-0.022-0.092-0.066-0.183-0.103-0.268c-0.121-0.282-0.354-0.493-0.608-0.654
	c-0.128-0.081-0.272-0.133-0.412-0.19c-0.103-0.042-0.21-0.073-0.317-0.101c-0.11-0.028-0.221-0.048-0.333-0.065
	c-0.153-0.024-0.312-0.049-0.467-0.06c-0.176-0.014-0.352-0.033-0.527-0.039c-0.375-0.012-0.748-0.021-1.123-0.021
	c-0.022,0-0.044,0-0.065,0C28.251,19.757,27.957,19.764,27.667,19.789"/>
<path opacity="0.9753" fill="#292521" d="M14.36,20.873c-0.013,0.01-0.025,0.02-0.039,0.029
	C14.335,20.893,14.348,20.883,14.36,20.873 M22.632,12.168c-0.104,0.013-0.198,0.024-0.299,0.05
	c-0.094,0.025-0.192,0.073-0.279,0.11c-0.102,0.044-0.198,0.096-0.293,0.154c-0.241,0.151-0.463,0.334-0.679,0.519
	c-0.292,0.251-0.562,0.531-0.833,0.803c-0.465,0.464-0.913,0.944-1.368,1.417c-0.484,0.502-0.974,1-1.503,1.455
	c-0.521,0.448-1.063,0.875-1.569,1.34c-0.54,0.497-1.085,0.988-1.626,1.484c-0.237,0.217-0.485,0.422-0.719,0.643
	c-0.143,0.135-0.285,0.27-0.428,0.405c-0.138,0.132-0.266,0.275-0.398,0.413c-0.482,0.503-0.911,1.057-1.342,1.604
	c-0.208,0.265-0.426,0.522-0.64,0.782c-0.217,0.265-0.442,0.521-0.659,0.784c-0.203,0.247-0.391,0.502-0.44,0.826
	c-0.045,0.293,0,0.584,0.11,0.856c0.066,0.161,0.148,0.316,0.225,0.474c0.09,0.187,0.182,0.373,0.274,0.559c0,0.001,0.002,0,0.001,0
	c-0.046-0.205-0.094-0.41-0.141-0.615c-0.043-0.187-0.093-0.371-0.122-0.56c-0.014-0.127-0.012-0.251,0.002-0.377
	c0.018-0.096,0.044-0.188,0.08-0.278c0.033-0.066,0.071-0.126,0.113-0.187c0.207-0.242,0.454-0.444,0.686-0.66
	c0.247-0.231,0.49-0.466,0.735-0.699c0.248-0.235,0.489-0.476,0.734-0.715c0.275-0.27,0.551-0.536,0.832-0.8
	c0.43-0.404,0.896-0.77,1.353-1.142c0.264-0.204,0.528-0.406,0.784-0.619c0.3-0.248,0.595-0.5,0.886-0.759
	c0.23-0.205,0.452-0.42,0.687-0.62c0.279-0.238,0.558-0.475,0.842-0.707c0.116-0.094,0.231-0.188,0.345-0.285
	c0.144-0.122,0.293-0.24,0.432-0.367c0.27-0.245,0.537-0.49,0.799-0.743c0.23-0.221,0.454-0.449,0.677-0.677
	c0.265-0.271,0.532-0.538,0.802-0.805c0.212-0.21,0.431-0.416,0.649-0.621c0.257-0.243,0.516-0.486,0.793-0.708
	c0.153-0.115,0.314-0.223,0.485-0.308c0.037-0.013,0.073-0.023,0.11-0.033c0.013,0,0.025,0,0.039,0
	c0.057,0.014,0.112,0.032,0.168,0.052c0.213,0.094,0.425,0.189,0.646,0.258c0.209,0.065,0.431,0.086,0.648,0.11
	c0.096,0.018,0.189,0.042,0.282,0.073c0.121,0.062,0.234,0.136,0.35,0.21c0.136,0.087,0.274,0.17,0.412,0.254
	c0.295,0.182,0.584,0.373,0.872,0.566c0.572,0.384,1.142,0.77,1.715,1.152c0.303,0.202,0.598,0.415,0.891,0.631
	c0.265,0.195,0.522,0.399,0.791,0.587c0.589,0.411,1.193,0.797,1.777,1.214c0.089,0.063,0.176,0.127,0.264,0.192
	c0.108,0.089,0.216,0.178,0.319,0.273c0.107,0.101,0.208,0.206,0.302,0.318c0.014,0.019,0.025,0.039,0.036,0.058
	c0.01,0.034,0.018,0.067,0.023,0.101c0.026,0.312,0.032,0.625,0.041,0.937c0.011,0.34,0.02,0.68,0.031,1.02
	c0.021,0.689,0.009,1.377-0.022,2.067c-0.031,0.675-0.086,1.349-0.108,2.024c-0.022,0.683-0.05,1.363-0.087,2.045
	c-0.04,0.734-0.085,1.47-0.123,2.203c0,0.002,0.002,0.002,0.002,0.001c0.234-0.813,0.459-1.629,0.657-2.452
	c0.084-0.346,0.154-0.696,0.225-1.045c0.062-0.312,0.107-0.625,0.166-0.937c0.067-0.362,0.139-0.724,0.208-1.085
	c0.062-0.325,0.109-0.652,0.159-0.979c0.111-0.72,0.165-1.45,0.2-2.177c0.017-0.339,0.026-0.678,0.04-1.017
	c0.02-0.503,0.068-1.077-0.244-1.505c-0.135-0.184-0.287-0.363-0.459-0.515c-0.106-0.095-0.212-0.185-0.325-0.272
	c-0.078-0.061-0.156-0.121-0.234-0.181c-0.117-0.09-0.242-0.171-0.364-0.253c-0.146-0.099-0.292-0.198-0.439-0.294
	c-0.59-0.382-1.189-0.748-1.756-1.164c-0.274-0.202-0.548-0.406-0.828-0.601c-0.303-0.211-0.611-0.415-0.919-0.619
	c-0.572-0.381-1.134-0.777-1.701-1.167c-0.273-0.188-0.553-0.365-0.822-0.559c-0.133-0.096-0.256-0.199-0.4-0.279
	c-0.184-0.102-0.388-0.162-0.595-0.196c-0.135-0.021-0.27-0.035-0.405-0.05c-0.15-0.03-0.293-0.071-0.437-0.125
	c-0.044-0.02-0.088-0.041-0.133-0.061c-0.259-0.121-0.529-0.219-0.813-0.219C22.729,12.16,22.682,12.163,22.632,12.168"/>
<path opacity="0.9753" fill="#292521" d="M23.421,25.204c0.005,0.007,0.011,0.014,0.016,0.021
	C23.432,25.218,23.426,25.211,23.421,25.204L23.421,25.204 M23.425,25.162c-0.001,0.003-0.001,0.005-0.002,0.008
	C23.424,25.167,23.424,25.165,23.425,25.162 M25.578,24.942c-0.001,0.002-0.002,0.005-0.003,0.007
	C25.575,24.947,25.577,24.944,25.578,24.942 M25.599,24.852c-0.001,0.014-0.003,0.027-0.005,0.041
	C25.596,24.879,25.597,24.865,25.599,24.852 M24.184,24.275c0.004-0.004,0.009-0.008,0.014-0.014
	c0.308,0.076,0.613,0.155,0.908,0.271c0.126,0.056,0.246,0.123,0.359,0.202c0.026,0.022,0.052,0.046,0.075,0.072
	c0.012,0.019,0.021,0.037,0.031,0.057c0.005,0.017,0.011,0.034,0.015,0.052c-0.021,0.038-0.042,0.075-0.066,0.11
	c-0.061,0.07-0.128,0.133-0.198,0.192c-0.062,0.043-0.125,0.079-0.191,0.111c-0.102,0.038-0.204,0.064-0.311,0.083
	c-0.266,0.027-0.53,0.021-0.797-0.009c-0.154-0.025-0.309-0.06-0.456-0.113c-0.04-0.021-0.077-0.043-0.114-0.067
	c-0.01-0.009-0.02-0.019-0.029-0.027c0.006-0.023,0.012-0.046,0.019-0.069c0.042-0.081,0.095-0.155,0.147-0.229
	C23.769,24.675,23.975,24.472,24.184,24.275 M24.894,23.587c-0.344,0.161-0.69,0.323-1.025,0.506
	c-0.092,0.006-0.186,0.012-0.278,0.016c-0.001,0-0.001,0.002,0,0.002c0.056,0.016,0.111,0.03,0.167,0.044
	c-0.005,0.003-0.01,0.006-0.015,0.009c-0.185,0.104-0.358,0.225-0.525,0.355c-0.17,0.135-0.325,0.302-0.4,0.509
	c-0.033,0.092-0.053,0.189-0.044,0.287c0.013,0.141,0.072,0.253,0.161,0.36c0.136,0.168,0.314,0.276,0.513,0.356
	c0.396,0.162,0.828,0.218,1.255,0.197c0.237-0.011,0.474-0.072,0.689-0.172c0.188-0.089,0.353-0.213,0.493-0.366
	c0.068-0.074,0.13-0.157,0.188-0.239c0.066-0.095,0.11-0.214,0.145-0.324c0.069-0.224-0.025-0.456-0.162-0.63
	c-0.125-0.161-0.305-0.243-0.493-0.312c-0.193-0.07-0.396-0.098-0.603-0.114c-0.184-0.015-0.367-0.016-0.551-0.009
	c0.163-0.157,0.325-0.314,0.485-0.474C24.895,23.588,24.894,23.587,24.894,23.587L24.894,23.587"/>
<path opacity="0.9753" fill="#292521" d="M18.972,26.191c-0.001,0.007-0.001,0.014-0.002,0.021
	C18.971,26.205,18.971,26.198,18.972,26.191 M18.101,25.115c0.098,0.017,0.192,0.041,0.286,0.075
	c0.082,0.038,0.161,0.08,0.236,0.132c0.062,0.054,0.116,0.111,0.167,0.175c0.075,0.103,0.145,0.209,0.21,0.316
	c-0.005,0.121-0.012,0.243-0.026,0.364c-0.017,0.102-0.038,0.199-0.074,0.296c-0.029,0.062-0.063,0.12-0.103,0.176
	c-0.027,0.03-0.055,0.058-0.086,0.084c-0.066,0.049-0.135,0.089-0.21,0.125c-0.049,0.018-0.099,0.032-0.15,0.043
	c-0.071,0.006-0.141,0.006-0.212,0.001c-0.111-0.021-0.218-0.055-0.323-0.096c-0.085-0.04-0.165-0.086-0.241-0.14
	c-0.048-0.041-0.093-0.085-0.135-0.132c-0.039-0.056-0.073-0.113-0.103-0.174c-0.016-0.051-0.029-0.101-0.039-0.153
	c-0.005-0.079-0.005-0.156,0-0.236c0.028-0.158,0.069-0.311,0.127-0.461c0.031-0.069,0.066-0.137,0.108-0.2
	c0.035-0.042,0.073-0.08,0.114-0.117c0.023-0.015,0.047-0.028,0.072-0.041c0.047-0.017,0.096-0.03,0.146-0.041
	C17.944,25.104,18.022,25.107,18.101,25.115 M17.595,24.377c-0.12,0.021-0.226,0.062-0.337,0.112
	c-0.109,0.049-0.205,0.136-0.292,0.215c-0.09,0.084-0.165,0.188-0.229,0.292c-0.068,0.107-0.119,0.233-0.165,0.352
	c-0.05,0.13-0.086,0.263-0.108,0.401c-0.043,0.26-0.035,0.521,0.046,0.773c0.076,0.237,0.231,0.457,0.42,0.618
	c0.184,0.158,0.401,0.266,0.633,0.331c0.121,0.034,0.247,0.049,0.372,0.063c0.127,0.016,0.252-0.003,0.378-0.021
	c0.236-0.035,0.442-0.169,0.615-0.327c0.158-0.146,0.259-0.333,0.307-0.541c0.029-0.123,0.031-0.251,0.019-0.378
	c0.137,0.262,0.28,0.519,0.424,0.775c0.001,0,0.002,0,0.002-0.001c-0.042-0.23-0.086-0.459-0.132-0.688
	c-0.044-0.225-0.086-0.448-0.149-0.667c-0.06-0.214-0.144-0.429-0.253-0.621c-0.114-0.198-0.294-0.344-0.482-0.467
	c-0.205-0.133-0.452-0.204-0.692-0.234c-0.048-0.006-0.096-0.009-0.143-0.009C17.751,24.355,17.673,24.363,17.595,24.377"/>
<path opacity="0.9753" fill="#292521" d="M12.979,26.2c0.003,0.009,0.007,0.017,0.01,0.025C12.985,26.217,12.982,26.209,12.979,26.2
	 M12.979,26.188c0.008,0.012,0.017,0.022,0.025,0.033C12.996,26.211,12.987,26.199,12.979,26.188 M12.966,26.187
	c0.002,0.012,0.003,0.022,0.004,0.034C12.969,26.209,12.967,26.198,12.966,26.187C12.966,26.187,12.966,26.187,12.966,26.187
	L12.966,26.187 M13.646,25.98c0.104,0.018,0.206,0.045,0.306,0.082c0.047,0.021,0.092,0.045,0.137,0.069
	c-0.003,0.002-0.006,0.003-0.009,0.005c-0.171,0.067-0.344,0.12-0.525,0.15c-0.099,0.009-0.196,0.009-0.295,0
	c-0.062-0.01-0.122-0.024-0.181-0.045c-0.033-0.017-0.063-0.034-0.093-0.055c-0.003-0.003-0.008-0.007-0.011-0.01
	c0.015-0.018,0.031-0.034,0.048-0.049c0.051-0.036,0.103-0.068,0.16-0.097c0.067-0.022,0.135-0.041,0.205-0.054
	C13.474,25.973,13.56,25.974,13.646,25.98 M12.589,25.592c-0.137,0.11-0.253,0.269-0.289,0.443c-0.044,0.214,0.044,0.43,0.191,0.583
	c0.112,0.118,0.287,0.188,0.443,0.222c0.199,0.043,0.404,0.021,0.6-0.019c0.166-0.034,0.325-0.111,0.472-0.193
	c0.133-0.072,0.255-0.165,0.372-0.263c0.007,0.009,0.014,0.018,0.022,0.025c0.096,0.133,0.176,0.275,0.242,0.426
	c0.062,0.157,0.112,0.319,0.166,0.479c0.059,0.177,0.119,0.353,0.179,0.528c0.001,0.001,0.002,0.001,0.002,0
	c0.009-0.336,0.019-0.676-0.009-1.011c-0.014-0.164-0.049-0.325-0.1-0.48c-0.036-0.111-0.084-0.213-0.144-0.31
	c0.15-0.159,0.294-0.324,0.448-0.479c0.001-0.001,0-0.002-0.001-0.001c-0.192,0.098-0.377,0.207-0.564,0.313
	c-0.002-0.003-0.005-0.007-0.009-0.011c-0.108-0.134-0.26-0.243-0.406-0.33c-0.167-0.1-0.361-0.163-0.551-0.19
	c-0.077-0.011-0.153-0.018-0.23-0.018C13.122,25.308,12.829,25.397,12.589,25.592"/>
</svg>
