<?xml version="1.0" encoding="utf-8"?>
<!-- Generator: Adobe Illustrator 15.0.0, SVG Export Plug-In . SVG Version: 6.00 Build 0)  -->
<!DOCTYPE svg PUBLIC "-//W3C//DTD SVG 1.1//EN" "http://www.w3.org/Graphics/SVG/1.1/DTD/svg11.dtd">
<svg version="1.1" id="Capa_1" xmlns="http://www.w3.org/2000/svg" xmlns:xlink="http://www.w3.org/1999/xlink" x="0px" y="0px"
	 width="44px" height="44px" viewBox="0 0 44 44" enable-background="new 0 0 44 44" xml:space="preserve">
<g>
	<path opacity="0.9753" fill="#292521" d="M30.973,20.972c0.317,0.017,0.632,0.05,0.946,0.09c0.326,0.058,0.646,0.137,0.956,0.252
		c0.156,0.076,0.302,0.165,0.443,0.265c0.236,0.196,0.447,0.41,0.642,0.646c0.1,0.14,0.187,0.286,0.262,0.44
		c0.052,0.145,0.091,0.291,0.12,0.442c0.031,0.354,0.019,0.705-0.021,1.058c-0.056,0.348-0.142,0.685-0.268,1.014
		c-0.13,0.28-0.282,0.547-0.461,0.799c-0.229,0.275-0.486,0.521-0.764,0.748c-0.308,0.222-0.635,0.402-0.981,0.557
		c-0.494,0.198-1.005,0.36-1.518,0.503c-0.743,0.206-1.492,0.421-2.256,0.537c-0.639,0.076-1.282,0.101-1.925,0.138
		c-0.488,0.027-0.979,0.051-1.468,0.077c-0.479,0.026-0.962,0.035-1.438,0.09c-0.463,0.053-0.924,0.105-1.379,0.207
		c-0.494,0.109-0.967,0.289-1.423,0.505c-0.37,0.175-0.739,0.353-1.105,0.534c-0.384-0.083-0.768-0.165-1.151-0.245
		c-0.168-0.036-0.338-0.066-0.506-0.105c-0.423-0.098-0.857-0.181-1.262-0.34c-0.126-0.059-0.245-0.126-0.358-0.206
		c-0.089-0.076-0.169-0.157-0.246-0.246c-0.037-0.052-0.071-0.104-0.103-0.159c-0.008-0.024-0.014-0.049-0.02-0.073
		c-0.005-0.099,0-0.196,0.009-0.294c0.048-0.292,0.119-0.576,0.225-0.853c0.05-0.104,0.105-0.202,0.17-0.297
		c0.178-0.212,0.379-0.399,0.594-0.574c0.227-0.166,0.466-0.301,0.721-0.416c0.584-0.228,1.199-0.353,1.811-0.479
		c0.239-0.05,0.475-0.103,0.71-0.169c0.229-0.064,0.453-0.147,0.676-0.231c0.545-0.204,1.075-0.455,1.601-0.702
		c0.46-0.218,0.909-0.457,1.35-0.71c0.723-0.412,1.447-0.821,2.168-1.236c0.357-0.205,0.709-0.418,1.066-0.622
		c0.321-0.183,0.661-0.334,0.997-0.488c0.121-0.048,0.243-0.097,0.364-0.145c0.358-0.144,0.732-0.245,1.113-0.308
		C29.834,20.915,30.402,20.943,30.973,20.972 M28.359,19.185c-0.418,0.1-0.813,0.269-1.211,0.429
		c-0.53,0.214-1.045,0.474-1.539,0.758c-0.427,0.245-0.848,0.501-1.273,0.749c-0.443,0.258-0.889,0.512-1.335,0.767
		c-0.874,0.5-1.752,0.992-2.668,1.412c-0.094,0.043-0.188,0.085-0.283,0.126c-0.201,0.08-0.401,0.16-0.606,0.229
		c-0.231,0.078-0.464,0.146-0.698,0.215c-0.668,0.198-1.333,0.42-1.95,0.749c-0.318,0.169-0.615,0.382-0.884,0.62
		c-0.272,0.239-0.501,0.522-0.72,0.81c-0.302,0.394-0.468,0.863-0.536,1.352c-0.02,0.144-0.042,0.287-0.047,0.433
		c-0.002,0.059-0.004,0.117-0.006,0.176c-0.006,0.18,0.017,0.354,0.042,0.532c0.046,0.332,0.239,0.603,0.482,0.822
		c0.271,0.245,0.602,0.411,0.954,0.504c0.31,0.083,0.635,0.092,0.955,0.106c0.188,0.008,0.377,0.009,0.565,0.012
		c0.51,0.009,1.021-0.001,1.533-0.01c-0.048,0.023-0.096,0.048-0.145,0.072c-0.001,0,0,0.002,0.001,0.002
		c0.11-0.026,0.22-0.052,0.33-0.078c0.143-0.002,0.285-0.005,0.428-0.006c0.001,0,0.001-0.002,0-0.003
		c-0.068-0.015-0.136-0.029-0.204-0.043c0.208-0.049,0.415-0.097,0.623-0.145c0.395-0.091,0.787-0.183,1.188-0.242
		c0.81-0.098,1.629-0.041,2.438,0.03c0.511,0.046,1.021,0.096,1.531,0.138c0.482,0.041,0.966,0.079,1.448,0.104
		c0.286,0.016,0.572,0.036,0.858,0.041c0.642,0.012,1.274-0.05,1.907-0.157c1.245-0.212,2.484-0.471,3.638-1.003
		c0.291-0.134,0.558-0.306,0.812-0.499c0.336-0.256,0.649-0.528,0.929-0.847c0.544-0.622,0.937-1.374,1.154-2.17
		c0.106-0.39,0.156-0.796,0.196-1.196c0.043-0.423,0.016-0.838-0.044-1.258c-0.053-0.366-0.178-0.697-0.332-1.033
		c-0.161-0.354-0.417-0.662-0.663-0.958c-0.199-0.242-0.436-0.452-0.683-0.645c-0.164-0.128-0.327-0.253-0.504-0.362
		c-0.209-0.128-0.444-0.215-0.672-0.305c-0.519-0.206-1.077-0.264-1.627-0.333c-0.495-0.063-1-0.074-1.499-0.082
		c-0.05-0.001-0.1-0.001-0.15-0.001C29.51,18.995,28.93,19.049,28.359,19.185"/>
	<path opacity="0.9753" fill="#292521" d="M17.213,17.461c-0.596,0.005-1.192,0.098-1.775,0.214
		c-0.466,0.093-0.929,0.225-1.381,0.372c-1.054,0.344-2.101,0.727-3.07,1.271c-0.499,0.28-0.961,0.618-1.408,0.975
		c-0.408,0.325-0.762,0.697-1.094,1.099c-0.363,0.438-0.677,0.904-0.962,1.395c-0.155,0.266-0.276,0.545-0.394,0.828
		c-0.042,0.102-0.069,0.21-0.098,0.316c-0.018,0.07-0.028,0.145-0.04,0.216c-0.02,0.122-0.036,0.245-0.044,0.368
		c-0.009,0.138,0.024,0.281,0.046,0.416c0.029,0.177,0.117,0.348,0.197,0.506c0.085,0.169,0.219,0.319,0.345,0.458
		c0.129,0.141,0.29,0.251,0.439,0.366c0.092,0.071,0.189,0.134,0.288,0.193c0.216,0.131,0.434,0.267,0.665,0.368
		c0.128,0.057,0.255,0.112,0.383,0.169c0.167,0.072,0.337,0.13,0.508,0.19c0.208,0.073,0.424,0.134,0.638,0.188
		c0.522,0.133,1.047,0.253,1.574,0.366c0.457,0.098,0.917,0.172,1.374,0.266c0.23,0.048,0.463,0.09,0.692,0.146
		c0.568,0.139,1.126,0.313,1.689,0.469c0.001,0,0.002-0.002,0.001-0.002c-0.563-0.298-1.115-0.632-1.701-0.883
		c-0.275-0.118-0.549-0.236-0.827-0.347c-0.485-0.194-0.968-0.392-1.45-0.593c-0.447-0.192-0.891-0.387-1.328-0.601
		c-0.194-0.095-0.392-0.194-0.573-0.312c-0.195-0.127-0.383-0.258-0.57-0.395c-0.211-0.178-0.419-0.354-0.601-0.562
		c-0.036-0.053-0.068-0.106-0.099-0.163c-0.012-0.037-0.023-0.075-0.033-0.113c0-0.02,0-0.039,0-0.059
		c0.028-0.133,0.067-0.262,0.114-0.391c0.201-0.404,0.459-0.771,0.729-1.132c0.185-0.216,0.366-0.438,0.57-0.635
		c0.117-0.113,0.233-0.226,0.35-0.339c0.099-0.096,0.209-0.182,0.316-0.271c0.153-0.114,0.306-0.226,0.464-0.334
		c0.209-0.144,0.424-0.278,0.638-0.416c0.396-0.255,0.829-0.449,1.259-0.639c0.301-0.121,0.602-0.234,0.908-0.342
		c0.312-0.11,0.63-0.206,0.947-0.302c0.308-0.093,0.618-0.189,0.932-0.263c0.179-0.042,0.359-0.097,0.541-0.128
		c0.141-0.023,0.282-0.048,0.423-0.073c0.468-0.046,0.935-0.083,1.405-0.103c0.5-0.021,1-0.037,1.501-0.056
		c0.484-0.019,0.97-0.033,1.455-0.032c0.276,0.001,0.549,0.007,0.825,0.018c0.261,0.01,0.521,0.035,0.783,0.056
		c0.237,0.019,0.474,0.055,0.711,0.083c0.238,0.027,0.478,0.052,0.717,0.077c0.238,0.025,0.478,0.041,0.717,0.056
		c0.245,0.016,0.491,0.038,0.738,0.045c0.507,0.015,1.015,0.026,1.522,0.013c0.573-0.016,1.146-0.043,1.719-0.075
		c0.293-0.016,0.585-0.034,0.877-0.053c0.001,0,0.002-0.001,0.001-0.002c-1.134-0.195-2.273-0.361-3.4-0.591
		c-0.992-0.203-1.977-0.431-2.957-0.681c-0.523-0.133-1.048-0.239-1.581-0.323c-0.514-0.081-1.036-0.133-1.555-0.17
		c-0.955-0.069-1.91-0.124-2.867-0.124C17.344,17.46,17.279,17.461,17.213,17.461"/>
	<path opacity="0.9753" fill="#292521" d="M30.8,23.062c0.002,0,0.003,0,0.005,0.001C30.803,23.062,30.802,23.062,30.8,23.062
		 M29.777,22.65c-0.308,0.051-0.607,0.212-0.868,0.377c-0.17,0.106-0.333,0.228-0.497,0.344c-0.187,0.133-0.371,0.278-0.567,0.397
		c-0.392,0.239-0.779,0.475-1.198,0.662c-0.55,0.219-1.121,0.367-1.688,0.532c-0.477,0.139-0.942,0.306-1.405,0.485
		c-0.45,0.175-0.895,0.369-1.349,0.537c-0.471,0.175-0.95,0.321-1.429,0.471c-0.138,0.043-0.276,0.083-0.412,0.13
		c-0.354,0.123-0.68,0.307-1.01,0.481c-0.001,0,0,0.002,0.001,0.002c0.293-0.054,0.584-0.122,0.88-0.164
		c0.308-0.035,0.619-0.048,0.928-0.072c0.238-0.019,0.475-0.044,0.712-0.074c0.508-0.062,1.005-0.172,1.503-0.289
		c0.472-0.11,0.939-0.233,1.411-0.342c0.484-0.11,0.981-0.21,1.448-0.383c0.396-0.146,0.786-0.304,1.151-0.515
		c0.356-0.206,0.676-0.467,0.995-0.725c0.434-0.35,0.784-0.793,1.216-1.146c0.129-0.096,0.265-0.178,0.41-0.244
		c0.087-0.029,0.172-0.05,0.261-0.063c0.182-0.017,0.358-0.012,0.541,0.01c0.271,0.038,0.542,0.079,0.812,0.119
		c0.001,0,0.002-0.002,0.001-0.002c-0.28-0.142-0.562-0.292-0.854-0.408c-0.151-0.06-0.302-0.103-0.462-0.13
		c-0.077-0.013-0.152-0.019-0.228-0.019C29.98,22.623,29.88,22.633,29.777,22.65"/>
</g>
</svg>
