<?xml version="1.0" encoding="utf-8"?>
<!-- Generator: Adobe Illustrator 15.0.0, SVG Export Plug-In . SVG Version: 6.00 Build 0)  -->
<!DOCTYPE svg PUBLIC "-//W3C//DTD SVG 1.1//EN" "http://www.w3.org/Graphics/SVG/1.1/DTD/svg11.dtd">
<svg version="1.1" id="Capa_1" xmlns="http://www.w3.org/2000/svg" xmlns:xlink="http://www.w3.org/1999/xlink" x="0px" y="0px"
	 width="45px" height="45px" viewBox="-0.5 -0.5 45 45" enable-background="new -0.5 -0.5 45 45" xml:space="preserve">
<g>
	<path fill="#FFFFFF" d="M17.529,16.833c-0.725,0-1.45,0.023-2.175,0.047c-0.219,0.007-0.436,0.014-0.654,0.033
		c-0.494,0.042-0.987,0.088-1.48,0.136c-0.288,0.028-0.574,0.056-0.86,0.098c-0.479,0.069-0.956,0.142-1.433,0.216
		c-0.622,0.097-1.242,0.209-1.858,0.336c-0.223,0.046-0.446,0.092-0.669,0.139c0.001,0.052,0.001,0.104,0.002,0.156
		c0.504-0.01,1.009-0.017,1.514-0.017c0.1,0,0.2,0,0.3,0.001c0.374,0.002,0.747,0.007,1.12,0.019
		c0.304,0.009,0.607,0.027,0.911,0.042c0.358,0.017,0.716,0.033,1.076,0.042c0.368,0.009,0.736,0.014,1.104,0.018
		c0.521,0.006,1.041,0.006,1.561,0.006c0.161,0,0.322,0,0.483,0c1.399,0.001,2.798,0.001,4.197,0.001c1.396,0,2.792,0,4.188,0
		c1.952,0,3.903,0,5.854,0c0.058,0,0.113,0.011,0.163,0.032c0.038,0,0.076,0,0.114,0c1.211,0.003,2.423-0.012,3.635-0.035
		c0.001-0.007,0.002-0.014,0.004-0.022c0.027-0.153,0.054-0.306,0.08-0.46c-1.342-0.174-2.687-0.321-4.031-0.46
		c-0.613-0.063-1.23-0.095-1.846-0.136c-0.701-0.046-1.405-0.099-2.109-0.122c-1.473-0.048-2.946-0.054-4.419-0.06
		c-1.58-0.006-3.159-0.008-4.739-0.01C17.552,16.833,17.541,16.833,17.529,16.833"/>
	<path fill="#FFFFFF" d="M19.88,11.659c-0.521,0.113-1.017,0.302-1.505,0.511c-0.451,0.192-0.874,0.427-1.285,0.693
		c-0.153,0.099-0.301,0.21-0.45,0.316c-0.108,0.076-0.215,0.152-0.321,0.231c-0.308,0.23-0.616,0.462-0.922,0.695
		c-0.277,0.209-0.561,0.414-0.826,0.638c-0.274,0.232-0.542,0.468-0.808,0.709c-0.246,0.225-0.465,0.473-0.685,0.723
		c-0.233,0.264-0.445,0.553-0.638,0.847c-0.19,0.29-0.359,0.589-0.515,0.898c-0.017,0.033-0.033,0.066-0.049,0.1
		c0.124,0.006,0.248,0.012,0.372,0.019c0.055,0.002,0.11,0.005,0.165,0.007c0.205-0.247,0.416-0.489,0.649-0.708
		c0.17-0.162,0.341-0.319,0.519-0.471c0.136-0.117,0.276-0.226,0.416-0.338c0.274-0.192,0.549-0.379,0.829-0.563
		c0.279-0.184,0.569-0.351,0.86-0.517c0.57-0.326,1.136-0.66,1.709-0.98c0.392-0.219,0.782-0.434,1.192-0.616
		c0.647-0.263,1.324-0.465,2.015-0.572c0.591-0.065,1.186-0.059,1.779-0.042c0.286,0.008,0.571,0.011,0.857,0.022
		c0.675,0.027,1.352,0.051,2.022,0.132c0.664,0.097,1.316,0.26,1.938,0.511c0.54,0.238,1.071,0.528,1.545,0.881
		c0.338,0.271,0.641,0.578,0.91,0.917c0.396,0.526,0.735,1.093,1.055,1.67c0.178,0.32,0.354,0.642,0.529,0.963
		c0.079-0.001,0.158-0.003,0.236-0.004c-0.052-0.194-0.104-0.388-0.16-0.582c-0.132-0.47-0.264-0.941-0.429-1.401
		c-0.167-0.466-0.364-0.929-0.607-1.36c-0.242-0.427-0.556-0.826-0.906-1.169c-0.159-0.157-0.334-0.298-0.509-0.437
		c-0.223-0.174-0.448-0.343-0.685-0.498c-0.434-0.284-0.901-0.501-1.383-0.692c-0.446-0.177-0.913-0.301-1.384-0.394
		c-0.29-0.057-0.582-0.094-0.874-0.131c-0.356-0.044-0.709-0.084-1.066-0.11c-0.363-0.027-0.726-0.045-1.09-0.057
		c-0.213-0.007-0.428-0.012-0.641-0.012C21.115,11.486,20.494,11.525,19.88,11.659"/>
	<path fill="#FFFFFF" d="M11.504,19.364c-0.018,0.153-0.033,0.306-0.053,0.459c0,0,0.001,0,0.002,0
		c0.102-0.253,0.193-0.509,0.297-0.761c0.026-0.061,0.053-0.121,0.082-0.18c-0.085-0.003-0.172-0.007-0.258-0.011
		C11.543,19.035,11.523,19.199,11.504,19.364"/>
	<path fill="#FFFFFF" d="M23.604,11.799c-0.009,0.006-0.018,0.013-0.025,0.02C23.586,11.812,23.595,11.806,23.604,11.799
		 M23.871,9.737c0.137,0.023,0.271,0.056,0.403,0.103c0.052,0.027,0.102,0.056,0.149,0.089c0.022,0.02,0.045,0.041,0.065,0.063
		c0.015,0.023,0.028,0.047,0.041,0.072c0.013,0.036,0.023,0.073,0.031,0.111c0.006,0.078,0.004,0.154-0.002,0.232
		c-0.028,0.157-0.071,0.31-0.128,0.458c-0.057,0.12-0.124,0.23-0.201,0.337c-0.191,0.236-0.424,0.438-0.663,0.625
		c-0.277,0.213-0.559,0.42-0.838,0.631c-0.104-0.165-0.236-0.317-0.376-0.449c-0.169-0.157-0.357-0.289-0.542-0.428
		c-0.143-0.118-0.275-0.241-0.393-0.382c-0.022-0.033-0.042-0.065-0.061-0.1c-0.01-0.028-0.017-0.058-0.023-0.086
		c0-0.003,0-0.006,0-0.009c0.011-0.052,0.026-0.103,0.043-0.153c0.042-0.087,0.09-0.171,0.145-0.252
		c0.083-0.097,0.175-0.184,0.274-0.266c0.201-0.145,0.417-0.265,0.642-0.367c0.25-0.1,0.507-0.183,0.774-0.229
		C23.431,9.716,23.651,9.715,23.871,9.737 M22.865,8.548c-0.219,0.035-0.427,0.102-0.632,0.186c-0.262,0.108-0.51,0.232-0.744,0.393
		c-0.205,0.141-0.4,0.302-0.569,0.485c-0.09,0.097-0.17,0.205-0.248,0.312c-0.089,0.124-0.149,0.266-0.207,0.406
		c-0.038,0.093-0.071,0.185-0.092,0.284c-0.028,0.129-0.047,0.266-0.034,0.398c0.029,0.297,0.167,0.56,0.383,0.765
		c0.27,0.256,0.601,0.407,0.939,0.546c0.228,0.099,0.447,0.211,0.648,0.358c0.111,0.089,0.21,0.186,0.3,0.297
		c0.212,0.285,0.364,0.607,0.554,0.907c0,0,0.002,0,0.001,0c-0.109-0.454-0.153-0.931-0.386-1.345
		c-0.004-0.006-0.008-0.013-0.012-0.02c0.389-0.123,0.778-0.246,1.153-0.404c0.423-0.177,0.833-0.407,1.122-0.771
		c0.158-0.2,0.277-0.42,0.369-0.658c0.089-0.229,0.144-0.49,0.113-0.735c-0.021-0.169-0.057-0.305-0.124-0.461
		c-0.054-0.124-0.133-0.223-0.218-0.327c-0.085-0.104-0.198-0.181-0.304-0.262c-0.121-0.093-0.274-0.153-0.416-0.209
		c-0.333-0.131-0.689-0.189-1.046-0.189C23.232,8.504,23.047,8.52,22.865,8.548"/>
	<path fill="#FFFFFF" d="M31.389,19.696L31.389,19.696c-0.002,0.005-0.005,0.011-0.007,0.017
		C31.384,19.708,31.386,19.702,31.389,19.696 M31.416,19.652c-0.002,0.001-0.003,0.002-0.004,0.003
		C31.413,19.654,31.414,19.653,31.416,19.652 M12.397,19.183c-0.378,0.041-0.756,0.097-1.134,0.143
		c-0.342,0.041-0.686,0.077-1.027,0.125c-0.321,0.046-0.646,0.086-0.964,0.153c-0.156,0.033-0.312,0.069-0.467,0.108
		c-0.078,0.021-0.157,0.041-0.235,0.062c-0.061,0.017-0.113,0.06-0.163,0.099c0,0.028,0,0.057,0,0.085
		c0.024-0.012,0.048-0.024,0.073-0.035c0.037-0.014,0.071-0.026,0.109-0.033c0.608-0.023,1.213,0.008,1.817,0.066
		c0.334,0.033,0.668,0.067,1.003,0.099c0.35,0.034,0.701,0.053,1.049,0.092c0.018,0.003,0.036,0.006,0.054,0.01
		c-0.004,0.131-0.018,0.264-0.024,0.393c-0.008,0.158-0.017,0.315-0.023,0.474c-0.015,0.345-0.031,0.69-0.049,1.036
		c-0.033,0.655-0.065,1.312-0.109,1.966c-0.047,0.694-0.11,1.387-0.152,2.083c-0.039,0.648-0.034,1.3-0.044,1.949
		c-0.021,1.377-0.066,2.757,0,4.133c0.007,0.158,0.017,0.318,0.025,0.477c0.015,0.27,0.046,0.543,0.109,0.805
		c0.109,0.452,0.419,0.884,0.884,1.013c0.258,0.072,0.51,0.038,0.77,0.018c0.153-0.012,0.306-0.021,0.459-0.031
		c0.677-0.046,1.352-0.113,2.027-0.162c0.337-0.024,0.674-0.045,1.012-0.062c0.323-0.017,0.647-0.014,0.971-0.016
		c0.687-0.003,1.373-0.001,2.06,0.001c1.316,0.005,2.634-0.003,3.95,0.026c0.724,0.017,1.446,0.043,2.169,0.074
		c0.687,0.029,1.374,0.031,2.06,0.033c0.418,0.001,0.841-0.005,1.255-0.052c0.178-0.021,0.356-0.044,0.532-0.079
		c0.174-0.036,0.333-0.113,0.495-0.183c0.049-0.021,0.092-0.05,0.134-0.08c0.181-0.13,0.251-0.188,0.375-0.374
		c0.141-0.208,0.188-0.457,0.191-0.705c0.002-0.168-0.008-0.338-0.008-0.505c-0.003-0.662-0.016-1.323-0.009-1.985
		c0.004-0.328,0.01-0.656,0.031-0.982c0.022-0.347,0.047-0.692,0.062-1.038c0.032-0.676,0.021-1.352-0.003-2.027
		c-0.047-1.343-0.113-2.685-0.2-4.027c-0.026-0.407-0.054-0.813-0.078-1.22c-0.024-0.423-0.058-0.856-0.016-1.279
		c0.007-0.046,0.017-0.091,0.028-0.136c0.02-0.004,0.038-0.008,0.059-0.011c0.33-0.036,0.659-0.067,0.988-0.111
		c-0.019,0.003-0.036,0.005-0.056,0.008c0.022-0.003,0.045-0.006,0.067-0.009c0,0,0,0-0.001,0c0.001,0,0.001,0,0.002,0
		c0.001,0,0.001,0,0.002,0l0,0c0,0,0.001,0,0.002,0l0,0l0,0c0.004,0,0.01-0.001,0.014-0.002l0,0
		c0.009-0.001,0.019-0.003,0.028-0.004c0.005,0,0.01-0.001,0.015-0.002c0.603-0.081,1.202-0.17,1.802-0.264
		c0.009-0.021,0.017-0.04,0.024-0.061c-0.166-0.017-0.333-0.032-0.499-0.048c-0.009,0-0.016,0-0.023,0c-0.141,0-0.282,0-0.423,0
		c-0.454,0-0.909,0-1.362,0.004c-0.354,0.003-0.709,0-1.062,0.009c-0.089,0.003-0.179,0.005-0.269,0.008
		c-0.101,0.133-0.164,0.297-0.215,0.457c-0.064,0.198-0.093,0.41-0.125,0.615c-0.103,0.677-0.146,1.364-0.194,2.046
		c-0.093,1.341-0.156,2.684-0.203,4.027c-0.024,0.677-0.046,1.353-0.093,2.027c-0.046,0.674-0.101,1.346-0.122,2.021
		c-0.015,0.417-0.02,0.834-0.023,1.251c-0.002,0.2-0.003,0.401-0.004,0.602c-0.001,0.065,0,0.133,0,0.198
		c-0.033,0.007-0.066,0.013-0.1,0.019c-0.735,0.082-1.48,0.095-2.219,0.119c-0.655,0.022-1.312,0.015-1.967,0.013
		c-1.351-0.002-2.7,0.006-4.051,0.011c-0.708,0.002-1.417,0.004-2.125,0.006c-0.229,0-0.458-0.002-0.688-0.004
		c-0.411-0.004-0.822-0.009-1.232,0.002c-1.112,0.029-2.225,0.114-3.336,0.059c-0.003-0.019-0.006-0.036-0.009-0.054
		c-0.076-0.643-0.103-1.292-0.132-1.938c-0.03-0.671-0.036-1.343-0.048-2.014c-0.012-0.668-0.023-1.337-0.031-2.005
		c-0.008-0.7,0.01-1.4,0.014-2.101c0.004-0.675-0.028-1.351-0.061-2.024c-0.031-0.648-0.058-1.297-0.091-1.946
		c-0.009-0.169-0.019-0.34-0.026-0.51c-0.003-0.082-0.015-0.176-0.03-0.253c-0.017-0.084-0.042-0.143-0.078-0.226
		c-0.061-0.139-0.178-0.25-0.307-0.325c-0.154-0.091-0.335-0.118-0.516-0.118C12.594,19.164,12.493,19.173,12.397,19.183"/>
	<polyline fill="#FFFFFF" points="32.52,19.562 32.529,19.561 32.52,19.562 	"/>
	<polyline fill="#FFFFFF" points="32.505,19.563 32.52,19.562 32.505,19.563 	"/>
	<polyline fill="#FFFFFF" points="32.505,19.563 32.504,19.563 32.505,19.563 	"/>
	<path fill="#FFFFFF" d="M32.477,19.567c0.01-0.001,0.019-0.002,0.027-0.004C32.495,19.565,32.486,19.566,32.477,19.567"/>
</g>
</svg>
