<?xml version="1.0" encoding="utf-8"?>
<!-- Generator: Adobe Illustrator 15.0.0, SVG Export Plug-In . SVG Version: 6.00 Build 0)  -->
<!DOCTYPE svg PUBLIC "-//W3C//DTD SVG 1.1//EN" "http://www.w3.org/Graphics/SVG/1.1/DTD/svg11.dtd">
<svg version="1.1" id="Capa_1" xmlns="http://www.w3.org/2000/svg" xmlns:xlink="http://www.w3.org/1999/xlink" x="0px" y="0px"
	 width="20px" height="20px" viewBox="12.5 12.5 20 20" enable-background="new 12.5 12.5 20 20" xml:space="preserve">
<g>
	<path fill="#292521" d="M20.251,19.419c-0.421,0-0.843,0.014-1.265,0.027c-0.127,0.004-0.253,0.008-0.38,0.02
		c-0.287,0.024-0.574,0.051-0.86,0.079c-0.167,0.016-0.334,0.032-0.5,0.057c-0.278,0.04-0.556,0.083-0.833,0.125
		c-0.361,0.057-0.721,0.122-1.08,0.196c-0.129,0.026-0.259,0.053-0.389,0.081c0,0.03,0,0.061,0.001,0.091
		c0.292-0.006,0.586-0.01,0.88-0.01c0.058,0,0.116,0,0.174,0c0.217,0.001,0.434,0.004,0.651,0.011
		c0.177,0.005,0.353,0.016,0.53,0.024c0.208,0.01,0.416,0.02,0.625,0.024c0.213,0.005,0.427,0.008,0.641,0.01
		c0.303,0.004,0.605,0.004,0.908,0.004c0.094,0,0.188,0,0.281,0c0.813,0,1.627,0,2.44,0c0.811,0,1.623,0,2.435,0
		c1.135,0,2.269,0,3.403,0c0.033,0,0.065,0.006,0.095,0.019c0.021,0,0.044,0,0.065,0c0.705,0.001,1.409-0.007,2.113-0.021
		c0.001-0.004,0.001-0.008,0.002-0.013c0.016-0.089,0.031-0.178,0.047-0.268c-0.78-0.101-1.562-0.187-2.344-0.268
		c-0.355-0.036-0.714-0.055-1.072-0.079c-0.407-0.027-0.817-0.058-1.226-0.071c-0.857-0.027-1.714-0.031-2.57-0.035
		c-0.918-0.004-1.836-0.004-2.754-0.006C20.264,19.419,20.258,19.419,20.251,19.419"/>
	<path fill="#292521" d="M21.618,16.412c-0.303,0.065-0.591,0.175-0.875,0.296c-0.262,0.112-0.508,0.249-0.747,0.403
		c-0.089,0.058-0.175,0.123-0.262,0.184c-0.062,0.044-0.125,0.088-0.187,0.134c-0.179,0.134-0.358,0.269-0.536,0.404
		c-0.161,0.122-0.326,0.241-0.48,0.371c-0.159,0.135-0.315,0.272-0.47,0.413c-0.143,0.13-0.271,0.274-0.398,0.419
		c-0.135,0.154-0.259,0.322-0.371,0.493c-0.11,0.169-0.208,0.342-0.3,0.522c-0.009,0.02-0.019,0.038-0.028,0.058
		c0.072,0.003,0.144,0.007,0.216,0.011c0.032,0.001,0.064,0.003,0.096,0.004c0.119-0.144,0.242-0.284,0.377-0.412
		c0.099-0.094,0.199-0.185,0.302-0.274c0.079-0.068,0.161-0.131,0.242-0.196c0.159-0.111,0.319-0.22,0.482-0.327
		c0.162-0.107,0.331-0.204,0.5-0.3c0.332-0.19,0.661-0.384,0.994-0.57c0.228-0.127,0.455-0.252,0.693-0.358
		c0.376-0.153,0.77-0.27,1.171-0.333c0.344-0.038,0.69-0.034,1.034-0.024c0.166,0.004,0.332,0.006,0.499,0.013
		c0.392,0.016,0.785,0.03,1.175,0.077c0.386,0.057,0.766,0.151,1.126,0.297c0.314,0.138,0.624,0.307,0.898,0.512
		c0.197,0.158,0.373,0.335,0.529,0.533c0.23,0.306,0.428,0.635,0.613,0.971c0.104,0.186,0.206,0.374,0.308,0.56
		c0.046,0,0.092-0.001,0.137-0.002c-0.029-0.113-0.061-0.225-0.093-0.338c-0.076-0.273-0.153-0.547-0.249-0.815
		c-0.098-0.271-0.212-0.54-0.353-0.791c-0.141-0.248-0.324-0.48-0.526-0.68c-0.094-0.091-0.194-0.173-0.297-0.254
		c-0.129-0.101-0.26-0.199-0.398-0.29c-0.251-0.165-0.523-0.291-0.804-0.402c-0.26-0.103-0.531-0.174-0.805-0.229
		c-0.168-0.033-0.338-0.055-0.508-0.076c-0.207-0.026-0.412-0.049-0.619-0.064c-0.211-0.016-0.422-0.026-0.635-0.034
		c-0.123-0.003-0.249-0.007-0.372-0.007C22.335,16.311,21.975,16.333,21.618,16.412"/>
	<path fill="#292521" d="M16.749,20.891c-0.011,0.089-0.019,0.178-0.031,0.267c0,0,0,0,0.001,0c0.06-0.147,0.112-0.296,0.172-0.443
		c0.015-0.035,0.031-0.071,0.048-0.105c-0.049-0.001-0.1-0.004-0.15-0.006C16.771,20.699,16.759,20.794,16.749,20.891"/>
	<path fill="#292521" d="M23.782,16.493c-0.004,0.003-0.01,0.008-0.015,0.011C23.772,16.5,23.778,16.497,23.782,16.493
		 M23.938,15.294c0.079,0.013,0.158,0.032,0.234,0.06c0.031,0.016,0.06,0.032,0.087,0.052c0.013,0.012,0.026,0.023,0.038,0.037
		c0.008,0.013,0.016,0.027,0.023,0.042c0.008,0.021,0.014,0.042,0.019,0.064c0.003,0.045,0.002,0.09-0.002,0.135
		c-0.017,0.091-0.041,0.18-0.074,0.266c-0.033,0.07-0.071,0.133-0.117,0.196c-0.11,0.137-0.246,0.254-0.385,0.363
		c-0.161,0.124-0.325,0.244-0.487,0.367c-0.061-0.096-0.137-0.184-0.219-0.261c-0.098-0.091-0.208-0.167-0.315-0.249
		c-0.083-0.068-0.16-0.14-0.228-0.222c-0.013-0.02-0.025-0.039-0.036-0.058c-0.006-0.017-0.01-0.034-0.013-0.05
		c0-0.001,0-0.003,0-0.005c0.006-0.03,0.014-0.06,0.024-0.089c0.024-0.05,0.052-0.099,0.083-0.146
		c0.049-0.057,0.103-0.107,0.16-0.155c0.118-0.084,0.243-0.154,0.374-0.213c0.145-0.058,0.295-0.106,0.45-0.133
		C23.683,15.282,23.81,15.281,23.938,15.294 M23.354,14.603c-0.128,0.021-0.248,0.06-0.368,0.108
		c-0.152,0.063-0.297,0.135-0.433,0.229c-0.119,0.082-0.232,0.175-0.331,0.282c-0.051,0.056-0.098,0.119-0.143,0.181
		c-0.052,0.072-0.087,0.155-0.121,0.236c-0.021,0.054-0.042,0.107-0.053,0.165c-0.016,0.075-0.028,0.154-0.02,0.231
		c0.017,0.172,0.096,0.326,0.223,0.444c0.157,0.149,0.349,0.237,0.546,0.318c0.132,0.058,0.26,0.123,0.377,0.208
		c0.063,0.051,0.122,0.108,0.174,0.172c0.124,0.166,0.212,0.353,0.322,0.527h0.001c-0.064-0.264-0.089-0.541-0.225-0.782
		c-0.003-0.003-0.005-0.008-0.008-0.012c0.226-0.071,0.453-0.143,0.671-0.234c0.246-0.104,0.484-0.237,0.652-0.449
		c0.092-0.116,0.161-0.244,0.214-0.382c0.052-0.133,0.084-0.285,0.066-0.427c-0.013-0.098-0.033-0.177-0.072-0.268
		c-0.031-0.072-0.078-0.129-0.126-0.19c-0.051-0.061-0.117-0.105-0.178-0.152c-0.07-0.054-0.159-0.089-0.242-0.122
		c-0.193-0.076-0.4-0.109-0.607-0.109C23.566,14.577,23.459,14.586,23.354,14.603"/>
	<path fill="#292521" d="M28.308,21.083L28.308,21.083c-0.001,0.003-0.002,0.007-0.003,0.01
		C28.306,21.09,28.307,21.087,28.308,21.083 M28.324,21.058c-0.002,0-0.002,0.001-0.003,0.002
		C28.322,21.059,28.322,21.058,28.324,21.058 M17.268,20.785c-0.22,0.024-0.439,0.057-0.659,0.083
		c-0.199,0.024-0.399,0.045-0.598,0.073c-0.186,0.027-0.375,0.05-0.56,0.089c-0.09,0.02-0.181,0.04-0.271,0.063
		c-0.045,0.012-0.091,0.024-0.137,0.036c-0.036,0.01-0.065,0.035-0.095,0.058c0,0.016,0,0.033,0,0.049
		c0.014-0.006,0.028-0.014,0.042-0.02c0.021-0.008,0.042-0.015,0.063-0.019c0.354-0.014,0.705,0.004,1.056,0.039
		c0.195,0.019,0.389,0.039,0.583,0.057c0.203,0.02,0.407,0.031,0.61,0.054c0.01,0.002,0.021,0.003,0.031,0.006
		c-0.002,0.076-0.011,0.153-0.014,0.228c-0.004,0.092-0.01,0.184-0.014,0.276c-0.008,0.201-0.018,0.401-0.028,0.603
		c-0.02,0.38-0.038,0.763-0.063,1.143c-0.028,0.403-0.064,0.806-0.088,1.211c-0.023,0.376-0.02,0.756-0.026,1.133
		c-0.012,0.802-0.039,1.603,0,2.403c0.004,0.092,0.01,0.184,0.015,0.277c0.009,0.156,0.027,0.315,0.063,0.467
		c0.063,0.264,0.244,0.515,0.514,0.59c0.15,0.042,0.297,0.021,0.448,0.01c0.089-0.007,0.178-0.013,0.267-0.018
		c0.394-0.027,0.786-0.066,1.179-0.095c0.196-0.014,0.392-0.026,0.588-0.035c0.188-0.01,0.376-0.009,0.564-0.01
		c0.399-0.001,0.798,0,1.197,0.001c0.765,0.002,1.532-0.002,2.296,0.015c0.421,0.01,0.841,0.024,1.261,0.044
		c0.4,0.016,0.799,0.018,1.198,0.019c0.243,0.001,0.488-0.004,0.729-0.03c0.104-0.012,0.207-0.025,0.31-0.046
		c0.102-0.021,0.193-0.065,0.288-0.106c0.028-0.012,0.053-0.029,0.078-0.047c0.104-0.075,0.146-0.108,0.218-0.217
		c0.082-0.121,0.109-0.266,0.11-0.41c0.001-0.097-0.004-0.196-0.004-0.294c-0.002-0.385-0.01-0.769-0.006-1.153
		c0.003-0.19,0.007-0.382,0.02-0.571c0.012-0.202,0.026-0.402,0.035-0.604c0.019-0.393,0.012-0.785-0.002-1.178
		c-0.027-0.781-0.066-1.562-0.116-2.341c-0.016-0.237-0.031-0.473-0.045-0.709c-0.015-0.246-0.034-0.498-0.01-0.743
		c0.004-0.027,0.011-0.053,0.017-0.08c0.012-0.002,0.021-0.004,0.034-0.006c0.192-0.021,0.383-0.039,0.574-0.064
		c-0.012,0.002-0.021,0.003-0.033,0.005c0.014-0.001,0.026-0.003,0.04-0.005c0,0,0,0-0.001,0c0.001,0,0.001,0,0.001,0
		c0.001,0,0.001,0,0.002,0l0,0c0,0,0,0,0.001,0l0,0l0,0c0.002,0,0.005,0,0.008-0.001l0,0c0.006,0,0.011-0.002,0.017-0.002
		c0.002,0,0.006,0,0.008-0.001c0.351-0.047,0.699-0.099,1.048-0.153c0.006-0.012,0.01-0.023,0.014-0.035
		c-0.097-0.01-0.193-0.019-0.289-0.028c-0.006,0-0.01,0-0.014,0c-0.081,0-0.164,0-0.246,0c-0.264,0-0.528,0-0.791,0.002
		c-0.206,0.002-0.413,0-0.618,0.006c-0.052,0.001-0.104,0.002-0.156,0.004c-0.059,0.077-0.096,0.172-0.125,0.266
		c-0.037,0.115-0.054,0.238-0.073,0.357c-0.059,0.394-0.085,0.793-0.112,1.189c-0.054,0.78-0.091,1.56-0.118,2.341
		c-0.014,0.394-0.026,0.786-0.054,1.178c-0.027,0.393-0.059,0.783-0.071,1.176c-0.009,0.241-0.011,0.484-0.014,0.727
		c-0.001,0.116-0.001,0.233-0.002,0.351c0,0.037,0,0.076,0,0.114c-0.02,0.005-0.039,0.007-0.059,0.011
		c-0.427,0.048-0.86,0.056-1.29,0.069c-0.381,0.013-0.762,0.009-1.143,0.009c-0.786-0.001-1.569,0.003-2.355,0.006
		c-0.411,0.001-0.823,0.002-1.235,0.004c-0.133,0-0.266-0.002-0.4-0.003c-0.239-0.003-0.478-0.006-0.716,0.001
		c-0.646,0.016-1.293,0.066-1.939,0.035c-0.001-0.012-0.003-0.021-0.005-0.032c-0.044-0.374-0.06-0.751-0.077-1.126
		c-0.018-0.391-0.021-0.781-0.028-1.172c-0.007-0.388-0.013-0.776-0.018-1.165c-0.005-0.407,0.005-0.814,0.008-1.222
		c0.002-0.392-0.016-0.785-0.035-1.176c-0.018-0.377-0.034-0.754-0.053-1.131c-0.005-0.098-0.011-0.198-0.016-0.297
		c-0.001-0.047-0.008-0.102-0.018-0.147c-0.009-0.048-0.024-0.083-0.045-0.131c-0.035-0.081-0.104-0.146-0.179-0.189
		c-0.089-0.053-0.194-0.069-0.3-0.069C17.382,20.774,17.323,20.779,17.268,20.785"/>
	<polyline fill="#292521" points="28.966,21.005 28.971,21.005 28.966,21.005 	"/>
	<polyline fill="#292521" points="28.956,21.006 28.966,21.005 28.956,21.006 	"/>
	<polyline fill="#292521" points="28.956,21.006 28.956,21.006 28.956,21.006 	"/>
	<path fill="#292521" d="M28.94,21.008c0.005,0,0.012-0.001,0.016-0.002C28.951,21.007,28.945,21.008,28.94,21.008"/>
</g>
</svg>
