<?xml version="1.0" encoding="utf-8"?>
<!-- Generator: Adobe Illustrator 15.0.0, SVG Export Plug-In . SVG Version: 6.00 Build 0)  -->
<!DOCTYPE svg PUBLIC "-//W3C//DTD SVG 1.1//EN" "http://www.w3.org/Graphics/SVG/1.1/DTD/svg11.dtd">
<svg version="1.1" xmlns="http://www.w3.org/2000/svg" xmlns:xlink="http://www.w3.org/1999/xlink" x="0px" y="0px" width="15px"
	 height="15px" viewBox="14.5 14.5 15 15" enable-background="new 14.5 14.5 15 15" xml:space="preserve">
<g id="Capa_1">
</g>
<g id="Capa_2">
	<path fill="#FFDE33" d="M22.1,22.158c-0.015,0.01-0.03,0.019-0.044,0.028c0.002-0.005,0.005-0.009,0.007-0.013
		c0.002-0.002,0.005-0.005,0.007-0.008C22.08,22.164,22.089,22.161,22.1,22.158 M21.57,18.96c-0.83,0.074-1.558,0.581-1.996,1.278
		c-0.181,0.289-0.3,0.625-0.388,0.953c-0.119,0.446-0.139,0.904-0.058,1.358c0.076,0.43,0.281,0.818,0.561,1.149
		c0.234,0.276,0.529,0.458,0.85,0.599c0.118,0.105,0.252,0.197,0.382,0.282c0.193,0.131,0.427,0.214,0.644,0.292
		c0.142,0.052,0.294,0.078,0.442,0.104c0.212,0.039,0.428,0.062,0.644,0.069c0.461,0.017,0.905-0.124,1.26-0.419
		c0.39-0.324,0.597-0.813,0.677-1.315c0.033-0.047,0.064-0.096,0.095-0.146c0.16-0.266,0.221-0.566,0.237-0.872
		c0.015-0.31-0.061-0.612-0.164-0.902c-0.01-0.044-0.02-0.087-0.032-0.127c-0.062-0.197-0.143-0.348-0.244-0.495
		c-0.226-0.416-0.523-0.803-0.879-1.101c-0.281-0.236-0.586-0.391-0.923-0.53c-0.138-0.058-0.281-0.095-0.426-0.125
		c-0.171-0.036-0.347-0.06-0.522-0.06C21.675,18.953,21.622,18.955,21.57,18.96"/>
</g>
</svg>
