<?xml version="1.0" encoding="utf-8"?>
<!-- Generator: Adobe Illustrator 15.0.0, SVG Export Plug-In . SVG Version: 6.00 Build 0)  -->
<!DOCTYPE svg PUBLIC "-//W3C//DTD SVG 1.1//EN" "http://www.w3.org/Graphics/SVG/1.1/DTD/svg11.dtd">
<svg version="1.1" id="Capa_1" xmlns="http://www.w3.org/2000/svg" xmlns:xlink="http://www.w3.org/1999/xlink" x="0px" y="0px"
	 width="45px" height="45px" viewBox="-0.5 -0.5 45 45" enable-background="new -0.5 -0.5 45 45" xml:space="preserve">
<path fill="#292521" d="M17.329,25.077c0.005,0.013,0.011,0.024,0.016,0.037c-0.006-0.012-0.011-0.023-0.016-0.035
	C17.329,25.078,17.329,25.077,17.329,25.077 M17.216,19.107c-0.002,0.001-0.004,0.002-0.006,0.002
	C17.211,19.109,17.213,19.108,17.216,19.107C17.215,19.107,17.215,19.107,17.216,19.107 M17.437,19.05
	c-0.001,0.001-0.002,0.002-0.003,0.003c0,0-0.001,0-0.002,0c0.001-0.001,0.002-0.001,0.003-0.002S17.436,19.05,17.437,19.05
	 M33.255,17.941C33.255,17.942,33.256,17.942,33.255,17.941c0.003,0.021,0.006,0.041,0.008,0.062
	C33.26,17.982,33.258,17.962,33.255,17.941 M33.225,17.907c0.005,0.002,0.011,0.004,0.016,0.007
	C33.235,17.912,33.229,17.909,33.225,17.907 M33.165,17.757c0.013,0.017,0.026,0.034,0.039,0.051
	C33.19,17.792,33.178,17.773,33.165,17.757 M34.193,14.685c-0.039,0.43-0.075,0.859-0.112,1.289c-0.28-0.14-0.59-0.234-0.891-0.3
	c-0.939-0.202-1.901-0.26-2.859-0.298c-0.963-0.038-1.925-0.031-2.888-0.037c-1.012-0.005-2.024-0.008-3.038-0.009
	c-0.949-0.002-1.9,0.004-2.85,0.043c-0.451,0.019-0.903,0.04-1.355,0.062c-0.409,0.02-0.815,0.063-1.224,0.092
	c-0.464,0.031-0.928,0.059-1.393,0.071c-0.435,0.013-0.892-0.01-1.306,0.133c-0.556,0.191-1.034,0.532-1.346,1.039
	c-0.228,0.37-0.394,0.794-0.482,1.221c-0.276,1.323-0.189,2.709-0.138,4.05c0.034,0.916,0.114,1.836,0.1,2.754
	c-0.002,0.127-0.006,0.251-0.013,0.378c-0.019,0.381,0.048,0.749,0.232,1.088c0.26,0.479,0.686,0.768,1.182,0.96
	c0.373,0.146,0.777,0.175,1.171,0.227c0.501,0.068,1.018,0.065,1.529,0.063c0.152-0.001,0.304-0.002,0.455-0.001
	c0.487,0.003,0.979-0.038,1.465-0.058c0.533-0.021,1.065-0.069,1.598-0.104c0.955-0.064,1.91-0.151,2.863-0.23
	c0.629-0.053,1.26-0.097,1.889-0.134c0.704-0.042,1.408-0.099,2.113-0.125c0.678-0.023,1.356-0.056,2.035-0.056
	c1.09,0.001,2.178,0.036,3.265,0.045c0.003,0,0.003-0.004,0-0.004c-1.324-0.294-2.646-0.561-3.987-0.764
	c-0.895-0.134-1.796-0.229-2.695-0.325c-1.941-0.209-3.888-0.362-5.831-0.553c-0.84-0.083-1.677-0.174-2.515-0.271
	c-0.273-0.043-0.545-0.087-0.818-0.129c-0.343-0.055-0.691-0.11-1.031-0.194c0-0.754,0.069-1.511,0.11-2.26
	c0.051-0.905,0.123-1.807,0.216-2.708c0.028-0.18,0.06-0.36,0.101-0.538c0.32-0.003,0.64-0.009,0.959-0.034
	c0.411-0.033,0.823-0.077,1.226-0.166c0.114-0.027,0.224-0.075,0.333-0.118c0.141-0.057,0.279-0.116,0.417-0.177
	c0.379-0.136,0.761-0.22,1.155-0.294c1.542-0.168,3.094-0.156,4.643-0.214c0.964-0.037,1.926-0.084,2.888-0.145
	c0.41-0.026,0.819-0.041,1.229-0.061c0.817-0.038,1.639-0.072,2.456,0c0.068,0.014,0.135,0.029,0.201,0.047
	c0.062,0.583,0.094,1.172,0.142,1.756c0.049,0.614,0.103,1.228,0.174,1.84c-0.025,0.187,0.067,0.378,0.206,0.509
	c0.1,0.101,0.232,0.164,0.398,0.17c0.001,0,0.003,0.001,0.004,0.001c0.002,0,0.004,0,0.005,0c0.007,0,0.015,0,0.021,0
	c0.003,0,0.008,0,0.012,0c0.003,0,0.006-0.001,0.009-0.001s0.007,0,0.008,0c0.005-0.001,0.007-0.001,0.012-0.001
	c0.001-0.001,0.004-0.001,0.008-0.001c0.006,0,0.014-0.001,0.021-0.002c0.001,0,0.001,0,0.003,0c0.005-0.001,0.01-0.001,0.014-0.002
	h0.002c0.077-0.012,0.153-0.038,0.221-0.078c0.056-0.032,0.102-0.069,0.139-0.111c0.109-0.116,0.189-0.304,0.176-0.472
	c0.12-1.033,0.192-2.071,0.274-3.108c0.016-0.187,0.036-0.373,0.047-0.559c0.01-0.137,0.018-0.262,0.004-0.398
	c-0.025-0.252-0.071-0.399-0.172-0.629c-0.141-0.32-0.376-0.561-0.655-0.743c-0.039-0.476-0.08-0.951-0.123-1.427
	c0-0.001-0.002-0.002-0.003-0.002C34.195,14.683,34.193,14.684,34.193,14.685"/>
<path fill="#292521" d="M10.5,19.83c0.003-0.001,0.005-0.003,0.007-0.006C10.505,19.827,10.502,19.829,10.5,19.83 M10.666,19.713
	c-0.003,0.002-0.007,0.003-0.011,0.004C10.659,19.715,10.663,19.714,10.666,19.713 M11.576,19.421
	c-0.254,0.005-0.508,0.024-0.762,0.044c-0.257,0.02-0.37,0.305-0.493,0.494c-0.001,0.001,0.001,0.004,0.003,0.002
	c0.091-0.064,0.091-0.064,0.175-0.131c0,0.001-0.001,0.001-0.002,0.001c0.055-0.046,0.112-0.086,0.174-0.121
	c0.022-0.009,0.044-0.017,0.067-0.026c0.021,0.001,0.043,0.001,0.065,0.002c0.707,0.151,1.426,0.295,2.146,0.358
	c0.852,0.075,1.706,0.063,2.559,0.005c0.002,0,0.002-0.003,0-0.004c-0.892-0.272-1.811-0.502-2.741-0.589
	c-0.301-0.028-0.604-0.039-0.906-0.039C11.768,19.418,11.672,19.42,11.576,19.421"/>
<path fill="#292521" d="M11.234,21.721c-0.188,0.012-0.376,0.029-0.562,0.049c-0.127,0.013-0.252,0.026-0.378,0.041
	c-0.239,0.028-0.462,0.122-0.686,0.204c-0.002,0-0.002,0.003,0,0.003c0.222,0.005,0.441-0.001,0.662,0.024
	c0.787,0.139,1.591,0.258,2.391,0.29c0.952,0.037,1.903-0.024,2.849-0.136c0.002,0,0.002-0.003,0-0.004
	c-0.952-0.238-1.93-0.433-2.913-0.491c-0.161-0.009-0.322-0.013-0.483-0.013C11.821,21.688,11.527,21.701,11.234,21.721"/>
<path fill="#292521" d="M8.682,24.823c0.009,0.004,0.017,0.008,0.025,0.012C8.699,24.831,8.69,24.827,8.682,24.823 M9.202,20.262
	c0.123-0.722,0.222-1.458,0.423-2.164c0.106,0.008,0.211,0.019,0.313,0.029c0.162,0.015,0.324,0.03,0.486,0.046
	c-0.025,0.176-0.048,0.353-0.066,0.531c-0.044,0.434-0.062,0.869-0.074,1.306c-0.027,1.012,0.021,2.012,0.124,3.017
	c0.044,0.431,0.096,0.861,0.176,1.286c0.051,0.266,0.134,0.562,0.289,0.785c0.064,0.094,0.143,0.178,0.231,0.25
	c-0.416-0.07-0.83-0.143-1.244-0.221c-0.399-0.078-0.808-0.166-1.188-0.311c0.02-0.53,0.075-1.063,0.133-1.59
	c0.066-0.586,0.138-1.171,0.213-1.756C9.078,21.066,9.134,20.664,9.202,20.262 M9.618,15.558c-0.079,0.001-0.158,0-0.237-0.001
	c-0.145-0.001-0.29-0.004-0.432,0.012c-0.229,0.026-0.55,0.07-0.746,0.215c-0.216,0.161-0.394,0.289-0.543,0.52
	c-0.218,0.338-0.322,0.735-0.384,1.129c-0.149,0.938-0.119,1.887-0.097,2.833c0.01,0.447,0.042,0.895,0.075,1.34
	c0.069,0.945,0.16,1.89,0.226,2.836c0.007,0.114,0.014,0.229,0.022,0.344c0.019,0.233,0.039,0.532,0.228,0.699
	c0.394,0.352,0.928,0.355,1.431,0.326c0.794-0.044,1.58-0.142,2.368-0.242c0.163,0.044,0.336,0.048,0.509,0.001
	c0.179-0.05,0.327-0.151,0.446-0.292c0.127-0.15,0.191-0.293,0.257-0.477c0.045-0.126,0.045-0.327,0.043-0.466
	c-0.002-0.116-0.006-0.229-0.01-0.345c-0.01-0.261-0.021-0.522-0.033-0.783c-0.039-0.839-0.086-1.678-0.148-2.517
	c0.029-0.403,0.067-0.805,0.109-1.207c0.065-0.391,0.143-0.772,0.264-1.151c0.032-0.099,0.067-0.196,0.103-0.294
	c0.017-0.048,0.038-0.096,0.058-0.143c0.085-0.208,0.088-0.262,0.116-0.531c0.048-0.464-0.145-0.935-0.497-1.243
	c-0.423-0.37-0.935-0.487-1.48-0.54c-0.287-0.028-0.575-0.036-0.863-0.036C10.14,15.546,9.878,15.553,9.618,15.558"/>
<path fill="#292521" d="M30.579,12.854c-0.01,0.003-0.018,0.007-0.025,0.011C30.562,12.861,30.569,12.858,30.579,12.854
	 M31.216,11.378c-0.165,0.062-0.313,0.155-0.472,0.231c-0.339,0.121-0.698,0.19-0.994,0.406c-0.583,0.425-0.756,1.204-0.834,1.877
	c-0.021,0.167-0.028,0.334-0.032,0.502c-0.031,0.313-0.055,0.626-0.034,0.94c0.013,0.176,0.039,0.368,0.153,0.506
	c0.124,0.153,0.4,0.067,0.441-0.117c0.166-0.745,0.282-1.489,0.564-2.204c0.073-0.148,0.153-0.285,0.246-0.419
	c0.046-0.055,0.094-0.105,0.147-0.155c0.025-0.017,0.052-0.032,0.08-0.046c0.153-0.05,0.307-0.099,0.453-0.154
	c0.096,1.19,0.272,2.38,0.485,3.55c0.002,0.002,0.005,0.002,0.005,0c0.146-0.81,0.271-1.625,0.364-2.443
	c0.043-0.36,0.078-0.722,0.107-1.083c0.015-0.152,0.024-0.304,0.033-0.456c0.007-0.092,0.012-0.183,0.02-0.273
	c0.021-0.207-0.079-0.371-0.205-0.521c-0.084-0.101-0.243-0.163-0.387-0.163C31.308,11.356,31.261,11.363,31.216,11.378"/>
<path fill="#292521" d="M27.488,26.397c0.151,1.044,0.356,2.081,0.649,3.096c0.136,0.468,0.308,0.916,0.499,1.363
	c0.173,0.412,0.383,0.811,0.562,1.222c0.149,0.4,0.281,0.806,0.436,1.203c0.001,0.003,0.005,0.002,0.005-0.001
	c-0.004-0.563,0.006-1.131-0.123-1.684c-0.054-0.23-0.112-0.457-0.176-0.685c-0.119-0.434-0.242-0.869-0.388-1.295
	c-0.38-1.116-0.896-2.188-1.461-3.222c0-0.001,0-0.001-0.001-0.001C27.488,26.395,27.488,26.396,27.488,26.397"/>
<path fill="#292521" d="M23.375,26.395c-0.581,1.329-1.114,2.701-1.472,4.107c-0.132,0.521-0.247,1.045-0.341,1.575
	c-0.047,0.274-0.087,0.548-0.126,0.823c-0.022,0.162-0.041,0.326-0.058,0.489c-0.042,0.407,0.004,0.826,0.029,1.232
	c0,0.003,0.004,0.003,0.004,0c0.168-0.53,0.306-1.067,0.503-1.589c0.098-0.26,0.191-0.52,0.282-0.781
	c0.176-0.508,0.359-1.014,0.502-1.53c0.391-1.405,0.569-2.874,0.68-4.325c0.001-0.002,0-0.002-0.002-0.002
	C23.376,26.395,23.375,26.395,23.375,26.395"/>
</svg>
