<?xml version="1.0" encoding="utf-8"?>
<!-- Generator: Adobe Illustrator 15.0.0, SVG Export Plug-In . SVG Version: 6.00 Build 0)  -->
<!DOCTYPE svg PUBLIC "-//W3C//DTD SVG 1.1//EN" "http://www.w3.org/Graphics/SVG/1.1/DTD/svg11.dtd">
<svg version="1.1" id="Capa_1" xmlns="http://www.w3.org/2000/svg" xmlns:xlink="http://www.w3.org/1999/xlink" x="0px" y="0px"
	 width="20px" height="20px" viewBox="12.5 12.5 20 20" enable-background="new 12.5 12.5 20 20" xml:space="preserve">
<path fill="#9D9995" d="M20.474,24.282c0.003,0.008,0.006,0.013,0.008,0.02C20.479,24.296,20.476,24.29,20.474,24.282L20.474,24.282
	 M20.415,21.137c-0.001,0.001-0.002,0.001-0.003,0.001C20.412,21.138,20.413,21.138,20.415,21.137
	C20.414,21.137,20.414,21.137,20.415,21.137 M20.53,21.106c0,0.001-0.001,0.001-0.001,0.002c0,0,0,0-0.001,0
	C20.528,21.108,20.529,21.108,20.53,21.106C20.53,21.106,20.53,21.106,20.53,21.106 M28.864,20.523
	C28.864,20.523,28.864,20.523,28.864,20.523c0.001,0.011,0.003,0.021,0.004,0.032C28.867,20.544,28.865,20.534,28.864,20.523
	 M28.848,20.505c0.003,0.001,0.006,0.002,0.009,0.004C28.854,20.508,28.851,20.506,28.848,20.505 M28.817,20.426
	c0.007,0.009,0.013,0.018,0.02,0.027C28.83,20.444,28.824,20.435,28.817,20.426 M29.358,18.807
	c-0.021,0.226-0.039,0.453-0.059,0.679c-0.147-0.074-0.311-0.123-0.47-0.158c-0.495-0.106-1.002-0.137-1.507-0.157
	c-0.507-0.02-1.015-0.016-1.521-0.019c-0.533-0.003-1.067-0.004-1.601-0.004c-0.5-0.001-1.001,0.001-1.501,0.022
	c-0.238,0.009-0.476,0.021-0.714,0.033c-0.215,0.01-0.429,0.033-0.645,0.048c-0.244,0.017-0.489,0.031-0.734,0.038
	c-0.228,0.007-0.469-0.005-0.688,0.07c-0.292,0.1-0.544,0.28-0.708,0.547c-0.121,0.195-0.208,0.418-0.254,0.643
	c-0.145,0.697-0.1,1.428-0.073,2.134c0.019,0.483,0.06,0.967,0.053,1.451c-0.002,0.067-0.004,0.133-0.007,0.2
	c-0.01,0.2,0.025,0.394,0.122,0.572c0.137,0.253,0.361,0.405,0.623,0.506c0.197,0.076,0.41,0.092,0.617,0.119
	c0.264,0.036,0.536,0.034,0.806,0.033c0.08,0,0.16,0,0.239,0c0.257,0.001,0.515-0.02,0.772-0.031
	c0.281-0.011,0.562-0.036,0.842-0.055c0.503-0.033,1.006-0.079,1.508-0.121c0.332-0.027,0.663-0.051,0.994-0.07
	c0.371-0.022,0.742-0.052,1.114-0.066c0.357-0.012,0.715-0.028,1.071-0.028c0.575,0,1.147,0.019,1.722,0.023
	c0.001,0,0.001-0.003,0-0.003c-0.698-0.153-1.396-0.295-2.102-0.401c-0.471-0.07-0.946-0.121-1.42-0.172
	c-1.022-0.11-2.048-0.19-3.072-0.291c-0.442-0.044-0.884-0.091-1.326-0.143c-0.144-0.022-0.287-0.045-0.43-0.067
	c-0.181-0.028-0.365-0.059-0.543-0.103c0-0.397,0.036-0.797,0.058-1.191c0.027-0.477,0.065-0.952,0.114-1.427
	c0.015-0.095,0.031-0.189,0.053-0.283c0.168-0.002,0.337-0.004,0.505-0.018c0.216-0.018,0.434-0.041,0.646-0.088
	c0.06-0.014,0.118-0.04,0.175-0.062c0.074-0.03,0.147-0.061,0.22-0.093c0.199-0.072,0.401-0.116,0.608-0.155
	c0.812-0.089,1.629-0.082,2.446-0.113c0.508-0.019,1.014-0.044,1.521-0.076c0.217-0.014,0.432-0.021,0.648-0.032
	c0.431-0.02,0.863-0.037,1.294,0c0.036,0.007,0.07,0.016,0.105,0.025c0.033,0.307,0.05,0.617,0.075,0.925
	c0.025,0.323,0.054,0.647,0.091,0.97c-0.013,0.098,0.035,0.199,0.109,0.268c0.052,0.053,0.122,0.086,0.209,0.089
	c0.001,0,0.002,0.001,0.002,0.001c0.001,0,0.003,0,0.004,0c0.003,0,0.008,0,0.01,0s0.004,0,0.007,0c0.001,0,0.003-0.001,0.004-0.001
	c0.002,0,0.004,0,0.005,0c0.002,0,0.003,0,0.006,0c0,0,0.002,0,0.004,0c0.003,0,0.008,0,0.011-0.001c0.001,0,0.001,0,0.001,0
	c0.004,0,0.006,0,0.008,0h0.001c0.041-0.007,0.081-0.021,0.117-0.042c0.028-0.017,0.053-0.036,0.072-0.059
	c0.058-0.062,0.101-0.16,0.093-0.249c0.062-0.544,0.102-1.091,0.145-1.637c0.009-0.099,0.02-0.196,0.024-0.294
	c0.005-0.072,0.009-0.138,0.003-0.21c-0.015-0.132-0.038-0.209-0.092-0.331c-0.073-0.168-0.198-0.296-0.345-0.392
	c-0.021-0.25-0.042-0.501-0.064-0.751c0,0-0.001-0.001-0.001-0.001S29.358,18.807,29.358,18.807"/>
<path fill="#9D9995" d="M16.876,21.518c0.001-0.001,0.002-0.002,0.003-0.003C16.878,21.516,16.877,21.517,16.876,21.518
	 M16.964,21.456c-0.002,0.001-0.004,0.002-0.006,0.002C16.96,21.458,16.961,21.457,16.964,21.456 M17.443,21.303
	c-0.134,0.002-0.268,0.012-0.401,0.023c-0.136,0.011-0.195,0.161-0.26,0.26c0,0.001,0.001,0.002,0.001,0.002
	c0.048-0.034,0.048-0.034,0.093-0.069c-0.001,0-0.001,0-0.001,0c0.029-0.024,0.059-0.045,0.092-0.063
	c0.012-0.004,0.023-0.009,0.035-0.014c0.011,0,0.022,0.001,0.034,0.001c0.373,0.08,0.751,0.155,1.131,0.189
	c0.449,0.04,0.898,0.033,1.348,0.002c0.002,0,0.002-0.001,0-0.002c-0.47-0.143-0.954-0.264-1.444-0.311
	c-0.158-0.015-0.317-0.021-0.477-0.021C17.544,21.301,17.493,21.302,17.443,21.303"/>
<path fill="#9D9995" d="M17.263,22.514c-0.099,0.007-0.198,0.016-0.296,0.026c-0.067,0.007-0.133,0.014-0.199,0.021
	c-0.126,0.016-0.244,0.064-0.361,0.108c-0.001,0-0.001,0.001,0,0.001c0.117,0.003,0.233,0,0.349,0.013
	c0.415,0.073,0.838,0.136,1.259,0.153c0.501,0.02,1.002-0.013,1.5-0.071c0.001,0,0.001-0.001,0-0.002
	c-0.501-0.125-1.017-0.228-1.535-0.259c-0.084-0.005-0.169-0.007-0.254-0.007C17.572,22.497,17.417,22.504,17.263,22.514"/>
<path fill="#9D9995" d="M15.918,24.148c0.005,0.003,0.009,0.005,0.014,0.007C15.927,24.153,15.922,24.151,15.918,24.148
	 M16.192,21.745c0.064-0.38,0.117-0.768,0.223-1.14c0.056,0.004,0.112,0.01,0.165,0.015c0.085,0.008,0.171,0.016,0.256,0.024
	c-0.013,0.093-0.025,0.187-0.035,0.28c-0.023,0.229-0.033,0.458-0.039,0.688c-0.014,0.533,0.012,1.06,0.065,1.59
	c0.024,0.227,0.051,0.453,0.093,0.678c0.026,0.14,0.07,0.295,0.152,0.413c0.034,0.05,0.075,0.094,0.122,0.132
	c-0.218-0.037-0.437-0.074-0.655-0.116c-0.21-0.041-0.426-0.087-0.626-0.163c0.011-0.279,0.04-0.562,0.071-0.838
	c0.035-0.309,0.073-0.617,0.112-0.925C16.127,22.169,16.157,21.957,16.192,21.745 M16.412,19.268c-0.042,0-0.083,0-0.125-0.001
	c-0.077,0-0.153-0.001-0.228,0.007c-0.121,0.013-0.29,0.036-0.393,0.113c-0.114,0.085-0.208,0.152-0.286,0.274
	c-0.114,0.178-0.169,0.387-0.203,0.594c-0.079,0.495-0.062,0.994-0.051,1.493c0.006,0.235,0.021,0.472,0.04,0.706
	c0.037,0.498,0.084,0.995,0.119,1.494c0.004,0.061,0.007,0.121,0.012,0.182c0.01,0.122,0.021,0.279,0.12,0.368
	c0.207,0.186,0.489,0.187,0.754,0.171c0.418-0.022,0.833-0.073,1.248-0.126c0.085,0.022,0.177,0.024,0.268,0
	c0.094-0.026,0.172-0.079,0.235-0.154c0.067-0.079,0.101-0.154,0.136-0.251c0.023-0.066,0.023-0.172,0.022-0.246
	c-0.001-0.061-0.003-0.119-0.005-0.182c-0.005-0.137-0.011-0.274-0.017-0.412c-0.021-0.442-0.046-0.884-0.078-1.326
	c0.015-0.212,0.035-0.424,0.057-0.636c0.035-0.205,0.075-0.407,0.139-0.606c0.017-0.052,0.035-0.103,0.054-0.155
	c0.009-0.025,0.02-0.05,0.03-0.075c0.045-0.11,0.046-0.138,0.062-0.28c0.025-0.245-0.077-0.492-0.262-0.655
	c-0.223-0.195-0.493-0.257-0.78-0.285c-0.151-0.014-0.303-0.019-0.455-0.019C16.687,19.261,16.549,19.265,16.412,19.268"/>
<path fill="#9D9995" d="M27.454,17.843c-0.006,0.002-0.009,0.004-0.013,0.006C27.445,17.847,27.448,17.845,27.454,17.843
	 M27.79,17.065c-0.087,0.032-0.165,0.082-0.249,0.122c-0.179,0.064-0.367,0.1-0.524,0.214c-0.306,0.224-0.397,0.634-0.438,0.989
	c-0.011,0.088-0.015,0.176-0.017,0.264c-0.017,0.165-0.029,0.33-0.018,0.495c0.006,0.093,0.02,0.194,0.08,0.267
	c0.064,0.081,0.211,0.035,0.232-0.062c0.088-0.393,0.148-0.785,0.297-1.161c0.039-0.078,0.082-0.15,0.13-0.221
	c0.024-0.029,0.05-0.056,0.078-0.082c0.014-0.009,0.026-0.017,0.042-0.024c0.08-0.026,0.162-0.052,0.239-0.081
	c0.051,0.627,0.143,1.254,0.255,1.87c0.001,0.001,0.003,0.001,0.003,0c0.077-0.427,0.143-0.856,0.192-1.287
	c0.022-0.19,0.041-0.38,0.056-0.571c0.008-0.08,0.014-0.16,0.018-0.24c0.004-0.048,0.007-0.096,0.011-0.144
	c0.011-0.11-0.042-0.196-0.108-0.275c-0.044-0.053-0.128-0.086-0.203-0.086C27.838,17.053,27.813,17.057,27.79,17.065"/>
<path fill="#9D9995" d="M25.826,24.978c0.08,0.551,0.188,1.097,0.342,1.631c0.071,0.247,0.162,0.483,0.264,0.719
	c0.09,0.217,0.201,0.428,0.295,0.644c0.079,0.211,0.148,0.425,0.229,0.634c0,0.001,0.003,0.001,0.003-0.001
	c-0.003-0.296,0.003-0.596-0.065-0.887c-0.027-0.121-0.059-0.241-0.093-0.361c-0.062-0.228-0.127-0.458-0.203-0.681
	c-0.2-0.588-0.473-1.153-0.77-1.698C25.828,24.977,25.828,24.977,25.826,24.978C25.826,24.977,25.826,24.977,25.826,24.978"/>
<path fill="#9D9995" d="M23.659,24.977c-0.307,0.7-0.587,1.423-0.775,2.164c-0.069,0.274-0.13,0.55-0.179,0.83
	c-0.025,0.144-0.046,0.288-0.067,0.434c-0.012,0.085-0.021,0.172-0.03,0.258c-0.022,0.214,0.002,0.435,0.016,0.649
	c0,0.001,0.002,0.001,0.002,0c0.088-0.28,0.161-0.562,0.264-0.838c0.052-0.137,0.102-0.273,0.149-0.412
	c0.094-0.268,0.189-0.534,0.266-0.806c0.205-0.74,0.299-1.514,0.357-2.278C23.661,24.977,23.661,24.977,23.659,24.977
	C23.659,24.977,23.659,24.977,23.659,24.977"/>
</svg>
