<?xml version="1.0" encoding="utf-8"?>
<!-- Generator: Adobe Illustrator 15.0.0, SVG Export Plug-In . SVG Version: 6.00 Build 0)  -->
<!DOCTYPE svg PUBLIC "-//W3C//DTD SVG 1.1//EN" "http://www.w3.org/Graphics/SVG/1.1/DTD/svg11.dtd">
<svg version="1.1" id="Capa_1" xmlns="http://www.w3.org/2000/svg" xmlns:xlink="http://www.w3.org/1999/xlink" x="0px" y="0px"
	 width="44px" height="44px" viewBox="0 0 44 44" enable-background="new 0 0 44 44" xml:space="preserve">
<path opacity="0.9753" fill="#292521" d="M27.317,31.054c-0.023,0.012-0.047,0.021-0.071,0.03
	C27.27,31.073,27.294,31.063,27.317,31.054 M10.385,21.648c0.002,0.018,0.005,0.036,0.007,0.054
	C10.389,21.685,10.387,21.667,10.385,21.648 M34.528,20.331c0,0,0,0.001,0.001,0.001c-0.006,0.014-0.012,0.027-0.018,0.04
	C34.517,20.358,34.522,20.344,34.528,20.331 M26.546,12.842c0.03,0.006,0.062,0.014,0.092,0.022
	c0.369,0.182,0.712,0.433,1.048,0.665c0.389,0.269,0.769,0.545,1.145,0.832c0.634,0.512,1.265,1.027,1.903,1.534
	c0.663,0.527,1.339,1.039,2.017,1.547c0.125,0.15,0.248,0.302,0.369,0.455c0.287,0.381,0.548,0.78,0.784,1.194
	c0.19,0.333,0.386,0.663,0.548,1.01c0.02,0.051,0.038,0.102,0.054,0.153c-0.144,0.142-0.301,0.27-0.455,0.402
	c-0.275,0.237-0.489,0.53-0.7,0.824c-0.165,0.229-0.302,0.476-0.456,0.712c-0.177,0.271-0.363,0.534-0.548,0.799
	c-0.345,0.494-0.696,0.987-1.005,1.505c-0.347,0.579-0.688,1.161-1.039,1.737c-0.516,0.85-1.046,1.694-1.596,2.522
	c-0.524,0.788-1.085,1.556-1.652,2.313c-0.009,0.012-0.019,0.023-0.028,0.035c-0.406,0.029-0.815,0.034-1.223,0.04
	c-0.561,0.008-1.122,0.011-1.683-0.003c-0.61-0.015-1.22-0.037-1.829-0.086c-0.576-0.045-1.149-0.115-1.722-0.189
	c-0.129-0.018-0.258-0.035-0.387-0.053c-0.224-0.031-0.455-0.059-0.674-0.117c-0.026-0.016-0.051-0.031-0.076-0.048
	c-0.18-0.162-0.345-0.339-0.505-0.521c-0.211-0.241-0.429-0.474-0.662-0.693c-0.444-0.419-0.905-0.818-1.356-1.228
	c-0.469-0.428-0.938-0.854-1.393-1.298c-0.44-0.428-0.868-0.867-1.305-1.297c-0.593-0.584-1.212-1.146-1.791-1.744
	c-0.313-0.322-0.625-0.646-0.934-0.971c-0.332-0.351-0.685-0.685-1.001-1.049c0.241-0.525,0.516-1.031,0.795-1.536
	c0.307-0.556,0.595-1.126,0.88-1.694c0.554-1.103,1.234-2.143,1.899-3.181c0.282-0.439,0.557-0.886,0.864-1.309
	c0.062-0.074,0.126-0.145,0.195-0.212c0.039-0.011,0.079-0.021,0.119-0.03c0.518-0.051,1.04-0.052,1.56-0.063
	c0.66-0.014,1.32-0.034,1.98-0.058c0.653-0.024,1.307-0.038,1.96-0.061c0.64-0.023,1.275-0.079,1.912-0.148
	c0.63-0.069,1.254-0.197,1.874-0.324c0.562-0.116,1.115-0.284,1.682-0.381C26.319,12.839,26.432,12.836,26.546,12.842
	 M25.353,11.182c-0.386,0.046-0.771,0.103-1.155,0.161c-0.544,0.07-1.09,0.147-1.638,0.176c-0.641,0.034-1.279,0.055-1.92,0.055
	c-0.658,0-1.316,0-1.973,0.013c-0.627,0.013-1.254,0.032-1.882,0.029c-0.327-0.001-0.652-0.003-0.979-0.008
	c-0.325-0.006-0.647-0.046-0.972-0.056c-0.231-0.007-0.476,0.034-0.693,0.111c-0.166,0.06-0.313,0.122-0.457,0.218
	c-0.142,0.095-0.286,0.214-0.412,0.335c-0.197,0.191-0.356,0.427-0.516,0.649c-0.06,0.083-0.115,0.17-0.17,0.258
	c-0.161,0.25-0.313,0.505-0.464,0.761c-0.657,1.116-1.31,2.233-1.905,3.383c-0.291,0.562-0.584,1.121-0.887,1.676
	c-0.295,0.541-0.596,1.078-0.878,1.625c-0.067,0.13-0.136,0.261-0.205,0.39c-0.077,0.144-0.132,0.276-0.196,0.432
	c-0.068,0.164-0.083,0.29-0.099,0.483c-0.03,0.395,0.095,0.737,0.266,1.085c0.069,0.142,0.212,0.299,0.299,0.41
	c0.061,0.077,0.123,0.152,0.188,0.226c0.097,0.111,0.204,0.215,0.31,0.317c0.149,0.142,0.298,0.284,0.447,0.427
	c0.439,0.42,0.875,0.845,1.317,1.262c0.462,0.435,0.954,0.845,1.432,1.263c0.479,0.42,0.943,0.858,1.402,1.302
	c0.893,0.862,1.773,1.737,2.61,2.655c0.211,0.232,0.427,0.461,0.637,0.695c0.205,0.229,0.396,0.47,0.6,0.7
	c0.266,0.301,0.548,0.61,0.909,0.798c0.194,0.102,0.397,0.175,0.613,0.204c0.173,0.024,0.346,0.051,0.519,0.07
	c0.185,0.021,0.369,0.04,0.553,0.057c1.207,0.11,2.411,0.181,3.623,0.185c0.619,0.002,1.237,0.003,1.856,0.011
	c0.572,0.006,1.146,0.012,1.718,0.064c0.085,0.009,0.168,0.016,0.253,0.018c0.418,0.015,0.83-0.173,1.13-0.454
	c0.229-0.216,0.402-0.496,0.586-0.751c0.188-0.263,0.359-0.536,0.535-0.806c0.317-0.488,0.643-0.976,0.94-1.476
	c0.347-0.581,0.677-1.171,1.011-1.76c0.307-0.54,0.631-1.07,0.93-1.614c0.313-0.57,0.622-1.142,0.953-1.703
	c0.314-0.531,0.658-1.057,1.028-1.551c0.001-0.001,0.001-0.003,0.002-0.004c0.186-0.229,0.377-0.453,0.547-0.693
	c0.106-0.151,0.207-0.306,0.313-0.457c0.159-0.185,0.326-0.362,0.486-0.546c0.157-0.181,0.318-0.37,0.432-0.582
	c0.139-0.257,0.21-0.551,0.195-0.843c-0.016-0.339-0.131-0.639-0.283-0.938c-0.17-0.332-0.414-0.643-0.651-0.929
	c-0.131-0.159-0.263-0.317-0.394-0.476c-0.437-0.525-0.926-0.996-1.449-1.436c-1.016-0.853-2.094-1.638-3.164-2.421
	c-0.406-0.297-0.817-0.589-1.217-0.896c-0.392-0.305-0.776-0.617-1.164-0.928c-0.025-0.025-0.051-0.051-0.076-0.076
	c-0.206-0.207-0.398-0.429-0.604-0.637c-0.123-0.125-0.262-0.234-0.42-0.311c-0.309-0.148-0.629-0.198-0.97-0.22
	c-0.041-0.002-0.083-0.004-0.124-0.004C25.834,11.114,25.59,11.154,25.353,11.182"/>
<path opacity="0.9753" fill="#292521" d="M27.664,22.803c-0.032,0.296-0.056,0.585-0.048,0.882c0.004,0.174,0.014,0.347,0.021,0.521
	c0.019,0.369,0.037,0.738,0.048,1.107c0.022,0.784,0.084,1.57,0.19,2.348c0.166,1.314,0.438,2.611,0.782,3.89
	c0,0.001,0.002,0.001,0.003,0c0.059-0.886,0.088-1.772,0.075-2.659c-0.004-0.295-0.013-0.59-0.027-0.885
	c-0.015-0.307-0.029-0.618-0.08-0.921c-0.081-0.658-0.197-1.316-0.339-1.964c-0.172-0.782-0.413-1.547-0.623-2.319l-0.001-0.001
	C27.665,22.801,27.664,22.802,27.664,22.803"/>
<path opacity="0.9753" fill="#292521" d="M20.243,22.868c-0.148,0.818-0.242,1.648-0.324,2.476
	c-0.059,0.592-0.105,1.185-0.133,1.778c-0.033,0.704-0.014,1.416,0.021,2.12c0.032,0.624,0.072,1.248,0.135,1.87
	c0.03,0.301,0.064,0.601,0.102,0.901c0,0.001,0.002,0.002,0.003,0c0.349-1.472,0.604-2.972,0.633-4.487
	c0.011-0.639-0.035-1.279-0.089-1.916c-0.053-0.604-0.121-1.209-0.2-1.812c-0.042-0.311-0.089-0.621-0.145-0.931
	C20.245,22.868,20.244,22.867,20.243,22.868C20.243,22.867,20.243,22.868,20.243,22.868"/>
<path opacity="0.9753" fill="#292521" d="M22.03,22.668c-0.301,0.026-0.601,0.057-0.901,0.09c-0.536,0.061-1.077,0.066-1.614,0.109
	c-0.002,0-0.002,0.002,0,0.003c0.51,0.145,1.018,0.276,1.542,0.357c0.308,0.049,0.622,0.075,0.933,0.103
	c0.554,0.049,1.11,0.084,1.666,0.079c1.303-0.013,2.604-0.208,3.878-0.473c0.002,0,0.002-0.003,0-0.003
	c-1.263-0.206-2.542-0.337-3.821-0.348c-0.033-0.001-0.065-0.001-0.099-0.001C23.085,22.585,22.557,22.623,22.03,22.668"/>
<path opacity="0.9753" fill="#292521" d="M14.875,19.756c0.235,0.28,0.47,0.567,0.733,0.822c0.105,0.102,0.212,0.202,0.317,0.303
	c0.225,0.218,0.449,0.437,0.677,0.652c0.44,0.415,0.892,0.809,1.37,1.178c0.599,0.483,1.229,0.93,1.873,1.352
	c0.001,0.001,0.003,0,0.002-0.002c-0.637-0.865-1.326-1.697-2.126-2.417c-0.334-0.301-0.703-0.573-1.075-0.827
	c-0.188-0.127-0.378-0.255-0.574-0.369c-0.399-0.231-0.792-0.472-1.195-0.695c0,0,0,0-0.001,0
	C14.875,19.753,14.875,19.754,14.875,19.756"/>
<path opacity="0.9753" fill="#292521" d="M17.923,14.85c-0.613,0.73-1.188,1.499-1.663,2.327c-0.498,0.868-0.8,1.811-1.054,2.776
	c0,0.001,0.002,0.002,0.003,0c0.364-0.511,0.69-1.043,1.023-1.574c0.187-0.296,0.381-0.59,0.553-0.897
	c0.465-0.834,0.828-1.731,1.141-2.632C17.926,14.85,17.925,14.85,17.923,14.85C17.924,14.85,17.924,14.85,17.923,14.85"/>
<path opacity="0.9753" fill="#292521" d="M13.881,13.128c0.16,0.279,0.309,0.559,0.512,0.809c0.115,0.141,0.283,0.254,0.426,0.368
	c0.221,0.176,0.447,0.346,0.684,0.5c0.538,0.349,1.108,0.645,1.692,0.908c0.001,0.001,0.003-0.001,0.002-0.002
	c-0.409-0.426-0.841-0.83-1.309-1.192c-0.196-0.151-0.401-0.291-0.612-0.419c-0.255-0.155-0.536-0.274-0.777-0.451
	c-0.209-0.168-0.405-0.353-0.615-0.521c0,0,0,0,0,0C13.881,13.126,13.88,13.127,13.881,13.128"/>
<path opacity="0.9753" fill="#292521" d="M15.472,14.853c0.43,0.164,0.86,0.329,1.299,0.468c0.193,0.061,0.391,0.107,0.587,0.157
	c0.317,0.082,0.636,0.152,0.956,0.222c0.637,0.139,1.29,0.205,1.939,0.257c1.219,0.098,2.438,0.086,3.659,0.097
	c0.241,0.002,0.482,0.001,0.723,0c0.318-0.001,0.637-0.003,0.956,0.003c0.846,0.016,1.692,0.007,2.538-0.011
	c0.002,0,0.002-0.002,0-0.003c-0.879-0.277-1.767-0.518-2.664-0.729c-0.633-0.149-1.284-0.225-1.928-0.309
	c-0.27-0.035-0.544-0.047-0.815-0.063c-0.277-0.018-0.555-0.035-0.833-0.037c-0.71-0.007-1.421,0.024-2.13,0.062
	c-0.53,0.029-1.063,0.032-1.594,0.02c-0.282-0.007-0.564-0.011-0.847-0.019c-0.617-0.017-1.229-0.083-1.846-0.117h0
	C15.471,14.85,15.471,14.852,15.472,14.853"/>
<path opacity="0.9753" fill="#292521" d="M25.411,12.532c0.23,0.613,0.498,1.216,0.829,1.782c0.107,0.183,0.228,0.358,0.351,0.531
	c0.286,0.404,0.567,0.811,0.875,1.199c0.001,0.001,0.003,0,0.002-0.001c-0.212-0.675-0.454-1.329-0.829-1.93
	c-0.353-0.565-0.779-1.089-1.225-1.583c-0.001,0-0.001,0-0.002,0S25.41,12.531,25.411,12.532"/>
<path opacity="0.9753" fill="#292521" d="M25.146,14.852c0.514,0.412,1.028,0.821,1.57,1.195c0.257,0.178,0.517,0.353,0.777,0.524
	c0.53,0.347,1.069,0.677,1.619,0.99c0.65,0.371,1.318,0.679,2.009,0.967c0.274,0.115,0.562,0.202,0.845,0.293
	c0.243,0.078,0.484,0.155,0.732,0.213c0.769,0.181,1.541,0.333,2.32,0.456c0.002,0,0.003-0.001,0.002-0.002
	c-0.691-0.376-1.39-0.743-2.097-1.086c-0.184-0.089-0.361-0.187-0.541-0.282c-0.262-0.139-0.533-0.262-0.792-0.406
	c-0.994-0.555-2.015-1.052-3.063-1.494c-0.374-0.161-0.751-0.316-1.128-0.469c-0.75-0.303-1.498-0.611-2.253-0.901l0,0
	C25.146,14.85,25.146,14.851,25.146,14.852"/>
<path opacity="0.9753" fill="#292521" d="M26.802,17.104c0.021,1.088,0.104,2.172,0.268,3.248c0.07,0.469,0.202,0.933,0.331,1.387
	c0.243,0.862,0.583,1.695,0.926,2.521c0.001,0.001,0.004,0.001,0.003-0.001c-0.084-0.868-0.209-1.731-0.343-2.594
	c-0.077-0.496-0.171-0.988-0.295-1.475c-0.105-0.417-0.197-0.837-0.313-1.253c-0.171-0.617-0.365-1.229-0.572-1.834
	c-0.001,0-0.001-0.001-0.002-0.001S26.802,17.103,26.802,17.104"/>
</svg>
