<?xml version="1.0" encoding="utf-8"?>
<!-- Generator: Adobe Illustrator 15.0.0, SVG Export Plug-In . SVG Version: 6.00 Build 0)  -->
<!DOCTYPE svg PUBLIC "-//W3C//DTD SVG 1.1//EN" "http://www.w3.org/Graphics/SVG/1.1/DTD/svg11.dtd">
<svg version="1.1" id="Capa_1" xmlns="http://www.w3.org/2000/svg" xmlns:xlink="http://www.w3.org/1999/xlink" x="0px" y="0px"
	 width="125px" height="50px" viewBox="0 0 125 50" enable-background="new 0 0 125 50" xml:space="preserve">
<g>
	<path fill-rule="evenodd" clip-rule="evenodd" fill="#FFFFFF" d="M90.282,36.008c1.743,1.403,1.415,0.787,0.636-0.58
		c-1.534-2.696,0.114-7.244,0.743-9.305c0.343-1.124-0.47-1.422-1.257-1.542c-0.788-0.119-0.999,1.611-2.219,3.324
		c-2.19,3.074-3.749,4.617-5.477,4.354c-1.604-0.245,0.63-4.188,2.631-6.154c3.145-3.091,6.402-3.335,4.659-4.189
		c-1.785-0.876-4.053,0.609-6.923,2.833c-3.599,2.79-5.072,7.898-7.751,8.328c-2.822,0.452,0.271-5.11,0.91-6.63
		c0.721-1.715,1.423-2.664-0.517-3.079c-0.842-0.181-1.142,0.987-2.322,3.201c-1.117,2.092-3.526,5.551-5.76,6.561
		c-2.145,0.97-2.108-1.51,0.685-6.795c1.086-2.056,1.996-2.5,0.122-3.179c-0.568-0.207-1.341,0.841-2.091,2.203
		c-3.751,6.814-4.399,9.761-0.879,9.976c3.43,0.209,7.06-4.688,7.06-4.688s-1.673,3.909,1.373,4.084
		c2.457,0.141,5.368-3.437,5.368-3.437s-0.457,2.809,2.707,3.105c3.357,0.314,6.498-4.618,6.498-4.618S87.806,34.015,90.282,36.008z
		"/>
	<path fill-rule="evenodd" clip-rule="evenodd" fill="#FFFFFF" d="M123.159,37.664c-2.932-0.825-6.622-3.83-5.826-9.754
		c0.36-2.683,1.051-2.943-0.558-3.48c-1.034-0.344-1.677,2.333-3.251,4.321c-3.354,4.235-6.297,4.412-5.287,1.415
		c1.009-2.997,4.403-6.608,8.959-7.916c0.728-0.209,1.914-0.437,0.691-0.919c-1.222-0.483-1.809-1.188-5.822,0.854
		c-5.885,2.994-6.446,7.3-7.243,8.694c-2.273,2.823-5.288,5.851-7.144,3.898c-1.678-1.765-0.11-5.39-0.11-5.39
		s4.319-2.508,8.123-8.369c2.888-4.451,4.13-8.016,2.343-8.595c-1.786-0.579-4.759,0.586-7.914,5.413
		c-3.155,4.827-9.806,17.117-1.995,18.753c3.282,0.688,6.711-3.964,6.711-3.964s1.077,2.684,4.588,1.402
		c3.253-1.188,5.494-4.729,5.494-4.729s-0.378,6.708,7.651,8.909C126.611,39.313,124.743,38.109,123.159,37.664z M106.313,15.244
		c0.857,1.292-4.218,9.351-8.201,12.259C99.35,22.75,105.265,13.665,106.313,15.244z"/>
	<path fill-rule="evenodd" clip-rule="evenodd" fill="#FFFFFF" d="M118.196,18.295c0.13-0.578-1.658-0.683-3.065-5.5
		c-0.635-2.172-2.545-3.641-2.46-1.69C112.873,15.776,117.965,18.662,118.196,18.295z"/>
	<path fill-rule="evenodd" clip-rule="evenodd" fill="#FFFFFF" d="M43.958,44.05c0.426,1.288-0.858,0.159-1.445-1.476
		c-0.588-1.635-4.936-13.32,5.531-24.881c7.028-7.764,18.02-8.549,18.344-2.853c0.453,7.949-11.282,10.284-11.282,10.284
		s8.082,0.758,5.338,6.725c-2.136,4.643-9.54,5.894-13.759,5.544c-4.112-0.34-2.262-0.641-0.005-0.867
		c4.387-0.439,9.458-2.384,10.35-4.938c1.355-3.881-2.825-5.189-6.483-5.285c-2.701-0.07-3.198-1.077-3-1.543
		c0.225-0.53,1.889-0.505,4.283-0.816c5.197-0.674,10.672-3.988,11.183-7.577c0.425-2.996-5.937-2.901-11.364,2.085
		c-5.427,4.986-7.782,10.272-8.624,14.851C42.181,37.881,43.118,41.507,43.958,44.05z"/>
</g>
<g>
	<path fill-rule="evenodd" clip-rule="evenodd" fill="#ED804D" d="M34.773,30.529c0,0-4.125-0.269-5.392-0.397
		c-1.267-0.128-1.574,0.153-1.661,1.838c-0.088,1.684-0.018,3.27-0.018,3.27s-2.854-0.979-8.545-1.012
		c-5.69-0.032-9.288,0.821-9.734,0.529c-0.446-0.292,0.108-3.195-1.913-3.333c-2.021-0.138-4.051,0.479-4.616,0.701
		c-0.563,0.223,0.012,0.334,0.695,0.268c1.988-0.194,3.777,0.135,3.777,0.135s0.15,1.116,0.217,2.241
		c0.067,1.125-0.039,2.183,2.778,1.908s4.359-0.759,8.905-0.448c4.546,0.312,7.97,0.69,8.802,1.07
		c0.832,0.379,1.673,0.005,1.702-1.422c0.029-1.428-0.229-4.083-0.229-4.083s4.437-0.391,5.129-0.583
		C35.364,31.016,36.587,30.688,34.773,30.529z"/>
	<path fill-rule="evenodd" clip-rule="evenodd" fill="#ED804D" d="M4.057,28.577c0,0,27.111-0.293,29.653-0.374
		c2.544-0.08,1.919-0.48-0.072-0.747c-1.991-0.267-16.509-2.499-30.996,0.336C-0.762,28.459-0.279,28.706,4.057,28.577z"/>
	<path fill-rule="evenodd" clip-rule="evenodd" fill="#ED804D" d="M28.461,27.541c0,0,0.549-3.823-1.574-5.879
		c-2.898-2.806-11.757-3.439-15.946,0.296c-2.848,2.539-2.957,5.734-2.957,5.734l-1.068,0.188c0,0-0.205-6.85,7.025-9.481
		c7.23-2.631,12.593,0.492,14.041,2.487c1.448,1.996,1.826,5.182,1.397,6.65C29.193,28.182,28.461,27.541,28.461,27.541z"/>
	<path fill-rule="evenodd" clip-rule="evenodd" fill="#ED804D" d="M20.153,18.249c0,0-0.105-1.091,0.71-2.286
		c1.055-1.546,2.077-3.026,0.3-2.894c-1.777,0.132-3.327,0.407-3.088,1.952c0.238,1.545,1.065,2.473,0.849,2.745
		s-3.515-2.387-2.266-4.043c1.25-1.656,2.636-2.237,5.328-2.055c2.693,0.183,1.916,2.602,0.258,4
		c-1.657,1.399-1.761,2.556-1.761,2.556L20.153,18.249z"/>
</g>
</svg>
